<?xml version="1.0" encoding="utf-8"?>
<svg xmlns="http://www.w3.org/2000/svg" xmlns:xlink="http://www.w3.org/1999/xlink" width="672" height="480" viewBox="0 0 2688 1920">
<defs>
  <clipPath id="clip960">
    <rect x="0" y="0" width="2688" height="1920"/>
  </clipPath>
</defs>
<path clip-path="url(#clip960)" d="M0 1920 L2688 1920 L2688 0 L0 0  Z" fill="#ffffff" fill-rule="evenodd" fill-opacity="1"/>
<defs>
  <clipPath id="clip961">
    <rect x="537" y="0" width="1883" height="1883"/>
  </clipPath>
</defs>
<path clip-path="url(#clip960)" d="M256.302 498.559 L2640.76 498.559 L2640.76 47.2441 L256.302 47.2441  Z" fill="#ffffff" fill-rule="evenodd" fill-opacity="1"/>
<defs>
  <clipPath id="clip962">
    <rect x="256" y="47" width="2385" height="452"/>
  </clipPath>
</defs>
<polyline clip-path="url(#clip960)" style="stroke:#000000; stroke-linecap:round; stroke-linejoin:round; stroke-width:4; stroke-opacity:1; fill:none" points="256.302,498.559 2640.76,498.559 "/>
<polyline clip-path="url(#clip960)" style="stroke:#000000; stroke-linecap:round; stroke-linejoin:round; stroke-width:4; stroke-opacity:1; fill:none" points="323.787,498.559 323.787,479.661 "/>
<polyline clip-path="url(#clip960)" style="stroke:#000000; stroke-linecap:round; stroke-linejoin:round; stroke-width:4; stroke-opacity:1; fill:none" points="1073.62,498.559 1073.62,479.661 "/>
<polyline clip-path="url(#clip960)" style="stroke:#000000; stroke-linecap:round; stroke-linejoin:round; stroke-width:4; stroke-opacity:1; fill:none" points="1823.44,498.559 1823.44,479.661 "/>
<polyline clip-path="url(#clip960)" style="stroke:#000000; stroke-linecap:round; stroke-linejoin:round; stroke-width:4; stroke-opacity:1; fill:none" points="2573.27,498.559 2573.27,479.661 "/>
<path clip-path="url(#clip960)" d="M323.787 531.781 Q320.176 531.781 318.347 535.346 Q316.542 538.888 316.542 546.017 Q316.542 553.124 318.347 556.688 Q320.176 560.23 323.787 560.23 Q327.421 560.23 329.227 556.688 Q331.055 553.124 331.055 546.017 Q331.055 538.888 329.227 535.346 Q327.421 531.781 323.787 531.781 M323.787 528.078 Q329.597 528.078 332.653 532.684 Q335.731 537.267 335.731 546.017 Q335.731 554.744 332.653 559.351 Q329.597 563.934 323.787 563.934 Q317.977 563.934 314.898 559.351 Q311.843 554.744 311.843 546.017 Q311.843 537.267 314.898 532.684 Q317.977 528.078 323.787 528.078 Z" fill="#000000" fill-rule="evenodd" fill-opacity="1" /><path clip-path="url(#clip960)" d="M1063.89 528.703 L1082.25 528.703 L1082.25 532.638 L1068.18 532.638 L1068.18 541.11 Q1069.19 540.763 1070.21 540.601 Q1071.23 540.415 1072.25 540.415 Q1078.04 540.415 1081.42 543.587 Q1084.8 546.758 1084.8 552.175 Q1084.8 557.753 1081.32 560.855 Q1077.85 563.934 1071.53 563.934 Q1069.36 563.934 1067.09 563.563 Q1064.84 563.193 1062.43 562.452 L1062.43 557.753 Q1064.52 558.888 1066.74 559.443 Q1068.96 559.999 1071.44 559.999 Q1075.44 559.999 1077.78 557.892 Q1080.12 555.786 1080.12 552.175 Q1080.12 548.564 1077.78 546.457 Q1075.44 544.351 1071.44 544.351 Q1069.56 544.351 1067.69 544.767 Q1065.84 545.184 1063.89 546.064 L1063.89 528.703 Z" fill="#000000" fill-rule="evenodd" fill-opacity="1" /><path clip-path="url(#clip960)" d="M1798.13 559.327 L1805.77 559.327 L1805.77 532.962 L1797.46 534.628 L1797.46 530.369 L1805.72 528.703 L1810.4 528.703 L1810.4 559.327 L1818.04 559.327 L1818.04 563.263 L1798.13 563.263 L1798.13 559.327 Z" fill="#000000" fill-rule="evenodd" fill-opacity="1" /><path clip-path="url(#clip960)" d="M1837.48 531.781 Q1833.87 531.781 1832.04 535.346 Q1830.24 538.888 1830.24 546.017 Q1830.24 553.124 1832.04 556.688 Q1833.87 560.23 1837.48 560.23 Q1841.12 560.23 1842.92 556.688 Q1844.75 553.124 1844.75 546.017 Q1844.75 538.888 1842.92 535.346 Q1841.12 531.781 1837.48 531.781 M1837.48 528.078 Q1843.29 528.078 1846.35 532.684 Q1849.43 537.267 1849.43 546.017 Q1849.43 554.744 1846.35 559.351 Q1843.29 563.934 1837.48 563.934 Q1831.67 563.934 1828.59 559.351 Q1825.54 554.744 1825.54 546.017 Q1825.54 537.267 1828.59 532.684 Q1831.67 528.078 1837.48 528.078 Z" fill="#000000" fill-rule="evenodd" fill-opacity="1" /><path clip-path="url(#clip960)" d="M2548.46 559.327 L2556.1 559.327 L2556.1 532.962 L2547.79 534.628 L2547.79 530.369 L2556.05 528.703 L2560.73 528.703 L2560.73 559.327 L2568.36 559.327 L2568.36 563.263 L2548.46 563.263 L2548.46 559.327 Z" fill="#000000" fill-rule="evenodd" fill-opacity="1" /><path clip-path="url(#clip960)" d="M2577.85 528.703 L2596.21 528.703 L2596.21 532.638 L2582.14 532.638 L2582.14 541.11 Q2583.16 540.763 2584.17 540.601 Q2585.19 540.415 2586.21 540.415 Q2592 540.415 2595.38 543.587 Q2598.76 546.758 2598.76 552.175 Q2598.76 557.753 2595.29 560.855 Q2591.81 563.934 2585.49 563.934 Q2583.32 563.934 2581.05 563.563 Q2578.8 563.193 2576.4 562.452 L2576.4 557.753 Q2578.48 558.888 2580.7 559.443 Q2582.92 559.999 2585.4 559.999 Q2589.41 559.999 2591.74 557.892 Q2594.08 555.786 2594.08 552.175 Q2594.08 548.564 2591.74 546.457 Q2589.41 544.351 2585.4 544.351 Q2583.53 544.351 2581.65 544.767 Q2579.8 545.184 2577.85 546.064 L2577.85 528.703 Z" fill="#000000" fill-rule="evenodd" fill-opacity="1" /><polyline clip-path="url(#clip960)" style="stroke:#000000; stroke-linecap:round; stroke-linejoin:round; stroke-width:4; stroke-opacity:1; fill:none" points="256.302,498.559 256.302,47.2441 "/>
<polyline clip-path="url(#clip960)" style="stroke:#000000; stroke-linecap:round; stroke-linejoin:round; stroke-width:4; stroke-opacity:1; fill:none" points="256.302,498.559 275.2,498.559 "/>
<polyline clip-path="url(#clip960)" style="stroke:#000000; stroke-linecap:round; stroke-linejoin:round; stroke-width:4; stroke-opacity:1; fill:none" points="256.302,388.618 275.2,388.618 "/>
<polyline clip-path="url(#clip960)" style="stroke:#000000; stroke-linecap:round; stroke-linejoin:round; stroke-width:4; stroke-opacity:1; fill:none" points="256.302,278.677 275.2,278.677 "/>
<polyline clip-path="url(#clip960)" style="stroke:#000000; stroke-linecap:round; stroke-linejoin:round; stroke-width:4; stroke-opacity:1; fill:none" points="256.302,168.736 275.2,168.736 "/>
<polyline clip-path="url(#clip960)" style="stroke:#000000; stroke-linecap:round; stroke-linejoin:round; stroke-width:4; stroke-opacity:1; fill:none" points="256.302,58.7951 275.2,58.7951 "/>
<path clip-path="url(#clip960)" d="M158.807 484.357 Q155.196 484.357 153.367 487.922 Q151.561 491.464 151.561 498.593 Q151.561 505.7 153.367 509.264 Q155.196 512.806 158.807 512.806 Q162.441 512.806 164.247 509.264 Q166.075 505.7 166.075 498.593 Q166.075 491.464 164.247 487.922 Q162.441 484.357 158.807 484.357 M158.807 480.654 Q164.617 480.654 167.673 485.26 Q170.751 489.843 170.751 498.593 Q170.751 507.32 167.673 511.927 Q164.617 516.51 158.807 516.51 Q152.997 516.51 149.918 511.927 Q146.862 507.32 146.862 498.593 Q146.862 489.843 149.918 485.26 Q152.997 480.654 158.807 480.654 Z" fill="#000000" fill-rule="evenodd" fill-opacity="1" /><path clip-path="url(#clip960)" d="M178.969 509.959 L183.853 509.959 L183.853 515.839 L178.969 515.839 L178.969 509.959 Z" fill="#000000" fill-rule="evenodd" fill-opacity="1" /><path clip-path="url(#clip960)" d="M204.038 484.357 Q200.427 484.357 198.598 487.922 Q196.793 491.464 196.793 498.593 Q196.793 505.7 198.598 509.264 Q200.427 512.806 204.038 512.806 Q207.672 512.806 209.478 509.264 Q211.307 505.7 211.307 498.593 Q211.307 491.464 209.478 487.922 Q207.672 484.357 204.038 484.357 M204.038 480.654 Q209.848 480.654 212.904 485.26 Q215.982 489.843 215.982 498.593 Q215.982 507.32 212.904 511.927 Q209.848 516.51 204.038 516.51 Q198.228 516.51 195.149 511.927 Q192.094 507.32 192.094 498.593 Q192.094 489.843 195.149 485.26 Q198.228 480.654 204.038 480.654 Z" fill="#000000" fill-rule="evenodd" fill-opacity="1" /><path clip-path="url(#clip960)" d="M160.034 374.416 Q156.423 374.416 154.594 377.981 Q152.788 381.523 152.788 388.652 Q152.788 395.759 154.594 399.324 Q156.423 402.865 160.034 402.865 Q163.668 402.865 165.473 399.324 Q167.302 395.759 167.302 388.652 Q167.302 381.523 165.473 377.981 Q163.668 374.416 160.034 374.416 M160.034 370.713 Q165.844 370.713 168.899 375.319 Q171.978 379.902 171.978 388.652 Q171.978 397.379 168.899 401.986 Q165.844 406.569 160.034 406.569 Q154.223 406.569 151.145 401.986 Q148.089 397.379 148.089 388.652 Q148.089 379.902 151.145 375.319 Q154.223 370.713 160.034 370.713 Z" fill="#000000" fill-rule="evenodd" fill-opacity="1" /><path clip-path="url(#clip960)" d="M180.196 400.018 L185.08 400.018 L185.08 405.898 L180.196 405.898 L180.196 400.018 Z" fill="#000000" fill-rule="evenodd" fill-opacity="1" /><path clip-path="url(#clip960)" d="M196.075 401.962 L203.714 401.962 L203.714 375.597 L195.404 377.264 L195.404 373.004 L203.668 371.338 L208.344 371.338 L208.344 401.962 L215.982 401.962 L215.982 405.898 L196.075 405.898 L196.075 401.962 Z" fill="#000000" fill-rule="evenodd" fill-opacity="1" /><path clip-path="url(#clip960)" d="M160.404 264.475 Q156.793 264.475 154.964 268.04 Q153.159 271.582 153.159 278.712 Q153.159 285.818 154.964 289.383 Q156.793 292.924 160.404 292.924 Q164.038 292.924 165.844 289.383 Q167.673 285.818 167.673 278.712 Q167.673 271.582 165.844 268.04 Q164.038 264.475 160.404 264.475 M160.404 260.772 Q166.214 260.772 169.27 265.378 Q172.348 269.962 172.348 278.712 Q172.348 287.438 169.27 292.045 Q166.214 296.628 160.404 296.628 Q154.594 296.628 151.515 292.045 Q148.46 287.438 148.46 278.712 Q148.46 269.962 151.515 265.378 Q154.594 260.772 160.404 260.772 Z" fill="#000000" fill-rule="evenodd" fill-opacity="1" /><path clip-path="url(#clip960)" d="M180.566 290.077 L185.45 290.077 L185.45 295.957 L180.566 295.957 L180.566 290.077 Z" fill="#000000" fill-rule="evenodd" fill-opacity="1" /><path clip-path="url(#clip960)" d="M199.663 292.022 L215.982 292.022 L215.982 295.957 L194.038 295.957 L194.038 292.022 Q196.7 289.267 201.283 284.637 Q205.89 279.985 207.07 278.642 Q209.316 276.119 210.195 274.383 Q211.098 272.624 211.098 270.934 Q211.098 268.179 209.154 266.443 Q207.232 264.707 204.131 264.707 Q201.932 264.707 199.478 265.471 Q197.047 266.235 194.27 267.786 L194.27 263.063 Q197.094 261.929 199.547 261.35 Q202.001 260.772 204.038 260.772 Q209.408 260.772 212.603 263.457 Q215.797 266.142 215.797 270.633 Q215.797 272.762 214.987 274.684 Q214.2 276.582 212.094 279.174 Q211.515 279.846 208.413 283.063 Q205.311 286.258 199.663 292.022 Z" fill="#000000" fill-rule="evenodd" fill-opacity="1" /><path clip-path="url(#clip960)" d="M159.455 154.535 Q155.844 154.535 154.015 158.099 Q152.21 161.641 152.21 168.771 Q152.21 175.877 154.015 179.442 Q155.844 182.984 159.455 182.984 Q163.089 182.984 164.895 179.442 Q166.723 175.877 166.723 168.771 Q166.723 161.641 164.895 158.099 Q163.089 154.535 159.455 154.535 M159.455 150.831 Q165.265 150.831 168.321 155.437 Q171.399 160.021 171.399 168.771 Q171.399 177.497 168.321 182.104 Q165.265 186.687 159.455 186.687 Q153.645 186.687 150.566 182.104 Q147.511 177.497 147.511 168.771 Q147.511 160.021 150.566 155.437 Q153.645 150.831 159.455 150.831 Z" fill="#000000" fill-rule="evenodd" fill-opacity="1" /><path clip-path="url(#clip960)" d="M179.617 180.136 L184.501 180.136 L184.501 186.016 L179.617 186.016 L179.617 180.136 Z" fill="#000000" fill-rule="evenodd" fill-opacity="1" /><path clip-path="url(#clip960)" d="M208.853 167.382 Q212.209 168.099 214.084 170.368 Q215.982 172.636 215.982 175.97 Q215.982 181.085 212.464 183.886 Q208.945 186.687 202.464 186.687 Q200.288 186.687 197.973 186.247 Q195.682 185.831 193.228 184.974 L193.228 180.46 Q195.172 181.595 197.487 182.173 Q199.802 182.752 202.325 182.752 Q206.723 182.752 209.015 181.016 Q211.33 179.28 211.33 175.97 Q211.33 172.914 209.177 171.201 Q207.047 169.465 203.228 169.465 L199.2 169.465 L199.2 165.623 L203.413 165.623 Q206.862 165.623 208.691 164.257 Q210.519 162.868 210.519 160.275 Q210.519 157.613 208.621 156.201 Q206.746 154.766 203.228 154.766 Q201.307 154.766 199.108 155.183 Q196.908 155.599 194.27 156.479 L194.27 152.312 Q196.932 151.572 199.246 151.201 Q201.584 150.831 203.645 150.831 Q208.969 150.831 212.07 153.261 Q215.172 155.669 215.172 159.789 Q215.172 162.66 213.529 164.65 Q211.885 166.618 208.853 167.382 Z" fill="#000000" fill-rule="evenodd" fill-opacity="1" /><path clip-path="url(#clip960)" d="M158.321 44.5937 Q154.71 44.5937 152.881 48.1585 Q151.075 51.7002 151.075 58.8298 Q151.075 65.9362 152.881 69.501 Q154.71 73.0427 158.321 73.0427 Q161.955 73.0427 163.76 69.501 Q165.589 65.9362 165.589 58.8298 Q165.589 51.7002 163.76 48.1585 Q161.955 44.5937 158.321 44.5937 M158.321 40.8901 Q164.131 40.8901 167.186 45.4965 Q170.265 50.0798 170.265 58.8298 Q170.265 67.5566 167.186 72.163 Q164.131 76.7463 158.321 76.7463 Q152.511 76.7463 149.432 72.163 Q146.376 67.5566 146.376 58.8298 Q146.376 50.0798 149.432 45.4965 Q152.511 40.8901 158.321 40.8901 Z" fill="#000000" fill-rule="evenodd" fill-opacity="1" /><path clip-path="url(#clip960)" d="M178.483 70.1955 L183.367 70.1955 L183.367 76.0751 L178.483 76.0751 L178.483 70.1955 Z" fill="#000000" fill-rule="evenodd" fill-opacity="1" /><path clip-path="url(#clip960)" d="M206.399 45.5891 L194.594 64.0381 L206.399 64.0381 L206.399 45.5891 M205.172 41.5151 L211.052 41.5151 L211.052 64.0381 L215.982 64.0381 L215.982 67.9269 L211.052 67.9269 L211.052 76.0751 L206.399 76.0751 L206.399 67.9269 L190.797 67.9269 L190.797 63.4131 L205.172 41.5151 Z" fill="#000000" fill-rule="evenodd" fill-opacity="1" /><path clip-path="url(#clip960)" d="M91.8003 455.279 L44.2803 473.421 L44.2803 466.705 L84.2888 451.65 L44.2803 436.564 L44.2803 429.88 L91.8003 447.99 L91.8003 455.279 Z" fill="#000000" fill-rule="evenodd" fill-opacity="1" /><path clip-path="url(#clip960)" d="M62.9955 374.721 Q59.0488 372.525 57.1709 369.469 Q55.293 366.414 55.293 362.276 Q55.293 356.706 59.2079 353.682 Q63.091 350.658 70.2842 350.658 L91.8003 350.658 L91.8003 356.547 L70.4752 356.547 Q65.3508 356.547 62.8682 358.361 Q60.3856 360.175 60.3856 363.899 Q60.3856 368.451 63.4093 371.092 Q66.433 373.734 71.6529 373.734 L91.8003 373.734 L91.8003 379.622 L70.4752 379.622 Q65.319 379.622 62.8682 381.437 Q60.3856 383.251 60.3856 387.038 Q60.3856 391.526 63.4411 394.168 Q66.4648 396.81 71.6529 396.81 L91.8003 396.81 L91.8003 402.698 L56.1524 402.698 L56.1524 396.81 L61.6905 396.81 Q58.4122 394.805 56.8526 392.004 Q55.293 389.203 55.293 385.352 Q55.293 381.468 57.2664 378.763 Q59.2397 376.026 62.9955 374.721 Z" fill="#000000" fill-rule="evenodd" fill-opacity="1" /><path clip-path="url(#clip960)" d="M56.1524 338.977 L56.1524 333.121 L91.8003 333.121 L91.8003 338.977 L56.1524 338.977 M42.2751 338.977 L42.2751 333.121 L49.6912 333.121 L49.6912 338.977 L42.2751 338.977 Z" fill="#000000" fill-rule="evenodd" fill-opacity="1" /><path clip-path="url(#clip960)" d="M61.5632 297.409 L42.2751 297.409 L42.2751 291.553 L91.8003 291.553 L91.8003 297.409 L86.4531 297.409 Q89.636 299.255 91.1956 302.088 Q92.7233 304.889 92.7233 308.836 Q92.7233 315.297 87.5671 319.371 Q82.4109 323.413 74.0082 323.413 Q65.6054 323.413 60.4492 319.371 Q55.293 315.297 55.293 308.836 Q55.293 304.889 56.8526 302.088 Q58.3804 299.255 61.5632 297.409 M74.0082 317.366 Q80.4694 317.366 84.1615 314.724 Q87.8218 312.05 87.8218 307.403 Q87.8218 302.756 84.1615 300.083 Q80.4694 297.409 74.0082 297.409 Q67.547 297.409 63.8867 300.083 Q60.1946 302.756 60.1946 307.403 Q60.1946 312.05 63.8867 314.724 Q67.547 317.366 74.0082 317.366 Z" fill="#000000" fill-rule="evenodd" fill-opacity="1" /><path clip-path="url(#clip960)" d="M57.2027 256.764 L62.7409 256.764 Q61.4677 259.247 60.8312 261.92 Q60.1946 264.594 60.1946 267.459 Q60.1946 271.819 61.5314 274.015 Q62.8682 276.18 65.5418 276.18 Q67.5788 276.18 68.7565 274.62 Q69.9023 273.06 70.9526 268.35 L71.3982 266.345 Q72.735 260.106 75.1858 257.496 Q77.6048 254.855 81.9653 254.855 Q86.9306 254.855 89.8269 258.801 Q92.7233 262.716 92.7233 269.591 Q92.7233 272.456 92.1504 275.575 Q91.6093 278.662 90.4953 282.1 L84.4479 282.1 Q86.1348 278.853 86.9942 275.702 Q87.8218 272.551 87.8218 269.464 Q87.8218 265.326 86.4213 263.098 Q84.989 260.87 82.4109 260.87 Q80.0238 260.87 78.7506 262.493 Q77.4775 264.085 76.2998 269.527 L75.8224 271.565 Q74.6766 277.007 72.3213 279.426 Q69.9341 281.845 65.7964 281.845 Q60.7675 281.845 58.0302 278.28 Q55.293 274.716 55.293 268.159 Q55.293 264.912 55.7704 262.048 Q56.2478 259.183 57.2027 256.764 Z" fill="#000000" fill-rule="evenodd" fill-opacity="1" /><path clip-path="url(#clip960)" d="M46.0309 239.736 L56.1524 239.736 L56.1524 227.673 L60.7038 227.673 L60.7038 239.736 L80.0556 239.736 Q84.4161 239.736 85.6574 238.558 Q86.8987 237.349 86.8987 233.689 L86.8987 227.673 L91.8003 227.673 L91.8003 233.689 Q91.8003 240.468 89.2859 243.046 Q86.7396 245.624 80.0556 245.624 L60.7038 245.624 L60.7038 249.921 L56.1524 249.921 L56.1524 245.624 L46.0309 245.624 L46.0309 239.736 Z" fill="#000000" fill-rule="evenodd" fill-opacity="1" /><path clip-path="url(#clip960)" d="M73.8809 203.77 Q73.8809 210.868 75.5041 213.605 Q77.1274 216.342 81.0423 216.342 Q84.1615 216.342 86.0075 214.305 Q87.8218 212.236 87.8218 208.703 Q87.8218 203.833 84.3843 200.905 Q80.915 197.945 75.1858 197.945 L73.8809 197.945 L73.8809 203.77 M71.4619 192.089 L91.8003 192.089 L91.8003 197.945 L86.3895 197.945 Q89.636 199.95 91.1956 202.942 Q92.7233 205.934 92.7233 210.263 Q92.7233 215.737 89.6678 218.984 Q86.5804 222.198 81.4242 222.198 Q75.4086 222.198 72.3531 218.188 Q69.2975 214.146 69.2975 206.157 L69.2975 197.945 L68.7246 197.945 Q64.6824 197.945 62.4862 200.619 Q60.2582 203.26 60.2582 208.067 Q60.2582 211.122 60.9903 214.019 Q61.7224 216.915 63.1865 219.589 L57.7756 219.589 Q56.5343 216.374 55.9296 213.35 Q55.293 210.326 55.293 207.462 Q55.293 199.728 59.3034 195.908 Q63.3138 192.089 71.4619 192.089 Z" fill="#000000" fill-rule="evenodd" fill-opacity="1" /><path clip-path="url(#clip960)" d="M70.2842 150.393 L91.8003 150.393 L91.8003 156.25 L70.4752 156.25 Q65.4145 156.25 62.9 158.223 Q60.3856 160.196 60.3856 164.143 Q60.3856 168.886 63.4093 171.623 Q66.433 174.36 71.6529 174.36 L91.8003 174.36 L91.8003 180.248 L56.1524 180.248 L56.1524 174.36 L61.6905 174.36 Q58.4758 172.259 56.8844 169.427 Q55.293 166.562 55.293 162.838 Q55.293 156.695 59.1124 153.544 Q62.9 150.393 70.2842 150.393 Z" fill="#000000" fill-rule="evenodd" fill-opacity="1" /><path clip-path="url(#clip960)" d="M57.521 113.058 L62.9955 113.058 Q61.6269 115.541 60.9585 118.055 Q60.2582 120.538 60.2582 123.084 Q60.2582 128.782 63.8867 131.933 Q67.4833 135.084 74.0082 135.084 Q80.533 135.084 84.1615 131.933 Q87.7581 128.782 87.7581 123.084 Q87.7581 120.538 87.0897 118.055 Q86.3895 115.541 85.0208 113.058 L90.4317 113.058 Q91.5775 115.509 92.1504 118.151 Q92.7233 120.761 92.7233 123.721 Q92.7233 131.774 87.6626 136.516 Q82.6019 141.258 74.0082 141.258 Q65.2872 141.258 60.2901 136.484 Q55.293 131.678 55.293 123.339 Q55.293 120.634 55.8659 118.055 Q56.407 115.477 57.521 113.058 Z" fill="#000000" fill-rule="evenodd" fill-opacity="1" /><path clip-path="url(#clip960)" d="M72.5122 72.3816 L75.3768 72.3816 L75.3768 99.3085 Q81.4242 98.9266 84.6071 95.68 Q87.7581 92.4017 87.7581 86.5771 Q87.7581 83.2033 86.9306 80.0522 Q86.103 76.8694 84.4479 73.7502 L89.9861 73.7502 Q91.3229 76.9012 92.0231 80.2114 Q92.7233 83.5215 92.7233 86.9272 Q92.7233 95.4572 87.7581 100.454 Q82.7928 105.42 74.3265 105.42 Q65.5736 105.42 60.4492 100.709 Q55.293 95.9665 55.293 87.9457 Q55.293 80.7525 59.94 76.5829 Q64.5551 72.3816 72.5122 72.3816 M70.7935 78.238 Q65.9874 78.3017 63.1228 80.9434 Q60.2582 83.5534 60.2582 87.882 Q60.2582 92.7836 63.0273 95.7437 Q65.7964 98.6719 70.8253 99.1175 L70.7935 78.238 Z" fill="#000000" fill-rule="evenodd" fill-opacity="1" /><polyline clip-path="url(#clip962)" style="stroke:#009af9; stroke-linecap:round; stroke-linejoin:round; stroke-width:4; stroke-opacity:1; fill:none" points="323.787,47.2441 323.787,47.2441 473.753,47.2441 623.718,47.2441 773.684,47.2441 923.649,47.2441 1073.62,47.2441 1223.58,47.2441 1373.55,47.2441 1523.51,148.225 1673.48,116.061 1823.44,94.5396 1973.41,79.9066 2123.37,69.8682 2273.34,62.9448 2423.31,58.1538 2573.27,54.8311 2573.27,47.2441 "/>
<circle clip-path="url(#clip962)" cx="323.787" cy="47.2441" r="14.4" fill="#009af9" fill-rule="evenodd" fill-opacity="1" stroke="#000000" stroke-opacity="1" stroke-width="3.84"/>
<circle clip-path="url(#clip962)" cx="323.787" cy="47.2441" r="14.4" fill="#009af9" fill-rule="evenodd" fill-opacity="1" stroke="#000000" stroke-opacity="1" stroke-width="3.84"/>
<circle clip-path="url(#clip962)" cx="473.753" cy="47.2441" r="14.4" fill="#009af9" fill-rule="evenodd" fill-opacity="1" stroke="#000000" stroke-opacity="1" stroke-width="3.84"/>
<circle clip-path="url(#clip962)" cx="623.718" cy="47.2441" r="14.4" fill="#009af9" fill-rule="evenodd" fill-opacity="1" stroke="#000000" stroke-opacity="1" stroke-width="3.84"/>
<circle clip-path="url(#clip962)" cx="773.684" cy="47.2441" r="14.4" fill="#009af9" fill-rule="evenodd" fill-opacity="1" stroke="#000000" stroke-opacity="1" stroke-width="3.84"/>
<circle clip-path="url(#clip962)" cx="923.649" cy="47.2441" r="14.4" fill="#009af9" fill-rule="evenodd" fill-opacity="1" stroke="#000000" stroke-opacity="1" stroke-width="3.84"/>
<circle clip-path="url(#clip962)" cx="1073.62" cy="47.2441" r="14.4" fill="#009af9" fill-rule="evenodd" fill-opacity="1" stroke="#000000" stroke-opacity="1" stroke-width="3.84"/>
<circle clip-path="url(#clip962)" cx="1223.58" cy="47.2441" r="14.4" fill="#009af9" fill-rule="evenodd" fill-opacity="1" stroke="#000000" stroke-opacity="1" stroke-width="3.84"/>
<circle clip-path="url(#clip962)" cx="1373.55" cy="47.2441" r="14.4" fill="#009af9" fill-rule="evenodd" fill-opacity="1" stroke="#000000" stroke-opacity="1" stroke-width="3.84"/>
<circle clip-path="url(#clip962)" cx="1523.51" cy="148.225" r="14.4" fill="#009af9" fill-rule="evenodd" fill-opacity="1" stroke="#000000" stroke-opacity="1" stroke-width="3.84"/>
<circle clip-path="url(#clip962)" cx="1673.48" cy="116.061" r="14.4" fill="#009af9" fill-rule="evenodd" fill-opacity="1" stroke="#000000" stroke-opacity="1" stroke-width="3.84"/>
<circle clip-path="url(#clip962)" cx="1823.44" cy="94.5396" r="14.4" fill="#009af9" fill-rule="evenodd" fill-opacity="1" stroke="#000000" stroke-opacity="1" stroke-width="3.84"/>
<circle clip-path="url(#clip962)" cx="1973.41" cy="79.9066" r="14.4" fill="#009af9" fill-rule="evenodd" fill-opacity="1" stroke="#000000" stroke-opacity="1" stroke-width="3.84"/>
<circle clip-path="url(#clip962)" cx="2123.37" cy="69.8682" r="14.4" fill="#009af9" fill-rule="evenodd" fill-opacity="1" stroke="#000000" stroke-opacity="1" stroke-width="3.84"/>
<circle clip-path="url(#clip962)" cx="2273.34" cy="62.9448" r="14.4" fill="#009af9" fill-rule="evenodd" fill-opacity="1" stroke="#000000" stroke-opacity="1" stroke-width="3.84"/>
<circle clip-path="url(#clip962)" cx="2423.31" cy="58.1538" r="14.4" fill="#009af9" fill-rule="evenodd" fill-opacity="1" stroke="#000000" stroke-opacity="1" stroke-width="3.84"/>
<circle clip-path="url(#clip962)" cx="2573.27" cy="54.8311" r="14.4" fill="#009af9" fill-rule="evenodd" fill-opacity="1" stroke="#000000" stroke-opacity="1" stroke-width="3.84"/>
<circle clip-path="url(#clip962)" cx="2573.27" cy="47.2441" r="14.4" fill="#009af9" fill-rule="evenodd" fill-opacity="1" stroke="#000000" stroke-opacity="1" stroke-width="3.84"/>
<path clip-path="url(#clip960)" d="M335.784 483.515 L626.66 483.515 L626.66 379.835 L335.784 379.835  Z" fill="#ffffff" fill-rule="evenodd" fill-opacity="1"/>
<polyline clip-path="url(#clip960)" style="stroke:#000000; stroke-linecap:round; stroke-linejoin:round; stroke-width:4; stroke-opacity:1; fill:none" points="335.784,483.515 626.66,483.515 626.66,379.835 335.784,379.835 335.784,483.515 "/>
<polyline clip-path="url(#clip960)" style="stroke:#009af9; stroke-linecap:round; stroke-linejoin:round; stroke-width:4; stroke-opacity:1; fill:none" points="362.278,431.675 521.242,431.675 "/>
<circle clip-path="url(#clip960)" cx="441.76" cy="431.675" r="22.0783" fill="#009af9" fill-rule="evenodd" fill-opacity="1" stroke="#000000" stroke-opacity="1" stroke-width="6.144"/>
<path clip-path="url(#clip960)" d="M561.578 451.362 Q559.773 455.992 558.06 457.404 Q556.347 458.816 553.476 458.816 L550.074 458.816 L550.074 455.251 L552.574 455.251 Q554.333 455.251 555.305 454.418 Q556.277 453.584 557.458 450.482 L558.222 448.538 L547.736 423.029 L552.249 423.029 L560.351 443.307 L568.453 423.029 L572.967 423.029 L561.578 451.362 Z" fill="#000000" fill-rule="evenodd" fill-opacity="1" /><path clip-path="url(#clip960)" d="M580.259 445.02 L587.897 445.02 L587.897 418.654 L579.587 420.321 L579.587 416.061 L587.851 414.395 L592.527 414.395 L592.527 445.02 L600.166 445.02 L600.166 448.955 L580.259 448.955 L580.259 445.02 Z" fill="#000000" fill-rule="evenodd" fill-opacity="1" /><path clip-path="url(#clip960)" d="M256.302 1116.34 L2640.76 1116.34 L2640.76 665.023 L256.302 665.023  Z" fill="#ffffff" fill-rule="evenodd" fill-opacity="1"/>
<defs>
  <clipPath id="clip963">
    <rect x="256" y="665" width="2385" height="452"/>
  </clipPath>
</defs>
<polyline clip-path="url(#clip960)" style="stroke:#000000; stroke-linecap:round; stroke-linejoin:round; stroke-width:4; stroke-opacity:1; fill:none" points="256.302,1116.34 2640.76,1116.34 "/>
<polyline clip-path="url(#clip960)" style="stroke:#000000; stroke-linecap:round; stroke-linejoin:round; stroke-width:4; stroke-opacity:1; fill:none" points="548.735,1116.34 548.735,1097.44 "/>
<polyline clip-path="url(#clip960)" style="stroke:#000000; stroke-linecap:round; stroke-linejoin:round; stroke-width:4; stroke-opacity:1; fill:none" points="848.667,1116.34 848.667,1097.44 "/>
<polyline clip-path="url(#clip960)" style="stroke:#000000; stroke-linecap:round; stroke-linejoin:round; stroke-width:4; stroke-opacity:1; fill:none" points="1148.6,1116.34 1148.6,1097.44 "/>
<polyline clip-path="url(#clip960)" style="stroke:#000000; stroke-linecap:round; stroke-linejoin:round; stroke-width:4; stroke-opacity:1; fill:none" points="1448.53,1116.34 1448.53,1097.44 "/>
<polyline clip-path="url(#clip960)" style="stroke:#000000; stroke-linecap:round; stroke-linejoin:round; stroke-width:4; stroke-opacity:1; fill:none" points="1748.46,1116.34 1748.46,1097.44 "/>
<polyline clip-path="url(#clip960)" style="stroke:#000000; stroke-linecap:round; stroke-linejoin:round; stroke-width:4; stroke-opacity:1; fill:none" points="2048.39,1116.34 2048.39,1097.44 "/>
<polyline clip-path="url(#clip960)" style="stroke:#000000; stroke-linecap:round; stroke-linejoin:round; stroke-width:4; stroke-opacity:1; fill:none" points="2348.32,1116.34 2348.32,1097.44 "/>
<path clip-path="url(#clip960)" d="M543.388 1177.11 L559.708 1177.11 L559.708 1181.04 L537.763 1181.04 L537.763 1177.11 Q540.425 1174.35 545.009 1169.72 Q549.615 1165.07 550.796 1163.73 Q553.041 1161.2 553.921 1159.47 Q554.823 1157.71 554.823 1156.02 Q554.823 1153.26 552.879 1151.53 Q550.958 1149.79 547.856 1149.79 Q545.657 1149.79 543.203 1150.56 Q540.772 1151.32 537.995 1152.87 L537.995 1148.15 Q540.819 1147.01 543.272 1146.44 Q545.726 1145.86 547.763 1145.86 Q553.134 1145.86 556.328 1148.54 Q559.522 1151.23 559.522 1155.72 Q559.522 1157.85 558.712 1159.77 Q557.925 1161.67 555.819 1164.26 Q555.24 1164.93 552.138 1168.15 Q549.036 1171.34 543.388 1177.11 Z" fill="#000000" fill-rule="evenodd" fill-opacity="1" /><path clip-path="url(#clip960)" d="M851.676 1150.56 L839.87 1169 L851.676 1169 L851.676 1150.56 M850.449 1146.48 L856.329 1146.48 L856.329 1169 L861.259 1169 L861.259 1172.89 L856.329 1172.89 L856.329 1181.04 L851.676 1181.04 L851.676 1172.89 L836.074 1172.89 L836.074 1168.38 L850.449 1146.48 Z" fill="#000000" fill-rule="evenodd" fill-opacity="1" /><path clip-path="url(#clip960)" d="M1149 1161.9 Q1145.85 1161.9 1144 1164.05 Q1142.17 1166.2 1142.17 1169.95 Q1142.17 1173.68 1144 1175.86 Q1145.85 1178.01 1149 1178.01 Q1152.15 1178.01 1153.98 1175.86 Q1155.83 1173.68 1155.83 1169.95 Q1155.83 1166.2 1153.98 1164.05 Q1152.15 1161.9 1149 1161.9 M1158.29 1147.25 L1158.29 1151.5 Q1156.53 1150.67 1154.72 1150.23 Q1152.94 1149.79 1151.18 1149.79 Q1146.55 1149.79 1144.1 1152.92 Q1141.67 1156.04 1141.32 1162.36 Q1142.68 1160.35 1144.74 1159.28 Q1146.8 1158.19 1149.28 1158.19 Q1154.49 1158.19 1157.5 1161.37 Q1160.53 1164.51 1160.53 1169.95 Q1160.53 1175.28 1157.38 1178.5 Q1154.23 1181.71 1149 1181.71 Q1143.01 1181.71 1139.84 1177.13 Q1136.67 1172.52 1136.67 1163.8 Q1136.67 1155.6 1140.55 1150.74 Q1144.44 1145.86 1150.99 1145.86 Q1152.75 1145.86 1154.54 1146.2 Q1156.34 1146.55 1158.29 1147.25 Z" fill="#000000" fill-rule="evenodd" fill-opacity="1" /><path clip-path="url(#clip960)" d="M1448.53 1164.63 Q1445.2 1164.63 1443.27 1166.41 Q1441.38 1168.19 1441.38 1171.32 Q1441.38 1174.44 1443.27 1176.23 Q1445.2 1178.01 1448.53 1178.01 Q1451.86 1178.01 1453.78 1176.23 Q1455.71 1174.42 1455.71 1171.32 Q1455.71 1168.19 1453.78 1166.41 Q1451.89 1164.63 1448.53 1164.63 M1443.85 1162.64 Q1440.84 1161.9 1439.15 1159.84 Q1437.49 1157.78 1437.49 1154.82 Q1437.49 1150.67 1440.43 1148.26 Q1443.39 1145.86 1448.53 1145.86 Q1453.69 1145.86 1456.63 1148.26 Q1459.57 1150.67 1459.57 1154.82 Q1459.57 1157.78 1457.88 1159.84 Q1456.21 1161.9 1453.23 1162.64 Q1456.61 1163.43 1458.48 1165.72 Q1460.38 1168.01 1460.38 1171.32 Q1460.38 1176.34 1457.3 1179.03 Q1454.25 1181.71 1448.53 1181.71 Q1442.81 1181.71 1439.73 1179.03 Q1436.68 1176.34 1436.68 1171.32 Q1436.68 1168.01 1438.58 1165.72 Q1440.47 1163.43 1443.85 1162.64 M1442.14 1155.25 Q1442.14 1157.94 1443.81 1159.44 Q1445.5 1160.95 1448.53 1160.95 Q1451.54 1160.95 1453.23 1159.44 Q1454.94 1157.94 1454.94 1155.25 Q1454.94 1152.57 1453.23 1151.07 Q1451.54 1149.56 1448.53 1149.56 Q1445.5 1149.56 1443.81 1151.07 Q1442.14 1152.57 1442.14 1155.25 Z" fill="#000000" fill-rule="evenodd" fill-opacity="1" /><path clip-path="url(#clip960)" d="M1723.15 1177.11 L1730.79 1177.11 L1730.79 1150.74 L1722.48 1152.41 L1722.48 1148.15 L1730.74 1146.48 L1735.42 1146.48 L1735.42 1177.11 L1743.06 1177.11 L1743.06 1181.04 L1723.15 1181.04 L1723.15 1177.11 Z" fill="#000000" fill-rule="evenodd" fill-opacity="1" /><path clip-path="url(#clip960)" d="M1762.5 1149.56 Q1758.89 1149.56 1757.06 1153.13 Q1755.25 1156.67 1755.25 1163.8 Q1755.25 1170.9 1757.06 1174.47 Q1758.89 1178.01 1762.5 1178.01 Q1766.13 1178.01 1767.94 1174.47 Q1769.77 1170.9 1769.77 1163.8 Q1769.77 1156.67 1767.94 1153.13 Q1766.13 1149.56 1762.5 1149.56 M1762.5 1145.86 Q1768.31 1145.86 1771.37 1150.46 Q1774.44 1155.05 1774.44 1163.8 Q1774.44 1172.52 1771.37 1177.13 Q1768.31 1181.71 1762.5 1181.71 Q1756.69 1181.71 1753.61 1177.13 Q1750.56 1172.52 1750.56 1163.8 Q1750.56 1155.05 1753.61 1150.46 Q1756.69 1145.86 1762.5 1145.86 Z" fill="#000000" fill-rule="evenodd" fill-opacity="1" /><path clip-path="url(#clip960)" d="M2023.88 1177.11 L2031.52 1177.11 L2031.52 1150.74 L2023.21 1152.41 L2023.21 1148.15 L2031.47 1146.48 L2036.15 1146.48 L2036.15 1177.11 L2043.79 1177.11 L2043.79 1181.04 L2023.88 1181.04 L2023.88 1177.11 Z" fill="#000000" fill-rule="evenodd" fill-opacity="1" /><path clip-path="url(#clip960)" d="M2057.26 1177.11 L2073.58 1177.11 L2073.58 1181.04 L2051.63 1181.04 L2051.63 1177.11 Q2054.29 1174.35 2058.88 1169.72 Q2063.48 1165.07 2064.66 1163.73 Q2066.91 1161.2 2067.79 1159.47 Q2068.69 1157.71 2068.69 1156.02 Q2068.69 1153.26 2066.75 1151.53 Q2064.83 1149.79 2061.72 1149.79 Q2059.53 1149.79 2057.07 1150.56 Q2054.64 1151.32 2051.86 1152.87 L2051.86 1148.15 Q2054.69 1147.01 2057.14 1146.44 Q2059.6 1145.86 2061.63 1145.86 Q2067 1145.86 2070.2 1148.54 Q2073.39 1151.23 2073.39 1155.72 Q2073.39 1157.85 2072.58 1159.77 Q2071.79 1161.67 2069.69 1164.26 Q2069.11 1164.93 2066.01 1168.15 Q2062.91 1171.34 2057.26 1177.11 Z" fill="#000000" fill-rule="evenodd" fill-opacity="1" /><path clip-path="url(#clip960)" d="M2322.77 1177.11 L2330.41 1177.11 L2330.41 1150.74 L2322.1 1152.41 L2322.1 1148.15 L2330.36 1146.48 L2335.04 1146.48 L2335.04 1177.11 L2342.67 1177.11 L2342.67 1181.04 L2322.77 1181.04 L2322.77 1177.11 Z" fill="#000000" fill-rule="evenodd" fill-opacity="1" /><path clip-path="url(#clip960)" d="M2364.97 1150.56 L2353.16 1169 L2364.97 1169 L2364.97 1150.56 M2363.74 1146.48 L2369.62 1146.48 L2369.62 1169 L2374.55 1169 L2374.55 1172.89 L2369.62 1172.89 L2369.62 1181.04 L2364.97 1181.04 L2364.97 1172.89 L2349.36 1172.89 L2349.36 1168.38 L2363.74 1146.48 Z" fill="#000000" fill-rule="evenodd" fill-opacity="1" /><polyline clip-path="url(#clip960)" style="stroke:#000000; stroke-linecap:round; stroke-linejoin:round; stroke-width:4; stroke-opacity:1; fill:none" points="256.302,1116.34 256.302,665.023 "/>
<polyline clip-path="url(#clip960)" style="stroke:#000000; stroke-linecap:round; stroke-linejoin:round; stroke-width:4; stroke-opacity:1; fill:none" points="256.302,1116.34 275.2,1116.34 "/>
<polyline clip-path="url(#clip960)" style="stroke:#000000; stroke-linecap:round; stroke-linejoin:round; stroke-width:4; stroke-opacity:1; fill:none" points="256.302,1022.92 275.2,1022.92 "/>
<polyline clip-path="url(#clip960)" style="stroke:#000000; stroke-linecap:round; stroke-linejoin:round; stroke-width:4; stroke-opacity:1; fill:none" points="256.302,929.493 275.2,929.493 "/>
<polyline clip-path="url(#clip960)" style="stroke:#000000; stroke-linecap:round; stroke-linejoin:round; stroke-width:4; stroke-opacity:1; fill:none" points="256.302,836.071 275.2,836.071 "/>
<polyline clip-path="url(#clip960)" style="stroke:#000000; stroke-linecap:round; stroke-linejoin:round; stroke-width:4; stroke-opacity:1; fill:none" points="256.302,742.649 275.2,742.649 "/>
<path clip-path="url(#clip960)" d="M128.645 1102.14 Q125.034 1102.14 123.205 1105.7 Q121.4 1109.24 121.4 1116.37 Q121.4 1123.48 123.205 1127.04 Q125.034 1130.59 128.645 1130.59 Q132.279 1130.59 134.085 1127.04 Q135.913 1123.48 135.913 1116.37 Q135.913 1109.24 134.085 1105.7 Q132.279 1102.14 128.645 1102.14 M128.645 1098.43 Q134.455 1098.43 137.511 1103.04 Q140.589 1107.62 140.589 1116.37 Q140.589 1125.1 137.511 1129.71 Q134.455 1134.29 128.645 1134.29 Q122.835 1134.29 119.756 1129.71 Q116.701 1125.1 116.701 1116.37 Q116.701 1107.62 119.756 1103.04 Q122.835 1098.43 128.645 1098.43 Z" fill="#000000" fill-rule="evenodd" fill-opacity="1" /><path clip-path="url(#clip960)" d="M148.807 1127.74 L153.691 1127.74 L153.691 1133.62 L148.807 1133.62 L148.807 1127.74 Z" fill="#000000" fill-rule="evenodd" fill-opacity="1" /><path clip-path="url(#clip960)" d="M173.876 1102.14 Q170.265 1102.14 168.436 1105.7 Q166.631 1109.24 166.631 1116.37 Q166.631 1123.48 168.436 1127.04 Q170.265 1130.59 173.876 1130.59 Q177.51 1130.59 179.316 1127.04 Q181.145 1123.48 181.145 1116.37 Q181.145 1109.24 179.316 1105.7 Q177.51 1102.14 173.876 1102.14 M173.876 1098.43 Q179.686 1098.43 182.742 1103.04 Q185.821 1107.62 185.821 1116.37 Q185.821 1125.1 182.742 1129.71 Q179.686 1134.29 173.876 1134.29 Q168.066 1134.29 164.987 1129.71 Q161.932 1125.1 161.932 1116.37 Q161.932 1107.62 164.987 1103.04 Q168.066 1098.43 173.876 1098.43 Z" fill="#000000" fill-rule="evenodd" fill-opacity="1" /><path clip-path="url(#clip960)" d="M204.038 1102.14 Q200.427 1102.14 198.598 1105.7 Q196.793 1109.24 196.793 1116.37 Q196.793 1123.48 198.598 1127.04 Q200.427 1130.59 204.038 1130.59 Q207.672 1130.59 209.478 1127.04 Q211.307 1123.48 211.307 1116.37 Q211.307 1109.24 209.478 1105.7 Q207.672 1102.14 204.038 1102.14 M204.038 1098.43 Q209.848 1098.43 212.904 1103.04 Q215.982 1107.62 215.982 1116.37 Q215.982 1125.1 212.904 1129.71 Q209.848 1134.29 204.038 1134.29 Q198.228 1134.29 195.149 1129.71 Q192.094 1125.1 192.094 1116.37 Q192.094 1107.62 195.149 1103.04 Q198.228 1098.43 204.038 1098.43 Z" fill="#000000" fill-rule="evenodd" fill-opacity="1" /><path clip-path="url(#clip960)" d="M129.64 1008.71 Q126.029 1008.71 124.201 1012.28 Q122.395 1015.82 122.395 1022.95 Q122.395 1030.06 124.201 1033.62 Q126.029 1037.16 129.64 1037.16 Q133.275 1037.16 135.08 1033.62 Q136.909 1030.06 136.909 1022.95 Q136.909 1015.82 135.08 1012.28 Q133.275 1008.71 129.64 1008.71 M129.64 1005.01 Q135.45 1005.01 138.506 1009.62 Q141.585 1014.2 141.585 1022.95 Q141.585 1031.68 138.506 1036.28 Q135.45 1040.87 129.64 1040.87 Q123.83 1040.87 120.751 1036.28 Q117.696 1031.68 117.696 1022.95 Q117.696 1014.2 120.751 1009.62 Q123.83 1005.01 129.64 1005.01 Z" fill="#000000" fill-rule="evenodd" fill-opacity="1" /><path clip-path="url(#clip960)" d="M149.802 1034.32 L154.686 1034.32 L154.686 1040.2 L149.802 1040.2 L149.802 1034.32 Z" fill="#000000" fill-rule="evenodd" fill-opacity="1" /><path clip-path="url(#clip960)" d="M174.872 1008.71 Q171.26 1008.71 169.432 1012.28 Q167.626 1015.82 167.626 1022.95 Q167.626 1030.06 169.432 1033.62 Q171.26 1037.16 174.872 1037.16 Q178.506 1037.16 180.311 1033.62 Q182.14 1030.06 182.14 1022.95 Q182.14 1015.82 180.311 1012.28 Q178.506 1008.71 174.872 1008.71 M174.872 1005.01 Q180.682 1005.01 183.737 1009.62 Q186.816 1014.2 186.816 1022.95 Q186.816 1031.68 183.737 1036.28 Q180.682 1040.87 174.872 1040.87 Q169.061 1040.87 165.983 1036.28 Q162.927 1031.68 162.927 1022.95 Q162.927 1014.2 165.983 1009.62 Q169.061 1005.01 174.872 1005.01 Z" fill="#000000" fill-rule="evenodd" fill-opacity="1" /><path clip-path="url(#clip960)" d="M195.08 1005.64 L213.436 1005.64 L213.436 1009.57 L199.362 1009.57 L199.362 1018.04 Q200.381 1017.7 201.399 1017.53 Q202.418 1017.35 203.436 1017.35 Q209.223 1017.35 212.603 1020.52 Q215.982 1023.69 215.982 1029.11 Q215.982 1034.69 212.51 1037.79 Q209.038 1040.87 202.719 1040.87 Q200.543 1040.87 198.274 1040.5 Q196.029 1040.13 193.621 1039.39 L193.621 1034.69 Q195.705 1035.82 197.927 1036.38 Q200.149 1036.93 202.626 1036.93 Q206.631 1036.93 208.969 1034.83 Q211.307 1032.72 211.307 1029.11 Q211.307 1025.5 208.969 1023.39 Q206.631 1021.28 202.626 1021.28 Q200.751 1021.28 198.876 1021.7 Q197.024 1022.12 195.08 1023 L195.08 1005.64 Z" fill="#000000" fill-rule="evenodd" fill-opacity="1" /><path clip-path="url(#clip960)" d="M128.645 915.292 Q125.034 915.292 123.205 918.857 Q121.4 922.398 121.4 929.528 Q121.4 936.634 123.205 940.199 Q125.034 943.741 128.645 943.741 Q132.279 943.741 134.085 940.199 Q135.913 936.634 135.913 929.528 Q135.913 922.398 134.085 918.857 Q132.279 915.292 128.645 915.292 M128.645 911.588 Q134.455 911.588 137.511 916.195 Q140.589 920.778 140.589 929.528 Q140.589 938.255 137.511 942.861 Q134.455 947.445 128.645 947.445 Q122.835 947.445 119.756 942.861 Q116.701 938.255 116.701 929.528 Q116.701 920.778 119.756 916.195 Q122.835 911.588 128.645 911.588 Z" fill="#000000" fill-rule="evenodd" fill-opacity="1" /><path clip-path="url(#clip960)" d="M148.807 940.894 L153.691 940.894 L153.691 946.773 L148.807 946.773 L148.807 940.894 Z" fill="#000000" fill-rule="evenodd" fill-opacity="1" /><path clip-path="url(#clip960)" d="M164.686 942.838 L172.325 942.838 L172.325 916.472 L164.015 918.139 L164.015 913.88 L172.279 912.213 L176.955 912.213 L176.955 942.838 L184.594 942.838 L184.594 946.773 L164.686 946.773 L164.686 942.838 Z" fill="#000000" fill-rule="evenodd" fill-opacity="1" /><path clip-path="url(#clip960)" d="M204.038 915.292 Q200.427 915.292 198.598 918.857 Q196.793 922.398 196.793 929.528 Q196.793 936.634 198.598 940.199 Q200.427 943.741 204.038 943.741 Q207.672 943.741 209.478 940.199 Q211.307 936.634 211.307 929.528 Q211.307 922.398 209.478 918.857 Q207.672 915.292 204.038 915.292 M204.038 911.588 Q209.848 911.588 212.904 916.195 Q215.982 920.778 215.982 929.528 Q215.982 938.255 212.904 942.861 Q209.848 947.445 204.038 947.445 Q198.228 947.445 195.149 942.861 Q192.094 938.255 192.094 929.528 Q192.094 920.778 195.149 916.195 Q198.228 911.588 204.038 911.588 Z" fill="#000000" fill-rule="evenodd" fill-opacity="1" /><path clip-path="url(#clip960)" d="M129.64 821.87 Q126.029 821.87 124.201 825.434 Q122.395 828.976 122.395 836.106 Q122.395 843.212 124.201 846.777 Q126.029 850.319 129.64 850.319 Q133.275 850.319 135.08 846.777 Q136.909 843.212 136.909 836.106 Q136.909 828.976 135.08 825.434 Q133.275 821.87 129.64 821.87 M129.64 818.166 Q135.45 818.166 138.506 822.772 Q141.585 827.356 141.585 836.106 Q141.585 844.832 138.506 849.439 Q135.45 854.022 129.64 854.022 Q123.83 854.022 120.751 849.439 Q117.696 844.832 117.696 836.106 Q117.696 827.356 120.751 822.772 Q123.83 818.166 129.64 818.166 Z" fill="#000000" fill-rule="evenodd" fill-opacity="1" /><path clip-path="url(#clip960)" d="M149.802 847.471 L154.686 847.471 L154.686 853.351 L149.802 853.351 L149.802 847.471 Z" fill="#000000" fill-rule="evenodd" fill-opacity="1" /><path clip-path="url(#clip960)" d="M165.682 849.416 L173.321 849.416 L173.321 823.05 L165.01 824.717 L165.01 820.458 L173.274 818.791 L177.95 818.791 L177.95 849.416 L185.589 849.416 L185.589 853.351 L165.682 853.351 L165.682 849.416 Z" fill="#000000" fill-rule="evenodd" fill-opacity="1" /><path clip-path="url(#clip960)" d="M195.08 818.791 L213.436 818.791 L213.436 822.726 L199.362 822.726 L199.362 831.198 Q200.381 830.851 201.399 830.689 Q202.418 830.504 203.436 830.504 Q209.223 830.504 212.603 833.675 Q215.982 836.846 215.982 842.263 Q215.982 847.842 212.51 850.944 Q209.038 854.022 202.719 854.022 Q200.543 854.022 198.274 853.652 Q196.029 853.282 193.621 852.541 L193.621 847.842 Q195.705 848.976 197.927 849.532 Q200.149 850.087 202.626 850.087 Q206.631 850.087 208.969 847.981 Q211.307 845.874 211.307 842.263 Q211.307 838.652 208.969 836.545 Q206.631 834.439 202.626 834.439 Q200.751 834.439 198.876 834.856 Q197.024 835.272 195.08 836.152 L195.08 818.791 Z" fill="#000000" fill-rule="evenodd" fill-opacity="1" /><path clip-path="url(#clip960)" d="M128.645 728.447 Q125.034 728.447 123.205 732.012 Q121.4 735.554 121.4 742.683 Q121.4 749.79 123.205 753.355 Q125.034 756.896 128.645 756.896 Q132.279 756.896 134.085 753.355 Q135.913 749.79 135.913 742.683 Q135.913 735.554 134.085 732.012 Q132.279 728.447 128.645 728.447 M128.645 724.744 Q134.455 724.744 137.511 729.35 Q140.589 733.933 140.589 742.683 Q140.589 751.41 137.511 756.017 Q134.455 760.6 128.645 760.6 Q122.835 760.6 119.756 756.017 Q116.701 751.41 116.701 742.683 Q116.701 733.933 119.756 729.35 Q122.835 724.744 128.645 724.744 Z" fill="#000000" fill-rule="evenodd" fill-opacity="1" /><path clip-path="url(#clip960)" d="M148.807 754.049 L153.691 754.049 L153.691 759.929 L148.807 759.929 L148.807 754.049 Z" fill="#000000" fill-rule="evenodd" fill-opacity="1" /><path clip-path="url(#clip960)" d="M167.904 755.994 L184.223 755.994 L184.223 759.929 L162.279 759.929 L162.279 755.994 Q164.941 753.239 169.524 748.609 Q174.131 743.957 175.311 742.614 Q177.557 740.091 178.436 738.355 Q179.339 736.595 179.339 734.906 Q179.339 732.151 177.395 730.415 Q175.473 728.679 172.372 728.679 Q170.172 728.679 167.719 729.443 Q165.288 730.207 162.51 731.758 L162.51 727.035 Q165.335 725.901 167.788 725.322 Q170.242 724.744 172.279 724.744 Q177.649 724.744 180.844 727.429 Q184.038 730.114 184.038 734.605 Q184.038 736.734 183.228 738.656 Q182.441 740.554 180.334 743.146 Q179.756 743.818 176.654 747.035 Q173.552 750.23 167.904 755.994 Z" fill="#000000" fill-rule="evenodd" fill-opacity="1" /><path clip-path="url(#clip960)" d="M204.038 728.447 Q200.427 728.447 198.598 732.012 Q196.793 735.554 196.793 742.683 Q196.793 749.79 198.598 753.355 Q200.427 756.896 204.038 756.896 Q207.672 756.896 209.478 753.355 Q211.307 749.79 211.307 742.683 Q211.307 735.554 209.478 732.012 Q207.672 728.447 204.038 728.447 M204.038 724.744 Q209.848 724.744 212.904 729.35 Q215.982 733.933 215.982 742.683 Q215.982 751.41 212.904 756.017 Q209.848 760.6 204.038 760.6 Q198.228 760.6 195.149 756.017 Q192.094 751.41 192.094 742.683 Q192.094 733.933 195.149 729.35 Q198.228 724.744 204.038 724.744 Z" fill="#000000" fill-rule="evenodd" fill-opacity="1" /><path clip-path="url(#clip960)" d="M19.8881 899.593 L37.7439 899.593 L37.7439 891.508 Q37.7439 887.02 35.4204 884.569 Q33.0969 882.119 28.8001 882.119 Q24.5351 882.119 22.2116 884.569 Q19.8881 887.02 19.8881 891.508 L19.8881 899.593 M14.6046 906.022 L14.6046 891.508 Q14.6046 883.519 18.233 879.445 Q21.8296 875.339 28.8001 875.339 Q35.8342 875.339 39.4308 879.445 Q43.0274 883.519 43.0274 891.508 L43.0274 899.593 L62.1246 899.593 L62.1246 906.022 L14.6046 906.022 Z" fill="#000000" fill-rule="evenodd" fill-opacity="1" /><polyline clip-path="url(#clip963)" style="stroke:#009af9; stroke-linecap:round; stroke-linejoin:round; stroke-width:4; stroke-opacity:1; fill:none" points="323.787,1116.34 398.77,665.023 548.735,665.023 698.701,665.023 848.667,665.023 998.632,665.023 1148.6,665.023 1298.56,665.023 1448.53,665.023 1598.49,665.023 1748.46,665.023 1898.43,665.023 2048.39,665.023 2198.36,665.023 2348.32,665.023 2498.29,665.023 "/>
<circle clip-path="url(#clip963)" cx="323.787" cy="1116.34" r="14.4" fill="#009af9" fill-rule="evenodd" fill-opacity="1" stroke="#000000" stroke-opacity="1" stroke-width="3.84"/>
<circle clip-path="url(#clip963)" cx="398.77" cy="665.023" r="14.4" fill="#009af9" fill-rule="evenodd" fill-opacity="1" stroke="#000000" stroke-opacity="1" stroke-width="3.84"/>
<circle clip-path="url(#clip963)" cx="548.735" cy="665.023" r="14.4" fill="#009af9" fill-rule="evenodd" fill-opacity="1" stroke="#000000" stroke-opacity="1" stroke-width="3.84"/>
<circle clip-path="url(#clip963)" cx="698.701" cy="665.023" r="14.4" fill="#009af9" fill-rule="evenodd" fill-opacity="1" stroke="#000000" stroke-opacity="1" stroke-width="3.84"/>
<circle clip-path="url(#clip963)" cx="848.667" cy="665.023" r="14.4" fill="#009af9" fill-rule="evenodd" fill-opacity="1" stroke="#000000" stroke-opacity="1" stroke-width="3.84"/>
<circle clip-path="url(#clip963)" cx="998.632" cy="665.023" r="14.4" fill="#009af9" fill-rule="evenodd" fill-opacity="1" stroke="#000000" stroke-opacity="1" stroke-width="3.84"/>
<circle clip-path="url(#clip963)" cx="1148.6" cy="665.023" r="14.4" fill="#009af9" fill-rule="evenodd" fill-opacity="1" stroke="#000000" stroke-opacity="1" stroke-width="3.84"/>
<circle clip-path="url(#clip963)" cx="1298.56" cy="665.023" r="14.4" fill="#009af9" fill-rule="evenodd" fill-opacity="1" stroke="#000000" stroke-opacity="1" stroke-width="3.84"/>
<circle clip-path="url(#clip963)" cx="1448.53" cy="665.023" r="14.4" fill="#009af9" fill-rule="evenodd" fill-opacity="1" stroke="#000000" stroke-opacity="1" stroke-width="3.84"/>
<circle clip-path="url(#clip963)" cx="1598.49" cy="665.023" r="14.4" fill="#009af9" fill-rule="evenodd" fill-opacity="1" stroke="#000000" stroke-opacity="1" stroke-width="3.84"/>
<circle clip-path="url(#clip963)" cx="1748.46" cy="665.023" r="14.4" fill="#009af9" fill-rule="evenodd" fill-opacity="1" stroke="#000000" stroke-opacity="1" stroke-width="3.84"/>
<circle clip-path="url(#clip963)" cx="1898.43" cy="665.023" r="14.4" fill="#009af9" fill-rule="evenodd" fill-opacity="1" stroke="#000000" stroke-opacity="1" stroke-width="3.84"/>
<circle clip-path="url(#clip963)" cx="2048.39" cy="665.023" r="14.4" fill="#009af9" fill-rule="evenodd" fill-opacity="1" stroke="#000000" stroke-opacity="1" stroke-width="3.84"/>
<circle clip-path="url(#clip963)" cx="2198.36" cy="665.023" r="14.4" fill="#009af9" fill-rule="evenodd" fill-opacity="1" stroke="#000000" stroke-opacity="1" stroke-width="3.84"/>
<circle clip-path="url(#clip963)" cx="2348.32" cy="665.023" r="14.4" fill="#009af9" fill-rule="evenodd" fill-opacity="1" stroke="#000000" stroke-opacity="1" stroke-width="3.84"/>
<circle clip-path="url(#clip963)" cx="2498.29" cy="665.023" r="14.4" fill="#009af9" fill-rule="evenodd" fill-opacity="1" stroke="#000000" stroke-opacity="1" stroke-width="3.84"/>
<path clip-path="url(#clip960)" d="M2270.77 1101.29 L2561.27 1101.29 L2561.27 997.614 L2270.77 997.614  Z" fill="#ffffff" fill-rule="evenodd" fill-opacity="1"/>
<polyline clip-path="url(#clip960)" style="stroke:#000000; stroke-linecap:round; stroke-linejoin:round; stroke-width:4; stroke-opacity:1; fill:none" points="2270.77,1101.29 2561.27,1101.29 2561.27,997.614 2270.77,997.614 2270.77,1101.29 "/>
<polyline clip-path="url(#clip960)" style="stroke:#009af9; stroke-linecap:round; stroke-linejoin:round; stroke-width:4; stroke-opacity:1; fill:none" points="2297.26,1049.45 2456.23,1049.45 "/>
<circle clip-path="url(#clip960)" cx="2376.74" cy="1049.45" r="22.0783" fill="#009af9" fill-rule="evenodd" fill-opacity="1" stroke="#000000" stroke-opacity="1" stroke-width="6.144"/>
<path clip-path="url(#clip960)" d="M2496.56 1069.14 Q2494.76 1073.77 2493.04 1075.18 Q2491.33 1076.6 2488.46 1076.6 L2485.06 1076.6 L2485.06 1073.03 L2487.56 1073.03 Q2489.32 1073.03 2490.29 1072.2 Q2491.26 1071.36 2492.44 1068.26 L2493.21 1066.32 L2482.72 1040.81 L2487.23 1040.81 L2495.34 1061.09 L2503.44 1040.81 L2507.95 1040.81 L2496.56 1069.14 Z" fill="#000000" fill-rule="evenodd" fill-opacity="1" /><path clip-path="url(#clip960)" d="M2518.46 1062.8 L2534.78 1062.8 L2534.78 1066.73 L2512.84 1066.73 L2512.84 1062.8 Q2515.5 1060.04 2520.08 1055.41 Q2524.69 1050.76 2525.87 1049.42 Q2528.11 1046.9 2528.99 1045.16 Q2529.9 1043.4 2529.9 1041.71 Q2529.9 1038.96 2527.95 1037.22 Q2526.03 1035.48 2522.93 1035.48 Q2520.73 1035.48 2518.28 1036.25 Q2515.85 1037.01 2513.07 1038.56 L2513.07 1033.84 Q2515.89 1032.71 2518.35 1032.13 Q2520.8 1031.55 2522.84 1031.55 Q2528.21 1031.55 2531.4 1034.23 Q2534.6 1036.92 2534.6 1041.41 Q2534.6 1043.54 2533.78 1045.46 Q2533 1047.36 2530.89 1049.95 Q2530.31 1050.62 2527.21 1053.84 Q2524.11 1057.03 2518.46 1062.8 Z" fill="#000000" fill-rule="evenodd" fill-opacity="1" /><path clip-path="url(#clip960)" d="M256.302 1734.12 L2640.76 1734.12 L2640.76 1282.8 L256.302 1282.8  Z" fill="#ffffff" fill-rule="evenodd" fill-opacity="1"/>
<defs>
  <clipPath id="clip964">
    <rect x="256" y="1282" width="2385" height="452"/>
  </clipPath>
</defs>
<polyline clip-path="url(#clip960)" style="stroke:#000000; stroke-linecap:round; stroke-linejoin:round; stroke-width:4; stroke-opacity:1; fill:none" points="256.302,1734.12 2640.76,1734.12 "/>
<polyline clip-path="url(#clip960)" style="stroke:#000000; stroke-linecap:round; stroke-linejoin:round; stroke-width:4; stroke-opacity:1; fill:none" points="323.787,1734.12 323.787,1715.22 "/>
<polyline clip-path="url(#clip960)" style="stroke:#000000; stroke-linecap:round; stroke-linejoin:round; stroke-width:4; stroke-opacity:1; fill:none" points="1073.62,1734.12 1073.62,1715.22 "/>
<polyline clip-path="url(#clip960)" style="stroke:#000000; stroke-linecap:round; stroke-linejoin:round; stroke-width:4; stroke-opacity:1; fill:none" points="1823.44,1734.12 1823.44,1715.22 "/>
<polyline clip-path="url(#clip960)" style="stroke:#000000; stroke-linecap:round; stroke-linejoin:round; stroke-width:4; stroke-opacity:1; fill:none" points="2573.27,1734.12 2573.27,1715.22 "/>
<path clip-path="url(#clip960)" d="M323.787 1767.34 Q320.176 1767.34 318.347 1770.9 Q316.542 1774.45 316.542 1781.58 Q316.542 1788.68 318.347 1792.25 Q320.176 1795.79 323.787 1795.79 Q327.421 1795.79 329.227 1792.25 Q331.055 1788.68 331.055 1781.58 Q331.055 1774.45 329.227 1770.9 Q327.421 1767.34 323.787 1767.34 M323.787 1763.64 Q329.597 1763.64 332.653 1768.24 Q335.731 1772.83 335.731 1781.58 Q335.731 1790.3 332.653 1794.91 Q329.597 1799.49 323.787 1799.49 Q317.977 1799.49 314.898 1794.91 Q311.843 1790.3 311.843 1781.58 Q311.843 1772.83 314.898 1768.24 Q317.977 1763.64 323.787 1763.64 Z" fill="#000000" fill-rule="evenodd" fill-opacity="1" /><path clip-path="url(#clip960)" d="M1063.89 1764.26 L1082.25 1764.26 L1082.25 1768.2 L1068.18 1768.2 L1068.18 1776.67 Q1069.19 1776.32 1070.21 1776.16 Q1071.23 1775.97 1072.25 1775.97 Q1078.04 1775.97 1081.42 1779.15 Q1084.8 1782.32 1084.8 1787.73 Q1084.8 1793.31 1081.32 1796.41 Q1077.85 1799.49 1071.53 1799.49 Q1069.36 1799.49 1067.09 1799.12 Q1064.84 1798.75 1062.43 1798.01 L1062.43 1793.31 Q1064.52 1794.45 1066.74 1795 Q1068.96 1795.56 1071.44 1795.56 Q1075.44 1795.56 1077.78 1793.45 Q1080.12 1791.34 1080.12 1787.73 Q1080.12 1784.12 1077.78 1782.02 Q1075.44 1779.91 1071.44 1779.91 Q1069.56 1779.91 1067.69 1780.33 Q1065.84 1780.74 1063.89 1781.62 L1063.89 1764.26 Z" fill="#000000" fill-rule="evenodd" fill-opacity="1" /><path clip-path="url(#clip960)" d="M1798.13 1794.89 L1805.77 1794.89 L1805.77 1768.52 L1797.46 1770.19 L1797.46 1765.93 L1805.72 1764.26 L1810.4 1764.26 L1810.4 1794.89 L1818.04 1794.89 L1818.04 1798.82 L1798.13 1798.82 L1798.13 1794.89 Z" fill="#000000" fill-rule="evenodd" fill-opacity="1" /><path clip-path="url(#clip960)" d="M1837.48 1767.34 Q1833.87 1767.34 1832.04 1770.9 Q1830.24 1774.45 1830.24 1781.58 Q1830.24 1788.68 1832.04 1792.25 Q1833.87 1795.79 1837.48 1795.79 Q1841.12 1795.79 1842.92 1792.25 Q1844.75 1788.68 1844.75 1781.58 Q1844.75 1774.45 1842.92 1770.9 Q1841.12 1767.34 1837.48 1767.34 M1837.48 1763.64 Q1843.29 1763.64 1846.35 1768.24 Q1849.43 1772.83 1849.43 1781.58 Q1849.43 1790.3 1846.35 1794.91 Q1843.29 1799.49 1837.48 1799.49 Q1831.67 1799.49 1828.59 1794.91 Q1825.54 1790.3 1825.54 1781.58 Q1825.54 1772.83 1828.59 1768.24 Q1831.67 1763.64 1837.48 1763.64 Z" fill="#000000" fill-rule="evenodd" fill-opacity="1" /><path clip-path="url(#clip960)" d="M2548.46 1794.89 L2556.1 1794.89 L2556.1 1768.52 L2547.79 1770.19 L2547.79 1765.93 L2556.05 1764.26 L2560.73 1764.26 L2560.73 1794.89 L2568.36 1794.89 L2568.36 1798.82 L2548.46 1798.82 L2548.46 1794.89 Z" fill="#000000" fill-rule="evenodd" fill-opacity="1" /><path clip-path="url(#clip960)" d="M2577.85 1764.26 L2596.21 1764.26 L2596.21 1768.2 L2582.14 1768.2 L2582.14 1776.67 Q2583.16 1776.32 2584.17 1776.16 Q2585.19 1775.97 2586.21 1775.97 Q2592 1775.97 2595.38 1779.15 Q2598.76 1782.32 2598.76 1787.73 Q2598.76 1793.31 2595.29 1796.41 Q2591.81 1799.49 2585.49 1799.49 Q2583.32 1799.49 2581.05 1799.12 Q2578.8 1798.75 2576.4 1798.01 L2576.4 1793.31 Q2578.48 1794.45 2580.7 1795 Q2582.92 1795.56 2585.4 1795.56 Q2589.41 1795.56 2591.74 1793.45 Q2594.08 1791.34 2594.08 1787.73 Q2594.08 1784.12 2591.74 1782.02 Q2589.41 1779.91 2585.4 1779.91 Q2583.53 1779.91 2581.65 1780.33 Q2579.8 1780.74 2577.85 1781.62 L2577.85 1764.26 Z" fill="#000000" fill-rule="evenodd" fill-opacity="1" /><path clip-path="url(#clip960)" d="M1269.49 1837.34 L1269.49 1843.61 Q1265.83 1841.86 1262.59 1841 Q1259.34 1840.14 1256.32 1840.14 Q1251.06 1840.14 1248.2 1842.18 Q1245.37 1844.22 1245.37 1847.97 Q1245.37 1851.12 1247.25 1852.75 Q1249.16 1854.34 1254.44 1855.32 L1258.32 1856.12 Q1265.52 1857.49 1268.92 1860.96 Q1272.36 1864.39 1272.36 1870.19 Q1272.36 1877.09 1267.71 1880.66 Q1263.1 1884.22 1254.15 1884.22 Q1250.78 1884.22 1246.96 1883.46 Q1243.17 1882.7 1239.1 1881.2 L1239.1 1874.58 Q1243.01 1876.78 1246.77 1877.89 Q1250.52 1879 1254.15 1879 Q1259.66 1879 1262.65 1876.84 Q1265.64 1874.68 1265.64 1870.67 Q1265.64 1867.16 1263.48 1865.19 Q1261.35 1863.22 1256.44 1862.23 L1252.53 1861.47 Q1245.34 1860.03 1242.12 1856.98 Q1238.91 1853.92 1238.91 1848.48 Q1238.91 1842.18 1243.33 1838.55 Q1247.79 1834.92 1255.58 1834.92 Q1258.93 1834.92 1262.4 1835.53 Q1265.87 1836.13 1269.49 1837.34 Z" fill="#000000" fill-rule="evenodd" fill-opacity="1" /><path clip-path="url(#clip960)" d="M1287.92 1837.53 L1287.92 1847.65 L1299.99 1847.65 L1299.99 1852.2 L1287.92 1852.2 L1287.92 1871.56 Q1287.92 1875.92 1289.1 1877.16 Q1290.31 1878.4 1293.97 1878.4 L1299.99 1878.4 L1299.99 1883.3 L1293.97 1883.3 Q1287.19 1883.3 1284.61 1880.79 Q1282.03 1878.24 1282.03 1871.56 L1282.03 1852.2 L1277.74 1852.2 L1277.74 1847.65 L1282.03 1847.65 L1282.03 1837.53 L1287.92 1837.53 Z" fill="#000000" fill-rule="evenodd" fill-opacity="1" /><path clip-path="url(#clip960)" d="M1338.18 1864.01 L1338.18 1866.88 L1311.25 1866.88 Q1311.63 1872.92 1314.88 1876.11 Q1318.16 1879.26 1323.98 1879.26 Q1327.36 1879.26 1330.51 1878.43 Q1333.69 1877.6 1336.81 1875.95 L1336.81 1881.49 Q1333.66 1882.82 1330.35 1883.52 Q1327.04 1884.22 1323.63 1884.22 Q1315.1 1884.22 1310.11 1879.26 Q1305.14 1874.29 1305.14 1865.83 Q1305.14 1857.07 1309.85 1851.95 Q1314.59 1846.79 1322.62 1846.79 Q1329.81 1846.79 1333.98 1851.44 Q1338.18 1856.06 1338.18 1864.01 M1332.32 1862.29 Q1332.26 1857.49 1329.62 1854.62 Q1327.01 1851.76 1322.68 1851.76 Q1317.78 1851.76 1314.82 1854.53 Q1311.89 1857.3 1311.44 1862.33 L1332.32 1862.29 Z" fill="#000000" fill-rule="evenodd" fill-opacity="1" /><path clip-path="url(#clip960)" d="M1353.46 1877.95 L1353.46 1896.86 L1347.57 1896.86 L1347.57 1847.65 L1353.46 1847.65 L1353.46 1853.06 Q1355.3 1849.88 1358.1 1848.35 Q1360.94 1846.79 1364.85 1846.79 Q1371.34 1846.79 1375.39 1851.95 Q1379.46 1857.11 1379.46 1865.51 Q1379.46 1873.91 1375.39 1879.07 Q1371.34 1884.22 1364.85 1884.22 Q1360.94 1884.22 1358.1 1882.7 Q1355.3 1881.14 1353.46 1877.95 M1373.38 1865.51 Q1373.38 1859.05 1370.71 1855.39 Q1368.07 1851.7 1363.42 1851.7 Q1358.77 1851.7 1356.1 1855.39 Q1353.46 1859.05 1353.46 1865.51 Q1353.46 1871.97 1356.1 1875.66 Q1358.77 1879.32 1363.42 1879.32 Q1368.07 1879.32 1370.71 1875.66 Q1373.38 1871.97 1373.38 1865.51 Z" fill="#000000" fill-rule="evenodd" fill-opacity="1" /><path clip-path="url(#clip960)" d="M1439.52 1861.78 L1439.52 1883.3 L1433.67 1883.3 L1433.67 1861.98 Q1433.67 1856.92 1431.69 1854.4 Q1429.72 1851.89 1425.77 1851.89 Q1421.03 1851.89 1418.29 1854.91 Q1415.55 1857.93 1415.55 1863.15 L1415.55 1883.3 L1409.67 1883.3 L1409.67 1847.65 L1415.55 1847.65 L1415.55 1853.19 Q1417.66 1849.98 1420.49 1848.39 Q1423.35 1846.79 1427.08 1846.79 Q1433.22 1846.79 1436.37 1850.61 Q1439.52 1854.4 1439.52 1861.78 Z" fill="#000000" fill-rule="evenodd" fill-opacity="1" /><path clip-path="url(#clip960)" d="M1450.6 1869.23 L1450.6 1847.65 L1456.45 1847.65 L1456.45 1869.01 Q1456.45 1874.07 1458.43 1876.62 Q1460.4 1879.13 1464.35 1879.13 Q1469.09 1879.13 1471.83 1876.11 Q1474.6 1873.08 1474.6 1867.86 L1474.6 1847.65 L1480.45 1847.65 L1480.45 1883.3 L1474.6 1883.3 L1474.6 1877.83 Q1472.46 1881.07 1469.63 1882.66 Q1466.83 1884.22 1463.11 1884.22 Q1456.96 1884.22 1453.78 1880.4 Q1450.6 1876.59 1450.6 1869.23 M1465.33 1846.79 L1465.33 1846.79 Z" fill="#000000" fill-rule="evenodd" fill-opacity="1" /><path clip-path="url(#clip960)" d="M1520.27 1854.5 Q1522.47 1850.55 1525.52 1848.67 Q1528.58 1846.79 1532.72 1846.79 Q1538.29 1846.79 1541.31 1850.71 Q1544.33 1854.59 1544.33 1861.78 L1544.33 1883.3 L1538.44 1883.3 L1538.44 1861.98 Q1538.44 1856.85 1536.63 1854.37 Q1534.82 1851.89 1531.09 1851.89 Q1526.54 1851.89 1523.9 1854.91 Q1521.26 1857.93 1521.26 1863.15 L1521.26 1883.3 L1515.37 1883.3 L1515.37 1861.98 Q1515.37 1856.82 1513.55 1854.37 Q1511.74 1851.89 1507.95 1851.89 Q1503.47 1851.89 1500.82 1854.94 Q1498.18 1857.97 1498.18 1863.15 L1498.18 1883.3 L1492.29 1883.3 L1492.29 1847.65 L1498.18 1847.65 L1498.18 1853.19 Q1500.19 1849.91 1502.99 1848.35 Q1505.79 1846.79 1509.64 1846.79 Q1513.52 1846.79 1516.23 1848.77 Q1518.97 1850.74 1520.27 1854.5 Z" fill="#000000" fill-rule="evenodd" fill-opacity="1" /><path clip-path="url(#clip960)" d="M1581.6 1865.51 Q1581.6 1859.05 1578.93 1855.39 Q1576.29 1851.7 1571.64 1851.7 Q1566.99 1851.7 1564.32 1855.39 Q1561.68 1859.05 1561.68 1865.51 Q1561.68 1871.97 1564.32 1875.66 Q1566.99 1879.32 1571.64 1879.32 Q1576.29 1879.32 1578.93 1875.66 Q1581.6 1871.97 1581.6 1865.51 M1561.68 1853.06 Q1563.53 1849.88 1566.33 1848.35 Q1569.16 1846.79 1573.07 1846.79 Q1579.57 1846.79 1583.61 1851.95 Q1587.68 1857.11 1587.68 1865.51 Q1587.68 1873.91 1583.61 1879.07 Q1579.57 1884.22 1573.07 1884.22 Q1569.16 1884.22 1566.33 1882.7 Q1563.53 1881.14 1561.68 1877.95 L1561.68 1883.3 L1555.79 1883.3 L1555.79 1833.78 L1561.68 1833.78 L1561.68 1853.06 Z" fill="#000000" fill-rule="evenodd" fill-opacity="1" /><path clip-path="url(#clip960)" d="M1627.88 1864.01 L1627.88 1866.88 L1600.96 1866.88 Q1601.34 1872.92 1604.58 1876.11 Q1607.86 1879.26 1613.69 1879.26 Q1617.06 1879.26 1620.21 1878.43 Q1623.4 1877.6 1626.51 1875.95 L1626.51 1881.49 Q1623.36 1882.82 1620.05 1883.52 Q1616.74 1884.22 1613.34 1884.22 Q1604.81 1884.22 1599.81 1879.26 Q1594.84 1874.29 1594.84 1865.83 Q1594.84 1857.07 1599.56 1851.95 Q1604.3 1846.79 1612.32 1846.79 Q1619.51 1846.79 1623.68 1851.44 Q1627.88 1856.06 1627.88 1864.01 M1622.03 1862.29 Q1621.96 1857.49 1619.32 1854.62 Q1616.71 1851.76 1612.38 1851.76 Q1607.48 1851.76 1604.52 1854.53 Q1601.59 1857.3 1601.15 1862.33 L1622.03 1862.29 Z" fill="#000000" fill-rule="evenodd" fill-opacity="1" /><path clip-path="url(#clip960)" d="M1658.15 1853.13 Q1657.17 1852.55 1655.99 1852.3 Q1654.84 1852.01 1653.44 1852.01 Q1648.48 1852.01 1645.8 1855.26 Q1643.16 1858.47 1643.16 1864.52 L1643.16 1883.3 L1637.27 1883.3 L1637.27 1847.65 L1643.16 1847.65 L1643.16 1853.19 Q1645.01 1849.94 1647.97 1848.39 Q1650.93 1846.79 1655.16 1846.79 Q1655.76 1846.79 1656.5 1846.89 Q1657.23 1846.95 1658.12 1847.11 L1658.15 1853.13 Z" fill="#000000" fill-rule="evenodd" fill-opacity="1" /><polyline clip-path="url(#clip960)" style="stroke:#000000; stroke-linecap:round; stroke-linejoin:round; stroke-width:4; stroke-opacity:1; fill:none" points="256.302,1734.12 256.302,1282.8 "/>
<polyline clip-path="url(#clip960)" style="stroke:#000000; stroke-linecap:round; stroke-linejoin:round; stroke-width:4; stroke-opacity:1; fill:none" points="256.302,1721.34 275.2,1721.34 "/>
<polyline clip-path="url(#clip960)" style="stroke:#000000; stroke-linecap:round; stroke-linejoin:round; stroke-width:4; stroke-opacity:1; fill:none" points="256.302,1636.19 275.2,1636.19 "/>
<polyline clip-path="url(#clip960)" style="stroke:#000000; stroke-linecap:round; stroke-linejoin:round; stroke-width:4; stroke-opacity:1; fill:none" points="256.302,1551.04 275.2,1551.04 "/>
<polyline clip-path="url(#clip960)" style="stroke:#000000; stroke-linecap:round; stroke-linejoin:round; stroke-width:4; stroke-opacity:1; fill:none" points="256.302,1465.88 275.2,1465.88 "/>
<polyline clip-path="url(#clip960)" style="stroke:#000000; stroke-linecap:round; stroke-linejoin:round; stroke-width:4; stroke-opacity:1; fill:none" points="256.302,1380.73 275.2,1380.73 "/>
<polyline clip-path="url(#clip960)" style="stroke:#000000; stroke-linecap:round; stroke-linejoin:round; stroke-width:4; stroke-opacity:1; fill:none" points="256.302,1295.58 275.2,1295.58 "/>
<path clip-path="url(#clip960)" d="M128.645 1707.14 Q125.034 1707.14 123.205 1710.71 Q121.4 1714.25 121.4 1721.38 Q121.4 1728.49 123.205 1732.05 Q125.034 1735.59 128.645 1735.59 Q132.279 1735.59 134.085 1732.05 Q135.913 1728.49 135.913 1721.38 Q135.913 1714.25 134.085 1710.71 Q132.279 1707.14 128.645 1707.14 M128.645 1703.44 Q134.455 1703.44 137.511 1708.05 Q140.589 1712.63 140.589 1721.38 Q140.589 1730.11 137.511 1734.71 Q134.455 1739.3 128.645 1739.3 Q122.835 1739.3 119.756 1734.71 Q116.701 1730.11 116.701 1721.38 Q116.701 1712.63 119.756 1708.05 Q122.835 1703.44 128.645 1703.44 Z" fill="#000000" fill-rule="evenodd" fill-opacity="1" /><path clip-path="url(#clip960)" d="M148.807 1732.74 L153.691 1732.74 L153.691 1738.62 L148.807 1738.62 L148.807 1732.74 Z" fill="#000000" fill-rule="evenodd" fill-opacity="1" /><path clip-path="url(#clip960)" d="M173.876 1707.14 Q170.265 1707.14 168.436 1710.71 Q166.631 1714.25 166.631 1721.38 Q166.631 1728.49 168.436 1732.05 Q170.265 1735.59 173.876 1735.59 Q177.51 1735.59 179.316 1732.05 Q181.145 1728.49 181.145 1721.38 Q181.145 1714.25 179.316 1710.71 Q177.51 1707.14 173.876 1707.14 M173.876 1703.44 Q179.686 1703.44 182.742 1708.05 Q185.821 1712.63 185.821 1721.38 Q185.821 1730.11 182.742 1734.71 Q179.686 1739.3 173.876 1739.3 Q168.066 1739.3 164.987 1734.71 Q161.932 1730.11 161.932 1721.38 Q161.932 1712.63 164.987 1708.05 Q168.066 1703.44 173.876 1703.44 Z" fill="#000000" fill-rule="evenodd" fill-opacity="1" /><path clip-path="url(#clip960)" d="M204.038 1707.14 Q200.427 1707.14 198.598 1710.71 Q196.793 1714.25 196.793 1721.38 Q196.793 1728.49 198.598 1732.05 Q200.427 1735.59 204.038 1735.59 Q207.672 1735.59 209.478 1732.05 Q211.307 1728.49 211.307 1721.38 Q211.307 1714.25 209.478 1710.71 Q207.672 1707.14 204.038 1707.14 M204.038 1703.44 Q209.848 1703.44 212.904 1708.05 Q215.982 1712.63 215.982 1721.38 Q215.982 1730.11 212.904 1734.71 Q209.848 1739.3 204.038 1739.3 Q198.228 1739.3 195.149 1734.71 Q192.094 1730.11 192.094 1721.38 Q192.094 1712.63 195.149 1708.05 Q198.228 1703.44 204.038 1703.44 Z" fill="#000000" fill-rule="evenodd" fill-opacity="1" /><path clip-path="url(#clip960)" d="M129.872 1621.99 Q126.261 1621.99 124.432 1625.55 Q122.626 1629.1 122.626 1636.22 Q122.626 1643.33 124.432 1646.9 Q126.261 1650.44 129.872 1650.44 Q133.506 1650.44 135.312 1646.9 Q137.14 1643.33 137.14 1636.22 Q137.14 1629.1 135.312 1625.55 Q133.506 1621.99 129.872 1621.99 M129.872 1618.29 Q135.682 1618.29 138.737 1622.89 Q141.816 1627.48 141.816 1636.22 Q141.816 1644.95 138.737 1649.56 Q135.682 1654.14 129.872 1654.14 Q124.062 1654.14 120.983 1649.56 Q117.927 1644.95 117.927 1636.22 Q117.927 1627.48 120.983 1622.89 Q124.062 1618.29 129.872 1618.29 Z" fill="#000000" fill-rule="evenodd" fill-opacity="1" /><path clip-path="url(#clip960)" d="M150.034 1647.59 L154.918 1647.59 L154.918 1653.47 L150.034 1653.47 L150.034 1647.59 Z" fill="#000000" fill-rule="evenodd" fill-opacity="1" /><path clip-path="url(#clip960)" d="M175.103 1621.99 Q171.492 1621.99 169.663 1625.55 Q167.858 1629.1 167.858 1636.22 Q167.858 1643.33 169.663 1646.9 Q171.492 1650.44 175.103 1650.44 Q178.737 1650.44 180.543 1646.9 Q182.371 1643.33 182.371 1636.22 Q182.371 1629.1 180.543 1625.55 Q178.737 1621.99 175.103 1621.99 M175.103 1618.29 Q180.913 1618.29 183.969 1622.89 Q187.047 1627.48 187.047 1636.22 Q187.047 1644.95 183.969 1649.56 Q180.913 1654.14 175.103 1654.14 Q169.293 1654.14 166.214 1649.56 Q163.159 1644.95 163.159 1636.22 Q163.159 1627.48 166.214 1622.89 Q169.293 1618.29 175.103 1618.29 Z" fill="#000000" fill-rule="evenodd" fill-opacity="1" /><path clip-path="url(#clip960)" d="M196.075 1649.54 L203.714 1649.54 L203.714 1623.17 L195.404 1624.84 L195.404 1620.58 L203.668 1618.91 L208.344 1618.91 L208.344 1649.54 L215.982 1649.54 L215.982 1653.47 L196.075 1653.47 L196.075 1649.54 Z" fill="#000000" fill-rule="evenodd" fill-opacity="1" /><path clip-path="url(#clip960)" d="M130.242 1536.84 Q126.631 1536.84 124.802 1540.4 Q122.997 1543.94 122.997 1551.07 Q122.997 1558.18 124.802 1561.74 Q126.631 1565.28 130.242 1565.28 Q133.876 1565.28 135.682 1561.74 Q137.511 1558.18 137.511 1551.07 Q137.511 1543.94 135.682 1540.4 Q133.876 1536.84 130.242 1536.84 M130.242 1533.13 Q136.052 1533.13 139.108 1537.74 Q142.187 1542.32 142.187 1551.07 Q142.187 1559.8 139.108 1564.4 Q136.052 1568.99 130.242 1568.99 Q124.432 1568.99 121.353 1564.4 Q118.298 1559.8 118.298 1551.07 Q118.298 1542.32 121.353 1537.74 Q124.432 1533.13 130.242 1533.13 Z" fill="#000000" fill-rule="evenodd" fill-opacity="1" /><path clip-path="url(#clip960)" d="M150.404 1562.44 L155.288 1562.44 L155.288 1568.32 L150.404 1568.32 L150.404 1562.44 Z" fill="#000000" fill-rule="evenodd" fill-opacity="1" /><path clip-path="url(#clip960)" d="M175.473 1536.84 Q171.862 1536.84 170.034 1540.4 Q168.228 1543.94 168.228 1551.07 Q168.228 1558.18 170.034 1561.74 Q171.862 1565.28 175.473 1565.28 Q179.108 1565.28 180.913 1561.74 Q182.742 1558.18 182.742 1551.07 Q182.742 1543.94 180.913 1540.4 Q179.108 1536.84 175.473 1536.84 M175.473 1533.13 Q181.284 1533.13 184.339 1537.74 Q187.418 1542.32 187.418 1551.07 Q187.418 1559.8 184.339 1564.4 Q181.284 1568.99 175.473 1568.99 Q169.663 1568.99 166.585 1564.4 Q163.529 1559.8 163.529 1551.07 Q163.529 1542.32 166.585 1537.74 Q169.663 1533.13 175.473 1533.13 Z" fill="#000000" fill-rule="evenodd" fill-opacity="1" /><path clip-path="url(#clip960)" d="M199.663 1564.38 L215.982 1564.38 L215.982 1568.32 L194.038 1568.32 L194.038 1564.38 Q196.7 1561.63 201.283 1557 Q205.89 1552.34 207.07 1551 Q209.316 1548.48 210.195 1546.74 Q211.098 1544.98 211.098 1543.29 Q211.098 1540.54 209.154 1538.8 Q207.232 1537.07 204.131 1537.07 Q201.932 1537.07 199.478 1537.83 Q197.047 1538.59 194.27 1540.15 L194.27 1535.42 Q197.094 1534.29 199.547 1533.71 Q202.001 1533.13 204.038 1533.13 Q209.408 1533.13 212.603 1535.82 Q215.797 1538.5 215.797 1542.99 Q215.797 1545.12 214.987 1547.04 Q214.2 1548.94 212.094 1551.53 Q211.515 1552.21 208.413 1555.42 Q205.311 1558.62 199.663 1564.38 Z" fill="#000000" fill-rule="evenodd" fill-opacity="1" /><path clip-path="url(#clip960)" d="M129.293 1451.68 Q125.682 1451.68 123.853 1455.25 Q122.048 1458.79 122.048 1465.92 Q122.048 1473.02 123.853 1476.59 Q125.682 1480.13 129.293 1480.13 Q132.927 1480.13 134.733 1476.59 Q136.562 1473.02 136.562 1465.92 Q136.562 1458.79 134.733 1455.25 Q132.927 1451.68 129.293 1451.68 M129.293 1447.98 Q135.103 1447.98 138.159 1452.58 Q141.237 1457.17 141.237 1465.92 Q141.237 1474.64 138.159 1479.25 Q135.103 1483.83 129.293 1483.83 Q123.483 1483.83 120.404 1479.25 Q117.349 1474.64 117.349 1465.92 Q117.349 1457.17 120.404 1452.58 Q123.483 1447.98 129.293 1447.98 Z" fill="#000000" fill-rule="evenodd" fill-opacity="1" /><path clip-path="url(#clip960)" d="M149.455 1477.28 L154.339 1477.28 L154.339 1483.16 L149.455 1483.16 L149.455 1477.28 Z" fill="#000000" fill-rule="evenodd" fill-opacity="1" /><path clip-path="url(#clip960)" d="M174.524 1451.68 Q170.913 1451.68 169.085 1455.25 Q167.279 1458.79 167.279 1465.92 Q167.279 1473.02 169.085 1476.59 Q170.913 1480.13 174.524 1480.13 Q178.159 1480.13 179.964 1476.59 Q181.793 1473.02 181.793 1465.92 Q181.793 1458.79 179.964 1455.25 Q178.159 1451.68 174.524 1451.68 M174.524 1447.98 Q180.334 1447.98 183.39 1452.58 Q186.469 1457.17 186.469 1465.92 Q186.469 1474.64 183.39 1479.25 Q180.334 1483.83 174.524 1483.83 Q168.714 1483.83 165.635 1479.25 Q162.58 1474.64 162.58 1465.92 Q162.58 1457.17 165.635 1452.58 Q168.714 1447.98 174.524 1447.98 Z" fill="#000000" fill-rule="evenodd" fill-opacity="1" /><path clip-path="url(#clip960)" d="M208.853 1464.53 Q212.209 1465.25 214.084 1467.51 Q215.982 1469.78 215.982 1473.12 Q215.982 1478.23 212.464 1481.03 Q208.945 1483.83 202.464 1483.83 Q200.288 1483.83 197.973 1483.39 Q195.682 1482.98 193.228 1482.12 L193.228 1477.61 Q195.172 1478.74 197.487 1479.32 Q199.802 1479.9 202.325 1479.9 Q206.723 1479.9 209.015 1478.16 Q211.33 1476.43 211.33 1473.12 Q211.33 1470.06 209.177 1468.35 Q207.047 1466.61 203.228 1466.61 L199.2 1466.61 L199.2 1462.77 L203.413 1462.77 Q206.862 1462.77 208.691 1461.4 Q210.519 1460.01 210.519 1457.42 Q210.519 1454.76 208.621 1453.35 Q206.746 1451.91 203.228 1451.91 Q201.307 1451.91 199.108 1452.33 Q196.908 1452.75 194.27 1453.63 L194.27 1449.46 Q196.932 1448.72 199.246 1448.35 Q201.584 1447.98 203.645 1447.98 Q208.969 1447.98 212.07 1450.41 Q215.172 1452.82 215.172 1456.94 Q215.172 1459.81 213.529 1461.8 Q211.885 1463.76 208.853 1464.53 Z" fill="#000000" fill-rule="evenodd" fill-opacity="1" /><path clip-path="url(#clip960)" d="M128.159 1366.53 Q124.548 1366.53 122.719 1370.09 Q120.913 1373.63 120.913 1380.76 Q120.913 1387.87 122.719 1391.44 Q124.548 1394.98 128.159 1394.98 Q131.793 1394.98 133.599 1391.44 Q135.427 1387.87 135.427 1380.76 Q135.427 1373.63 133.599 1370.09 Q131.793 1366.53 128.159 1366.53 M128.159 1362.82 Q133.969 1362.82 137.025 1367.43 Q140.103 1372.01 140.103 1380.76 Q140.103 1389.49 137.025 1394.1 Q133.969 1398.68 128.159 1398.68 Q122.349 1398.68 119.27 1394.1 Q116.214 1389.49 116.214 1380.76 Q116.214 1372.01 119.27 1367.43 Q122.349 1362.82 128.159 1362.82 Z" fill="#000000" fill-rule="evenodd" fill-opacity="1" /><path clip-path="url(#clip960)" d="M148.321 1392.13 L153.205 1392.13 L153.205 1398.01 L148.321 1398.01 L148.321 1392.13 Z" fill="#000000" fill-rule="evenodd" fill-opacity="1" /><path clip-path="url(#clip960)" d="M173.39 1366.53 Q169.779 1366.53 167.95 1370.09 Q166.145 1373.63 166.145 1380.76 Q166.145 1387.87 167.95 1391.44 Q169.779 1394.98 173.39 1394.98 Q177.024 1394.98 178.83 1391.44 Q180.659 1387.87 180.659 1380.76 Q180.659 1373.63 178.83 1370.09 Q177.024 1366.53 173.39 1366.53 M173.39 1362.82 Q179.2 1362.82 182.256 1367.43 Q185.334 1372.01 185.334 1380.76 Q185.334 1389.49 182.256 1394.1 Q179.2 1398.68 173.39 1398.68 Q167.58 1398.68 164.501 1394.1 Q161.446 1389.49 161.446 1380.76 Q161.446 1372.01 164.501 1367.43 Q167.58 1362.82 173.39 1362.82 Z" fill="#000000" fill-rule="evenodd" fill-opacity="1" /><path clip-path="url(#clip960)" d="M206.399 1367.52 L194.594 1385.97 L206.399 1385.97 L206.399 1367.52 M205.172 1363.45 L211.052 1363.45 L211.052 1385.97 L215.982 1385.97 L215.982 1389.86 L211.052 1389.86 L211.052 1398.01 L206.399 1398.01 L206.399 1389.86 L190.797 1389.86 L190.797 1385.35 L205.172 1363.45 Z" fill="#000000" fill-rule="evenodd" fill-opacity="1" /><path clip-path="url(#clip960)" d="M129.64 1281.37 Q126.029 1281.37 124.201 1284.94 Q122.395 1288.48 122.395 1295.61 Q122.395 1302.72 124.201 1306.28 Q126.029 1309.82 129.64 1309.82 Q133.275 1309.82 135.08 1306.28 Q136.909 1302.72 136.909 1295.61 Q136.909 1288.48 135.08 1284.94 Q133.275 1281.37 129.64 1281.37 M129.64 1277.67 Q135.45 1277.67 138.506 1282.28 Q141.585 1286.86 141.585 1295.61 Q141.585 1304.34 138.506 1308.94 Q135.45 1313.53 129.64 1313.53 Q123.83 1313.53 120.751 1308.94 Q117.696 1304.34 117.696 1295.61 Q117.696 1286.86 120.751 1282.28 Q123.83 1277.67 129.64 1277.67 Z" fill="#000000" fill-rule="evenodd" fill-opacity="1" /><path clip-path="url(#clip960)" d="M149.802 1306.98 L154.686 1306.98 L154.686 1312.86 L149.802 1312.86 L149.802 1306.98 Z" fill="#000000" fill-rule="evenodd" fill-opacity="1" /><path clip-path="url(#clip960)" d="M174.872 1281.37 Q171.26 1281.37 169.432 1284.94 Q167.626 1288.48 167.626 1295.61 Q167.626 1302.72 169.432 1306.28 Q171.26 1309.82 174.872 1309.82 Q178.506 1309.82 180.311 1306.28 Q182.14 1302.72 182.14 1295.61 Q182.14 1288.48 180.311 1284.94 Q178.506 1281.37 174.872 1281.37 M174.872 1277.67 Q180.682 1277.67 183.737 1282.28 Q186.816 1286.86 186.816 1295.61 Q186.816 1304.34 183.737 1308.94 Q180.682 1313.53 174.872 1313.53 Q169.061 1313.53 165.983 1308.94 Q162.927 1304.34 162.927 1295.61 Q162.927 1286.86 165.983 1282.28 Q169.061 1277.67 174.872 1277.67 Z" fill="#000000" fill-rule="evenodd" fill-opacity="1" /><path clip-path="url(#clip960)" d="M195.08 1278.3 L213.436 1278.3 L213.436 1282.23 L199.362 1282.23 L199.362 1290.7 Q200.381 1290.36 201.399 1290.19 Q202.418 1290.01 203.436 1290.01 Q209.223 1290.01 212.603 1293.18 Q215.982 1296.35 215.982 1301.77 Q215.982 1307.35 212.51 1310.45 Q209.038 1313.53 202.719 1313.53 Q200.543 1313.53 198.274 1313.16 Q196.029 1312.79 193.621 1312.05 L193.621 1307.35 Q195.705 1308.48 197.927 1309.04 Q200.149 1309.59 202.626 1309.59 Q206.631 1309.59 208.969 1307.49 Q211.307 1305.38 211.307 1301.77 Q211.307 1298.16 208.969 1296.05 Q206.631 1293.94 202.626 1293.94 Q200.751 1293.94 198.876 1294.36 Q197.024 1294.78 195.08 1295.66 L195.08 1278.3 Z" fill="#000000" fill-rule="evenodd" fill-opacity="1" /><path clip-path="url(#clip960)" d="M14.1184 1732.36 L14.1184 1692.16 L19.5293 1692.16 L19.5293 1709.03 L61.6384 1709.03 L61.6384 1715.49 L19.5293 1715.49 L19.5293 1732.36 L14.1184 1732.36 Z" fill="#000000" fill-rule="evenodd" fill-opacity="1" /><path clip-path="url(#clip960)" d="M42.3504 1666.79 L45.2149 1666.79 L45.2149 1693.72 Q51.2623 1693.34 54.4452 1690.09 Q57.5962 1686.81 57.5962 1680.99 Q57.5962 1677.61 56.7687 1674.46 Q55.9411 1671.28 54.2861 1668.16 L59.8242 1668.16 Q61.161 1671.31 61.8612 1674.62 Q62.5615 1677.93 62.5615 1681.34 Q62.5615 1689.87 57.5962 1694.86 Q52.631 1699.83 44.1646 1699.83 Q35.4117 1699.83 30.2873 1695.12 Q25.1311 1690.38 25.1311 1682.35 Q25.1311 1675.16 29.7781 1670.99 Q34.3932 1666.79 42.3504 1666.79 M40.6316 1672.65 Q35.8255 1672.71 32.9609 1675.35 Q30.0964 1677.96 30.0964 1682.29 Q30.0964 1687.19 32.8654 1690.15 Q35.6345 1693.08 40.6634 1693.53 L40.6316 1672.65 Z" fill="#000000" fill-rule="evenodd" fill-opacity="1" /><path clip-path="url(#clip960)" d="M31.465 1636.52 Q30.8921 1637.51 30.6375 1638.69 Q30.351 1639.83 30.351 1641.23 Q30.351 1646.2 33.5975 1648.87 Q36.8122 1651.51 42.8596 1651.51 L61.6384 1651.51 L61.6384 1657.4 L25.9905 1657.4 L25.9905 1651.51 L31.5287 1651.51 Q28.2821 1649.67 26.7225 1646.71 Q25.1311 1643.75 25.1311 1639.51 Q25.1311 1638.91 25.2266 1638.18 Q25.2903 1637.44 25.4494 1636.55 L31.465 1636.52 Z" fill="#000000" fill-rule="evenodd" fill-opacity="1" /><path clip-path="url(#clip960)" d="M31.465 1610.87 Q30.8921 1611.85 30.6375 1613.03 Q30.351 1614.18 30.351 1615.58 Q30.351 1620.54 33.5975 1623.22 Q36.8122 1625.86 42.8596 1625.86 L61.6384 1625.86 L61.6384 1631.75 L25.9905 1631.75 L25.9905 1625.86 L31.5287 1625.86 Q28.2821 1624.01 26.7225 1621.05 Q25.1311 1618.09 25.1311 1613.86 Q25.1311 1613.26 25.2266 1612.52 Q25.2903 1611.79 25.4494 1610.9 L31.465 1610.87 Z" fill="#000000" fill-rule="evenodd" fill-opacity="1" /><path clip-path="url(#clip960)" d="M43.719 1588.52 Q43.719 1595.62 45.3422 1598.36 Q46.9655 1601.1 50.8804 1601.1 Q53.9996 1601.1 55.8457 1599.06 Q57.6599 1596.99 57.6599 1593.46 Q57.6599 1588.59 54.2224 1585.66 Q50.7531 1582.7 45.0239 1582.7 L43.719 1582.7 L43.719 1588.52 M41.3 1576.84 L61.6384 1576.84 L61.6384 1582.7 L56.2276 1582.7 Q59.4741 1584.71 61.0337 1587.7 Q62.5615 1590.69 62.5615 1595.02 Q62.5615 1600.49 59.5059 1603.74 Q56.4186 1606.95 51.2623 1606.95 Q45.2467 1606.95 42.1912 1602.94 Q39.1357 1598.9 39.1357 1590.91 L39.1357 1582.7 L38.5628 1582.7 Q34.5205 1582.7 32.3244 1585.37 Q30.0964 1588.02 30.0964 1592.82 Q30.0964 1595.88 30.8284 1598.77 Q31.5605 1601.67 33.0246 1604.34 L27.6137 1604.34 Q26.3724 1601.13 25.7677 1598.1 Q25.1311 1595.08 25.1311 1592.22 Q25.1311 1584.48 29.1415 1580.66 Q33.1519 1576.84 41.3 1576.84 Z" fill="#000000" fill-rule="evenodd" fill-opacity="1" /><path clip-path="url(#clip960)" d="M25.9905 1564.78 L25.9905 1558.92 L61.6384 1558.92 L61.6384 1564.78 L25.9905 1564.78 M12.1132 1564.78 L12.1132 1558.92 L19.5293 1558.92 L19.5293 1564.78 L12.1132 1564.78 Z" fill="#000000" fill-rule="evenodd" fill-opacity="1" /><path clip-path="url(#clip960)" d="M40.1224 1517.04 L61.6384 1517.04 L61.6384 1522.89 L40.3133 1522.89 Q35.2526 1522.89 32.7381 1524.87 Q30.2237 1526.84 30.2237 1530.79 Q30.2237 1535.53 33.2474 1538.27 Q36.2711 1541 41.491 1541 L61.6384 1541 L61.6384 1546.89 L25.9905 1546.89 L25.9905 1541 L31.5287 1541 Q28.314 1538.9 26.7225 1536.07 Q25.1311 1533.21 25.1311 1529.48 Q25.1311 1523.34 28.9505 1520.19 Q32.7381 1517.04 40.1224 1517.04 Z" fill="#000000" fill-rule="evenodd" fill-opacity="1" /><path clip-path="url(#clip960)" d="M40.1224 1455 L61.6384 1455 L61.6384 1460.86 L40.3133 1460.86 Q35.2526 1460.86 32.7381 1462.83 Q30.2237 1464.81 30.2237 1468.75 Q30.2237 1473.5 33.2474 1476.23 Q36.2711 1478.97 41.491 1478.97 L61.6384 1478.97 L61.6384 1484.86 L12.1132 1484.86 L12.1132 1478.97 L31.5287 1478.97 Q28.314 1476.87 26.7225 1474.04 Q25.1311 1471.17 25.1311 1467.45 Q25.1311 1461.31 28.9505 1458.15 Q32.7381 1455 40.1224 1455 Z" fill="#000000" fill-rule="evenodd" fill-opacity="1" /><path clip-path="url(#clip960)" d="M42.3504 1412.83 L45.2149 1412.83 L45.2149 1439.76 Q51.2623 1439.38 54.4452 1436.13 Q57.5962 1432.85 57.5962 1427.03 Q57.5962 1423.65 56.7687 1420.5 Q55.9411 1417.32 54.2861 1414.2 L59.8242 1414.2 Q61.161 1417.35 61.8612 1420.66 Q62.5615 1423.97 62.5615 1427.38 Q62.5615 1435.91 57.5962 1440.9 Q52.631 1445.87 44.1646 1445.87 Q35.4117 1445.87 30.2873 1441.16 Q25.1311 1436.42 25.1311 1428.4 Q25.1311 1421.2 29.7781 1417.03 Q34.3932 1412.83 42.3504 1412.83 M40.6316 1418.69 Q35.8255 1418.75 32.9609 1421.39 Q30.0964 1424 30.0964 1428.33 Q30.0964 1433.23 32.8654 1436.19 Q35.6345 1439.12 40.6634 1439.57 L40.6316 1418.69 Z" fill="#000000" fill-rule="evenodd" fill-opacity="1" /><path clip-path="url(#clip960)" d="M25.9905 1403.22 L25.9905 1397.36 L61.6384 1397.36 L61.6384 1403.22 L25.9905 1403.22 M12.1132 1403.22 L12.1132 1397.36 L19.5293 1397.36 L19.5293 1403.22 L12.1132 1403.22 Z" fill="#000000" fill-rule="evenodd" fill-opacity="1" /><path clip-path="url(#clip960)" d="M43.4007 1361.65 Q37.035 1361.65 33.5338 1364.29 Q30.0327 1366.9 30.0327 1371.64 Q30.0327 1376.36 33.5338 1379 Q37.035 1381.61 43.4007 1381.61 Q49.7346 1381.61 53.2357 1379 Q56.7368 1376.36 56.7368 1371.64 Q56.7368 1366.9 53.2357 1364.29 Q49.7346 1361.65 43.4007 1361.65 M57.2143 1355.79 Q66.3172 1355.79 70.7414 1359.84 Q75.1974 1363.88 75.1974 1372.22 Q75.1974 1375.31 74.72 1378.04 Q74.2744 1380.78 73.3195 1383.36 L67.6222 1383.36 Q69.0227 1380.78 69.6911 1378.27 Q70.3595 1375.75 70.3595 1373.14 Q70.3595 1367.38 67.3358 1364.52 Q64.3439 1361.65 58.2646 1361.65 L55.3682 1361.65 Q58.5192 1363.46 60.0788 1366.3 Q61.6384 1369.13 61.6384 1373.08 Q61.6384 1379.63 56.6414 1383.64 Q51.6443 1387.65 43.4007 1387.65 Q35.1253 1387.65 30.1282 1383.64 Q25.1311 1379.63 25.1311 1373.08 Q25.1311 1369.13 26.6907 1366.3 Q28.2503 1363.46 31.4013 1361.65 L25.9905 1361.65 L25.9905 1355.79 L57.2143 1355.79 Z" fill="#000000" fill-rule="evenodd" fill-opacity="1" /><path clip-path="url(#clip960)" d="M40.1224 1314.1 L61.6384 1314.1 L61.6384 1319.96 L40.3133 1319.96 Q35.2526 1319.96 32.7381 1321.93 Q30.2237 1323.9 30.2237 1327.85 Q30.2237 1332.59 33.2474 1335.33 Q36.2711 1338.07 41.491 1338.07 L61.6384 1338.07 L61.6384 1343.95 L12.1132 1343.95 L12.1132 1338.07 L31.5287 1338.07 Q28.314 1335.97 26.7225 1333.13 Q25.1311 1330.27 25.1311 1326.54 Q25.1311 1320.4 28.9505 1317.25 Q32.7381 1314.1 40.1224 1314.1 Z" fill="#000000" fill-rule="evenodd" fill-opacity="1" /><path clip-path="url(#clip960)" d="M15.869 1296.62 L25.9905 1296.62 L25.9905 1284.56 L30.542 1284.56 L30.542 1296.62 L49.8937 1296.62 Q54.2542 1296.62 55.4955 1295.45 Q56.7368 1294.24 56.7368 1290.58 L56.7368 1284.56 L61.6384 1284.56 L61.6384 1290.58 Q61.6384 1297.36 59.124 1299.94 Q56.5777 1302.51 49.8937 1302.51 L30.542 1302.51 L30.542 1306.81 L25.9905 1306.81 L25.9905 1302.51 L15.869 1302.51 L15.869 1296.62 Z" fill="#000000" fill-rule="evenodd" fill-opacity="1" /><polyline clip-path="url(#clip964)" style="stroke:#009af9; stroke-linecap:round; stroke-linejoin:round; stroke-width:4; stroke-opacity:1; fill:none" points="323.787,1721.34 473.753,1721.34 623.718,1721.34 773.684,1721.34 923.649,1721.34 1073.62,1721.34 1223.58,1721.34 1373.55,1721.34 1523.51,1295.58 1673.48,1295.58 1823.44,1295.58 1973.41,1295.58 2123.37,1295.58 2273.34,1295.58 2423.31,1295.58 2573.27,1295.58 "/>
<circle clip-path="url(#clip964)" cx="323.787" cy="1721.34" r="14.4" fill="#009af9" fill-rule="evenodd" fill-opacity="1" stroke="#000000" stroke-opacity="1" stroke-width="3.84"/>
<circle clip-path="url(#clip964)" cx="473.753" cy="1721.34" r="14.4" fill="#009af9" fill-rule="evenodd" fill-opacity="1" stroke="#000000" stroke-opacity="1" stroke-width="3.84"/>
<circle clip-path="url(#clip964)" cx="623.718" cy="1721.34" r="14.4" fill="#009af9" fill-rule="evenodd" fill-opacity="1" stroke="#000000" stroke-opacity="1" stroke-width="3.84"/>
<circle clip-path="url(#clip964)" cx="773.684" cy="1721.34" r="14.4" fill="#009af9" fill-rule="evenodd" fill-opacity="1" stroke="#000000" stroke-opacity="1" stroke-width="3.84"/>
<circle clip-path="url(#clip964)" cx="923.649" cy="1721.34" r="14.4" fill="#009af9" fill-rule="evenodd" fill-opacity="1" stroke="#000000" stroke-opacity="1" stroke-width="3.84"/>
<circle clip-path="url(#clip964)" cx="1073.62" cy="1721.34" r="14.4" fill="#009af9" fill-rule="evenodd" fill-opacity="1" stroke="#000000" stroke-opacity="1" stroke-width="3.84"/>
<circle clip-path="url(#clip964)" cx="1223.58" cy="1721.34" r="14.4" fill="#009af9" fill-rule="evenodd" fill-opacity="1" stroke="#000000" stroke-opacity="1" stroke-width="3.84"/>
<circle clip-path="url(#clip964)" cx="1373.55" cy="1721.34" r="14.4" fill="#009af9" fill-rule="evenodd" fill-opacity="1" stroke="#000000" stroke-opacity="1" stroke-width="3.84"/>
<circle clip-path="url(#clip964)" cx="1523.51" cy="1295.58" r="14.4" fill="#009af9" fill-rule="evenodd" fill-opacity="1" stroke="#000000" stroke-opacity="1" stroke-width="3.84"/>
<circle clip-path="url(#clip964)" cx="1673.48" cy="1295.58" r="14.4" fill="#009af9" fill-rule="evenodd" fill-opacity="1" stroke="#000000" stroke-opacity="1" stroke-width="3.84"/>
<circle clip-path="url(#clip964)" cx="1823.44" cy="1295.58" r="14.4" fill="#009af9" fill-rule="evenodd" fill-opacity="1" stroke="#000000" stroke-opacity="1" stroke-width="3.84"/>
<circle clip-path="url(#clip964)" cx="1973.41" cy="1295.58" r="14.4" fill="#009af9" fill-rule="evenodd" fill-opacity="1" stroke="#000000" stroke-opacity="1" stroke-width="3.84"/>
<circle clip-path="url(#clip964)" cx="2123.37" cy="1295.58" r="14.4" fill="#009af9" fill-rule="evenodd" fill-opacity="1" stroke="#000000" stroke-opacity="1" stroke-width="3.84"/>
<circle clip-path="url(#clip964)" cx="2273.34" cy="1295.58" r="14.4" fill="#009af9" fill-rule="evenodd" fill-opacity="1" stroke="#000000" stroke-opacity="1" stroke-width="3.84"/>
<circle clip-path="url(#clip964)" cx="2423.31" cy="1295.58" r="14.4" fill="#009af9" fill-rule="evenodd" fill-opacity="1" stroke="#000000" stroke-opacity="1" stroke-width="3.84"/>
<circle clip-path="url(#clip964)" cx="2573.27" cy="1295.58" r="14.4" fill="#009af9" fill-rule="evenodd" fill-opacity="1" stroke="#000000" stroke-opacity="1" stroke-width="3.84"/>
<path clip-path="url(#clip960)" d="M335.784 1401.53 L627.239 1401.53 L627.239 1297.85 L335.784 1297.85  Z" fill="#ffffff" fill-rule="evenodd" fill-opacity="1"/>
<polyline clip-path="url(#clip960)" style="stroke:#000000; stroke-linecap:round; stroke-linejoin:round; stroke-width:4; stroke-opacity:1; fill:none" points="335.784,1401.53 627.239,1401.53 627.239,1297.85 335.784,1297.85 335.784,1401.53 "/>
<polyline clip-path="url(#clip960)" style="stroke:#009af9; stroke-linecap:round; stroke-linejoin:round; stroke-width:4; stroke-opacity:1; fill:none" points="362.278,1349.69 521.242,1349.69 "/>
<circle clip-path="url(#clip960)" cx="441.76" cy="1349.69" r="22.0783" fill="#009af9" fill-rule="evenodd" fill-opacity="1" stroke="#000000" stroke-opacity="1" stroke-width="6.144"/>
<path clip-path="url(#clip960)" d="M561.578 1369.37 Q559.773 1374 558.06 1375.42 Q556.347 1376.83 553.476 1376.83 L550.074 1376.83 L550.074 1373.26 L552.574 1373.26 Q554.333 1373.26 555.305 1372.43 Q556.277 1371.6 557.458 1368.49 L558.222 1366.55 L547.736 1341.04 L552.249 1341.04 L560.351 1361.32 L568.453 1341.04 L572.967 1341.04 L561.578 1369.37 Z" fill="#000000" fill-rule="evenodd" fill-opacity="1" /><path clip-path="url(#clip960)" d="M593.615 1348.33 Q596.971 1349.05 598.846 1351.32 Q600.745 1353.59 600.745 1356.92 Q600.745 1362.04 597.226 1364.84 Q593.708 1367.64 587.226 1367.64 Q585.05 1367.64 582.735 1367.2 Q580.444 1366.78 577.99 1365.92 L577.99 1361.41 Q579.935 1362.55 582.249 1363.12 Q584.564 1363.7 587.087 1363.7 Q591.485 1363.7 593.777 1361.97 Q596.092 1360.23 596.092 1356.92 Q596.092 1353.86 593.939 1352.15 Q591.809 1350.42 587.99 1350.42 L583.962 1350.42 L583.962 1346.57 L588.175 1346.57 Q591.624 1346.57 593.453 1345.21 Q595.282 1343.82 595.282 1341.23 Q595.282 1338.56 593.384 1337.15 Q591.509 1335.72 587.99 1335.72 Q586.069 1335.72 583.87 1336.13 Q581.671 1336.55 579.032 1337.43 L579.032 1333.26 Q581.694 1332.52 584.009 1332.15 Q586.347 1331.78 588.407 1331.78 Q593.731 1331.78 596.833 1334.21 Q599.934 1336.62 599.934 1340.74 Q599.934 1343.61 598.291 1345.6 Q596.647 1347.57 593.615 1348.33 Z" fill="#000000" fill-rule="evenodd" fill-opacity="1" /></svg>
