<?xml version="1.0" encoding="utf-8"?>
<svg xmlns="http://www.w3.org/2000/svg" xmlns:xlink="http://www.w3.org/1999/xlink" width="672" height="480" viewBox="0 0 2688 1920">
<defs>
  <clipPath id="clip340">
    <rect x="0" y="0" width="2688" height="1920"/>
  </clipPath>
</defs>
<path clip-path="url(#clip340)" d="M0 1920 L2688 1920 L2688 0 L0 0  Z" fill="#ffffff" fill-rule="evenodd" fill-opacity="1"/>
<defs>
  <clipPath id="clip341">
    <rect x="537" y="0" width="1883" height="1883"/>
  </clipPath>
</defs>
<path clip-path="url(#clip340)" d="M285.978 1734.12 L2640.76 1734.12 L2640.76 47.2441 L285.978 47.2441  Z" fill="#ffffff" fill-rule="evenodd" fill-opacity="1"/>
<defs>
  <clipPath id="clip342">
    <rect x="285" y="47" width="2356" height="1688"/>
  </clipPath>
</defs>
<polyline clip-path="url(#clip342)" style="stroke:#000000; stroke-linecap:round; stroke-linejoin:round; stroke-width:2; stroke-opacity:0.1; fill:none" points="670.242,1734.12 670.242,47.2441 "/>
<polyline clip-path="url(#clip342)" style="stroke:#000000; stroke-linecap:round; stroke-linejoin:round; stroke-width:2; stroke-opacity:0.1; fill:none" points="1146.64,1734.12 1146.64,47.2441 "/>
<polyline clip-path="url(#clip342)" style="stroke:#000000; stroke-linecap:round; stroke-linejoin:round; stroke-width:2; stroke-opacity:0.1; fill:none" points="1623.04,1734.12 1623.04,47.2441 "/>
<polyline clip-path="url(#clip342)" style="stroke:#000000; stroke-linecap:round; stroke-linejoin:round; stroke-width:2; stroke-opacity:0.1; fill:none" points="2099.44,1734.12 2099.44,47.2441 "/>
<polyline clip-path="url(#clip342)" style="stroke:#000000; stroke-linecap:round; stroke-linejoin:round; stroke-width:2; stroke-opacity:0.1; fill:none" points="2575.85,1734.12 2575.85,47.2441 "/>
<polyline clip-path="url(#clip340)" style="stroke:#000000; stroke-linecap:round; stroke-linejoin:round; stroke-width:4; stroke-opacity:1; fill:none" points="285.978,1734.12 2640.76,1734.12 "/>
<polyline clip-path="url(#clip340)" style="stroke:#000000; stroke-linecap:round; stroke-linejoin:round; stroke-width:4; stroke-opacity:1; fill:none" points="670.242,1734.12 670.242,1715.22 "/>
<polyline clip-path="url(#clip340)" style="stroke:#000000; stroke-linecap:round; stroke-linejoin:round; stroke-width:4; stroke-opacity:1; fill:none" points="1146.64,1734.12 1146.64,1715.22 "/>
<polyline clip-path="url(#clip340)" style="stroke:#000000; stroke-linecap:round; stroke-linejoin:round; stroke-width:4; stroke-opacity:1; fill:none" points="1623.04,1734.12 1623.04,1715.22 "/>
<polyline clip-path="url(#clip340)" style="stroke:#000000; stroke-linecap:round; stroke-linejoin:round; stroke-width:4; stroke-opacity:1; fill:none" points="2099.44,1734.12 2099.44,1715.22 "/>
<polyline clip-path="url(#clip340)" style="stroke:#000000; stroke-linecap:round; stroke-linejoin:round; stroke-width:4; stroke-opacity:1; fill:none" points="2575.85,1734.12 2575.85,1715.22 "/>
<path clip-path="url(#clip340)" d="M660.52 1764.26 L678.876 1764.26 L678.876 1768.2 L664.802 1768.2 L664.802 1776.67 Q665.821 1776.32 666.839 1776.16 Q667.858 1775.97 668.876 1775.97 Q674.663 1775.97 678.043 1779.15 Q681.423 1782.32 681.423 1787.73 Q681.423 1793.31 677.95 1796.41 Q674.478 1799.49 668.159 1799.49 Q665.983 1799.49 663.714 1799.12 Q661.469 1798.75 659.062 1798.01 L659.062 1793.31 Q661.145 1794.45 663.367 1795 Q665.589 1795.56 668.066 1795.56 Q672.071 1795.56 674.409 1793.45 Q676.747 1791.34 676.747 1787.73 Q676.747 1784.12 674.409 1782.02 Q672.071 1779.91 668.066 1779.91 Q666.191 1779.91 664.316 1780.33 Q662.464 1780.74 660.52 1781.62 L660.52 1764.26 Z" fill="#000000" fill-rule="evenodd" fill-opacity="1" /><path clip-path="url(#clip340)" d="M1121.33 1794.89 L1128.97 1794.89 L1128.97 1768.52 L1120.66 1770.19 L1120.66 1765.93 L1128.92 1764.26 L1133.6 1764.26 L1133.6 1794.89 L1141.24 1794.89 L1141.24 1798.82 L1121.33 1798.82 L1121.33 1794.89 Z" fill="#000000" fill-rule="evenodd" fill-opacity="1" /><path clip-path="url(#clip340)" d="M1160.68 1767.34 Q1157.07 1767.34 1155.24 1770.9 Q1153.44 1774.45 1153.44 1781.58 Q1153.44 1788.68 1155.24 1792.25 Q1157.07 1795.79 1160.68 1795.79 Q1164.32 1795.79 1166.12 1792.25 Q1167.95 1788.68 1167.95 1781.58 Q1167.95 1774.45 1166.12 1770.9 Q1164.32 1767.34 1160.68 1767.34 M1160.68 1763.64 Q1166.49 1763.64 1169.55 1768.24 Q1172.63 1772.83 1172.63 1781.58 Q1172.63 1790.3 1169.55 1794.91 Q1166.49 1799.49 1160.68 1799.49 Q1154.87 1799.49 1151.79 1794.91 Q1148.74 1790.3 1148.74 1781.58 Q1148.74 1772.83 1151.79 1768.24 Q1154.87 1763.64 1160.68 1763.64 Z" fill="#000000" fill-rule="evenodd" fill-opacity="1" /><path clip-path="url(#clip340)" d="M1598.23 1794.89 L1605.87 1794.89 L1605.87 1768.52 L1597.56 1770.19 L1597.56 1765.93 L1605.82 1764.26 L1610.5 1764.26 L1610.5 1794.89 L1618.14 1794.89 L1618.14 1798.82 L1598.23 1798.82 L1598.23 1794.89 Z" fill="#000000" fill-rule="evenodd" fill-opacity="1" /><path clip-path="url(#clip340)" d="M1627.63 1764.26 L1645.98 1764.26 L1645.98 1768.2 L1631.91 1768.2 L1631.91 1776.67 Q1632.93 1776.32 1633.95 1776.16 Q1634.97 1775.97 1635.98 1775.97 Q1641.77 1775.97 1645.15 1779.15 Q1648.53 1782.32 1648.53 1787.73 Q1648.53 1793.31 1645.06 1796.41 Q1641.59 1799.49 1635.27 1799.49 Q1633.09 1799.49 1630.82 1799.12 Q1628.58 1798.75 1626.17 1798.01 L1626.17 1793.31 Q1628.25 1794.45 1630.47 1795 Q1632.7 1795.56 1635.17 1795.56 Q1639.18 1795.56 1641.52 1793.45 Q1643.85 1791.34 1643.85 1787.73 Q1643.85 1784.12 1641.52 1782.02 Q1639.18 1779.91 1635.17 1779.91 Q1633.3 1779.91 1631.42 1780.33 Q1629.57 1780.74 1627.63 1781.62 L1627.63 1764.26 Z" fill="#000000" fill-rule="evenodd" fill-opacity="1" /><path clip-path="url(#clip340)" d="M2078.22 1794.89 L2094.54 1794.89 L2094.54 1798.82 L2072.59 1798.82 L2072.59 1794.89 Q2075.26 1792.13 2079.84 1787.5 Q2084.44 1782.85 2085.63 1781.51 Q2087.87 1778.98 2088.75 1777.25 Q2089.65 1775.49 2089.65 1773.8 Q2089.65 1771.04 2087.71 1769.31 Q2085.79 1767.57 2082.69 1767.57 Q2080.49 1767.57 2078.03 1768.34 Q2075.6 1769.1 2072.82 1770.65 L2072.82 1765.93 Q2075.65 1764.79 2078.1 1764.21 Q2080.56 1763.64 2082.59 1763.64 Q2087.96 1763.64 2091.16 1766.32 Q2094.35 1769.01 2094.35 1773.5 Q2094.35 1775.63 2093.54 1777.55 Q2092.75 1779.45 2090.65 1782.04 Q2090.07 1782.71 2086.97 1785.93 Q2083.87 1789.12 2078.22 1794.89 Z" fill="#000000" fill-rule="evenodd" fill-opacity="1" /><path clip-path="url(#clip340)" d="M2114.35 1767.34 Q2110.74 1767.34 2108.91 1770.9 Q2107.11 1774.45 2107.11 1781.58 Q2107.11 1788.68 2108.91 1792.25 Q2110.74 1795.79 2114.35 1795.79 Q2117.99 1795.79 2119.79 1792.25 Q2121.62 1788.68 2121.62 1781.58 Q2121.62 1774.45 2119.79 1770.9 Q2117.99 1767.34 2114.35 1767.34 M2114.35 1763.64 Q2120.16 1763.64 2123.22 1768.24 Q2126.3 1772.83 2126.3 1781.58 Q2126.3 1790.3 2123.22 1794.91 Q2120.16 1799.49 2114.35 1799.49 Q2108.54 1799.49 2105.46 1794.91 Q2102.41 1790.3 2102.41 1781.58 Q2102.41 1772.83 2105.46 1768.24 Q2108.54 1763.64 2114.35 1763.64 Z" fill="#000000" fill-rule="evenodd" fill-opacity="1" /><path clip-path="url(#clip340)" d="M2555.12 1794.89 L2571.44 1794.89 L2571.44 1798.82 L2549.49 1798.82 L2549.49 1794.89 Q2552.15 1792.13 2556.74 1787.5 Q2561.34 1782.85 2562.52 1781.51 Q2564.77 1778.98 2565.65 1777.25 Q2566.55 1775.49 2566.55 1773.8 Q2566.55 1771.04 2564.61 1769.31 Q2562.69 1767.57 2559.58 1767.57 Q2557.39 1767.57 2554.93 1768.34 Q2552.5 1769.1 2549.72 1770.65 L2549.72 1765.93 Q2552.55 1764.79 2555 1764.21 Q2557.45 1763.64 2559.49 1763.64 Q2564.86 1763.64 2568.06 1766.32 Q2571.25 1769.01 2571.25 1773.5 Q2571.25 1775.63 2570.44 1777.55 Q2569.65 1779.45 2567.55 1782.04 Q2566.97 1782.71 2563.87 1785.93 Q2560.76 1789.12 2555.12 1794.89 Z" fill="#000000" fill-rule="evenodd" fill-opacity="1" /><path clip-path="url(#clip340)" d="M2581.3 1764.26 L2599.65 1764.26 L2599.65 1768.2 L2585.58 1768.2 L2585.58 1776.67 Q2586.6 1776.32 2587.62 1776.16 Q2588.63 1775.97 2589.65 1775.97 Q2595.44 1775.97 2598.82 1779.15 Q2602.2 1782.32 2602.2 1787.73 Q2602.2 1793.31 2598.73 1796.41 Q2595.26 1799.49 2588.94 1799.49 Q2586.76 1799.49 2584.49 1799.12 Q2582.25 1798.75 2579.84 1798.01 L2579.84 1793.31 Q2581.92 1794.45 2584.14 1795 Q2586.37 1795.56 2588.84 1795.56 Q2592.85 1795.56 2595.19 1793.45 Q2597.52 1791.34 2597.52 1787.73 Q2597.52 1784.12 2595.19 1782.02 Q2592.85 1779.91 2588.84 1779.91 Q2586.97 1779.91 2585.09 1780.33 Q2583.24 1780.74 2581.3 1781.62 L2581.3 1764.26 Z" fill="#000000" fill-rule="evenodd" fill-opacity="1" /><path clip-path="url(#clip340)" d="M1402.53 1837.53 L1402.53 1847.65 L1414.59 1847.65 L1414.59 1852.2 L1402.53 1852.2 L1402.53 1871.56 Q1402.53 1875.92 1403.7 1877.16 Q1404.91 1878.4 1408.57 1878.4 L1414.59 1878.4 L1414.59 1883.3 L1408.57 1883.3 Q1401.79 1883.3 1399.22 1880.79 Q1396.64 1878.24 1396.64 1871.56 L1396.64 1852.2 L1392.34 1852.2 L1392.34 1847.65 L1396.64 1847.65 L1396.64 1837.53 L1402.53 1837.53 Z" fill="#000000" fill-rule="evenodd" fill-opacity="1" /><path clip-path="url(#clip340)" d="M1422.29 1847.65 L1428.15 1847.65 L1428.15 1883.3 L1422.29 1883.3 L1422.29 1847.65 M1422.29 1833.78 L1428.15 1833.78 L1428.15 1841.19 L1422.29 1841.19 L1422.29 1833.78 Z" fill="#000000" fill-rule="evenodd" fill-opacity="1" /><path clip-path="url(#clip340)" d="M1468.16 1854.5 Q1470.35 1850.55 1473.41 1848.67 Q1476.46 1846.79 1480.6 1846.79 Q1486.17 1846.79 1489.2 1850.71 Q1492.22 1854.59 1492.22 1861.78 L1492.22 1883.3 L1486.33 1883.3 L1486.33 1861.98 Q1486.33 1856.85 1484.52 1854.37 Q1482.7 1851.89 1478.98 1851.89 Q1474.43 1851.89 1471.79 1854.91 Q1469.14 1857.93 1469.14 1863.15 L1469.14 1883.3 L1463.26 1883.3 L1463.26 1861.98 Q1463.26 1856.82 1461.44 1854.37 Q1459.63 1851.89 1455.84 1851.89 Q1451.35 1851.89 1448.71 1854.94 Q1446.07 1857.97 1446.07 1863.15 L1446.07 1883.3 L1440.18 1883.3 L1440.18 1847.65 L1446.07 1847.65 L1446.07 1853.19 Q1448.07 1849.91 1450.87 1848.35 Q1453.68 1846.79 1457.53 1846.79 Q1461.41 1846.79 1464.12 1848.77 Q1466.85 1850.74 1468.16 1854.5 Z" fill="#000000" fill-rule="evenodd" fill-opacity="1" /><path clip-path="url(#clip340)" d="M1534.39 1864.01 L1534.39 1866.88 L1507.47 1866.88 Q1507.85 1872.92 1511.09 1876.11 Q1514.37 1879.26 1520.2 1879.26 Q1523.57 1879.26 1526.72 1878.43 Q1529.9 1877.6 1533.02 1875.95 L1533.02 1881.49 Q1529.87 1882.82 1526.56 1883.52 Q1523.25 1884.22 1519.85 1884.22 Q1511.32 1884.22 1506.32 1879.26 Q1501.35 1874.29 1501.35 1865.83 Q1501.35 1857.07 1506.07 1851.95 Q1510.81 1846.79 1518.83 1846.79 Q1526.02 1846.79 1530.19 1851.44 Q1534.39 1856.06 1534.39 1864.01 M1528.54 1862.29 Q1528.47 1857.49 1525.83 1854.62 Q1523.22 1851.76 1518.89 1851.76 Q1513.99 1851.76 1511.03 1854.53 Q1508.1 1857.3 1507.66 1862.33 L1528.54 1862.29 Z" fill="#000000" fill-rule="evenodd" fill-opacity="1" /><polyline clip-path="url(#clip342)" style="stroke:#000000; stroke-linecap:round; stroke-linejoin:round; stroke-width:2; stroke-opacity:0.1; fill:none" points="285.978,1684.43 2640.76,1684.43 "/>
<polyline clip-path="url(#clip342)" style="stroke:#000000; stroke-linecap:round; stroke-linejoin:round; stroke-width:2; stroke-opacity:0.1; fill:none" points="285.978,1277.09 2640.76,1277.09 "/>
<polyline clip-path="url(#clip342)" style="stroke:#000000; stroke-linecap:round; stroke-linejoin:round; stroke-width:2; stroke-opacity:0.1; fill:none" points="285.978,869.746 2640.76,869.746 "/>
<polyline clip-path="url(#clip342)" style="stroke:#000000; stroke-linecap:round; stroke-linejoin:round; stroke-width:2; stroke-opacity:0.1; fill:none" points="285.978,462.404 2640.76,462.404 "/>
<polyline clip-path="url(#clip342)" style="stroke:#000000; stroke-linecap:round; stroke-linejoin:round; stroke-width:2; stroke-opacity:0.1; fill:none" points="285.978,55.0617 2640.76,55.0617 "/>
<polyline clip-path="url(#clip340)" style="stroke:#000000; stroke-linecap:round; stroke-linejoin:round; stroke-width:4; stroke-opacity:1; fill:none" points="285.978,1734.12 285.978,47.2441 "/>
<polyline clip-path="url(#clip340)" style="stroke:#000000; stroke-linecap:round; stroke-linejoin:round; stroke-width:4; stroke-opacity:1; fill:none" points="285.978,1684.43 304.876,1684.43 "/>
<polyline clip-path="url(#clip340)" style="stroke:#000000; stroke-linecap:round; stroke-linejoin:round; stroke-width:4; stroke-opacity:1; fill:none" points="285.978,1277.09 304.876,1277.09 "/>
<polyline clip-path="url(#clip340)" style="stroke:#000000; stroke-linecap:round; stroke-linejoin:round; stroke-width:4; stroke-opacity:1; fill:none" points="285.978,869.746 304.876,869.746 "/>
<polyline clip-path="url(#clip340)" style="stroke:#000000; stroke-linecap:round; stroke-linejoin:round; stroke-width:4; stroke-opacity:1; fill:none" points="285.978,462.404 304.876,462.404 "/>
<polyline clip-path="url(#clip340)" style="stroke:#000000; stroke-linecap:round; stroke-linejoin:round; stroke-width:4; stroke-opacity:1; fill:none" points="285.978,55.0617 304.876,55.0617 "/>
<path clip-path="url(#clip340)" d="M128.159 1670.23 Q124.548 1670.23 122.719 1673.79 Q120.913 1677.33 120.913 1684.46 Q120.913 1691.57 122.719 1695.14 Q124.548 1698.68 128.159 1698.68 Q131.793 1698.68 133.599 1695.14 Q135.427 1691.57 135.427 1684.46 Q135.427 1677.33 133.599 1673.79 Q131.793 1670.23 128.159 1670.23 M128.159 1666.52 Q133.969 1666.52 137.025 1671.13 Q140.103 1675.71 140.103 1684.46 Q140.103 1693.19 137.025 1697.8 Q133.969 1702.38 128.159 1702.38 Q122.349 1702.38 119.27 1697.8 Q116.214 1693.19 116.214 1684.46 Q116.214 1675.71 119.27 1671.13 Q122.349 1666.52 128.159 1666.52 Z" fill="#000000" fill-rule="evenodd" fill-opacity="1" /><path clip-path="url(#clip340)" d="M148.321 1695.83 L153.205 1695.83 L153.205 1701.71 L148.321 1701.71 L148.321 1695.83 Z" fill="#000000" fill-rule="evenodd" fill-opacity="1" /><path clip-path="url(#clip340)" d="M176.237 1671.22 L164.432 1689.67 L176.237 1689.67 L176.237 1671.22 M175.01 1667.15 L180.89 1667.15 L180.89 1689.67 L185.821 1689.67 L185.821 1693.56 L180.89 1693.56 L180.89 1701.71 L176.237 1701.71 L176.237 1693.56 L160.636 1693.56 L160.636 1689.05 L175.01 1667.15 Z" fill="#000000" fill-rule="evenodd" fill-opacity="1" /><path clip-path="url(#clip340)" d="M203.552 1670.23 Q199.941 1670.23 198.112 1673.79 Q196.307 1677.33 196.307 1684.46 Q196.307 1691.57 198.112 1695.14 Q199.941 1698.68 203.552 1698.68 Q207.186 1698.68 208.992 1695.14 Q210.82 1691.57 210.82 1684.46 Q210.82 1677.33 208.992 1673.79 Q207.186 1670.23 203.552 1670.23 M203.552 1666.52 Q209.362 1666.52 212.418 1671.13 Q215.496 1675.71 215.496 1684.46 Q215.496 1693.19 212.418 1697.8 Q209.362 1702.38 203.552 1702.38 Q197.742 1702.38 194.663 1697.8 Q191.608 1693.19 191.608 1684.46 Q191.608 1675.71 194.663 1671.13 Q197.742 1666.52 203.552 1666.52 Z" fill="#000000" fill-rule="evenodd" fill-opacity="1" /><path clip-path="url(#clip340)" d="M233.714 1670.23 Q230.103 1670.23 228.274 1673.79 Q226.468 1677.33 226.468 1684.46 Q226.468 1691.57 228.274 1695.14 Q230.103 1698.68 233.714 1698.68 Q237.348 1698.68 239.154 1695.14 Q240.982 1691.57 240.982 1684.46 Q240.982 1677.33 239.154 1673.79 Q237.348 1670.23 233.714 1670.23 M233.714 1666.52 Q239.524 1666.52 242.58 1671.13 Q245.658 1675.71 245.658 1684.46 Q245.658 1693.19 242.58 1697.8 Q239.524 1702.38 233.714 1702.38 Q227.904 1702.38 224.825 1697.8 Q221.769 1693.19 221.769 1684.46 Q221.769 1675.71 224.825 1671.13 Q227.904 1666.52 233.714 1666.52 Z" fill="#000000" fill-rule="evenodd" fill-opacity="1" /><path clip-path="url(#clip340)" d="M129.154 1262.89 Q125.543 1262.89 123.714 1266.45 Q121.909 1269.99 121.909 1277.12 Q121.909 1284.23 123.714 1287.79 Q125.543 1291.34 129.154 1291.34 Q132.788 1291.34 134.594 1287.79 Q136.423 1284.23 136.423 1277.12 Q136.423 1269.99 134.594 1266.45 Q132.788 1262.89 129.154 1262.89 M129.154 1259.18 Q134.964 1259.18 138.02 1263.79 Q141.099 1268.37 141.099 1277.12 Q141.099 1285.85 138.02 1290.46 Q134.964 1295.04 129.154 1295.04 Q123.344 1295.04 120.265 1290.46 Q117.21 1285.85 117.21 1277.12 Q117.21 1268.37 120.265 1263.79 Q123.344 1259.18 129.154 1259.18 Z" fill="#000000" fill-rule="evenodd" fill-opacity="1" /><path clip-path="url(#clip340)" d="M149.316 1288.49 L154.2 1288.49 L154.2 1294.37 L149.316 1294.37 L149.316 1288.49 Z" fill="#000000" fill-rule="evenodd" fill-opacity="1" /><path clip-path="url(#clip340)" d="M177.233 1263.88 L165.427 1282.33 L177.233 1282.33 L177.233 1263.88 M176.006 1259.81 L181.885 1259.81 L181.885 1282.33 L186.816 1282.33 L186.816 1286.22 L181.885 1286.22 L181.885 1294.37 L177.233 1294.37 L177.233 1286.22 L161.631 1286.22 L161.631 1281.71 L176.006 1259.81 Z" fill="#000000" fill-rule="evenodd" fill-opacity="1" /><path clip-path="url(#clip340)" d="M198.575 1290.43 L214.894 1290.43 L214.894 1294.37 L192.95 1294.37 L192.95 1290.43 Q195.612 1287.68 200.195 1283.05 Q204.802 1278.4 205.982 1277.05 Q208.228 1274.53 209.107 1272.79 Q210.01 1271.03 210.01 1269.34 Q210.01 1266.59 208.066 1264.85 Q206.145 1263.12 203.043 1263.12 Q200.844 1263.12 198.39 1263.88 Q195.959 1264.65 193.182 1266.2 L193.182 1261.47 Q196.006 1260.34 198.459 1259.76 Q200.913 1259.18 202.95 1259.18 Q208.32 1259.18 211.515 1261.87 Q214.709 1264.55 214.709 1269.04 Q214.709 1271.17 213.899 1273.09 Q213.112 1274.99 211.006 1277.59 Q210.427 1278.26 207.325 1281.47 Q204.223 1284.67 198.575 1290.43 Z" fill="#000000" fill-rule="evenodd" fill-opacity="1" /><path clip-path="url(#clip340)" d="M224.756 1259.81 L243.112 1259.81 L243.112 1263.74 L229.038 1263.74 L229.038 1272.21 Q230.056 1271.87 231.075 1271.71 Q232.093 1271.52 233.112 1271.52 Q238.899 1271.52 242.279 1274.69 Q245.658 1277.86 245.658 1283.28 Q245.658 1288.86 242.186 1291.96 Q238.714 1295.04 232.394 1295.04 Q230.218 1295.04 227.95 1294.67 Q225.705 1294.3 223.297 1293.56 L223.297 1288.86 Q225.381 1289.99 227.603 1290.55 Q229.825 1291.1 232.302 1291.1 Q236.306 1291.1 238.644 1289 Q240.982 1286.89 240.982 1283.28 Q240.982 1279.67 238.644 1277.56 Q236.306 1275.46 232.302 1275.46 Q230.427 1275.46 228.552 1275.87 Q226.7 1276.29 224.756 1277.17 L224.756 1259.81 Z" fill="#000000" fill-rule="evenodd" fill-opacity="1" /><path clip-path="url(#clip340)" d="M128.159 855.544 Q124.548 855.544 122.719 859.109 Q120.913 862.651 120.913 869.78 Q120.913 876.887 122.719 880.452 Q124.548 883.993 128.159 883.993 Q131.793 883.993 133.599 880.452 Q135.427 876.887 135.427 869.78 Q135.427 862.651 133.599 859.109 Q131.793 855.544 128.159 855.544 M128.159 851.841 Q133.969 851.841 137.025 856.447 Q140.103 861.03 140.103 869.78 Q140.103 878.507 137.025 883.114 Q133.969 887.697 128.159 887.697 Q122.349 887.697 119.27 883.114 Q116.214 878.507 116.214 869.78 Q116.214 861.03 119.27 856.447 Q122.349 851.841 128.159 851.841 Z" fill="#000000" fill-rule="evenodd" fill-opacity="1" /><path clip-path="url(#clip340)" d="M148.321 881.146 L153.205 881.146 L153.205 887.026 L148.321 887.026 L148.321 881.146 Z" fill="#000000" fill-rule="evenodd" fill-opacity="1" /><path clip-path="url(#clip340)" d="M176.237 856.54 L164.432 874.989 L176.237 874.989 L176.237 856.54 M175.01 852.466 L180.89 852.466 L180.89 874.989 L185.821 874.989 L185.821 878.877 L180.89 878.877 L180.89 887.026 L176.237 887.026 L176.237 878.877 L160.636 878.877 L160.636 874.364 L175.01 852.466 Z" fill="#000000" fill-rule="evenodd" fill-opacity="1" /><path clip-path="url(#clip340)" d="M193.598 852.466 L211.955 852.466 L211.955 856.401 L197.881 856.401 L197.881 864.873 Q198.899 864.526 199.918 864.364 Q200.936 864.178 201.955 864.178 Q207.742 864.178 211.121 867.35 Q214.501 870.521 214.501 875.938 Q214.501 881.516 211.029 884.618 Q207.557 887.697 201.237 887.697 Q199.061 887.697 196.793 887.327 Q194.547 886.956 192.14 886.215 L192.14 881.516 Q194.223 882.651 196.445 883.206 Q198.668 883.762 201.145 883.762 Q205.149 883.762 207.487 881.655 Q209.825 879.549 209.825 875.938 Q209.825 872.327 207.487 870.22 Q205.149 868.114 201.145 868.114 Q199.27 868.114 197.395 868.53 Q195.543 868.947 193.598 869.827 L193.598 852.466 Z" fill="#000000" fill-rule="evenodd" fill-opacity="1" /><path clip-path="url(#clip340)" d="M233.714 855.544 Q230.103 855.544 228.274 859.109 Q226.468 862.651 226.468 869.78 Q226.468 876.887 228.274 880.452 Q230.103 883.993 233.714 883.993 Q237.348 883.993 239.154 880.452 Q240.982 876.887 240.982 869.78 Q240.982 862.651 239.154 859.109 Q237.348 855.544 233.714 855.544 M233.714 851.841 Q239.524 851.841 242.58 856.447 Q245.658 861.03 245.658 869.78 Q245.658 878.507 242.58 883.114 Q239.524 887.697 233.714 887.697 Q227.904 887.697 224.825 883.114 Q221.769 878.507 221.769 869.78 Q221.769 861.03 224.825 856.447 Q227.904 851.841 233.714 851.841 Z" fill="#000000" fill-rule="evenodd" fill-opacity="1" /><path clip-path="url(#clip340)" d="M129.154 448.202 Q125.543 448.202 123.714 451.767 Q121.909 455.309 121.909 462.438 Q121.909 469.545 123.714 473.11 Q125.543 476.651 129.154 476.651 Q132.788 476.651 134.594 473.11 Q136.423 469.545 136.423 462.438 Q136.423 455.309 134.594 451.767 Q132.788 448.202 129.154 448.202 M129.154 444.499 Q134.964 444.499 138.02 449.105 Q141.099 453.688 141.099 462.438 Q141.099 471.165 138.02 475.772 Q134.964 480.355 129.154 480.355 Q123.344 480.355 120.265 475.772 Q117.21 471.165 117.21 462.438 Q117.21 453.688 120.265 449.105 Q123.344 444.499 129.154 444.499 Z" fill="#000000" fill-rule="evenodd" fill-opacity="1" /><path clip-path="url(#clip340)" d="M149.316 473.804 L154.2 473.804 L154.2 479.684 L149.316 479.684 L149.316 473.804 Z" fill="#000000" fill-rule="evenodd" fill-opacity="1" /><path clip-path="url(#clip340)" d="M177.233 449.198 L165.427 467.647 L177.233 467.647 L177.233 449.198 M176.006 445.124 L181.885 445.124 L181.885 467.647 L186.816 467.647 L186.816 471.536 L181.885 471.536 L181.885 479.684 L177.233 479.684 L177.233 471.536 L161.631 471.536 L161.631 467.022 L176.006 445.124 Z" fill="#000000" fill-rule="evenodd" fill-opacity="1" /><path clip-path="url(#clip340)" d="M193.367 445.124 L215.589 445.124 L215.589 447.114 L203.043 479.684 L198.158 479.684 L209.964 449.059 L193.367 449.059 L193.367 445.124 Z" fill="#000000" fill-rule="evenodd" fill-opacity="1" /><path clip-path="url(#clip340)" d="M224.756 445.124 L243.112 445.124 L243.112 449.059 L229.038 449.059 L229.038 457.531 Q230.056 457.184 231.075 457.022 Q232.093 456.837 233.112 456.837 Q238.899 456.837 242.279 460.008 Q245.658 463.179 245.658 468.596 Q245.658 474.174 242.186 477.276 Q238.714 480.355 232.394 480.355 Q230.218 480.355 227.95 479.985 Q225.705 479.614 223.297 478.873 L223.297 474.174 Q225.381 475.309 227.603 475.864 Q229.825 476.42 232.302 476.42 Q236.306 476.42 238.644 474.313 Q240.982 472.207 240.982 468.596 Q240.982 464.985 238.644 462.878 Q236.306 460.772 232.302 460.772 Q230.427 460.772 228.552 461.188 Q226.7 461.605 224.756 462.485 L224.756 445.124 Z" fill="#000000" fill-rule="evenodd" fill-opacity="1" /><path clip-path="url(#clip340)" d="M128.159 40.8604 Q124.548 40.8604 122.719 44.4252 Q120.913 47.9668 120.913 55.0964 Q120.913 62.2029 122.719 65.7677 Q124.548 69.3093 128.159 69.3093 Q131.793 69.3093 133.599 65.7677 Q135.427 62.2029 135.427 55.0964 Q135.427 47.9668 133.599 44.4252 Q131.793 40.8604 128.159 40.8604 M128.159 37.1567 Q133.969 37.1567 137.025 41.7632 Q140.103 46.3465 140.103 55.0964 Q140.103 63.8232 137.025 68.4297 Q133.969 73.013 128.159 73.013 Q122.349 73.013 119.27 68.4297 Q116.214 63.8232 116.214 55.0964 Q116.214 46.3465 119.27 41.7632 Q122.349 37.1567 128.159 37.1567 Z" fill="#000000" fill-rule="evenodd" fill-opacity="1" /><path clip-path="url(#clip340)" d="M148.321 66.4621 L153.205 66.4621 L153.205 72.3417 L148.321 72.3417 L148.321 66.4621 Z" fill="#000000" fill-rule="evenodd" fill-opacity="1" /><path clip-path="url(#clip340)" d="M163.436 37.7817 L181.793 37.7817 L181.793 41.7169 L167.719 41.7169 L167.719 50.189 Q168.737 49.8418 169.756 49.6798 Q170.774 49.4946 171.793 49.4946 Q177.58 49.4946 180.959 52.6659 Q184.339 55.8372 184.339 61.2538 Q184.339 66.8325 180.867 69.9343 Q177.395 73.013 171.075 73.013 Q168.899 73.013 166.631 72.6426 Q164.385 72.2722 161.978 71.5315 L161.978 66.8325 Q164.061 67.9667 166.284 68.5223 Q168.506 69.0778 170.983 69.0778 Q174.987 69.0778 177.325 66.9714 Q179.663 64.8649 179.663 61.2538 Q179.663 57.6427 177.325 55.5362 Q174.987 53.4298 170.983 53.4298 Q169.108 53.4298 167.233 53.8464 Q165.381 54.2631 163.436 55.1427 L163.436 37.7817 Z" fill="#000000" fill-rule="evenodd" fill-opacity="1" /><path clip-path="url(#clip340)" d="M203.552 40.8604 Q199.941 40.8604 198.112 44.4252 Q196.307 47.9668 196.307 55.0964 Q196.307 62.2029 198.112 65.7677 Q199.941 69.3093 203.552 69.3093 Q207.186 69.3093 208.992 65.7677 Q210.82 62.2029 210.82 55.0964 Q210.82 47.9668 208.992 44.4252 Q207.186 40.8604 203.552 40.8604 M203.552 37.1567 Q209.362 37.1567 212.418 41.7632 Q215.496 46.3465 215.496 55.0964 Q215.496 63.8232 212.418 68.4297 Q209.362 73.013 203.552 73.013 Q197.742 73.013 194.663 68.4297 Q191.608 63.8232 191.608 55.0964 Q191.608 46.3465 194.663 41.7632 Q197.742 37.1567 203.552 37.1567 Z" fill="#000000" fill-rule="evenodd" fill-opacity="1" /><path clip-path="url(#clip340)" d="M233.714 40.8604 Q230.103 40.8604 228.274 44.4252 Q226.468 47.9668 226.468 55.0964 Q226.468 62.2029 228.274 65.7677 Q230.103 69.3093 233.714 69.3093 Q237.348 69.3093 239.154 65.7677 Q240.982 62.2029 240.982 55.0964 Q240.982 47.9668 239.154 44.4252 Q237.348 40.8604 233.714 40.8604 M233.714 37.1567 Q239.524 37.1567 242.58 41.7632 Q245.658 46.3465 245.658 55.0964 Q245.658 63.8232 242.58 68.4297 Q239.524 73.013 233.714 73.013 Q227.904 73.013 224.825 68.4297 Q221.769 63.8232 221.769 55.0964 Q221.769 46.3465 224.825 41.7632 Q227.904 37.1567 233.714 37.1567 Z" fill="#000000" fill-rule="evenodd" fill-opacity="1" /><path clip-path="url(#clip340)" d="M32.8336 1135.46 Q28.8869 1133.26 27.009 1130.21 Q25.1311 1127.15 25.1311 1123.01 Q25.1311 1117.44 29.046 1114.42 Q32.9291 1111.4 40.1224 1111.4 L61.6384 1111.4 L61.6384 1117.28 L40.3133 1117.28 Q35.1889 1117.28 32.7063 1119.1 Q30.2237 1120.91 30.2237 1124.64 Q30.2237 1129.19 33.2474 1131.83 Q36.2711 1134.47 41.491 1134.47 L61.6384 1134.47 L61.6384 1140.36 L40.3133 1140.36 Q35.1571 1140.36 32.7063 1142.17 Q30.2237 1143.99 30.2237 1147.78 Q30.2237 1152.26 33.2792 1154.91 Q36.3029 1157.55 41.491 1157.55 L61.6384 1157.55 L61.6384 1163.44 L25.9905 1163.44 L25.9905 1157.55 L31.5287 1157.55 Q28.2503 1155.54 26.6907 1152.74 Q25.1311 1149.94 25.1311 1146.09 Q25.1311 1142.21 27.1045 1139.5 Q29.0779 1136.76 32.8336 1135.46 Z" fill="#000000" fill-rule="evenodd" fill-opacity="1" /><path clip-path="url(#clip340)" d="M25.9905 1099.71 L25.9905 1093.86 L61.6384 1093.86 L61.6384 1099.71 L25.9905 1099.71 M12.1132 1099.71 L12.1132 1093.86 L19.5293 1093.86 L19.5293 1099.71 L12.1132 1099.71 Z" fill="#000000" fill-rule="evenodd" fill-opacity="1" /><path clip-path="url(#clip340)" d="M31.4013 1058.15 L12.1132 1058.15 L12.1132 1052.29 L61.6384 1052.29 L61.6384 1058.15 L56.2912 1058.15 Q59.4741 1059.99 61.0337 1062.83 Q62.5615 1065.63 62.5615 1069.57 Q62.5615 1076.03 57.4052 1080.11 Q52.249 1084.15 43.8463 1084.15 Q35.4436 1084.15 30.2873 1080.11 Q25.1311 1076.03 25.1311 1069.57 Q25.1311 1065.63 26.6907 1062.83 Q28.2185 1059.99 31.4013 1058.15 M43.8463 1078.1 Q50.3075 1078.1 53.9996 1075.46 Q57.6599 1072.79 57.6599 1068.14 Q57.6599 1063.49 53.9996 1060.82 Q50.3075 1058.15 43.8463 1058.15 Q37.3851 1058.15 33.7248 1060.82 Q30.0327 1063.49 30.0327 1068.14 Q30.0327 1072.79 33.7248 1075.46 Q37.3851 1078.1 43.8463 1078.1 Z" fill="#000000" fill-rule="evenodd" fill-opacity="1" /><path clip-path="url(#clip340)" d="M27.0408 1017.5 L32.579 1017.5 Q31.3059 1019.98 30.6693 1022.66 Q30.0327 1025.33 30.0327 1028.2 Q30.0327 1032.56 31.3695 1034.75 Q32.7063 1036.92 35.3799 1036.92 Q37.4169 1036.92 38.5946 1035.36 Q39.7404 1033.8 40.7908 1029.09 L41.2364 1027.08 Q42.5732 1020.84 45.0239 1018.23 Q47.4429 1015.59 51.8034 1015.59 Q56.7687 1015.59 59.6651 1019.54 Q62.5615 1023.45 62.5615 1030.33 Q62.5615 1033.19 61.9886 1036.31 Q61.4475 1039.4 60.3335 1042.84 L54.2861 1042.84 Q55.973 1039.59 56.8323 1036.44 Q57.6599 1033.29 57.6599 1030.2 Q57.6599 1026.06 56.2594 1023.84 Q54.8271 1021.61 52.249 1021.61 Q49.8619 1021.61 48.5887 1023.23 Q47.3156 1024.82 46.1379 1030.26 L45.6605 1032.3 Q44.5147 1037.74 42.1594 1040.16 Q39.7722 1042.58 35.6345 1042.58 Q30.6056 1042.58 27.8684 1039.02 Q25.1311 1035.45 25.1311 1028.9 Q25.1311 1025.65 25.6085 1022.78 Q26.086 1019.92 27.0408 1017.5 Z" fill="#000000" fill-rule="evenodd" fill-opacity="1" /><path clip-path="url(#clip340)" d="M15.869 1000.47 L25.9905 1000.47 L25.9905 988.41 L30.542 988.41 L30.542 1000.47 L49.8937 1000.47 Q54.2542 1000.47 55.4955 999.295 Q56.7368 998.086 56.7368 994.426 L56.7368 988.41 L61.6384 988.41 L61.6384 994.426 Q61.6384 1001.21 59.124 1003.78 Q56.5777 1006.36 49.8937 1006.36 L30.542 1006.36 L30.542 1010.66 L25.9905 1010.66 L25.9905 1006.36 L15.869 1006.36 L15.869 1000.47 Z" fill="#000000" fill-rule="evenodd" fill-opacity="1" /><path clip-path="url(#clip340)" d="M43.719 964.507 Q43.719 971.605 45.3422 974.342 Q46.9655 977.079 50.8804 977.079 Q53.9996 977.079 55.8457 975.042 Q57.6599 972.973 57.6599 969.44 Q57.6599 964.57 54.2224 961.642 Q50.7531 958.682 45.0239 958.682 L43.719 958.682 L43.719 964.507 M41.3 952.826 L61.6384 952.826 L61.6384 958.682 L56.2276 958.682 Q59.4741 960.687 61.0337 963.679 Q62.5615 966.671 62.5615 971 Q62.5615 976.474 59.5059 979.721 Q56.4186 982.936 51.2623 982.936 Q45.2467 982.936 42.1912 978.925 Q39.1357 974.883 39.1357 966.894 L39.1357 958.682 L38.5628 958.682 Q34.5205 958.682 32.3244 961.356 Q30.0964 963.998 30.0964 968.804 Q30.0964 971.859 30.8284 974.756 Q31.5605 977.652 33.0246 980.326 L27.6137 980.326 Q26.3724 977.111 25.7677 974.087 Q25.1311 971.064 25.1311 968.199 Q25.1311 960.465 29.1415 956.645 Q33.1519 952.826 41.3 952.826 Z" fill="#000000" fill-rule="evenodd" fill-opacity="1" /><path clip-path="url(#clip340)" d="M40.1224 911.13 L61.6384 911.13 L61.6384 916.987 L40.3133 916.987 Q35.2526 916.987 32.7381 918.96 Q30.2237 920.934 30.2237 924.88 Q30.2237 929.623 33.2474 932.36 Q36.2711 935.097 41.491 935.097 L61.6384 935.097 L61.6384 940.986 L25.9905 940.986 L25.9905 935.097 L31.5287 935.097 Q28.314 932.997 26.7225 930.164 Q25.1311 927.299 25.1311 923.575 Q25.1311 917.432 28.9505 914.281 Q32.7381 911.13 40.1224 911.13 Z" fill="#000000" fill-rule="evenodd" fill-opacity="1" /><path clip-path="url(#clip340)" d="M27.3591 873.796 L32.8336 873.796 Q31.465 876.278 30.7966 878.793 Q30.0964 881.275 30.0964 883.821 Q30.0964 889.519 33.7248 892.67 Q37.3214 895.821 43.8463 895.821 Q50.3711 895.821 53.9996 892.67 Q57.5962 889.519 57.5962 883.821 Q57.5962 881.275 56.9278 878.793 Q56.2276 876.278 54.859 873.796 L60.2698 873.796 Q61.4156 876.246 61.9886 878.888 Q62.5615 881.498 62.5615 884.458 Q62.5615 892.511 57.5007 897.253 Q52.44 901.996 43.8463 901.996 Q35.1253 901.996 30.1282 897.221 Q25.1311 892.415 25.1311 884.076 Q25.1311 881.371 25.704 878.793 Q26.2451 876.214 27.3591 873.796 Z" fill="#000000" fill-rule="evenodd" fill-opacity="1" /><path clip-path="url(#clip340)" d="M42.3504 833.119 L45.2149 833.119 L45.2149 860.046 Q51.2623 859.664 54.4452 856.417 Q57.5962 853.139 57.5962 847.314 Q57.5962 843.94 56.7687 840.789 Q55.9411 837.606 54.2861 834.487 L59.8242 834.487 Q61.161 837.638 61.8612 840.948 Q62.5615 844.259 62.5615 847.664 Q62.5615 856.194 57.5962 861.191 Q52.631 866.157 44.1646 866.157 Q35.4117 866.157 30.2873 861.446 Q25.1311 856.704 25.1311 848.683 Q25.1311 841.49 29.7781 837.32 Q34.3932 833.119 42.3504 833.119 M40.6316 838.975 Q35.8255 839.039 32.9609 841.681 Q30.0964 844.29 30.0964 848.619 Q30.0964 853.521 32.8654 856.481 Q35.6345 859.409 40.6634 859.855 L40.6316 838.975 Z" fill="#000000" fill-rule="evenodd" fill-opacity="1" /><path clip-path="url(#clip340)" d="M27.0408 780.06 L32.579 780.06 Q31.3059 782.543 30.6693 785.217 Q30.0327 787.89 30.0327 790.755 Q30.0327 795.115 31.3695 797.312 Q32.7063 799.476 35.3799 799.476 Q37.4169 799.476 38.5946 797.916 Q39.7404 796.357 40.7908 791.646 L41.2364 789.641 Q42.5732 783.402 45.0239 780.793 Q47.4429 778.151 51.8034 778.151 Q56.7687 778.151 59.6651 782.097 Q62.5615 786.012 62.5615 792.887 Q62.5615 795.752 61.9886 798.871 Q61.4475 801.959 60.3335 805.396 L54.2861 805.396 Q55.973 802.149 56.8323 798.998 Q57.6599 795.847 57.6599 792.76 Q57.6599 788.622 56.2594 786.394 Q54.8271 784.166 52.249 784.166 Q49.8619 784.166 48.5887 785.79 Q47.3156 787.381 46.1379 792.824 L45.6605 794.861 Q44.5147 800.303 42.1594 802.722 Q39.7722 805.141 35.6345 805.141 Q30.6056 805.141 27.8684 801.577 Q25.1311 798.012 25.1311 791.455 Q25.1311 788.209 25.6085 785.344 Q26.086 782.479 27.0408 780.06 Z" fill="#000000" fill-rule="evenodd" fill-opacity="1" /><path clip-path="url(#clip340)" d="M56.2912 763.16 L75.1974 763.16 L75.1974 769.048 L25.9905 769.048 L25.9905 763.16 L31.4013 763.16 Q28.2185 761.313 26.6907 758.513 Q25.1311 755.68 25.1311 751.765 Q25.1311 745.272 30.2873 741.23 Q35.4436 737.156 43.8463 737.156 Q52.249 737.156 57.4052 741.23 Q62.5615 745.272 62.5615 751.765 Q62.5615 755.68 61.0337 758.513 Q59.4741 761.313 56.2912 763.16 M43.8463 743.235 Q37.3851 743.235 33.7248 745.908 Q30.0327 748.55 30.0327 753.197 Q30.0327 757.844 33.7248 760.518 Q37.3851 763.16 43.8463 763.16 Q50.3075 763.16 53.9996 760.518 Q57.6599 757.844 57.6599 753.197 Q57.6599 748.55 53.9996 745.908 Q50.3075 743.235 43.8463 743.235 Z" fill="#000000" fill-rule="evenodd" fill-opacity="1" /><path clip-path="url(#clip340)" d="M42.3504 696.956 L45.2149 696.956 L45.2149 723.883 Q51.2623 723.501 54.4452 720.255 Q57.5962 716.976 57.5962 711.152 Q57.5962 707.778 56.7687 704.627 Q55.9411 701.444 54.2861 698.325 L59.8242 698.325 Q61.161 701.476 61.8612 704.786 Q62.5615 708.096 62.5615 711.502 Q62.5615 720.032 57.5962 725.029 Q52.631 729.994 44.1646 729.994 Q35.4117 729.994 30.2873 725.284 Q25.1311 720.541 25.1311 712.52 Q25.1311 705.327 29.7781 701.158 Q34.3932 696.956 42.3504 696.956 M40.6316 702.813 Q35.8255 702.876 32.9609 705.518 Q30.0964 708.128 30.0964 712.457 Q30.0964 717.358 32.8654 720.318 Q35.6345 723.247 40.6634 723.692 L40.6316 702.813 Z" fill="#000000" fill-rule="evenodd" fill-opacity="1" /><path clip-path="url(#clip340)" d="M42.3504 656.852 L45.2149 656.852 L45.2149 683.779 Q51.2623 683.397 54.4452 680.151 Q57.5962 676.872 57.5962 671.048 Q57.5962 667.674 56.7687 664.523 Q55.9411 661.34 54.2861 658.221 L59.8242 658.221 Q61.161 661.372 61.8612 664.682 Q62.5615 667.992 62.5615 671.398 Q62.5615 679.928 57.5962 684.925 Q52.631 689.89 44.1646 689.89 Q35.4117 689.89 30.2873 685.18 Q25.1311 680.437 25.1311 672.416 Q25.1311 665.223 29.7781 661.054 Q34.3932 656.852 42.3504 656.852 M40.6316 662.709 Q35.8255 662.772 32.9609 665.414 Q30.0964 668.024 30.0964 672.353 Q30.0964 677.254 32.8654 680.214 Q35.6345 683.143 40.6634 683.588 L40.6316 662.709 Z" fill="#000000" fill-rule="evenodd" fill-opacity="1" /><path clip-path="url(#clip340)" d="M31.4013 623.782 L12.1132 623.782 L12.1132 617.926 L61.6384 617.926 L61.6384 623.782 L56.2912 623.782 Q59.4741 625.628 61.0337 628.461 Q62.5615 631.262 62.5615 635.209 Q62.5615 641.67 57.4052 645.744 Q52.249 649.786 43.8463 649.786 Q35.4436 649.786 30.2873 645.744 Q25.1311 641.67 25.1311 635.209 Q25.1311 631.262 26.6907 628.461 Q28.2185 625.628 31.4013 623.782 M43.8463 643.739 Q50.3075 643.739 53.9996 641.097 Q57.6599 638.424 57.6599 633.777 Q57.6599 629.13 53.9996 626.456 Q50.3075 623.782 43.8463 623.782 Q37.3851 623.782 33.7248 626.456 Q30.0327 629.13 30.0327 633.777 Q30.0327 638.424 33.7248 641.097 Q37.3851 643.739 43.8463 643.739 Z" fill="#000000" fill-rule="evenodd" fill-opacity="1" /><polyline clip-path="url(#clip342)" style="stroke:#009af9; stroke-linecap:round; stroke-linejoin:round; stroke-width:4; stroke-opacity:1; fill:none" points="352.623,1022.16 511.472,1019.1 670.121,1000.27 828.168,952.71 984.82,844.285 1138.46,605.065 1285.99,94.9858 1444.8,1686.38 1612.95,1317.74 1775.88,1161.75 1936.7,1093.5 2096.6,1062.3 2256.06,1045.72 2415.24,1032.02 2574.11,1011.57 "/>
</svg>
