<?xml version="1.0" encoding="utf-8"?>
<svg xmlns="http://www.w3.org/2000/svg" xmlns:xlink="http://www.w3.org/1999/xlink" width="672" height="480" viewBox="0 0 2688 1920">
<defs>
  <clipPath id="clip130">
    <rect x="0" y="0" width="2688" height="1920"/>
  </clipPath>
</defs>
<path clip-path="url(#clip130)" d="M0 1920 L2688 1920 L2688 0 L0 0  Z" fill="#ffffff" fill-rule="evenodd" fill-opacity="1"/>
<defs>
  <clipPath id="clip131">
    <rect x="537" y="0" width="1883" height="1883"/>
  </clipPath>
</defs>
<path clip-path="url(#clip130)" d="M283.895 1734.12 L2640.76 1734.12 L2640.76 47.2441 L283.895 47.2441  Z" fill="#ffffff" fill-rule="evenodd" fill-opacity="1"/>
<defs>
  <clipPath id="clip132">
    <rect x="283" y="47" width="2358" height="1688"/>
  </clipPath>
</defs>
<polyline clip-path="url(#clip132)" style="stroke:#000000; stroke-linecap:round; stroke-linejoin:round; stroke-width:2; stroke-opacity:0.1; fill:none" points="650.577,1734.12 650.577,47.2441 "/>
<polyline clip-path="url(#clip132)" style="stroke:#000000; stroke-linecap:round; stroke-linejoin:round; stroke-width:2; stroke-opacity:0.1; fill:none" points="1109.39,1734.12 1109.39,47.2441 "/>
<polyline clip-path="url(#clip132)" style="stroke:#000000; stroke-linecap:round; stroke-linejoin:round; stroke-width:2; stroke-opacity:0.1; fill:none" points="1568.21,1734.12 1568.21,47.2441 "/>
<polyline clip-path="url(#clip132)" style="stroke:#000000; stroke-linecap:round; stroke-linejoin:round; stroke-width:2; stroke-opacity:0.1; fill:none" points="2027.03,1734.12 2027.03,47.2441 "/>
<polyline clip-path="url(#clip132)" style="stroke:#000000; stroke-linecap:round; stroke-linejoin:round; stroke-width:2; stroke-opacity:0.1; fill:none" points="2485.85,1734.12 2485.85,47.2441 "/>
<polyline clip-path="url(#clip130)" style="stroke:#000000; stroke-linecap:round; stroke-linejoin:round; stroke-width:4; stroke-opacity:1; fill:none" points="283.895,1734.12 2640.76,1734.12 "/>
<polyline clip-path="url(#clip130)" style="stroke:#000000; stroke-linecap:round; stroke-linejoin:round; stroke-width:4; stroke-opacity:1; fill:none" points="650.577,1734.12 650.577,1715.22 "/>
<polyline clip-path="url(#clip130)" style="stroke:#000000; stroke-linecap:round; stroke-linejoin:round; stroke-width:4; stroke-opacity:1; fill:none" points="1109.39,1734.12 1109.39,1715.22 "/>
<polyline clip-path="url(#clip130)" style="stroke:#000000; stroke-linecap:round; stroke-linejoin:round; stroke-width:4; stroke-opacity:1; fill:none" points="1568.21,1734.12 1568.21,1715.22 "/>
<polyline clip-path="url(#clip130)" style="stroke:#000000; stroke-linecap:round; stroke-linejoin:round; stroke-width:4; stroke-opacity:1; fill:none" points="2027.03,1734.12 2027.03,1715.22 "/>
<polyline clip-path="url(#clip130)" style="stroke:#000000; stroke-linecap:round; stroke-linejoin:round; stroke-width:4; stroke-opacity:1; fill:none" points="2485.85,1734.12 2485.85,1715.22 "/>
<path clip-path="url(#clip130)" d="M640.855 1764.26 L659.211 1764.26 L659.211 1768.2 L645.137 1768.2 L645.137 1776.67 Q646.156 1776.32 647.174 1776.16 Q648.193 1775.97 649.211 1775.97 Q654.998 1775.97 658.378 1779.15 Q661.758 1782.32 661.758 1787.73 Q661.758 1793.31 658.285 1796.41 Q654.813 1799.49 648.494 1799.49 Q646.318 1799.49 644.049 1799.12 Q641.804 1798.75 639.397 1798.01 L639.397 1793.31 Q641.48 1794.45 643.702 1795 Q645.924 1795.56 648.401 1795.56 Q652.406 1795.56 654.744 1793.45 Q657.082 1791.34 657.082 1787.73 Q657.082 1784.12 654.744 1782.02 Q652.406 1779.91 648.401 1779.91 Q646.526 1779.91 644.651 1780.33 Q642.799 1780.74 640.855 1781.62 L640.855 1764.26 Z" fill="#000000" fill-rule="evenodd" fill-opacity="1" /><path clip-path="url(#clip130)" d="M1084.08 1794.89 L1091.72 1794.89 L1091.72 1768.52 L1083.41 1770.19 L1083.41 1765.93 L1091.67 1764.26 L1096.35 1764.26 L1096.35 1794.89 L1103.99 1794.89 L1103.99 1798.82 L1084.08 1798.82 L1084.08 1794.89 Z" fill="#000000" fill-rule="evenodd" fill-opacity="1" /><path clip-path="url(#clip130)" d="M1123.43 1767.34 Q1119.82 1767.34 1117.99 1770.9 Q1116.19 1774.45 1116.19 1781.58 Q1116.19 1788.68 1117.99 1792.25 Q1119.82 1795.79 1123.43 1795.79 Q1127.07 1795.79 1128.87 1792.25 Q1130.7 1788.68 1130.7 1781.58 Q1130.7 1774.45 1128.87 1770.9 Q1127.07 1767.34 1123.43 1767.34 M1123.43 1763.64 Q1129.24 1763.64 1132.3 1768.24 Q1135.38 1772.83 1135.38 1781.58 Q1135.38 1790.3 1132.3 1794.91 Q1129.24 1799.49 1123.43 1799.49 Q1117.62 1799.49 1114.55 1794.91 Q1111.49 1790.3 1111.49 1781.58 Q1111.49 1772.83 1114.55 1768.24 Q1117.62 1763.64 1123.43 1763.64 Z" fill="#000000" fill-rule="evenodd" fill-opacity="1" /><path clip-path="url(#clip130)" d="M1543.4 1794.89 L1551.04 1794.89 L1551.04 1768.52 L1542.73 1770.19 L1542.73 1765.93 L1550.99 1764.26 L1555.67 1764.26 L1555.67 1794.89 L1563.3 1794.89 L1563.3 1798.82 L1543.4 1798.82 L1543.4 1794.89 Z" fill="#000000" fill-rule="evenodd" fill-opacity="1" /><path clip-path="url(#clip130)" d="M1572.8 1764.26 L1591.15 1764.26 L1591.15 1768.2 L1577.08 1768.2 L1577.08 1776.67 Q1578.1 1776.32 1579.11 1776.16 Q1580.13 1775.97 1581.15 1775.97 Q1586.94 1775.97 1590.32 1779.15 Q1593.7 1782.32 1593.7 1787.73 Q1593.7 1793.31 1590.23 1796.41 Q1586.75 1799.49 1580.43 1799.49 Q1578.26 1799.49 1575.99 1799.12 Q1573.74 1798.75 1571.34 1798.01 L1571.34 1793.31 Q1573.42 1794.45 1575.64 1795 Q1577.86 1795.56 1580.34 1795.56 Q1584.35 1795.56 1586.68 1793.45 Q1589.02 1791.34 1589.02 1787.73 Q1589.02 1784.12 1586.68 1782.02 Q1584.35 1779.91 1580.34 1779.91 Q1578.47 1779.91 1576.59 1780.33 Q1574.74 1780.74 1572.8 1781.62 L1572.8 1764.26 Z" fill="#000000" fill-rule="evenodd" fill-opacity="1" /><path clip-path="url(#clip130)" d="M2005.8 1794.89 L2022.12 1794.89 L2022.12 1798.82 L2000.18 1798.82 L2000.18 1794.89 Q2002.84 1792.13 2007.42 1787.5 Q2012.03 1782.85 2013.21 1781.51 Q2015.46 1778.98 2016.34 1777.25 Q2017.24 1775.49 2017.24 1773.8 Q2017.24 1771.04 2015.29 1769.31 Q2013.37 1767.57 2010.27 1767.57 Q2008.07 1767.57 2005.62 1768.34 Q2003.19 1769.1 2000.41 1770.65 L2000.41 1765.93 Q2003.23 1764.79 2005.69 1764.21 Q2008.14 1763.64 2010.18 1763.64 Q2015.55 1763.64 2018.74 1766.32 Q2021.94 1769.01 2021.94 1773.5 Q2021.94 1775.63 2021.13 1777.55 Q2020.34 1779.45 2018.23 1782.04 Q2017.65 1782.71 2014.55 1785.93 Q2011.45 1789.12 2005.8 1794.89 Z" fill="#000000" fill-rule="evenodd" fill-opacity="1" /><path clip-path="url(#clip130)" d="M2041.94 1767.34 Q2038.33 1767.34 2036.5 1770.9 Q2034.69 1774.45 2034.69 1781.58 Q2034.69 1788.68 2036.5 1792.25 Q2038.33 1795.79 2041.94 1795.79 Q2045.57 1795.79 2047.38 1792.25 Q2049.21 1788.68 2049.21 1781.58 Q2049.21 1774.45 2047.38 1770.9 Q2045.57 1767.34 2041.94 1767.34 M2041.94 1763.64 Q2047.75 1763.64 2050.8 1768.24 Q2053.88 1772.83 2053.88 1781.58 Q2053.88 1790.3 2050.8 1794.91 Q2047.75 1799.49 2041.94 1799.49 Q2036.13 1799.49 2033.05 1794.91 Q2029.99 1790.3 2029.99 1781.58 Q2029.99 1772.83 2033.05 1768.24 Q2036.13 1763.64 2041.94 1763.64 Z" fill="#000000" fill-rule="evenodd" fill-opacity="1" /><path clip-path="url(#clip130)" d="M2465.12 1794.89 L2481.44 1794.89 L2481.44 1798.82 L2459.49 1798.82 L2459.49 1794.89 Q2462.16 1792.13 2466.74 1787.5 Q2471.34 1782.85 2472.53 1781.51 Q2474.77 1778.98 2475.65 1777.25 Q2476.55 1775.49 2476.55 1773.8 Q2476.55 1771.04 2474.61 1769.31 Q2472.69 1767.57 2469.59 1767.57 Q2467.39 1767.57 2464.93 1768.34 Q2462.5 1769.1 2459.72 1770.65 L2459.72 1765.93 Q2462.55 1764.79 2465 1764.21 Q2467.46 1763.64 2469.49 1763.64 Q2474.86 1763.64 2478.06 1766.32 Q2481.25 1769.01 2481.25 1773.5 Q2481.25 1775.63 2480.44 1777.55 Q2479.66 1779.45 2477.55 1782.04 Q2476.97 1782.71 2473.87 1785.93 Q2470.77 1789.12 2465.12 1794.89 Z" fill="#000000" fill-rule="evenodd" fill-opacity="1" /><path clip-path="url(#clip130)" d="M2491.3 1764.26 L2509.65 1764.26 L2509.65 1768.2 L2495.58 1768.2 L2495.58 1776.67 Q2496.6 1776.32 2497.62 1776.16 Q2498.64 1775.97 2499.65 1775.97 Q2505.44 1775.97 2508.82 1779.15 Q2512.2 1782.32 2512.2 1787.73 Q2512.2 1793.31 2508.73 1796.41 Q2505.26 1799.49 2498.94 1799.49 Q2496.76 1799.49 2494.49 1799.12 Q2492.25 1798.75 2489.84 1798.01 L2489.84 1793.31 Q2491.92 1794.45 2494.15 1795 Q2496.37 1795.56 2498.84 1795.56 Q2502.85 1795.56 2505.19 1793.45 Q2507.53 1791.34 2507.53 1787.73 Q2507.53 1784.12 2505.19 1782.02 Q2502.85 1779.91 2498.84 1779.91 Q2496.97 1779.91 2495.09 1780.33 Q2493.24 1780.74 2491.3 1781.62 L2491.3 1764.26 Z" fill="#000000" fill-rule="evenodd" fill-opacity="1" /><path clip-path="url(#clip130)" d="M1401.49 1837.53 L1401.49 1847.65 L1413.55 1847.65 L1413.55 1852.2 L1401.49 1852.2 L1401.49 1871.56 Q1401.49 1875.92 1402.66 1877.16 Q1403.87 1878.4 1407.53 1878.4 L1413.55 1878.4 L1413.55 1883.3 L1407.53 1883.3 Q1400.75 1883.3 1398.17 1880.79 Q1395.6 1878.24 1395.6 1871.56 L1395.6 1852.2 L1391.3 1852.2 L1391.3 1847.65 L1395.6 1847.65 L1395.6 1837.53 L1401.49 1837.53 Z" fill="#000000" fill-rule="evenodd" fill-opacity="1" /><path clip-path="url(#clip130)" d="M1421.25 1847.65 L1427.11 1847.65 L1427.11 1883.3 L1421.25 1883.3 L1421.25 1847.65 M1421.25 1833.78 L1427.11 1833.78 L1427.11 1841.19 L1421.25 1841.19 L1421.25 1833.78 Z" fill="#000000" fill-rule="evenodd" fill-opacity="1" /><path clip-path="url(#clip130)" d="M1467.12 1854.5 Q1469.31 1850.55 1472.37 1848.67 Q1475.42 1846.79 1479.56 1846.79 Q1485.13 1846.79 1488.15 1850.71 Q1491.18 1854.59 1491.18 1861.78 L1491.18 1883.3 L1485.29 1883.3 L1485.29 1861.98 Q1485.29 1856.85 1483.48 1854.37 Q1481.66 1851.89 1477.94 1851.89 Q1473.39 1851.89 1470.74 1854.91 Q1468.1 1857.93 1468.1 1863.15 L1468.1 1883.3 L1462.21 1883.3 L1462.21 1861.98 Q1462.21 1856.82 1460.4 1854.37 Q1458.59 1851.89 1454.8 1851.89 Q1450.31 1851.89 1447.67 1854.94 Q1445.03 1857.97 1445.03 1863.15 L1445.03 1883.3 L1439.14 1883.3 L1439.14 1847.65 L1445.03 1847.65 L1445.03 1853.19 Q1447.03 1849.91 1449.83 1848.35 Q1452.63 1846.79 1456.48 1846.79 Q1460.37 1846.79 1463.07 1848.77 Q1465.81 1850.74 1467.12 1854.5 Z" fill="#000000" fill-rule="evenodd" fill-opacity="1" /><path clip-path="url(#clip130)" d="M1533.35 1864.01 L1533.35 1866.88 L1506.42 1866.88 Q1506.81 1872.92 1510.05 1876.11 Q1513.33 1879.26 1519.16 1879.26 Q1522.53 1879.26 1525.68 1878.43 Q1528.86 1877.6 1531.98 1875.95 L1531.98 1881.49 Q1528.83 1882.82 1525.52 1883.52 Q1522.21 1884.22 1518.81 1884.22 Q1510.28 1884.22 1505.28 1879.26 Q1500.31 1874.29 1500.31 1865.83 Q1500.31 1857.07 1505.02 1851.95 Q1509.77 1846.79 1517.79 1846.79 Q1524.98 1846.79 1529.15 1851.44 Q1533.35 1856.06 1533.35 1864.01 M1527.49 1862.29 Q1527.43 1857.49 1524.79 1854.62 Q1522.18 1851.76 1517.85 1851.76 Q1512.95 1851.76 1509.99 1854.53 Q1507.06 1857.3 1506.61 1862.33 L1527.49 1862.29 Z" fill="#000000" fill-rule="evenodd" fill-opacity="1" /><polyline clip-path="url(#clip132)" style="stroke:#000000; stroke-linecap:round; stroke-linejoin:round; stroke-width:2; stroke-opacity:0.1; fill:none" points="283.895,1479.82 2640.76,1479.82 "/>
<polyline clip-path="url(#clip132)" style="stroke:#000000; stroke-linecap:round; stroke-linejoin:round; stroke-width:2; stroke-opacity:0.1; fill:none" points="283.895,1198.02 2640.76,1198.02 "/>
<polyline clip-path="url(#clip132)" style="stroke:#000000; stroke-linecap:round; stroke-linejoin:round; stroke-width:2; stroke-opacity:0.1; fill:none" points="283.895,916.214 2640.76,916.214 "/>
<polyline clip-path="url(#clip132)" style="stroke:#000000; stroke-linecap:round; stroke-linejoin:round; stroke-width:2; stroke-opacity:0.1; fill:none" points="283.895,634.411 2640.76,634.411 "/>
<polyline clip-path="url(#clip132)" style="stroke:#000000; stroke-linecap:round; stroke-linejoin:round; stroke-width:2; stroke-opacity:0.1; fill:none" points="283.895,352.607 2640.76,352.607 "/>
<polyline clip-path="url(#clip132)" style="stroke:#000000; stroke-linecap:round; stroke-linejoin:round; stroke-width:2; stroke-opacity:0.1; fill:none" points="283.895,70.8026 2640.76,70.8026 "/>
<polyline clip-path="url(#clip130)" style="stroke:#000000; stroke-linecap:round; stroke-linejoin:round; stroke-width:4; stroke-opacity:1; fill:none" points="283.895,1734.12 283.895,47.2441 "/>
<polyline clip-path="url(#clip130)" style="stroke:#000000; stroke-linecap:round; stroke-linejoin:round; stroke-width:4; stroke-opacity:1; fill:none" points="283.895,1479.82 302.793,1479.82 "/>
<polyline clip-path="url(#clip130)" style="stroke:#000000; stroke-linecap:round; stroke-linejoin:round; stroke-width:4; stroke-opacity:1; fill:none" points="283.895,1198.02 302.793,1198.02 "/>
<polyline clip-path="url(#clip130)" style="stroke:#000000; stroke-linecap:round; stroke-linejoin:round; stroke-width:4; stroke-opacity:1; fill:none" points="283.895,916.214 302.793,916.214 "/>
<polyline clip-path="url(#clip130)" style="stroke:#000000; stroke-linecap:round; stroke-linejoin:round; stroke-width:4; stroke-opacity:1; fill:none" points="283.895,634.411 302.793,634.411 "/>
<polyline clip-path="url(#clip130)" style="stroke:#000000; stroke-linecap:round; stroke-linejoin:round; stroke-width:4; stroke-opacity:1; fill:none" points="283.895,352.607 302.793,352.607 "/>
<polyline clip-path="url(#clip130)" style="stroke:#000000; stroke-linecap:round; stroke-linejoin:round; stroke-width:4; stroke-opacity:1; fill:none" points="283.895,70.8026 302.793,70.8026 "/>
<path clip-path="url(#clip130)" d="M117.881 1493.17 L125.52 1493.17 L125.52 1466.8 L117.21 1468.47 L117.21 1464.21 L125.474 1462.54 L130.15 1462.54 L130.15 1493.17 L137.788 1493.17 L137.788 1497.1 L117.881 1497.1 L117.881 1493.17 Z" fill="#000000" fill-rule="evenodd" fill-opacity="1" /><path clip-path="url(#clip130)" d="M147.233 1491.22 L152.117 1491.22 L152.117 1497.1 L147.233 1497.1 L147.233 1491.22 Z" fill="#000000" fill-rule="evenodd" fill-opacity="1" /><path clip-path="url(#clip130)" d="M172.881 1477.96 Q169.733 1477.96 167.881 1480.11 Q166.052 1482.26 166.052 1486.01 Q166.052 1489.74 167.881 1491.92 Q169.733 1494.07 172.881 1494.07 Q176.029 1494.07 177.858 1491.92 Q179.709 1489.74 179.709 1486.01 Q179.709 1482.26 177.858 1480.11 Q176.029 1477.96 172.881 1477.96 M182.163 1463.31 L182.163 1467.57 Q180.404 1466.73 178.598 1466.29 Q176.816 1465.85 175.057 1465.85 Q170.427 1465.85 167.973 1468.98 Q165.543 1472.1 165.196 1478.42 Q166.561 1476.41 168.622 1475.34 Q170.682 1474.26 173.159 1474.26 Q178.367 1474.26 181.376 1477.43 Q184.409 1480.57 184.409 1486.01 Q184.409 1491.34 181.26 1494.56 Q178.112 1497.77 172.881 1497.77 Q166.885 1497.77 163.714 1493.19 Q160.543 1488.58 160.543 1479.86 Q160.543 1471.66 164.432 1466.8 Q168.321 1461.92 174.872 1461.92 Q176.631 1461.92 178.413 1462.26 Q180.219 1462.61 182.163 1463.31 Z" fill="#000000" fill-rule="evenodd" fill-opacity="1" /><path clip-path="url(#clip130)" d="M191.283 1462.54 L213.506 1462.54 L213.506 1464.53 L200.959 1497.1 L196.075 1497.1 L207.881 1466.48 L191.283 1466.48 L191.283 1462.54 Z" fill="#000000" fill-rule="evenodd" fill-opacity="1" /><path clip-path="url(#clip130)" d="M222.672 1462.54 L241.029 1462.54 L241.029 1466.48 L226.955 1466.48 L226.955 1474.95 Q227.973 1474.6 228.992 1474.44 Q230.01 1474.26 231.029 1474.26 Q236.816 1474.26 240.195 1477.43 Q243.575 1480.6 243.575 1486.01 Q243.575 1491.59 240.103 1494.69 Q236.63 1497.77 230.311 1497.77 Q228.135 1497.77 225.867 1497.4 Q223.621 1497.03 221.214 1496.29 L221.214 1491.59 Q223.297 1492.73 225.519 1493.28 Q227.742 1493.84 230.218 1493.84 Q234.223 1493.84 236.561 1491.73 Q238.899 1489.63 238.899 1486.01 Q238.899 1482.4 236.561 1480.3 Q234.223 1478.19 230.218 1478.19 Q228.343 1478.19 226.468 1478.61 Q224.617 1479.02 222.672 1479.9 L222.672 1462.54 Z" fill="#000000" fill-rule="evenodd" fill-opacity="1" /><path clip-path="url(#clip130)" d="M116.886 1211.36 L124.525 1211.36 L124.525 1185 L116.214 1186.66 L116.214 1182.41 L124.478 1180.74 L129.154 1180.74 L129.154 1211.36 L136.793 1211.36 L136.793 1215.3 L116.886 1215.3 L116.886 1211.36 Z" fill="#000000" fill-rule="evenodd" fill-opacity="1" /><path clip-path="url(#clip130)" d="M146.237 1209.42 L151.122 1209.42 L151.122 1215.3 L146.237 1215.3 L146.237 1209.42 Z" fill="#000000" fill-rule="evenodd" fill-opacity="1" /><path clip-path="url(#clip130)" d="M160.126 1180.74 L182.348 1180.74 L182.348 1182.73 L169.802 1215.3 L164.918 1215.3 L176.723 1184.67 L160.126 1184.67 L160.126 1180.74 Z" fill="#000000" fill-rule="evenodd" fill-opacity="1" /><path clip-path="url(#clip130)" d="M201.469 1183.82 Q197.858 1183.82 196.029 1187.38 Q194.223 1190.92 194.223 1198.05 Q194.223 1205.16 196.029 1208.72 Q197.858 1212.27 201.469 1212.27 Q205.103 1212.27 206.908 1208.72 Q208.737 1205.16 208.737 1198.05 Q208.737 1190.92 206.908 1187.38 Q205.103 1183.82 201.469 1183.82 M201.469 1180.11 Q207.279 1180.11 210.334 1184.72 Q213.413 1189.3 213.413 1198.05 Q213.413 1206.78 210.334 1211.39 Q207.279 1215.97 201.469 1215.97 Q195.658 1215.97 192.58 1211.39 Q189.524 1206.78 189.524 1198.05 Q189.524 1189.3 192.58 1184.72 Q195.658 1180.11 201.469 1180.11 Z" fill="#000000" fill-rule="evenodd" fill-opacity="1" /><path clip-path="url(#clip130)" d="M231.63 1183.82 Q228.019 1183.82 226.191 1187.38 Q224.385 1190.92 224.385 1198.05 Q224.385 1205.16 226.191 1208.72 Q228.019 1212.27 231.63 1212.27 Q235.265 1212.27 237.07 1208.72 Q238.899 1205.16 238.899 1198.05 Q238.899 1190.92 237.07 1187.38 Q235.265 1183.82 231.63 1183.82 M231.63 1180.11 Q237.441 1180.11 240.496 1184.72 Q243.575 1189.3 243.575 1198.05 Q243.575 1206.78 240.496 1211.39 Q237.441 1215.97 231.63 1215.97 Q225.82 1215.97 222.742 1211.39 Q219.686 1206.78 219.686 1198.05 Q219.686 1189.3 222.742 1184.72 Q225.82 1180.11 231.63 1180.11 Z" fill="#000000" fill-rule="evenodd" fill-opacity="1" /><path clip-path="url(#clip130)" d="M117.881 929.559 L125.52 929.559 L125.52 903.194 L117.21 904.86 L117.21 900.601 L125.474 898.934 L130.15 898.934 L130.15 929.559 L137.788 929.559 L137.788 933.494 L117.881 933.494 L117.881 929.559 Z" fill="#000000" fill-rule="evenodd" fill-opacity="1" /><path clip-path="url(#clip130)" d="M147.233 927.615 L152.117 927.615 L152.117 933.494 L147.233 933.494 L147.233 927.615 Z" fill="#000000" fill-rule="evenodd" fill-opacity="1" /><path clip-path="url(#clip130)" d="M161.122 898.934 L183.344 898.934 L183.344 900.925 L170.797 933.494 L165.913 933.494 L177.719 902.87 L161.122 902.87 L161.122 898.934 Z" fill="#000000" fill-rule="evenodd" fill-opacity="1" /><path clip-path="url(#clip130)" d="M196.492 929.559 L212.811 929.559 L212.811 933.494 L190.867 933.494 L190.867 929.559 Q193.529 926.805 198.112 922.175 Q202.719 917.522 203.899 916.18 Q206.145 913.657 207.024 911.92 Q207.927 910.161 207.927 908.471 Q207.927 905.717 205.982 903.981 Q204.061 902.245 200.959 902.245 Q198.76 902.245 196.307 903.008 Q193.876 903.772 191.098 905.323 L191.098 900.601 Q193.922 899.467 196.376 898.888 Q198.83 898.309 200.867 898.309 Q206.237 898.309 209.432 900.995 Q212.626 903.68 212.626 908.171 Q212.626 910.3 211.816 912.221 Q211.029 914.12 208.922 916.712 Q208.344 917.383 205.242 920.601 Q202.14 923.795 196.492 929.559 Z" fill="#000000" fill-rule="evenodd" fill-opacity="1" /><path clip-path="url(#clip130)" d="M222.672 898.934 L241.029 898.934 L241.029 902.87 L226.955 902.87 L226.955 911.342 Q227.973 910.995 228.992 910.833 Q230.01 910.647 231.029 910.647 Q236.816 910.647 240.195 913.819 Q243.575 916.99 243.575 922.407 Q243.575 927.985 240.103 931.087 Q236.63 934.166 230.311 934.166 Q228.135 934.166 225.867 933.795 Q223.621 933.425 221.214 932.684 L221.214 927.985 Q223.297 929.119 225.519 929.675 Q227.742 930.231 230.218 930.231 Q234.223 930.231 236.561 928.124 Q238.899 926.018 238.899 922.407 Q238.899 918.795 236.561 916.689 Q234.223 914.583 230.218 914.583 Q228.343 914.583 226.468 914.999 Q224.617 915.416 222.672 916.295 L222.672 898.934 Z" fill="#000000" fill-rule="evenodd" fill-opacity="1" /><path clip-path="url(#clip130)" d="M116.886 647.755 L124.525 647.755 L124.525 621.39 L116.214 623.056 L116.214 618.797 L124.478 617.131 L129.154 617.131 L129.154 647.755 L136.793 647.755 L136.793 651.691 L116.886 651.691 L116.886 647.755 Z" fill="#000000" fill-rule="evenodd" fill-opacity="1" /><path clip-path="url(#clip130)" d="M146.237 645.811 L151.122 645.811 L151.122 651.691 L146.237 651.691 L146.237 645.811 Z" fill="#000000" fill-rule="evenodd" fill-opacity="1" /><path clip-path="url(#clip130)" d="M160.126 617.131 L182.348 617.131 L182.348 619.121 L169.802 651.691 L164.918 651.691 L176.723 621.066 L160.126 621.066 L160.126 617.131 Z" fill="#000000" fill-rule="evenodd" fill-opacity="1" /><path clip-path="url(#clip130)" d="M191.515 617.131 L209.871 617.131 L209.871 621.066 L195.797 621.066 L195.797 629.538 Q196.816 629.191 197.834 629.029 Q198.853 628.843 199.871 628.843 Q205.658 628.843 209.038 632.015 Q212.418 635.186 212.418 640.603 Q212.418 646.181 208.945 649.283 Q205.473 652.362 199.154 652.362 Q196.978 652.362 194.709 651.991 Q192.464 651.621 190.057 650.88 L190.057 646.181 Q192.14 647.316 194.362 647.871 Q196.584 648.427 199.061 648.427 Q203.066 648.427 205.404 646.32 Q207.742 644.214 207.742 640.603 Q207.742 636.992 205.404 634.885 Q203.066 632.779 199.061 632.779 Q197.186 632.779 195.311 633.195 Q193.459 633.612 191.515 634.492 L191.515 617.131 Z" fill="#000000" fill-rule="evenodd" fill-opacity="1" /><path clip-path="url(#clip130)" d="M231.63 620.209 Q228.019 620.209 226.191 623.774 Q224.385 627.316 224.385 634.445 Q224.385 641.552 226.191 645.116 Q228.019 648.658 231.63 648.658 Q235.265 648.658 237.07 645.116 Q238.899 641.552 238.899 634.445 Q238.899 627.316 237.07 623.774 Q235.265 620.209 231.63 620.209 M231.63 616.506 Q237.441 616.506 240.496 621.112 Q243.575 625.695 243.575 634.445 Q243.575 643.172 240.496 647.778 Q237.441 652.362 231.63 652.362 Q225.82 652.362 222.742 647.778 Q219.686 643.172 219.686 634.445 Q219.686 625.695 222.742 621.112 Q225.82 616.506 231.63 616.506 Z" fill="#000000" fill-rule="evenodd" fill-opacity="1" /><path clip-path="url(#clip130)" d="M117.881 365.951 L125.52 365.951 L125.52 339.586 L117.21 341.252 L117.21 336.993 L125.474 335.327 L130.15 335.327 L130.15 365.951 L137.788 365.951 L137.788 369.887 L117.881 369.887 L117.881 365.951 Z" fill="#000000" fill-rule="evenodd" fill-opacity="1" /><path clip-path="url(#clip130)" d="M147.233 364.007 L152.117 364.007 L152.117 369.887 L147.233 369.887 L147.233 364.007 Z" fill="#000000" fill-rule="evenodd" fill-opacity="1" /><path clip-path="url(#clip130)" d="M161.122 335.327 L183.344 335.327 L183.344 337.317 L170.797 369.887 L165.913 369.887 L177.719 339.262 L161.122 339.262 L161.122 335.327 Z" fill="#000000" fill-rule="evenodd" fill-opacity="1" /><path clip-path="url(#clip130)" d="M191.283 335.327 L213.506 335.327 L213.506 337.317 L200.959 369.887 L196.075 369.887 L207.881 339.262 L191.283 339.262 L191.283 335.327 Z" fill="#000000" fill-rule="evenodd" fill-opacity="1" /><path clip-path="url(#clip130)" d="M222.672 335.327 L241.029 335.327 L241.029 339.262 L226.955 339.262 L226.955 347.734 Q227.973 347.387 228.992 347.225 Q230.01 347.039 231.029 347.039 Q236.816 347.039 240.195 350.211 Q243.575 353.382 243.575 358.799 Q243.575 364.377 240.103 367.479 Q236.63 370.558 230.311 370.558 Q228.135 370.558 225.867 370.188 Q223.621 369.817 221.214 369.076 L221.214 364.377 Q223.297 365.512 225.519 366.067 Q227.742 366.623 230.218 366.623 Q234.223 366.623 236.561 364.516 Q238.899 362.41 238.899 358.799 Q238.899 355.188 236.561 353.081 Q234.223 350.975 230.218 350.975 Q228.343 350.975 226.468 351.391 Q224.617 351.808 222.672 352.688 L222.672 335.327 Z" fill="#000000" fill-rule="evenodd" fill-opacity="1" /><path clip-path="url(#clip130)" d="M116.886 84.1475 L124.525 84.1475 L124.525 57.7819 L116.214 59.4485 L116.214 55.1893 L124.478 53.5226 L129.154 53.5226 L129.154 84.1475 L136.793 84.1475 L136.793 88.0826 L116.886 88.0826 L116.886 84.1475 Z" fill="#000000" fill-rule="evenodd" fill-opacity="1" /><path clip-path="url(#clip130)" d="M146.237 82.203 L151.122 82.203 L151.122 88.0826 L146.237 88.0826 L146.237 82.203 Z" fill="#000000" fill-rule="evenodd" fill-opacity="1" /><path clip-path="url(#clip130)" d="M171.307 71.6707 Q167.973 71.6707 166.052 73.4531 Q164.154 75.2355 164.154 78.3605 Q164.154 81.4855 166.052 83.2679 Q167.973 85.0503 171.307 85.0503 Q174.64 85.0503 176.561 83.2679 Q178.483 81.4623 178.483 78.3605 Q178.483 75.2355 176.561 73.4531 Q174.663 71.6707 171.307 71.6707 M166.631 69.68 Q163.622 68.9392 161.932 66.8791 Q160.265 64.8189 160.265 61.8559 Q160.265 57.7124 163.205 55.305 Q166.168 52.8976 171.307 52.8976 Q176.469 52.8976 179.409 55.305 Q182.348 57.7124 182.348 61.8559 Q182.348 64.8189 180.659 66.8791 Q178.992 68.9392 176.006 69.68 Q179.385 70.467 181.26 72.7587 Q183.159 75.0503 183.159 78.3605 Q183.159 83.3836 180.08 86.0688 Q177.024 88.7539 171.307 88.7539 Q165.589 88.7539 162.51 86.0688 Q159.455 83.3836 159.455 78.3605 Q159.455 75.0503 161.353 72.7587 Q163.251 70.467 166.631 69.68 M164.918 62.2957 Q164.918 64.9809 166.585 66.4855 Q168.274 67.9902 171.307 67.9902 Q174.316 67.9902 176.006 66.4855 Q177.719 64.9809 177.719 62.2957 Q177.719 59.6106 176.006 58.106 Q174.316 56.6013 171.307 56.6013 Q168.274 56.6013 166.585 58.106 Q164.918 59.6106 164.918 62.2957 Z" fill="#000000" fill-rule="evenodd" fill-opacity="1" /><path clip-path="url(#clip130)" d="M201.469 56.6013 Q197.858 56.6013 196.029 60.1661 Q194.223 63.7078 194.223 70.8374 Q194.223 77.9438 196.029 81.5086 Q197.858 85.0503 201.469 85.0503 Q205.103 85.0503 206.908 81.5086 Q208.737 77.9438 208.737 70.8374 Q208.737 63.7078 206.908 60.1661 Q205.103 56.6013 201.469 56.6013 M201.469 52.8976 Q207.279 52.8976 210.334 57.5041 Q213.413 62.0874 213.413 70.8374 Q213.413 79.5642 210.334 84.1706 Q207.279 88.7539 201.469 88.7539 Q195.658 88.7539 192.58 84.1706 Q189.524 79.5642 189.524 70.8374 Q189.524 62.0874 192.58 57.5041 Q195.658 52.8976 201.469 52.8976 Z" fill="#000000" fill-rule="evenodd" fill-opacity="1" /><path clip-path="url(#clip130)" d="M231.63 56.6013 Q228.019 56.6013 226.191 60.1661 Q224.385 63.7078 224.385 70.8374 Q224.385 77.9438 226.191 81.5086 Q228.019 85.0503 231.63 85.0503 Q235.265 85.0503 237.07 81.5086 Q238.899 77.9438 238.899 70.8374 Q238.899 63.7078 237.07 60.1661 Q235.265 56.6013 231.63 56.6013 M231.63 52.8976 Q237.441 52.8976 240.496 57.5041 Q243.575 62.0874 243.575 70.8374 Q243.575 79.5642 240.496 84.1706 Q237.441 88.7539 231.63 88.7539 Q225.82 88.7539 222.742 84.1706 Q219.686 79.5642 219.686 70.8374 Q219.686 62.0874 222.742 57.5041 Q225.82 52.8976 231.63 52.8976 Z" fill="#000000" fill-rule="evenodd" fill-opacity="1" /><path clip-path="url(#clip130)" d="M27.0408 1016.34 L32.579 1016.34 Q31.3059 1018.82 30.6693 1021.5 Q30.0327 1024.17 30.0327 1027.03 Q30.0327 1031.39 31.3695 1033.59 Q32.7063 1035.75 35.3799 1035.75 Q37.4169 1035.75 38.5946 1034.2 Q39.7404 1032.64 40.7908 1027.93 L41.2364 1025.92 Q42.5732 1019.68 45.0239 1017.07 Q47.4429 1014.43 51.8034 1014.43 Q56.7687 1014.43 59.6651 1018.38 Q62.5615 1022.29 62.5615 1029.17 Q62.5615 1032.03 61.9886 1035.15 Q61.4475 1038.24 60.3335 1041.68 L54.2861 1041.68 Q55.973 1038.43 56.8323 1035.28 Q57.6599 1032.13 57.6599 1029.04 Q57.6599 1024.9 56.2594 1022.67 Q54.8271 1020.45 52.249 1020.45 Q49.8619 1020.45 48.5887 1022.07 Q47.3156 1023.66 46.1379 1029.1 L45.6605 1031.14 Q44.5147 1036.58 42.1594 1039 Q39.7722 1041.42 35.6345 1041.42 Q30.6056 1041.42 27.8684 1037.86 Q25.1311 1034.29 25.1311 1027.73 Q25.1311 1024.49 25.6085 1021.62 Q26.086 1018.76 27.0408 1016.34 Z" fill="#000000" fill-rule="evenodd" fill-opacity="1" /><path clip-path="url(#clip130)" d="M15.869 999.311 L25.9905 999.311 L25.9905 987.248 L30.542 987.248 L30.542 999.311 L49.8937 999.311 Q54.2542 999.311 55.4955 998.134 Q56.7368 996.924 56.7368 993.264 L56.7368 987.248 L61.6384 987.248 L61.6384 993.264 Q61.6384 1000.04 59.124 1002.62 Q56.5777 1005.2 49.8937 1005.2 L30.542 1005.2 L30.542 1009.5 L25.9905 1009.5 L25.9905 1005.2 L15.869 1005.2 L15.869 999.311 Z" fill="#000000" fill-rule="evenodd" fill-opacity="1" /><path clip-path="url(#clip130)" d="M42.3504 949.054 L45.2149 949.054 L45.2149 975.981 Q51.2623 975.599 54.4452 972.353 Q57.5962 969.074 57.5962 963.25 Q57.5962 959.876 56.7687 956.725 Q55.9411 953.542 54.2861 950.423 L59.8242 950.423 Q61.161 953.574 61.8612 956.884 Q62.5615 960.194 62.5615 963.6 Q62.5615 972.13 57.5962 977.127 Q52.631 982.092 44.1646 982.092 Q35.4117 982.092 30.2873 977.381 Q25.1311 972.639 25.1311 964.618 Q25.1311 957.425 29.7781 953.255 Q34.3932 949.054 42.3504 949.054 M40.6316 954.911 Q35.8255 954.974 32.9609 957.616 Q30.0964 960.226 30.0964 964.555 Q30.0964 969.456 32.8654 972.416 Q35.6345 975.344 40.6634 975.79 L40.6316 954.911 Z" fill="#000000" fill-rule="evenodd" fill-opacity="1" /><path clip-path="url(#clip130)" d="M56.2912 933.776 L75.1974 933.776 L75.1974 939.665 L25.9905 939.665 L25.9905 933.776 L31.4013 933.776 Q28.2185 931.93 26.6907 929.129 Q25.1311 926.297 25.1311 922.382 Q25.1311 915.889 30.2873 911.847 Q35.4436 907.772 43.8463 907.772 Q52.249 907.772 57.4052 911.847 Q62.5615 915.889 62.5615 922.382 Q62.5615 926.297 61.0337 929.129 Q59.4741 931.93 56.2912 933.776 M43.8463 913.852 Q37.3851 913.852 33.7248 916.525 Q30.0327 919.167 30.0327 923.814 Q30.0327 928.461 33.7248 931.135 Q37.3851 933.776 43.8463 933.776 Q50.3075 933.776 53.9996 931.135 Q57.6599 928.461 57.6599 923.814 Q57.6599 919.167 53.9996 916.525 Q50.3075 913.852 43.8463 913.852 Z" fill="#000000" fill-rule="evenodd" fill-opacity="1" /><path clip-path="url(#clip130)" d="M15.869 871.552 L25.9905 871.552 L25.9905 859.489 L30.542 859.489 L30.542 871.552 L49.8937 871.552 Q54.2542 871.552 55.4955 870.374 Q56.7368 869.164 56.7368 865.504 L56.7368 859.489 L61.6384 859.489 L61.6384 865.504 Q61.6384 872.284 59.124 874.862 Q56.5777 877.44 49.8937 877.44 L30.542 877.44 L30.542 881.737 L25.9905 881.737 L25.9905 877.44 L15.869 877.44 L15.869 871.552 Z" fill="#000000" fill-rule="evenodd" fill-opacity="1" /><path clip-path="url(#clip130)" d="M25.9905 851.786 L25.9905 845.93 L61.6384 845.93 L61.6384 851.786 L25.9905 851.786 M12.1132 851.786 L12.1132 845.93 L19.5293 845.93 L19.5293 851.786 L12.1132 851.786 Z" fill="#000000" fill-rule="evenodd" fill-opacity="1" /><path clip-path="url(#clip130)" d="M32.8336 805.921 Q28.8869 803.725 27.009 800.669 Q25.1311 797.614 25.1311 793.476 Q25.1311 787.906 29.046 784.882 Q32.9291 781.859 40.1224 781.859 L61.6384 781.859 L61.6384 787.747 L40.3133 787.747 Q35.1889 787.747 32.7063 789.561 Q30.2237 791.376 30.2237 795.099 Q30.2237 799.651 33.2474 802.293 Q36.2711 804.934 41.491 804.934 L61.6384 804.934 L61.6384 810.823 L40.3133 810.823 Q35.1571 810.823 32.7063 812.637 Q30.2237 814.451 30.2237 818.239 Q30.2237 822.727 33.2792 825.368 Q36.3029 828.01 41.491 828.01 L61.6384 828.01 L61.6384 833.898 L25.9905 833.898 L25.9905 828.01 L31.5287 828.01 Q28.2503 826.005 26.6907 823.204 Q25.1311 820.403 25.1311 816.552 Q25.1311 812.669 27.1045 809.963 Q29.0779 807.226 32.8336 805.921 Z" fill="#000000" fill-rule="evenodd" fill-opacity="1" /><path clip-path="url(#clip130)" d="M42.3504 739.686 L45.2149 739.686 L45.2149 766.613 Q51.2623 766.231 54.4452 762.984 Q57.5962 759.706 57.5962 753.882 Q57.5962 750.508 56.7687 747.357 Q55.9411 744.174 54.2861 741.055 L59.8242 741.055 Q61.161 744.206 61.8612 747.516 Q62.5615 750.826 62.5615 754.232 Q62.5615 762.762 57.5962 767.759 Q52.631 772.724 44.1646 772.724 Q35.4117 772.724 30.2873 768.013 Q25.1311 763.271 25.1311 755.25 Q25.1311 748.057 29.7781 743.887 Q34.3932 739.686 42.3504 739.686 M40.6316 745.542 Q35.8255 745.606 32.9609 748.248 Q30.0964 750.858 30.0964 755.186 Q30.0964 760.088 32.8654 763.048 Q35.6345 765.976 40.6634 766.422 L40.6316 745.542 Z" fill="#000000" fill-rule="evenodd" fill-opacity="1" /><polyline clip-path="url(#clip132)" style="stroke:#009af9; stroke-linecap:round; stroke-linejoin:round; stroke-width:4; stroke-opacity:1; fill:none" points="350.598,849.033 509.421,851.097 668.093,869.467 826.389,915.735 983.849,1018.42 1139.53,1237.45 1291.55,1686.38 1450.51,833.818 1615.49,94.9858 1777.12,505.528 1937.32,682.841 2096.86,762.653 2256.09,800.619 2415.15,822.109 2574.05,841.176 "/>
</svg>
