<?xml version="1.0" encoding="utf-8"?>
<svg xmlns="http://www.w3.org/2000/svg" xmlns:xlink="http://www.w3.org/1999/xlink" width="672" height="480" viewBox="0 0 2688 1920">
<defs>
  <clipPath id="clip940">
    <rect x="0" y="0" width="2688" height="1920"/>
  </clipPath>
</defs>
<path clip-path="url(#clip940)" d="M0 1920 L2688 1920 L2688 0 L0 0  Z" fill="#ffffff" fill-rule="evenodd" fill-opacity="1"/>
<defs>
  <clipPath id="clip941">
    <rect x="537" y="0" width="1883" height="1883"/>
  </clipPath>
</defs>
<path clip-path="url(#clip940)" d="M256.302 498.559 L2640.76 498.559 L2640.76 47.2441 L256.302 47.2441  Z" fill="#ffffff" fill-rule="evenodd" fill-opacity="1"/>
<defs>
  <clipPath id="clip942">
    <rect x="256" y="47" width="2385" height="452"/>
  </clipPath>
</defs>
<polyline clip-path="url(#clip940)" style="stroke:#000000; stroke-linecap:round; stroke-linejoin:round; stroke-width:4; stroke-opacity:1; fill:none" points="256.302,498.559 2640.76,498.559 "/>
<polyline clip-path="url(#clip940)" style="stroke:#000000; stroke-linecap:round; stroke-linejoin:round; stroke-width:4; stroke-opacity:1; fill:none" points="323.787,498.559 323.787,479.661 "/>
<polyline clip-path="url(#clip940)" style="stroke:#000000; stroke-linecap:round; stroke-linejoin:round; stroke-width:4; stroke-opacity:1; fill:none" points="1073.62,498.559 1073.62,479.661 "/>
<polyline clip-path="url(#clip940)" style="stroke:#000000; stroke-linecap:round; stroke-linejoin:round; stroke-width:4; stroke-opacity:1; fill:none" points="1823.44,498.559 1823.44,479.661 "/>
<polyline clip-path="url(#clip940)" style="stroke:#000000; stroke-linecap:round; stroke-linejoin:round; stroke-width:4; stroke-opacity:1; fill:none" points="2573.27,498.559 2573.27,479.661 "/>
<path clip-path="url(#clip940)" d="M323.787 531.781 Q320.176 531.781 318.347 535.346 Q316.542 538.888 316.542 546.017 Q316.542 553.124 318.347 556.688 Q320.176 560.23 323.787 560.23 Q327.421 560.23 329.227 556.688 Q331.055 553.124 331.055 546.017 Q331.055 538.888 329.227 535.346 Q327.421 531.781 323.787 531.781 M323.787 528.078 Q329.597 528.078 332.653 532.684 Q335.731 537.267 335.731 546.017 Q335.731 554.744 332.653 559.351 Q329.597 563.934 323.787 563.934 Q317.977 563.934 314.898 559.351 Q311.843 554.744 311.843 546.017 Q311.843 537.267 314.898 532.684 Q317.977 528.078 323.787 528.078 Z" fill="#000000" fill-rule="evenodd" fill-opacity="1" /><path clip-path="url(#clip940)" d="M1063.89 528.703 L1082.25 528.703 L1082.25 532.638 L1068.18 532.638 L1068.18 541.11 Q1069.19 540.763 1070.21 540.601 Q1071.23 540.415 1072.25 540.415 Q1078.04 540.415 1081.42 543.587 Q1084.8 546.758 1084.8 552.175 Q1084.8 557.753 1081.32 560.855 Q1077.85 563.934 1071.53 563.934 Q1069.36 563.934 1067.09 563.563 Q1064.84 563.193 1062.43 562.452 L1062.43 557.753 Q1064.52 558.888 1066.74 559.443 Q1068.96 559.999 1071.44 559.999 Q1075.44 559.999 1077.78 557.892 Q1080.12 555.786 1080.12 552.175 Q1080.12 548.564 1077.78 546.457 Q1075.44 544.351 1071.44 544.351 Q1069.56 544.351 1067.69 544.767 Q1065.84 545.184 1063.89 546.064 L1063.89 528.703 Z" fill="#000000" fill-rule="evenodd" fill-opacity="1" /><path clip-path="url(#clip940)" d="M1798.13 559.327 L1805.77 559.327 L1805.77 532.962 L1797.46 534.628 L1797.46 530.369 L1805.72 528.703 L1810.4 528.703 L1810.4 559.327 L1818.04 559.327 L1818.04 563.263 L1798.13 563.263 L1798.13 559.327 Z" fill="#000000" fill-rule="evenodd" fill-opacity="1" /><path clip-path="url(#clip940)" d="M1837.48 531.781 Q1833.87 531.781 1832.04 535.346 Q1830.24 538.888 1830.24 546.017 Q1830.24 553.124 1832.04 556.688 Q1833.87 560.23 1837.48 560.23 Q1841.12 560.23 1842.92 556.688 Q1844.75 553.124 1844.75 546.017 Q1844.75 538.888 1842.92 535.346 Q1841.12 531.781 1837.48 531.781 M1837.48 528.078 Q1843.29 528.078 1846.35 532.684 Q1849.43 537.267 1849.43 546.017 Q1849.43 554.744 1846.35 559.351 Q1843.29 563.934 1837.48 563.934 Q1831.67 563.934 1828.59 559.351 Q1825.54 554.744 1825.54 546.017 Q1825.54 537.267 1828.59 532.684 Q1831.67 528.078 1837.48 528.078 Z" fill="#000000" fill-rule="evenodd" fill-opacity="1" /><path clip-path="url(#clip940)" d="M2548.46 559.327 L2556.1 559.327 L2556.1 532.962 L2547.79 534.628 L2547.79 530.369 L2556.05 528.703 L2560.73 528.703 L2560.73 559.327 L2568.36 559.327 L2568.36 563.263 L2548.46 563.263 L2548.46 559.327 Z" fill="#000000" fill-rule="evenodd" fill-opacity="1" /><path clip-path="url(#clip940)" d="M2577.85 528.703 L2596.21 528.703 L2596.21 532.638 L2582.14 532.638 L2582.14 541.11 Q2583.16 540.763 2584.17 540.601 Q2585.19 540.415 2586.21 540.415 Q2592 540.415 2595.38 543.587 Q2598.76 546.758 2598.76 552.175 Q2598.76 557.753 2595.29 560.855 Q2591.81 563.934 2585.49 563.934 Q2583.32 563.934 2581.05 563.563 Q2578.8 563.193 2576.4 562.452 L2576.4 557.753 Q2578.48 558.888 2580.7 559.443 Q2582.92 559.999 2585.4 559.999 Q2589.41 559.999 2591.74 557.892 Q2594.08 555.786 2594.08 552.175 Q2594.08 548.564 2591.74 546.457 Q2589.41 544.351 2585.4 544.351 Q2583.53 544.351 2581.65 544.767 Q2579.8 545.184 2577.85 546.064 L2577.85 528.703 Z" fill="#000000" fill-rule="evenodd" fill-opacity="1" /><polyline clip-path="url(#clip940)" style="stroke:#000000; stroke-linecap:round; stroke-linejoin:round; stroke-width:4; stroke-opacity:1; fill:none" points="256.302,498.559 256.302,47.2441 "/>
<polyline clip-path="url(#clip940)" style="stroke:#000000; stroke-linecap:round; stroke-linejoin:round; stroke-width:4; stroke-opacity:1; fill:none" points="256.302,498.559 275.2,498.559 "/>
<polyline clip-path="url(#clip940)" style="stroke:#000000; stroke-linecap:round; stroke-linejoin:round; stroke-width:4; stroke-opacity:1; fill:none" points="256.302,410.107 275.2,410.107 "/>
<polyline clip-path="url(#clip940)" style="stroke:#000000; stroke-linecap:round; stroke-linejoin:round; stroke-width:4; stroke-opacity:1; fill:none" points="256.302,321.655 275.2,321.655 "/>
<polyline clip-path="url(#clip940)" style="stroke:#000000; stroke-linecap:round; stroke-linejoin:round; stroke-width:4; stroke-opacity:1; fill:none" points="256.302,233.204 275.2,233.204 "/>
<polyline clip-path="url(#clip940)" style="stroke:#000000; stroke-linecap:round; stroke-linejoin:round; stroke-width:4; stroke-opacity:1; fill:none" points="256.302,144.752 275.2,144.752 "/>
<polyline clip-path="url(#clip940)" style="stroke:#000000; stroke-linecap:round; stroke-linejoin:round; stroke-width:4; stroke-opacity:1; fill:none" points="256.302,56.3007 275.2,56.3007 "/>
<path clip-path="url(#clip940)" d="M158.807 484.357 Q155.196 484.357 153.367 487.922 Q151.561 491.464 151.561 498.593 Q151.561 505.7 153.367 509.264 Q155.196 512.806 158.807 512.806 Q162.441 512.806 164.247 509.264 Q166.075 505.7 166.075 498.593 Q166.075 491.464 164.247 487.922 Q162.441 484.357 158.807 484.357 M158.807 480.654 Q164.617 480.654 167.673 485.26 Q170.751 489.843 170.751 498.593 Q170.751 507.32 167.673 511.927 Q164.617 516.51 158.807 516.51 Q152.997 516.51 149.918 511.927 Q146.862 507.32 146.862 498.593 Q146.862 489.843 149.918 485.26 Q152.997 480.654 158.807 480.654 Z" fill="#000000" fill-rule="evenodd" fill-opacity="1" /><path clip-path="url(#clip940)" d="M178.969 509.959 L183.853 509.959 L183.853 515.839 L178.969 515.839 L178.969 509.959 Z" fill="#000000" fill-rule="evenodd" fill-opacity="1" /><path clip-path="url(#clip940)" d="M204.038 484.357 Q200.427 484.357 198.598 487.922 Q196.793 491.464 196.793 498.593 Q196.793 505.7 198.598 509.264 Q200.427 512.806 204.038 512.806 Q207.672 512.806 209.478 509.264 Q211.307 505.7 211.307 498.593 Q211.307 491.464 209.478 487.922 Q207.672 484.357 204.038 484.357 M204.038 480.654 Q209.848 480.654 212.904 485.26 Q215.982 489.843 215.982 498.593 Q215.982 507.32 212.904 511.927 Q209.848 516.51 204.038 516.51 Q198.228 516.51 195.149 511.927 Q192.094 507.32 192.094 498.593 Q192.094 489.843 195.149 485.26 Q198.228 480.654 204.038 480.654 Z" fill="#000000" fill-rule="evenodd" fill-opacity="1" /><path clip-path="url(#clip940)" d="M160.034 395.906 Q156.423 395.906 154.594 399.47 Q152.788 403.012 152.788 410.142 Q152.788 417.248 154.594 420.813 Q156.423 424.355 160.034 424.355 Q163.668 424.355 165.473 420.813 Q167.302 417.248 167.302 410.142 Q167.302 403.012 165.473 399.47 Q163.668 395.906 160.034 395.906 M160.034 392.202 Q165.844 392.202 168.899 396.808 Q171.978 401.392 171.978 410.142 Q171.978 418.868 168.899 423.475 Q165.844 428.058 160.034 428.058 Q154.223 428.058 151.145 423.475 Q148.089 418.868 148.089 410.142 Q148.089 401.392 151.145 396.808 Q154.223 392.202 160.034 392.202 Z" fill="#000000" fill-rule="evenodd" fill-opacity="1" /><path clip-path="url(#clip940)" d="M180.196 421.507 L185.08 421.507 L185.08 427.387 L180.196 427.387 L180.196 421.507 Z" fill="#000000" fill-rule="evenodd" fill-opacity="1" /><path clip-path="url(#clip940)" d="M196.075 423.452 L203.714 423.452 L203.714 397.086 L195.404 398.753 L195.404 394.494 L203.668 392.827 L208.344 392.827 L208.344 423.452 L215.982 423.452 L215.982 427.387 L196.075 427.387 L196.075 423.452 Z" fill="#000000" fill-rule="evenodd" fill-opacity="1" /><path clip-path="url(#clip940)" d="M160.404 307.454 Q156.793 307.454 154.964 311.019 Q153.159 314.561 153.159 321.69 Q153.159 328.797 154.964 332.361 Q156.793 335.903 160.404 335.903 Q164.038 335.903 165.844 332.361 Q167.673 328.797 167.673 321.69 Q167.673 314.561 165.844 311.019 Q164.038 307.454 160.404 307.454 M160.404 303.75 Q166.214 303.75 169.27 308.357 Q172.348 312.94 172.348 321.69 Q172.348 330.417 169.27 335.023 Q166.214 339.607 160.404 339.607 Q154.594 339.607 151.515 335.023 Q148.46 330.417 148.46 321.69 Q148.46 312.94 151.515 308.357 Q154.594 303.75 160.404 303.75 Z" fill="#000000" fill-rule="evenodd" fill-opacity="1" /><path clip-path="url(#clip940)" d="M180.566 333.056 L185.45 333.056 L185.45 338.935 L180.566 338.935 L180.566 333.056 Z" fill="#000000" fill-rule="evenodd" fill-opacity="1" /><path clip-path="url(#clip940)" d="M199.663 335 L215.982 335 L215.982 338.935 L194.038 338.935 L194.038 335 Q196.7 332.246 201.283 327.616 Q205.89 322.963 207.07 321.621 Q209.316 319.098 210.195 317.361 Q211.098 315.602 211.098 313.912 Q211.098 311.158 209.154 309.422 Q207.232 307.686 204.131 307.686 Q201.932 307.686 199.478 308.449 Q197.047 309.213 194.27 310.764 L194.27 306.042 Q197.094 304.908 199.547 304.329 Q202.001 303.75 204.038 303.75 Q209.408 303.75 212.603 306.436 Q215.797 309.121 215.797 313.611 Q215.797 315.741 214.987 317.662 Q214.2 319.56 212.094 322.153 Q211.515 322.824 208.413 326.042 Q205.311 329.236 199.663 335 Z" fill="#000000" fill-rule="evenodd" fill-opacity="1" /><path clip-path="url(#clip940)" d="M159.455 219.002 Q155.844 219.002 154.015 222.567 Q152.21 226.109 152.21 233.239 Q152.21 240.345 154.015 243.91 Q155.844 247.451 159.455 247.451 Q163.089 247.451 164.895 243.91 Q166.723 240.345 166.723 233.239 Q166.723 226.109 164.895 222.567 Q163.089 219.002 159.455 219.002 M159.455 215.299 Q165.265 215.299 168.321 219.905 Q171.399 224.489 171.399 233.239 Q171.399 241.965 168.321 246.572 Q165.265 251.155 159.455 251.155 Q153.645 251.155 150.566 246.572 Q147.511 241.965 147.511 233.239 Q147.511 224.489 150.566 219.905 Q153.645 215.299 159.455 215.299 Z" fill="#000000" fill-rule="evenodd" fill-opacity="1" /><path clip-path="url(#clip940)" d="M179.617 244.604 L184.501 244.604 L184.501 250.484 L179.617 250.484 L179.617 244.604 Z" fill="#000000" fill-rule="evenodd" fill-opacity="1" /><path clip-path="url(#clip940)" d="M208.853 231.85 Q212.209 232.567 214.084 234.836 Q215.982 237.104 215.982 240.438 Q215.982 245.553 212.464 248.354 Q208.945 251.155 202.464 251.155 Q200.288 251.155 197.973 250.715 Q195.682 250.299 193.228 249.442 L193.228 244.928 Q195.172 246.063 197.487 246.641 Q199.802 247.22 202.325 247.22 Q206.723 247.22 209.015 245.484 Q211.33 243.748 211.33 240.438 Q211.33 237.382 209.177 235.669 Q207.047 233.933 203.228 233.933 L199.2 233.933 L199.2 230.09 L203.413 230.09 Q206.862 230.09 208.691 228.725 Q210.519 227.336 210.519 224.743 Q210.519 222.081 208.621 220.669 Q206.746 219.234 203.228 219.234 Q201.307 219.234 199.108 219.651 Q196.908 220.067 194.27 220.947 L194.27 216.78 Q196.932 216.04 199.246 215.669 Q201.584 215.299 203.645 215.299 Q208.969 215.299 212.07 217.729 Q215.172 220.137 215.172 224.257 Q215.172 227.127 213.529 229.118 Q211.885 231.086 208.853 231.85 Z" fill="#000000" fill-rule="evenodd" fill-opacity="1" /><path clip-path="url(#clip940)" d="M158.321 130.551 Q154.71 130.551 152.881 134.116 Q151.075 137.657 151.075 144.787 Q151.075 151.893 152.881 155.458 Q154.71 159 158.321 159 Q161.955 159 163.76 155.458 Q165.589 151.893 165.589 144.787 Q165.589 137.657 163.76 134.116 Q161.955 130.551 158.321 130.551 M158.321 126.847 Q164.131 126.847 167.186 131.454 Q170.265 136.037 170.265 144.787 Q170.265 153.514 167.186 158.12 Q164.131 162.704 158.321 162.704 Q152.511 162.704 149.432 158.12 Q146.376 153.514 146.376 144.787 Q146.376 136.037 149.432 131.454 Q152.511 126.847 158.321 126.847 Z" fill="#000000" fill-rule="evenodd" fill-opacity="1" /><path clip-path="url(#clip940)" d="M178.483 156.153 L183.367 156.153 L183.367 162.032 L178.483 162.032 L178.483 156.153 Z" fill="#000000" fill-rule="evenodd" fill-opacity="1" /><path clip-path="url(#clip940)" d="M206.399 131.546 L194.594 149.995 L206.399 149.995 L206.399 131.546 M205.172 127.472 L211.052 127.472 L211.052 149.995 L215.982 149.995 L215.982 153.884 L211.052 153.884 L211.052 162.032 L206.399 162.032 L206.399 153.884 L190.797 153.884 L190.797 149.37 L205.172 127.472 Z" fill="#000000" fill-rule="evenodd" fill-opacity="1" /><path clip-path="url(#clip940)" d="M159.802 42.0994 Q156.191 42.0994 154.362 45.6642 Q152.557 49.2058 152.557 56.3354 Q152.557 63.4418 154.362 67.0066 Q156.191 70.5483 159.802 70.5483 Q163.436 70.5483 165.242 67.0066 Q167.071 63.4418 167.071 56.3354 Q167.071 49.2058 165.242 45.6642 Q163.436 42.0994 159.802 42.0994 M159.802 38.3957 Q165.612 38.3957 168.668 43.0021 Q171.747 47.5854 171.747 56.3354 Q171.747 65.0622 168.668 69.6687 Q165.612 74.252 159.802 74.252 Q153.992 74.252 150.913 69.6687 Q147.858 65.0622 147.858 56.3354 Q147.858 47.5854 150.913 43.0021 Q153.992 38.3957 159.802 38.3957 Z" fill="#000000" fill-rule="evenodd" fill-opacity="1" /><path clip-path="url(#clip940)" d="M179.964 67.7011 L184.848 67.7011 L184.848 73.5807 L179.964 73.5807 L179.964 67.7011 Z" fill="#000000" fill-rule="evenodd" fill-opacity="1" /><path clip-path="url(#clip940)" d="M195.08 39.0207 L213.436 39.0207 L213.436 42.9558 L199.362 42.9558 L199.362 51.428 Q200.381 51.0808 201.399 50.9188 Q202.418 50.7336 203.436 50.7336 Q209.223 50.7336 212.603 53.9048 Q215.982 57.0761 215.982 62.4928 Q215.982 68.0714 212.51 71.1733 Q209.038 74.252 202.719 74.252 Q200.543 74.252 198.274 73.8816 Q196.029 73.5112 193.621 72.7705 L193.621 68.0714 Q195.705 69.2057 197.927 69.7612 Q200.149 70.3168 202.626 70.3168 Q206.631 70.3168 208.969 68.2103 Q211.307 66.1039 211.307 62.4928 Q211.307 58.8817 208.969 56.7752 Q206.631 54.6687 202.626 54.6687 Q200.751 54.6687 198.876 55.0854 Q197.024 55.5021 195.08 56.3817 L195.08 39.0207 Z" fill="#000000" fill-rule="evenodd" fill-opacity="1" /><path clip-path="url(#clip940)" d="M91.8003 455.279 L44.2803 473.421 L44.2803 466.705 L84.2888 451.65 L44.2803 436.564 L44.2803 429.88 L91.8003 447.99 L91.8003 455.279 Z" fill="#000000" fill-rule="evenodd" fill-opacity="1" /><path clip-path="url(#clip940)" d="M62.9955 374.721 Q59.0488 372.525 57.1709 369.469 Q55.293 366.414 55.293 362.276 Q55.293 356.706 59.2079 353.682 Q63.091 350.658 70.2842 350.658 L91.8003 350.658 L91.8003 356.547 L70.4752 356.547 Q65.3508 356.547 62.8682 358.361 Q60.3856 360.175 60.3856 363.899 Q60.3856 368.451 63.4093 371.092 Q66.433 373.734 71.6529 373.734 L91.8003 373.734 L91.8003 379.622 L70.4752 379.622 Q65.319 379.622 62.8682 381.437 Q60.3856 383.251 60.3856 387.038 Q60.3856 391.526 63.4411 394.168 Q66.4648 396.81 71.6529 396.81 L91.8003 396.81 L91.8003 402.698 L56.1524 402.698 L56.1524 396.81 L61.6905 396.81 Q58.4122 394.805 56.8526 392.004 Q55.293 389.203 55.293 385.352 Q55.293 381.468 57.2664 378.763 Q59.2397 376.026 62.9955 374.721 Z" fill="#000000" fill-rule="evenodd" fill-opacity="1" /><path clip-path="url(#clip940)" d="M56.1524 338.977 L56.1524 333.121 L91.8003 333.121 L91.8003 338.977 L56.1524 338.977 M42.2751 338.977 L42.2751 333.121 L49.6912 333.121 L49.6912 338.977 L42.2751 338.977 Z" fill="#000000" fill-rule="evenodd" fill-opacity="1" /><path clip-path="url(#clip940)" d="M61.5632 297.409 L42.2751 297.409 L42.2751 291.553 L91.8003 291.553 L91.8003 297.409 L86.4531 297.409 Q89.636 299.255 91.1956 302.088 Q92.7233 304.889 92.7233 308.836 Q92.7233 315.297 87.5671 319.371 Q82.4109 323.413 74.0082 323.413 Q65.6054 323.413 60.4492 319.371 Q55.293 315.297 55.293 308.836 Q55.293 304.889 56.8526 302.088 Q58.3804 299.255 61.5632 297.409 M74.0082 317.366 Q80.4694 317.366 84.1615 314.724 Q87.8218 312.05 87.8218 307.403 Q87.8218 302.756 84.1615 300.083 Q80.4694 297.409 74.0082 297.409 Q67.547 297.409 63.8867 300.083 Q60.1946 302.756 60.1946 307.403 Q60.1946 312.05 63.8867 314.724 Q67.547 317.366 74.0082 317.366 Z" fill="#000000" fill-rule="evenodd" fill-opacity="1" /><path clip-path="url(#clip940)" d="M57.2027 256.764 L62.7409 256.764 Q61.4677 259.247 60.8312 261.92 Q60.1946 264.594 60.1946 267.459 Q60.1946 271.819 61.5314 274.015 Q62.8682 276.18 65.5418 276.18 Q67.5788 276.18 68.7565 274.62 Q69.9023 273.06 70.9526 268.35 L71.3982 266.345 Q72.735 260.106 75.1858 257.496 Q77.6048 254.855 81.9653 254.855 Q86.9306 254.855 89.8269 258.801 Q92.7233 262.716 92.7233 269.591 Q92.7233 272.456 92.1504 275.575 Q91.6093 278.662 90.4953 282.1 L84.4479 282.1 Q86.1348 278.853 86.9942 275.702 Q87.8218 272.551 87.8218 269.464 Q87.8218 265.326 86.4213 263.098 Q84.989 260.87 82.4109 260.87 Q80.0238 260.87 78.7506 262.493 Q77.4775 264.085 76.2998 269.527 L75.8224 271.565 Q74.6766 277.007 72.3213 279.426 Q69.9341 281.845 65.7964 281.845 Q60.7675 281.845 58.0302 278.28 Q55.293 274.716 55.293 268.159 Q55.293 264.912 55.7704 262.048 Q56.2478 259.183 57.2027 256.764 Z" fill="#000000" fill-rule="evenodd" fill-opacity="1" /><path clip-path="url(#clip940)" d="M46.0309 239.736 L56.1524 239.736 L56.1524 227.673 L60.7038 227.673 L60.7038 239.736 L80.0556 239.736 Q84.4161 239.736 85.6574 238.558 Q86.8987 237.349 86.8987 233.689 L86.8987 227.673 L91.8003 227.673 L91.8003 233.689 Q91.8003 240.468 89.2859 243.046 Q86.7396 245.624 80.0556 245.624 L60.7038 245.624 L60.7038 249.921 L56.1524 249.921 L56.1524 245.624 L46.0309 245.624 L46.0309 239.736 Z" fill="#000000" fill-rule="evenodd" fill-opacity="1" /><path clip-path="url(#clip940)" d="M73.8809 203.77 Q73.8809 210.868 75.5041 213.605 Q77.1274 216.342 81.0423 216.342 Q84.1615 216.342 86.0075 214.305 Q87.8218 212.236 87.8218 208.703 Q87.8218 203.833 84.3843 200.905 Q80.915 197.945 75.1858 197.945 L73.8809 197.945 L73.8809 203.77 M71.4619 192.089 L91.8003 192.089 L91.8003 197.945 L86.3895 197.945 Q89.636 199.95 91.1956 202.942 Q92.7233 205.934 92.7233 210.263 Q92.7233 215.737 89.6678 218.984 Q86.5804 222.198 81.4242 222.198 Q75.4086 222.198 72.3531 218.188 Q69.2975 214.146 69.2975 206.157 L69.2975 197.945 L68.7246 197.945 Q64.6824 197.945 62.4862 200.619 Q60.2582 203.26 60.2582 208.067 Q60.2582 211.122 60.9903 214.019 Q61.7224 216.915 63.1865 219.589 L57.7756 219.589 Q56.5343 216.374 55.9296 213.35 Q55.293 210.326 55.293 207.462 Q55.293 199.728 59.3034 195.908 Q63.3138 192.089 71.4619 192.089 Z" fill="#000000" fill-rule="evenodd" fill-opacity="1" /><path clip-path="url(#clip940)" d="M70.2842 150.393 L91.8003 150.393 L91.8003 156.25 L70.4752 156.25 Q65.4145 156.25 62.9 158.223 Q60.3856 160.196 60.3856 164.143 Q60.3856 168.886 63.4093 171.623 Q66.433 174.36 71.6529 174.36 L91.8003 174.36 L91.8003 180.248 L56.1524 180.248 L56.1524 174.36 L61.6905 174.36 Q58.4758 172.259 56.8844 169.427 Q55.293 166.562 55.293 162.838 Q55.293 156.695 59.1124 153.544 Q62.9 150.393 70.2842 150.393 Z" fill="#000000" fill-rule="evenodd" fill-opacity="1" /><path clip-path="url(#clip940)" d="M57.521 113.058 L62.9955 113.058 Q61.6269 115.541 60.9585 118.055 Q60.2582 120.538 60.2582 123.084 Q60.2582 128.782 63.8867 131.933 Q67.4833 135.084 74.0082 135.084 Q80.533 135.084 84.1615 131.933 Q87.7581 128.782 87.7581 123.084 Q87.7581 120.538 87.0897 118.055 Q86.3895 115.541 85.0208 113.058 L90.4317 113.058 Q91.5775 115.509 92.1504 118.151 Q92.7233 120.761 92.7233 123.721 Q92.7233 131.774 87.6626 136.516 Q82.6019 141.258 74.0082 141.258 Q65.2872 141.258 60.2901 136.484 Q55.293 131.678 55.293 123.339 Q55.293 120.634 55.8659 118.055 Q56.407 115.477 57.521 113.058 Z" fill="#000000" fill-rule="evenodd" fill-opacity="1" /><path clip-path="url(#clip940)" d="M72.5122 72.3816 L75.3768 72.3816 L75.3768 99.3085 Q81.4242 98.9266 84.6071 95.68 Q87.7581 92.4017 87.7581 86.5771 Q87.7581 83.2033 86.9306 80.0522 Q86.103 76.8694 84.4479 73.7502 L89.9861 73.7502 Q91.3229 76.9012 92.0231 80.2114 Q92.7233 83.5215 92.7233 86.9272 Q92.7233 95.4572 87.7581 100.454 Q82.7928 105.42 74.3265 105.42 Q65.5736 105.42 60.4492 100.709 Q55.293 95.9665 55.293 87.9457 Q55.293 80.7525 59.94 76.5829 Q64.5551 72.3816 72.5122 72.3816 M70.7935 78.238 Q65.9874 78.3017 63.1228 80.9434 Q60.2582 83.5534 60.2582 87.882 Q60.2582 92.7836 63.0273 95.7437 Q65.7964 98.6719 70.8253 99.1175 L70.7935 78.238 Z" fill="#000000" fill-rule="evenodd" fill-opacity="1" /><polyline clip-path="url(#clip942)" style="stroke:#009af9; stroke-linecap:round; stroke-linejoin:round; stroke-width:4; stroke-opacity:1; fill:none" points="323.787,108.226 473.753,108.226 623.718,108.226 773.684,108.226 923.649,108.226 1073.62,108.226 1223.58,108.226 1373.55,272.584 1523.51,125.812 1673.48,76.1062 1823.44,55.7902 1973.41,48.0241 2123.37,47.2441 2273.34,52.9136 2423.31,69.0237 2573.27,108.226 2573.27,108.226 "/>
<circle clip-path="url(#clip942)" cx="323.787" cy="108.226" r="14.4" fill="#009af9" fill-rule="evenodd" fill-opacity="1" stroke="#000000" stroke-opacity="1" stroke-width="3.84"/>
<circle clip-path="url(#clip942)" cx="473.753" cy="108.226" r="14.4" fill="#009af9" fill-rule="evenodd" fill-opacity="1" stroke="#000000" stroke-opacity="1" stroke-width="3.84"/>
<circle clip-path="url(#clip942)" cx="623.718" cy="108.226" r="14.4" fill="#009af9" fill-rule="evenodd" fill-opacity="1" stroke="#000000" stroke-opacity="1" stroke-width="3.84"/>
<circle clip-path="url(#clip942)" cx="773.684" cy="108.226" r="14.4" fill="#009af9" fill-rule="evenodd" fill-opacity="1" stroke="#000000" stroke-opacity="1" stroke-width="3.84"/>
<circle clip-path="url(#clip942)" cx="923.649" cy="108.226" r="14.4" fill="#009af9" fill-rule="evenodd" fill-opacity="1" stroke="#000000" stroke-opacity="1" stroke-width="3.84"/>
<circle clip-path="url(#clip942)" cx="1073.62" cy="108.226" r="14.4" fill="#009af9" fill-rule="evenodd" fill-opacity="1" stroke="#000000" stroke-opacity="1" stroke-width="3.84"/>
<circle clip-path="url(#clip942)" cx="1223.58" cy="108.226" r="14.4" fill="#009af9" fill-rule="evenodd" fill-opacity="1" stroke="#000000" stroke-opacity="1" stroke-width="3.84"/>
<circle clip-path="url(#clip942)" cx="1373.55" cy="272.584" r="14.4" fill="#009af9" fill-rule="evenodd" fill-opacity="1" stroke="#000000" stroke-opacity="1" stroke-width="3.84"/>
<circle clip-path="url(#clip942)" cx="1523.51" cy="125.812" r="14.4" fill="#009af9" fill-rule="evenodd" fill-opacity="1" stroke="#000000" stroke-opacity="1" stroke-width="3.84"/>
<circle clip-path="url(#clip942)" cx="1673.48" cy="76.1062" r="14.4" fill="#009af9" fill-rule="evenodd" fill-opacity="1" stroke="#000000" stroke-opacity="1" stroke-width="3.84"/>
<circle clip-path="url(#clip942)" cx="1823.44" cy="55.7902" r="14.4" fill="#009af9" fill-rule="evenodd" fill-opacity="1" stroke="#000000" stroke-opacity="1" stroke-width="3.84"/>
<circle clip-path="url(#clip942)" cx="1973.41" cy="48.0241" r="14.4" fill="#009af9" fill-rule="evenodd" fill-opacity="1" stroke="#000000" stroke-opacity="1" stroke-width="3.84"/>
<circle clip-path="url(#clip942)" cx="2123.37" cy="47.2441" r="14.4" fill="#009af9" fill-rule="evenodd" fill-opacity="1" stroke="#000000" stroke-opacity="1" stroke-width="3.84"/>
<circle clip-path="url(#clip942)" cx="2273.34" cy="52.9136" r="14.4" fill="#009af9" fill-rule="evenodd" fill-opacity="1" stroke="#000000" stroke-opacity="1" stroke-width="3.84"/>
<circle clip-path="url(#clip942)" cx="2423.31" cy="69.0237" r="14.4" fill="#009af9" fill-rule="evenodd" fill-opacity="1" stroke="#000000" stroke-opacity="1" stroke-width="3.84"/>
<circle clip-path="url(#clip942)" cx="2573.27" cy="108.226" r="14.4" fill="#009af9" fill-rule="evenodd" fill-opacity="1" stroke="#000000" stroke-opacity="1" stroke-width="3.84"/>
<circle clip-path="url(#clip942)" cx="2573.27" cy="108.226" r="14.4" fill="#009af9" fill-rule="evenodd" fill-opacity="1" stroke="#000000" stroke-opacity="1" stroke-width="3.84"/>
<path clip-path="url(#clip940)" d="M2270.4 483.515 L2561.27 483.515 L2561.27 379.835 L2270.4 379.835  Z" fill="#ffffff" fill-rule="evenodd" fill-opacity="1"/>
<polyline clip-path="url(#clip940)" style="stroke:#000000; stroke-linecap:round; stroke-linejoin:round; stroke-width:4; stroke-opacity:1; fill:none" points="2270.4,483.515 2561.27,483.515 2561.27,379.835 2270.4,379.835 2270.4,483.515 "/>
<polyline clip-path="url(#clip940)" style="stroke:#009af9; stroke-linecap:round; stroke-linejoin:round; stroke-width:4; stroke-opacity:1; fill:none" points="2296.89,431.675 2455.86,431.675 "/>
<circle clip-path="url(#clip940)" cx="2376.37" cy="431.675" r="22.0783" fill="#009af9" fill-rule="evenodd" fill-opacity="1" stroke="#000000" stroke-opacity="1" stroke-width="6.144"/>
<path clip-path="url(#clip940)" d="M2496.19 451.362 Q2494.39 455.992 2492.67 457.404 Q2490.96 458.816 2488.09 458.816 L2484.69 458.816 L2484.69 455.251 L2487.19 455.251 Q2488.95 455.251 2489.92 454.418 Q2490.89 453.584 2492.07 450.482 L2492.84 448.538 L2482.35 423.029 L2486.86 423.029 L2494.97 443.307 L2503.07 423.029 L2507.58 423.029 L2496.19 451.362 Z" fill="#000000" fill-rule="evenodd" fill-opacity="1" /><path clip-path="url(#clip940)" d="M2514.87 445.02 L2522.51 445.02 L2522.51 418.654 L2514.2 420.321 L2514.2 416.061 L2522.47 414.395 L2527.14 414.395 L2527.14 445.02 L2534.78 445.02 L2534.78 448.955 L2514.87 448.955 L2514.87 445.02 Z" fill="#000000" fill-rule="evenodd" fill-opacity="1" /><path clip-path="url(#clip940)" d="M256.302 1116.34 L2640.76 1116.34 L2640.76 665.023 L256.302 665.023  Z" fill="#ffffff" fill-rule="evenodd" fill-opacity="1"/>
<defs>
  <clipPath id="clip943">
    <rect x="256" y="665" width="2385" height="452"/>
  </clipPath>
</defs>
<polyline clip-path="url(#clip940)" style="stroke:#000000; stroke-linecap:round; stroke-linejoin:round; stroke-width:4; stroke-opacity:1; fill:none" points="256.302,1116.34 2640.76,1116.34 "/>
<polyline clip-path="url(#clip940)" style="stroke:#000000; stroke-linecap:round; stroke-linejoin:round; stroke-width:4; stroke-opacity:1; fill:none" points="484.464,1116.34 484.464,1097.44 "/>
<polyline clip-path="url(#clip940)" style="stroke:#000000; stroke-linecap:round; stroke-linejoin:round; stroke-width:4; stroke-opacity:1; fill:none" points="805.819,1116.34 805.819,1097.44 "/>
<polyline clip-path="url(#clip940)" style="stroke:#000000; stroke-linecap:round; stroke-linejoin:round; stroke-width:4; stroke-opacity:1; fill:none" points="1127.17,1116.34 1127.17,1097.44 "/>
<polyline clip-path="url(#clip940)" style="stroke:#000000; stroke-linecap:round; stroke-linejoin:round; stroke-width:4; stroke-opacity:1; fill:none" points="1448.53,1116.34 1448.53,1097.44 "/>
<polyline clip-path="url(#clip940)" style="stroke:#000000; stroke-linecap:round; stroke-linejoin:round; stroke-width:4; stroke-opacity:1; fill:none" points="1769.88,1116.34 1769.88,1097.44 "/>
<polyline clip-path="url(#clip940)" style="stroke:#000000; stroke-linecap:round; stroke-linejoin:round; stroke-width:4; stroke-opacity:1; fill:none" points="2091.24,1116.34 2091.24,1097.44 "/>
<polyline clip-path="url(#clip940)" style="stroke:#000000; stroke-linecap:round; stroke-linejoin:round; stroke-width:4; stroke-opacity:1; fill:none" points="2412.59,1116.34 2412.59,1097.44 "/>
<path clip-path="url(#clip940)" d="M479.117 1177.11 L495.437 1177.11 L495.437 1181.04 L473.492 1181.04 L473.492 1177.11 Q476.154 1174.35 480.738 1169.72 Q485.344 1165.07 486.525 1163.73 Q488.77 1161.2 489.65 1159.47 Q490.552 1157.71 490.552 1156.02 Q490.552 1153.26 488.608 1151.53 Q486.687 1149.79 483.585 1149.79 Q481.386 1149.79 478.932 1150.56 Q476.501 1151.32 473.724 1152.87 L473.724 1148.15 Q476.548 1147.01 479.001 1146.44 Q481.455 1145.86 483.492 1145.86 Q488.863 1145.86 492.057 1148.54 Q495.251 1151.23 495.251 1155.72 Q495.251 1157.85 494.441 1159.77 Q493.654 1161.67 491.548 1164.26 Q490.969 1164.93 487.867 1168.15 Q484.765 1171.34 479.117 1177.11 Z" fill="#000000" fill-rule="evenodd" fill-opacity="1" /><path clip-path="url(#clip940)" d="M808.829 1150.56 L797.023 1169 L808.829 1169 L808.829 1150.56 M807.602 1146.48 L813.481 1146.48 L813.481 1169 L818.412 1169 L818.412 1172.89 L813.481 1172.89 L813.481 1181.04 L808.829 1181.04 L808.829 1172.89 L793.227 1172.89 L793.227 1168.38 L807.602 1146.48 Z" fill="#000000" fill-rule="evenodd" fill-opacity="1" /><path clip-path="url(#clip940)" d="M1127.58 1161.9 Q1124.43 1161.9 1122.58 1164.05 Q1120.75 1166.2 1120.75 1169.95 Q1120.75 1173.68 1122.58 1175.86 Q1124.43 1178.01 1127.58 1178.01 Q1130.73 1178.01 1132.56 1175.86 Q1134.41 1173.68 1134.41 1169.95 Q1134.41 1166.2 1132.56 1164.05 Q1130.73 1161.9 1127.58 1161.9 M1136.86 1147.25 L1136.86 1151.5 Q1135.1 1150.67 1133.3 1150.23 Q1131.51 1149.79 1129.76 1149.79 Q1125.13 1149.79 1122.67 1152.92 Q1120.24 1156.04 1119.89 1162.36 Q1121.26 1160.35 1123.32 1159.28 Q1125.38 1158.19 1127.86 1158.19 Q1133.07 1158.19 1136.07 1161.37 Q1139.11 1164.51 1139.11 1169.95 Q1139.11 1175.28 1135.96 1178.5 Q1132.81 1181.71 1127.58 1181.71 Q1121.58 1181.71 1118.41 1177.13 Q1115.24 1172.52 1115.24 1163.8 Q1115.24 1155.6 1119.13 1150.74 Q1123.02 1145.86 1129.57 1145.86 Q1131.33 1145.86 1133.11 1146.2 Q1134.92 1146.55 1136.86 1147.25 Z" fill="#000000" fill-rule="evenodd" fill-opacity="1" /><path clip-path="url(#clip940)" d="M1448.53 1164.63 Q1445.2 1164.63 1443.27 1166.41 Q1441.38 1168.19 1441.38 1171.32 Q1441.38 1174.44 1443.27 1176.23 Q1445.2 1178.01 1448.53 1178.01 Q1451.86 1178.01 1453.78 1176.23 Q1455.71 1174.42 1455.71 1171.32 Q1455.71 1168.19 1453.78 1166.41 Q1451.89 1164.63 1448.53 1164.63 M1443.85 1162.64 Q1440.84 1161.9 1439.15 1159.84 Q1437.49 1157.78 1437.49 1154.82 Q1437.49 1150.67 1440.43 1148.26 Q1443.39 1145.86 1448.53 1145.86 Q1453.69 1145.86 1456.63 1148.26 Q1459.57 1150.67 1459.57 1154.82 Q1459.57 1157.78 1457.88 1159.84 Q1456.21 1161.9 1453.23 1162.64 Q1456.61 1163.43 1458.48 1165.72 Q1460.38 1168.01 1460.38 1171.32 Q1460.38 1176.34 1457.3 1179.03 Q1454.25 1181.71 1448.53 1181.71 Q1442.81 1181.71 1439.73 1179.03 Q1436.68 1176.34 1436.68 1171.32 Q1436.68 1168.01 1438.58 1165.72 Q1440.47 1163.43 1443.85 1162.64 M1442.14 1155.25 Q1442.14 1157.94 1443.81 1159.44 Q1445.5 1160.95 1448.53 1160.95 Q1451.54 1160.95 1453.23 1159.44 Q1454.94 1157.94 1454.94 1155.25 Q1454.94 1152.57 1453.23 1151.07 Q1451.54 1149.56 1448.53 1149.56 Q1445.5 1149.56 1443.81 1151.07 Q1442.14 1152.57 1442.14 1155.25 Z" fill="#000000" fill-rule="evenodd" fill-opacity="1" /><path clip-path="url(#clip940)" d="M1744.57 1177.11 L1752.21 1177.11 L1752.21 1150.74 L1743.9 1152.41 L1743.9 1148.15 L1752.16 1146.48 L1756.84 1146.48 L1756.84 1177.11 L1764.48 1177.11 L1764.48 1181.04 L1744.57 1181.04 L1744.57 1177.11 Z" fill="#000000" fill-rule="evenodd" fill-opacity="1" /><path clip-path="url(#clip940)" d="M1783.92 1149.56 Q1780.31 1149.56 1778.48 1153.13 Q1776.68 1156.67 1776.68 1163.8 Q1776.68 1170.9 1778.48 1174.47 Q1780.31 1178.01 1783.92 1178.01 Q1787.56 1178.01 1789.36 1174.47 Q1791.19 1170.9 1791.19 1163.8 Q1791.19 1156.67 1789.36 1153.13 Q1787.56 1149.56 1783.92 1149.56 M1783.92 1145.86 Q1789.73 1145.86 1792.79 1150.46 Q1795.87 1155.05 1795.87 1163.8 Q1795.87 1172.52 1792.79 1177.13 Q1789.73 1181.71 1783.92 1181.71 Q1778.11 1181.71 1775.03 1177.13 Q1771.98 1172.52 1771.98 1163.8 Q1771.98 1155.05 1775.03 1150.46 Q1778.11 1145.86 1783.92 1145.86 Z" fill="#000000" fill-rule="evenodd" fill-opacity="1" /><path clip-path="url(#clip940)" d="M2066.73 1177.11 L2074.36 1177.11 L2074.36 1150.74 L2066.05 1152.41 L2066.05 1148.15 L2074.32 1146.48 L2078.99 1146.48 L2078.99 1177.11 L2086.63 1177.11 L2086.63 1181.04 L2066.73 1181.04 L2066.73 1177.11 Z" fill="#000000" fill-rule="evenodd" fill-opacity="1" /><path clip-path="url(#clip940)" d="M2100.1 1177.11 L2116.42 1177.11 L2116.42 1181.04 L2094.48 1181.04 L2094.48 1177.11 Q2097.14 1174.35 2101.73 1169.72 Q2106.33 1165.07 2107.51 1163.73 Q2109.76 1161.2 2110.64 1159.47 Q2111.54 1157.71 2111.54 1156.02 Q2111.54 1153.26 2109.6 1151.53 Q2107.67 1149.79 2104.57 1149.79 Q2102.37 1149.79 2099.92 1150.56 Q2097.49 1151.32 2094.71 1152.87 L2094.71 1148.15 Q2097.54 1147.01 2099.99 1146.44 Q2102.44 1145.86 2104.48 1145.86 Q2109.85 1145.86 2113.04 1148.54 Q2116.24 1151.23 2116.24 1155.72 Q2116.24 1157.85 2115.43 1159.77 Q2114.64 1161.67 2112.54 1164.26 Q2111.96 1164.93 2108.85 1168.15 Q2105.75 1171.34 2100.1 1177.11 Z" fill="#000000" fill-rule="evenodd" fill-opacity="1" /><path clip-path="url(#clip940)" d="M2387.04 1177.11 L2394.68 1177.11 L2394.68 1150.74 L2386.37 1152.41 L2386.37 1148.15 L2394.63 1146.48 L2399.31 1146.48 L2399.31 1177.11 L2406.95 1177.11 L2406.95 1181.04 L2387.04 1181.04 L2387.04 1177.11 Z" fill="#000000" fill-rule="evenodd" fill-opacity="1" /><path clip-path="url(#clip940)" d="M2429.24 1150.56 L2417.43 1169 L2429.24 1169 L2429.24 1150.56 M2428.01 1146.48 L2433.89 1146.48 L2433.89 1169 L2438.82 1169 L2438.82 1172.89 L2433.89 1172.89 L2433.89 1181.04 L2429.24 1181.04 L2429.24 1172.89 L2413.64 1172.89 L2413.64 1168.38 L2428.01 1146.48 Z" fill="#000000" fill-rule="evenodd" fill-opacity="1" /><polyline clip-path="url(#clip940)" style="stroke:#000000; stroke-linecap:round; stroke-linejoin:round; stroke-width:4; stroke-opacity:1; fill:none" points="256.302,1116.34 256.302,665.023 "/>
<polyline clip-path="url(#clip940)" style="stroke:#000000; stroke-linecap:round; stroke-linejoin:round; stroke-width:4; stroke-opacity:1; fill:none" points="256.302,1116.34 275.2,1116.34 "/>
<polyline clip-path="url(#clip940)" style="stroke:#000000; stroke-linecap:round; stroke-linejoin:round; stroke-width:4; stroke-opacity:1; fill:none" points="256.302,988.496 275.2,988.496 "/>
<polyline clip-path="url(#clip940)" style="stroke:#000000; stroke-linecap:round; stroke-linejoin:round; stroke-width:4; stroke-opacity:1; fill:none" points="256.302,860.655 275.2,860.655 "/>
<polyline clip-path="url(#clip940)" style="stroke:#000000; stroke-linecap:round; stroke-linejoin:round; stroke-width:4; stroke-opacity:1; fill:none" points="256.302,732.813 275.2,732.813 "/>
<path clip-path="url(#clip940)" d="M158.807 1102.14 Q155.196 1102.14 153.367 1105.7 Q151.561 1109.24 151.561 1116.37 Q151.561 1123.48 153.367 1127.04 Q155.196 1130.59 158.807 1130.59 Q162.441 1130.59 164.247 1127.04 Q166.075 1123.48 166.075 1116.37 Q166.075 1109.24 164.247 1105.7 Q162.441 1102.14 158.807 1102.14 M158.807 1098.43 Q164.617 1098.43 167.673 1103.04 Q170.751 1107.62 170.751 1116.37 Q170.751 1125.1 167.673 1129.71 Q164.617 1134.29 158.807 1134.29 Q152.997 1134.29 149.918 1129.71 Q146.862 1125.1 146.862 1116.37 Q146.862 1107.62 149.918 1103.04 Q152.997 1098.43 158.807 1098.43 Z" fill="#000000" fill-rule="evenodd" fill-opacity="1" /><path clip-path="url(#clip940)" d="M178.969 1127.74 L183.853 1127.74 L183.853 1133.62 L178.969 1133.62 L178.969 1127.74 Z" fill="#000000" fill-rule="evenodd" fill-opacity="1" /><path clip-path="url(#clip940)" d="M204.038 1102.14 Q200.427 1102.14 198.598 1105.7 Q196.793 1109.24 196.793 1116.37 Q196.793 1123.48 198.598 1127.04 Q200.427 1130.59 204.038 1130.59 Q207.672 1130.59 209.478 1127.04 Q211.307 1123.48 211.307 1116.37 Q211.307 1109.24 209.478 1105.7 Q207.672 1102.14 204.038 1102.14 M204.038 1098.43 Q209.848 1098.43 212.904 1103.04 Q215.982 1107.62 215.982 1116.37 Q215.982 1125.1 212.904 1129.71 Q209.848 1134.29 204.038 1134.29 Q198.228 1134.29 195.149 1129.71 Q192.094 1125.1 192.094 1116.37 Q192.094 1107.62 195.149 1103.04 Q198.228 1098.43 204.038 1098.43 Z" fill="#000000" fill-rule="evenodd" fill-opacity="1" /><path clip-path="url(#clip940)" d="M160.034 974.295 Q156.423 974.295 154.594 977.86 Q152.788 981.401 152.788 988.531 Q152.788 995.637 154.594 999.202 Q156.423 1002.74 160.034 1002.74 Q163.668 1002.74 165.473 999.202 Q167.302 995.637 167.302 988.531 Q167.302 981.401 165.473 977.86 Q163.668 974.295 160.034 974.295 M160.034 970.591 Q165.844 970.591 168.899 975.198 Q171.978 979.781 171.978 988.531 Q171.978 997.258 168.899 1001.86 Q165.844 1006.45 160.034 1006.45 Q154.223 1006.45 151.145 1001.86 Q148.089 997.258 148.089 988.531 Q148.089 979.781 151.145 975.198 Q154.223 970.591 160.034 970.591 Z" fill="#000000" fill-rule="evenodd" fill-opacity="1" /><path clip-path="url(#clip940)" d="M180.196 999.897 L185.08 999.897 L185.08 1005.78 L180.196 1005.78 L180.196 999.897 Z" fill="#000000" fill-rule="evenodd" fill-opacity="1" /><path clip-path="url(#clip940)" d="M196.075 1001.84 L203.714 1001.84 L203.714 975.475 L195.404 977.142 L195.404 972.883 L203.668 971.216 L208.344 971.216 L208.344 1001.84 L215.982 1001.84 L215.982 1005.78 L196.075 1005.78 L196.075 1001.84 Z" fill="#000000" fill-rule="evenodd" fill-opacity="1" /><path clip-path="url(#clip940)" d="M160.404 846.453 Q156.793 846.453 154.964 850.018 Q153.159 853.56 153.159 860.689 Q153.159 867.796 154.964 871.361 Q156.793 874.902 160.404 874.902 Q164.038 874.902 165.844 871.361 Q167.673 867.796 167.673 860.689 Q167.673 853.56 165.844 850.018 Q164.038 846.453 160.404 846.453 M160.404 842.75 Q166.214 842.75 169.27 847.356 Q172.348 851.939 172.348 860.689 Q172.348 869.416 169.27 874.023 Q166.214 878.606 160.404 878.606 Q154.594 878.606 151.515 874.023 Q148.46 869.416 148.46 860.689 Q148.46 851.939 151.515 847.356 Q154.594 842.75 160.404 842.75 Z" fill="#000000" fill-rule="evenodd" fill-opacity="1" /><path clip-path="url(#clip940)" d="M180.566 872.055 L185.45 872.055 L185.45 877.935 L180.566 877.935 L180.566 872.055 Z" fill="#000000" fill-rule="evenodd" fill-opacity="1" /><path clip-path="url(#clip940)" d="M199.663 874 L215.982 874 L215.982 877.935 L194.038 877.935 L194.038 874 Q196.7 871.245 201.283 866.615 Q205.89 861.963 207.07 860.62 Q209.316 858.097 210.195 856.361 Q211.098 854.601 211.098 852.912 Q211.098 850.157 209.154 848.421 Q207.232 846.685 204.131 846.685 Q201.932 846.685 199.478 847.449 Q197.047 848.213 194.27 849.764 L194.27 845.041 Q197.094 843.907 199.547 843.328 Q202.001 842.75 204.038 842.75 Q209.408 842.75 212.603 845.435 Q215.797 848.12 215.797 852.611 Q215.797 854.74 214.987 856.662 Q214.2 858.56 212.094 861.152 Q211.515 861.824 208.413 865.041 Q205.311 868.236 199.663 874 Z" fill="#000000" fill-rule="evenodd" fill-opacity="1" /><path clip-path="url(#clip940)" d="M159.455 718.612 Q155.844 718.612 154.015 722.177 Q152.21 725.718 152.21 732.848 Q152.21 739.954 154.015 743.519 Q155.844 747.061 159.455 747.061 Q163.089 747.061 164.895 743.519 Q166.723 739.954 166.723 732.848 Q166.723 725.718 164.895 722.177 Q163.089 718.612 159.455 718.612 M159.455 714.908 Q165.265 714.908 168.321 719.515 Q171.399 724.098 171.399 732.848 Q171.399 741.575 168.321 746.181 Q165.265 750.764 159.455 750.764 Q153.645 750.764 150.566 746.181 Q147.511 741.575 147.511 732.848 Q147.511 724.098 150.566 719.515 Q153.645 714.908 159.455 714.908 Z" fill="#000000" fill-rule="evenodd" fill-opacity="1" /><path clip-path="url(#clip940)" d="M179.617 744.214 L184.501 744.214 L184.501 750.093 L179.617 750.093 L179.617 744.214 Z" fill="#000000" fill-rule="evenodd" fill-opacity="1" /><path clip-path="url(#clip940)" d="M208.853 731.459 Q212.209 732.177 214.084 734.445 Q215.982 736.714 215.982 740.047 Q215.982 745.163 212.464 747.964 Q208.945 750.764 202.464 750.764 Q200.288 750.764 197.973 750.325 Q195.682 749.908 193.228 749.052 L193.228 744.538 Q195.172 745.672 197.487 746.251 Q199.802 746.829 202.325 746.829 Q206.723 746.829 209.015 745.093 Q211.33 743.357 211.33 740.047 Q211.33 736.991 209.177 735.278 Q207.047 733.542 203.228 733.542 L199.2 733.542 L199.2 729.7 L203.413 729.7 Q206.862 729.7 208.691 728.334 Q210.519 726.945 210.519 724.353 Q210.519 721.691 208.621 720.279 Q206.746 718.843 203.228 718.843 Q201.307 718.843 199.108 719.26 Q196.908 719.677 194.27 720.556 L194.27 716.39 Q196.932 715.649 199.246 715.279 Q201.584 714.908 203.645 714.908 Q208.969 714.908 212.07 717.339 Q215.172 719.746 215.172 723.866 Q215.172 726.737 213.529 728.728 Q211.885 730.695 208.853 731.459 Z" fill="#000000" fill-rule="evenodd" fill-opacity="1" /><path clip-path="url(#clip940)" d="M50.05 899.593 L67.9058 899.593 L67.9058 891.508 Q67.9058 887.02 65.5823 884.569 Q63.2588 882.119 58.962 882.119 Q54.6969 882.119 52.3734 884.569 Q50.05 887.02 50.05 891.508 L50.05 899.593 M44.7664 906.022 L44.7664 891.508 Q44.7664 883.519 48.3949 879.445 Q51.9915 875.339 58.962 875.339 Q65.9961 875.339 69.5927 879.445 Q73.1893 883.519 73.1893 891.508 L73.1893 899.593 L92.2864 899.593 L92.2864 906.022 L44.7664 906.022 Z" fill="#000000" fill-rule="evenodd" fill-opacity="1" /><polyline clip-path="url(#clip943)" style="stroke:#009af9; stroke-linecap:round; stroke-linejoin:round; stroke-width:4; stroke-opacity:1; fill:none" points="323.787,782.466 484.464,782.466 645.142,782.466 805.819,782.466 966.497,782.466 1127.17,782.466 1287.85,782.466 1448.53,665.023 1609.21,717.754 1769.88,736.517 1930.56,745.607 2091.24,752.548 2251.92,762.104 2412.59,780.723 2573.27,822.134 "/>
<circle clip-path="url(#clip943)" cx="323.787" cy="782.466" r="14.4" fill="#009af9" fill-rule="evenodd" fill-opacity="1" stroke="#000000" stroke-opacity="1" stroke-width="3.84"/>
<circle clip-path="url(#clip943)" cx="484.464" cy="782.466" r="14.4" fill="#009af9" fill-rule="evenodd" fill-opacity="1" stroke="#000000" stroke-opacity="1" stroke-width="3.84"/>
<circle clip-path="url(#clip943)" cx="645.142" cy="782.466" r="14.4" fill="#009af9" fill-rule="evenodd" fill-opacity="1" stroke="#000000" stroke-opacity="1" stroke-width="3.84"/>
<circle clip-path="url(#clip943)" cx="805.819" cy="782.466" r="14.4" fill="#009af9" fill-rule="evenodd" fill-opacity="1" stroke="#000000" stroke-opacity="1" stroke-width="3.84"/>
<circle clip-path="url(#clip943)" cx="966.497" cy="782.466" r="14.4" fill="#009af9" fill-rule="evenodd" fill-opacity="1" stroke="#000000" stroke-opacity="1" stroke-width="3.84"/>
<circle clip-path="url(#clip943)" cx="1127.17" cy="782.466" r="14.4" fill="#009af9" fill-rule="evenodd" fill-opacity="1" stroke="#000000" stroke-opacity="1" stroke-width="3.84"/>
<circle clip-path="url(#clip943)" cx="1287.85" cy="782.466" r="14.4" fill="#009af9" fill-rule="evenodd" fill-opacity="1" stroke="#000000" stroke-opacity="1" stroke-width="3.84"/>
<circle clip-path="url(#clip943)" cx="1448.53" cy="665.023" r="14.4" fill="#009af9" fill-rule="evenodd" fill-opacity="1" stroke="#000000" stroke-opacity="1" stroke-width="3.84"/>
<circle clip-path="url(#clip943)" cx="1609.21" cy="717.754" r="14.4" fill="#009af9" fill-rule="evenodd" fill-opacity="1" stroke="#000000" stroke-opacity="1" stroke-width="3.84"/>
<circle clip-path="url(#clip943)" cx="1769.88" cy="736.517" r="14.4" fill="#009af9" fill-rule="evenodd" fill-opacity="1" stroke="#000000" stroke-opacity="1" stroke-width="3.84"/>
<circle clip-path="url(#clip943)" cx="1930.56" cy="745.607" r="14.4" fill="#009af9" fill-rule="evenodd" fill-opacity="1" stroke="#000000" stroke-opacity="1" stroke-width="3.84"/>
<circle clip-path="url(#clip943)" cx="2091.24" cy="752.548" r="14.4" fill="#009af9" fill-rule="evenodd" fill-opacity="1" stroke="#000000" stroke-opacity="1" stroke-width="3.84"/>
<circle clip-path="url(#clip943)" cx="2251.92" cy="762.104" r="14.4" fill="#009af9" fill-rule="evenodd" fill-opacity="1" stroke="#000000" stroke-opacity="1" stroke-width="3.84"/>
<circle clip-path="url(#clip943)" cx="2412.59" cy="780.723" r="14.4" fill="#009af9" fill-rule="evenodd" fill-opacity="1" stroke="#000000" stroke-opacity="1" stroke-width="3.84"/>
<circle clip-path="url(#clip943)" cx="2573.27" cy="822.134" r="14.4" fill="#009af9" fill-rule="evenodd" fill-opacity="1" stroke="#000000" stroke-opacity="1" stroke-width="3.84"/>
<path clip-path="url(#clip940)" d="M2270.77 1101.29 L2561.27 1101.29 L2561.27 997.614 L2270.77 997.614  Z" fill="#ffffff" fill-rule="evenodd" fill-opacity="1"/>
<polyline clip-path="url(#clip940)" style="stroke:#000000; stroke-linecap:round; stroke-linejoin:round; stroke-width:4; stroke-opacity:1; fill:none" points="2270.77,1101.29 2561.27,1101.29 2561.27,997.614 2270.77,997.614 2270.77,1101.29 "/>
<polyline clip-path="url(#clip940)" style="stroke:#009af9; stroke-linecap:round; stroke-linejoin:round; stroke-width:4; stroke-opacity:1; fill:none" points="2297.26,1049.45 2456.23,1049.45 "/>
<circle clip-path="url(#clip940)" cx="2376.74" cy="1049.45" r="22.0783" fill="#009af9" fill-rule="evenodd" fill-opacity="1" stroke="#000000" stroke-opacity="1" stroke-width="6.144"/>
<path clip-path="url(#clip940)" d="M2496.56 1069.14 Q2494.76 1073.77 2493.04 1075.18 Q2491.33 1076.6 2488.46 1076.6 L2485.06 1076.6 L2485.06 1073.03 L2487.56 1073.03 Q2489.32 1073.03 2490.29 1072.2 Q2491.26 1071.36 2492.44 1068.26 L2493.21 1066.32 L2482.72 1040.81 L2487.23 1040.81 L2495.34 1061.09 L2503.44 1040.81 L2507.95 1040.81 L2496.56 1069.14 Z" fill="#000000" fill-rule="evenodd" fill-opacity="1" /><path clip-path="url(#clip940)" d="M2518.46 1062.8 L2534.78 1062.8 L2534.78 1066.73 L2512.84 1066.73 L2512.84 1062.8 Q2515.5 1060.04 2520.08 1055.41 Q2524.69 1050.76 2525.87 1049.42 Q2528.11 1046.9 2528.99 1045.16 Q2529.9 1043.4 2529.9 1041.71 Q2529.9 1038.96 2527.95 1037.22 Q2526.03 1035.48 2522.93 1035.48 Q2520.73 1035.48 2518.28 1036.25 Q2515.85 1037.01 2513.07 1038.56 L2513.07 1033.84 Q2515.89 1032.71 2518.35 1032.13 Q2520.8 1031.55 2522.84 1031.55 Q2528.21 1031.55 2531.4 1034.23 Q2534.6 1036.92 2534.6 1041.41 Q2534.6 1043.54 2533.78 1045.46 Q2533 1047.36 2530.89 1049.95 Q2530.31 1050.62 2527.21 1053.84 Q2524.11 1057.03 2518.46 1062.8 Z" fill="#000000" fill-rule="evenodd" fill-opacity="1" /><path clip-path="url(#clip940)" d="M256.302 1734.12 L2640.76 1734.12 L2640.76 1282.8 L256.302 1282.8  Z" fill="#ffffff" fill-rule="evenodd" fill-opacity="1"/>
<defs>
  <clipPath id="clip944">
    <rect x="256" y="1282" width="2385" height="452"/>
  </clipPath>
</defs>
<polyline clip-path="url(#clip940)" style="stroke:#000000; stroke-linecap:round; stroke-linejoin:round; stroke-width:4; stroke-opacity:1; fill:none" points="256.302,1734.12 2640.76,1734.12 "/>
<polyline clip-path="url(#clip940)" style="stroke:#000000; stroke-linecap:round; stroke-linejoin:round; stroke-width:4; stroke-opacity:1; fill:none" points="323.787,1734.12 323.787,1715.22 "/>
<polyline clip-path="url(#clip940)" style="stroke:#000000; stroke-linecap:round; stroke-linejoin:round; stroke-width:4; stroke-opacity:1; fill:none" points="1073.62,1734.12 1073.62,1715.22 "/>
<polyline clip-path="url(#clip940)" style="stroke:#000000; stroke-linecap:round; stroke-linejoin:round; stroke-width:4; stroke-opacity:1; fill:none" points="1823.44,1734.12 1823.44,1715.22 "/>
<polyline clip-path="url(#clip940)" style="stroke:#000000; stroke-linecap:round; stroke-linejoin:round; stroke-width:4; stroke-opacity:1; fill:none" points="2573.27,1734.12 2573.27,1715.22 "/>
<path clip-path="url(#clip940)" d="M323.787 1767.34 Q320.176 1767.34 318.347 1770.9 Q316.542 1774.45 316.542 1781.58 Q316.542 1788.68 318.347 1792.25 Q320.176 1795.79 323.787 1795.79 Q327.421 1795.79 329.227 1792.25 Q331.055 1788.68 331.055 1781.58 Q331.055 1774.45 329.227 1770.9 Q327.421 1767.34 323.787 1767.34 M323.787 1763.64 Q329.597 1763.64 332.653 1768.24 Q335.731 1772.83 335.731 1781.58 Q335.731 1790.3 332.653 1794.91 Q329.597 1799.49 323.787 1799.49 Q317.977 1799.49 314.898 1794.91 Q311.843 1790.3 311.843 1781.58 Q311.843 1772.83 314.898 1768.24 Q317.977 1763.64 323.787 1763.64 Z" fill="#000000" fill-rule="evenodd" fill-opacity="1" /><path clip-path="url(#clip940)" d="M1063.89 1764.26 L1082.25 1764.26 L1082.25 1768.2 L1068.18 1768.2 L1068.18 1776.67 Q1069.19 1776.32 1070.21 1776.16 Q1071.23 1775.97 1072.25 1775.97 Q1078.04 1775.97 1081.42 1779.15 Q1084.8 1782.32 1084.8 1787.73 Q1084.8 1793.31 1081.32 1796.41 Q1077.85 1799.49 1071.53 1799.49 Q1069.36 1799.49 1067.09 1799.12 Q1064.84 1798.75 1062.43 1798.01 L1062.43 1793.31 Q1064.52 1794.45 1066.74 1795 Q1068.96 1795.56 1071.44 1795.56 Q1075.44 1795.56 1077.78 1793.45 Q1080.12 1791.34 1080.12 1787.73 Q1080.12 1784.12 1077.78 1782.02 Q1075.44 1779.91 1071.44 1779.91 Q1069.56 1779.91 1067.69 1780.33 Q1065.84 1780.74 1063.89 1781.62 L1063.89 1764.26 Z" fill="#000000" fill-rule="evenodd" fill-opacity="1" /><path clip-path="url(#clip940)" d="M1798.13 1794.89 L1805.77 1794.89 L1805.77 1768.52 L1797.46 1770.19 L1797.46 1765.93 L1805.72 1764.26 L1810.4 1764.26 L1810.4 1794.89 L1818.04 1794.89 L1818.04 1798.82 L1798.13 1798.82 L1798.13 1794.89 Z" fill="#000000" fill-rule="evenodd" fill-opacity="1" /><path clip-path="url(#clip940)" d="M1837.48 1767.34 Q1833.87 1767.34 1832.04 1770.9 Q1830.24 1774.45 1830.24 1781.58 Q1830.24 1788.68 1832.04 1792.25 Q1833.87 1795.79 1837.48 1795.79 Q1841.12 1795.79 1842.92 1792.25 Q1844.75 1788.68 1844.75 1781.58 Q1844.75 1774.45 1842.92 1770.9 Q1841.12 1767.34 1837.48 1767.34 M1837.48 1763.64 Q1843.29 1763.64 1846.35 1768.24 Q1849.43 1772.83 1849.43 1781.58 Q1849.43 1790.3 1846.35 1794.91 Q1843.29 1799.49 1837.48 1799.49 Q1831.67 1799.49 1828.59 1794.91 Q1825.54 1790.3 1825.54 1781.58 Q1825.54 1772.83 1828.59 1768.24 Q1831.67 1763.64 1837.48 1763.64 Z" fill="#000000" fill-rule="evenodd" fill-opacity="1" /><path clip-path="url(#clip940)" d="M2548.46 1794.89 L2556.1 1794.89 L2556.1 1768.52 L2547.79 1770.19 L2547.79 1765.93 L2556.05 1764.26 L2560.73 1764.26 L2560.73 1794.89 L2568.36 1794.89 L2568.36 1798.82 L2548.46 1798.82 L2548.46 1794.89 Z" fill="#000000" fill-rule="evenodd" fill-opacity="1" /><path clip-path="url(#clip940)" d="M2577.85 1764.26 L2596.21 1764.26 L2596.21 1768.2 L2582.14 1768.2 L2582.14 1776.67 Q2583.16 1776.32 2584.17 1776.16 Q2585.19 1775.97 2586.21 1775.97 Q2592 1775.97 2595.38 1779.15 Q2598.76 1782.32 2598.76 1787.73 Q2598.76 1793.31 2595.29 1796.41 Q2591.81 1799.49 2585.49 1799.49 Q2583.32 1799.49 2581.05 1799.12 Q2578.8 1798.75 2576.4 1798.01 L2576.4 1793.31 Q2578.48 1794.45 2580.7 1795 Q2582.92 1795.56 2585.4 1795.56 Q2589.41 1795.56 2591.74 1793.45 Q2594.08 1791.34 2594.08 1787.73 Q2594.08 1784.12 2591.74 1782.02 Q2589.41 1779.91 2585.4 1779.91 Q2583.53 1779.91 2581.65 1780.33 Q2579.8 1780.74 2577.85 1781.62 L2577.85 1764.26 Z" fill="#000000" fill-rule="evenodd" fill-opacity="1" /><path clip-path="url(#clip940)" d="M1269.49 1837.34 L1269.49 1843.61 Q1265.83 1841.86 1262.59 1841 Q1259.34 1840.14 1256.32 1840.14 Q1251.06 1840.14 1248.2 1842.18 Q1245.37 1844.22 1245.37 1847.97 Q1245.37 1851.12 1247.25 1852.75 Q1249.16 1854.34 1254.44 1855.32 L1258.32 1856.12 Q1265.52 1857.49 1268.92 1860.96 Q1272.36 1864.39 1272.36 1870.19 Q1272.36 1877.09 1267.71 1880.66 Q1263.1 1884.22 1254.15 1884.22 Q1250.78 1884.22 1246.96 1883.46 Q1243.17 1882.7 1239.1 1881.2 L1239.1 1874.58 Q1243.01 1876.78 1246.77 1877.89 Q1250.52 1879 1254.15 1879 Q1259.66 1879 1262.65 1876.84 Q1265.64 1874.68 1265.64 1870.67 Q1265.64 1867.16 1263.48 1865.19 Q1261.35 1863.22 1256.44 1862.23 L1252.53 1861.47 Q1245.34 1860.03 1242.12 1856.98 Q1238.91 1853.92 1238.91 1848.48 Q1238.91 1842.18 1243.33 1838.55 Q1247.79 1834.92 1255.58 1834.92 Q1258.93 1834.92 1262.4 1835.53 Q1265.87 1836.13 1269.49 1837.34 Z" fill="#000000" fill-rule="evenodd" fill-opacity="1" /><path clip-path="url(#clip940)" d="M1287.92 1837.53 L1287.92 1847.65 L1299.99 1847.65 L1299.99 1852.2 L1287.92 1852.2 L1287.92 1871.56 Q1287.92 1875.92 1289.1 1877.16 Q1290.31 1878.4 1293.97 1878.4 L1299.99 1878.4 L1299.99 1883.3 L1293.97 1883.3 Q1287.19 1883.3 1284.61 1880.79 Q1282.03 1878.24 1282.03 1871.56 L1282.03 1852.2 L1277.74 1852.2 L1277.74 1847.65 L1282.03 1847.65 L1282.03 1837.53 L1287.92 1837.53 Z" fill="#000000" fill-rule="evenodd" fill-opacity="1" /><path clip-path="url(#clip940)" d="M1338.18 1864.01 L1338.18 1866.88 L1311.25 1866.88 Q1311.63 1872.92 1314.88 1876.11 Q1318.16 1879.26 1323.98 1879.26 Q1327.36 1879.26 1330.51 1878.43 Q1333.69 1877.6 1336.81 1875.95 L1336.81 1881.49 Q1333.66 1882.82 1330.35 1883.52 Q1327.04 1884.22 1323.63 1884.22 Q1315.1 1884.22 1310.11 1879.26 Q1305.14 1874.29 1305.14 1865.83 Q1305.14 1857.07 1309.85 1851.95 Q1314.59 1846.79 1322.62 1846.79 Q1329.81 1846.79 1333.98 1851.44 Q1338.18 1856.06 1338.18 1864.01 M1332.32 1862.29 Q1332.26 1857.49 1329.62 1854.62 Q1327.01 1851.76 1322.68 1851.76 Q1317.78 1851.76 1314.82 1854.53 Q1311.89 1857.3 1311.44 1862.33 L1332.32 1862.29 Z" fill="#000000" fill-rule="evenodd" fill-opacity="1" /><path clip-path="url(#clip940)" d="M1353.46 1877.95 L1353.46 1896.86 L1347.57 1896.86 L1347.57 1847.65 L1353.46 1847.65 L1353.46 1853.06 Q1355.3 1849.88 1358.1 1848.35 Q1360.94 1846.79 1364.85 1846.79 Q1371.34 1846.79 1375.39 1851.95 Q1379.46 1857.11 1379.46 1865.51 Q1379.46 1873.91 1375.39 1879.07 Q1371.34 1884.22 1364.85 1884.22 Q1360.94 1884.22 1358.1 1882.7 Q1355.3 1881.14 1353.46 1877.95 M1373.38 1865.51 Q1373.38 1859.05 1370.71 1855.39 Q1368.07 1851.7 1363.42 1851.7 Q1358.77 1851.7 1356.1 1855.39 Q1353.46 1859.05 1353.46 1865.51 Q1353.46 1871.97 1356.1 1875.66 Q1358.77 1879.32 1363.42 1879.32 Q1368.07 1879.32 1370.71 1875.66 Q1373.38 1871.97 1373.38 1865.51 Z" fill="#000000" fill-rule="evenodd" fill-opacity="1" /><path clip-path="url(#clip940)" d="M1439.52 1861.78 L1439.52 1883.3 L1433.67 1883.3 L1433.67 1861.98 Q1433.67 1856.92 1431.69 1854.4 Q1429.72 1851.89 1425.77 1851.89 Q1421.03 1851.89 1418.29 1854.91 Q1415.55 1857.93 1415.55 1863.15 L1415.55 1883.3 L1409.67 1883.3 L1409.67 1847.65 L1415.55 1847.65 L1415.55 1853.19 Q1417.66 1849.98 1420.49 1848.39 Q1423.35 1846.79 1427.08 1846.79 Q1433.22 1846.79 1436.37 1850.61 Q1439.52 1854.4 1439.52 1861.78 Z" fill="#000000" fill-rule="evenodd" fill-opacity="1" /><path clip-path="url(#clip940)" d="M1450.6 1869.23 L1450.6 1847.65 L1456.45 1847.65 L1456.45 1869.01 Q1456.45 1874.07 1458.43 1876.62 Q1460.4 1879.13 1464.35 1879.13 Q1469.09 1879.13 1471.83 1876.11 Q1474.6 1873.08 1474.6 1867.86 L1474.6 1847.65 L1480.45 1847.65 L1480.45 1883.3 L1474.6 1883.3 L1474.6 1877.83 Q1472.46 1881.07 1469.63 1882.66 Q1466.83 1884.22 1463.11 1884.22 Q1456.96 1884.22 1453.78 1880.4 Q1450.6 1876.59 1450.6 1869.23 M1465.33 1846.79 L1465.33 1846.79 Z" fill="#000000" fill-rule="evenodd" fill-opacity="1" /><path clip-path="url(#clip940)" d="M1520.27 1854.5 Q1522.47 1850.55 1525.52 1848.67 Q1528.58 1846.79 1532.72 1846.79 Q1538.29 1846.79 1541.31 1850.71 Q1544.33 1854.59 1544.33 1861.78 L1544.33 1883.3 L1538.44 1883.3 L1538.44 1861.98 Q1538.44 1856.85 1536.63 1854.37 Q1534.82 1851.89 1531.09 1851.89 Q1526.54 1851.89 1523.9 1854.91 Q1521.26 1857.93 1521.26 1863.15 L1521.26 1883.3 L1515.37 1883.3 L1515.37 1861.98 Q1515.37 1856.82 1513.55 1854.37 Q1511.74 1851.89 1507.95 1851.89 Q1503.47 1851.89 1500.82 1854.94 Q1498.18 1857.97 1498.18 1863.15 L1498.18 1883.3 L1492.29 1883.3 L1492.29 1847.65 L1498.18 1847.65 L1498.18 1853.19 Q1500.19 1849.91 1502.99 1848.35 Q1505.79 1846.79 1509.64 1846.79 Q1513.52 1846.79 1516.23 1848.77 Q1518.97 1850.74 1520.27 1854.5 Z" fill="#000000" fill-rule="evenodd" fill-opacity="1" /><path clip-path="url(#clip940)" d="M1581.6 1865.51 Q1581.6 1859.05 1578.93 1855.39 Q1576.29 1851.7 1571.64 1851.7 Q1566.99 1851.7 1564.32 1855.39 Q1561.68 1859.05 1561.68 1865.51 Q1561.68 1871.97 1564.32 1875.66 Q1566.99 1879.32 1571.64 1879.32 Q1576.29 1879.32 1578.93 1875.66 Q1581.6 1871.97 1581.6 1865.51 M1561.68 1853.06 Q1563.53 1849.88 1566.33 1848.35 Q1569.16 1846.79 1573.07 1846.79 Q1579.57 1846.79 1583.61 1851.95 Q1587.68 1857.11 1587.68 1865.51 Q1587.68 1873.91 1583.61 1879.07 Q1579.57 1884.22 1573.07 1884.22 Q1569.16 1884.22 1566.33 1882.7 Q1563.53 1881.14 1561.68 1877.95 L1561.68 1883.3 L1555.79 1883.3 L1555.79 1833.78 L1561.68 1833.78 L1561.68 1853.06 Z" fill="#000000" fill-rule="evenodd" fill-opacity="1" /><path clip-path="url(#clip940)" d="M1627.88 1864.01 L1627.88 1866.88 L1600.96 1866.88 Q1601.34 1872.92 1604.58 1876.11 Q1607.86 1879.26 1613.69 1879.26 Q1617.06 1879.26 1620.21 1878.43 Q1623.4 1877.6 1626.51 1875.95 L1626.51 1881.49 Q1623.36 1882.82 1620.05 1883.52 Q1616.74 1884.22 1613.34 1884.22 Q1604.81 1884.22 1599.81 1879.26 Q1594.84 1874.29 1594.84 1865.83 Q1594.84 1857.07 1599.56 1851.95 Q1604.3 1846.79 1612.32 1846.79 Q1619.51 1846.79 1623.68 1851.44 Q1627.88 1856.06 1627.88 1864.01 M1622.03 1862.29 Q1621.96 1857.49 1619.32 1854.62 Q1616.71 1851.76 1612.38 1851.76 Q1607.48 1851.76 1604.52 1854.53 Q1601.59 1857.3 1601.15 1862.33 L1622.03 1862.29 Z" fill="#000000" fill-rule="evenodd" fill-opacity="1" /><path clip-path="url(#clip940)" d="M1658.15 1853.13 Q1657.17 1852.55 1655.99 1852.3 Q1654.84 1852.01 1653.44 1852.01 Q1648.48 1852.01 1645.8 1855.26 Q1643.16 1858.47 1643.16 1864.52 L1643.16 1883.3 L1637.27 1883.3 L1637.27 1847.65 L1643.16 1847.65 L1643.16 1853.19 Q1645.01 1849.94 1647.97 1848.39 Q1650.93 1846.79 1655.16 1846.79 Q1655.76 1846.79 1656.5 1846.89 Q1657.23 1846.95 1658.12 1847.11 L1658.15 1853.13 Z" fill="#000000" fill-rule="evenodd" fill-opacity="1" /><polyline clip-path="url(#clip940)" style="stroke:#000000; stroke-linecap:round; stroke-linejoin:round; stroke-width:4; stroke-opacity:1; fill:none" points="256.302,1734.12 256.302,1282.8 "/>
<polyline clip-path="url(#clip940)" style="stroke:#000000; stroke-linecap:round; stroke-linejoin:round; stroke-width:4; stroke-opacity:1; fill:none" points="256.302,1721.34 275.2,1721.34 "/>
<polyline clip-path="url(#clip940)" style="stroke:#000000; stroke-linecap:round; stroke-linejoin:round; stroke-width:4; stroke-opacity:1; fill:none" points="256.302,1630.92 275.2,1630.92 "/>
<polyline clip-path="url(#clip940)" style="stroke:#000000; stroke-linecap:round; stroke-linejoin:round; stroke-width:4; stroke-opacity:1; fill:none" points="256.302,1540.5 275.2,1540.5 "/>
<polyline clip-path="url(#clip940)" style="stroke:#000000; stroke-linecap:round; stroke-linejoin:round; stroke-width:4; stroke-opacity:1; fill:none" points="256.302,1450.08 275.2,1450.08 "/>
<polyline clip-path="url(#clip940)" style="stroke:#000000; stroke-linecap:round; stroke-linejoin:round; stroke-width:4; stroke-opacity:1; fill:none" points="256.302,1359.65 275.2,1359.65 "/>
<path clip-path="url(#clip940)" d="M128.645 1707.14 Q125.034 1707.14 123.205 1710.71 Q121.4 1714.25 121.4 1721.38 Q121.4 1728.49 123.205 1732.05 Q125.034 1735.59 128.645 1735.59 Q132.279 1735.59 134.085 1732.05 Q135.913 1728.49 135.913 1721.38 Q135.913 1714.25 134.085 1710.71 Q132.279 1707.14 128.645 1707.14 M128.645 1703.44 Q134.455 1703.44 137.511 1708.05 Q140.589 1712.63 140.589 1721.38 Q140.589 1730.11 137.511 1734.71 Q134.455 1739.3 128.645 1739.3 Q122.835 1739.3 119.756 1734.71 Q116.701 1730.11 116.701 1721.38 Q116.701 1712.63 119.756 1708.05 Q122.835 1703.44 128.645 1703.44 Z" fill="#000000" fill-rule="evenodd" fill-opacity="1" /><path clip-path="url(#clip940)" d="M148.807 1732.74 L153.691 1732.74 L153.691 1738.62 L148.807 1738.62 L148.807 1732.74 Z" fill="#000000" fill-rule="evenodd" fill-opacity="1" /><path clip-path="url(#clip940)" d="M173.876 1707.14 Q170.265 1707.14 168.436 1710.71 Q166.631 1714.25 166.631 1721.38 Q166.631 1728.49 168.436 1732.05 Q170.265 1735.59 173.876 1735.59 Q177.51 1735.59 179.316 1732.05 Q181.145 1728.49 181.145 1721.38 Q181.145 1714.25 179.316 1710.71 Q177.51 1707.14 173.876 1707.14 M173.876 1703.44 Q179.686 1703.44 182.742 1708.05 Q185.821 1712.63 185.821 1721.38 Q185.821 1730.11 182.742 1734.71 Q179.686 1739.3 173.876 1739.3 Q168.066 1739.3 164.987 1734.71 Q161.932 1730.11 161.932 1721.38 Q161.932 1712.63 164.987 1708.05 Q168.066 1703.44 173.876 1703.44 Z" fill="#000000" fill-rule="evenodd" fill-opacity="1" /><path clip-path="url(#clip940)" d="M204.038 1707.14 Q200.427 1707.14 198.598 1710.71 Q196.793 1714.25 196.793 1721.38 Q196.793 1728.49 198.598 1732.05 Q200.427 1735.59 204.038 1735.59 Q207.672 1735.59 209.478 1732.05 Q211.307 1728.49 211.307 1721.38 Q211.307 1714.25 209.478 1710.71 Q207.672 1707.14 204.038 1707.14 M204.038 1703.44 Q209.848 1703.44 212.904 1708.05 Q215.982 1712.63 215.982 1721.38 Q215.982 1730.11 212.904 1734.71 Q209.848 1739.3 204.038 1739.3 Q198.228 1739.3 195.149 1734.71 Q192.094 1730.11 192.094 1721.38 Q192.094 1712.63 195.149 1708.05 Q198.228 1703.44 204.038 1703.44 Z" fill="#000000" fill-rule="evenodd" fill-opacity="1" /><path clip-path="url(#clip940)" d="M130.242 1616.72 Q126.631 1616.72 124.802 1620.28 Q122.997 1623.83 122.997 1630.96 Q122.997 1638.06 124.802 1641.63 Q126.631 1645.17 130.242 1645.17 Q133.876 1645.17 135.682 1641.63 Q137.511 1638.06 137.511 1630.96 Q137.511 1623.83 135.682 1620.28 Q133.876 1616.72 130.242 1616.72 M130.242 1613.02 Q136.052 1613.02 139.108 1617.62 Q142.187 1622.21 142.187 1630.96 Q142.187 1639.68 139.108 1644.29 Q136.052 1648.87 130.242 1648.87 Q124.432 1648.87 121.353 1644.29 Q118.298 1639.68 118.298 1630.96 Q118.298 1622.21 121.353 1617.62 Q124.432 1613.02 130.242 1613.02 Z" fill="#000000" fill-rule="evenodd" fill-opacity="1" /><path clip-path="url(#clip940)" d="M150.404 1642.32 L155.288 1642.32 L155.288 1648.2 L150.404 1648.2 L150.404 1642.32 Z" fill="#000000" fill-rule="evenodd" fill-opacity="1" /><path clip-path="url(#clip940)" d="M175.473 1616.72 Q171.862 1616.72 170.034 1620.28 Q168.228 1623.83 168.228 1630.96 Q168.228 1638.06 170.034 1641.63 Q171.862 1645.17 175.473 1645.17 Q179.108 1645.17 180.913 1641.63 Q182.742 1638.06 182.742 1630.96 Q182.742 1623.83 180.913 1620.28 Q179.108 1616.72 175.473 1616.72 M175.473 1613.02 Q181.284 1613.02 184.339 1617.62 Q187.418 1622.21 187.418 1630.96 Q187.418 1639.68 184.339 1644.29 Q181.284 1648.87 175.473 1648.87 Q169.663 1648.87 166.585 1644.29 Q163.529 1639.68 163.529 1630.96 Q163.529 1622.21 166.585 1617.62 Q169.663 1613.02 175.473 1613.02 Z" fill="#000000" fill-rule="evenodd" fill-opacity="1" /><path clip-path="url(#clip940)" d="M199.663 1644.27 L215.982 1644.27 L215.982 1648.2 L194.038 1648.2 L194.038 1644.27 Q196.7 1641.51 201.283 1636.88 Q205.89 1632.23 207.07 1630.89 Q209.316 1628.36 210.195 1626.63 Q211.098 1624.87 211.098 1623.18 Q211.098 1620.42 209.154 1618.69 Q207.232 1616.95 204.131 1616.95 Q201.932 1616.95 199.478 1617.72 Q197.047 1618.48 194.27 1620.03 L194.27 1615.31 Q197.094 1614.17 199.547 1613.59 Q202.001 1613.02 204.038 1613.02 Q209.408 1613.02 212.603 1615.7 Q215.797 1618.39 215.797 1622.88 Q215.797 1625.01 214.987 1626.93 Q214.2 1628.83 212.094 1631.42 Q211.515 1632.09 208.413 1635.31 Q205.311 1638.5 199.663 1644.27 Z" fill="#000000" fill-rule="evenodd" fill-opacity="1" /><path clip-path="url(#clip940)" d="M128.159 1526.3 Q124.548 1526.3 122.719 1529.86 Q120.913 1533.4 120.913 1540.53 Q120.913 1547.64 122.719 1551.2 Q124.548 1554.75 128.159 1554.75 Q131.793 1554.75 133.599 1551.2 Q135.427 1547.64 135.427 1540.53 Q135.427 1533.4 133.599 1529.86 Q131.793 1526.3 128.159 1526.3 M128.159 1522.59 Q133.969 1522.59 137.025 1527.2 Q140.103 1531.78 140.103 1540.53 Q140.103 1549.26 137.025 1553.87 Q133.969 1558.45 128.159 1558.45 Q122.349 1558.45 119.27 1553.87 Q116.214 1549.26 116.214 1540.53 Q116.214 1531.78 119.27 1527.2 Q122.349 1522.59 128.159 1522.59 Z" fill="#000000" fill-rule="evenodd" fill-opacity="1" /><path clip-path="url(#clip940)" d="M148.321 1551.9 L153.205 1551.9 L153.205 1557.78 L148.321 1557.78 L148.321 1551.9 Z" fill="#000000" fill-rule="evenodd" fill-opacity="1" /><path clip-path="url(#clip940)" d="M173.39 1526.3 Q169.779 1526.3 167.95 1529.86 Q166.145 1533.4 166.145 1540.53 Q166.145 1547.64 167.95 1551.2 Q169.779 1554.75 173.39 1554.75 Q177.024 1554.75 178.83 1551.2 Q180.659 1547.64 180.659 1540.53 Q180.659 1533.4 178.83 1529.86 Q177.024 1526.3 173.39 1526.3 M173.39 1522.59 Q179.2 1522.59 182.256 1527.2 Q185.334 1531.78 185.334 1540.53 Q185.334 1549.26 182.256 1553.87 Q179.2 1558.45 173.39 1558.45 Q167.58 1558.45 164.501 1553.87 Q161.446 1549.26 161.446 1540.53 Q161.446 1531.78 164.501 1527.2 Q167.58 1522.59 173.39 1522.59 Z" fill="#000000" fill-rule="evenodd" fill-opacity="1" /><path clip-path="url(#clip940)" d="M206.399 1527.29 L194.594 1545.74 L206.399 1545.74 L206.399 1527.29 M205.172 1523.22 L211.052 1523.22 L211.052 1545.74 L215.982 1545.74 L215.982 1549.63 L211.052 1549.63 L211.052 1557.78 L206.399 1557.78 L206.399 1549.63 L190.797 1549.63 L190.797 1545.12 L205.172 1523.22 Z" fill="#000000" fill-rule="evenodd" fill-opacity="1" /><path clip-path="url(#clip940)" d="M128.483 1435.87 Q124.872 1435.87 123.043 1439.44 Q121.238 1442.98 121.238 1450.11 Q121.238 1457.22 123.043 1460.78 Q124.872 1464.32 128.483 1464.32 Q132.117 1464.32 133.923 1460.78 Q135.751 1457.22 135.751 1450.11 Q135.751 1442.98 133.923 1439.44 Q132.117 1435.87 128.483 1435.87 M128.483 1432.17 Q134.293 1432.17 137.349 1436.78 Q140.427 1441.36 140.427 1450.11 Q140.427 1458.84 137.349 1463.44 Q134.293 1468.03 128.483 1468.03 Q122.673 1468.03 119.594 1463.44 Q116.539 1458.84 116.539 1450.11 Q116.539 1441.36 119.594 1436.78 Q122.673 1432.17 128.483 1432.17 Z" fill="#000000" fill-rule="evenodd" fill-opacity="1" /><path clip-path="url(#clip940)" d="M148.645 1461.48 L153.529 1461.48 L153.529 1467.36 L148.645 1467.36 L148.645 1461.48 Z" fill="#000000" fill-rule="evenodd" fill-opacity="1" /><path clip-path="url(#clip940)" d="M173.714 1435.87 Q170.103 1435.87 168.274 1439.44 Q166.469 1442.98 166.469 1450.11 Q166.469 1457.22 168.274 1460.78 Q170.103 1464.32 173.714 1464.32 Q177.348 1464.32 179.154 1460.78 Q180.983 1457.22 180.983 1450.11 Q180.983 1442.98 179.154 1439.44 Q177.348 1435.87 173.714 1435.87 M173.714 1432.17 Q179.524 1432.17 182.58 1436.78 Q185.659 1441.36 185.659 1450.11 Q185.659 1458.84 182.58 1463.44 Q179.524 1468.03 173.714 1468.03 Q167.904 1468.03 164.825 1463.44 Q161.77 1458.84 161.77 1450.11 Q161.77 1441.36 164.825 1436.78 Q167.904 1432.17 173.714 1432.17 Z" fill="#000000" fill-rule="evenodd" fill-opacity="1" /><path clip-path="url(#clip940)" d="M204.455 1448.21 Q201.307 1448.21 199.455 1450.37 Q197.626 1452.52 197.626 1456.27 Q197.626 1459.99 199.455 1462.17 Q201.307 1464.32 204.455 1464.32 Q207.603 1464.32 209.432 1462.17 Q211.283 1459.99 211.283 1456.27 Q211.283 1452.52 209.432 1450.37 Q207.603 1448.21 204.455 1448.21 M213.737 1433.56 L213.737 1437.82 Q211.978 1436.99 210.172 1436.55 Q208.39 1436.11 206.631 1436.11 Q202.001 1436.11 199.547 1439.23 Q197.117 1442.36 196.77 1448.68 Q198.135 1446.66 200.195 1445.6 Q202.256 1444.51 204.732 1444.51 Q209.941 1444.51 212.95 1447.68 Q215.982 1450.83 215.982 1456.27 Q215.982 1461.59 212.834 1464.81 Q209.686 1468.03 204.455 1468.03 Q198.459 1468.03 195.288 1463.44 Q192.117 1458.84 192.117 1450.11 Q192.117 1441.92 196.006 1437.06 Q199.895 1432.17 206.445 1432.17 Q208.205 1432.17 209.987 1432.52 Q211.793 1432.87 213.737 1433.56 Z" fill="#000000" fill-rule="evenodd" fill-opacity="1" /><path clip-path="url(#clip940)" d="M128.738 1345.45 Q125.126 1345.45 123.298 1349.02 Q121.492 1352.56 121.492 1359.69 Q121.492 1366.79 123.298 1370.36 Q125.126 1373.9 128.738 1373.9 Q132.372 1373.9 134.177 1370.36 Q136.006 1366.79 136.006 1359.69 Q136.006 1352.56 134.177 1349.02 Q132.372 1345.45 128.738 1345.45 M128.738 1341.75 Q134.548 1341.75 137.603 1346.35 Q140.682 1350.94 140.682 1359.69 Q140.682 1368.41 137.603 1373.02 Q134.548 1377.6 128.738 1377.6 Q122.927 1377.6 119.849 1373.02 Q116.793 1368.41 116.793 1359.69 Q116.793 1350.94 119.849 1346.35 Q122.927 1341.75 128.738 1341.75 Z" fill="#000000" fill-rule="evenodd" fill-opacity="1" /><path clip-path="url(#clip940)" d="M148.899 1371.05 L153.784 1371.05 L153.784 1376.93 L148.899 1376.93 L148.899 1371.05 Z" fill="#000000" fill-rule="evenodd" fill-opacity="1" /><path clip-path="url(#clip940)" d="M173.969 1345.45 Q170.358 1345.45 168.529 1349.02 Q166.723 1352.56 166.723 1359.69 Q166.723 1366.79 168.529 1370.36 Q170.358 1373.9 173.969 1373.9 Q177.603 1373.9 179.409 1370.36 Q181.237 1366.79 181.237 1359.69 Q181.237 1352.56 179.409 1349.02 Q177.603 1345.45 173.969 1345.45 M173.969 1341.75 Q179.779 1341.75 182.834 1346.35 Q185.913 1350.94 185.913 1359.69 Q185.913 1368.41 182.834 1373.02 Q179.779 1377.6 173.969 1377.6 Q168.159 1377.6 165.08 1373.02 Q162.024 1368.41 162.024 1359.69 Q162.024 1350.94 165.08 1346.35 Q168.159 1341.75 173.969 1341.75 Z" fill="#000000" fill-rule="evenodd" fill-opacity="1" /><path clip-path="url(#clip940)" d="M204.131 1360.52 Q200.797 1360.52 198.876 1362.3 Q196.978 1364.09 196.978 1367.21 Q196.978 1370.34 198.876 1372.12 Q200.797 1373.9 204.131 1373.9 Q207.464 1373.9 209.385 1372.12 Q211.307 1370.31 211.307 1367.21 Q211.307 1364.09 209.385 1362.3 Q207.487 1360.52 204.131 1360.52 M199.455 1358.53 Q196.445 1357.79 194.756 1355.73 Q193.089 1353.67 193.089 1350.71 Q193.089 1346.56 196.029 1344.16 Q198.992 1341.75 204.131 1341.75 Q209.293 1341.75 212.232 1344.16 Q215.172 1346.56 215.172 1350.71 Q215.172 1353.67 213.482 1355.73 Q211.816 1357.79 208.83 1358.53 Q212.209 1359.32 214.084 1361.61 Q215.982 1363.9 215.982 1367.21 Q215.982 1372.23 212.904 1374.92 Q209.848 1377.6 204.131 1377.6 Q198.413 1377.6 195.334 1374.92 Q192.279 1372.23 192.279 1367.21 Q192.279 1363.9 194.177 1361.61 Q196.075 1359.32 199.455 1358.53 M197.742 1351.15 Q197.742 1353.83 199.408 1355.34 Q201.098 1356.84 204.131 1356.84 Q207.14 1356.84 208.83 1355.34 Q210.543 1353.83 210.543 1351.15 Q210.543 1348.46 208.83 1346.96 Q207.14 1345.45 204.131 1345.45 Q201.098 1345.45 199.408 1346.96 Q197.742 1348.46 197.742 1351.15 Z" fill="#000000" fill-rule="evenodd" fill-opacity="1" /><path clip-path="url(#clip940)" d="M14.1184 1732.36 L14.1184 1692.16 L19.5293 1692.16 L19.5293 1709.03 L61.6384 1709.03 L61.6384 1715.49 L19.5293 1715.49 L19.5293 1732.36 L14.1184 1732.36 Z" fill="#000000" fill-rule="evenodd" fill-opacity="1" /><path clip-path="url(#clip940)" d="M42.3504 1666.79 L45.2149 1666.79 L45.2149 1693.72 Q51.2623 1693.34 54.4452 1690.09 Q57.5962 1686.81 57.5962 1680.99 Q57.5962 1677.61 56.7687 1674.46 Q55.9411 1671.28 54.2861 1668.16 L59.8242 1668.16 Q61.161 1671.31 61.8612 1674.62 Q62.5615 1677.93 62.5615 1681.34 Q62.5615 1689.87 57.5962 1694.86 Q52.631 1699.83 44.1646 1699.83 Q35.4117 1699.83 30.2873 1695.12 Q25.1311 1690.38 25.1311 1682.35 Q25.1311 1675.16 29.7781 1670.99 Q34.3932 1666.79 42.3504 1666.79 M40.6316 1672.65 Q35.8255 1672.71 32.9609 1675.35 Q30.0964 1677.96 30.0964 1682.29 Q30.0964 1687.19 32.8654 1690.15 Q35.6345 1693.08 40.6634 1693.53 L40.6316 1672.65 Z" fill="#000000" fill-rule="evenodd" fill-opacity="1" /><path clip-path="url(#clip940)" d="M31.465 1636.52 Q30.8921 1637.51 30.6375 1638.69 Q30.351 1639.83 30.351 1641.23 Q30.351 1646.2 33.5975 1648.87 Q36.8122 1651.51 42.8596 1651.51 L61.6384 1651.51 L61.6384 1657.4 L25.9905 1657.4 L25.9905 1651.51 L31.5287 1651.51 Q28.2821 1649.67 26.7225 1646.71 Q25.1311 1643.75 25.1311 1639.51 Q25.1311 1638.91 25.2266 1638.18 Q25.2903 1637.44 25.4494 1636.55 L31.465 1636.52 Z" fill="#000000" fill-rule="evenodd" fill-opacity="1" /><path clip-path="url(#clip940)" d="M31.465 1610.87 Q30.8921 1611.85 30.6375 1613.03 Q30.351 1614.18 30.351 1615.58 Q30.351 1620.54 33.5975 1623.22 Q36.8122 1625.86 42.8596 1625.86 L61.6384 1625.86 L61.6384 1631.75 L25.9905 1631.75 L25.9905 1625.86 L31.5287 1625.86 Q28.2821 1624.01 26.7225 1621.05 Q25.1311 1618.09 25.1311 1613.86 Q25.1311 1613.26 25.2266 1612.52 Q25.2903 1611.79 25.4494 1610.9 L31.465 1610.87 Z" fill="#000000" fill-rule="evenodd" fill-opacity="1" /><path clip-path="url(#clip940)" d="M43.719 1588.52 Q43.719 1595.62 45.3422 1598.36 Q46.9655 1601.1 50.8804 1601.1 Q53.9996 1601.1 55.8457 1599.06 Q57.6599 1596.99 57.6599 1593.46 Q57.6599 1588.59 54.2224 1585.66 Q50.7531 1582.7 45.0239 1582.7 L43.719 1582.7 L43.719 1588.52 M41.3 1576.84 L61.6384 1576.84 L61.6384 1582.7 L56.2276 1582.7 Q59.4741 1584.71 61.0337 1587.7 Q62.5615 1590.69 62.5615 1595.02 Q62.5615 1600.49 59.5059 1603.74 Q56.4186 1606.95 51.2623 1606.95 Q45.2467 1606.95 42.1912 1602.94 Q39.1357 1598.9 39.1357 1590.91 L39.1357 1582.7 L38.5628 1582.7 Q34.5205 1582.7 32.3244 1585.37 Q30.0964 1588.02 30.0964 1592.82 Q30.0964 1595.88 30.8284 1598.77 Q31.5605 1601.67 33.0246 1604.34 L27.6137 1604.34 Q26.3724 1601.13 25.7677 1598.1 Q25.1311 1595.08 25.1311 1592.22 Q25.1311 1584.48 29.1415 1580.66 Q33.1519 1576.84 41.3 1576.84 Z" fill="#000000" fill-rule="evenodd" fill-opacity="1" /><path clip-path="url(#clip940)" d="M25.9905 1564.78 L25.9905 1558.92 L61.6384 1558.92 L61.6384 1564.78 L25.9905 1564.78 M12.1132 1564.78 L12.1132 1558.92 L19.5293 1558.92 L19.5293 1564.78 L12.1132 1564.78 Z" fill="#000000" fill-rule="evenodd" fill-opacity="1" /><path clip-path="url(#clip940)" d="M40.1224 1517.04 L61.6384 1517.04 L61.6384 1522.89 L40.3133 1522.89 Q35.2526 1522.89 32.7381 1524.87 Q30.2237 1526.84 30.2237 1530.79 Q30.2237 1535.53 33.2474 1538.27 Q36.2711 1541 41.491 1541 L61.6384 1541 L61.6384 1546.89 L25.9905 1546.89 L25.9905 1541 L31.5287 1541 Q28.314 1538.9 26.7225 1536.07 Q25.1311 1533.21 25.1311 1529.48 Q25.1311 1523.34 28.9505 1520.19 Q32.7381 1517.04 40.1224 1517.04 Z" fill="#000000" fill-rule="evenodd" fill-opacity="1" /><path clip-path="url(#clip940)" d="M40.1224 1455 L61.6384 1455 L61.6384 1460.86 L40.3133 1460.86 Q35.2526 1460.86 32.7381 1462.83 Q30.2237 1464.81 30.2237 1468.75 Q30.2237 1473.5 33.2474 1476.23 Q36.2711 1478.97 41.491 1478.97 L61.6384 1478.97 L61.6384 1484.86 L12.1132 1484.86 L12.1132 1478.97 L31.5287 1478.97 Q28.314 1476.87 26.7225 1474.04 Q25.1311 1471.17 25.1311 1467.45 Q25.1311 1461.31 28.9505 1458.15 Q32.7381 1455 40.1224 1455 Z" fill="#000000" fill-rule="evenodd" fill-opacity="1" /><path clip-path="url(#clip940)" d="M42.3504 1412.83 L45.2149 1412.83 L45.2149 1439.76 Q51.2623 1439.38 54.4452 1436.13 Q57.5962 1432.85 57.5962 1427.03 Q57.5962 1423.65 56.7687 1420.5 Q55.9411 1417.32 54.2861 1414.2 L59.8242 1414.2 Q61.161 1417.35 61.8612 1420.66 Q62.5615 1423.97 62.5615 1427.38 Q62.5615 1435.91 57.5962 1440.9 Q52.631 1445.87 44.1646 1445.87 Q35.4117 1445.87 30.2873 1441.16 Q25.1311 1436.42 25.1311 1428.4 Q25.1311 1421.2 29.7781 1417.03 Q34.3932 1412.83 42.3504 1412.83 M40.6316 1418.69 Q35.8255 1418.75 32.9609 1421.39 Q30.0964 1424 30.0964 1428.33 Q30.0964 1433.23 32.8654 1436.19 Q35.6345 1439.12 40.6634 1439.57 L40.6316 1418.69 Z" fill="#000000" fill-rule="evenodd" fill-opacity="1" /><path clip-path="url(#clip940)" d="M25.9905 1403.22 L25.9905 1397.36 L61.6384 1397.36 L61.6384 1403.22 L25.9905 1403.22 M12.1132 1403.22 L12.1132 1397.36 L19.5293 1397.36 L19.5293 1403.22 L12.1132 1403.22 Z" fill="#000000" fill-rule="evenodd" fill-opacity="1" /><path clip-path="url(#clip940)" d="M43.4007 1361.65 Q37.035 1361.65 33.5338 1364.29 Q30.0327 1366.9 30.0327 1371.64 Q30.0327 1376.36 33.5338 1379 Q37.035 1381.61 43.4007 1381.61 Q49.7346 1381.61 53.2357 1379 Q56.7368 1376.36 56.7368 1371.64 Q56.7368 1366.9 53.2357 1364.29 Q49.7346 1361.65 43.4007 1361.65 M57.2143 1355.79 Q66.3172 1355.79 70.7414 1359.84 Q75.1974 1363.88 75.1974 1372.22 Q75.1974 1375.31 74.72 1378.04 Q74.2744 1380.78 73.3195 1383.36 L67.6222 1383.36 Q69.0227 1380.78 69.6911 1378.27 Q70.3595 1375.75 70.3595 1373.14 Q70.3595 1367.38 67.3358 1364.52 Q64.3439 1361.65 58.2646 1361.65 L55.3682 1361.65 Q58.5192 1363.46 60.0788 1366.3 Q61.6384 1369.13 61.6384 1373.08 Q61.6384 1379.63 56.6414 1383.64 Q51.6443 1387.65 43.4007 1387.65 Q35.1253 1387.65 30.1282 1383.64 Q25.1311 1379.63 25.1311 1373.08 Q25.1311 1369.13 26.6907 1366.3 Q28.2503 1363.46 31.4013 1361.65 L25.9905 1361.65 L25.9905 1355.79 L57.2143 1355.79 Z" fill="#000000" fill-rule="evenodd" fill-opacity="1" /><path clip-path="url(#clip940)" d="M40.1224 1314.1 L61.6384 1314.1 L61.6384 1319.96 L40.3133 1319.96 Q35.2526 1319.96 32.7381 1321.93 Q30.2237 1323.9 30.2237 1327.85 Q30.2237 1332.59 33.2474 1335.33 Q36.2711 1338.07 41.491 1338.07 L61.6384 1338.07 L61.6384 1343.95 L12.1132 1343.95 L12.1132 1338.07 L31.5287 1338.07 Q28.314 1335.97 26.7225 1333.13 Q25.1311 1330.27 25.1311 1326.54 Q25.1311 1320.4 28.9505 1317.25 Q32.7381 1314.1 40.1224 1314.1 Z" fill="#000000" fill-rule="evenodd" fill-opacity="1" /><path clip-path="url(#clip940)" d="M15.869 1296.62 L25.9905 1296.62 L25.9905 1284.56 L30.542 1284.56 L30.542 1296.62 L49.8937 1296.62 Q54.2542 1296.62 55.4955 1295.45 Q56.7368 1294.24 56.7368 1290.58 L56.7368 1284.56 L61.6384 1284.56 L61.6384 1290.58 Q61.6384 1297.36 59.124 1299.94 Q56.5777 1302.51 49.8937 1302.51 L30.542 1302.51 L30.542 1306.81 L25.9905 1306.81 L25.9905 1302.51 L15.869 1302.51 L15.869 1296.62 Z" fill="#000000" fill-rule="evenodd" fill-opacity="1" /><polyline clip-path="url(#clip944)" style="stroke:#009af9; stroke-linecap:round; stroke-linejoin:round; stroke-width:4; stroke-opacity:1; fill:none" points="323.787,1721.34 473.753,1721.34 623.718,1721.34 773.684,1721.34 923.649,1721.34 1073.62,1721.34 1223.58,1721.34 1373.55,1295.58 1523.51,1295.58 1673.48,1295.58 1823.44,1295.58 1973.41,1295.58 2123.37,1295.58 2273.34,1295.58 2423.31,1295.58 2573.27,1295.58 "/>
<circle clip-path="url(#clip944)" cx="323.787" cy="1721.34" r="14.4" fill="#009af9" fill-rule="evenodd" fill-opacity="1" stroke="#000000" stroke-opacity="1" stroke-width="3.84"/>
<circle clip-path="url(#clip944)" cx="473.753" cy="1721.34" r="14.4" fill="#009af9" fill-rule="evenodd" fill-opacity="1" stroke="#000000" stroke-opacity="1" stroke-width="3.84"/>
<circle clip-path="url(#clip944)" cx="623.718" cy="1721.34" r="14.4" fill="#009af9" fill-rule="evenodd" fill-opacity="1" stroke="#000000" stroke-opacity="1" stroke-width="3.84"/>
<circle clip-path="url(#clip944)" cx="773.684" cy="1721.34" r="14.4" fill="#009af9" fill-rule="evenodd" fill-opacity="1" stroke="#000000" stroke-opacity="1" stroke-width="3.84"/>
<circle clip-path="url(#clip944)" cx="923.649" cy="1721.34" r="14.4" fill="#009af9" fill-rule="evenodd" fill-opacity="1" stroke="#000000" stroke-opacity="1" stroke-width="3.84"/>
<circle clip-path="url(#clip944)" cx="1073.62" cy="1721.34" r="14.4" fill="#009af9" fill-rule="evenodd" fill-opacity="1" stroke="#000000" stroke-opacity="1" stroke-width="3.84"/>
<circle clip-path="url(#clip944)" cx="1223.58" cy="1721.34" r="14.4" fill="#009af9" fill-rule="evenodd" fill-opacity="1" stroke="#000000" stroke-opacity="1" stroke-width="3.84"/>
<circle clip-path="url(#clip944)" cx="1373.55" cy="1295.58" r="14.4" fill="#009af9" fill-rule="evenodd" fill-opacity="1" stroke="#000000" stroke-opacity="1" stroke-width="3.84"/>
<circle clip-path="url(#clip944)" cx="1523.51" cy="1295.58" r="14.4" fill="#009af9" fill-rule="evenodd" fill-opacity="1" stroke="#000000" stroke-opacity="1" stroke-width="3.84"/>
<circle clip-path="url(#clip944)" cx="1673.48" cy="1295.58" r="14.4" fill="#009af9" fill-rule="evenodd" fill-opacity="1" stroke="#000000" stroke-opacity="1" stroke-width="3.84"/>
<circle clip-path="url(#clip944)" cx="1823.44" cy="1295.58" r="14.4" fill="#009af9" fill-rule="evenodd" fill-opacity="1" stroke="#000000" stroke-opacity="1" stroke-width="3.84"/>
<circle clip-path="url(#clip944)" cx="1973.41" cy="1295.58" r="14.4" fill="#009af9" fill-rule="evenodd" fill-opacity="1" stroke="#000000" stroke-opacity="1" stroke-width="3.84"/>
<circle clip-path="url(#clip944)" cx="2123.37" cy="1295.58" r="14.4" fill="#009af9" fill-rule="evenodd" fill-opacity="1" stroke="#000000" stroke-opacity="1" stroke-width="3.84"/>
<circle clip-path="url(#clip944)" cx="2273.34" cy="1295.58" r="14.4" fill="#009af9" fill-rule="evenodd" fill-opacity="1" stroke="#000000" stroke-opacity="1" stroke-width="3.84"/>
<circle clip-path="url(#clip944)" cx="2423.31" cy="1295.58" r="14.4" fill="#009af9" fill-rule="evenodd" fill-opacity="1" stroke="#000000" stroke-opacity="1" stroke-width="3.84"/>
<circle clip-path="url(#clip944)" cx="2573.27" cy="1295.58" r="14.4" fill="#009af9" fill-rule="evenodd" fill-opacity="1" stroke="#000000" stroke-opacity="1" stroke-width="3.84"/>
<path clip-path="url(#clip940)" d="M2269.82 1719.07 L2561.27 1719.07 L2561.27 1615.39 L2269.82 1615.39  Z" fill="#ffffff" fill-rule="evenodd" fill-opacity="1"/>
<polyline clip-path="url(#clip940)" style="stroke:#000000; stroke-linecap:round; stroke-linejoin:round; stroke-width:4; stroke-opacity:1; fill:none" points="2269.82,1719.07 2561.27,1719.07 2561.27,1615.39 2269.82,1615.39 2269.82,1719.07 "/>
<polyline clip-path="url(#clip940)" style="stroke:#009af9; stroke-linecap:round; stroke-linejoin:round; stroke-width:4; stroke-opacity:1; fill:none" points="2296.31,1667.23 2455.28,1667.23 "/>
<circle clip-path="url(#clip940)" cx="2375.8" cy="1667.23" r="22.0783" fill="#009af9" fill-rule="evenodd" fill-opacity="1" stroke="#000000" stroke-opacity="1" stroke-width="6.144"/>
<path clip-path="url(#clip940)" d="M2495.61 1686.92 Q2493.81 1691.55 2492.1 1692.96 Q2490.38 1694.37 2487.51 1694.37 L2484.11 1694.37 L2484.11 1690.81 L2486.61 1690.81 Q2488.37 1690.81 2489.34 1689.98 Q2490.31 1689.14 2491.49 1686.04 L2492.26 1684.1 L2481.77 1658.59 L2486.29 1658.59 L2494.39 1678.87 L2502.49 1658.59 L2507 1658.59 L2495.61 1686.92 Z" fill="#000000" fill-rule="evenodd" fill-opacity="1" /><path clip-path="url(#clip940)" d="M2527.65 1665.88 Q2531.01 1666.6 2532.88 1668.87 Q2534.78 1671.13 2534.78 1674.47 Q2534.78 1679.58 2531.26 1682.38 Q2527.74 1685.18 2521.26 1685.18 Q2519.09 1685.18 2516.77 1684.74 Q2514.48 1684.33 2512.03 1683.47 L2512.03 1678.96 Q2513.97 1680.09 2516.28 1680.67 Q2518.6 1681.25 2521.12 1681.25 Q2525.52 1681.25 2527.81 1679.51 Q2530.13 1677.78 2530.13 1674.47 Q2530.13 1671.41 2527.97 1669.7 Q2525.85 1667.96 2522.03 1667.96 L2518 1667.96 L2518 1664.12 L2522.21 1664.12 Q2525.66 1664.12 2527.49 1662.75 Q2529.32 1661.37 2529.32 1658.77 Q2529.32 1656.11 2527.42 1654.7 Q2525.54 1653.26 2522.03 1653.26 Q2520.1 1653.26 2517.91 1653.68 Q2515.71 1654.1 2513.07 1654.98 L2513.07 1650.81 Q2515.73 1650.07 2518.04 1649.7 Q2520.38 1649.33 2522.44 1649.33 Q2527.77 1649.33 2530.87 1651.76 Q2533.97 1654.17 2533.97 1658.29 Q2533.97 1661.16 2532.33 1663.15 Q2530.68 1665.12 2527.65 1665.88 Z" fill="#000000" fill-rule="evenodd" fill-opacity="1" /></svg>
