<?xml version="1.0" encoding="utf-8"?>
<svg xmlns="http://www.w3.org/2000/svg" xmlns:xlink="http://www.w3.org/1999/xlink" width="672" height="480" viewBox="0 0 2688 1920">
<defs>
  <clipPath id="clip050">
    <rect x="0" y="0" width="2688" height="1920"/>
  </clipPath>
</defs>
<path clip-path="url(#clip050)" d="M0 1920 L2688 1920 L2688 0 L0 0  Z" fill="#ffffff" fill-rule="evenodd" fill-opacity="1"/>
<defs>
  <clipPath id="clip051">
    <rect x="537" y="0" width="1883" height="1883"/>
  </clipPath>
</defs>
<path clip-path="url(#clip050)" d="M256.302 1734.12 L2640.76 1734.12 L2640.76 47.2441 L256.302 47.2441  Z" fill="#ffffff" fill-rule="evenodd" fill-opacity="1"/>
<defs>
  <clipPath id="clip052">
    <rect x="256" y="47" width="2385" height="1688"/>
  </clipPath>
</defs>
<polyline clip-path="url(#clip052)" style="stroke:#000000; stroke-linecap:round; stroke-linejoin:round; stroke-width:2; stroke-opacity:0.1; fill:none" points="627.277,1734.12 627.277,47.2441 "/>
<polyline clip-path="url(#clip052)" style="stroke:#000000; stroke-linecap:round; stroke-linejoin:round; stroke-width:2; stroke-opacity:0.1; fill:none" points="1091.47,1734.12 1091.47,47.2441 "/>
<polyline clip-path="url(#clip052)" style="stroke:#000000; stroke-linecap:round; stroke-linejoin:round; stroke-width:2; stroke-opacity:0.1; fill:none" points="1555.66,1734.12 1555.66,47.2441 "/>
<polyline clip-path="url(#clip052)" style="stroke:#000000; stroke-linecap:round; stroke-linejoin:round; stroke-width:2; stroke-opacity:0.1; fill:none" points="2019.84,1734.12 2019.84,47.2441 "/>
<polyline clip-path="url(#clip052)" style="stroke:#000000; stroke-linecap:round; stroke-linejoin:round; stroke-width:2; stroke-opacity:0.1; fill:none" points="2484.03,1734.12 2484.03,47.2441 "/>
<polyline clip-path="url(#clip050)" style="stroke:#000000; stroke-linecap:round; stroke-linejoin:round; stroke-width:4; stroke-opacity:1; fill:none" points="256.302,1734.12 2640.76,1734.12 "/>
<polyline clip-path="url(#clip050)" style="stroke:#000000; stroke-linecap:round; stroke-linejoin:round; stroke-width:4; stroke-opacity:1; fill:none" points="627.277,1734.12 627.277,1715.22 "/>
<polyline clip-path="url(#clip050)" style="stroke:#000000; stroke-linecap:round; stroke-linejoin:round; stroke-width:4; stroke-opacity:1; fill:none" points="1091.47,1734.12 1091.47,1715.22 "/>
<polyline clip-path="url(#clip050)" style="stroke:#000000; stroke-linecap:round; stroke-linejoin:round; stroke-width:4; stroke-opacity:1; fill:none" points="1555.66,1734.12 1555.66,1715.22 "/>
<polyline clip-path="url(#clip050)" style="stroke:#000000; stroke-linecap:round; stroke-linejoin:round; stroke-width:4; stroke-opacity:1; fill:none" points="2019.84,1734.12 2019.84,1715.22 "/>
<polyline clip-path="url(#clip050)" style="stroke:#000000; stroke-linecap:round; stroke-linejoin:round; stroke-width:4; stroke-opacity:1; fill:none" points="2484.03,1734.12 2484.03,1715.22 "/>
<path clip-path="url(#clip050)" d="M617.555 1764.26 L635.912 1764.26 L635.912 1768.2 L621.838 1768.2 L621.838 1776.67 Q622.856 1776.32 623.875 1776.16 Q624.893 1775.97 625.912 1775.97 Q631.699 1775.97 635.078 1779.15 Q638.458 1782.32 638.458 1787.73 Q638.458 1793.31 634.986 1796.41 Q631.514 1799.49 625.194 1799.49 Q623.018 1799.49 620.75 1799.12 Q618.504 1798.75 616.097 1798.01 L616.097 1793.31 Q618.18 1794.45 620.402 1795 Q622.625 1795.56 625.102 1795.56 Q629.106 1795.56 631.444 1793.45 Q633.782 1791.34 633.782 1787.73 Q633.782 1784.12 631.444 1782.02 Q629.106 1779.91 625.102 1779.91 Q623.227 1779.91 621.352 1780.33 Q619.5 1780.74 617.555 1781.62 L617.555 1764.26 Z" fill="#000000" fill-rule="evenodd" fill-opacity="1" /><path clip-path="url(#clip050)" d="M1066.15 1794.89 L1073.79 1794.89 L1073.79 1768.52 L1065.48 1770.19 L1065.48 1765.93 L1073.75 1764.26 L1078.42 1764.26 L1078.42 1794.89 L1086.06 1794.89 L1086.06 1798.82 L1066.15 1798.82 L1066.15 1794.89 Z" fill="#000000" fill-rule="evenodd" fill-opacity="1" /><path clip-path="url(#clip050)" d="M1105.51 1767.34 Q1101.89 1767.34 1100.07 1770.9 Q1098.26 1774.45 1098.26 1781.58 Q1098.26 1788.68 1100.07 1792.25 Q1101.89 1795.79 1105.51 1795.79 Q1109.14 1795.79 1110.95 1792.25 Q1112.77 1788.68 1112.77 1781.58 Q1112.77 1774.45 1110.95 1770.9 Q1109.14 1767.34 1105.51 1767.34 M1105.51 1763.64 Q1111.32 1763.64 1114.37 1768.24 Q1117.45 1772.83 1117.45 1781.58 Q1117.45 1790.3 1114.37 1794.91 Q1111.32 1799.49 1105.51 1799.49 Q1099.7 1799.49 1096.62 1794.91 Q1093.56 1790.3 1093.56 1781.58 Q1093.56 1772.83 1096.62 1768.24 Q1099.7 1763.64 1105.51 1763.64 Z" fill="#000000" fill-rule="evenodd" fill-opacity="1" /><path clip-path="url(#clip050)" d="M1530.84 1794.89 L1538.48 1794.89 L1538.48 1768.52 L1530.17 1770.19 L1530.17 1765.93 L1538.43 1764.26 L1543.11 1764.26 L1543.11 1794.89 L1550.75 1794.89 L1550.75 1798.82 L1530.84 1798.82 L1530.84 1794.89 Z" fill="#000000" fill-rule="evenodd" fill-opacity="1" /><path clip-path="url(#clip050)" d="M1560.24 1764.26 L1578.6 1764.26 L1578.6 1768.2 L1564.52 1768.2 L1564.52 1776.67 Q1565.54 1776.32 1566.56 1776.16 Q1567.58 1775.97 1568.6 1775.97 Q1574.38 1775.97 1577.76 1779.15 Q1581.14 1782.32 1581.14 1787.73 Q1581.14 1793.31 1577.67 1796.41 Q1574.2 1799.49 1567.88 1799.49 Q1565.7 1799.49 1563.43 1799.12 Q1561.19 1798.75 1558.78 1798.01 L1558.78 1793.31 Q1560.86 1794.45 1563.09 1795 Q1565.31 1795.56 1567.79 1795.56 Q1571.79 1795.56 1574.13 1793.45 Q1576.47 1791.34 1576.47 1787.73 Q1576.47 1784.12 1574.13 1782.02 Q1571.79 1779.91 1567.79 1779.91 Q1565.91 1779.91 1564.04 1780.33 Q1562.18 1780.74 1560.24 1781.62 L1560.24 1764.26 Z" fill="#000000" fill-rule="evenodd" fill-opacity="1" /><path clip-path="url(#clip050)" d="M1998.62 1794.89 L2014.94 1794.89 L2014.94 1798.82 L1992.99 1798.82 L1992.99 1794.89 Q1995.65 1792.13 2000.24 1787.5 Q2004.84 1782.85 2006.03 1781.51 Q2008.27 1778.98 2009.15 1777.25 Q2010.05 1775.49 2010.05 1773.8 Q2010.05 1771.04 2008.11 1769.31 Q2006.19 1767.57 2003.09 1767.57 Q2000.89 1767.57 1998.43 1768.34 Q1996 1769.1 1993.22 1770.65 L1993.22 1765.93 Q1996.05 1764.79 1998.5 1764.21 Q2000.96 1763.64 2002.99 1763.64 Q2008.36 1763.64 2011.56 1766.32 Q2014.75 1769.01 2014.75 1773.5 Q2014.75 1775.63 2013.94 1777.55 Q2013.15 1779.45 2011.05 1782.04 Q2010.47 1782.71 2007.37 1785.93 Q2004.27 1789.12 1998.62 1794.89 Z" fill="#000000" fill-rule="evenodd" fill-opacity="1" /><path clip-path="url(#clip050)" d="M2034.75 1767.34 Q2031.14 1767.34 2029.31 1770.9 Q2027.51 1774.45 2027.51 1781.58 Q2027.51 1788.68 2029.31 1792.25 Q2031.14 1795.79 2034.75 1795.79 Q2038.39 1795.79 2040.19 1792.25 Q2042.02 1788.68 2042.02 1781.58 Q2042.02 1774.45 2040.19 1770.9 Q2038.39 1767.34 2034.75 1767.34 M2034.75 1763.64 Q2040.56 1763.64 2043.62 1768.24 Q2046.7 1772.83 2046.7 1781.58 Q2046.7 1790.3 2043.62 1794.91 Q2040.56 1799.49 2034.75 1799.49 Q2028.94 1799.49 2025.86 1794.91 Q2022.81 1790.3 2022.81 1781.58 Q2022.81 1772.83 2025.86 1768.24 Q2028.94 1763.64 2034.75 1763.64 Z" fill="#000000" fill-rule="evenodd" fill-opacity="1" /><path clip-path="url(#clip050)" d="M2463.3 1794.89 L2479.62 1794.89 L2479.62 1798.82 L2457.68 1798.82 L2457.68 1794.89 Q2460.34 1792.13 2464.92 1787.5 Q2469.53 1782.85 2470.71 1781.51 Q2472.96 1778.98 2473.84 1777.25 Q2474.74 1775.49 2474.74 1773.8 Q2474.74 1771.04 2472.8 1769.31 Q2470.87 1767.57 2467.77 1767.57 Q2465.57 1767.57 2463.12 1768.34 Q2460.69 1769.1 2457.91 1770.65 L2457.91 1765.93 Q2460.74 1764.79 2463.19 1764.21 Q2465.64 1763.64 2467.68 1763.64 Q2473.05 1763.64 2476.24 1766.32 Q2479.44 1769.01 2479.44 1773.5 Q2479.44 1775.63 2478.63 1777.55 Q2477.84 1779.45 2475.73 1782.04 Q2475.16 1782.71 2472.05 1785.93 Q2468.95 1789.12 2463.3 1794.89 Z" fill="#000000" fill-rule="evenodd" fill-opacity="1" /><path clip-path="url(#clip050)" d="M2489.48 1764.26 L2507.84 1764.26 L2507.84 1768.2 L2493.77 1768.2 L2493.77 1776.67 Q2494.79 1776.32 2495.8 1776.16 Q2496.82 1775.97 2497.84 1775.97 Q2503.63 1775.97 2507.01 1779.15 Q2510.39 1782.32 2510.39 1787.73 Q2510.39 1793.31 2506.92 1796.41 Q2503.44 1799.49 2497.12 1799.49 Q2494.95 1799.49 2492.68 1799.12 Q2490.43 1798.75 2488.03 1798.01 L2488.03 1793.31 Q2490.11 1794.45 2492.33 1795 Q2494.55 1795.56 2497.03 1795.56 Q2501.04 1795.56 2503.37 1793.45 Q2505.71 1791.34 2505.71 1787.73 Q2505.71 1784.12 2503.37 1782.02 Q2501.04 1779.91 2497.03 1779.91 Q2495.16 1779.91 2493.28 1780.33 Q2491.43 1780.74 2489.48 1781.62 L2489.48 1764.26 Z" fill="#000000" fill-rule="evenodd" fill-opacity="1" /><path clip-path="url(#clip050)" d="M1387.69 1837.53 L1387.69 1847.65 L1399.75 1847.65 L1399.75 1852.2 L1387.69 1852.2 L1387.69 1871.56 Q1387.69 1875.92 1388.87 1877.16 Q1390.08 1878.4 1393.74 1878.4 L1399.75 1878.4 L1399.75 1883.3 L1393.74 1883.3 Q1386.96 1883.3 1384.38 1880.79 Q1381.8 1878.24 1381.8 1871.56 L1381.8 1852.2 L1377.5 1852.2 L1377.5 1847.65 L1381.8 1847.65 L1381.8 1837.53 L1387.69 1837.53 Z" fill="#000000" fill-rule="evenodd" fill-opacity="1" /><path clip-path="url(#clip050)" d="M1407.45 1847.65 L1413.31 1847.65 L1413.31 1883.3 L1407.45 1883.3 L1407.45 1847.65 M1407.45 1833.78 L1413.31 1833.78 L1413.31 1841.19 L1407.45 1841.19 L1407.45 1833.78 Z" fill="#000000" fill-rule="evenodd" fill-opacity="1" /><path clip-path="url(#clip050)" d="M1453.32 1854.5 Q1455.52 1850.55 1458.57 1848.67 Q1461.63 1846.79 1465.76 1846.79 Q1471.33 1846.79 1474.36 1850.71 Q1477.38 1854.59 1477.38 1861.78 L1477.38 1883.3 L1471.49 1883.3 L1471.49 1861.98 Q1471.49 1856.85 1469.68 1854.37 Q1467.87 1851.89 1464.14 1851.89 Q1459.59 1851.89 1456.95 1854.91 Q1454.31 1857.93 1454.31 1863.15 L1454.31 1883.3 L1448.42 1883.3 L1448.42 1861.98 Q1448.42 1856.82 1446.6 1854.37 Q1444.79 1851.89 1441 1851.89 Q1436.51 1851.89 1433.87 1854.94 Q1431.23 1857.97 1431.23 1863.15 L1431.23 1883.3 L1425.34 1883.3 L1425.34 1847.65 L1431.23 1847.65 L1431.23 1853.19 Q1433.24 1849.91 1436.04 1848.35 Q1438.84 1846.79 1442.69 1846.79 Q1446.57 1846.79 1449.28 1848.77 Q1452.01 1850.74 1453.32 1854.5 Z" fill="#000000" fill-rule="evenodd" fill-opacity="1" /><path clip-path="url(#clip050)" d="M1519.55 1864.01 L1519.55 1866.88 L1492.63 1866.88 Q1493.01 1872.92 1496.26 1876.11 Q1499.53 1879.26 1505.36 1879.26 Q1508.73 1879.26 1511.88 1878.43 Q1515.07 1877.6 1518.19 1875.95 L1518.19 1881.49 Q1515.03 1882.82 1511.72 1883.52 Q1508.41 1884.22 1505.01 1884.22 Q1496.48 1884.22 1491.48 1879.26 Q1486.52 1874.29 1486.52 1865.83 Q1486.52 1857.07 1491.23 1851.95 Q1495.97 1846.79 1503.99 1846.79 Q1511.18 1846.79 1515.35 1851.44 Q1519.55 1856.06 1519.55 1864.01 M1513.7 1862.29 Q1513.63 1857.49 1510.99 1854.62 Q1508.38 1851.76 1504.05 1851.76 Q1499.15 1851.76 1496.19 1854.53 Q1493.26 1857.3 1492.82 1862.33 L1513.7 1862.29 Z" fill="#000000" fill-rule="evenodd" fill-opacity="1" /><polyline clip-path="url(#clip052)" style="stroke:#000000; stroke-linecap:round; stroke-linejoin:round; stroke-width:2; stroke-opacity:0.1; fill:none" points="256.302,1537.53 2640.76,1537.53 "/>
<polyline clip-path="url(#clip052)" style="stroke:#000000; stroke-linecap:round; stroke-linejoin:round; stroke-width:2; stroke-opacity:0.1; fill:none" points="256.302,1257.49 2640.76,1257.49 "/>
<polyline clip-path="url(#clip052)" style="stroke:#000000; stroke-linecap:round; stroke-linejoin:round; stroke-width:2; stroke-opacity:0.1; fill:none" points="256.302,977.448 2640.76,977.448 "/>
<polyline clip-path="url(#clip052)" style="stroke:#000000; stroke-linecap:round; stroke-linejoin:round; stroke-width:2; stroke-opacity:0.1; fill:none" points="256.302,697.409 2640.76,697.409 "/>
<polyline clip-path="url(#clip052)" style="stroke:#000000; stroke-linecap:round; stroke-linejoin:round; stroke-width:2; stroke-opacity:0.1; fill:none" points="256.302,417.369 2640.76,417.369 "/>
<polyline clip-path="url(#clip052)" style="stroke:#000000; stroke-linecap:round; stroke-linejoin:round; stroke-width:2; stroke-opacity:0.1; fill:none" points="256.302,137.329 2640.76,137.329 "/>
<polyline clip-path="url(#clip050)" style="stroke:#000000; stroke-linecap:round; stroke-linejoin:round; stroke-width:4; stroke-opacity:1; fill:none" points="256.302,1734.12 256.302,47.2441 "/>
<polyline clip-path="url(#clip050)" style="stroke:#000000; stroke-linecap:round; stroke-linejoin:round; stroke-width:4; stroke-opacity:1; fill:none" points="256.302,1537.53 275.2,1537.53 "/>
<polyline clip-path="url(#clip050)" style="stroke:#000000; stroke-linecap:round; stroke-linejoin:round; stroke-width:4; stroke-opacity:1; fill:none" points="256.302,1257.49 275.2,1257.49 "/>
<polyline clip-path="url(#clip050)" style="stroke:#000000; stroke-linecap:round; stroke-linejoin:round; stroke-width:4; stroke-opacity:1; fill:none" points="256.302,977.448 275.2,977.448 "/>
<polyline clip-path="url(#clip050)" style="stroke:#000000; stroke-linecap:round; stroke-linejoin:round; stroke-width:4; stroke-opacity:1; fill:none" points="256.302,697.409 275.2,697.409 "/>
<polyline clip-path="url(#clip050)" style="stroke:#000000; stroke-linecap:round; stroke-linejoin:round; stroke-width:4; stroke-opacity:1; fill:none" points="256.302,417.369 275.2,417.369 "/>
<polyline clip-path="url(#clip050)" style="stroke:#000000; stroke-linecap:round; stroke-linejoin:round; stroke-width:4; stroke-opacity:1; fill:none" points="256.302,137.329 275.2,137.329 "/>
<path clip-path="url(#clip050)" d="M128.83 1523.33 Q125.219 1523.33 123.39 1526.89 Q121.585 1530.43 121.585 1537.56 Q121.585 1544.67 123.39 1548.23 Q125.219 1551.77 128.83 1551.77 Q132.464 1551.77 134.27 1548.23 Q136.099 1544.67 136.099 1537.56 Q136.099 1530.43 134.27 1526.89 Q132.464 1523.33 128.83 1523.33 M128.83 1519.62 Q134.64 1519.62 137.696 1524.23 Q140.774 1528.81 140.774 1537.56 Q140.774 1546.29 137.696 1550.9 Q134.64 1555.48 128.83 1555.48 Q123.02 1555.48 119.941 1550.9 Q116.886 1546.29 116.886 1537.56 Q116.886 1528.81 119.941 1524.23 Q123.02 1519.62 128.83 1519.62 Z" fill="#000000" fill-rule="evenodd" fill-opacity="1" /><path clip-path="url(#clip050)" d="M148.992 1548.93 L153.876 1548.93 L153.876 1554.81 L148.992 1554.81 L148.992 1548.93 Z" fill="#000000" fill-rule="evenodd" fill-opacity="1" /><path clip-path="url(#clip050)" d="M178.228 1536.17 Q181.584 1536.89 183.459 1539.16 Q185.358 1541.43 185.358 1544.76 Q185.358 1549.88 181.839 1552.68 Q178.321 1555.48 171.839 1555.48 Q169.663 1555.48 167.348 1555.04 Q165.057 1554.62 162.603 1553.77 L162.603 1549.25 Q164.548 1550.39 166.862 1550.96 Q169.177 1551.54 171.7 1551.54 Q176.098 1551.54 178.39 1549.81 Q180.705 1548.07 180.705 1544.76 Q180.705 1541.71 178.552 1539.99 Q176.422 1538.26 172.603 1538.26 L168.575 1538.26 L168.575 1534.41 L172.788 1534.41 Q176.237 1534.41 178.066 1533.05 Q179.895 1531.66 179.895 1529.07 Q179.895 1526.4 177.997 1524.99 Q176.122 1523.56 172.603 1523.56 Q170.682 1523.56 168.483 1523.97 Q166.284 1524.39 163.645 1525.27 L163.645 1521.1 Q166.307 1520.36 168.622 1519.99 Q170.96 1519.62 173.02 1519.62 Q178.344 1519.62 181.446 1522.05 Q184.547 1524.46 184.547 1528.58 Q184.547 1531.45 182.904 1533.44 Q181.26 1535.41 178.228 1536.17 Z" fill="#000000" fill-rule="evenodd" fill-opacity="1" /><path clip-path="url(#clip050)" d="M194.362 1554.09 L194.362 1549.83 Q196.121 1550.66 197.927 1551.1 Q199.733 1551.54 201.469 1551.54 Q206.098 1551.54 208.529 1548.44 Q210.982 1545.32 211.33 1538.97 Q209.987 1540.96 207.927 1542.03 Q205.867 1543.09 203.367 1543.09 Q198.182 1543.09 195.149 1539.97 Q192.14 1536.82 192.14 1531.38 Q192.14 1526.06 195.288 1522.84 Q198.436 1519.62 203.668 1519.62 Q209.663 1519.62 212.811 1524.23 Q215.982 1528.81 215.982 1537.56 Q215.982 1545.73 212.094 1550.62 Q208.228 1555.48 201.677 1555.48 Q199.918 1555.48 198.112 1555.13 Q196.307 1554.78 194.362 1554.09 M203.668 1539.44 Q206.816 1539.44 208.645 1537.28 Q210.496 1535.13 210.496 1531.38 Q210.496 1527.65 208.645 1525.5 Q206.816 1523.33 203.668 1523.33 Q200.52 1523.33 198.668 1525.5 Q196.839 1527.65 196.839 1531.38 Q196.839 1535.13 198.668 1537.28 Q200.52 1539.44 203.668 1539.44 Z" fill="#000000" fill-rule="evenodd" fill-opacity="1" /><path clip-path="url(#clip050)" d="M128.645 1243.29 Q125.034 1243.29 123.205 1246.85 Q121.4 1250.39 121.4 1257.52 Q121.4 1264.63 123.205 1268.19 Q125.034 1271.74 128.645 1271.74 Q132.279 1271.74 134.085 1268.19 Q135.913 1264.63 135.913 1257.52 Q135.913 1250.39 134.085 1246.85 Q132.279 1243.29 128.645 1243.29 M128.645 1239.58 Q134.455 1239.58 137.511 1244.19 Q140.589 1248.77 140.589 1257.52 Q140.589 1266.25 137.511 1270.86 Q134.455 1275.44 128.645 1275.44 Q122.835 1275.44 119.756 1270.86 Q116.701 1266.25 116.701 1257.52 Q116.701 1248.77 119.756 1244.19 Q122.835 1239.58 128.645 1239.58 Z" fill="#000000" fill-rule="evenodd" fill-opacity="1" /><path clip-path="url(#clip050)" d="M148.807 1268.89 L153.691 1268.89 L153.691 1274.77 L148.807 1274.77 L148.807 1268.89 Z" fill="#000000" fill-rule="evenodd" fill-opacity="1" /><path clip-path="url(#clip050)" d="M176.723 1244.28 L164.918 1262.73 L176.723 1262.73 L176.723 1244.28 M175.497 1240.21 L181.376 1240.21 L181.376 1262.73 L186.307 1262.73 L186.307 1266.62 L181.376 1266.62 L181.376 1274.77 L176.723 1274.77 L176.723 1266.62 L161.122 1266.62 L161.122 1262.11 L175.497 1240.21 Z" fill="#000000" fill-rule="evenodd" fill-opacity="1" /><path clip-path="url(#clip050)" d="M204.038 1243.29 Q200.427 1243.29 198.598 1246.85 Q196.793 1250.39 196.793 1257.52 Q196.793 1264.63 198.598 1268.19 Q200.427 1271.74 204.038 1271.74 Q207.672 1271.74 209.478 1268.19 Q211.307 1264.63 211.307 1257.52 Q211.307 1250.39 209.478 1246.85 Q207.672 1243.29 204.038 1243.29 M204.038 1239.58 Q209.848 1239.58 212.904 1244.19 Q215.982 1248.77 215.982 1257.52 Q215.982 1266.25 212.904 1270.86 Q209.848 1275.44 204.038 1275.44 Q198.228 1275.44 195.149 1270.86 Q192.094 1266.25 192.094 1257.52 Q192.094 1248.77 195.149 1244.19 Q198.228 1239.58 204.038 1239.58 Z" fill="#000000" fill-rule="evenodd" fill-opacity="1" /><path clip-path="url(#clip050)" d="M129.872 963.247 Q126.261 963.247 124.432 966.812 Q122.626 970.353 122.626 977.483 Q122.626 984.589 124.432 988.154 Q126.261 991.696 129.872 991.696 Q133.506 991.696 135.312 988.154 Q137.14 984.589 137.14 977.483 Q137.14 970.353 135.312 966.812 Q133.506 963.247 129.872 963.247 M129.872 959.543 Q135.682 959.543 138.737 964.15 Q141.816 968.733 141.816 977.483 Q141.816 986.21 138.737 990.816 Q135.682 995.399 129.872 995.399 Q124.062 995.399 120.983 990.816 Q117.927 986.21 117.927 977.483 Q117.927 968.733 120.983 964.15 Q124.062 959.543 129.872 959.543 Z" fill="#000000" fill-rule="evenodd" fill-opacity="1" /><path clip-path="url(#clip050)" d="M150.034 988.849 L154.918 988.849 L154.918 994.728 L150.034 994.728 L150.034 988.849 Z" fill="#000000" fill-rule="evenodd" fill-opacity="1" /><path clip-path="url(#clip050)" d="M177.95 964.242 L166.145 982.691 L177.95 982.691 L177.95 964.242 M176.723 960.168 L182.603 960.168 L182.603 982.691 L187.534 982.691 L187.534 986.58 L182.603 986.58 L182.603 994.728 L177.95 994.728 L177.95 986.58 L162.348 986.58 L162.348 982.066 L176.723 960.168 Z" fill="#000000" fill-rule="evenodd" fill-opacity="1" /><path clip-path="url(#clip050)" d="M196.075 990.793 L203.714 990.793 L203.714 964.427 L195.404 966.094 L195.404 961.835 L203.668 960.168 L208.344 960.168 L208.344 990.793 L215.982 990.793 L215.982 994.728 L196.075 994.728 L196.075 990.793 Z" fill="#000000" fill-rule="evenodd" fill-opacity="1" /><path clip-path="url(#clip050)" d="M130.242 683.207 Q126.631 683.207 124.802 686.772 Q122.997 690.314 122.997 697.443 Q122.997 704.55 124.802 708.114 Q126.631 711.656 130.242 711.656 Q133.876 711.656 135.682 708.114 Q137.511 704.55 137.511 697.443 Q137.511 690.314 135.682 686.772 Q133.876 683.207 130.242 683.207 M130.242 679.504 Q136.052 679.504 139.108 684.11 Q142.187 688.693 142.187 697.443 Q142.187 706.17 139.108 710.776 Q136.052 715.36 130.242 715.36 Q124.432 715.36 121.353 710.776 Q118.298 706.17 118.298 697.443 Q118.298 688.693 121.353 684.11 Q124.432 679.504 130.242 679.504 Z" fill="#000000" fill-rule="evenodd" fill-opacity="1" /><path clip-path="url(#clip050)" d="M150.404 708.809 L155.288 708.809 L155.288 714.689 L150.404 714.689 L150.404 708.809 Z" fill="#000000" fill-rule="evenodd" fill-opacity="1" /><path clip-path="url(#clip050)" d="M178.321 684.203 L166.515 702.652 L178.321 702.652 L178.321 684.203 M177.094 680.129 L182.973 680.129 L182.973 702.652 L187.904 702.652 L187.904 706.54 L182.973 706.54 L182.973 714.689 L178.321 714.689 L178.321 706.54 L162.719 706.54 L162.719 702.027 L177.094 680.129 Z" fill="#000000" fill-rule="evenodd" fill-opacity="1" /><path clip-path="url(#clip050)" d="M199.663 710.753 L215.982 710.753 L215.982 714.689 L194.038 714.689 L194.038 710.753 Q196.7 707.999 201.283 703.369 Q205.89 698.716 207.07 697.374 Q209.316 694.851 210.195 693.115 Q211.098 691.355 211.098 689.665 Q211.098 686.911 209.154 685.175 Q207.232 683.439 204.131 683.439 Q201.932 683.439 199.478 684.203 Q197.047 684.966 194.27 686.517 L194.27 681.795 Q197.094 680.661 199.547 680.082 Q202.001 679.504 204.038 679.504 Q209.408 679.504 212.603 682.189 Q215.797 684.874 215.797 689.365 Q215.797 691.494 214.987 693.415 Q214.2 695.314 212.094 697.906 Q211.515 698.577 208.413 701.795 Q205.311 704.989 199.663 710.753 Z" fill="#000000" fill-rule="evenodd" fill-opacity="1" /><path clip-path="url(#clip050)" d="M129.293 403.168 Q125.682 403.168 123.853 406.732 Q122.048 410.274 122.048 417.404 Q122.048 424.51 123.853 428.075 Q125.682 431.617 129.293 431.617 Q132.927 431.617 134.733 428.075 Q136.562 424.51 136.562 417.404 Q136.562 410.274 134.733 406.732 Q132.927 403.168 129.293 403.168 M129.293 399.464 Q135.103 399.464 138.159 404.07 Q141.237 408.654 141.237 417.404 Q141.237 426.13 138.159 430.737 Q135.103 435.32 129.293 435.32 Q123.483 435.32 120.404 430.737 Q117.349 426.13 117.349 417.404 Q117.349 408.654 120.404 404.07 Q123.483 399.464 129.293 399.464 Z" fill="#000000" fill-rule="evenodd" fill-opacity="1" /><path clip-path="url(#clip050)" d="M149.455 428.769 L154.339 428.769 L154.339 434.649 L149.455 434.649 L149.455 428.769 Z" fill="#000000" fill-rule="evenodd" fill-opacity="1" /><path clip-path="url(#clip050)" d="M177.372 404.163 L165.566 422.612 L177.372 422.612 L177.372 404.163 M176.145 400.089 L182.024 400.089 L182.024 422.612 L186.955 422.612 L186.955 426.501 L182.024 426.501 L182.024 434.649 L177.372 434.649 L177.372 426.501 L161.77 426.501 L161.77 421.987 L176.145 400.089 Z" fill="#000000" fill-rule="evenodd" fill-opacity="1" /><path clip-path="url(#clip050)" d="M208.853 416.015 Q212.209 416.732 214.084 419.001 Q215.982 421.269 215.982 424.603 Q215.982 429.718 212.464 432.519 Q208.945 435.32 202.464 435.32 Q200.288 435.32 197.973 434.88 Q195.682 434.464 193.228 433.607 L193.228 429.093 Q195.172 430.228 197.487 430.806 Q199.802 431.385 202.325 431.385 Q206.723 431.385 209.015 429.649 Q211.33 427.913 211.33 424.603 Q211.33 421.547 209.177 419.834 Q207.047 418.098 203.228 418.098 L199.2 418.098 L199.2 414.256 L203.413 414.256 Q206.862 414.256 208.691 412.89 Q210.519 411.501 210.519 408.908 Q210.519 406.246 208.621 404.834 Q206.746 403.399 203.228 403.399 Q201.307 403.399 199.108 403.816 Q196.908 404.232 194.27 405.112 L194.27 400.945 Q196.932 400.205 199.246 399.834 Q201.584 399.464 203.645 399.464 Q208.969 399.464 212.07 401.894 Q215.172 404.302 215.172 408.422 Q215.172 411.293 213.529 413.283 Q211.885 415.251 208.853 416.015 Z" fill="#000000" fill-rule="evenodd" fill-opacity="1" /><path clip-path="url(#clip050)" d="M128.159 123.128 Q124.548 123.128 122.719 126.693 Q120.913 130.234 120.913 137.364 Q120.913 144.47 122.719 148.035 Q124.548 151.577 128.159 151.577 Q131.793 151.577 133.599 148.035 Q135.427 144.47 135.427 137.364 Q135.427 130.234 133.599 126.693 Q131.793 123.128 128.159 123.128 M128.159 119.424 Q133.969 119.424 137.025 124.031 Q140.103 128.614 140.103 137.364 Q140.103 146.091 137.025 150.697 Q133.969 155.281 128.159 155.281 Q122.349 155.281 119.27 150.697 Q116.214 146.091 116.214 137.364 Q116.214 128.614 119.27 124.031 Q122.349 119.424 128.159 119.424 Z" fill="#000000" fill-rule="evenodd" fill-opacity="1" /><path clip-path="url(#clip050)" d="M148.321 148.73 L153.205 148.73 L153.205 154.609 L148.321 154.609 L148.321 148.73 Z" fill="#000000" fill-rule="evenodd" fill-opacity="1" /><path clip-path="url(#clip050)" d="M176.237 124.123 L164.432 142.572 L176.237 142.572 L176.237 124.123 M175.01 120.049 L180.89 120.049 L180.89 142.572 L185.821 142.572 L185.821 146.461 L180.89 146.461 L180.89 154.609 L176.237 154.609 L176.237 146.461 L160.636 146.461 L160.636 141.947 L175.01 120.049 Z" fill="#000000" fill-rule="evenodd" fill-opacity="1" /><path clip-path="url(#clip050)" d="M206.399 124.123 L194.594 142.572 L206.399 142.572 L206.399 124.123 M205.172 120.049 L211.052 120.049 L211.052 142.572 L215.982 142.572 L215.982 146.461 L211.052 146.461 L211.052 154.609 L206.399 154.609 L206.399 146.461 L190.797 146.461 L190.797 141.947 L205.172 120.049 Z" fill="#000000" fill-rule="evenodd" fill-opacity="1" /><path clip-path="url(#clip050)" d="M32.8336 1135.46 Q28.8869 1133.26 27.009 1130.21 Q25.1311 1127.15 25.1311 1123.01 Q25.1311 1117.44 29.046 1114.42 Q32.9291 1111.4 40.1224 1111.4 L61.6384 1111.4 L61.6384 1117.28 L40.3133 1117.28 Q35.1889 1117.28 32.7063 1119.1 Q30.2237 1120.91 30.2237 1124.64 Q30.2237 1129.19 33.2474 1131.83 Q36.2711 1134.47 41.491 1134.47 L61.6384 1134.47 L61.6384 1140.36 L40.3133 1140.36 Q35.1571 1140.36 32.7063 1142.17 Q30.2237 1143.99 30.2237 1147.78 Q30.2237 1152.26 33.2792 1154.91 Q36.3029 1157.55 41.491 1157.55 L61.6384 1157.55 L61.6384 1163.44 L25.9905 1163.44 L25.9905 1157.55 L31.5287 1157.55 Q28.2503 1155.54 26.6907 1152.74 Q25.1311 1149.94 25.1311 1146.09 Q25.1311 1142.21 27.1045 1139.5 Q29.0779 1136.76 32.8336 1135.46 Z" fill="#000000" fill-rule="evenodd" fill-opacity="1" /><path clip-path="url(#clip050)" d="M25.9905 1099.71 L25.9905 1093.86 L61.6384 1093.86 L61.6384 1099.71 L25.9905 1099.71 M12.1132 1099.71 L12.1132 1093.86 L19.5293 1093.86 L19.5293 1099.71 L12.1132 1099.71 Z" fill="#000000" fill-rule="evenodd" fill-opacity="1" /><path clip-path="url(#clip050)" d="M31.4013 1058.15 L12.1132 1058.15 L12.1132 1052.29 L61.6384 1052.29 L61.6384 1058.15 L56.2912 1058.15 Q59.4741 1059.99 61.0337 1062.83 Q62.5615 1065.63 62.5615 1069.57 Q62.5615 1076.03 57.4052 1080.11 Q52.249 1084.15 43.8463 1084.15 Q35.4436 1084.15 30.2873 1080.11 Q25.1311 1076.03 25.1311 1069.57 Q25.1311 1065.63 26.6907 1062.83 Q28.2185 1059.99 31.4013 1058.15 M43.8463 1078.1 Q50.3075 1078.1 53.9996 1075.46 Q57.6599 1072.79 57.6599 1068.14 Q57.6599 1063.49 53.9996 1060.82 Q50.3075 1058.15 43.8463 1058.15 Q37.3851 1058.15 33.7248 1060.82 Q30.0327 1063.49 30.0327 1068.14 Q30.0327 1072.79 33.7248 1075.46 Q37.3851 1078.1 43.8463 1078.1 Z" fill="#000000" fill-rule="evenodd" fill-opacity="1" /><path clip-path="url(#clip050)" d="M27.0408 1017.5 L32.579 1017.5 Q31.3059 1019.98 30.6693 1022.66 Q30.0327 1025.33 30.0327 1028.2 Q30.0327 1032.56 31.3695 1034.75 Q32.7063 1036.92 35.3799 1036.92 Q37.4169 1036.92 38.5946 1035.36 Q39.7404 1033.8 40.7908 1029.09 L41.2364 1027.08 Q42.5732 1020.84 45.0239 1018.23 Q47.4429 1015.59 51.8034 1015.59 Q56.7687 1015.59 59.6651 1019.54 Q62.5615 1023.45 62.5615 1030.33 Q62.5615 1033.19 61.9886 1036.31 Q61.4475 1039.4 60.3335 1042.84 L54.2861 1042.84 Q55.973 1039.59 56.8323 1036.44 Q57.6599 1033.29 57.6599 1030.2 Q57.6599 1026.06 56.2594 1023.84 Q54.8271 1021.61 52.249 1021.61 Q49.8619 1021.61 48.5887 1023.23 Q47.3156 1024.82 46.1379 1030.26 L45.6605 1032.3 Q44.5147 1037.74 42.1594 1040.16 Q39.7722 1042.58 35.6345 1042.58 Q30.6056 1042.58 27.8684 1039.02 Q25.1311 1035.45 25.1311 1028.9 Q25.1311 1025.65 25.6085 1022.78 Q26.086 1019.92 27.0408 1017.5 Z" fill="#000000" fill-rule="evenodd" fill-opacity="1" /><path clip-path="url(#clip050)" d="M15.869 1000.47 L25.9905 1000.47 L25.9905 988.41 L30.542 988.41 L30.542 1000.47 L49.8937 1000.47 Q54.2542 1000.47 55.4955 999.295 Q56.7368 998.086 56.7368 994.426 L56.7368 988.41 L61.6384 988.41 L61.6384 994.426 Q61.6384 1001.21 59.124 1003.78 Q56.5777 1006.36 49.8937 1006.36 L30.542 1006.36 L30.542 1010.66 L25.9905 1010.66 L25.9905 1006.36 L15.869 1006.36 L15.869 1000.47 Z" fill="#000000" fill-rule="evenodd" fill-opacity="1" /><path clip-path="url(#clip050)" d="M43.719 964.507 Q43.719 971.605 45.3422 974.342 Q46.9655 977.079 50.8804 977.079 Q53.9996 977.079 55.8457 975.042 Q57.6599 972.973 57.6599 969.44 Q57.6599 964.57 54.2224 961.642 Q50.7531 958.682 45.0239 958.682 L43.719 958.682 L43.719 964.507 M41.3 952.826 L61.6384 952.826 L61.6384 958.682 L56.2276 958.682 Q59.4741 960.687 61.0337 963.679 Q62.5615 966.671 62.5615 971 Q62.5615 976.474 59.5059 979.721 Q56.4186 982.936 51.2623 982.936 Q45.2467 982.936 42.1912 978.925 Q39.1357 974.883 39.1357 966.894 L39.1357 958.682 L38.5628 958.682 Q34.5205 958.682 32.3244 961.356 Q30.0964 963.998 30.0964 968.804 Q30.0964 971.859 30.8284 974.756 Q31.5605 977.652 33.0246 980.326 L27.6137 980.326 Q26.3724 977.111 25.7677 974.087 Q25.1311 971.064 25.1311 968.199 Q25.1311 960.465 29.1415 956.645 Q33.1519 952.826 41.3 952.826 Z" fill="#000000" fill-rule="evenodd" fill-opacity="1" /><path clip-path="url(#clip050)" d="M40.1224 911.13 L61.6384 911.13 L61.6384 916.987 L40.3133 916.987 Q35.2526 916.987 32.7381 918.96 Q30.2237 920.934 30.2237 924.88 Q30.2237 929.623 33.2474 932.36 Q36.2711 935.097 41.491 935.097 L61.6384 935.097 L61.6384 940.986 L25.9905 940.986 L25.9905 935.097 L31.5287 935.097 Q28.314 932.997 26.7225 930.164 Q25.1311 927.299 25.1311 923.575 Q25.1311 917.432 28.9505 914.281 Q32.7381 911.13 40.1224 911.13 Z" fill="#000000" fill-rule="evenodd" fill-opacity="1" /><path clip-path="url(#clip050)" d="M27.3591 873.796 L32.8336 873.796 Q31.465 876.278 30.7966 878.793 Q30.0964 881.275 30.0964 883.821 Q30.0964 889.519 33.7248 892.67 Q37.3214 895.821 43.8463 895.821 Q50.3711 895.821 53.9996 892.67 Q57.5962 889.519 57.5962 883.821 Q57.5962 881.275 56.9278 878.793 Q56.2276 876.278 54.859 873.796 L60.2698 873.796 Q61.4156 876.246 61.9886 878.888 Q62.5615 881.498 62.5615 884.458 Q62.5615 892.511 57.5007 897.253 Q52.44 901.996 43.8463 901.996 Q35.1253 901.996 30.1282 897.221 Q25.1311 892.415 25.1311 884.076 Q25.1311 881.371 25.704 878.793 Q26.2451 876.214 27.3591 873.796 Z" fill="#000000" fill-rule="evenodd" fill-opacity="1" /><path clip-path="url(#clip050)" d="M42.3504 833.119 L45.2149 833.119 L45.2149 860.046 Q51.2623 859.664 54.4452 856.417 Q57.5962 853.139 57.5962 847.314 Q57.5962 843.94 56.7687 840.789 Q55.9411 837.606 54.2861 834.487 L59.8242 834.487 Q61.161 837.638 61.8612 840.948 Q62.5615 844.259 62.5615 847.664 Q62.5615 856.194 57.5962 861.191 Q52.631 866.157 44.1646 866.157 Q35.4117 866.157 30.2873 861.446 Q25.1311 856.704 25.1311 848.683 Q25.1311 841.49 29.7781 837.32 Q34.3932 833.119 42.3504 833.119 M40.6316 838.975 Q35.8255 839.039 32.9609 841.681 Q30.0964 844.29 30.0964 848.619 Q30.0964 853.521 32.8654 856.481 Q35.6345 859.409 40.6634 859.855 L40.6316 838.975 Z" fill="#000000" fill-rule="evenodd" fill-opacity="1" /><path clip-path="url(#clip050)" d="M27.0408 780.06 L32.579 780.06 Q31.3059 782.543 30.6693 785.217 Q30.0327 787.89 30.0327 790.755 Q30.0327 795.115 31.3695 797.312 Q32.7063 799.476 35.3799 799.476 Q37.4169 799.476 38.5946 797.916 Q39.7404 796.357 40.7908 791.646 L41.2364 789.641 Q42.5732 783.402 45.0239 780.793 Q47.4429 778.151 51.8034 778.151 Q56.7687 778.151 59.6651 782.097 Q62.5615 786.012 62.5615 792.887 Q62.5615 795.752 61.9886 798.871 Q61.4475 801.959 60.3335 805.396 L54.2861 805.396 Q55.973 802.149 56.8323 798.998 Q57.6599 795.847 57.6599 792.76 Q57.6599 788.622 56.2594 786.394 Q54.8271 784.166 52.249 784.166 Q49.8619 784.166 48.5887 785.79 Q47.3156 787.381 46.1379 792.824 L45.6605 794.861 Q44.5147 800.303 42.1594 802.722 Q39.7722 805.141 35.6345 805.141 Q30.6056 805.141 27.8684 801.577 Q25.1311 798.012 25.1311 791.455 Q25.1311 788.209 25.6085 785.344 Q26.086 782.479 27.0408 780.06 Z" fill="#000000" fill-rule="evenodd" fill-opacity="1" /><path clip-path="url(#clip050)" d="M56.2912 763.16 L75.1974 763.16 L75.1974 769.048 L25.9905 769.048 L25.9905 763.16 L31.4013 763.16 Q28.2185 761.313 26.6907 758.513 Q25.1311 755.68 25.1311 751.765 Q25.1311 745.272 30.2873 741.23 Q35.4436 737.156 43.8463 737.156 Q52.249 737.156 57.4052 741.23 Q62.5615 745.272 62.5615 751.765 Q62.5615 755.68 61.0337 758.513 Q59.4741 761.313 56.2912 763.16 M43.8463 743.235 Q37.3851 743.235 33.7248 745.908 Q30.0327 748.55 30.0327 753.197 Q30.0327 757.844 33.7248 760.518 Q37.3851 763.16 43.8463 763.16 Q50.3075 763.16 53.9996 760.518 Q57.6599 757.844 57.6599 753.197 Q57.6599 748.55 53.9996 745.908 Q50.3075 743.235 43.8463 743.235 Z" fill="#000000" fill-rule="evenodd" fill-opacity="1" /><path clip-path="url(#clip050)" d="M42.3504 696.956 L45.2149 696.956 L45.2149 723.883 Q51.2623 723.501 54.4452 720.255 Q57.5962 716.976 57.5962 711.152 Q57.5962 707.778 56.7687 704.627 Q55.9411 701.444 54.2861 698.325 L59.8242 698.325 Q61.161 701.476 61.8612 704.786 Q62.5615 708.096 62.5615 711.502 Q62.5615 720.032 57.5962 725.029 Q52.631 729.994 44.1646 729.994 Q35.4117 729.994 30.2873 725.284 Q25.1311 720.541 25.1311 712.52 Q25.1311 705.327 29.7781 701.158 Q34.3932 696.956 42.3504 696.956 M40.6316 702.813 Q35.8255 702.876 32.9609 705.518 Q30.0964 708.128 30.0964 712.457 Q30.0964 717.358 32.8654 720.318 Q35.6345 723.247 40.6634 723.692 L40.6316 702.813 Z" fill="#000000" fill-rule="evenodd" fill-opacity="1" /><path clip-path="url(#clip050)" d="M42.3504 656.852 L45.2149 656.852 L45.2149 683.779 Q51.2623 683.397 54.4452 680.151 Q57.5962 676.872 57.5962 671.048 Q57.5962 667.674 56.7687 664.523 Q55.9411 661.34 54.2861 658.221 L59.8242 658.221 Q61.161 661.372 61.8612 664.682 Q62.5615 667.992 62.5615 671.398 Q62.5615 679.928 57.5962 684.925 Q52.631 689.89 44.1646 689.89 Q35.4117 689.89 30.2873 685.18 Q25.1311 680.437 25.1311 672.416 Q25.1311 665.223 29.7781 661.054 Q34.3932 656.852 42.3504 656.852 M40.6316 662.709 Q35.8255 662.772 32.9609 665.414 Q30.0964 668.024 30.0964 672.353 Q30.0964 677.254 32.8654 680.214 Q35.6345 683.143 40.6634 683.588 L40.6316 662.709 Z" fill="#000000" fill-rule="evenodd" fill-opacity="1" /><path clip-path="url(#clip050)" d="M31.4013 623.782 L12.1132 623.782 L12.1132 617.926 L61.6384 617.926 L61.6384 623.782 L56.2912 623.782 Q59.4741 625.628 61.0337 628.461 Q62.5615 631.262 62.5615 635.209 Q62.5615 641.67 57.4052 645.744 Q52.249 649.786 43.8463 649.786 Q35.4436 649.786 30.2873 645.744 Q25.1311 641.67 25.1311 635.209 Q25.1311 631.262 26.6907 628.461 Q28.2185 625.628 31.4013 623.782 M43.8463 643.739 Q50.3075 643.739 53.9996 641.097 Q57.6599 638.424 57.6599 633.777 Q57.6599 629.13 53.9996 626.456 Q50.3075 623.782 43.8463 623.782 Q37.3851 623.782 33.7248 626.456 Q30.0327 629.13 30.0327 633.777 Q30.0327 638.424 33.7248 641.097 Q37.3851 643.739 43.8463 643.739 Z" fill="#000000" fill-rule="evenodd" fill-opacity="1" /><polyline clip-path="url(#clip052)" style="stroke:#009af9; stroke-linecap:round; stroke-linejoin:round; stroke-width:4; stroke-opacity:1; fill:none" points="323.787,966.696 484.468,960.348 644.999,940.14 805.148,893.157 964.451,789.764 1121.95,566.603 1275.75,94.9858 1436.58,1686.38 1603.49,1296.42 1767.01,1123.76 1929.08,1045.62 2090.49,1009.29 2251.59,990.837 2412.51,978.219 2573.27,963.264 "/>
</svg>
