<?xml version="1.0" encoding="utf-8"?>
<svg xmlns="http://www.w3.org/2000/svg" xmlns:xlink="http://www.w3.org/1999/xlink" width="672" height="480" viewBox="0 0 2688 1920">
<defs>
  <clipPath id="clip900">
    <rect x="0" y="0" width="2688" height="1920"/>
  </clipPath>
</defs>
<path clip-path="url(#clip900)" d="M0 1920 L2688 1920 L2688 0 L0 0  Z" fill="#ffffff" fill-rule="evenodd" fill-opacity="1"/>
<defs>
  <clipPath id="clip901">
    <rect x="537" y="0" width="1883" height="1883"/>
  </clipPath>
</defs>
<path clip-path="url(#clip900)" d="M256.302 498.559 L2640.76 498.559 L2640.76 47.2441 L256.302 47.2441  Z" fill="#ffffff" fill-rule="evenodd" fill-opacity="1"/>
<defs>
  <clipPath id="clip902">
    <rect x="256" y="47" width="2385" height="452"/>
  </clipPath>
</defs>
<polyline clip-path="url(#clip900)" style="stroke:#000000; stroke-linecap:round; stroke-linejoin:round; stroke-width:4; stroke-opacity:1; fill:none" points="256.302,498.559 2640.76,498.559 "/>
<polyline clip-path="url(#clip900)" style="stroke:#000000; stroke-linecap:round; stroke-linejoin:round; stroke-width:4; stroke-opacity:1; fill:none" points="323.787,498.559 323.787,479.661 "/>
<polyline clip-path="url(#clip900)" style="stroke:#000000; stroke-linecap:round; stroke-linejoin:round; stroke-width:4; stroke-opacity:1; fill:none" points="669.861,498.559 669.861,479.661 "/>
<polyline clip-path="url(#clip900)" style="stroke:#000000; stroke-linecap:round; stroke-linejoin:round; stroke-width:4; stroke-opacity:1; fill:none" points="1015.94,498.559 1015.94,479.661 "/>
<polyline clip-path="url(#clip900)" style="stroke:#000000; stroke-linecap:round; stroke-linejoin:round; stroke-width:4; stroke-opacity:1; fill:none" points="1362.01,498.559 1362.01,479.661 "/>
<polyline clip-path="url(#clip900)" style="stroke:#000000; stroke-linecap:round; stroke-linejoin:round; stroke-width:4; stroke-opacity:1; fill:none" points="1708.09,498.559 1708.09,479.661 "/>
<polyline clip-path="url(#clip900)" style="stroke:#000000; stroke-linecap:round; stroke-linejoin:round; stroke-width:4; stroke-opacity:1; fill:none" points="2054.16,498.559 2054.16,479.661 "/>
<polyline clip-path="url(#clip900)" style="stroke:#000000; stroke-linecap:round; stroke-linejoin:round; stroke-width:4; stroke-opacity:1; fill:none" points="2400.23,498.559 2400.23,479.661 "/>
<path clip-path="url(#clip900)" d="M323.787 531.781 Q320.176 531.781 318.347 535.346 Q316.542 538.888 316.542 546.017 Q316.542 553.124 318.347 556.688 Q320.176 560.23 323.787 560.23 Q327.421 560.23 329.227 556.688 Q331.055 553.124 331.055 546.017 Q331.055 538.888 329.227 535.346 Q327.421 531.781 323.787 531.781 M323.787 528.078 Q329.597 528.078 332.653 532.684 Q335.731 537.267 335.731 546.017 Q335.731 554.744 332.653 559.351 Q329.597 563.934 323.787 563.934 Q317.977 563.934 314.898 559.351 Q311.843 554.744 311.843 546.017 Q311.843 537.267 314.898 532.684 Q317.977 528.078 323.787 528.078 Z" fill="#000000" fill-rule="evenodd" fill-opacity="1" /><path clip-path="url(#clip900)" d="M664.514 559.327 L680.834 559.327 L680.834 563.263 L658.889 563.263 L658.889 559.327 Q661.551 556.573 666.135 551.943 Q670.741 547.29 671.922 545.948 Q674.167 543.425 675.047 541.689 Q675.949 539.929 675.949 538.24 Q675.949 535.485 674.005 533.749 Q672.084 532.013 668.982 532.013 Q666.783 532.013 664.329 532.777 Q661.899 533.54 659.121 535.091 L659.121 530.369 Q661.945 529.235 664.399 528.656 Q666.852 528.078 668.889 528.078 Q674.26 528.078 677.454 530.763 Q680.648 533.448 680.648 537.939 Q680.648 540.068 679.838 541.989 Q679.051 543.888 676.945 546.48 Q676.366 547.152 673.264 550.369 Q670.162 553.564 664.514 559.327 Z" fill="#000000" fill-rule="evenodd" fill-opacity="1" /><path clip-path="url(#clip900)" d="M1018.95 532.777 L1007.14 551.226 L1018.95 551.226 L1018.95 532.777 M1017.72 528.703 L1023.6 528.703 L1023.6 551.226 L1028.53 551.226 L1028.53 555.114 L1023.6 555.114 L1023.6 563.263 L1018.95 563.263 L1018.95 555.114 L1003.34 555.114 L1003.34 550.601 L1017.72 528.703 Z" fill="#000000" fill-rule="evenodd" fill-opacity="1" /><path clip-path="url(#clip900)" d="M1362.42 544.119 Q1359.27 544.119 1357.42 546.272 Q1355.59 548.425 1355.59 552.175 Q1355.59 555.901 1357.42 558.077 Q1359.27 560.23 1362.42 560.23 Q1365.56 560.23 1367.39 558.077 Q1369.24 555.901 1369.24 552.175 Q1369.24 548.425 1367.39 546.272 Q1365.56 544.119 1362.42 544.119 M1371.7 529.466 L1371.7 533.726 Q1369.94 532.892 1368.13 532.453 Q1366.35 532.013 1364.59 532.013 Q1359.96 532.013 1357.51 535.138 Q1355.08 538.263 1354.73 544.582 Q1356.1 542.568 1358.16 541.503 Q1360.22 540.415 1362.69 540.415 Q1367.9 540.415 1370.91 543.587 Q1373.94 546.735 1373.94 552.175 Q1373.94 557.499 1370.8 560.716 Q1367.65 563.934 1362.42 563.934 Q1356.42 563.934 1353.25 559.351 Q1350.08 554.744 1350.08 546.017 Q1350.08 537.823 1353.97 532.962 Q1357.86 528.078 1364.41 528.078 Q1366.17 528.078 1367.95 528.425 Q1369.75 528.772 1371.7 529.466 Z" fill="#000000" fill-rule="evenodd" fill-opacity="1" /><path clip-path="url(#clip900)" d="M1708.09 546.851 Q1704.75 546.851 1702.83 548.633 Q1700.93 550.415 1700.93 553.54 Q1700.93 556.665 1702.83 558.448 Q1704.75 560.23 1708.09 560.23 Q1711.42 560.23 1713.34 558.448 Q1715.26 556.642 1715.26 553.54 Q1715.26 550.415 1713.34 548.633 Q1711.44 546.851 1708.09 546.851 M1703.41 544.86 Q1700.4 544.119 1698.71 542.059 Q1697.04 539.999 1697.04 537.036 Q1697.04 532.892 1699.98 530.485 Q1702.95 528.078 1708.09 528.078 Q1713.25 528.078 1716.19 530.485 Q1719.13 532.892 1719.13 537.036 Q1719.13 539.999 1717.44 542.059 Q1715.77 544.119 1712.78 544.86 Q1716.16 545.647 1718.04 547.939 Q1719.94 550.23 1719.94 553.54 Q1719.94 558.563 1716.86 561.249 Q1713.8 563.934 1708.09 563.934 Q1702.37 563.934 1699.29 561.249 Q1696.23 558.563 1696.23 553.54 Q1696.23 550.23 1698.13 547.939 Q1700.03 545.647 1703.41 544.86 M1701.7 537.476 Q1701.7 540.161 1703.36 541.665 Q1705.05 543.17 1708.09 543.17 Q1711.09 543.17 1712.78 541.665 Q1714.5 540.161 1714.5 537.476 Q1714.5 534.79 1712.78 533.286 Q1711.09 531.781 1708.09 531.781 Q1705.05 531.781 1703.36 533.286 Q1701.7 534.79 1701.7 537.476 Z" fill="#000000" fill-rule="evenodd" fill-opacity="1" /><path clip-path="url(#clip900)" d="M2028.85 559.327 L2036.49 559.327 L2036.49 532.962 L2028.18 534.628 L2028.18 530.369 L2036.44 528.703 L2041.12 528.703 L2041.12 559.327 L2048.75 559.327 L2048.75 563.263 L2028.85 563.263 L2028.85 559.327 Z" fill="#000000" fill-rule="evenodd" fill-opacity="1" /><path clip-path="url(#clip900)" d="M2068.2 531.781 Q2064.59 531.781 2062.76 535.346 Q2060.95 538.888 2060.95 546.017 Q2060.95 553.124 2062.76 556.688 Q2064.59 560.23 2068.2 560.23 Q2071.83 560.23 2073.64 556.688 Q2075.47 553.124 2075.47 546.017 Q2075.47 538.888 2073.64 535.346 Q2071.83 531.781 2068.2 531.781 M2068.2 528.078 Q2074.01 528.078 2077.06 532.684 Q2080.14 537.267 2080.14 546.017 Q2080.14 554.744 2077.06 559.351 Q2074.01 563.934 2068.2 563.934 Q2062.39 563.934 2059.31 559.351 Q2056.25 554.744 2056.25 546.017 Q2056.25 537.267 2059.31 532.684 Q2062.39 528.078 2068.2 528.078 Z" fill="#000000" fill-rule="evenodd" fill-opacity="1" /><path clip-path="url(#clip900)" d="M2375.72 559.327 L2383.36 559.327 L2383.36 532.962 L2375.05 534.628 L2375.05 530.369 L2383.31 528.703 L2387.99 528.703 L2387.99 559.327 L2395.63 559.327 L2395.63 563.263 L2375.72 563.263 L2375.72 559.327 Z" fill="#000000" fill-rule="evenodd" fill-opacity="1" /><path clip-path="url(#clip900)" d="M2409.1 559.327 L2425.42 559.327 L2425.42 563.263 L2403.47 563.263 L2403.47 559.327 Q2406.14 556.573 2410.72 551.943 Q2415.33 547.29 2416.51 545.948 Q2418.75 543.425 2419.63 541.689 Q2420.53 539.929 2420.53 538.24 Q2420.53 535.485 2418.59 533.749 Q2416.67 532.013 2413.57 532.013 Q2411.37 532.013 2408.91 532.777 Q2406.48 533.54 2403.71 535.091 L2403.71 530.369 Q2406.53 529.235 2408.98 528.656 Q2411.44 528.078 2413.47 528.078 Q2418.85 528.078 2422.04 530.763 Q2425.23 533.448 2425.23 537.939 Q2425.23 540.068 2424.42 541.989 Q2423.64 543.888 2421.53 546.48 Q2420.95 547.152 2417.85 550.369 Q2414.75 553.564 2409.1 559.327 Z" fill="#000000" fill-rule="evenodd" fill-opacity="1" /><polyline clip-path="url(#clip900)" style="stroke:#000000; stroke-linecap:round; stroke-linejoin:round; stroke-width:4; stroke-opacity:1; fill:none" points="256.302,498.559 256.302,47.2441 "/>
<polyline clip-path="url(#clip900)" style="stroke:#000000; stroke-linecap:round; stroke-linejoin:round; stroke-width:4; stroke-opacity:1; fill:none" points="256.302,498.559 275.2,498.559 "/>
<polyline clip-path="url(#clip900)" style="stroke:#000000; stroke-linecap:round; stroke-linejoin:round; stroke-width:4; stroke-opacity:1; fill:none" points="256.302,396.288 275.2,396.288 "/>
<polyline clip-path="url(#clip900)" style="stroke:#000000; stroke-linecap:round; stroke-linejoin:round; stroke-width:4; stroke-opacity:1; fill:none" points="256.302,294.018 275.2,294.018 "/>
<polyline clip-path="url(#clip900)" style="stroke:#000000; stroke-linecap:round; stroke-linejoin:round; stroke-width:4; stroke-opacity:1; fill:none" points="256.302,191.748 275.2,191.748 "/>
<polyline clip-path="url(#clip900)" style="stroke:#000000; stroke-linecap:round; stroke-linejoin:round; stroke-width:4; stroke-opacity:1; fill:none" points="256.302,89.4772 275.2,89.4772 "/>
<path clip-path="url(#clip900)" d="M158.807 484.357 Q155.196 484.357 153.367 487.922 Q151.561 491.464 151.561 498.593 Q151.561 505.7 153.367 509.264 Q155.196 512.806 158.807 512.806 Q162.441 512.806 164.247 509.264 Q166.075 505.7 166.075 498.593 Q166.075 491.464 164.247 487.922 Q162.441 484.357 158.807 484.357 M158.807 480.654 Q164.617 480.654 167.673 485.26 Q170.751 489.843 170.751 498.593 Q170.751 507.32 167.673 511.927 Q164.617 516.51 158.807 516.51 Q152.997 516.51 149.918 511.927 Q146.862 507.32 146.862 498.593 Q146.862 489.843 149.918 485.26 Q152.997 480.654 158.807 480.654 Z" fill="#000000" fill-rule="evenodd" fill-opacity="1" /><path clip-path="url(#clip900)" d="M178.969 509.959 L183.853 509.959 L183.853 515.839 L178.969 515.839 L178.969 509.959 Z" fill="#000000" fill-rule="evenodd" fill-opacity="1" /><path clip-path="url(#clip900)" d="M204.038 484.357 Q200.427 484.357 198.598 487.922 Q196.793 491.464 196.793 498.593 Q196.793 505.7 198.598 509.264 Q200.427 512.806 204.038 512.806 Q207.672 512.806 209.478 509.264 Q211.307 505.7 211.307 498.593 Q211.307 491.464 209.478 487.922 Q207.672 484.357 204.038 484.357 M204.038 480.654 Q209.848 480.654 212.904 485.26 Q215.982 489.843 215.982 498.593 Q215.982 507.32 212.904 511.927 Q209.848 516.51 204.038 516.51 Q198.228 516.51 195.149 511.927 Q192.094 507.32 192.094 498.593 Q192.094 489.843 195.149 485.26 Q198.228 480.654 204.038 480.654 Z" fill="#000000" fill-rule="evenodd" fill-opacity="1" /><path clip-path="url(#clip900)" d="M160.034 382.087 Q156.423 382.087 154.594 385.652 Q152.788 389.193 152.788 396.323 Q152.788 403.429 154.594 406.994 Q156.423 410.536 160.034 410.536 Q163.668 410.536 165.473 406.994 Q167.302 403.429 167.302 396.323 Q167.302 389.193 165.473 385.652 Q163.668 382.087 160.034 382.087 M160.034 378.383 Q165.844 378.383 168.899 382.99 Q171.978 387.573 171.978 396.323 Q171.978 405.05 168.899 409.656 Q165.844 414.239 160.034 414.239 Q154.223 414.239 151.145 409.656 Q148.089 405.05 148.089 396.323 Q148.089 387.573 151.145 382.99 Q154.223 378.383 160.034 378.383 Z" fill="#000000" fill-rule="evenodd" fill-opacity="1" /><path clip-path="url(#clip900)" d="M180.196 407.689 L185.08 407.689 L185.08 413.568 L180.196 413.568 L180.196 407.689 Z" fill="#000000" fill-rule="evenodd" fill-opacity="1" /><path clip-path="url(#clip900)" d="M196.075 409.633 L203.714 409.633 L203.714 383.267 L195.404 384.934 L195.404 380.675 L203.668 379.008 L208.344 379.008 L208.344 409.633 L215.982 409.633 L215.982 413.568 L196.075 413.568 L196.075 409.633 Z" fill="#000000" fill-rule="evenodd" fill-opacity="1" /><path clip-path="url(#clip900)" d="M160.404 279.817 Q156.793 279.817 154.964 283.381 Q153.159 286.923 153.159 294.053 Q153.159 301.159 154.964 304.724 Q156.793 308.265 160.404 308.265 Q164.038 308.265 165.844 304.724 Q167.673 301.159 167.673 294.053 Q167.673 286.923 165.844 283.381 Q164.038 279.817 160.404 279.817 M160.404 276.113 Q166.214 276.113 169.27 280.719 Q172.348 285.303 172.348 294.053 Q172.348 302.779 169.27 307.386 Q166.214 311.969 160.404 311.969 Q154.594 311.969 151.515 307.386 Q148.46 302.779 148.46 294.053 Q148.46 285.303 151.515 280.719 Q154.594 276.113 160.404 276.113 Z" fill="#000000" fill-rule="evenodd" fill-opacity="1" /><path clip-path="url(#clip900)" d="M180.566 305.418 L185.45 305.418 L185.45 311.298 L180.566 311.298 L180.566 305.418 Z" fill="#000000" fill-rule="evenodd" fill-opacity="1" /><path clip-path="url(#clip900)" d="M199.663 307.363 L215.982 307.363 L215.982 311.298 L194.038 311.298 L194.038 307.363 Q196.7 304.608 201.283 299.978 Q205.89 295.326 207.07 293.983 Q209.316 291.46 210.195 289.724 Q211.098 287.965 211.098 286.275 Q211.098 283.52 209.154 281.784 Q207.232 280.048 204.131 280.048 Q201.932 280.048 199.478 280.812 Q197.047 281.576 194.27 283.127 L194.27 278.405 Q197.094 277.27 199.547 276.692 Q202.001 276.113 204.038 276.113 Q209.408 276.113 212.603 278.798 Q215.797 281.483 215.797 285.974 Q215.797 288.104 214.987 290.025 Q214.2 291.923 212.094 294.516 Q211.515 295.187 208.413 298.404 Q205.311 301.599 199.663 307.363 Z" fill="#000000" fill-rule="evenodd" fill-opacity="1" /><path clip-path="url(#clip900)" d="M159.455 177.546 Q155.844 177.546 154.015 181.111 Q152.21 184.653 152.21 191.782 Q152.21 198.889 154.015 202.453 Q155.844 205.995 159.455 205.995 Q163.089 205.995 164.895 202.453 Q166.723 198.889 166.723 191.782 Q166.723 184.653 164.895 181.111 Q163.089 177.546 159.455 177.546 M159.455 173.843 Q165.265 173.843 168.321 178.449 Q171.399 183.032 171.399 191.782 Q171.399 200.509 168.321 205.116 Q165.265 209.699 159.455 209.699 Q153.645 209.699 150.566 205.116 Q147.511 200.509 147.511 191.782 Q147.511 183.032 150.566 178.449 Q153.645 173.843 159.455 173.843 Z" fill="#000000" fill-rule="evenodd" fill-opacity="1" /><path clip-path="url(#clip900)" d="M179.617 203.148 L184.501 203.148 L184.501 209.028 L179.617 209.028 L179.617 203.148 Z" fill="#000000" fill-rule="evenodd" fill-opacity="1" /><path clip-path="url(#clip900)" d="M208.853 190.393 Q212.209 191.111 214.084 193.379 Q215.982 195.648 215.982 198.981 Q215.982 204.097 212.464 206.898 Q208.945 209.699 202.464 209.699 Q200.288 209.699 197.973 209.259 Q195.682 208.842 193.228 207.986 L193.228 203.472 Q195.172 204.606 197.487 205.185 Q199.802 205.764 202.325 205.764 Q206.723 205.764 209.015 204.028 Q211.33 202.291 211.33 198.981 Q211.33 195.926 209.177 194.213 Q207.047 192.477 203.228 192.477 L199.2 192.477 L199.2 188.634 L203.413 188.634 Q206.862 188.634 208.691 187.268 Q210.519 185.879 210.519 183.287 Q210.519 180.625 208.621 179.213 Q206.746 177.778 203.228 177.778 Q201.307 177.778 199.108 178.194 Q196.908 178.611 194.27 179.491 L194.27 175.324 Q196.932 174.583 199.246 174.213 Q201.584 173.843 203.645 173.843 Q208.969 173.843 212.07 176.273 Q215.172 178.68 215.172 182.801 Q215.172 185.671 213.529 187.662 Q211.885 189.629 208.853 190.393 Z" fill="#000000" fill-rule="evenodd" fill-opacity="1" /><path clip-path="url(#clip900)" d="M158.321 75.2759 Q154.71 75.2759 152.881 78.8407 Q151.075 82.3823 151.075 89.5119 Q151.075 96.6184 152.881 100.183 Q154.71 103.725 158.321 103.725 Q161.955 103.725 163.76 100.183 Q165.589 96.6184 165.589 89.5119 Q165.589 82.3823 163.76 78.8407 Q161.955 75.2759 158.321 75.2759 M158.321 71.5722 Q164.131 71.5722 167.186 76.1786 Q170.265 80.762 170.265 89.5119 Q170.265 98.2387 167.186 102.845 Q164.131 107.428 158.321 107.428 Q152.511 107.428 149.432 102.845 Q146.376 98.2387 146.376 89.5119 Q146.376 80.762 149.432 76.1786 Q152.511 71.5722 158.321 71.5722 Z" fill="#000000" fill-rule="evenodd" fill-opacity="1" /><path clip-path="url(#clip900)" d="M178.483 100.878 L183.367 100.878 L183.367 106.757 L178.483 106.757 L178.483 100.878 Z" fill="#000000" fill-rule="evenodd" fill-opacity="1" /><path clip-path="url(#clip900)" d="M206.399 76.2712 L194.594 94.7202 L206.399 94.7202 L206.399 76.2712 M205.172 72.1972 L211.052 72.1972 L211.052 94.7202 L215.982 94.7202 L215.982 98.6091 L211.052 98.6091 L211.052 106.757 L206.399 106.757 L206.399 98.6091 L190.797 98.6091 L190.797 94.0952 L205.172 72.1972 Z" fill="#000000" fill-rule="evenodd" fill-opacity="1" /><path clip-path="url(#clip900)" d="M91.8003 455.279 L44.2803 473.421 L44.2803 466.705 L84.2888 451.65 L44.2803 436.564 L44.2803 429.88 L91.8003 447.99 L91.8003 455.279 Z" fill="#000000" fill-rule="evenodd" fill-opacity="1" /><path clip-path="url(#clip900)" d="M62.9955 374.721 Q59.0488 372.525 57.1709 369.469 Q55.293 366.414 55.293 362.276 Q55.293 356.706 59.2079 353.682 Q63.091 350.658 70.2842 350.658 L91.8003 350.658 L91.8003 356.547 L70.4752 356.547 Q65.3508 356.547 62.8682 358.361 Q60.3856 360.175 60.3856 363.899 Q60.3856 368.451 63.4093 371.092 Q66.433 373.734 71.6529 373.734 L91.8003 373.734 L91.8003 379.622 L70.4752 379.622 Q65.319 379.622 62.8682 381.437 Q60.3856 383.251 60.3856 387.038 Q60.3856 391.526 63.4411 394.168 Q66.4648 396.81 71.6529 396.81 L91.8003 396.81 L91.8003 402.698 L56.1524 402.698 L56.1524 396.81 L61.6905 396.81 Q58.4122 394.805 56.8526 392.004 Q55.293 389.203 55.293 385.352 Q55.293 381.468 57.2664 378.763 Q59.2397 376.026 62.9955 374.721 Z" fill="#000000" fill-rule="evenodd" fill-opacity="1" /><path clip-path="url(#clip900)" d="M56.1524 338.977 L56.1524 333.121 L91.8003 333.121 L91.8003 338.977 L56.1524 338.977 M42.2751 338.977 L42.2751 333.121 L49.6912 333.121 L49.6912 338.977 L42.2751 338.977 Z" fill="#000000" fill-rule="evenodd" fill-opacity="1" /><path clip-path="url(#clip900)" d="M61.5632 297.409 L42.2751 297.409 L42.2751 291.553 L91.8003 291.553 L91.8003 297.409 L86.4531 297.409 Q89.636 299.255 91.1956 302.088 Q92.7233 304.889 92.7233 308.836 Q92.7233 315.297 87.5671 319.371 Q82.4109 323.413 74.0082 323.413 Q65.6054 323.413 60.4492 319.371 Q55.293 315.297 55.293 308.836 Q55.293 304.889 56.8526 302.088 Q58.3804 299.255 61.5632 297.409 M74.0082 317.366 Q80.4694 317.366 84.1615 314.724 Q87.8218 312.05 87.8218 307.403 Q87.8218 302.756 84.1615 300.083 Q80.4694 297.409 74.0082 297.409 Q67.547 297.409 63.8867 300.083 Q60.1946 302.756 60.1946 307.403 Q60.1946 312.05 63.8867 314.724 Q67.547 317.366 74.0082 317.366 Z" fill="#000000" fill-rule="evenodd" fill-opacity="1" /><path clip-path="url(#clip900)" d="M57.2027 256.764 L62.7409 256.764 Q61.4677 259.247 60.8312 261.92 Q60.1946 264.594 60.1946 267.459 Q60.1946 271.819 61.5314 274.015 Q62.8682 276.18 65.5418 276.18 Q67.5788 276.18 68.7565 274.62 Q69.9023 273.06 70.9526 268.35 L71.3982 266.345 Q72.735 260.106 75.1858 257.496 Q77.6048 254.855 81.9653 254.855 Q86.9306 254.855 89.8269 258.801 Q92.7233 262.716 92.7233 269.591 Q92.7233 272.456 92.1504 275.575 Q91.6093 278.662 90.4953 282.1 L84.4479 282.1 Q86.1348 278.853 86.9942 275.702 Q87.8218 272.551 87.8218 269.464 Q87.8218 265.326 86.4213 263.098 Q84.989 260.87 82.4109 260.87 Q80.0238 260.87 78.7506 262.493 Q77.4775 264.085 76.2998 269.527 L75.8224 271.565 Q74.6766 277.007 72.3213 279.426 Q69.9341 281.845 65.7964 281.845 Q60.7675 281.845 58.0302 278.28 Q55.293 274.716 55.293 268.159 Q55.293 264.912 55.7704 262.048 Q56.2478 259.183 57.2027 256.764 Z" fill="#000000" fill-rule="evenodd" fill-opacity="1" /><path clip-path="url(#clip900)" d="M46.0309 239.736 L56.1524 239.736 L56.1524 227.673 L60.7038 227.673 L60.7038 239.736 L80.0556 239.736 Q84.4161 239.736 85.6574 238.558 Q86.8987 237.349 86.8987 233.689 L86.8987 227.673 L91.8003 227.673 L91.8003 233.689 Q91.8003 240.468 89.2859 243.046 Q86.7396 245.624 80.0556 245.624 L60.7038 245.624 L60.7038 249.921 L56.1524 249.921 L56.1524 245.624 L46.0309 245.624 L46.0309 239.736 Z" fill="#000000" fill-rule="evenodd" fill-opacity="1" /><path clip-path="url(#clip900)" d="M73.8809 203.77 Q73.8809 210.868 75.5041 213.605 Q77.1274 216.342 81.0423 216.342 Q84.1615 216.342 86.0075 214.305 Q87.8218 212.236 87.8218 208.703 Q87.8218 203.833 84.3843 200.905 Q80.915 197.945 75.1858 197.945 L73.8809 197.945 L73.8809 203.77 M71.4619 192.089 L91.8003 192.089 L91.8003 197.945 L86.3895 197.945 Q89.636 199.95 91.1956 202.942 Q92.7233 205.934 92.7233 210.263 Q92.7233 215.737 89.6678 218.984 Q86.5804 222.198 81.4242 222.198 Q75.4086 222.198 72.3531 218.188 Q69.2975 214.146 69.2975 206.157 L69.2975 197.945 L68.7246 197.945 Q64.6824 197.945 62.4862 200.619 Q60.2582 203.26 60.2582 208.067 Q60.2582 211.122 60.9903 214.019 Q61.7224 216.915 63.1865 219.589 L57.7756 219.589 Q56.5343 216.374 55.9296 213.35 Q55.293 210.326 55.293 207.462 Q55.293 199.728 59.3034 195.908 Q63.3138 192.089 71.4619 192.089 Z" fill="#000000" fill-rule="evenodd" fill-opacity="1" /><path clip-path="url(#clip900)" d="M70.2842 150.393 L91.8003 150.393 L91.8003 156.25 L70.4752 156.25 Q65.4145 156.25 62.9 158.223 Q60.3856 160.196 60.3856 164.143 Q60.3856 168.886 63.4093 171.623 Q66.433 174.36 71.6529 174.36 L91.8003 174.36 L91.8003 180.248 L56.1524 180.248 L56.1524 174.36 L61.6905 174.36 Q58.4758 172.259 56.8844 169.427 Q55.293 166.562 55.293 162.838 Q55.293 156.695 59.1124 153.544 Q62.9 150.393 70.2842 150.393 Z" fill="#000000" fill-rule="evenodd" fill-opacity="1" /><path clip-path="url(#clip900)" d="M57.521 113.058 L62.9955 113.058 Q61.6269 115.541 60.9585 118.055 Q60.2582 120.538 60.2582 123.084 Q60.2582 128.782 63.8867 131.933 Q67.4833 135.084 74.0082 135.084 Q80.533 135.084 84.1615 131.933 Q87.7581 128.782 87.7581 123.084 Q87.7581 120.538 87.0897 118.055 Q86.3895 115.541 85.0208 113.058 L90.4317 113.058 Q91.5775 115.509 92.1504 118.151 Q92.7233 120.761 92.7233 123.721 Q92.7233 131.774 87.6626 136.516 Q82.6019 141.258 74.0082 141.258 Q65.2872 141.258 60.2901 136.484 Q55.293 131.678 55.293 123.339 Q55.293 120.634 55.8659 118.055 Q56.407 115.477 57.521 113.058 Z" fill="#000000" fill-rule="evenodd" fill-opacity="1" /><path clip-path="url(#clip900)" d="M72.5122 72.3816 L75.3768 72.3816 L75.3768 99.3085 Q81.4242 98.9266 84.6071 95.68 Q87.7581 92.4017 87.7581 86.5771 Q87.7581 83.2033 86.9306 80.0522 Q86.103 76.8694 84.4479 73.7502 L89.9861 73.7502 Q91.3229 76.9012 92.0231 80.2114 Q92.7233 83.5215 92.7233 86.9272 Q92.7233 95.4572 87.7581 100.454 Q82.7928 105.42 74.3265 105.42 Q65.5736 105.42 60.4492 100.709 Q55.293 95.9665 55.293 87.9457 Q55.293 80.7525 59.94 76.5829 Q64.5551 72.3816 72.5122 72.3816 M70.7935 78.238 Q65.9874 78.3017 63.1228 80.9434 Q60.2582 83.5534 60.2582 87.882 Q60.2582 92.7836 63.0273 95.7437 Q65.7964 98.6719 70.8253 99.1175 L70.7935 78.238 Z" fill="#000000" fill-rule="evenodd" fill-opacity="1" /><polyline clip-path="url(#clip902)" style="stroke:#009af9; stroke-linecap:round; stroke-linejoin:round; stroke-width:4; stroke-opacity:1; fill:none" points="323.787,47.2441 496.824,47.2441 669.861,47.2441 842.899,47.2441 1015.94,47.2441 1188.97,47.2441 1362.01,47.2441 1535.05,237.28 1708.09,169.793 1881.12,128.448 2054.16,101.703 2227.2,83.9993 2400.23,72.1433 2573.27,64.1502 2573.27,47.2441 "/>
<circle clip-path="url(#clip902)" cx="323.787" cy="47.2441" r="14.4" fill="#009af9" fill-rule="evenodd" fill-opacity="1" stroke="#000000" stroke-opacity="1" stroke-width="3.84"/>
<circle clip-path="url(#clip902)" cx="496.824" cy="47.2441" r="14.4" fill="#009af9" fill-rule="evenodd" fill-opacity="1" stroke="#000000" stroke-opacity="1" stroke-width="3.84"/>
<circle clip-path="url(#clip902)" cx="669.861" cy="47.2441" r="14.4" fill="#009af9" fill-rule="evenodd" fill-opacity="1" stroke="#000000" stroke-opacity="1" stroke-width="3.84"/>
<circle clip-path="url(#clip902)" cx="842.899" cy="47.2441" r="14.4" fill="#009af9" fill-rule="evenodd" fill-opacity="1" stroke="#000000" stroke-opacity="1" stroke-width="3.84"/>
<circle clip-path="url(#clip902)" cx="1015.94" cy="47.2441" r="14.4" fill="#009af9" fill-rule="evenodd" fill-opacity="1" stroke="#000000" stroke-opacity="1" stroke-width="3.84"/>
<circle clip-path="url(#clip902)" cx="1188.97" cy="47.2441" r="14.4" fill="#009af9" fill-rule="evenodd" fill-opacity="1" stroke="#000000" stroke-opacity="1" stroke-width="3.84"/>
<circle clip-path="url(#clip902)" cx="1362.01" cy="47.2441" r="14.4" fill="#009af9" fill-rule="evenodd" fill-opacity="1" stroke="#000000" stroke-opacity="1" stroke-width="3.84"/>
<circle clip-path="url(#clip902)" cx="1535.05" cy="237.28" r="14.4" fill="#009af9" fill-rule="evenodd" fill-opacity="1" stroke="#000000" stroke-opacity="1" stroke-width="3.84"/>
<circle clip-path="url(#clip902)" cx="1708.09" cy="169.793" r="14.4" fill="#009af9" fill-rule="evenodd" fill-opacity="1" stroke="#000000" stroke-opacity="1" stroke-width="3.84"/>
<circle clip-path="url(#clip902)" cx="1881.12" cy="128.448" r="14.4" fill="#009af9" fill-rule="evenodd" fill-opacity="1" stroke="#000000" stroke-opacity="1" stroke-width="3.84"/>
<circle clip-path="url(#clip902)" cx="2054.16" cy="101.703" r="14.4" fill="#009af9" fill-rule="evenodd" fill-opacity="1" stroke="#000000" stroke-opacity="1" stroke-width="3.84"/>
<circle clip-path="url(#clip902)" cx="2227.2" cy="83.9993" r="14.4" fill="#009af9" fill-rule="evenodd" fill-opacity="1" stroke="#000000" stroke-opacity="1" stroke-width="3.84"/>
<circle clip-path="url(#clip902)" cx="2400.23" cy="72.1433" r="14.4" fill="#009af9" fill-rule="evenodd" fill-opacity="1" stroke="#000000" stroke-opacity="1" stroke-width="3.84"/>
<circle clip-path="url(#clip902)" cx="2573.27" cy="64.1502" r="14.4" fill="#009af9" fill-rule="evenodd" fill-opacity="1" stroke="#000000" stroke-opacity="1" stroke-width="3.84"/>
<circle clip-path="url(#clip902)" cx="2573.27" cy="47.2441" r="14.4" fill="#009af9" fill-rule="evenodd" fill-opacity="1" stroke="#000000" stroke-opacity="1" stroke-width="3.84"/>
<path clip-path="url(#clip900)" d="M256.302 1116.34 L2640.76 1116.34 L2640.76 665.023 L256.302 665.023  Z" fill="#ffffff" fill-rule="evenodd" fill-opacity="1"/>
<defs>
  <clipPath id="clip903">
    <rect x="256" y="665" width="2385" height="452"/>
  </clipPath>
</defs>
<polyline clip-path="url(#clip900)" style="stroke:#000000; stroke-linecap:round; stroke-linejoin:round; stroke-width:4; stroke-opacity:1; fill:none" points="256.302,1116.34 2640.76,1116.34 "/>
<polyline clip-path="url(#clip900)" style="stroke:#000000; stroke-linecap:round; stroke-linejoin:round; stroke-width:4; stroke-opacity:1; fill:none" points="604.973,1116.34 604.973,1097.44 "/>
<polyline clip-path="url(#clip900)" style="stroke:#000000; stroke-linecap:round; stroke-linejoin:round; stroke-width:4; stroke-opacity:1; fill:none" points="1073.62,1116.34 1073.62,1097.44 "/>
<polyline clip-path="url(#clip900)" style="stroke:#000000; stroke-linecap:round; stroke-linejoin:round; stroke-width:4; stroke-opacity:1; fill:none" points="1542.26,1116.34 1542.26,1097.44 "/>
<polyline clip-path="url(#clip900)" style="stroke:#000000; stroke-linecap:round; stroke-linejoin:round; stroke-width:4; stroke-opacity:1; fill:none" points="2010.9,1116.34 2010.9,1097.44 "/>
<polyline clip-path="url(#clip900)" style="stroke:#000000; stroke-linecap:round; stroke-linejoin:round; stroke-width:4; stroke-opacity:1; fill:none" points="2479.54,1116.34 2479.54,1097.44 "/>
<path clip-path="url(#clip900)" d="M576.709 1177.11 L593.028 1177.11 L593.028 1181.04 L571.084 1181.04 L571.084 1177.11 Q573.746 1174.35 578.329 1169.72 Q582.936 1165.07 584.116 1163.73 Q586.361 1161.2 587.241 1159.47 Q588.144 1157.71 588.144 1156.02 Q588.144 1153.26 586.199 1151.53 Q584.278 1149.79 581.176 1149.79 Q578.977 1149.79 576.524 1150.56 Q574.093 1151.32 571.315 1152.87 L571.315 1148.15 Q574.139 1147.01 576.593 1146.44 Q579.047 1145.86 581.084 1145.86 Q586.454 1145.86 589.649 1148.54 Q592.843 1151.23 592.843 1155.72 Q592.843 1157.85 592.033 1159.77 Q591.246 1161.67 589.139 1164.26 Q588.561 1164.93 585.459 1168.15 Q582.357 1171.34 576.709 1177.11 Z" fill="#000000" fill-rule="evenodd" fill-opacity="1" /><path clip-path="url(#clip900)" d="M602.843 1175.16 L607.727 1175.16 L607.727 1181.04 L602.843 1181.04 L602.843 1175.16 Z" fill="#000000" fill-rule="evenodd" fill-opacity="1" /><path clip-path="url(#clip900)" d="M617.959 1146.48 L636.315 1146.48 L636.315 1150.42 L622.241 1150.42 L622.241 1158.89 Q623.259 1158.54 624.278 1158.38 Q625.296 1158.19 626.315 1158.19 Q632.102 1158.19 635.482 1161.37 Q638.861 1164.54 638.861 1169.95 Q638.861 1175.53 635.389 1178.63 Q631.917 1181.71 625.597 1181.71 Q623.421 1181.71 621.153 1181.34 Q618.908 1180.97 616.5 1180.23 L616.5 1175.53 Q618.584 1176.67 620.806 1177.22 Q623.028 1177.78 625.505 1177.78 Q629.509 1177.78 631.847 1175.67 Q634.185 1173.56 634.185 1169.95 Q634.185 1166.34 631.847 1164.24 Q629.509 1162.13 625.505 1162.13 Q623.63 1162.13 621.755 1162.55 Q619.903 1162.96 617.959 1163.84 L617.959 1146.48 Z" fill="#000000" fill-rule="evenodd" fill-opacity="1" /><path clip-path="url(#clip900)" d="M1040.78 1146.48 L1059.14 1146.48 L1059.14 1150.42 L1045.06 1150.42 L1045.06 1158.89 Q1046.08 1158.54 1047.1 1158.38 Q1048.12 1158.19 1049.14 1158.19 Q1054.92 1158.19 1058.3 1161.37 Q1061.68 1164.54 1061.68 1169.95 Q1061.68 1175.53 1058.21 1178.63 Q1054.74 1181.71 1048.42 1181.71 Q1046.24 1181.71 1043.97 1181.34 Q1041.73 1180.97 1039.32 1180.23 L1039.32 1175.53 Q1041.4 1176.67 1043.63 1177.22 Q1045.85 1177.78 1048.33 1177.78 Q1052.33 1177.78 1054.67 1175.67 Q1057.01 1173.56 1057.01 1169.95 Q1057.01 1166.34 1054.67 1164.24 Q1052.33 1162.13 1048.33 1162.13 Q1046.45 1162.13 1044.58 1162.55 Q1042.72 1162.96 1040.78 1163.84 L1040.78 1146.48 Z" fill="#000000" fill-rule="evenodd" fill-opacity="1" /><path clip-path="url(#clip900)" d="M1070.9 1175.16 L1075.78 1175.16 L1075.78 1181.04 L1070.9 1181.04 L1070.9 1175.16 Z" fill="#000000" fill-rule="evenodd" fill-opacity="1" /><path clip-path="url(#clip900)" d="M1095.96 1149.56 Q1092.35 1149.56 1090.52 1153.13 Q1088.72 1156.67 1088.72 1163.8 Q1088.72 1170.9 1090.52 1174.47 Q1092.35 1178.01 1095.96 1178.01 Q1099.6 1178.01 1101.4 1174.47 Q1103.23 1170.9 1103.23 1163.8 Q1103.23 1156.67 1101.4 1153.13 Q1099.6 1149.56 1095.96 1149.56 M1095.96 1145.86 Q1101.77 1145.86 1104.83 1150.46 Q1107.91 1155.05 1107.91 1163.8 Q1107.91 1172.52 1104.83 1177.13 Q1101.77 1181.71 1095.96 1181.71 Q1090.15 1181.71 1087.08 1177.13 Q1084.02 1172.52 1084.02 1163.8 Q1084.02 1155.05 1087.08 1150.46 Q1090.15 1145.86 1095.96 1145.86 Z" fill="#000000" fill-rule="evenodd" fill-opacity="1" /><path clip-path="url(#clip900)" d="M1508.58 1146.48 L1530.8 1146.48 L1530.8 1148.47 L1518.25 1181.04 L1513.37 1181.04 L1525.17 1150.42 L1508.58 1150.42 L1508.58 1146.48 Z" fill="#000000" fill-rule="evenodd" fill-opacity="1" /><path clip-path="url(#clip900)" d="M1539.92 1175.16 L1544.8 1175.16 L1544.8 1181.04 L1539.92 1181.04 L1539.92 1175.16 Z" fill="#000000" fill-rule="evenodd" fill-opacity="1" /><path clip-path="url(#clip900)" d="M1555.04 1146.48 L1573.39 1146.48 L1573.39 1150.42 L1559.32 1150.42 L1559.32 1158.89 Q1560.34 1158.54 1561.35 1158.38 Q1562.37 1158.19 1563.39 1158.19 Q1569.18 1158.19 1572.56 1161.37 Q1575.94 1164.54 1575.94 1169.95 Q1575.94 1175.53 1572.47 1178.63 Q1568.99 1181.71 1562.67 1181.71 Q1560.5 1181.71 1558.23 1181.34 Q1555.98 1180.97 1553.58 1180.23 L1553.58 1175.53 Q1555.66 1176.67 1557.88 1177.22 Q1560.1 1177.78 1562.58 1177.78 Q1566.59 1177.78 1568.92 1175.67 Q1571.26 1173.56 1571.26 1169.95 Q1571.26 1166.34 1568.92 1164.24 Q1566.59 1162.13 1562.58 1162.13 Q1560.71 1162.13 1558.83 1162.55 Q1556.98 1162.96 1555.04 1163.84 L1555.04 1146.48 Z" fill="#000000" fill-rule="evenodd" fill-opacity="1" /><path clip-path="url(#clip900)" d="M1962.97 1177.11 L1970.61 1177.11 L1970.61 1150.74 L1962.3 1152.41 L1962.3 1148.15 L1970.56 1146.48 L1975.24 1146.48 L1975.24 1177.11 L1982.88 1177.11 L1982.88 1181.04 L1962.97 1181.04 L1962.97 1177.11 Z" fill="#000000" fill-rule="evenodd" fill-opacity="1" /><path clip-path="url(#clip900)" d="M2002.32 1149.56 Q1998.71 1149.56 1996.88 1153.13 Q1995.08 1156.67 1995.08 1163.8 Q1995.08 1170.9 1996.88 1174.47 Q1998.71 1178.01 2002.32 1178.01 Q2005.96 1178.01 2007.76 1174.47 Q2009.59 1170.9 2009.59 1163.8 Q2009.59 1156.67 2007.76 1153.13 Q2005.96 1149.56 2002.32 1149.56 M2002.32 1145.86 Q2008.13 1145.86 2011.19 1150.46 Q2014.27 1155.05 2014.27 1163.8 Q2014.27 1172.52 2011.19 1177.13 Q2008.13 1181.71 2002.32 1181.71 Q1996.51 1181.71 1993.44 1177.13 Q1990.38 1172.52 1990.38 1163.8 Q1990.38 1155.05 1993.44 1150.46 Q1996.51 1145.86 2002.32 1145.86 Z" fill="#000000" fill-rule="evenodd" fill-opacity="1" /><path clip-path="url(#clip900)" d="M2022.49 1175.16 L2027.37 1175.16 L2027.37 1181.04 L2022.49 1181.04 L2022.49 1175.16 Z" fill="#000000" fill-rule="evenodd" fill-opacity="1" /><path clip-path="url(#clip900)" d="M2047.56 1149.56 Q2043.94 1149.56 2042.12 1153.13 Q2040.31 1156.67 2040.31 1163.8 Q2040.31 1170.9 2042.12 1174.47 Q2043.94 1178.01 2047.56 1178.01 Q2051.19 1178.01 2052.99 1174.47 Q2054.82 1170.9 2054.82 1163.8 Q2054.82 1156.67 2052.99 1153.13 Q2051.19 1149.56 2047.56 1149.56 M2047.56 1145.86 Q2053.37 1145.86 2056.42 1150.46 Q2059.5 1155.05 2059.5 1163.8 Q2059.5 1172.52 2056.42 1177.13 Q2053.37 1181.71 2047.56 1181.71 Q2041.75 1181.71 2038.67 1177.13 Q2035.61 1172.52 2035.61 1163.8 Q2035.61 1155.05 2038.67 1150.46 Q2041.75 1145.86 2047.56 1145.86 Z" fill="#000000" fill-rule="evenodd" fill-opacity="1" /><path clip-path="url(#clip900)" d="M2432.11 1177.11 L2439.75 1177.11 L2439.75 1150.74 L2431.44 1152.41 L2431.44 1148.15 L2439.71 1146.48 L2444.38 1146.48 L2444.38 1177.11 L2452.02 1177.11 L2452.02 1181.04 L2432.11 1181.04 L2432.11 1177.11 Z" fill="#000000" fill-rule="evenodd" fill-opacity="1" /><path clip-path="url(#clip900)" d="M2465.49 1177.11 L2481.81 1177.11 L2481.81 1181.04 L2459.87 1181.04 L2459.87 1177.11 Q2462.53 1174.35 2467.11 1169.72 Q2471.72 1165.07 2472.9 1163.73 Q2475.14 1161.2 2476.02 1159.47 Q2476.93 1157.71 2476.93 1156.02 Q2476.93 1153.26 2474.98 1151.53 Q2473.06 1149.79 2469.96 1149.79 Q2467.76 1149.79 2465.31 1150.56 Q2462.88 1151.32 2460.1 1152.87 L2460.1 1148.15 Q2462.92 1147.01 2465.38 1146.44 Q2467.83 1145.86 2469.87 1145.86 Q2475.24 1145.86 2478.43 1148.54 Q2481.63 1151.23 2481.63 1155.72 Q2481.63 1157.85 2480.82 1159.77 Q2480.03 1161.67 2477.92 1164.26 Q2477.34 1164.93 2474.24 1168.15 Q2471.14 1171.34 2465.49 1177.11 Z" fill="#000000" fill-rule="evenodd" fill-opacity="1" /><path clip-path="url(#clip900)" d="M2491.63 1175.16 L2496.51 1175.16 L2496.51 1181.04 L2491.63 1181.04 L2491.63 1175.16 Z" fill="#000000" fill-rule="evenodd" fill-opacity="1" /><path clip-path="url(#clip900)" d="M2506.74 1146.48 L2525.1 1146.48 L2525.1 1150.42 L2511.02 1150.42 L2511.02 1158.89 Q2512.04 1158.54 2513.06 1158.38 Q2514.08 1158.19 2515.1 1158.19 Q2520.89 1158.19 2524.26 1161.37 Q2527.64 1164.54 2527.64 1169.95 Q2527.64 1175.53 2524.17 1178.63 Q2520.7 1181.71 2514.38 1181.71 Q2512.2 1181.71 2509.94 1181.34 Q2507.69 1180.97 2505.28 1180.23 L2505.28 1175.53 Q2507.37 1176.67 2509.59 1177.22 Q2511.81 1177.78 2514.29 1177.78 Q2518.29 1177.78 2520.63 1175.67 Q2522.97 1173.56 2522.97 1169.95 Q2522.97 1166.34 2520.63 1164.24 Q2518.29 1162.13 2514.29 1162.13 Q2512.41 1162.13 2510.54 1162.55 Q2508.69 1162.96 2506.74 1163.84 L2506.74 1146.48 Z" fill="#000000" fill-rule="evenodd" fill-opacity="1" /><polyline clip-path="url(#clip900)" style="stroke:#000000; stroke-linecap:round; stroke-linejoin:round; stroke-width:4; stroke-opacity:1; fill:none" points="256.302,1116.34 256.302,665.023 "/>
<polyline clip-path="url(#clip900)" style="stroke:#000000; stroke-linecap:round; stroke-linejoin:round; stroke-width:4; stroke-opacity:1; fill:none" points="256.302,1116.34 275.2,1116.34 "/>
<polyline clip-path="url(#clip900)" style="stroke:#000000; stroke-linecap:round; stroke-linejoin:round; stroke-width:4; stroke-opacity:1; fill:none" points="256.302,1029.93 275.2,1029.93 "/>
<polyline clip-path="url(#clip900)" style="stroke:#000000; stroke-linecap:round; stroke-linejoin:round; stroke-width:4; stroke-opacity:1; fill:none" points="256.302,943.527 275.2,943.527 "/>
<polyline clip-path="url(#clip900)" style="stroke:#000000; stroke-linecap:round; stroke-linejoin:round; stroke-width:4; stroke-opacity:1; fill:none" points="256.302,857.121 275.2,857.121 "/>
<polyline clip-path="url(#clip900)" style="stroke:#000000; stroke-linecap:round; stroke-linejoin:round; stroke-width:4; stroke-opacity:1; fill:none" points="256.302,770.715 275.2,770.715 "/>
<polyline clip-path="url(#clip900)" style="stroke:#000000; stroke-linecap:round; stroke-linejoin:round; stroke-width:4; stroke-opacity:1; fill:none" points="256.302,684.31 275.2,684.31 "/>
<path clip-path="url(#clip900)" d="M128.645 1102.14 Q125.034 1102.14 123.205 1105.7 Q121.4 1109.24 121.4 1116.37 Q121.4 1123.48 123.205 1127.04 Q125.034 1130.59 128.645 1130.59 Q132.279 1130.59 134.085 1127.04 Q135.913 1123.48 135.913 1116.37 Q135.913 1109.24 134.085 1105.7 Q132.279 1102.14 128.645 1102.14 M128.645 1098.43 Q134.455 1098.43 137.511 1103.04 Q140.589 1107.62 140.589 1116.37 Q140.589 1125.1 137.511 1129.71 Q134.455 1134.29 128.645 1134.29 Q122.835 1134.29 119.756 1129.71 Q116.701 1125.1 116.701 1116.37 Q116.701 1107.62 119.756 1103.04 Q122.835 1098.43 128.645 1098.43 Z" fill="#000000" fill-rule="evenodd" fill-opacity="1" /><path clip-path="url(#clip900)" d="M148.807 1127.74 L153.691 1127.74 L153.691 1133.62 L148.807 1133.62 L148.807 1127.74 Z" fill="#000000" fill-rule="evenodd" fill-opacity="1" /><path clip-path="url(#clip900)" d="M173.876 1102.14 Q170.265 1102.14 168.436 1105.7 Q166.631 1109.24 166.631 1116.37 Q166.631 1123.48 168.436 1127.04 Q170.265 1130.59 173.876 1130.59 Q177.51 1130.59 179.316 1127.04 Q181.145 1123.48 181.145 1116.37 Q181.145 1109.24 179.316 1105.7 Q177.51 1102.14 173.876 1102.14 M173.876 1098.43 Q179.686 1098.43 182.742 1103.04 Q185.821 1107.62 185.821 1116.37 Q185.821 1125.1 182.742 1129.71 Q179.686 1134.29 173.876 1134.29 Q168.066 1134.29 164.987 1129.71 Q161.932 1125.1 161.932 1116.37 Q161.932 1107.62 164.987 1103.04 Q168.066 1098.43 173.876 1098.43 Z" fill="#000000" fill-rule="evenodd" fill-opacity="1" /><path clip-path="url(#clip900)" d="M204.038 1102.14 Q200.427 1102.14 198.598 1105.7 Q196.793 1109.24 196.793 1116.37 Q196.793 1123.48 198.598 1127.04 Q200.427 1130.59 204.038 1130.59 Q207.672 1130.59 209.478 1127.04 Q211.307 1123.48 211.307 1116.37 Q211.307 1109.24 209.478 1105.7 Q207.672 1102.14 204.038 1102.14 M204.038 1098.43 Q209.848 1098.43 212.904 1103.04 Q215.982 1107.62 215.982 1116.37 Q215.982 1125.1 212.904 1129.71 Q209.848 1134.29 204.038 1134.29 Q198.228 1134.29 195.149 1129.71 Q192.094 1125.1 192.094 1116.37 Q192.094 1107.62 195.149 1103.04 Q198.228 1098.43 204.038 1098.43 Z" fill="#000000" fill-rule="evenodd" fill-opacity="1" /><path clip-path="url(#clip900)" d="M129.64 1015.73 Q126.029 1015.73 124.201 1019.3 Q122.395 1022.84 122.395 1029.97 Q122.395 1037.07 124.201 1040.64 Q126.029 1044.18 129.64 1044.18 Q133.275 1044.18 135.08 1040.64 Q136.909 1037.07 136.909 1029.97 Q136.909 1022.84 135.08 1019.3 Q133.275 1015.73 129.64 1015.73 M129.64 1012.03 Q135.45 1012.03 138.506 1016.63 Q141.585 1021.22 141.585 1029.97 Q141.585 1038.69 138.506 1043.3 Q135.45 1047.88 129.64 1047.88 Q123.83 1047.88 120.751 1043.3 Q117.696 1038.69 117.696 1029.97 Q117.696 1021.22 120.751 1016.63 Q123.83 1012.03 129.64 1012.03 Z" fill="#000000" fill-rule="evenodd" fill-opacity="1" /><path clip-path="url(#clip900)" d="M149.802 1041.33 L154.686 1041.33 L154.686 1047.21 L149.802 1047.21 L149.802 1041.33 Z" fill="#000000" fill-rule="evenodd" fill-opacity="1" /><path clip-path="url(#clip900)" d="M174.872 1015.73 Q171.26 1015.73 169.432 1019.3 Q167.626 1022.84 167.626 1029.97 Q167.626 1037.07 169.432 1040.64 Q171.26 1044.18 174.872 1044.18 Q178.506 1044.18 180.311 1040.64 Q182.14 1037.07 182.14 1029.97 Q182.14 1022.84 180.311 1019.3 Q178.506 1015.73 174.872 1015.73 M174.872 1012.03 Q180.682 1012.03 183.737 1016.63 Q186.816 1021.22 186.816 1029.97 Q186.816 1038.69 183.737 1043.3 Q180.682 1047.88 174.872 1047.88 Q169.061 1047.88 165.983 1043.3 Q162.927 1038.69 162.927 1029.97 Q162.927 1021.22 165.983 1016.63 Q169.061 1012.03 174.872 1012.03 Z" fill="#000000" fill-rule="evenodd" fill-opacity="1" /><path clip-path="url(#clip900)" d="M195.08 1012.65 L213.436 1012.65 L213.436 1016.59 L199.362 1016.59 L199.362 1025.06 Q200.381 1024.71 201.399 1024.55 Q202.418 1024.37 203.436 1024.37 Q209.223 1024.37 212.603 1027.54 Q215.982 1030.71 215.982 1036.12 Q215.982 1041.7 212.51 1044.8 Q209.038 1047.88 202.719 1047.88 Q200.543 1047.88 198.274 1047.51 Q196.029 1047.14 193.621 1046.4 L193.621 1041.7 Q195.705 1042.84 197.927 1043.39 Q200.149 1043.95 202.626 1043.95 Q206.631 1043.95 208.969 1041.84 Q211.307 1039.74 211.307 1036.12 Q211.307 1032.51 208.969 1030.41 Q206.631 1028.3 202.626 1028.3 Q200.751 1028.3 198.876 1028.72 Q197.024 1029.13 195.08 1030.01 L195.08 1012.65 Z" fill="#000000" fill-rule="evenodd" fill-opacity="1" /><path clip-path="url(#clip900)" d="M128.645 929.325 Q125.034 929.325 123.205 932.89 Q121.4 936.432 121.4 943.561 Q121.4 950.668 123.205 954.232 Q125.034 957.774 128.645 957.774 Q132.279 957.774 134.085 954.232 Q135.913 950.668 135.913 943.561 Q135.913 936.432 134.085 932.89 Q132.279 929.325 128.645 929.325 M128.645 925.622 Q134.455 925.622 137.511 930.228 Q140.589 934.811 140.589 943.561 Q140.589 952.288 137.511 956.894 Q134.455 961.478 128.645 961.478 Q122.835 961.478 119.756 956.894 Q116.701 952.288 116.701 943.561 Q116.701 934.811 119.756 930.228 Q122.835 925.622 128.645 925.622 Z" fill="#000000" fill-rule="evenodd" fill-opacity="1" /><path clip-path="url(#clip900)" d="M148.807 954.927 L153.691 954.927 L153.691 960.807 L148.807 960.807 L148.807 954.927 Z" fill="#000000" fill-rule="evenodd" fill-opacity="1" /><path clip-path="url(#clip900)" d="M164.686 956.871 L172.325 956.871 L172.325 930.506 L164.015 932.172 L164.015 927.913 L172.279 926.247 L176.955 926.247 L176.955 956.871 L184.594 956.871 L184.594 960.807 L164.686 960.807 L164.686 956.871 Z" fill="#000000" fill-rule="evenodd" fill-opacity="1" /><path clip-path="url(#clip900)" d="M204.038 929.325 Q200.427 929.325 198.598 932.89 Q196.793 936.432 196.793 943.561 Q196.793 950.668 198.598 954.232 Q200.427 957.774 204.038 957.774 Q207.672 957.774 209.478 954.232 Q211.307 950.668 211.307 943.561 Q211.307 936.432 209.478 932.89 Q207.672 929.325 204.038 929.325 M204.038 925.622 Q209.848 925.622 212.904 930.228 Q215.982 934.811 215.982 943.561 Q215.982 952.288 212.904 956.894 Q209.848 961.478 204.038 961.478 Q198.228 961.478 195.149 956.894 Q192.094 952.288 192.094 943.561 Q192.094 934.811 195.149 930.228 Q198.228 925.622 204.038 925.622 Z" fill="#000000" fill-rule="evenodd" fill-opacity="1" /><path clip-path="url(#clip900)" d="M129.64 842.92 Q126.029 842.92 124.201 846.484 Q122.395 850.026 122.395 857.156 Q122.395 864.262 124.201 867.827 Q126.029 871.368 129.64 871.368 Q133.275 871.368 135.08 867.827 Q136.909 864.262 136.909 857.156 Q136.909 850.026 135.08 846.484 Q133.275 842.92 129.64 842.92 M129.64 839.216 Q135.45 839.216 138.506 843.822 Q141.585 848.406 141.585 857.156 Q141.585 865.882 138.506 870.489 Q135.45 875.072 129.64 875.072 Q123.83 875.072 120.751 870.489 Q117.696 865.882 117.696 857.156 Q117.696 848.406 120.751 843.822 Q123.83 839.216 129.64 839.216 Z" fill="#000000" fill-rule="evenodd" fill-opacity="1" /><path clip-path="url(#clip900)" d="M149.802 868.521 L154.686 868.521 L154.686 874.401 L149.802 874.401 L149.802 868.521 Z" fill="#000000" fill-rule="evenodd" fill-opacity="1" /><path clip-path="url(#clip900)" d="M165.682 870.466 L173.321 870.466 L173.321 844.1 L165.01 845.767 L165.01 841.508 L173.274 839.841 L177.95 839.841 L177.95 870.466 L185.589 870.466 L185.589 874.401 L165.682 874.401 L165.682 870.466 Z" fill="#000000" fill-rule="evenodd" fill-opacity="1" /><path clip-path="url(#clip900)" d="M195.08 839.841 L213.436 839.841 L213.436 843.776 L199.362 843.776 L199.362 852.248 Q200.381 851.901 201.399 851.739 Q202.418 851.554 203.436 851.554 Q209.223 851.554 212.603 854.725 Q215.982 857.896 215.982 863.313 Q215.982 868.892 212.51 871.993 Q209.038 875.072 202.719 875.072 Q200.543 875.072 198.274 874.702 Q196.029 874.331 193.621 873.591 L193.621 868.892 Q195.705 870.026 197.927 870.581 Q200.149 871.137 202.626 871.137 Q206.631 871.137 208.969 869.031 Q211.307 866.924 211.307 863.313 Q211.307 859.702 208.969 857.595 Q206.631 855.489 202.626 855.489 Q200.751 855.489 198.876 855.906 Q197.024 856.322 195.08 857.202 L195.08 839.841 Z" fill="#000000" fill-rule="evenodd" fill-opacity="1" /><path clip-path="url(#clip900)" d="M128.645 756.514 Q125.034 756.514 123.205 760.079 Q121.4 763.62 121.4 770.75 Q121.4 777.856 123.205 781.421 Q125.034 784.963 128.645 784.963 Q132.279 784.963 134.085 781.421 Q135.913 777.856 135.913 770.75 Q135.913 763.62 134.085 760.079 Q132.279 756.514 128.645 756.514 M128.645 752.81 Q134.455 752.81 137.511 757.417 Q140.589 762 140.589 770.75 Q140.589 779.477 137.511 784.083 Q134.455 788.667 128.645 788.667 Q122.835 788.667 119.756 784.083 Q116.701 779.477 116.701 770.75 Q116.701 762 119.756 757.417 Q122.835 752.81 128.645 752.81 Z" fill="#000000" fill-rule="evenodd" fill-opacity="1" /><path clip-path="url(#clip900)" d="M148.807 782.116 L153.691 782.116 L153.691 787.995 L148.807 787.995 L148.807 782.116 Z" fill="#000000" fill-rule="evenodd" fill-opacity="1" /><path clip-path="url(#clip900)" d="M167.904 784.06 L184.223 784.06 L184.223 787.995 L162.279 787.995 L162.279 784.06 Q164.941 781.305 169.524 776.676 Q174.131 772.023 175.311 770.681 Q177.557 768.157 178.436 766.421 Q179.339 764.662 179.339 762.972 Q179.339 760.218 177.395 758.482 Q175.473 756.745 172.372 756.745 Q170.172 756.745 167.719 757.509 Q165.288 758.273 162.51 759.824 L162.51 755.102 Q165.335 753.968 167.788 753.389 Q170.242 752.81 172.279 752.81 Q177.649 752.81 180.844 755.495 Q184.038 758.181 184.038 762.671 Q184.038 764.801 183.228 766.722 Q182.441 768.62 180.334 771.213 Q179.756 771.884 176.654 775.102 Q173.552 778.296 167.904 784.06 Z" fill="#000000" fill-rule="evenodd" fill-opacity="1" /><path clip-path="url(#clip900)" d="M204.038 756.514 Q200.427 756.514 198.598 760.079 Q196.793 763.62 196.793 770.75 Q196.793 777.856 198.598 781.421 Q200.427 784.963 204.038 784.963 Q207.672 784.963 209.478 781.421 Q211.307 777.856 211.307 770.75 Q211.307 763.62 209.478 760.079 Q207.672 756.514 204.038 756.514 M204.038 752.81 Q209.848 752.81 212.904 757.417 Q215.982 762 215.982 770.75 Q215.982 779.477 212.904 784.083 Q209.848 788.667 204.038 788.667 Q198.228 788.667 195.149 784.083 Q192.094 779.477 192.094 770.75 Q192.094 762 195.149 757.417 Q198.228 752.81 204.038 752.81 Z" fill="#000000" fill-rule="evenodd" fill-opacity="1" /><path clip-path="url(#clip900)" d="M129.64 670.108 Q126.029 670.108 124.201 673.673 Q122.395 677.215 122.395 684.344 Q122.395 691.451 124.201 695.016 Q126.029 698.557 129.64 698.557 Q133.275 698.557 135.08 695.016 Q136.909 691.451 136.909 684.344 Q136.909 677.215 135.08 673.673 Q133.275 670.108 129.64 670.108 M129.64 666.405 Q135.45 666.405 138.506 671.011 Q141.585 675.594 141.585 684.344 Q141.585 693.071 138.506 697.678 Q135.45 702.261 129.64 702.261 Q123.83 702.261 120.751 697.678 Q117.696 693.071 117.696 684.344 Q117.696 675.594 120.751 671.011 Q123.83 666.405 129.64 666.405 Z" fill="#000000" fill-rule="evenodd" fill-opacity="1" /><path clip-path="url(#clip900)" d="M149.802 695.71 L154.686 695.71 L154.686 701.59 L149.802 701.59 L149.802 695.71 Z" fill="#000000" fill-rule="evenodd" fill-opacity="1" /><path clip-path="url(#clip900)" d="M168.899 697.654 L185.219 697.654 L185.219 701.59 L163.274 701.59 L163.274 697.654 Q165.936 694.9 170.52 690.27 Q175.126 685.617 176.307 684.275 Q178.552 681.752 179.432 680.016 Q180.334 678.256 180.334 676.567 Q180.334 673.812 178.39 672.076 Q176.469 670.34 173.367 670.34 Q171.168 670.34 168.714 671.104 Q166.284 671.868 163.506 673.418 L163.506 668.696 Q166.33 667.562 168.784 666.983 Q171.237 666.405 173.274 666.405 Q178.645 666.405 181.839 669.09 Q185.034 671.775 185.034 676.266 Q185.034 678.395 184.223 680.317 Q183.436 682.215 181.33 684.807 Q180.751 685.479 177.649 688.696 Q174.547 691.891 168.899 697.654 Z" fill="#000000" fill-rule="evenodd" fill-opacity="1" /><path clip-path="url(#clip900)" d="M195.08 667.03 L213.436 667.03 L213.436 670.965 L199.362 670.965 L199.362 679.437 Q200.381 679.09 201.399 678.928 Q202.418 678.743 203.436 678.743 Q209.223 678.743 212.603 681.914 Q215.982 685.085 215.982 690.502 Q215.982 696.08 212.51 699.182 Q209.038 702.261 202.719 702.261 Q200.543 702.261 198.274 701.891 Q196.029 701.52 193.621 700.779 L193.621 696.08 Q195.705 697.215 197.927 697.77 Q200.149 698.326 202.626 698.326 Q206.631 698.326 208.969 696.219 Q211.307 694.113 211.307 690.502 Q211.307 686.891 208.969 684.784 Q206.631 682.678 202.626 682.678 Q200.751 682.678 198.876 683.094 Q197.024 683.511 195.08 684.391 L195.08 667.03 Z" fill="#000000" fill-rule="evenodd" fill-opacity="1" /><path clip-path="url(#clip900)" d="M19.8881 899.593 L37.7439 899.593 L37.7439 891.508 Q37.7439 887.02 35.4204 884.569 Q33.0969 882.119 28.8001 882.119 Q24.5351 882.119 22.2116 884.569 Q19.8881 887.02 19.8881 891.508 L19.8881 899.593 M14.6046 906.022 L14.6046 891.508 Q14.6046 883.519 18.233 879.445 Q21.8296 875.339 28.8001 875.339 Q35.8342 875.339 39.4308 879.445 Q43.0274 883.519 43.0274 891.508 L43.0274 899.593 L62.1246 899.593 L62.1246 906.022 L14.6046 906.022 Z" fill="#000000" fill-rule="evenodd" fill-opacity="1" /><polyline clip-path="url(#clip903)" style="stroke:#009af9; stroke-linecap:round; stroke-linejoin:round; stroke-width:4; stroke-opacity:1; fill:none" points="323.787,665.023 511.244,665.023 698.701,665.023 886.158,665.023 1073.62,665.023 1261.07,665.023 1448.53,665.023 1635.99,665.023 1823.44,665.023 2010.9,665.023 2198.36,665.023 2385.81,665.023 2573.27,665.023 "/>
<circle clip-path="url(#clip903)" cx="323.787" cy="665.023" r="14.4" fill="#009af9" fill-rule="evenodd" fill-opacity="1" stroke="#000000" stroke-opacity="1" stroke-width="3.84"/>
<circle clip-path="url(#clip903)" cx="511.244" cy="665.023" r="14.4" fill="#009af9" fill-rule="evenodd" fill-opacity="1" stroke="#000000" stroke-opacity="1" stroke-width="3.84"/>
<circle clip-path="url(#clip903)" cx="698.701" cy="665.023" r="14.4" fill="#009af9" fill-rule="evenodd" fill-opacity="1" stroke="#000000" stroke-opacity="1" stroke-width="3.84"/>
<circle clip-path="url(#clip903)" cx="886.158" cy="665.023" r="14.4" fill="#009af9" fill-rule="evenodd" fill-opacity="1" stroke="#000000" stroke-opacity="1" stroke-width="3.84"/>
<circle clip-path="url(#clip903)" cx="1073.62" cy="665.023" r="14.4" fill="#009af9" fill-rule="evenodd" fill-opacity="1" stroke="#000000" stroke-opacity="1" stroke-width="3.84"/>
<circle clip-path="url(#clip903)" cx="1261.07" cy="665.023" r="14.4" fill="#009af9" fill-rule="evenodd" fill-opacity="1" stroke="#000000" stroke-opacity="1" stroke-width="3.84"/>
<circle clip-path="url(#clip903)" cx="1448.53" cy="665.023" r="14.4" fill="#009af9" fill-rule="evenodd" fill-opacity="1" stroke="#000000" stroke-opacity="1" stroke-width="3.84"/>
<circle clip-path="url(#clip903)" cx="1635.99" cy="665.023" r="14.4" fill="#009af9" fill-rule="evenodd" fill-opacity="1" stroke="#000000" stroke-opacity="1" stroke-width="3.84"/>
<circle clip-path="url(#clip903)" cx="1823.44" cy="665.023" r="14.4" fill="#009af9" fill-rule="evenodd" fill-opacity="1" stroke="#000000" stroke-opacity="1" stroke-width="3.84"/>
<circle clip-path="url(#clip903)" cx="2010.9" cy="665.023" r="14.4" fill="#009af9" fill-rule="evenodd" fill-opacity="1" stroke="#000000" stroke-opacity="1" stroke-width="3.84"/>
<circle clip-path="url(#clip903)" cx="2198.36" cy="665.023" r="14.4" fill="#009af9" fill-rule="evenodd" fill-opacity="1" stroke="#000000" stroke-opacity="1" stroke-width="3.84"/>
<circle clip-path="url(#clip903)" cx="2385.81" cy="665.023" r="14.4" fill="#009af9" fill-rule="evenodd" fill-opacity="1" stroke="#000000" stroke-opacity="1" stroke-width="3.84"/>
<circle clip-path="url(#clip903)" cx="2573.27" cy="665.023" r="14.4" fill="#009af9" fill-rule="evenodd" fill-opacity="1" stroke="#000000" stroke-opacity="1" stroke-width="3.84"/>
<path clip-path="url(#clip900)" d="M256.302 1734.12 L2640.76 1734.12 L2640.76 1282.8 L256.302 1282.8  Z" fill="#ffffff" fill-rule="evenodd" fill-opacity="1"/>
<defs>
  <clipPath id="clip904">
    <rect x="256" y="1282" width="2385" height="452"/>
  </clipPath>
</defs>
<polyline clip-path="url(#clip900)" style="stroke:#000000; stroke-linecap:round; stroke-linejoin:round; stroke-width:4; stroke-opacity:1; fill:none" points="256.302,1734.12 2640.76,1734.12 "/>
<polyline clip-path="url(#clip900)" style="stroke:#000000; stroke-linecap:round; stroke-linejoin:round; stroke-width:4; stroke-opacity:1; fill:none" points="323.787,1734.12 323.787,1715.22 "/>
<polyline clip-path="url(#clip900)" style="stroke:#000000; stroke-linecap:round; stroke-linejoin:round; stroke-width:4; stroke-opacity:1; fill:none" points="669.861,1734.12 669.861,1715.22 "/>
<polyline clip-path="url(#clip900)" style="stroke:#000000; stroke-linecap:round; stroke-linejoin:round; stroke-width:4; stroke-opacity:1; fill:none" points="1015.94,1734.12 1015.94,1715.22 "/>
<polyline clip-path="url(#clip900)" style="stroke:#000000; stroke-linecap:round; stroke-linejoin:round; stroke-width:4; stroke-opacity:1; fill:none" points="1362.01,1734.12 1362.01,1715.22 "/>
<polyline clip-path="url(#clip900)" style="stroke:#000000; stroke-linecap:round; stroke-linejoin:round; stroke-width:4; stroke-opacity:1; fill:none" points="1708.09,1734.12 1708.09,1715.22 "/>
<polyline clip-path="url(#clip900)" style="stroke:#000000; stroke-linecap:round; stroke-linejoin:round; stroke-width:4; stroke-opacity:1; fill:none" points="2054.16,1734.12 2054.16,1715.22 "/>
<polyline clip-path="url(#clip900)" style="stroke:#000000; stroke-linecap:round; stroke-linejoin:round; stroke-width:4; stroke-opacity:1; fill:none" points="2400.23,1734.12 2400.23,1715.22 "/>
<path clip-path="url(#clip900)" d="M323.787 1767.34 Q320.176 1767.34 318.347 1770.9 Q316.542 1774.45 316.542 1781.58 Q316.542 1788.68 318.347 1792.25 Q320.176 1795.79 323.787 1795.79 Q327.421 1795.79 329.227 1792.25 Q331.055 1788.68 331.055 1781.58 Q331.055 1774.45 329.227 1770.9 Q327.421 1767.34 323.787 1767.34 M323.787 1763.64 Q329.597 1763.64 332.653 1768.24 Q335.731 1772.83 335.731 1781.58 Q335.731 1790.3 332.653 1794.91 Q329.597 1799.49 323.787 1799.49 Q317.977 1799.49 314.898 1794.91 Q311.843 1790.3 311.843 1781.58 Q311.843 1772.83 314.898 1768.24 Q317.977 1763.64 323.787 1763.64 Z" fill="#000000" fill-rule="evenodd" fill-opacity="1" /><path clip-path="url(#clip900)" d="M664.514 1794.89 L680.834 1794.89 L680.834 1798.82 L658.889 1798.82 L658.889 1794.89 Q661.551 1792.13 666.135 1787.5 Q670.741 1782.85 671.922 1781.51 Q674.167 1778.98 675.047 1777.25 Q675.949 1775.49 675.949 1773.8 Q675.949 1771.04 674.005 1769.31 Q672.084 1767.57 668.982 1767.57 Q666.783 1767.57 664.329 1768.34 Q661.899 1769.1 659.121 1770.65 L659.121 1765.93 Q661.945 1764.79 664.399 1764.21 Q666.852 1763.64 668.889 1763.64 Q674.26 1763.64 677.454 1766.32 Q680.648 1769.01 680.648 1773.5 Q680.648 1775.63 679.838 1777.55 Q679.051 1779.45 676.945 1782.04 Q676.366 1782.71 673.264 1785.93 Q670.162 1789.12 664.514 1794.89 Z" fill="#000000" fill-rule="evenodd" fill-opacity="1" /><path clip-path="url(#clip900)" d="M1018.95 1768.34 L1007.14 1786.78 L1018.95 1786.78 L1018.95 1768.34 M1017.72 1764.26 L1023.6 1764.26 L1023.6 1786.78 L1028.53 1786.78 L1028.53 1790.67 L1023.6 1790.67 L1023.6 1798.82 L1018.95 1798.82 L1018.95 1790.67 L1003.34 1790.67 L1003.34 1786.16 L1017.72 1764.26 Z" fill="#000000" fill-rule="evenodd" fill-opacity="1" /><path clip-path="url(#clip900)" d="M1362.42 1779.68 Q1359.27 1779.68 1357.42 1781.83 Q1355.59 1783.98 1355.59 1787.73 Q1355.59 1791.46 1357.42 1793.64 Q1359.27 1795.79 1362.42 1795.79 Q1365.56 1795.79 1367.39 1793.64 Q1369.24 1791.46 1369.24 1787.73 Q1369.24 1783.98 1367.39 1781.83 Q1365.56 1779.68 1362.42 1779.68 M1371.7 1765.02 L1371.7 1769.28 Q1369.94 1768.45 1368.13 1768.01 Q1366.35 1767.57 1364.59 1767.57 Q1359.96 1767.57 1357.51 1770.7 Q1355.08 1773.82 1354.73 1780.14 Q1356.1 1778.13 1358.16 1777.06 Q1360.22 1775.97 1362.69 1775.97 Q1367.9 1775.97 1370.91 1779.15 Q1373.94 1782.29 1373.94 1787.73 Q1373.94 1793.06 1370.8 1796.27 Q1367.65 1799.49 1362.42 1799.49 Q1356.42 1799.49 1353.25 1794.91 Q1350.08 1790.3 1350.08 1781.58 Q1350.08 1773.38 1353.97 1768.52 Q1357.86 1763.64 1364.41 1763.64 Q1366.17 1763.64 1367.95 1763.98 Q1369.75 1764.33 1371.7 1765.02 Z" fill="#000000" fill-rule="evenodd" fill-opacity="1" /><path clip-path="url(#clip900)" d="M1708.09 1782.41 Q1704.75 1782.41 1702.83 1784.19 Q1700.93 1785.97 1700.93 1789.1 Q1700.93 1792.22 1702.83 1794.01 Q1704.75 1795.79 1708.09 1795.79 Q1711.42 1795.79 1713.34 1794.01 Q1715.26 1792.2 1715.26 1789.1 Q1715.26 1785.97 1713.34 1784.19 Q1711.44 1782.41 1708.09 1782.41 M1703.41 1780.42 Q1700.4 1779.68 1698.71 1777.62 Q1697.04 1775.56 1697.04 1772.59 Q1697.04 1768.45 1699.98 1766.04 Q1702.95 1763.64 1708.09 1763.64 Q1713.25 1763.64 1716.19 1766.04 Q1719.13 1768.45 1719.13 1772.59 Q1719.13 1775.56 1717.44 1777.62 Q1715.77 1779.68 1712.78 1780.42 Q1716.16 1781.21 1718.04 1783.5 Q1719.94 1785.79 1719.94 1789.1 Q1719.94 1794.12 1716.86 1796.81 Q1713.8 1799.49 1708.09 1799.49 Q1702.37 1799.49 1699.29 1796.81 Q1696.23 1794.12 1696.23 1789.1 Q1696.23 1785.79 1698.13 1783.5 Q1700.03 1781.21 1703.41 1780.42 M1701.7 1773.03 Q1701.7 1775.72 1703.36 1777.22 Q1705.05 1778.73 1708.09 1778.73 Q1711.09 1778.73 1712.78 1777.22 Q1714.5 1775.72 1714.5 1773.03 Q1714.5 1770.35 1712.78 1768.84 Q1711.09 1767.34 1708.09 1767.34 Q1705.05 1767.34 1703.36 1768.84 Q1701.7 1770.35 1701.7 1773.03 Z" fill="#000000" fill-rule="evenodd" fill-opacity="1" /><path clip-path="url(#clip900)" d="M2028.85 1794.89 L2036.49 1794.89 L2036.49 1768.52 L2028.18 1770.19 L2028.18 1765.93 L2036.44 1764.26 L2041.12 1764.26 L2041.12 1794.89 L2048.75 1794.89 L2048.75 1798.82 L2028.85 1798.82 L2028.85 1794.89 Z" fill="#000000" fill-rule="evenodd" fill-opacity="1" /><path clip-path="url(#clip900)" d="M2068.2 1767.34 Q2064.59 1767.34 2062.76 1770.9 Q2060.95 1774.45 2060.95 1781.58 Q2060.95 1788.68 2062.76 1792.25 Q2064.59 1795.79 2068.2 1795.79 Q2071.83 1795.79 2073.64 1792.25 Q2075.47 1788.68 2075.47 1781.58 Q2075.47 1774.45 2073.64 1770.9 Q2071.83 1767.34 2068.2 1767.34 M2068.2 1763.64 Q2074.01 1763.64 2077.06 1768.24 Q2080.14 1772.83 2080.14 1781.58 Q2080.14 1790.3 2077.06 1794.91 Q2074.01 1799.49 2068.2 1799.49 Q2062.39 1799.49 2059.31 1794.91 Q2056.25 1790.3 2056.25 1781.58 Q2056.25 1772.83 2059.31 1768.24 Q2062.39 1763.64 2068.2 1763.64 Z" fill="#000000" fill-rule="evenodd" fill-opacity="1" /><path clip-path="url(#clip900)" d="M2375.72 1794.89 L2383.36 1794.89 L2383.36 1768.52 L2375.05 1770.19 L2375.05 1765.93 L2383.31 1764.26 L2387.99 1764.26 L2387.99 1794.89 L2395.63 1794.89 L2395.63 1798.82 L2375.72 1798.82 L2375.72 1794.89 Z" fill="#000000" fill-rule="evenodd" fill-opacity="1" /><path clip-path="url(#clip900)" d="M2409.1 1794.89 L2425.42 1794.89 L2425.42 1798.82 L2403.47 1798.82 L2403.47 1794.89 Q2406.14 1792.13 2410.72 1787.5 Q2415.33 1782.85 2416.51 1781.51 Q2418.75 1778.98 2419.63 1777.25 Q2420.53 1775.49 2420.53 1773.8 Q2420.53 1771.04 2418.59 1769.31 Q2416.67 1767.57 2413.57 1767.57 Q2411.37 1767.57 2408.91 1768.34 Q2406.48 1769.1 2403.71 1770.65 L2403.71 1765.93 Q2406.53 1764.79 2408.98 1764.21 Q2411.44 1763.64 2413.47 1763.64 Q2418.85 1763.64 2422.04 1766.32 Q2425.23 1769.01 2425.23 1773.5 Q2425.23 1775.63 2424.42 1777.55 Q2423.64 1779.45 2421.53 1782.04 Q2420.95 1782.71 2417.85 1785.93 Q2414.75 1789.12 2409.1 1794.89 Z" fill="#000000" fill-rule="evenodd" fill-opacity="1" /><path clip-path="url(#clip900)" d="M1269.49 1837.34 L1269.49 1843.61 Q1265.83 1841.86 1262.59 1841 Q1259.34 1840.14 1256.32 1840.14 Q1251.06 1840.14 1248.2 1842.18 Q1245.37 1844.22 1245.37 1847.97 Q1245.37 1851.12 1247.25 1852.75 Q1249.16 1854.34 1254.44 1855.32 L1258.32 1856.12 Q1265.52 1857.49 1268.92 1860.96 Q1272.36 1864.39 1272.36 1870.19 Q1272.36 1877.09 1267.71 1880.66 Q1263.1 1884.22 1254.15 1884.22 Q1250.78 1884.22 1246.96 1883.46 Q1243.17 1882.7 1239.1 1881.2 L1239.1 1874.58 Q1243.01 1876.78 1246.77 1877.89 Q1250.52 1879 1254.15 1879 Q1259.66 1879 1262.65 1876.84 Q1265.64 1874.68 1265.64 1870.67 Q1265.64 1867.16 1263.48 1865.19 Q1261.35 1863.22 1256.44 1862.23 L1252.53 1861.47 Q1245.34 1860.03 1242.12 1856.98 Q1238.91 1853.92 1238.91 1848.48 Q1238.91 1842.18 1243.33 1838.55 Q1247.79 1834.92 1255.58 1834.92 Q1258.93 1834.92 1262.4 1835.53 Q1265.87 1836.13 1269.49 1837.34 Z" fill="#000000" fill-rule="evenodd" fill-opacity="1" /><path clip-path="url(#clip900)" d="M1287.92 1837.53 L1287.92 1847.65 L1299.99 1847.65 L1299.99 1852.2 L1287.92 1852.2 L1287.92 1871.56 Q1287.92 1875.92 1289.1 1877.16 Q1290.31 1878.4 1293.97 1878.4 L1299.99 1878.4 L1299.99 1883.3 L1293.97 1883.3 Q1287.19 1883.3 1284.61 1880.79 Q1282.03 1878.24 1282.03 1871.56 L1282.03 1852.2 L1277.74 1852.2 L1277.74 1847.65 L1282.03 1847.65 L1282.03 1837.53 L1287.92 1837.53 Z" fill="#000000" fill-rule="evenodd" fill-opacity="1" /><path clip-path="url(#clip900)" d="M1338.18 1864.01 L1338.18 1866.88 L1311.25 1866.88 Q1311.63 1872.92 1314.88 1876.11 Q1318.16 1879.26 1323.98 1879.26 Q1327.36 1879.26 1330.51 1878.43 Q1333.69 1877.6 1336.81 1875.95 L1336.81 1881.49 Q1333.66 1882.82 1330.35 1883.52 Q1327.04 1884.22 1323.63 1884.22 Q1315.1 1884.22 1310.11 1879.26 Q1305.14 1874.29 1305.14 1865.83 Q1305.14 1857.07 1309.85 1851.95 Q1314.59 1846.79 1322.62 1846.79 Q1329.81 1846.79 1333.98 1851.44 Q1338.18 1856.06 1338.18 1864.01 M1332.32 1862.29 Q1332.26 1857.49 1329.62 1854.62 Q1327.01 1851.76 1322.68 1851.76 Q1317.78 1851.76 1314.82 1854.53 Q1311.89 1857.3 1311.44 1862.33 L1332.32 1862.29 Z" fill="#000000" fill-rule="evenodd" fill-opacity="1" /><path clip-path="url(#clip900)" d="M1353.46 1877.95 L1353.46 1896.86 L1347.57 1896.86 L1347.57 1847.65 L1353.46 1847.65 L1353.46 1853.06 Q1355.3 1849.88 1358.1 1848.35 Q1360.94 1846.79 1364.85 1846.79 Q1371.34 1846.79 1375.39 1851.95 Q1379.46 1857.11 1379.46 1865.51 Q1379.46 1873.91 1375.39 1879.07 Q1371.34 1884.22 1364.85 1884.22 Q1360.94 1884.22 1358.1 1882.7 Q1355.3 1881.14 1353.46 1877.95 M1373.38 1865.51 Q1373.38 1859.05 1370.71 1855.39 Q1368.07 1851.7 1363.42 1851.7 Q1358.77 1851.7 1356.1 1855.39 Q1353.46 1859.05 1353.46 1865.51 Q1353.46 1871.97 1356.1 1875.66 Q1358.77 1879.32 1363.42 1879.32 Q1368.07 1879.32 1370.71 1875.66 Q1373.38 1871.97 1373.38 1865.51 Z" fill="#000000" fill-rule="evenodd" fill-opacity="1" /><path clip-path="url(#clip900)" d="M1439.52 1861.78 L1439.52 1883.3 L1433.67 1883.3 L1433.67 1861.98 Q1433.67 1856.92 1431.69 1854.4 Q1429.72 1851.89 1425.77 1851.89 Q1421.03 1851.89 1418.29 1854.91 Q1415.55 1857.93 1415.55 1863.15 L1415.55 1883.3 L1409.67 1883.3 L1409.67 1847.65 L1415.55 1847.65 L1415.55 1853.19 Q1417.66 1849.98 1420.49 1848.39 Q1423.35 1846.79 1427.08 1846.79 Q1433.22 1846.79 1436.37 1850.61 Q1439.52 1854.4 1439.52 1861.78 Z" fill="#000000" fill-rule="evenodd" fill-opacity="1" /><path clip-path="url(#clip900)" d="M1450.6 1869.23 L1450.6 1847.65 L1456.45 1847.65 L1456.45 1869.01 Q1456.45 1874.07 1458.43 1876.62 Q1460.4 1879.13 1464.35 1879.13 Q1469.09 1879.13 1471.83 1876.11 Q1474.6 1873.08 1474.6 1867.86 L1474.6 1847.65 L1480.45 1847.65 L1480.45 1883.3 L1474.6 1883.3 L1474.6 1877.83 Q1472.46 1881.07 1469.63 1882.66 Q1466.83 1884.22 1463.11 1884.22 Q1456.96 1884.22 1453.78 1880.4 Q1450.6 1876.59 1450.6 1869.23 M1465.33 1846.79 L1465.33 1846.79 Z" fill="#000000" fill-rule="evenodd" fill-opacity="1" /><path clip-path="url(#clip900)" d="M1520.27 1854.5 Q1522.47 1850.55 1525.52 1848.67 Q1528.58 1846.79 1532.72 1846.79 Q1538.29 1846.79 1541.31 1850.71 Q1544.33 1854.59 1544.33 1861.78 L1544.33 1883.3 L1538.44 1883.3 L1538.44 1861.98 Q1538.44 1856.85 1536.63 1854.37 Q1534.82 1851.89 1531.09 1851.89 Q1526.54 1851.89 1523.9 1854.91 Q1521.26 1857.93 1521.26 1863.15 L1521.26 1883.3 L1515.37 1883.3 L1515.37 1861.98 Q1515.37 1856.82 1513.55 1854.37 Q1511.74 1851.89 1507.95 1851.89 Q1503.47 1851.89 1500.82 1854.94 Q1498.18 1857.97 1498.18 1863.15 L1498.18 1883.3 L1492.29 1883.3 L1492.29 1847.65 L1498.18 1847.65 L1498.18 1853.19 Q1500.19 1849.91 1502.99 1848.35 Q1505.79 1846.79 1509.64 1846.79 Q1513.52 1846.79 1516.23 1848.77 Q1518.97 1850.74 1520.27 1854.5 Z" fill="#000000" fill-rule="evenodd" fill-opacity="1" /><path clip-path="url(#clip900)" d="M1581.6 1865.51 Q1581.6 1859.05 1578.93 1855.39 Q1576.29 1851.7 1571.64 1851.7 Q1566.99 1851.7 1564.32 1855.39 Q1561.68 1859.05 1561.68 1865.51 Q1561.68 1871.97 1564.32 1875.66 Q1566.99 1879.32 1571.64 1879.32 Q1576.29 1879.32 1578.93 1875.66 Q1581.6 1871.97 1581.6 1865.51 M1561.68 1853.06 Q1563.53 1849.88 1566.33 1848.35 Q1569.16 1846.79 1573.07 1846.79 Q1579.57 1846.79 1583.61 1851.95 Q1587.68 1857.11 1587.68 1865.51 Q1587.68 1873.91 1583.61 1879.07 Q1579.57 1884.22 1573.07 1884.22 Q1569.16 1884.22 1566.33 1882.7 Q1563.53 1881.14 1561.68 1877.95 L1561.68 1883.3 L1555.79 1883.3 L1555.79 1833.78 L1561.68 1833.78 L1561.68 1853.06 Z" fill="#000000" fill-rule="evenodd" fill-opacity="1" /><path clip-path="url(#clip900)" d="M1627.88 1864.01 L1627.88 1866.88 L1600.96 1866.88 Q1601.34 1872.92 1604.58 1876.11 Q1607.86 1879.26 1613.69 1879.26 Q1617.06 1879.26 1620.21 1878.43 Q1623.4 1877.6 1626.51 1875.95 L1626.51 1881.49 Q1623.36 1882.82 1620.05 1883.52 Q1616.74 1884.22 1613.34 1884.22 Q1604.81 1884.22 1599.81 1879.26 Q1594.84 1874.29 1594.84 1865.83 Q1594.84 1857.07 1599.56 1851.95 Q1604.3 1846.79 1612.32 1846.79 Q1619.51 1846.79 1623.68 1851.44 Q1627.88 1856.06 1627.88 1864.01 M1622.03 1862.29 Q1621.96 1857.49 1619.32 1854.62 Q1616.71 1851.76 1612.38 1851.76 Q1607.48 1851.76 1604.52 1854.53 Q1601.59 1857.3 1601.15 1862.33 L1622.03 1862.29 Z" fill="#000000" fill-rule="evenodd" fill-opacity="1" /><path clip-path="url(#clip900)" d="M1658.15 1853.13 Q1657.17 1852.55 1655.99 1852.3 Q1654.84 1852.01 1653.44 1852.01 Q1648.48 1852.01 1645.8 1855.26 Q1643.16 1858.47 1643.16 1864.52 L1643.16 1883.3 L1637.27 1883.3 L1637.27 1847.65 L1643.16 1847.65 L1643.16 1853.19 Q1645.01 1849.94 1647.97 1848.39 Q1650.93 1846.79 1655.16 1846.79 Q1655.76 1846.79 1656.5 1846.89 Q1657.23 1846.95 1658.12 1847.11 L1658.15 1853.13 Z" fill="#000000" fill-rule="evenodd" fill-opacity="1" /><polyline clip-path="url(#clip900)" style="stroke:#000000; stroke-linecap:round; stroke-linejoin:round; stroke-width:4; stroke-opacity:1; fill:none" points="256.302,1734.12 256.302,1282.8 "/>
<polyline clip-path="url(#clip900)" style="stroke:#000000; stroke-linecap:round; stroke-linejoin:round; stroke-width:4; stroke-opacity:1; fill:none" points="256.302,1721.34 275.2,1721.34 "/>
<polyline clip-path="url(#clip900)" style="stroke:#000000; stroke-linecap:round; stroke-linejoin:round; stroke-width:4; stroke-opacity:1; fill:none" points="256.302,1630.92 275.2,1630.92 "/>
<polyline clip-path="url(#clip900)" style="stroke:#000000; stroke-linecap:round; stroke-linejoin:round; stroke-width:4; stroke-opacity:1; fill:none" points="256.302,1540.5 275.2,1540.5 "/>
<polyline clip-path="url(#clip900)" style="stroke:#000000; stroke-linecap:round; stroke-linejoin:round; stroke-width:4; stroke-opacity:1; fill:none" points="256.302,1450.08 275.2,1450.08 "/>
<polyline clip-path="url(#clip900)" style="stroke:#000000; stroke-linecap:round; stroke-linejoin:round; stroke-width:4; stroke-opacity:1; fill:none" points="256.302,1359.65 275.2,1359.65 "/>
<path clip-path="url(#clip900)" d="M128.645 1707.14 Q125.034 1707.14 123.205 1710.71 Q121.4 1714.25 121.4 1721.38 Q121.4 1728.49 123.205 1732.05 Q125.034 1735.59 128.645 1735.59 Q132.279 1735.59 134.085 1732.05 Q135.913 1728.49 135.913 1721.38 Q135.913 1714.25 134.085 1710.71 Q132.279 1707.14 128.645 1707.14 M128.645 1703.44 Q134.455 1703.44 137.511 1708.05 Q140.589 1712.63 140.589 1721.38 Q140.589 1730.11 137.511 1734.71 Q134.455 1739.3 128.645 1739.3 Q122.835 1739.3 119.756 1734.71 Q116.701 1730.11 116.701 1721.38 Q116.701 1712.63 119.756 1708.05 Q122.835 1703.44 128.645 1703.44 Z" fill="#000000" fill-rule="evenodd" fill-opacity="1" /><path clip-path="url(#clip900)" d="M148.807 1732.74 L153.691 1732.74 L153.691 1738.62 L148.807 1738.62 L148.807 1732.74 Z" fill="#000000" fill-rule="evenodd" fill-opacity="1" /><path clip-path="url(#clip900)" d="M173.876 1707.14 Q170.265 1707.14 168.436 1710.71 Q166.631 1714.25 166.631 1721.38 Q166.631 1728.49 168.436 1732.05 Q170.265 1735.59 173.876 1735.59 Q177.51 1735.59 179.316 1732.05 Q181.145 1728.49 181.145 1721.38 Q181.145 1714.25 179.316 1710.71 Q177.51 1707.14 173.876 1707.14 M173.876 1703.44 Q179.686 1703.44 182.742 1708.05 Q185.821 1712.63 185.821 1721.38 Q185.821 1730.11 182.742 1734.71 Q179.686 1739.3 173.876 1739.3 Q168.066 1739.3 164.987 1734.71 Q161.932 1730.11 161.932 1721.38 Q161.932 1712.63 164.987 1708.05 Q168.066 1703.44 173.876 1703.44 Z" fill="#000000" fill-rule="evenodd" fill-opacity="1" /><path clip-path="url(#clip900)" d="M204.038 1707.14 Q200.427 1707.14 198.598 1710.71 Q196.793 1714.25 196.793 1721.38 Q196.793 1728.49 198.598 1732.05 Q200.427 1735.59 204.038 1735.59 Q207.672 1735.59 209.478 1732.05 Q211.307 1728.49 211.307 1721.38 Q211.307 1714.25 209.478 1710.71 Q207.672 1707.14 204.038 1707.14 M204.038 1703.44 Q209.848 1703.44 212.904 1708.05 Q215.982 1712.63 215.982 1721.38 Q215.982 1730.11 212.904 1734.71 Q209.848 1739.3 204.038 1739.3 Q198.228 1739.3 195.149 1734.71 Q192.094 1730.11 192.094 1721.38 Q192.094 1712.63 195.149 1708.05 Q198.228 1703.44 204.038 1703.44 Z" fill="#000000" fill-rule="evenodd" fill-opacity="1" /><path clip-path="url(#clip900)" d="M130.242 1616.72 Q126.631 1616.72 124.802 1620.28 Q122.997 1623.83 122.997 1630.96 Q122.997 1638.06 124.802 1641.63 Q126.631 1645.17 130.242 1645.17 Q133.876 1645.17 135.682 1641.63 Q137.511 1638.06 137.511 1630.96 Q137.511 1623.83 135.682 1620.28 Q133.876 1616.72 130.242 1616.72 M130.242 1613.02 Q136.052 1613.02 139.108 1617.62 Q142.187 1622.21 142.187 1630.96 Q142.187 1639.68 139.108 1644.29 Q136.052 1648.87 130.242 1648.87 Q124.432 1648.87 121.353 1644.29 Q118.298 1639.68 118.298 1630.96 Q118.298 1622.21 121.353 1617.62 Q124.432 1613.02 130.242 1613.02 Z" fill="#000000" fill-rule="evenodd" fill-opacity="1" /><path clip-path="url(#clip900)" d="M150.404 1642.32 L155.288 1642.32 L155.288 1648.2 L150.404 1648.2 L150.404 1642.32 Z" fill="#000000" fill-rule="evenodd" fill-opacity="1" /><path clip-path="url(#clip900)" d="M175.473 1616.72 Q171.862 1616.72 170.034 1620.28 Q168.228 1623.83 168.228 1630.96 Q168.228 1638.06 170.034 1641.63 Q171.862 1645.17 175.473 1645.17 Q179.108 1645.17 180.913 1641.63 Q182.742 1638.06 182.742 1630.96 Q182.742 1623.83 180.913 1620.28 Q179.108 1616.72 175.473 1616.72 M175.473 1613.02 Q181.284 1613.02 184.339 1617.62 Q187.418 1622.21 187.418 1630.96 Q187.418 1639.68 184.339 1644.29 Q181.284 1648.87 175.473 1648.87 Q169.663 1648.87 166.585 1644.29 Q163.529 1639.68 163.529 1630.96 Q163.529 1622.21 166.585 1617.62 Q169.663 1613.02 175.473 1613.02 Z" fill="#000000" fill-rule="evenodd" fill-opacity="1" /><path clip-path="url(#clip900)" d="M199.663 1644.27 L215.982 1644.27 L215.982 1648.2 L194.038 1648.2 L194.038 1644.27 Q196.7 1641.51 201.283 1636.88 Q205.89 1632.23 207.07 1630.89 Q209.316 1628.36 210.195 1626.63 Q211.098 1624.87 211.098 1623.18 Q211.098 1620.42 209.154 1618.69 Q207.232 1616.95 204.131 1616.95 Q201.932 1616.95 199.478 1617.72 Q197.047 1618.48 194.27 1620.03 L194.27 1615.31 Q197.094 1614.17 199.547 1613.59 Q202.001 1613.02 204.038 1613.02 Q209.408 1613.02 212.603 1615.7 Q215.797 1618.39 215.797 1622.88 Q215.797 1625.01 214.987 1626.93 Q214.2 1628.83 212.094 1631.42 Q211.515 1632.09 208.413 1635.31 Q205.311 1638.5 199.663 1644.27 Z" fill="#000000" fill-rule="evenodd" fill-opacity="1" /><path clip-path="url(#clip900)" d="M128.159 1526.3 Q124.548 1526.3 122.719 1529.86 Q120.913 1533.4 120.913 1540.53 Q120.913 1547.64 122.719 1551.2 Q124.548 1554.75 128.159 1554.75 Q131.793 1554.75 133.599 1551.2 Q135.427 1547.64 135.427 1540.53 Q135.427 1533.4 133.599 1529.86 Q131.793 1526.3 128.159 1526.3 M128.159 1522.59 Q133.969 1522.59 137.025 1527.2 Q140.103 1531.78 140.103 1540.53 Q140.103 1549.26 137.025 1553.87 Q133.969 1558.45 128.159 1558.45 Q122.349 1558.45 119.27 1553.87 Q116.214 1549.26 116.214 1540.53 Q116.214 1531.78 119.27 1527.2 Q122.349 1522.59 128.159 1522.59 Z" fill="#000000" fill-rule="evenodd" fill-opacity="1" /><path clip-path="url(#clip900)" d="M148.321 1551.9 L153.205 1551.9 L153.205 1557.78 L148.321 1557.78 L148.321 1551.9 Z" fill="#000000" fill-rule="evenodd" fill-opacity="1" /><path clip-path="url(#clip900)" d="M173.39 1526.3 Q169.779 1526.3 167.95 1529.86 Q166.145 1533.4 166.145 1540.53 Q166.145 1547.64 167.95 1551.2 Q169.779 1554.75 173.39 1554.75 Q177.024 1554.75 178.83 1551.2 Q180.659 1547.64 180.659 1540.53 Q180.659 1533.4 178.83 1529.86 Q177.024 1526.3 173.39 1526.3 M173.39 1522.59 Q179.2 1522.59 182.256 1527.2 Q185.334 1531.78 185.334 1540.53 Q185.334 1549.26 182.256 1553.87 Q179.2 1558.45 173.39 1558.45 Q167.58 1558.45 164.501 1553.87 Q161.446 1549.26 161.446 1540.53 Q161.446 1531.78 164.501 1527.2 Q167.58 1522.59 173.39 1522.59 Z" fill="#000000" fill-rule="evenodd" fill-opacity="1" /><path clip-path="url(#clip900)" d="M206.399 1527.29 L194.594 1545.74 L206.399 1545.74 L206.399 1527.29 M205.172 1523.22 L211.052 1523.22 L211.052 1545.74 L215.982 1545.74 L215.982 1549.63 L211.052 1549.63 L211.052 1557.78 L206.399 1557.78 L206.399 1549.63 L190.797 1549.63 L190.797 1545.12 L205.172 1523.22 Z" fill="#000000" fill-rule="evenodd" fill-opacity="1" /><path clip-path="url(#clip900)" d="M128.483 1435.87 Q124.872 1435.87 123.043 1439.44 Q121.238 1442.98 121.238 1450.11 Q121.238 1457.22 123.043 1460.78 Q124.872 1464.32 128.483 1464.32 Q132.117 1464.32 133.923 1460.78 Q135.751 1457.22 135.751 1450.11 Q135.751 1442.98 133.923 1439.44 Q132.117 1435.87 128.483 1435.87 M128.483 1432.17 Q134.293 1432.17 137.349 1436.78 Q140.427 1441.36 140.427 1450.11 Q140.427 1458.84 137.349 1463.44 Q134.293 1468.03 128.483 1468.03 Q122.673 1468.03 119.594 1463.44 Q116.539 1458.84 116.539 1450.11 Q116.539 1441.36 119.594 1436.78 Q122.673 1432.17 128.483 1432.17 Z" fill="#000000" fill-rule="evenodd" fill-opacity="1" /><path clip-path="url(#clip900)" d="M148.645 1461.48 L153.529 1461.48 L153.529 1467.36 L148.645 1467.36 L148.645 1461.48 Z" fill="#000000" fill-rule="evenodd" fill-opacity="1" /><path clip-path="url(#clip900)" d="M173.714 1435.87 Q170.103 1435.87 168.274 1439.44 Q166.469 1442.98 166.469 1450.11 Q166.469 1457.22 168.274 1460.78 Q170.103 1464.32 173.714 1464.32 Q177.348 1464.32 179.154 1460.78 Q180.983 1457.22 180.983 1450.11 Q180.983 1442.98 179.154 1439.44 Q177.348 1435.87 173.714 1435.87 M173.714 1432.17 Q179.524 1432.17 182.58 1436.78 Q185.659 1441.36 185.659 1450.11 Q185.659 1458.84 182.58 1463.44 Q179.524 1468.03 173.714 1468.03 Q167.904 1468.03 164.825 1463.44 Q161.77 1458.84 161.77 1450.11 Q161.77 1441.36 164.825 1436.78 Q167.904 1432.17 173.714 1432.17 Z" fill="#000000" fill-rule="evenodd" fill-opacity="1" /><path clip-path="url(#clip900)" d="M204.455 1448.21 Q201.307 1448.21 199.455 1450.37 Q197.626 1452.52 197.626 1456.27 Q197.626 1459.99 199.455 1462.17 Q201.307 1464.32 204.455 1464.32 Q207.603 1464.32 209.432 1462.17 Q211.283 1459.99 211.283 1456.27 Q211.283 1452.52 209.432 1450.37 Q207.603 1448.21 204.455 1448.21 M213.737 1433.56 L213.737 1437.82 Q211.978 1436.99 210.172 1436.55 Q208.39 1436.11 206.631 1436.11 Q202.001 1436.11 199.547 1439.23 Q197.117 1442.36 196.77 1448.68 Q198.135 1446.66 200.195 1445.6 Q202.256 1444.51 204.732 1444.51 Q209.941 1444.51 212.95 1447.68 Q215.982 1450.83 215.982 1456.27 Q215.982 1461.59 212.834 1464.81 Q209.686 1468.03 204.455 1468.03 Q198.459 1468.03 195.288 1463.44 Q192.117 1458.84 192.117 1450.11 Q192.117 1441.92 196.006 1437.06 Q199.895 1432.17 206.445 1432.17 Q208.205 1432.17 209.987 1432.52 Q211.793 1432.87 213.737 1433.56 Z" fill="#000000" fill-rule="evenodd" fill-opacity="1" /><path clip-path="url(#clip900)" d="M128.738 1345.45 Q125.126 1345.45 123.298 1349.02 Q121.492 1352.56 121.492 1359.69 Q121.492 1366.79 123.298 1370.36 Q125.126 1373.9 128.738 1373.9 Q132.372 1373.9 134.177 1370.36 Q136.006 1366.79 136.006 1359.69 Q136.006 1352.56 134.177 1349.02 Q132.372 1345.45 128.738 1345.45 M128.738 1341.75 Q134.548 1341.75 137.603 1346.35 Q140.682 1350.94 140.682 1359.69 Q140.682 1368.41 137.603 1373.02 Q134.548 1377.6 128.738 1377.6 Q122.927 1377.6 119.849 1373.02 Q116.793 1368.41 116.793 1359.69 Q116.793 1350.94 119.849 1346.35 Q122.927 1341.75 128.738 1341.75 Z" fill="#000000" fill-rule="evenodd" fill-opacity="1" /><path clip-path="url(#clip900)" d="M148.899 1371.05 L153.784 1371.05 L153.784 1376.93 L148.899 1376.93 L148.899 1371.05 Z" fill="#000000" fill-rule="evenodd" fill-opacity="1" /><path clip-path="url(#clip900)" d="M173.969 1345.45 Q170.358 1345.45 168.529 1349.02 Q166.723 1352.56 166.723 1359.69 Q166.723 1366.79 168.529 1370.36 Q170.358 1373.9 173.969 1373.9 Q177.603 1373.9 179.409 1370.36 Q181.237 1366.79 181.237 1359.69 Q181.237 1352.56 179.409 1349.02 Q177.603 1345.45 173.969 1345.45 M173.969 1341.75 Q179.779 1341.75 182.834 1346.35 Q185.913 1350.94 185.913 1359.69 Q185.913 1368.41 182.834 1373.02 Q179.779 1377.6 173.969 1377.6 Q168.159 1377.6 165.08 1373.02 Q162.024 1368.41 162.024 1359.69 Q162.024 1350.94 165.08 1346.35 Q168.159 1341.75 173.969 1341.75 Z" fill="#000000" fill-rule="evenodd" fill-opacity="1" /><path clip-path="url(#clip900)" d="M204.131 1360.52 Q200.797 1360.52 198.876 1362.3 Q196.978 1364.09 196.978 1367.21 Q196.978 1370.34 198.876 1372.12 Q200.797 1373.9 204.131 1373.9 Q207.464 1373.9 209.385 1372.12 Q211.307 1370.31 211.307 1367.21 Q211.307 1364.09 209.385 1362.3 Q207.487 1360.52 204.131 1360.52 M199.455 1358.53 Q196.445 1357.79 194.756 1355.73 Q193.089 1353.67 193.089 1350.71 Q193.089 1346.56 196.029 1344.16 Q198.992 1341.75 204.131 1341.75 Q209.293 1341.75 212.232 1344.16 Q215.172 1346.56 215.172 1350.71 Q215.172 1353.67 213.482 1355.73 Q211.816 1357.79 208.83 1358.53 Q212.209 1359.32 214.084 1361.61 Q215.982 1363.9 215.982 1367.21 Q215.982 1372.23 212.904 1374.92 Q209.848 1377.6 204.131 1377.6 Q198.413 1377.6 195.334 1374.92 Q192.279 1372.23 192.279 1367.21 Q192.279 1363.9 194.177 1361.61 Q196.075 1359.32 199.455 1358.53 M197.742 1351.15 Q197.742 1353.83 199.408 1355.34 Q201.098 1356.84 204.131 1356.84 Q207.14 1356.84 208.83 1355.34 Q210.543 1353.83 210.543 1351.15 Q210.543 1348.46 208.83 1346.96 Q207.14 1345.45 204.131 1345.45 Q201.098 1345.45 199.408 1346.96 Q197.742 1348.46 197.742 1351.15 Z" fill="#000000" fill-rule="evenodd" fill-opacity="1" /><path clip-path="url(#clip900)" d="M14.1184 1732.36 L14.1184 1692.16 L19.5293 1692.16 L19.5293 1709.03 L61.6384 1709.03 L61.6384 1715.49 L19.5293 1715.49 L19.5293 1732.36 L14.1184 1732.36 Z" fill="#000000" fill-rule="evenodd" fill-opacity="1" /><path clip-path="url(#clip900)" d="M42.3504 1666.79 L45.2149 1666.79 L45.2149 1693.72 Q51.2623 1693.34 54.4452 1690.09 Q57.5962 1686.81 57.5962 1680.99 Q57.5962 1677.61 56.7687 1674.46 Q55.9411 1671.28 54.2861 1668.16 L59.8242 1668.16 Q61.161 1671.31 61.8612 1674.62 Q62.5615 1677.93 62.5615 1681.34 Q62.5615 1689.87 57.5962 1694.86 Q52.631 1699.83 44.1646 1699.83 Q35.4117 1699.83 30.2873 1695.12 Q25.1311 1690.38 25.1311 1682.35 Q25.1311 1675.16 29.7781 1670.99 Q34.3932 1666.79 42.3504 1666.79 M40.6316 1672.65 Q35.8255 1672.71 32.9609 1675.35 Q30.0964 1677.96 30.0964 1682.29 Q30.0964 1687.19 32.8654 1690.15 Q35.6345 1693.08 40.6634 1693.53 L40.6316 1672.65 Z" fill="#000000" fill-rule="evenodd" fill-opacity="1" /><path clip-path="url(#clip900)" d="M31.465 1636.52 Q30.8921 1637.51 30.6375 1638.69 Q30.351 1639.83 30.351 1641.23 Q30.351 1646.2 33.5975 1648.87 Q36.8122 1651.51 42.8596 1651.51 L61.6384 1651.51 L61.6384 1657.4 L25.9905 1657.4 L25.9905 1651.51 L31.5287 1651.51 Q28.2821 1649.67 26.7225 1646.71 Q25.1311 1643.75 25.1311 1639.51 Q25.1311 1638.91 25.2266 1638.18 Q25.2903 1637.44 25.4494 1636.55 L31.465 1636.52 Z" fill="#000000" fill-rule="evenodd" fill-opacity="1" /><path clip-path="url(#clip900)" d="M31.465 1610.87 Q30.8921 1611.85 30.6375 1613.03 Q30.351 1614.18 30.351 1615.58 Q30.351 1620.54 33.5975 1623.22 Q36.8122 1625.86 42.8596 1625.86 L61.6384 1625.86 L61.6384 1631.75 L25.9905 1631.75 L25.9905 1625.86 L31.5287 1625.86 Q28.2821 1624.01 26.7225 1621.05 Q25.1311 1618.09 25.1311 1613.86 Q25.1311 1613.26 25.2266 1612.52 Q25.2903 1611.79 25.4494 1610.9 L31.465 1610.87 Z" fill="#000000" fill-rule="evenodd" fill-opacity="1" /><path clip-path="url(#clip900)" d="M43.719 1588.52 Q43.719 1595.62 45.3422 1598.36 Q46.9655 1601.1 50.8804 1601.1 Q53.9996 1601.1 55.8457 1599.06 Q57.6599 1596.99 57.6599 1593.46 Q57.6599 1588.59 54.2224 1585.66 Q50.7531 1582.7 45.0239 1582.7 L43.719 1582.7 L43.719 1588.52 M41.3 1576.84 L61.6384 1576.84 L61.6384 1582.7 L56.2276 1582.7 Q59.4741 1584.71 61.0337 1587.7 Q62.5615 1590.69 62.5615 1595.02 Q62.5615 1600.49 59.5059 1603.74 Q56.4186 1606.95 51.2623 1606.95 Q45.2467 1606.95 42.1912 1602.94 Q39.1357 1598.9 39.1357 1590.91 L39.1357 1582.7 L38.5628 1582.7 Q34.5205 1582.7 32.3244 1585.37 Q30.0964 1588.02 30.0964 1592.82 Q30.0964 1595.88 30.8284 1598.77 Q31.5605 1601.67 33.0246 1604.34 L27.6137 1604.34 Q26.3724 1601.13 25.7677 1598.1 Q25.1311 1595.08 25.1311 1592.22 Q25.1311 1584.48 29.1415 1580.66 Q33.1519 1576.84 41.3 1576.84 Z" fill="#000000" fill-rule="evenodd" fill-opacity="1" /><path clip-path="url(#clip900)" d="M25.9905 1564.78 L25.9905 1558.92 L61.6384 1558.92 L61.6384 1564.78 L25.9905 1564.78 M12.1132 1564.78 L12.1132 1558.92 L19.5293 1558.92 L19.5293 1564.78 L12.1132 1564.78 Z" fill="#000000" fill-rule="evenodd" fill-opacity="1" /><path clip-path="url(#clip900)" d="M40.1224 1517.04 L61.6384 1517.04 L61.6384 1522.89 L40.3133 1522.89 Q35.2526 1522.89 32.7381 1524.87 Q30.2237 1526.84 30.2237 1530.79 Q30.2237 1535.53 33.2474 1538.27 Q36.2711 1541 41.491 1541 L61.6384 1541 L61.6384 1546.89 L25.9905 1546.89 L25.9905 1541 L31.5287 1541 Q28.314 1538.9 26.7225 1536.07 Q25.1311 1533.21 25.1311 1529.48 Q25.1311 1523.34 28.9505 1520.19 Q32.7381 1517.04 40.1224 1517.04 Z" fill="#000000" fill-rule="evenodd" fill-opacity="1" /><path clip-path="url(#clip900)" d="M40.1224 1455 L61.6384 1455 L61.6384 1460.86 L40.3133 1460.86 Q35.2526 1460.86 32.7381 1462.83 Q30.2237 1464.81 30.2237 1468.75 Q30.2237 1473.5 33.2474 1476.23 Q36.2711 1478.97 41.491 1478.97 L61.6384 1478.97 L61.6384 1484.86 L12.1132 1484.86 L12.1132 1478.97 L31.5287 1478.97 Q28.314 1476.87 26.7225 1474.04 Q25.1311 1471.17 25.1311 1467.45 Q25.1311 1461.31 28.9505 1458.15 Q32.7381 1455 40.1224 1455 Z" fill="#000000" fill-rule="evenodd" fill-opacity="1" /><path clip-path="url(#clip900)" d="M42.3504 1412.83 L45.2149 1412.83 L45.2149 1439.76 Q51.2623 1439.38 54.4452 1436.13 Q57.5962 1432.85 57.5962 1427.03 Q57.5962 1423.65 56.7687 1420.5 Q55.9411 1417.32 54.2861 1414.2 L59.8242 1414.2 Q61.161 1417.35 61.8612 1420.66 Q62.5615 1423.97 62.5615 1427.38 Q62.5615 1435.91 57.5962 1440.9 Q52.631 1445.87 44.1646 1445.87 Q35.4117 1445.87 30.2873 1441.16 Q25.1311 1436.42 25.1311 1428.4 Q25.1311 1421.2 29.7781 1417.03 Q34.3932 1412.83 42.3504 1412.83 M40.6316 1418.69 Q35.8255 1418.75 32.9609 1421.39 Q30.0964 1424 30.0964 1428.33 Q30.0964 1433.23 32.8654 1436.19 Q35.6345 1439.12 40.6634 1439.57 L40.6316 1418.69 Z" fill="#000000" fill-rule="evenodd" fill-opacity="1" /><path clip-path="url(#clip900)" d="M25.9905 1403.22 L25.9905 1397.36 L61.6384 1397.36 L61.6384 1403.22 L25.9905 1403.22 M12.1132 1403.22 L12.1132 1397.36 L19.5293 1397.36 L19.5293 1403.22 L12.1132 1403.22 Z" fill="#000000" fill-rule="evenodd" fill-opacity="1" /><path clip-path="url(#clip900)" d="M43.4007 1361.65 Q37.035 1361.65 33.5338 1364.29 Q30.0327 1366.9 30.0327 1371.64 Q30.0327 1376.36 33.5338 1379 Q37.035 1381.61 43.4007 1381.61 Q49.7346 1381.61 53.2357 1379 Q56.7368 1376.36 56.7368 1371.64 Q56.7368 1366.9 53.2357 1364.29 Q49.7346 1361.65 43.4007 1361.65 M57.2143 1355.79 Q66.3172 1355.79 70.7414 1359.84 Q75.1974 1363.88 75.1974 1372.22 Q75.1974 1375.31 74.72 1378.04 Q74.2744 1380.78 73.3195 1383.36 L67.6222 1383.36 Q69.0227 1380.78 69.6911 1378.27 Q70.3595 1375.75 70.3595 1373.14 Q70.3595 1367.38 67.3358 1364.52 Q64.3439 1361.65 58.2646 1361.65 L55.3682 1361.65 Q58.5192 1363.46 60.0788 1366.3 Q61.6384 1369.13 61.6384 1373.08 Q61.6384 1379.63 56.6414 1383.64 Q51.6443 1387.65 43.4007 1387.65 Q35.1253 1387.65 30.1282 1383.64 Q25.1311 1379.63 25.1311 1373.08 Q25.1311 1369.13 26.6907 1366.3 Q28.2503 1363.46 31.4013 1361.65 L25.9905 1361.65 L25.9905 1355.79 L57.2143 1355.79 Z" fill="#000000" fill-rule="evenodd" fill-opacity="1" /><path clip-path="url(#clip900)" d="M40.1224 1314.1 L61.6384 1314.1 L61.6384 1319.96 L40.3133 1319.96 Q35.2526 1319.96 32.7381 1321.93 Q30.2237 1323.9 30.2237 1327.85 Q30.2237 1332.59 33.2474 1335.33 Q36.2711 1338.07 41.491 1338.07 L61.6384 1338.07 L61.6384 1343.95 L12.1132 1343.95 L12.1132 1338.07 L31.5287 1338.07 Q28.314 1335.97 26.7225 1333.13 Q25.1311 1330.27 25.1311 1326.54 Q25.1311 1320.4 28.9505 1317.25 Q32.7381 1314.1 40.1224 1314.1 Z" fill="#000000" fill-rule="evenodd" fill-opacity="1" /><path clip-path="url(#clip900)" d="M15.869 1296.62 L25.9905 1296.62 L25.9905 1284.56 L30.542 1284.56 L30.542 1296.62 L49.8937 1296.62 Q54.2542 1296.62 55.4955 1295.45 Q56.7368 1294.24 56.7368 1290.58 L56.7368 1284.56 L61.6384 1284.56 L61.6384 1290.58 Q61.6384 1297.36 59.124 1299.94 Q56.5777 1302.51 49.8937 1302.51 L30.542 1302.51 L30.542 1306.81 L25.9905 1306.81 L25.9905 1302.51 L15.869 1302.51 L15.869 1296.62 Z" fill="#000000" fill-rule="evenodd" fill-opacity="1" /><polyline clip-path="url(#clip904)" style="stroke:#009af9; stroke-linecap:round; stroke-linejoin:round; stroke-width:4; stroke-opacity:1; fill:none" points="323.787,1721.34 496.824,1721.34 669.861,1721.34 842.899,1721.34 1015.94,1721.34 1188.97,1721.34 1362.01,1721.34 1535.05,1295.58 1708.09,1295.58 1881.12,1295.58 2054.16,1295.58 2227.2,1295.58 2400.23,1295.58 2573.27,1295.58 "/>
<circle clip-path="url(#clip904)" cx="323.787" cy="1721.34" r="14.4" fill="#009af9" fill-rule="evenodd" fill-opacity="1" stroke="#000000" stroke-opacity="1" stroke-width="3.84"/>
<circle clip-path="url(#clip904)" cx="496.824" cy="1721.34" r="14.4" fill="#009af9" fill-rule="evenodd" fill-opacity="1" stroke="#000000" stroke-opacity="1" stroke-width="3.84"/>
<circle clip-path="url(#clip904)" cx="669.861" cy="1721.34" r="14.4" fill="#009af9" fill-rule="evenodd" fill-opacity="1" stroke="#000000" stroke-opacity="1" stroke-width="3.84"/>
<circle clip-path="url(#clip904)" cx="842.899" cy="1721.34" r="14.4" fill="#009af9" fill-rule="evenodd" fill-opacity="1" stroke="#000000" stroke-opacity="1" stroke-width="3.84"/>
<circle clip-path="url(#clip904)" cx="1015.94" cy="1721.34" r="14.4" fill="#009af9" fill-rule="evenodd" fill-opacity="1" stroke="#000000" stroke-opacity="1" stroke-width="3.84"/>
<circle clip-path="url(#clip904)" cx="1188.97" cy="1721.34" r="14.4" fill="#009af9" fill-rule="evenodd" fill-opacity="1" stroke="#000000" stroke-opacity="1" stroke-width="3.84"/>
<circle clip-path="url(#clip904)" cx="1362.01" cy="1721.34" r="14.4" fill="#009af9" fill-rule="evenodd" fill-opacity="1" stroke="#000000" stroke-opacity="1" stroke-width="3.84"/>
<circle clip-path="url(#clip904)" cx="1535.05" cy="1295.58" r="14.4" fill="#009af9" fill-rule="evenodd" fill-opacity="1" stroke="#000000" stroke-opacity="1" stroke-width="3.84"/>
<circle clip-path="url(#clip904)" cx="1708.09" cy="1295.58" r="14.4" fill="#009af9" fill-rule="evenodd" fill-opacity="1" stroke="#000000" stroke-opacity="1" stroke-width="3.84"/>
<circle clip-path="url(#clip904)" cx="1881.12" cy="1295.58" r="14.4" fill="#009af9" fill-rule="evenodd" fill-opacity="1" stroke="#000000" stroke-opacity="1" stroke-width="3.84"/>
<circle clip-path="url(#clip904)" cx="2054.16" cy="1295.58" r="14.4" fill="#009af9" fill-rule="evenodd" fill-opacity="1" stroke="#000000" stroke-opacity="1" stroke-width="3.84"/>
<circle clip-path="url(#clip904)" cx="2227.2" cy="1295.58" r="14.4" fill="#009af9" fill-rule="evenodd" fill-opacity="1" stroke="#000000" stroke-opacity="1" stroke-width="3.84"/>
<circle clip-path="url(#clip904)" cx="2400.23" cy="1295.58" r="14.4" fill="#009af9" fill-rule="evenodd" fill-opacity="1" stroke="#000000" stroke-opacity="1" stroke-width="3.84"/>
<circle clip-path="url(#clip904)" cx="2573.27" cy="1295.58" r="14.4" fill="#009af9" fill-rule="evenodd" fill-opacity="1" stroke="#000000" stroke-opacity="1" stroke-width="3.84"/>
</svg>
