<?xml version="1.0" encoding="utf-8"?>
<svg xmlns="http://www.w3.org/2000/svg" xmlns:xlink="http://www.w3.org/1999/xlink" width="672" height="480" viewBox="0 0 2688 1920">
<defs>
  <clipPath id="clip980">
    <rect x="0" y="0" width="2688" height="1920"/>
  </clipPath>
</defs>
<path clip-path="url(#clip980)" d="M0 1920 L2688 1920 L2688 0 L0 0  Z" fill="#ffffff" fill-rule="evenodd" fill-opacity="1"/>
<defs>
  <clipPath id="clip981">
    <rect x="537" y="0" width="1883" height="1883"/>
  </clipPath>
</defs>
<path clip-path="url(#clip980)" d="M210.238 1734.12 L2640.76 1734.12 L2640.76 47.2441 L210.238 47.2441  Z" fill="#ffffff" fill-rule="evenodd" fill-opacity="1"/>
<defs>
  <clipPath id="clip982">
    <rect x="210" y="47" width="2432" height="1688"/>
  </clipPath>
</defs>
<polyline clip-path="url(#clip982)" style="stroke:#000000; stroke-linecap:round; stroke-linejoin:round; stroke-width:2; stroke-opacity:0.1; fill:none" points="442.808,1734.12 442.808,47.2441 "/>
<polyline clip-path="url(#clip982)" style="stroke:#000000; stroke-linecap:round; stroke-linejoin:round; stroke-width:2; stroke-opacity:0.1; fill:none" points="770.371,1734.12 770.371,47.2441 "/>
<polyline clip-path="url(#clip982)" style="stroke:#000000; stroke-linecap:round; stroke-linejoin:round; stroke-width:2; stroke-opacity:0.1; fill:none" points="1097.93,1734.12 1097.93,47.2441 "/>
<polyline clip-path="url(#clip982)" style="stroke:#000000; stroke-linecap:round; stroke-linejoin:round; stroke-width:2; stroke-opacity:0.1; fill:none" points="1425.5,1734.12 1425.5,47.2441 "/>
<polyline clip-path="url(#clip982)" style="stroke:#000000; stroke-linecap:round; stroke-linejoin:round; stroke-width:2; stroke-opacity:0.1; fill:none" points="1753.06,1734.12 1753.06,47.2441 "/>
<polyline clip-path="url(#clip982)" style="stroke:#000000; stroke-linecap:round; stroke-linejoin:round; stroke-width:2; stroke-opacity:0.1; fill:none" points="2080.62,1734.12 2080.62,47.2441 "/>
<polyline clip-path="url(#clip982)" style="stroke:#000000; stroke-linecap:round; stroke-linejoin:round; stroke-width:2; stroke-opacity:0.1; fill:none" points="2408.19,1734.12 2408.19,47.2441 "/>
<polyline clip-path="url(#clip980)" style="stroke:#000000; stroke-linecap:round; stroke-linejoin:round; stroke-width:4; stroke-opacity:1; fill:none" points="210.238,1734.12 2640.76,1734.12 "/>
<polyline clip-path="url(#clip980)" style="stroke:#000000; stroke-linecap:round; stroke-linejoin:round; stroke-width:4; stroke-opacity:1; fill:none" points="442.808,1734.12 442.808,1715.22 "/>
<polyline clip-path="url(#clip980)" style="stroke:#000000; stroke-linecap:round; stroke-linejoin:round; stroke-width:4; stroke-opacity:1; fill:none" points="770.371,1734.12 770.371,1715.22 "/>
<polyline clip-path="url(#clip980)" style="stroke:#000000; stroke-linecap:round; stroke-linejoin:round; stroke-width:4; stroke-opacity:1; fill:none" points="1097.93,1734.12 1097.93,1715.22 "/>
<polyline clip-path="url(#clip980)" style="stroke:#000000; stroke-linecap:round; stroke-linejoin:round; stroke-width:4; stroke-opacity:1; fill:none" points="1425.5,1734.12 1425.5,1715.22 "/>
<polyline clip-path="url(#clip980)" style="stroke:#000000; stroke-linecap:round; stroke-linejoin:round; stroke-width:4; stroke-opacity:1; fill:none" points="1753.06,1734.12 1753.06,1715.22 "/>
<polyline clip-path="url(#clip980)" style="stroke:#000000; stroke-linecap:round; stroke-linejoin:round; stroke-width:4; stroke-opacity:1; fill:none" points="2080.62,1734.12 2080.62,1715.22 "/>
<polyline clip-path="url(#clip980)" style="stroke:#000000; stroke-linecap:round; stroke-linejoin:round; stroke-width:4; stroke-opacity:1; fill:none" points="2408.19,1734.12 2408.19,1715.22 "/>
<path clip-path="url(#clip980)" d="M437.46 1794.89 L453.78 1794.89 L453.78 1798.82 L431.835 1798.82 L431.835 1794.89 Q434.498 1792.13 439.081 1787.5 Q443.687 1782.85 444.868 1781.51 Q447.113 1778.98 447.993 1777.25 Q448.896 1775.49 448.896 1773.8 Q448.896 1771.04 446.951 1769.31 Q445.03 1767.57 441.928 1767.57 Q439.729 1767.57 437.275 1768.34 Q434.845 1769.1 432.067 1770.65 L432.067 1765.93 Q434.891 1764.79 437.345 1764.21 Q439.798 1763.64 441.835 1763.64 Q447.206 1763.64 450.4 1766.32 Q453.595 1769.01 453.595 1773.5 Q453.595 1775.63 452.784 1777.55 Q451.997 1779.45 449.891 1782.04 Q449.312 1782.71 446.21 1785.93 Q443.109 1789.12 437.46 1794.89 Z" fill="#000000" fill-rule="evenodd" fill-opacity="1" /><path clip-path="url(#clip980)" d="M773.38 1768.34 L761.574 1786.78 L773.38 1786.78 L773.38 1768.34 M772.153 1764.26 L778.033 1764.26 L778.033 1786.78 L782.963 1786.78 L782.963 1790.67 L778.033 1790.67 L778.033 1798.82 L773.38 1798.82 L773.38 1790.67 L757.778 1790.67 L757.778 1786.16 L772.153 1764.26 Z" fill="#000000" fill-rule="evenodd" fill-opacity="1" /><path clip-path="url(#clip980)" d="M1098.34 1779.68 Q1095.19 1779.68 1093.34 1781.83 Q1091.51 1783.98 1091.51 1787.73 Q1091.51 1791.46 1093.34 1793.64 Q1095.19 1795.79 1098.34 1795.79 Q1101.49 1795.79 1103.32 1793.64 Q1105.17 1791.46 1105.17 1787.73 Q1105.17 1783.98 1103.32 1781.83 Q1101.49 1779.68 1098.34 1779.68 M1107.62 1765.02 L1107.62 1769.28 Q1105.86 1768.45 1104.06 1768.01 Q1102.27 1767.57 1100.51 1767.57 Q1095.89 1767.57 1093.43 1770.7 Q1091 1773.82 1090.65 1780.14 Q1092.02 1778.13 1094.08 1777.06 Q1096.14 1775.97 1098.62 1775.97 Q1103.82 1775.97 1106.83 1779.15 Q1109.87 1782.29 1109.87 1787.73 Q1109.87 1793.06 1106.72 1796.27 Q1103.57 1799.49 1098.34 1799.49 Q1092.34 1799.49 1089.17 1794.91 Q1086 1790.3 1086 1781.58 Q1086 1773.38 1089.89 1768.52 Q1093.78 1763.64 1100.33 1763.64 Q1102.09 1763.64 1103.87 1763.98 Q1105.68 1764.33 1107.62 1765.02 Z" fill="#000000" fill-rule="evenodd" fill-opacity="1" /><path clip-path="url(#clip980)" d="M1425.5 1782.41 Q1422.16 1782.41 1420.24 1784.19 Q1418.34 1785.97 1418.34 1789.1 Q1418.34 1792.22 1420.24 1794.01 Q1422.16 1795.79 1425.5 1795.79 Q1428.83 1795.79 1430.75 1794.01 Q1432.67 1792.2 1432.67 1789.1 Q1432.67 1785.97 1430.75 1784.19 Q1428.85 1782.41 1425.5 1782.41 M1420.82 1780.42 Q1417.81 1779.68 1416.12 1777.62 Q1414.46 1775.56 1414.46 1772.59 Q1414.46 1768.45 1417.4 1766.04 Q1420.36 1763.64 1425.5 1763.64 Q1430.66 1763.64 1433.6 1766.04 Q1436.54 1768.45 1436.54 1772.59 Q1436.54 1775.56 1434.85 1777.62 Q1433.18 1779.68 1430.2 1780.42 Q1433.58 1781.21 1435.45 1783.5 Q1437.35 1785.79 1437.35 1789.1 Q1437.35 1794.12 1434.27 1796.81 Q1431.21 1799.49 1425.5 1799.49 Q1419.78 1799.49 1416.7 1796.81 Q1413.65 1794.12 1413.65 1789.1 Q1413.65 1785.79 1415.54 1783.5 Q1417.44 1781.21 1420.82 1780.42 M1419.11 1773.03 Q1419.11 1775.72 1420.77 1777.22 Q1422.46 1778.73 1425.5 1778.73 Q1428.51 1778.73 1430.2 1777.22 Q1431.91 1775.72 1431.91 1773.03 Q1431.91 1770.35 1430.2 1768.84 Q1428.51 1767.34 1425.5 1767.34 Q1422.46 1767.34 1420.77 1768.84 Q1419.11 1770.35 1419.11 1773.03 Z" fill="#000000" fill-rule="evenodd" fill-opacity="1" /><path clip-path="url(#clip980)" d="M1727.75 1794.89 L1735.39 1794.89 L1735.39 1768.52 L1727.08 1770.19 L1727.08 1765.93 L1735.34 1764.26 L1740.02 1764.26 L1740.02 1794.89 L1747.65 1794.89 L1747.65 1798.82 L1727.75 1798.82 L1727.75 1794.89 Z" fill="#000000" fill-rule="evenodd" fill-opacity="1" /><path clip-path="url(#clip980)" d="M1767.1 1767.34 Q1763.49 1767.34 1761.66 1770.9 Q1759.85 1774.45 1759.85 1781.58 Q1759.85 1788.68 1761.66 1792.25 Q1763.49 1795.79 1767.1 1795.79 Q1770.73 1795.79 1772.54 1792.25 Q1774.37 1788.68 1774.37 1781.58 Q1774.37 1774.45 1772.54 1770.9 Q1770.73 1767.34 1767.1 1767.34 M1767.1 1763.64 Q1772.91 1763.64 1775.96 1768.24 Q1779.04 1772.83 1779.04 1781.58 Q1779.04 1790.3 1775.96 1794.91 Q1772.91 1799.49 1767.1 1799.49 Q1761.29 1799.49 1758.21 1794.91 Q1755.15 1790.3 1755.15 1781.58 Q1755.15 1772.83 1758.21 1768.24 Q1761.29 1763.64 1767.1 1763.64 Z" fill="#000000" fill-rule="evenodd" fill-opacity="1" /><path clip-path="url(#clip980)" d="M2056.11 1794.89 L2063.75 1794.89 L2063.75 1768.52 L2055.44 1770.19 L2055.44 1765.93 L2063.7 1764.26 L2068.38 1764.26 L2068.38 1794.89 L2076.02 1794.89 L2076.02 1798.82 L2056.11 1798.82 L2056.11 1794.89 Z" fill="#000000" fill-rule="evenodd" fill-opacity="1" /><path clip-path="url(#clip980)" d="M2089.49 1794.89 L2105.81 1794.89 L2105.81 1798.82 L2083.86 1798.82 L2083.86 1794.89 Q2086.53 1792.13 2091.11 1787.5 Q2095.72 1782.85 2096.9 1781.51 Q2099.14 1778.98 2100.02 1777.25 Q2100.92 1775.49 2100.92 1773.8 Q2100.92 1771.04 2098.98 1769.31 Q2097.06 1767.57 2093.96 1767.57 Q2091.76 1767.57 2089.3 1768.34 Q2086.87 1769.1 2084.1 1770.65 L2084.1 1765.93 Q2086.92 1764.79 2089.37 1764.21 Q2091.83 1763.64 2093.86 1763.64 Q2099.23 1763.64 2102.43 1766.32 Q2105.62 1769.01 2105.62 1773.5 Q2105.62 1775.63 2104.81 1777.55 Q2104.03 1779.45 2101.92 1782.04 Q2101.34 1782.71 2098.24 1785.93 Q2095.14 1789.12 2089.49 1794.89 Z" fill="#000000" fill-rule="evenodd" fill-opacity="1" /><path clip-path="url(#clip980)" d="M2382.63 1794.89 L2390.27 1794.89 L2390.27 1768.52 L2381.96 1770.19 L2381.96 1765.93 L2390.22 1764.26 L2394.9 1764.26 L2394.9 1794.89 L2402.54 1794.89 L2402.54 1798.82 L2382.63 1798.82 L2382.63 1794.89 Z" fill="#000000" fill-rule="evenodd" fill-opacity="1" /><path clip-path="url(#clip980)" d="M2424.83 1768.34 L2413.02 1786.78 L2424.83 1786.78 L2424.83 1768.34 M2423.6 1764.26 L2429.48 1764.26 L2429.48 1786.78 L2434.41 1786.78 L2434.41 1790.67 L2429.48 1790.67 L2429.48 1798.82 L2424.83 1798.82 L2424.83 1790.67 L2409.23 1790.67 L2409.23 1786.16 L2423.6 1764.26 Z" fill="#000000" fill-rule="evenodd" fill-opacity="1" /><path clip-path="url(#clip980)" d="M1383.88 1848.7 L1383.88 1854.24 Q1381.4 1852.97 1378.72 1852.33 Q1376.05 1851.7 1373.19 1851.7 Q1368.83 1851.7 1366.63 1853.03 Q1364.47 1854.37 1364.47 1857.04 Q1364.47 1859.08 1366.03 1860.26 Q1367.58 1861.4 1372.3 1862.45 L1374.3 1862.9 Q1380.54 1864.24 1383.15 1866.69 Q1385.79 1869.11 1385.79 1873.47 Q1385.79 1878.43 1381.84 1881.33 Q1377.93 1884.22 1371.05 1884.22 Q1368.19 1884.22 1365.07 1883.65 Q1361.98 1883.11 1358.55 1882 L1358.55 1875.95 Q1361.79 1877.64 1364.94 1878.49 Q1368.09 1879.32 1371.18 1879.32 Q1375.32 1879.32 1377.55 1877.92 Q1379.78 1876.49 1379.78 1873.91 Q1379.78 1871.52 1378.15 1870.25 Q1376.56 1868.98 1371.12 1867.8 L1369.08 1867.32 Q1363.64 1866.18 1361.22 1863.82 Q1358.8 1861.43 1358.8 1857.3 Q1358.8 1852.27 1362.36 1849.53 Q1365.93 1846.79 1372.49 1846.79 Q1375.73 1846.79 1378.6 1847.27 Q1381.46 1847.75 1383.88 1848.7 Z" fill="#000000" fill-rule="evenodd" fill-opacity="1" /><path clip-path="url(#clip980)" d="M1400.91 1837.53 L1400.91 1847.65 L1412.97 1847.65 L1412.97 1852.2 L1400.91 1852.2 L1400.91 1871.56 Q1400.91 1875.92 1402.09 1877.16 Q1403.3 1878.4 1406.96 1878.4 L1412.97 1878.4 L1412.97 1883.3 L1406.96 1883.3 Q1400.18 1883.3 1397.6 1880.79 Q1395.02 1878.24 1395.02 1871.56 L1395.02 1852.2 L1390.72 1852.2 L1390.72 1847.65 L1395.02 1847.65 L1395.02 1837.53 L1400.91 1837.53 Z" fill="#000000" fill-rule="evenodd" fill-opacity="1" /><path clip-path="url(#clip980)" d="M1451.17 1864.01 L1451.17 1866.88 L1424.24 1866.88 Q1424.62 1872.92 1427.87 1876.11 Q1431.15 1879.26 1436.97 1879.26 Q1440.34 1879.26 1443.5 1878.43 Q1446.68 1877.6 1449.8 1875.95 L1449.8 1881.49 Q1446.65 1882.82 1443.34 1883.52 Q1440.03 1884.22 1436.62 1884.22 Q1428.09 1884.22 1423.09 1879.26 Q1418.13 1874.29 1418.13 1865.83 Q1418.13 1857.07 1422.84 1851.95 Q1427.58 1846.79 1435.6 1846.79 Q1442.8 1846.79 1446.97 1851.44 Q1451.17 1856.06 1451.17 1864.01 M1445.31 1862.29 Q1445.25 1857.49 1442.6 1854.62 Q1439.99 1851.76 1435.67 1851.76 Q1430.76 1851.76 1427.8 1854.53 Q1424.88 1857.3 1424.43 1862.33 L1445.31 1862.29 Z" fill="#000000" fill-rule="evenodd" fill-opacity="1" /><path clip-path="url(#clip980)" d="M1466.44 1877.95 L1466.44 1896.86 L1460.56 1896.86 L1460.56 1847.65 L1466.44 1847.65 L1466.44 1853.06 Q1468.29 1849.88 1471.09 1848.35 Q1473.92 1846.79 1477.84 1846.79 Q1484.33 1846.79 1488.37 1851.95 Q1492.45 1857.11 1492.45 1865.51 Q1492.45 1873.91 1488.37 1879.07 Q1484.33 1884.22 1477.84 1884.22 Q1473.92 1884.22 1471.09 1882.7 Q1468.29 1881.14 1466.44 1877.95 M1486.37 1865.51 Q1486.37 1859.05 1483.7 1855.39 Q1481.05 1851.7 1476.41 1851.7 Q1471.76 1851.7 1469.09 1855.39 Q1466.44 1859.05 1466.44 1865.51 Q1466.44 1871.97 1469.09 1875.66 Q1471.76 1879.32 1476.41 1879.32 Q1481.05 1879.32 1483.7 1875.66 Q1486.37 1871.97 1486.37 1865.51 Z" fill="#000000" fill-rule="evenodd" fill-opacity="1" /><polyline clip-path="url(#clip982)" style="stroke:#000000; stroke-linecap:round; stroke-linejoin:round; stroke-width:2; stroke-opacity:0.1; fill:none" points="210.238,1458.79 2640.76,1458.79 "/>
<polyline clip-path="url(#clip982)" style="stroke:#000000; stroke-linecap:round; stroke-linejoin:round; stroke-width:2; stroke-opacity:0.1; fill:none" points="210.238,1117.52 2640.76,1117.52 "/>
<polyline clip-path="url(#clip982)" style="stroke:#000000; stroke-linecap:round; stroke-linejoin:round; stroke-width:2; stroke-opacity:0.1; fill:none" points="210.238,776.264 2640.76,776.264 "/>
<polyline clip-path="url(#clip982)" style="stroke:#000000; stroke-linecap:round; stroke-linejoin:round; stroke-width:2; stroke-opacity:0.1; fill:none" points="210.238,435.004 2640.76,435.004 "/>
<polyline clip-path="url(#clip982)" style="stroke:#000000; stroke-linecap:round; stroke-linejoin:round; stroke-width:2; stroke-opacity:0.1; fill:none" points="210.238,93.7434 2640.76,93.7434 "/>
<polyline clip-path="url(#clip980)" style="stroke:#000000; stroke-linecap:round; stroke-linejoin:round; stroke-width:4; stroke-opacity:1; fill:none" points="210.238,1734.12 210.238,47.2441 "/>
<polyline clip-path="url(#clip980)" style="stroke:#000000; stroke-linecap:round; stroke-linejoin:round; stroke-width:4; stroke-opacity:1; fill:none" points="210.238,1458.79 229.135,1458.79 "/>
<polyline clip-path="url(#clip980)" style="stroke:#000000; stroke-linecap:round; stroke-linejoin:round; stroke-width:4; stroke-opacity:1; fill:none" points="210.238,1117.52 229.135,1117.52 "/>
<polyline clip-path="url(#clip980)" style="stroke:#000000; stroke-linecap:round; stroke-linejoin:round; stroke-width:4; stroke-opacity:1; fill:none" points="210.238,776.264 229.135,776.264 "/>
<polyline clip-path="url(#clip980)" style="stroke:#000000; stroke-linecap:round; stroke-linejoin:round; stroke-width:4; stroke-opacity:1; fill:none" points="210.238,435.004 229.135,435.004 "/>
<polyline clip-path="url(#clip980)" style="stroke:#000000; stroke-linecap:round; stroke-linejoin:round; stroke-width:4; stroke-opacity:1; fill:none" points="210.238,93.7434 229.135,93.7434 "/>
<path clip-path="url(#clip980)" d="M149.015 1441.51 L167.372 1441.51 L167.372 1445.44 L153.298 1445.44 L153.298 1453.91 Q154.316 1453.57 155.335 1453.4 Q156.353 1453.22 157.372 1453.22 Q163.159 1453.22 166.538 1456.39 Q169.918 1459.56 169.918 1464.98 Q169.918 1470.56 166.446 1473.66 Q162.973 1476.74 156.654 1476.74 Q154.478 1476.74 152.21 1476.37 Q149.964 1476 147.557 1475.26 L147.557 1470.56 Q149.64 1471.69 151.862 1472.25 Q154.085 1472.8 156.561 1472.8 Q160.566 1472.8 162.904 1470.7 Q165.242 1468.59 165.242 1464.98 Q165.242 1461.37 162.904 1459.26 Q160.566 1457.15 156.561 1457.15 Q154.686 1457.15 152.811 1457.57 Q150.96 1457.99 149.015 1458.87 L149.015 1441.51 Z" fill="#000000" fill-rule="evenodd" fill-opacity="1" /><path clip-path="url(#clip980)" d="M118.622 1130.87 L126.261 1130.87 L126.261 1104.5 L117.951 1106.17 L117.951 1101.91 L126.214 1100.24 L130.89 1100.24 L130.89 1130.87 L138.529 1130.87 L138.529 1134.8 L118.622 1134.8 L118.622 1130.87 Z" fill="#000000" fill-rule="evenodd" fill-opacity="1" /><path clip-path="url(#clip980)" d="M157.973 1103.32 Q154.362 1103.32 152.534 1106.89 Q150.728 1110.43 150.728 1117.56 Q150.728 1124.67 152.534 1128.23 Q154.362 1131.77 157.973 1131.77 Q161.608 1131.77 163.413 1128.23 Q165.242 1124.67 165.242 1117.56 Q165.242 1110.43 163.413 1106.89 Q161.608 1103.32 157.973 1103.32 M157.973 1099.62 Q163.784 1099.62 166.839 1104.23 Q169.918 1108.81 169.918 1117.56 Q169.918 1126.29 166.839 1130.89 Q163.784 1135.48 157.973 1135.48 Q152.163 1135.48 149.085 1130.89 Q146.029 1126.29 146.029 1117.56 Q146.029 1108.81 149.085 1104.23 Q152.163 1099.62 157.973 1099.62 Z" fill="#000000" fill-rule="evenodd" fill-opacity="1" /><path clip-path="url(#clip980)" d="M119.617 789.609 L127.256 789.609 L127.256 763.244 L118.946 764.91 L118.946 760.651 L127.21 758.984 L131.886 758.984 L131.886 789.609 L139.525 789.609 L139.525 793.544 L119.617 793.544 L119.617 789.609 Z" fill="#000000" fill-rule="evenodd" fill-opacity="1" /><path clip-path="url(#clip980)" d="M149.015 758.984 L167.372 758.984 L167.372 762.92 L153.298 762.92 L153.298 771.392 Q154.316 771.045 155.335 770.882 Q156.353 770.697 157.372 770.697 Q163.159 770.697 166.538 773.869 Q169.918 777.04 169.918 782.456 Q169.918 788.035 166.446 791.137 Q162.973 794.216 156.654 794.216 Q154.478 794.216 152.21 793.845 Q149.964 793.475 147.557 792.734 L147.557 788.035 Q149.64 789.169 151.862 789.725 Q154.085 790.281 156.561 790.281 Q160.566 790.281 162.904 788.174 Q165.242 786.068 165.242 782.456 Q165.242 778.845 162.904 776.739 Q160.566 774.632 156.561 774.632 Q154.686 774.632 152.811 775.049 Q150.96 775.466 149.015 776.345 L149.015 758.984 Z" fill="#000000" fill-rule="evenodd" fill-opacity="1" /><path clip-path="url(#clip980)" d="M121.839 448.349 L138.159 448.349 L138.159 452.284 L116.214 452.284 L116.214 448.349 Q118.876 445.594 123.46 440.964 Q128.066 436.312 129.247 434.969 Q131.492 432.446 132.372 430.71 Q133.275 428.951 133.275 427.261 Q133.275 424.506 131.33 422.77 Q129.409 421.034 126.307 421.034 Q124.108 421.034 121.654 421.798 Q119.224 422.562 116.446 424.113 L116.446 419.391 Q119.27 418.256 121.724 417.678 Q124.177 417.099 126.214 417.099 Q131.585 417.099 134.779 419.784 Q137.974 422.469 137.974 426.96 Q137.974 429.09 137.163 431.011 Q136.376 432.909 134.27 435.502 Q133.691 436.173 130.589 439.39 Q127.488 442.585 121.839 448.349 Z" fill="#000000" fill-rule="evenodd" fill-opacity="1" /><path clip-path="url(#clip980)" d="M157.973 420.803 Q154.362 420.803 152.534 424.367 Q150.728 427.909 150.728 435.039 Q150.728 442.145 152.534 445.71 Q154.362 449.251 157.973 449.251 Q161.608 449.251 163.413 445.71 Q165.242 442.145 165.242 435.039 Q165.242 427.909 163.413 424.367 Q161.608 420.803 157.973 420.803 M157.973 417.099 Q163.784 417.099 166.839 421.705 Q169.918 426.289 169.918 435.039 Q169.918 443.765 166.839 448.372 Q163.784 452.955 157.973 452.955 Q152.163 452.955 149.085 448.372 Q146.029 443.765 146.029 435.039 Q146.029 426.289 149.085 421.705 Q152.163 417.099 157.973 417.099 Z" fill="#000000" fill-rule="evenodd" fill-opacity="1" /><path clip-path="url(#clip980)" d="M122.835 107.088 L139.154 107.088 L139.154 111.023 L117.21 111.023 L117.21 107.088 Q119.872 104.334 124.455 99.704 Q129.062 95.0512 130.242 93.7086 Q132.488 91.1855 133.367 89.4494 Q134.27 87.6901 134.27 86.0003 Q134.27 83.2457 132.325 81.5096 Q130.404 79.7735 127.302 79.7735 Q125.103 79.7735 122.65 80.5374 Q120.219 81.3013 117.441 82.8522 L117.441 78.13 Q120.265 76.9958 122.719 76.4171 Q125.173 75.8384 127.21 75.8384 Q132.58 75.8384 135.775 78.5235 Q138.969 81.2087 138.969 85.6994 Q138.969 87.829 138.159 89.7503 Q137.372 91.6485 135.265 94.241 Q134.687 94.9123 131.585 98.1299 Q128.483 101.324 122.835 107.088 Z" fill="#000000" fill-rule="evenodd" fill-opacity="1" /><path clip-path="url(#clip980)" d="M149.015 76.4634 L167.372 76.4634 L167.372 80.3985 L153.298 80.3985 L153.298 88.8707 Q154.316 88.5235 155.335 88.3614 Q156.353 88.1763 157.372 88.1763 Q163.159 88.1763 166.538 91.3475 Q169.918 94.5188 169.918 99.9354 Q169.918 105.514 166.446 108.616 Q162.973 111.695 156.654 111.695 Q154.478 111.695 152.21 111.324 Q149.964 110.954 147.557 110.213 L147.557 105.514 Q149.64 106.648 151.862 107.204 Q154.085 107.759 156.561 107.759 Q160.566 107.759 162.904 105.653 Q165.242 103.547 165.242 99.9354 Q165.242 96.3244 162.904 94.2179 Q160.566 92.1114 156.561 92.1114 Q154.686 92.1114 152.811 92.5281 Q150.96 92.9447 149.015 93.8244 L149.015 76.4634 Z" fill="#000000" fill-rule="evenodd" fill-opacity="1" /><path clip-path="url(#clip980)" d="M43.719 1163.98 Q43.719 1171.07 45.3422 1173.81 Q46.9655 1176.55 50.8804 1176.55 Q53.9996 1176.55 55.8457 1174.51 Q57.6599 1172.44 57.6599 1168.91 Q57.6599 1164.04 54.2224 1161.11 Q50.7531 1158.15 45.0239 1158.15 L43.719 1158.15 L43.719 1163.98 M41.3 1152.3 L61.6384 1152.3 L61.6384 1158.15 L56.2276 1158.15 Q59.4741 1160.16 61.0337 1163.15 Q62.5615 1166.14 62.5615 1170.47 Q62.5615 1175.94 59.5059 1179.19 Q56.4186 1182.4 51.2623 1182.4 Q45.2467 1182.4 42.1912 1178.39 Q39.1357 1174.35 39.1357 1166.36 L39.1357 1158.15 L38.5628 1158.15 Q34.5205 1158.15 32.3244 1160.83 Q30.0964 1163.47 30.0964 1168.27 Q30.0964 1171.33 30.8284 1174.23 Q31.5605 1177.12 33.0246 1179.8 L27.6137 1179.8 Q26.3724 1176.58 25.7677 1173.56 Q25.1311 1170.53 25.1311 1167.67 Q25.1311 1159.93 29.1415 1156.11 Q33.1519 1152.3 41.3 1152.3 Z" fill="#000000" fill-rule="evenodd" fill-opacity="1" /><path clip-path="url(#clip980)" d="M27.3591 1114.58 L32.8336 1114.58 Q31.465 1117.06 30.7966 1119.58 Q30.0964 1122.06 30.0964 1124.6 Q30.0964 1130.3 33.7248 1133.45 Q37.3214 1136.6 43.8463 1136.6 Q50.3711 1136.6 53.9996 1133.45 Q57.5962 1130.3 57.5962 1124.6 Q57.5962 1122.06 56.9278 1119.58 Q56.2276 1117.06 54.859 1114.58 L60.2698 1114.58 Q61.4156 1117.03 61.9886 1119.67 Q62.5615 1122.28 62.5615 1125.24 Q62.5615 1133.29 57.5007 1138.04 Q52.44 1142.78 43.8463 1142.78 Q35.1253 1142.78 30.1282 1138 Q25.1311 1133.2 25.1311 1124.86 Q25.1311 1122.15 25.704 1119.58 Q26.2451 1117 27.3591 1114.58 Z" fill="#000000" fill-rule="evenodd" fill-opacity="1" /><path clip-path="url(#clip980)" d="M27.3591 1078.74 L32.8336 1078.74 Q31.465 1081.22 30.7966 1083.74 Q30.0964 1086.22 30.0964 1088.77 Q30.0964 1094.46 33.7248 1097.61 Q37.3214 1100.76 43.8463 1100.76 Q50.3711 1100.76 53.9996 1097.61 Q57.5962 1094.46 57.5962 1088.77 Q57.5962 1086.22 56.9278 1083.74 Q56.2276 1081.22 54.859 1078.74 L60.2698 1078.74 Q61.4156 1081.19 61.9886 1083.83 Q62.5615 1086.44 62.5615 1089.4 Q62.5615 1097.45 57.5007 1102.2 Q52.44 1106.94 43.8463 1106.94 Q35.1253 1106.94 30.1282 1102.17 Q25.1311 1097.36 25.1311 1089.02 Q25.1311 1086.31 25.704 1083.74 Q26.2451 1081.16 27.3591 1078.74 Z" fill="#000000" fill-rule="evenodd" fill-opacity="1" /><path clip-path="url(#clip980)" d="M47.5702 1069.16 L25.9905 1069.16 L25.9905 1063.3 L47.3474 1063.3 Q52.4082 1063.3 54.9545 1061.33 Q57.4689 1059.36 57.4689 1055.41 Q57.4689 1050.67 54.4452 1047.93 Q51.4215 1045.16 46.2016 1045.16 L25.9905 1045.16 L25.9905 1039.3 L61.6384 1039.3 L61.6384 1045.16 L56.1639 1045.16 Q59.4104 1047.29 61.0019 1050.13 Q62.5615 1052.93 62.5615 1056.65 Q62.5615 1062.79 58.742 1065.98 Q54.9226 1069.16 47.5702 1069.16 M25.1311 1054.42 L25.1311 1054.42 Z" fill="#000000" fill-rule="evenodd" fill-opacity="1" /><path clip-path="url(#clip980)" d="M32.8336 999.486 Q28.8869 997.29 27.009 994.235 Q25.1311 991.179 25.1311 987.041 Q25.1311 981.471 29.046 978.448 Q32.9291 975.424 40.1224 975.424 L61.6384 975.424 L61.6384 981.312 L40.3133 981.312 Q35.1889 981.312 32.7063 983.127 Q30.2237 984.941 30.2237 988.665 Q30.2237 993.216 33.2474 995.858 Q36.2711 998.5 41.491 998.5 L61.6384 998.5 L61.6384 1004.39 L40.3133 1004.39 Q35.1571 1004.39 32.7063 1006.2 Q30.2237 1008.02 30.2237 1011.8 Q30.2237 1016.29 33.2792 1018.93 Q36.3029 1021.58 41.491 1021.58 L61.6384 1021.58 L61.6384 1027.46 L25.9905 1027.46 L25.9905 1021.58 L31.5287 1021.58 Q28.2503 1019.57 26.6907 1016.77 Q25.1311 1013.97 25.1311 1010.12 Q25.1311 1006.23 27.1045 1003.53 Q29.0779 1000.79 32.8336 999.486 Z" fill="#000000" fill-rule="evenodd" fill-opacity="1" /><path clip-path="url(#clip980)" d="M47.5702 964.348 L25.9905 964.348 L25.9905 958.491 L47.3474 958.491 Q52.4082 958.491 54.9545 956.518 Q57.4689 954.544 57.4689 950.598 Q57.4689 945.855 54.4452 943.118 Q51.4215 940.349 46.2016 940.349 L25.9905 940.349 L25.9905 934.493 L61.6384 934.493 L61.6384 940.349 L56.1639 940.349 Q59.4104 942.481 61.0019 945.314 Q62.5615 948.115 62.5615 951.839 Q62.5615 957.982 58.742 961.165 Q54.9226 964.348 47.5702 964.348 M25.1311 949.611 L25.1311 949.611 Z" fill="#000000" fill-rule="evenodd" fill-opacity="1" /><path clip-path="url(#clip980)" d="M12.1132 922.43 L12.1132 916.573 L61.6384 916.573 L61.6384 922.43 L12.1132 922.43 Z" fill="#000000" fill-rule="evenodd" fill-opacity="1" /><path clip-path="url(#clip980)" d="M43.719 888.118 Q43.719 895.216 45.3422 897.953 Q46.9655 900.691 50.8804 900.691 Q53.9996 900.691 55.8457 898.654 Q57.6599 896.585 57.6599 893.052 Q57.6599 888.182 54.2224 885.254 Q50.7531 882.294 45.0239 882.294 L43.719 882.294 L43.719 888.118 M41.3 876.437 L61.6384 876.437 L61.6384 882.294 L56.2276 882.294 Q59.4741 884.299 61.0337 887.291 Q62.5615 890.283 62.5615 894.611 Q62.5615 900.086 59.5059 903.332 Q56.4186 906.547 51.2623 906.547 Q45.2467 906.547 42.1912 902.537 Q39.1357 898.494 39.1357 890.505 L39.1357 882.294 L38.5628 882.294 Q34.5205 882.294 32.3244 884.967 Q30.0964 887.609 30.0964 892.415 Q30.0964 895.471 30.8284 898.367 Q31.5605 901.264 33.0246 903.937 L27.6137 903.937 Q26.3724 900.722 25.7677 897.699 Q25.1311 894.675 25.1311 891.81 Q25.1311 884.076 29.1415 880.257 Q33.1519 876.437 41.3 876.437 Z" fill="#000000" fill-rule="evenodd" fill-opacity="1" /><path clip-path="url(#clip980)" d="M15.869 858.581 L25.9905 858.581 L25.9905 846.518 L30.542 846.518 L30.542 858.581 L49.8937 858.581 Q54.2542 858.581 55.4955 857.404 Q56.7368 856.194 56.7368 852.534 L56.7368 846.518 L61.6384 846.518 L61.6384 852.534 Q61.6384 859.314 59.124 861.892 Q56.5777 864.47 49.8937 864.47 L30.542 864.47 L30.542 868.767 L25.9905 868.767 L25.9905 864.47 L15.869 864.47 L15.869 858.581 Z" fill="#000000" fill-rule="evenodd" fill-opacity="1" /><path clip-path="url(#clip980)" d="M42.3504 808.324 L45.2149 808.324 L45.2149 835.251 Q51.2623 834.869 54.4452 831.623 Q57.5962 828.344 57.5962 822.52 Q57.5962 819.146 56.7687 815.995 Q55.9411 812.812 54.2861 809.693 L59.8242 809.693 Q61.161 812.844 61.8612 816.154 Q62.5615 819.464 62.5615 822.87 Q62.5615 831.4 57.5962 836.397 Q52.631 841.362 44.1646 841.362 Q35.4117 841.362 30.2873 836.652 Q25.1311 831.909 25.1311 823.888 Q25.1311 816.695 29.7781 812.526 Q34.3932 808.324 42.3504 808.324 M40.6316 814.181 Q35.8255 814.244 32.9609 816.886 Q30.0964 819.496 30.0964 823.825 Q30.0964 828.726 32.8654 831.686 Q35.6345 834.615 40.6634 835.06 L40.6316 814.181 Z" fill="#000000" fill-rule="evenodd" fill-opacity="1" /><path clip-path="url(#clip980)" d="M31.4013 775.254 L12.1132 775.254 L12.1132 769.398 L61.6384 769.398 L61.6384 775.254 L56.2912 775.254 Q59.4741 777.1 61.0337 779.933 Q62.5615 782.734 62.5615 786.681 Q62.5615 793.142 57.4052 797.216 Q52.249 801.258 43.8463 801.258 Q35.4436 801.258 30.2873 797.216 Q25.1311 793.142 25.1311 786.681 Q25.1311 782.734 26.6907 779.933 Q28.2185 777.1 31.4013 775.254 M43.8463 795.211 Q50.3075 795.211 53.9996 792.569 Q57.6599 789.895 57.6599 785.249 Q57.6599 780.602 53.9996 777.928 Q50.3075 775.254 43.8463 775.254 Q37.3851 775.254 33.7248 777.928 Q30.0327 780.602 30.0327 785.249 Q30.0327 789.895 33.7248 792.569 Q37.3851 795.211 43.8463 795.211 Z" fill="#000000" fill-rule="evenodd" fill-opacity="1" /><path clip-path="url(#clip980)" d="M15.869 730.822 L25.9905 730.822 L25.9905 718.759 L30.542 718.759 L30.542 730.822 L49.8937 730.822 Q54.2542 730.822 55.4955 729.644 Q56.7368 728.435 56.7368 724.774 L56.7368 718.759 L61.6384 718.759 L61.6384 724.774 Q61.6384 731.554 59.124 734.132 Q56.5777 736.71 49.8937 736.71 L30.542 736.71 L30.542 741.007 L25.9905 741.007 L25.9905 736.71 L15.869 736.71 L15.869 730.822 Z" fill="#000000" fill-rule="evenodd" fill-opacity="1" /><path clip-path="url(#clip980)" d="M25.9905 711.056 L25.9905 705.2 L61.6384 705.2 L61.6384 711.056 L25.9905 711.056 M12.1132 711.056 L12.1132 705.2 L19.5293 705.2 L19.5293 711.056 L12.1132 711.056 Z" fill="#000000" fill-rule="evenodd" fill-opacity="1" /><path clip-path="url(#clip980)" d="M32.8336 665.191 Q28.8869 662.995 27.009 659.94 Q25.1311 656.884 25.1311 652.746 Q25.1311 647.176 29.046 644.153 Q32.9291 641.129 40.1224 641.129 L61.6384 641.129 L61.6384 647.017 L40.3133 647.017 Q35.1889 647.017 32.7063 648.831 Q30.2237 650.646 30.2237 654.37 Q30.2237 658.921 33.2474 661.563 Q36.2711 664.205 41.491 664.205 L61.6384 664.205 L61.6384 670.093 L40.3133 670.093 Q35.1571 670.093 32.7063 671.907 Q30.2237 673.721 30.2237 677.509 Q30.2237 681.997 33.2792 684.639 Q36.3029 687.28 41.491 687.28 L61.6384 687.28 L61.6384 693.169 L25.9905 693.169 L25.9905 687.28 L31.5287 687.28 Q28.2503 685.275 26.6907 682.474 Q25.1311 679.673 25.1311 675.822 Q25.1311 671.939 27.1045 669.234 Q29.0779 666.496 32.8336 665.191 Z" fill="#000000" fill-rule="evenodd" fill-opacity="1" /><path clip-path="url(#clip980)" d="M42.3504 598.956 L45.2149 598.956 L45.2149 625.883 Q51.2623 625.501 54.4452 622.255 Q57.5962 618.976 57.5962 613.152 Q57.5962 609.778 56.7687 606.627 Q55.9411 603.444 54.2861 600.325 L59.8242 600.325 Q61.161 603.476 61.8612 606.786 Q62.5615 610.096 62.5615 613.502 Q62.5615 622.032 57.5962 627.029 Q52.631 631.994 44.1646 631.994 Q35.4117 631.994 30.2873 627.284 Q25.1311 622.541 25.1311 614.52 Q25.1311 607.327 29.7781 603.157 Q34.3932 598.956 42.3504 598.956 M40.6316 604.813 Q35.8255 604.876 32.9609 607.518 Q30.0964 610.128 30.0964 614.457 Q30.0964 619.358 32.8654 622.318 Q35.6345 625.246 40.6634 625.692 L40.6316 604.813 Z" fill="#000000" fill-rule="evenodd" fill-opacity="1" /><polyline clip-path="url(#clip982)" style="stroke:#009af9; stroke-linecap:round; stroke-linejoin:round; stroke-width:4; stroke-opacity:1; fill:none" points="279.026,1686.31 442.808,1572.52 606.589,1458.87 770.371,1345.66 934.152,1233.44 1097.93,1123.39 1261.72,1017.7 1425.5,903.946 1589.28,783.498 1753.06,666.78 1916.84,551.58 2080.62,437.041 2244.4,322.815 2408.19,208.789 2571.97,94.9858 "/>
<polyline clip-path="url(#clip982)" style="stroke:#e26f46; stroke-linecap:round; stroke-linejoin:round; stroke-width:4; stroke-opacity:1; fill:none" points="279.026,1686.38 442.808,1572.7 606.589,1459.03 770.371,1345.36 934.152,1231.69 1097.93,1118.02 1261.72,972.223 1425.5,827.595 1589.28,715.403 1753.06,611.063 1916.84,509.54 2080.62,408.841 2244.4,307.666 2408.19,204.325 2571.97,94.9858 "/>
<path clip-path="url(#clip980)" d="M1904.77 1677.89 L2559.74 1677.89 L2559.74 1522.37 L1904.77 1522.37  Z" fill="#ffffff" fill-rule="evenodd" fill-opacity="1"/>
<polyline clip-path="url(#clip980)" style="stroke:#000000; stroke-linecap:round; stroke-linejoin:round; stroke-width:4; stroke-opacity:1; fill:none" points="1904.77,1677.89 2559.74,1677.89 2559.74,1522.37 1904.77,1522.37 1904.77,1677.89 "/>
<polyline clip-path="url(#clip980)" style="stroke:#009af9; stroke-linecap:round; stroke-linejoin:round; stroke-width:4; stroke-opacity:1; fill:none" points="1931.77,1574.21 2093.81,1574.21 "/>
<path clip-path="url(#clip980)" d="M2120.81 1581.26 L2120.81 1565.56 L2125.07 1565.56 L2125.07 1581.09 Q2125.07 1584.77 2126.51 1586.63 Q2127.94 1588.46 2130.81 1588.46 Q2134.26 1588.46 2136.25 1586.26 Q2138.27 1584.06 2138.27 1580.26 L2138.27 1565.56 L2142.53 1565.56 L2142.53 1591.49 L2138.27 1591.49 L2138.27 1587.51 Q2136.72 1589.87 2134.66 1591.02 Q2132.62 1592.16 2129.91 1592.16 Q2125.44 1592.16 2123.13 1589.38 Q2120.81 1586.6 2120.81 1581.26 M2131.53 1564.94 L2131.53 1564.94 Z" fill="#000000" fill-rule="evenodd" fill-opacity="1" /><path clip-path="url(#clip980)" d="M2155.42 1587.6 L2155.42 1601.35 L2151.14 1601.35 L2151.14 1565.56 L2155.42 1565.56 L2155.42 1569.5 Q2156.76 1567.18 2158.8 1566.07 Q2160.86 1564.94 2163.71 1564.94 Q2168.43 1564.94 2171.37 1568.69 Q2174.33 1572.44 2174.33 1578.55 Q2174.33 1584.66 2171.37 1588.41 Q2168.43 1592.16 2163.71 1592.16 Q2160.86 1592.16 2158.8 1591.05 Q2156.76 1589.91 2155.42 1587.6 M2169.91 1578.55 Q2169.91 1573.85 2167.97 1571.19 Q2166.05 1568.5 2162.67 1568.5 Q2159.29 1568.5 2157.34 1571.19 Q2155.42 1573.85 2155.42 1578.55 Q2155.42 1583.25 2157.34 1585.93 Q2159.29 1588.59 2162.67 1588.59 Q2166.05 1588.59 2167.97 1585.93 Q2169.91 1583.25 2169.91 1578.55 Z" fill="#000000" fill-rule="evenodd" fill-opacity="1" /><path clip-path="url(#clip980)" d="M2179.24 1576.6 L2191.72 1576.6 L2191.72 1580.4 L2179.24 1580.4 L2179.24 1576.6 Z" fill="#000000" fill-rule="evenodd" fill-opacity="1" /><path clip-path="url(#clip980)" d="M2215.03 1566.33 L2215.03 1570.35 Q2213.22 1569.43 2211.28 1568.96 Q2209.33 1568.5 2207.25 1568.5 Q2204.08 1568.5 2202.48 1569.47 Q2200.91 1570.45 2200.91 1572.39 Q2200.91 1573.87 2202.04 1574.73 Q2203.17 1575.56 2206.6 1576.33 L2208.06 1576.65 Q2212.6 1577.62 2214.49 1579.4 Q2216.42 1581.16 2216.42 1584.34 Q2216.42 1587.95 2213.54 1590.05 Q2210.7 1592.16 2205.7 1592.16 Q2203.61 1592.16 2201.35 1591.74 Q2199.1 1591.35 2196.6 1590.54 L2196.6 1586.14 Q2198.96 1587.37 2201.25 1587.99 Q2203.54 1588.59 2205.79 1588.59 Q2208.8 1588.59 2210.42 1587.58 Q2212.04 1586.53 2212.04 1584.66 Q2212.04 1582.92 2210.86 1582 Q2209.7 1581.07 2205.74 1580.21 L2204.26 1579.87 Q2200.3 1579.03 2198.54 1577.32 Q2196.79 1575.59 2196.79 1572.58 Q2196.79 1568.92 2199.38 1566.93 Q2201.97 1564.94 2206.74 1564.94 Q2209.1 1564.94 2211.18 1565.28 Q2213.27 1565.63 2215.03 1566.33 Z" fill="#000000" fill-rule="evenodd" fill-opacity="1" /><path clip-path="url(#clip980)" d="M2227.41 1558.2 L2227.41 1565.56 L2236.18 1565.56 L2236.18 1568.87 L2227.41 1568.87 L2227.41 1582.95 Q2227.41 1586.12 2228.27 1587.02 Q2229.15 1587.92 2231.81 1587.92 L2236.18 1587.92 L2236.18 1591.49 L2231.81 1591.49 Q2226.88 1591.49 2225 1589.66 Q2223.13 1587.81 2223.13 1582.95 L2223.13 1568.87 L2220 1568.87 L2220 1565.56 L2223.13 1565.56 L2223.13 1558.2 L2227.41 1558.2 Z" fill="#000000" fill-rule="evenodd" fill-opacity="1" /><path clip-path="url(#clip980)" d="M2263.96 1577.46 L2263.96 1579.54 L2244.38 1579.54 Q2244.66 1583.94 2247.02 1586.26 Q2249.4 1588.55 2253.64 1588.55 Q2256.09 1588.55 2258.38 1587.95 Q2260.7 1587.34 2262.97 1586.14 L2262.97 1590.17 Q2260.67 1591.14 2258.27 1591.65 Q2255.86 1592.16 2253.38 1592.16 Q2247.18 1592.16 2243.54 1588.55 Q2239.93 1584.94 2239.93 1578.78 Q2239.93 1572.41 2243.36 1568.69 Q2246.81 1564.94 2252.64 1564.94 Q2257.87 1564.94 2260.91 1568.32 Q2263.96 1571.67 2263.96 1577.46 M2259.7 1576.21 Q2259.66 1572.71 2257.73 1570.63 Q2255.84 1568.55 2252.69 1568.55 Q2249.12 1568.55 2246.97 1570.56 Q2244.84 1572.58 2244.52 1576.23 L2259.7 1576.21 Z" fill="#000000" fill-rule="evenodd" fill-opacity="1" /><path clip-path="url(#clip980)" d="M2275.07 1587.6 L2275.07 1601.35 L2270.79 1601.35 L2270.79 1565.56 L2275.07 1565.56 L2275.07 1569.5 Q2276.41 1567.18 2278.45 1566.07 Q2280.51 1564.94 2283.36 1564.94 Q2288.08 1564.94 2291.02 1568.69 Q2293.98 1572.44 2293.98 1578.55 Q2293.98 1584.66 2291.02 1588.41 Q2288.08 1592.16 2283.36 1592.16 Q2280.51 1592.16 2278.45 1591.05 Q2276.41 1589.91 2275.07 1587.6 M2289.56 1578.55 Q2289.56 1573.85 2287.62 1571.19 Q2285.7 1568.5 2282.32 1568.5 Q2278.94 1568.5 2276.99 1571.19 Q2275.07 1573.85 2275.07 1578.55 Q2275.07 1583.25 2276.99 1585.93 Q2278.94 1588.59 2282.32 1588.59 Q2285.7 1588.59 2287.62 1585.93 Q2289.56 1583.25 2289.56 1578.55 Z" fill="#000000" fill-rule="evenodd" fill-opacity="1" /><path clip-path="url(#clip980)" d="M2336.3 1570.54 Q2337.9 1567.67 2340.12 1566.3 Q2342.34 1564.94 2345.35 1564.94 Q2349.4 1564.94 2351.6 1567.78 Q2353.8 1570.61 2353.8 1575.84 L2353.8 1591.49 L2349.52 1591.49 L2349.52 1575.98 Q2349.52 1572.25 2348.2 1570.45 Q2346.88 1568.64 2344.17 1568.64 Q2340.86 1568.64 2338.94 1570.84 Q2337.02 1573.04 2337.02 1576.84 L2337.02 1591.49 L2332.73 1591.49 L2332.73 1575.98 Q2332.73 1572.23 2331.41 1570.45 Q2330.1 1568.64 2327.34 1568.64 Q2324.08 1568.64 2322.16 1570.86 Q2320.23 1573.06 2320.23 1576.84 L2320.23 1591.49 L2315.95 1591.49 L2315.95 1565.56 L2320.23 1565.56 L2320.23 1569.59 Q2321.69 1567.21 2323.73 1566.07 Q2325.77 1564.94 2328.57 1564.94 Q2331.39 1564.94 2333.36 1566.37 Q2335.35 1567.81 2336.3 1570.54 Z" fill="#000000" fill-rule="evenodd" fill-opacity="1" /><path clip-path="url(#clip980)" d="M2362.29 1565.56 L2366.55 1565.56 L2366.55 1591.49 L2362.29 1591.49 L2362.29 1565.56 M2362.29 1555.47 L2366.55 1555.47 L2366.55 1560.86 L2362.29 1560.86 L2362.29 1555.47 Z" fill="#000000" fill-rule="evenodd" fill-opacity="1" /><path clip-path="url(#clip980)" d="M2397.02 1575.84 L2397.02 1591.49 L2392.76 1591.49 L2392.76 1575.98 Q2392.76 1572.3 2391.32 1570.47 Q2389.89 1568.64 2387.02 1568.64 Q2383.57 1568.64 2381.58 1570.84 Q2379.59 1573.04 2379.59 1576.84 L2379.59 1591.49 L2375.3 1591.49 L2375.3 1565.56 L2379.59 1565.56 L2379.59 1569.59 Q2381.11 1567.25 2383.17 1566.09 Q2385.26 1564.94 2387.97 1564.94 Q2392.43 1564.94 2394.72 1567.71 Q2397.02 1570.47 2397.02 1575.84 Z" fill="#000000" fill-rule="evenodd" fill-opacity="1" /><path clip-path="url(#clip980)" d="M2403.36 1576.6 L2415.84 1576.6 L2415.84 1580.4 L2403.36 1580.4 L2403.36 1576.6 Z" fill="#000000" fill-rule="evenodd" fill-opacity="1" /><path clip-path="url(#clip980)" d="M2420.14 1565.56 L2424.4 1565.56 L2429.72 1585.79 L2435.03 1565.56 L2440.05 1565.56 L2445.37 1585.79 L2450.67 1565.56 L2454.93 1565.56 L2448.15 1591.49 L2443.13 1591.49 L2437.55 1570.24 L2431.95 1591.49 L2426.92 1591.49 L2420.14 1565.56 Z" fill="#000000" fill-rule="evenodd" fill-opacity="1" /><path clip-path="url(#clip980)" d="M2471.44 1568.55 Q2468.01 1568.55 2466.02 1571.23 Q2464.03 1573.9 2464.03 1578.55 Q2464.03 1583.2 2466 1585.89 Q2467.99 1588.55 2471.44 1588.55 Q2474.84 1588.55 2476.83 1585.86 Q2478.82 1583.18 2478.82 1578.55 Q2478.82 1573.94 2476.83 1571.26 Q2474.84 1568.55 2471.44 1568.55 M2471.44 1564.94 Q2476.99 1564.94 2480.16 1568.55 Q2483.33 1572.16 2483.33 1578.55 Q2483.33 1584.91 2480.16 1588.55 Q2476.99 1592.16 2471.44 1592.16 Q2465.86 1592.16 2462.69 1588.55 Q2459.54 1584.91 2459.54 1578.55 Q2459.54 1572.16 2462.69 1568.55 Q2465.86 1564.94 2471.44 1564.94 Z" fill="#000000" fill-rule="evenodd" fill-opacity="1" /><path clip-path="url(#clip980)" d="M2505.42 1569.54 Q2504.7 1569.13 2503.84 1568.94 Q2503.01 1568.73 2501.99 1568.73 Q2498.38 1568.73 2496.44 1571.09 Q2494.52 1573.43 2494.52 1577.83 L2494.52 1591.49 L2490.23 1591.49 L2490.23 1565.56 L2494.52 1565.56 L2494.52 1569.59 Q2495.86 1567.23 2498.01 1566.09 Q2500.16 1564.94 2503.24 1564.94 Q2503.68 1564.94 2504.21 1565.01 Q2504.75 1565.05 2505.4 1565.17 L2505.42 1569.54 Z" fill="#000000" fill-rule="evenodd" fill-opacity="1" /><path clip-path="url(#clip980)" d="M2509.72 1555.47 L2514.01 1555.47 L2514.01 1576.74 L2526.71 1565.56 L2532.15 1565.56 L2518.4 1577.69 L2532.73 1591.49 L2527.18 1591.49 L2514.01 1578.83 L2514.01 1591.49 L2509.72 1591.49 L2509.72 1555.47 Z" fill="#000000" fill-rule="evenodd" fill-opacity="1" /><polyline clip-path="url(#clip980)" style="stroke:#e26f46; stroke-linecap:round; stroke-linejoin:round; stroke-width:4; stroke-opacity:1; fill:none" points="1931.77,1626.05 2093.81,1626.05 "/>
<path clip-path="url(#clip980)" d="M2136 1621.38 Q2135.28 1620.97 2134.42 1620.78 Q2133.59 1620.57 2132.57 1620.57 Q2128.96 1620.57 2127.02 1622.93 Q2125.1 1625.27 2125.1 1629.67 L2125.1 1643.33 L2120.81 1643.33 L2120.81 1617.4 L2125.1 1617.4 L2125.1 1621.43 Q2126.44 1619.07 2128.59 1617.93 Q2130.74 1616.78 2133.82 1616.78 Q2134.26 1616.78 2134.8 1616.85 Q2135.33 1616.89 2135.98 1617.01 L2136 1621.38 Z" fill="#000000" fill-rule="evenodd" fill-opacity="1" /><path clip-path="url(#clip980)" d="M2161.6 1629.3 L2161.6 1631.38 L2142.02 1631.38 Q2142.3 1635.78 2144.66 1638.1 Q2147.04 1640.39 2151.28 1640.39 Q2153.73 1640.39 2156.02 1639.79 Q2158.34 1639.18 2160.61 1637.98 L2160.61 1642.01 Q2158.31 1642.98 2155.91 1643.49 Q2153.5 1644 2151.02 1644 Q2144.82 1644 2141.18 1640.39 Q2137.57 1636.78 2137.57 1630.62 Q2137.57 1624.25 2141 1620.53 Q2144.45 1616.78 2150.28 1616.78 Q2155.51 1616.78 2158.55 1620.16 Q2161.6 1623.51 2161.6 1629.3 M2157.34 1628.05 Q2157.3 1624.55 2155.37 1622.47 Q2153.48 1620.39 2150.33 1620.39 Q2146.76 1620.39 2144.61 1622.4 Q2142.48 1624.42 2142.16 1628.07 L2157.34 1628.05 Z" fill="#000000" fill-rule="evenodd" fill-opacity="1" /><path clip-path="url(#clip980)" d="M2180.37 1630.3 Q2175.21 1630.3 2173.22 1631.48 Q2171.23 1632.66 2171.23 1635.5 Q2171.23 1637.77 2172.71 1639.11 Q2174.22 1640.43 2176.79 1640.43 Q2180.33 1640.43 2182.46 1637.93 Q2184.61 1635.41 2184.61 1631.24 L2184.61 1630.3 L2180.37 1630.3 M2188.87 1628.54 L2188.87 1643.33 L2184.61 1643.33 L2184.61 1639.39 Q2183.15 1641.75 2180.98 1642.89 Q2178.8 1644 2175.65 1644 Q2171.67 1644 2169.31 1641.78 Q2166.97 1639.53 2166.97 1635.78 Q2166.97 1631.41 2169.89 1629.18 Q2172.83 1626.96 2178.64 1626.96 L2184.61 1626.96 L2184.61 1626.55 Q2184.61 1623.61 2182.67 1622.01 Q2180.74 1620.39 2177.25 1620.39 Q2175.03 1620.39 2172.92 1620.92 Q2170.81 1621.45 2168.87 1622.52 L2168.87 1618.58 Q2171.21 1617.68 2173.41 1617.24 Q2175.61 1616.78 2177.69 1616.78 Q2183.31 1616.78 2186.09 1619.69 Q2188.87 1622.61 2188.87 1628.54 Z" fill="#000000" fill-rule="evenodd" fill-opacity="1" /><path clip-path="url(#clip980)" d="M2216.3 1618.4 L2216.3 1622.38 Q2214.49 1621.38 2212.67 1620.9 Q2210.86 1620.39 2209.01 1620.39 Q2204.86 1620.39 2202.57 1623.03 Q2200.28 1625.64 2200.28 1630.39 Q2200.28 1635.13 2202.57 1637.77 Q2204.86 1640.39 2209.01 1640.39 Q2210.86 1640.39 2212.67 1639.9 Q2214.49 1639.39 2216.3 1638.4 L2216.3 1642.33 Q2214.52 1643.17 2212.6 1643.58 Q2210.7 1644 2208.54 1644 Q2202.69 1644 2199.24 1640.32 Q2195.79 1636.64 2195.79 1630.39 Q2195.79 1624.05 2199.26 1620.41 Q2202.76 1616.78 2208.82 1616.78 Q2210.79 1616.78 2212.67 1617.19 Q2214.54 1617.59 2216.3 1618.4 Z" fill="#000000" fill-rule="evenodd" fill-opacity="1" /><path clip-path="url(#clip980)" d="M2227.92 1610.04 L2227.92 1617.4 L2236.69 1617.4 L2236.69 1620.71 L2227.92 1620.71 L2227.92 1634.79 Q2227.92 1637.96 2228.78 1638.86 Q2229.66 1639.76 2232.32 1639.76 L2236.69 1639.76 L2236.69 1643.33 L2232.32 1643.33 Q2227.39 1643.33 2225.51 1641.5 Q2223.64 1639.65 2223.64 1634.79 L2223.64 1620.71 L2220.51 1620.71 L2220.51 1617.4 L2223.64 1617.4 L2223.64 1610.04 L2227.92 1610.04 Z" fill="#000000" fill-rule="evenodd" fill-opacity="1" /><path clip-path="url(#clip980)" d="M2242.29 1617.4 L2246.55 1617.4 L2246.55 1643.33 L2242.29 1643.33 L2242.29 1617.4 M2242.29 1607.31 L2246.55 1607.31 L2246.55 1612.7 L2242.29 1612.7 L2242.29 1607.31 Z" fill="#000000" fill-rule="evenodd" fill-opacity="1" /><path clip-path="url(#clip980)" d="M2252.41 1617.4 L2256.92 1617.4 L2265.03 1639.16 L2273.13 1617.4 L2277.64 1617.4 L2267.92 1643.33 L2262.13 1643.33 L2252.41 1617.4 Z" fill="#000000" fill-rule="evenodd" fill-opacity="1" /><path clip-path="url(#clip980)" d="M2305.7 1629.3 L2305.7 1631.38 L2286.11 1631.38 Q2286.39 1635.78 2288.75 1638.1 Q2291.14 1640.39 2295.37 1640.39 Q2297.83 1640.39 2300.12 1639.79 Q2302.43 1639.18 2304.7 1637.98 L2304.7 1642.01 Q2302.41 1642.98 2300 1643.49 Q2297.6 1644 2295.12 1644 Q2288.91 1644 2285.28 1640.39 Q2281.67 1636.78 2281.67 1630.62 Q2281.67 1624.25 2285.1 1620.53 Q2288.54 1616.78 2294.38 1616.78 Q2299.61 1616.78 2302.64 1620.16 Q2305.7 1623.51 2305.7 1629.3 M2301.44 1628.05 Q2301.39 1624.55 2299.47 1622.47 Q2297.57 1620.39 2294.42 1620.39 Q2290.86 1620.39 2288.71 1622.4 Q2286.58 1624.42 2286.25 1628.07 L2301.44 1628.05 Z" fill="#000000" fill-rule="evenodd" fill-opacity="1" /></svg>
