<?xml version="1.0" encoding="utf-8"?>
<svg xmlns="http://www.w3.org/2000/svg" xmlns:xlink="http://www.w3.org/1999/xlink" width="672" height="480" viewBox="0 0 2688 1920">
<defs>
  <clipPath id="clip900">
    <rect x="0" y="0" width="2688" height="1920"/>
  </clipPath>
</defs>
<path clip-path="url(#clip900)" d="M0 1920 L2688 1920 L2688 0 L0 0  Z" fill="#ffffff" fill-rule="evenodd" fill-opacity="1"/>
<defs>
  <clipPath id="clip901">
    <rect x="537" y="0" width="1883" height="1883"/>
  </clipPath>
</defs>
<path clip-path="url(#clip900)" d="M253.733 1734.12 L2640.76 1734.12 L2640.76 47.2441 L253.733 47.2441  Z" fill="#ffffff" fill-rule="evenodd" fill-opacity="1"/>
<defs>
  <clipPath id="clip902">
    <rect x="253" y="47" width="2388" height="1688"/>
  </clipPath>
</defs>
<polyline clip-path="url(#clip902)" style="stroke:#000000; stroke-linecap:round; stroke-linejoin:round; stroke-width:2; stroke-opacity:0.1; fill:none" points="643.259,1734.12 643.259,47.2441 "/>
<polyline clip-path="url(#clip902)" style="stroke:#000000; stroke-linecap:round; stroke-linejoin:round; stroke-width:2; stroke-opacity:0.1; fill:none" points="1126.18,1734.12 1126.18,47.2441 "/>
<polyline clip-path="url(#clip902)" style="stroke:#000000; stroke-linecap:round; stroke-linejoin:round; stroke-width:2; stroke-opacity:0.1; fill:none" points="1609.11,1734.12 1609.11,47.2441 "/>
<polyline clip-path="url(#clip902)" style="stroke:#000000; stroke-linecap:round; stroke-linejoin:round; stroke-width:2; stroke-opacity:0.1; fill:none" points="2092.03,1734.12 2092.03,47.2441 "/>
<polyline clip-path="url(#clip902)" style="stroke:#000000; stroke-linecap:round; stroke-linejoin:round; stroke-width:2; stroke-opacity:0.1; fill:none" points="2574.96,1734.12 2574.96,47.2441 "/>
<polyline clip-path="url(#clip900)" style="stroke:#000000; stroke-linecap:round; stroke-linejoin:round; stroke-width:4; stroke-opacity:1; fill:none" points="253.733,1734.12 2640.76,1734.12 "/>
<polyline clip-path="url(#clip900)" style="stroke:#000000; stroke-linecap:round; stroke-linejoin:round; stroke-width:4; stroke-opacity:1; fill:none" points="643.259,1734.12 643.259,1715.22 "/>
<polyline clip-path="url(#clip900)" style="stroke:#000000; stroke-linecap:round; stroke-linejoin:round; stroke-width:4; stroke-opacity:1; fill:none" points="1126.18,1734.12 1126.18,1715.22 "/>
<polyline clip-path="url(#clip900)" style="stroke:#000000; stroke-linecap:round; stroke-linejoin:round; stroke-width:4; stroke-opacity:1; fill:none" points="1609.11,1734.12 1609.11,1715.22 "/>
<polyline clip-path="url(#clip900)" style="stroke:#000000; stroke-linecap:round; stroke-linejoin:round; stroke-width:4; stroke-opacity:1; fill:none" points="2092.03,1734.12 2092.03,1715.22 "/>
<polyline clip-path="url(#clip900)" style="stroke:#000000; stroke-linecap:round; stroke-linejoin:round; stroke-width:4; stroke-opacity:1; fill:none" points="2574.96,1734.12 2574.96,1715.22 "/>
<path clip-path="url(#clip900)" d="M633.537 1764.26 L651.893 1764.26 L651.893 1768.2 L637.819 1768.2 L637.819 1776.67 Q638.837 1776.32 639.856 1776.16 Q640.875 1775.97 641.893 1775.97 Q647.68 1775.97 651.06 1779.15 Q654.439 1782.32 654.439 1787.73 Q654.439 1793.31 650.967 1796.41 Q647.495 1799.49 641.175 1799.49 Q639 1799.49 636.731 1799.12 Q634.486 1798.75 632.078 1798.01 L632.078 1793.31 Q634.162 1794.45 636.384 1795 Q638.606 1795.56 641.083 1795.56 Q645.087 1795.56 647.425 1793.45 Q649.763 1791.34 649.763 1787.73 Q649.763 1784.12 647.425 1782.02 Q645.087 1779.91 641.083 1779.91 Q639.208 1779.91 637.333 1780.33 Q635.481 1780.74 633.537 1781.62 L633.537 1764.26 Z" fill="#000000" fill-rule="evenodd" fill-opacity="1" /><path clip-path="url(#clip900)" d="M1100.87 1794.89 L1108.51 1794.89 L1108.51 1768.52 L1100.2 1770.19 L1100.2 1765.93 L1108.46 1764.26 L1113.14 1764.26 L1113.14 1794.89 L1120.78 1794.89 L1120.78 1798.82 L1100.87 1798.82 L1100.87 1794.89 Z" fill="#000000" fill-rule="evenodd" fill-opacity="1" /><path clip-path="url(#clip900)" d="M1140.22 1767.34 Q1136.61 1767.34 1134.78 1770.9 Q1132.98 1774.45 1132.98 1781.58 Q1132.98 1788.68 1134.78 1792.25 Q1136.61 1795.79 1140.22 1795.79 Q1143.86 1795.79 1145.66 1792.25 Q1147.49 1788.68 1147.49 1781.58 Q1147.49 1774.45 1145.66 1770.9 Q1143.86 1767.34 1140.22 1767.34 M1140.22 1763.64 Q1146.03 1763.64 1149.09 1768.24 Q1152.17 1772.83 1152.17 1781.58 Q1152.17 1790.3 1149.09 1794.91 Q1146.03 1799.49 1140.22 1799.49 Q1134.41 1799.49 1131.33 1794.91 Q1128.28 1790.3 1128.28 1781.58 Q1128.28 1772.83 1131.33 1768.24 Q1134.41 1763.64 1140.22 1763.64 Z" fill="#000000" fill-rule="evenodd" fill-opacity="1" /><path clip-path="url(#clip900)" d="M1584.29 1794.89 L1591.93 1794.89 L1591.93 1768.52 L1583.62 1770.19 L1583.62 1765.93 L1591.89 1764.26 L1596.56 1764.26 L1596.56 1794.89 L1604.2 1794.89 L1604.2 1798.82 L1584.29 1798.82 L1584.29 1794.89 Z" fill="#000000" fill-rule="evenodd" fill-opacity="1" /><path clip-path="url(#clip900)" d="M1613.69 1764.26 L1632.05 1764.26 L1632.05 1768.2 L1617.97 1768.2 L1617.97 1776.67 Q1618.99 1776.32 1620.01 1776.16 Q1621.03 1775.97 1622.05 1775.97 Q1627.83 1775.97 1631.21 1779.15 Q1634.59 1782.32 1634.59 1787.73 Q1634.59 1793.31 1631.12 1796.41 Q1627.65 1799.49 1621.33 1799.49 Q1619.15 1799.49 1616.89 1799.12 Q1614.64 1798.75 1612.23 1798.01 L1612.23 1793.31 Q1614.32 1794.45 1616.54 1795 Q1618.76 1795.56 1621.24 1795.56 Q1625.24 1795.56 1627.58 1793.45 Q1629.92 1791.34 1629.92 1787.73 Q1629.92 1784.12 1627.58 1782.02 Q1625.24 1779.91 1621.24 1779.91 Q1619.36 1779.91 1617.49 1780.33 Q1615.64 1780.74 1613.69 1781.62 L1613.69 1764.26 Z" fill="#000000" fill-rule="evenodd" fill-opacity="1" /><path clip-path="url(#clip900)" d="M2070.81 1794.89 L2087.12 1794.89 L2087.12 1798.82 L2065.18 1798.82 L2065.18 1794.89 Q2067.84 1792.13 2072.43 1787.5 Q2077.03 1782.85 2078.21 1781.51 Q2080.46 1778.98 2081.34 1777.25 Q2082.24 1775.49 2082.24 1773.8 Q2082.24 1771.04 2080.3 1769.31 Q2078.37 1767.57 2075.27 1767.57 Q2073.07 1767.57 2070.62 1768.34 Q2068.19 1769.1 2065.41 1770.65 L2065.41 1765.93 Q2068.24 1764.79 2070.69 1764.21 Q2073.14 1763.64 2075.18 1763.64 Q2080.55 1763.64 2083.75 1766.32 Q2086.94 1769.01 2086.94 1773.5 Q2086.94 1775.63 2086.13 1777.55 Q2085.34 1779.45 2083.24 1782.04 Q2082.66 1782.71 2079.56 1785.93 Q2076.45 1789.12 2070.81 1794.89 Z" fill="#000000" fill-rule="evenodd" fill-opacity="1" /><path clip-path="url(#clip900)" d="M2106.94 1767.34 Q2103.33 1767.34 2101.5 1770.9 Q2099.69 1774.45 2099.69 1781.58 Q2099.69 1788.68 2101.5 1792.25 Q2103.33 1795.79 2106.94 1795.79 Q2110.57 1795.79 2112.38 1792.25 Q2114.21 1788.68 2114.21 1781.58 Q2114.21 1774.45 2112.38 1770.9 Q2110.57 1767.34 2106.94 1767.34 M2106.94 1763.64 Q2112.75 1763.64 2115.81 1768.24 Q2118.88 1772.83 2118.88 1781.58 Q2118.88 1790.3 2115.81 1794.91 Q2112.75 1799.49 2106.94 1799.49 Q2101.13 1799.49 2098.05 1794.91 Q2095 1790.3 2095 1781.58 Q2095 1772.83 2098.05 1768.24 Q2101.13 1763.64 2106.94 1763.64 Z" fill="#000000" fill-rule="evenodd" fill-opacity="1" /><path clip-path="url(#clip900)" d="M2554.23 1794.89 L2570.55 1794.89 L2570.55 1798.82 L2548.6 1798.82 L2548.6 1794.89 Q2551.26 1792.13 2555.85 1787.5 Q2560.45 1782.85 2561.64 1781.51 Q2563.88 1778.98 2564.76 1777.25 Q2565.66 1775.49 2565.66 1773.8 Q2565.66 1771.04 2563.72 1769.31 Q2561.8 1767.57 2558.7 1767.57 Q2556.5 1767.57 2554.04 1768.34 Q2551.61 1769.1 2548.83 1770.65 L2548.83 1765.93 Q2551.66 1764.79 2554.11 1764.21 Q2556.57 1763.64 2558.6 1763.64 Q2563.97 1763.64 2567.17 1766.32 Q2570.36 1769.01 2570.36 1773.5 Q2570.36 1775.63 2569.55 1777.55 Q2568.76 1779.45 2566.66 1782.04 Q2566.08 1782.71 2562.98 1785.93 Q2559.88 1789.12 2554.23 1794.89 Z" fill="#000000" fill-rule="evenodd" fill-opacity="1" /><path clip-path="url(#clip900)" d="M2580.41 1764.26 L2598.76 1764.26 L2598.76 1768.2 L2584.69 1768.2 L2584.69 1776.67 Q2585.71 1776.32 2586.73 1776.16 Q2587.75 1775.97 2588.76 1775.97 Q2594.55 1775.97 2597.93 1779.15 Q2601.31 1782.32 2601.31 1787.73 Q2601.31 1793.31 2597.84 1796.41 Q2594.37 1799.49 2588.05 1799.49 Q2585.87 1799.49 2583.6 1799.12 Q2581.36 1798.75 2578.95 1798.01 L2578.95 1793.31 Q2581.03 1794.45 2583.26 1795 Q2585.48 1795.56 2587.95 1795.56 Q2591.96 1795.56 2594.3 1793.45 Q2596.63 1791.34 2596.63 1787.73 Q2596.63 1784.12 2594.3 1782.02 Q2591.96 1779.91 2587.95 1779.91 Q2586.08 1779.91 2584.2 1780.33 Q2582.35 1780.74 2580.41 1781.62 L2580.41 1764.26 Z" fill="#000000" fill-rule="evenodd" fill-opacity="1" /><path clip-path="url(#clip900)" d="M1386.4 1837.53 L1386.4 1847.65 L1398.47 1847.65 L1398.47 1852.2 L1386.4 1852.2 L1386.4 1871.56 Q1386.4 1875.92 1387.58 1877.16 Q1388.79 1878.4 1392.45 1878.4 L1398.47 1878.4 L1398.47 1883.3 L1392.45 1883.3 Q1385.67 1883.3 1383.09 1880.79 Q1380.52 1878.24 1380.52 1871.56 L1380.52 1852.2 L1376.22 1852.2 L1376.22 1847.65 L1380.52 1847.65 L1380.52 1837.53 L1386.4 1837.53 Z" fill="#000000" fill-rule="evenodd" fill-opacity="1" /><path clip-path="url(#clip900)" d="M1406.17 1847.65 L1412.03 1847.65 L1412.03 1883.3 L1406.17 1883.3 L1406.17 1847.65 M1406.17 1833.78 L1412.03 1833.78 L1412.03 1841.19 L1406.17 1841.19 L1406.17 1833.78 Z" fill="#000000" fill-rule="evenodd" fill-opacity="1" /><path clip-path="url(#clip900)" d="M1452.03 1854.5 Q1454.23 1850.55 1457.29 1848.67 Q1460.34 1846.79 1464.48 1846.79 Q1470.05 1846.79 1473.07 1850.71 Q1476.1 1854.59 1476.1 1861.78 L1476.1 1883.3 L1470.21 1883.3 L1470.21 1861.98 Q1470.21 1856.85 1468.39 1854.37 Q1466.58 1851.89 1462.86 1851.89 Q1458.3 1851.89 1455.66 1854.91 Q1453.02 1857.93 1453.02 1863.15 L1453.02 1883.3 L1447.13 1883.3 L1447.13 1861.98 Q1447.13 1856.82 1445.32 1854.37 Q1443.5 1851.89 1439.72 1851.89 Q1435.23 1851.89 1432.59 1854.94 Q1429.95 1857.97 1429.95 1863.15 L1429.95 1883.3 L1424.06 1883.3 L1424.06 1847.65 L1429.95 1847.65 L1429.95 1853.19 Q1431.95 1849.91 1434.75 1848.35 Q1437.55 1846.79 1441.4 1846.79 Q1445.29 1846.79 1447.99 1848.77 Q1450.73 1850.74 1452.03 1854.5 Z" fill="#000000" fill-rule="evenodd" fill-opacity="1" /><path clip-path="url(#clip900)" d="M1518.27 1864.01 L1518.27 1866.88 L1491.34 1866.88 Q1491.72 1872.92 1494.97 1876.11 Q1498.25 1879.26 1504.07 1879.26 Q1507.45 1879.26 1510.6 1878.43 Q1513.78 1877.6 1516.9 1875.95 L1516.9 1881.49 Q1513.75 1882.82 1510.44 1883.52 Q1507.13 1884.22 1503.72 1884.22 Q1495.19 1884.22 1490.2 1879.26 Q1485.23 1874.29 1485.23 1865.83 Q1485.23 1857.07 1489.94 1851.95 Q1494.68 1846.79 1502.71 1846.79 Q1509.9 1846.79 1514.07 1851.44 Q1518.27 1856.06 1518.27 1864.01 M1512.41 1862.29 Q1512.35 1857.49 1509.71 1854.62 Q1507.1 1851.76 1502.77 1851.76 Q1497.87 1851.76 1494.91 1854.53 Q1491.98 1857.3 1491.53 1862.33 L1512.41 1862.29 Z" fill="#000000" fill-rule="evenodd" fill-opacity="1" /><polyline clip-path="url(#clip902)" style="stroke:#000000; stroke-linecap:round; stroke-linejoin:round; stroke-width:2; stroke-opacity:0.1; fill:none" points="253.733,1674.94 2640.76,1674.94 "/>
<polyline clip-path="url(#clip902)" style="stroke:#000000; stroke-linecap:round; stroke-linejoin:round; stroke-width:2; stroke-opacity:0.1; fill:none" points="253.733,1307.08 2640.76,1307.08 "/>
<polyline clip-path="url(#clip902)" style="stroke:#000000; stroke-linecap:round; stroke-linejoin:round; stroke-width:2; stroke-opacity:0.1; fill:none" points="253.733,939.222 2640.76,939.222 "/>
<polyline clip-path="url(#clip902)" style="stroke:#000000; stroke-linecap:round; stroke-linejoin:round; stroke-width:2; stroke-opacity:0.1; fill:none" points="253.733,571.36 2640.76,571.36 "/>
<polyline clip-path="url(#clip902)" style="stroke:#000000; stroke-linecap:round; stroke-linejoin:round; stroke-width:2; stroke-opacity:0.1; fill:none" points="253.733,203.499 2640.76,203.499 "/>
<polyline clip-path="url(#clip900)" style="stroke:#000000; stroke-linecap:round; stroke-linejoin:round; stroke-width:4; stroke-opacity:1; fill:none" points="253.733,1734.12 253.733,47.2441 "/>
<polyline clip-path="url(#clip900)" style="stroke:#000000; stroke-linecap:round; stroke-linejoin:round; stroke-width:4; stroke-opacity:1; fill:none" points="253.733,1674.94 272.631,1674.94 "/>
<polyline clip-path="url(#clip900)" style="stroke:#000000; stroke-linecap:round; stroke-linejoin:round; stroke-width:4; stroke-opacity:1; fill:none" points="253.733,1307.08 272.631,1307.08 "/>
<polyline clip-path="url(#clip900)" style="stroke:#000000; stroke-linecap:round; stroke-linejoin:round; stroke-width:4; stroke-opacity:1; fill:none" points="253.733,939.222 272.631,939.222 "/>
<polyline clip-path="url(#clip900)" style="stroke:#000000; stroke-linecap:round; stroke-linejoin:round; stroke-width:4; stroke-opacity:1; fill:none" points="253.733,571.36 272.631,571.36 "/>
<polyline clip-path="url(#clip900)" style="stroke:#000000; stroke-linecap:round; stroke-linejoin:round; stroke-width:4; stroke-opacity:1; fill:none" points="253.733,203.499 272.631,203.499 "/>
<path clip-path="url(#clip900)" d="M117.881 1688.29 L125.52 1688.29 L125.52 1661.92 L117.21 1663.59 L117.21 1659.33 L125.474 1657.66 L130.15 1657.66 L130.15 1688.29 L137.788 1688.29 L137.788 1692.22 L117.881 1692.22 L117.881 1688.29 Z" fill="#000000" fill-rule="evenodd" fill-opacity="1" /><path clip-path="url(#clip900)" d="M147.233 1686.35 L152.117 1686.35 L152.117 1692.22 L147.233 1692.22 L147.233 1686.35 Z" fill="#000000" fill-rule="evenodd" fill-opacity="1" /><path clip-path="url(#clip900)" d="M162.348 1657.66 L180.705 1657.66 L180.705 1661.6 L166.631 1661.6 L166.631 1670.07 Q167.649 1669.72 168.668 1669.56 Q169.686 1669.38 170.705 1669.38 Q176.492 1669.38 179.872 1672.55 Q183.251 1675.72 183.251 1681.14 Q183.251 1686.72 179.779 1689.82 Q176.307 1692.9 169.987 1692.9 Q167.811 1692.9 165.543 1692.53 Q163.298 1692.16 160.89 1691.41 L160.89 1686.72 Q162.973 1687.85 165.196 1688.41 Q167.418 1688.96 169.895 1688.96 Q173.899 1688.96 176.237 1686.85 Q178.575 1684.75 178.575 1681.14 Q178.575 1677.53 176.237 1675.42 Q173.899 1673.31 169.895 1673.31 Q168.02 1673.31 166.145 1673.73 Q164.293 1674.15 162.348 1675.03 L162.348 1657.66 Z" fill="#000000" fill-rule="evenodd" fill-opacity="1" /><path clip-path="url(#clip900)" d="M192.51 1657.66 L210.867 1657.66 L210.867 1661.6 L196.793 1661.6 L196.793 1670.07 Q197.811 1669.72 198.83 1669.56 Q199.848 1669.38 200.867 1669.38 Q206.654 1669.38 210.033 1672.55 Q213.413 1675.72 213.413 1681.14 Q213.413 1686.72 209.941 1689.82 Q206.469 1692.9 200.149 1692.9 Q197.973 1692.9 195.705 1692.53 Q193.459 1692.16 191.052 1691.41 L191.052 1686.72 Q193.135 1687.85 195.358 1688.41 Q197.58 1688.96 200.057 1688.96 Q204.061 1688.96 206.399 1686.85 Q208.737 1684.75 208.737 1681.14 Q208.737 1677.53 206.399 1675.42 Q204.061 1673.31 200.057 1673.31 Q198.182 1673.31 196.307 1673.73 Q194.455 1674.15 192.51 1675.03 L192.51 1657.66 Z" fill="#000000" fill-rule="evenodd" fill-opacity="1" /><path clip-path="url(#clip900)" d="M116.886 1320.43 L124.525 1320.43 L124.525 1294.06 L116.214 1295.73 L116.214 1291.47 L124.478 1289.8 L129.154 1289.8 L129.154 1320.43 L136.793 1320.43 L136.793 1324.36 L116.886 1324.36 L116.886 1320.43 Z" fill="#000000" fill-rule="evenodd" fill-opacity="1" /><path clip-path="url(#clip900)" d="M146.237 1318.48 L151.122 1318.48 L151.122 1324.36 L146.237 1324.36 L146.237 1318.48 Z" fill="#000000" fill-rule="evenodd" fill-opacity="1" /><path clip-path="url(#clip900)" d="M171.885 1305.22 Q168.737 1305.22 166.885 1307.37 Q165.057 1309.53 165.057 1313.28 Q165.057 1317 166.885 1319.18 Q168.737 1321.33 171.885 1321.33 Q175.034 1321.33 176.862 1319.18 Q178.714 1317 178.714 1313.28 Q178.714 1309.53 176.862 1307.37 Q175.034 1305.22 171.885 1305.22 M181.168 1290.57 L181.168 1294.83 Q179.409 1293.99 177.603 1293.55 Q175.821 1293.11 174.061 1293.11 Q169.432 1293.11 166.978 1296.24 Q164.548 1299.36 164.2 1305.68 Q165.566 1303.67 167.626 1302.6 Q169.686 1301.52 172.163 1301.52 Q177.372 1301.52 180.381 1304.69 Q183.413 1307.84 183.413 1313.28 Q183.413 1318.6 180.265 1321.82 Q177.117 1325.03 171.885 1325.03 Q165.89 1325.03 162.719 1320.45 Q159.548 1315.84 159.548 1307.12 Q159.548 1298.92 163.436 1294.06 Q167.325 1289.18 173.876 1289.18 Q175.635 1289.18 177.418 1289.53 Q179.223 1289.87 181.168 1290.57 Z" fill="#000000" fill-rule="evenodd" fill-opacity="1" /><path clip-path="url(#clip900)" d="M201.469 1292.88 Q197.858 1292.88 196.029 1296.45 Q194.223 1299.99 194.223 1307.12 Q194.223 1314.22 196.029 1317.79 Q197.858 1321.33 201.469 1321.33 Q205.103 1321.33 206.908 1317.79 Q208.737 1314.22 208.737 1307.12 Q208.737 1299.99 206.908 1296.45 Q205.103 1292.88 201.469 1292.88 M201.469 1289.18 Q207.279 1289.18 210.334 1293.78 Q213.413 1298.37 213.413 1307.12 Q213.413 1315.84 210.334 1320.45 Q207.279 1325.03 201.469 1325.03 Q195.658 1325.03 192.58 1320.45 Q189.524 1315.84 189.524 1307.12 Q189.524 1298.37 192.58 1293.78 Q195.658 1289.18 201.469 1289.18 Z" fill="#000000" fill-rule="evenodd" fill-opacity="1" /><path clip-path="url(#clip900)" d="M117.881 952.566 L125.52 952.566 L125.52 926.201 L117.21 927.868 L117.21 923.608 L125.474 921.942 L130.15 921.942 L130.15 952.566 L137.788 952.566 L137.788 956.502 L117.881 956.502 L117.881 952.566 Z" fill="#000000" fill-rule="evenodd" fill-opacity="1" /><path clip-path="url(#clip900)" d="M147.233 950.622 L152.117 950.622 L152.117 956.502 L147.233 956.502 L147.233 950.622 Z" fill="#000000" fill-rule="evenodd" fill-opacity="1" /><path clip-path="url(#clip900)" d="M172.881 937.358 Q169.733 937.358 167.881 939.511 Q166.052 941.664 166.052 945.414 Q166.052 949.141 167.881 951.317 Q169.733 953.469 172.881 953.469 Q176.029 953.469 177.858 951.317 Q179.709 949.141 179.709 945.414 Q179.709 941.664 177.858 939.511 Q176.029 937.358 172.881 937.358 M182.163 922.706 L182.163 926.965 Q180.404 926.131 178.598 925.692 Q176.816 925.252 175.057 925.252 Q170.427 925.252 167.973 928.377 Q165.543 931.502 165.196 937.821 Q166.561 935.807 168.622 934.743 Q170.682 933.655 173.159 933.655 Q178.367 933.655 181.376 936.826 Q184.409 939.974 184.409 945.414 Q184.409 950.738 181.26 953.955 Q178.112 957.173 172.881 957.173 Q166.885 957.173 163.714 952.59 Q160.543 947.983 160.543 939.256 Q160.543 931.062 164.432 926.201 Q168.321 921.317 174.872 921.317 Q176.631 921.317 178.413 921.664 Q180.219 922.011 182.163 922.706 Z" fill="#000000" fill-rule="evenodd" fill-opacity="1" /><path clip-path="url(#clip900)" d="M192.51 921.942 L210.867 921.942 L210.867 925.877 L196.793 925.877 L196.793 934.349 Q197.811 934.002 198.83 933.84 Q199.848 933.655 200.867 933.655 Q206.654 933.655 210.033 936.826 Q213.413 939.997 213.413 945.414 Q213.413 950.992 209.941 954.094 Q206.469 957.173 200.149 957.173 Q197.973 957.173 195.705 956.803 Q193.459 956.432 191.052 955.691 L191.052 950.992 Q193.135 952.127 195.358 952.682 Q197.58 953.238 200.057 953.238 Q204.061 953.238 206.399 951.131 Q208.737 949.025 208.737 945.414 Q208.737 941.803 206.399 939.696 Q204.061 937.59 200.057 937.59 Q198.182 937.59 196.307 938.006 Q194.455 938.423 192.51 939.303 L192.51 921.942 Z" fill="#000000" fill-rule="evenodd" fill-opacity="1" /><path clip-path="url(#clip900)" d="M116.886 584.705 L124.525 584.705 L124.525 558.339 L116.214 560.006 L116.214 555.747 L124.478 554.08 L129.154 554.08 L129.154 584.705 L136.793 584.705 L136.793 588.64 L116.886 588.64 L116.886 584.705 Z" fill="#000000" fill-rule="evenodd" fill-opacity="1" /><path clip-path="url(#clip900)" d="M146.237 582.761 L151.122 582.761 L151.122 588.64 L146.237 588.64 L146.237 582.761 Z" fill="#000000" fill-rule="evenodd" fill-opacity="1" /><path clip-path="url(#clip900)" d="M160.126 554.08 L182.348 554.08 L182.348 556.071 L169.802 588.64 L164.918 588.64 L176.723 558.015 L160.126 558.015 L160.126 554.08 Z" fill="#000000" fill-rule="evenodd" fill-opacity="1" /><path clip-path="url(#clip900)" d="M201.469 557.159 Q197.858 557.159 196.029 560.724 Q194.223 564.265 194.223 571.395 Q194.223 578.501 196.029 582.066 Q197.858 585.608 201.469 585.608 Q205.103 585.608 206.908 582.066 Q208.737 578.501 208.737 571.395 Q208.737 564.265 206.908 560.724 Q205.103 557.159 201.469 557.159 M201.469 553.455 Q207.279 553.455 210.334 558.062 Q213.413 562.645 213.413 571.395 Q213.413 580.122 210.334 584.728 Q207.279 589.311 201.469 589.311 Q195.658 589.311 192.58 584.728 Q189.524 580.122 189.524 571.395 Q189.524 562.645 192.58 558.062 Q195.658 553.455 201.469 553.455 Z" fill="#000000" fill-rule="evenodd" fill-opacity="1" /><path clip-path="url(#clip900)" d="M117.881 216.843 L125.52 216.843 L125.52 190.478 L117.21 192.144 L117.21 187.885 L125.474 186.219 L130.15 186.219 L130.15 216.843 L137.788 216.843 L137.788 220.779 L117.881 220.779 L117.881 216.843 Z" fill="#000000" fill-rule="evenodd" fill-opacity="1" /><path clip-path="url(#clip900)" d="M147.233 214.899 L152.117 214.899 L152.117 220.779 L147.233 220.779 L147.233 214.899 Z" fill="#000000" fill-rule="evenodd" fill-opacity="1" /><path clip-path="url(#clip900)" d="M161.122 186.219 L183.344 186.219 L183.344 188.209 L170.797 220.779 L165.913 220.779 L177.719 190.154 L161.122 190.154 L161.122 186.219 Z" fill="#000000" fill-rule="evenodd" fill-opacity="1" /><path clip-path="url(#clip900)" d="M192.51 186.219 L210.867 186.219 L210.867 190.154 L196.793 190.154 L196.793 198.626 Q197.811 198.279 198.83 198.117 Q199.848 197.931 200.867 197.931 Q206.654 197.931 210.033 201.103 Q213.413 204.274 213.413 209.691 Q213.413 215.269 209.941 218.371 Q206.469 221.45 200.149 221.45 Q197.973 221.45 195.705 221.08 Q193.459 220.709 191.052 219.968 L191.052 215.269 Q193.135 216.404 195.358 216.959 Q197.58 217.515 200.057 217.515 Q204.061 217.515 206.399 215.408 Q208.737 213.302 208.737 209.691 Q208.737 206.08 206.399 203.973 Q204.061 201.867 200.057 201.867 Q198.182 201.867 196.307 202.283 Q194.455 202.7 192.51 203.58 L192.51 186.219 Z" fill="#000000" fill-rule="evenodd" fill-opacity="1" /><path clip-path="url(#clip900)" d="M27.0408 1016.34 L32.579 1016.34 Q31.3059 1018.82 30.6693 1021.5 Q30.0327 1024.17 30.0327 1027.03 Q30.0327 1031.39 31.3695 1033.59 Q32.7063 1035.75 35.3799 1035.75 Q37.4169 1035.75 38.5946 1034.2 Q39.7404 1032.64 40.7908 1027.93 L41.2364 1025.92 Q42.5732 1019.68 45.0239 1017.07 Q47.4429 1014.43 51.8034 1014.43 Q56.7687 1014.43 59.6651 1018.38 Q62.5615 1022.29 62.5615 1029.17 Q62.5615 1032.03 61.9886 1035.15 Q61.4475 1038.24 60.3335 1041.68 L54.2861 1041.68 Q55.973 1038.43 56.8323 1035.28 Q57.6599 1032.13 57.6599 1029.04 Q57.6599 1024.9 56.2594 1022.67 Q54.8271 1020.45 52.249 1020.45 Q49.8619 1020.45 48.5887 1022.07 Q47.3156 1023.66 46.1379 1029.1 L45.6605 1031.14 Q44.5147 1036.58 42.1594 1039 Q39.7722 1041.42 35.6345 1041.42 Q30.6056 1041.42 27.8684 1037.86 Q25.1311 1034.29 25.1311 1027.73 Q25.1311 1024.49 25.6085 1021.62 Q26.086 1018.76 27.0408 1016.34 Z" fill="#000000" fill-rule="evenodd" fill-opacity="1" /><path clip-path="url(#clip900)" d="M15.869 999.311 L25.9905 999.311 L25.9905 987.248 L30.542 987.248 L30.542 999.311 L49.8937 999.311 Q54.2542 999.311 55.4955 998.134 Q56.7368 996.924 56.7368 993.264 L56.7368 987.248 L61.6384 987.248 L61.6384 993.264 Q61.6384 1000.04 59.124 1002.62 Q56.5777 1005.2 49.8937 1005.2 L30.542 1005.2 L30.542 1009.5 L25.9905 1009.5 L25.9905 1005.2 L15.869 1005.2 L15.869 999.311 Z" fill="#000000" fill-rule="evenodd" fill-opacity="1" /><path clip-path="url(#clip900)" d="M42.3504 949.054 L45.2149 949.054 L45.2149 975.981 Q51.2623 975.599 54.4452 972.353 Q57.5962 969.074 57.5962 963.25 Q57.5962 959.876 56.7687 956.725 Q55.9411 953.542 54.2861 950.423 L59.8242 950.423 Q61.161 953.574 61.8612 956.884 Q62.5615 960.194 62.5615 963.6 Q62.5615 972.13 57.5962 977.127 Q52.631 982.092 44.1646 982.092 Q35.4117 982.092 30.2873 977.381 Q25.1311 972.639 25.1311 964.618 Q25.1311 957.425 29.7781 953.255 Q34.3932 949.054 42.3504 949.054 M40.6316 954.911 Q35.8255 954.974 32.9609 957.616 Q30.0964 960.226 30.0964 964.555 Q30.0964 969.456 32.8654 972.416 Q35.6345 975.344 40.6634 975.79 L40.6316 954.911 Z" fill="#000000" fill-rule="evenodd" fill-opacity="1" /><path clip-path="url(#clip900)" d="M56.2912 933.776 L75.1974 933.776 L75.1974 939.665 L25.9905 939.665 L25.9905 933.776 L31.4013 933.776 Q28.2185 931.93 26.6907 929.129 Q25.1311 926.297 25.1311 922.382 Q25.1311 915.889 30.2873 911.847 Q35.4436 907.772 43.8463 907.772 Q52.249 907.772 57.4052 911.847 Q62.5615 915.889 62.5615 922.382 Q62.5615 926.297 61.0337 929.129 Q59.4741 931.93 56.2912 933.776 M43.8463 913.852 Q37.3851 913.852 33.7248 916.525 Q30.0327 919.167 30.0327 923.814 Q30.0327 928.461 33.7248 931.135 Q37.3851 933.776 43.8463 933.776 Q50.3075 933.776 53.9996 931.135 Q57.6599 928.461 57.6599 923.814 Q57.6599 919.167 53.9996 916.525 Q50.3075 913.852 43.8463 913.852 Z" fill="#000000" fill-rule="evenodd" fill-opacity="1" /><path clip-path="url(#clip900)" d="M15.869 871.552 L25.9905 871.552 L25.9905 859.489 L30.542 859.489 L30.542 871.552 L49.8937 871.552 Q54.2542 871.552 55.4955 870.374 Q56.7368 869.164 56.7368 865.504 L56.7368 859.489 L61.6384 859.489 L61.6384 865.504 Q61.6384 872.284 59.124 874.862 Q56.5777 877.44 49.8937 877.44 L30.542 877.44 L30.542 881.737 L25.9905 881.737 L25.9905 877.44 L15.869 877.44 L15.869 871.552 Z" fill="#000000" fill-rule="evenodd" fill-opacity="1" /><path clip-path="url(#clip900)" d="M25.9905 851.786 L25.9905 845.93 L61.6384 845.93 L61.6384 851.786 L25.9905 851.786 M12.1132 851.786 L12.1132 845.93 L19.5293 845.93 L19.5293 851.786 L12.1132 851.786 Z" fill="#000000" fill-rule="evenodd" fill-opacity="1" /><path clip-path="url(#clip900)" d="M32.8336 805.921 Q28.8869 803.725 27.009 800.669 Q25.1311 797.614 25.1311 793.476 Q25.1311 787.906 29.046 784.882 Q32.9291 781.859 40.1224 781.859 L61.6384 781.859 L61.6384 787.747 L40.3133 787.747 Q35.1889 787.747 32.7063 789.561 Q30.2237 791.376 30.2237 795.099 Q30.2237 799.651 33.2474 802.293 Q36.2711 804.934 41.491 804.934 L61.6384 804.934 L61.6384 810.823 L40.3133 810.823 Q35.1571 810.823 32.7063 812.637 Q30.2237 814.451 30.2237 818.239 Q30.2237 822.727 33.2792 825.368 Q36.3029 828.01 41.491 828.01 L61.6384 828.01 L61.6384 833.898 L25.9905 833.898 L25.9905 828.01 L31.5287 828.01 Q28.2503 826.005 26.6907 823.204 Q25.1311 820.403 25.1311 816.552 Q25.1311 812.669 27.1045 809.963 Q29.0779 807.226 32.8336 805.921 Z" fill="#000000" fill-rule="evenodd" fill-opacity="1" /><path clip-path="url(#clip900)" d="M42.3504 739.686 L45.2149 739.686 L45.2149 766.613 Q51.2623 766.231 54.4452 762.984 Q57.5962 759.706 57.5962 753.882 Q57.5962 750.508 56.7687 747.357 Q55.9411 744.174 54.2861 741.055 L59.8242 741.055 Q61.161 744.206 61.8612 747.516 Q62.5615 750.826 62.5615 754.232 Q62.5615 762.762 57.5962 767.759 Q52.631 772.724 44.1646 772.724 Q35.4117 772.724 30.2873 768.013 Q25.1311 763.271 25.1311 755.25 Q25.1311 748.057 29.7781 743.887 Q34.3932 739.686 42.3504 739.686 M40.6316 745.542 Q35.8255 745.606 32.9609 748.248 Q30.0964 750.858 30.0964 755.186 Q30.0964 760.088 32.8654 763.048 Q35.6345 765.976 40.6634 766.422 L40.6316 745.542 Z" fill="#000000" fill-rule="evenodd" fill-opacity="1" /><polyline clip-path="url(#clip902)" style="stroke:#009af9; stroke-linecap:round; stroke-linejoin:round; stroke-width:4; stroke-opacity:1; fill:none" points="321.29,818.035 482.315,812.823 643.136,828.27 803.348,874.769 962.144,982.506 1117.88,1215.4 1267.44,1686.38 1428.42,815.962 1598.87,94.9858 1764.04,497.04 1927.06,660.733 2089.15,731.874 2250.79,765.755 2412.15,787.161 2573.2,811.257 "/>
</svg>
