<?xml version="1.0" encoding="utf-8"?>
<svg xmlns="http://www.w3.org/2000/svg" xmlns:xlink="http://www.w3.org/1999/xlink" width="672" height="480" viewBox="0 0 2688 1920">
<defs>
  <clipPath id="clip420">
    <rect x="0" y="0" width="2688" height="1920"/>
  </clipPath>
</defs>
<path clip-path="url(#clip420)" d="M0 1920 L2688 1920 L2688 0 L0 0  Z" fill="#ffffff" fill-rule="evenodd" fill-opacity="1"/>
<defs>
  <clipPath id="clip421">
    <rect x="537" y="0" width="1883" height="1883"/>
  </clipPath>
</defs>
<path clip-path="url(#clip420)" d="M285.978 1734.12 L2640.76 1734.12 L2640.76 47.2441 L285.978 47.2441  Z" fill="#ffffff" fill-rule="evenodd" fill-opacity="1"/>
<defs>
  <clipPath id="clip422">
    <rect x="285" y="47" width="2356" height="1688"/>
  </clipPath>
</defs>
<polyline clip-path="url(#clip422)" style="stroke:#000000; stroke-linecap:round; stroke-linejoin:round; stroke-width:2; stroke-opacity:0.1; fill:none" points="352.623,1734.12 352.623,47.2441 "/>
<polyline clip-path="url(#clip422)" style="stroke:#000000; stroke-linecap:round; stroke-linejoin:round; stroke-width:2; stroke-opacity:0.1; fill:none" points="1069.65,1734.12 1069.65,47.2441 "/>
<polyline clip-path="url(#clip422)" style="stroke:#000000; stroke-linecap:round; stroke-linejoin:round; stroke-width:2; stroke-opacity:0.1; fill:none" points="1786.68,1734.12 1786.68,47.2441 "/>
<polyline clip-path="url(#clip422)" style="stroke:#000000; stroke-linecap:round; stroke-linejoin:round; stroke-width:2; stroke-opacity:0.1; fill:none" points="2503.71,1734.12 2503.71,47.2441 "/>
<polyline clip-path="url(#clip420)" style="stroke:#000000; stroke-linecap:round; stroke-linejoin:round; stroke-width:4; stroke-opacity:1; fill:none" points="285.978,1734.12 2640.76,1734.12 "/>
<polyline clip-path="url(#clip420)" style="stroke:#000000; stroke-linecap:round; stroke-linejoin:round; stroke-width:4; stroke-opacity:1; fill:none" points="352.623,1734.12 352.623,1715.22 "/>
<polyline clip-path="url(#clip420)" style="stroke:#000000; stroke-linecap:round; stroke-linejoin:round; stroke-width:4; stroke-opacity:1; fill:none" points="1069.65,1734.12 1069.65,1715.22 "/>
<polyline clip-path="url(#clip420)" style="stroke:#000000; stroke-linecap:round; stroke-linejoin:round; stroke-width:4; stroke-opacity:1; fill:none" points="1786.68,1734.12 1786.68,1715.22 "/>
<polyline clip-path="url(#clip420)" style="stroke:#000000; stroke-linecap:round; stroke-linejoin:round; stroke-width:4; stroke-opacity:1; fill:none" points="2503.71,1734.12 2503.71,1715.22 "/>
<path clip-path="url(#clip420)" d="M352.623 1767.34 Q349.012 1767.34 347.183 1770.9 Q345.378 1774.45 345.378 1781.58 Q345.378 1788.68 347.183 1792.25 Q349.012 1795.79 352.623 1795.79 Q356.257 1795.79 358.063 1792.25 Q359.891 1788.68 359.891 1781.58 Q359.891 1774.45 358.063 1770.9 Q356.257 1767.34 352.623 1767.34 M352.623 1763.64 Q358.433 1763.64 361.489 1768.24 Q364.567 1772.83 364.567 1781.58 Q364.567 1790.3 361.489 1794.91 Q358.433 1799.49 352.623 1799.49 Q346.813 1799.49 343.734 1794.91 Q340.678 1790.3 340.678 1781.58 Q340.678 1772.83 343.734 1768.24 Q346.813 1763.64 352.623 1763.64 Z" fill="#000000" fill-rule="evenodd" fill-opacity="1" /><path clip-path="url(#clip420)" d="M1044.34 1794.89 L1051.98 1794.89 L1051.98 1768.52 L1043.67 1770.19 L1043.67 1765.93 L1051.93 1764.26 L1056.61 1764.26 L1056.61 1794.89 L1064.25 1794.89 L1064.25 1798.82 L1044.34 1798.82 L1044.34 1794.89 Z" fill="#000000" fill-rule="evenodd" fill-opacity="1" /><path clip-path="url(#clip420)" d="M1083.69 1767.34 Q1080.08 1767.34 1078.25 1770.9 Q1076.45 1774.45 1076.45 1781.58 Q1076.45 1788.68 1078.25 1792.25 Q1080.08 1795.79 1083.69 1795.79 Q1087.33 1795.79 1089.13 1792.25 Q1090.96 1788.68 1090.96 1781.58 Q1090.96 1774.45 1089.13 1770.9 Q1087.33 1767.34 1083.69 1767.34 M1083.69 1763.64 Q1089.5 1763.64 1092.56 1768.24 Q1095.64 1772.83 1095.64 1781.58 Q1095.64 1790.3 1092.56 1794.91 Q1089.5 1799.49 1083.69 1799.49 Q1077.88 1799.49 1074.8 1794.91 Q1071.75 1790.3 1071.75 1781.58 Q1071.75 1772.83 1074.8 1768.24 Q1077.88 1763.64 1083.69 1763.64 Z" fill="#000000" fill-rule="evenodd" fill-opacity="1" /><path clip-path="url(#clip420)" d="M1765.46 1794.89 L1781.78 1794.89 L1781.78 1798.82 L1759.83 1798.82 L1759.83 1794.89 Q1762.49 1792.13 1767.08 1787.5 Q1771.68 1782.85 1772.86 1781.51 Q1775.11 1778.98 1775.99 1777.25 Q1776.89 1775.49 1776.89 1773.8 Q1776.89 1771.04 1774.95 1769.31 Q1773.03 1767.57 1769.92 1767.57 Q1767.73 1767.57 1765.27 1768.34 Q1762.84 1769.1 1760.06 1770.65 L1760.06 1765.93 Q1762.89 1764.79 1765.34 1764.21 Q1767.79 1763.64 1769.83 1763.64 Q1775.2 1763.64 1778.4 1766.32 Q1781.59 1769.01 1781.59 1773.5 Q1781.59 1775.63 1780.78 1777.55 Q1779.99 1779.45 1777.89 1782.04 Q1777.31 1782.71 1774.21 1785.93 Q1771.1 1789.12 1765.46 1794.89 Z" fill="#000000" fill-rule="evenodd" fill-opacity="1" /><path clip-path="url(#clip420)" d="M1801.59 1767.34 Q1797.98 1767.34 1796.15 1770.9 Q1794.35 1774.45 1794.35 1781.58 Q1794.35 1788.68 1796.15 1792.25 Q1797.98 1795.79 1801.59 1795.79 Q1805.22 1795.79 1807.03 1792.25 Q1808.86 1788.68 1808.86 1781.58 Q1808.86 1774.45 1807.03 1770.9 Q1805.22 1767.34 1801.59 1767.34 M1801.59 1763.64 Q1807.4 1763.64 1810.46 1768.24 Q1813.53 1772.83 1813.53 1781.58 Q1813.53 1790.3 1810.46 1794.91 Q1807.4 1799.49 1801.59 1799.49 Q1795.78 1799.49 1792.7 1794.91 Q1789.65 1790.3 1789.65 1781.58 Q1789.65 1772.83 1792.7 1768.24 Q1795.78 1763.64 1801.59 1763.64 Z" fill="#000000" fill-rule="evenodd" fill-opacity="1" /><path clip-path="url(#clip420)" d="M2492.56 1780.19 Q2495.91 1780.9 2497.79 1783.17 Q2499.69 1785.44 2499.69 1788.77 Q2499.69 1793.89 2496.17 1796.69 Q2492.65 1799.49 2486.17 1799.49 Q2483.99 1799.49 2481.68 1799.05 Q2479.38 1798.64 2476.93 1797.78 L2476.93 1793.27 Q2478.88 1794.4 2481.19 1794.98 Q2483.51 1795.56 2486.03 1795.56 Q2490.43 1795.56 2492.72 1793.82 Q2495.03 1792.08 2495.03 1788.77 Q2495.03 1785.72 2492.88 1784.01 Q2490.75 1782.27 2486.93 1782.27 L2482.9 1782.27 L2482.9 1778.43 L2487.12 1778.43 Q2490.57 1778.43 2492.39 1777.06 Q2494.22 1775.67 2494.22 1773.08 Q2494.22 1770.42 2492.32 1769.01 Q2490.45 1767.57 2486.93 1767.57 Q2485.01 1767.57 2482.81 1767.99 Q2480.61 1768.4 2477.97 1769.28 L2477.97 1765.12 Q2480.63 1764.38 2482.95 1764.01 Q2485.29 1763.64 2487.35 1763.64 Q2492.67 1763.64 2495.77 1766.07 Q2498.88 1768.47 2498.88 1772.59 Q2498.88 1775.46 2497.23 1777.46 Q2495.59 1779.42 2492.56 1780.19 Z" fill="#000000" fill-rule="evenodd" fill-opacity="1" /><path clip-path="url(#clip420)" d="M2518.55 1767.34 Q2514.94 1767.34 2513.11 1770.9 Q2511.31 1774.45 2511.31 1781.58 Q2511.31 1788.68 2513.11 1792.25 Q2514.94 1795.79 2518.55 1795.79 Q2522.19 1795.79 2523.99 1792.25 Q2525.82 1788.68 2525.82 1781.58 Q2525.82 1774.45 2523.99 1770.9 Q2522.19 1767.34 2518.55 1767.34 M2518.55 1763.64 Q2524.36 1763.64 2527.42 1768.24 Q2530.5 1772.83 2530.5 1781.58 Q2530.5 1790.3 2527.42 1794.91 Q2524.36 1799.49 2518.55 1799.49 Q2512.74 1799.49 2509.66 1794.91 Q2506.61 1790.3 2506.61 1781.58 Q2506.61 1772.83 2509.66 1768.24 Q2512.74 1763.64 2518.55 1763.64 Z" fill="#000000" fill-rule="evenodd" fill-opacity="1" /><path clip-path="url(#clip420)" d="M1402.53 1837.53 L1402.53 1847.65 L1414.59 1847.65 L1414.59 1852.2 L1402.53 1852.2 L1402.53 1871.56 Q1402.53 1875.92 1403.7 1877.16 Q1404.91 1878.4 1408.57 1878.4 L1414.59 1878.4 L1414.59 1883.3 L1408.57 1883.3 Q1401.79 1883.3 1399.22 1880.79 Q1396.64 1878.24 1396.64 1871.56 L1396.64 1852.2 L1392.34 1852.2 L1392.34 1847.65 L1396.64 1847.65 L1396.64 1837.53 L1402.53 1837.53 Z" fill="#000000" fill-rule="evenodd" fill-opacity="1" /><path clip-path="url(#clip420)" d="M1422.29 1847.65 L1428.15 1847.65 L1428.15 1883.3 L1422.29 1883.3 L1422.29 1847.65 M1422.29 1833.78 L1428.15 1833.78 L1428.15 1841.19 L1422.29 1841.19 L1422.29 1833.78 Z" fill="#000000" fill-rule="evenodd" fill-opacity="1" /><path clip-path="url(#clip420)" d="M1468.16 1854.5 Q1470.35 1850.55 1473.41 1848.67 Q1476.46 1846.79 1480.6 1846.79 Q1486.17 1846.79 1489.2 1850.71 Q1492.22 1854.59 1492.22 1861.78 L1492.22 1883.3 L1486.33 1883.3 L1486.33 1861.98 Q1486.33 1856.85 1484.52 1854.37 Q1482.7 1851.89 1478.98 1851.89 Q1474.43 1851.89 1471.79 1854.91 Q1469.14 1857.93 1469.14 1863.15 L1469.14 1883.3 L1463.26 1883.3 L1463.26 1861.98 Q1463.26 1856.82 1461.44 1854.37 Q1459.63 1851.89 1455.84 1851.89 Q1451.35 1851.89 1448.71 1854.94 Q1446.07 1857.97 1446.07 1863.15 L1446.07 1883.3 L1440.18 1883.3 L1440.18 1847.65 L1446.07 1847.65 L1446.07 1853.19 Q1448.07 1849.91 1450.87 1848.35 Q1453.68 1846.79 1457.53 1846.79 Q1461.41 1846.79 1464.12 1848.77 Q1466.85 1850.74 1468.16 1854.5 Z" fill="#000000" fill-rule="evenodd" fill-opacity="1" /><path clip-path="url(#clip420)" d="M1534.39 1864.01 L1534.39 1866.88 L1507.47 1866.88 Q1507.85 1872.92 1511.09 1876.11 Q1514.37 1879.26 1520.2 1879.26 Q1523.57 1879.26 1526.72 1878.43 Q1529.9 1877.6 1533.02 1875.95 L1533.02 1881.49 Q1529.87 1882.82 1526.56 1883.52 Q1523.25 1884.22 1519.85 1884.22 Q1511.32 1884.22 1506.32 1879.26 Q1501.35 1874.29 1501.35 1865.83 Q1501.35 1857.07 1506.07 1851.95 Q1510.81 1846.79 1518.83 1846.79 Q1526.02 1846.79 1530.19 1851.44 Q1534.39 1856.06 1534.39 1864.01 M1528.54 1862.29 Q1528.47 1857.49 1525.83 1854.62 Q1523.22 1851.76 1518.89 1851.76 Q1513.99 1851.76 1511.03 1854.53 Q1508.1 1857.3 1507.66 1862.33 L1528.54 1862.29 Z" fill="#000000" fill-rule="evenodd" fill-opacity="1" /><polyline clip-path="url(#clip422)" style="stroke:#000000; stroke-linecap:round; stroke-linejoin:round; stroke-width:2; stroke-opacity:0.1; fill:none" points="285.978,1684.43 2640.76,1684.43 "/>
<polyline clip-path="url(#clip422)" style="stroke:#000000; stroke-linecap:round; stroke-linejoin:round; stroke-width:2; stroke-opacity:0.1; fill:none" points="285.978,1277.09 2640.76,1277.09 "/>
<polyline clip-path="url(#clip422)" style="stroke:#000000; stroke-linecap:round; stroke-linejoin:round; stroke-width:2; stroke-opacity:0.1; fill:none" points="285.978,869.746 2640.76,869.746 "/>
<polyline clip-path="url(#clip422)" style="stroke:#000000; stroke-linecap:round; stroke-linejoin:round; stroke-width:2; stroke-opacity:0.1; fill:none" points="285.978,462.404 2640.76,462.404 "/>
<polyline clip-path="url(#clip422)" style="stroke:#000000; stroke-linecap:round; stroke-linejoin:round; stroke-width:2; stroke-opacity:0.1; fill:none" points="285.978,55.0617 2640.76,55.0617 "/>
<polyline clip-path="url(#clip420)" style="stroke:#000000; stroke-linecap:round; stroke-linejoin:round; stroke-width:4; stroke-opacity:1; fill:none" points="285.978,1734.12 285.978,47.2441 "/>
<polyline clip-path="url(#clip420)" style="stroke:#000000; stroke-linecap:round; stroke-linejoin:round; stroke-width:4; stroke-opacity:1; fill:none" points="285.978,1684.43 304.876,1684.43 "/>
<polyline clip-path="url(#clip420)" style="stroke:#000000; stroke-linecap:round; stroke-linejoin:round; stroke-width:4; stroke-opacity:1; fill:none" points="285.978,1277.09 304.876,1277.09 "/>
<polyline clip-path="url(#clip420)" style="stroke:#000000; stroke-linecap:round; stroke-linejoin:round; stroke-width:4; stroke-opacity:1; fill:none" points="285.978,869.746 304.876,869.746 "/>
<polyline clip-path="url(#clip420)" style="stroke:#000000; stroke-linecap:round; stroke-linejoin:round; stroke-width:4; stroke-opacity:1; fill:none" points="285.978,462.404 304.876,462.404 "/>
<polyline clip-path="url(#clip420)" style="stroke:#000000; stroke-linecap:round; stroke-linejoin:round; stroke-width:4; stroke-opacity:1; fill:none" points="285.978,55.0617 304.876,55.0617 "/>
<path clip-path="url(#clip420)" d="M128.159 1670.23 Q124.548 1670.23 122.719 1673.79 Q120.913 1677.33 120.913 1684.46 Q120.913 1691.57 122.719 1695.14 Q124.548 1698.68 128.159 1698.68 Q131.793 1698.68 133.599 1695.14 Q135.427 1691.57 135.427 1684.46 Q135.427 1677.33 133.599 1673.79 Q131.793 1670.23 128.159 1670.23 M128.159 1666.52 Q133.969 1666.52 137.025 1671.13 Q140.103 1675.71 140.103 1684.46 Q140.103 1693.19 137.025 1697.8 Q133.969 1702.38 128.159 1702.38 Q122.349 1702.38 119.27 1697.8 Q116.214 1693.19 116.214 1684.46 Q116.214 1675.71 119.27 1671.13 Q122.349 1666.52 128.159 1666.52 Z" fill="#000000" fill-rule="evenodd" fill-opacity="1" /><path clip-path="url(#clip420)" d="M148.321 1695.83 L153.205 1695.83 L153.205 1701.71 L148.321 1701.71 L148.321 1695.83 Z" fill="#000000" fill-rule="evenodd" fill-opacity="1" /><path clip-path="url(#clip420)" d="M176.237 1671.22 L164.432 1689.67 L176.237 1689.67 L176.237 1671.22 M175.01 1667.15 L180.89 1667.15 L180.89 1689.67 L185.821 1689.67 L185.821 1693.56 L180.89 1693.56 L180.89 1701.71 L176.237 1701.71 L176.237 1693.56 L160.636 1693.56 L160.636 1689.05 L175.01 1667.15 Z" fill="#000000" fill-rule="evenodd" fill-opacity="1" /><path clip-path="url(#clip420)" d="M203.552 1670.23 Q199.941 1670.23 198.112 1673.79 Q196.307 1677.33 196.307 1684.46 Q196.307 1691.57 198.112 1695.14 Q199.941 1698.68 203.552 1698.68 Q207.186 1698.68 208.992 1695.14 Q210.82 1691.57 210.82 1684.46 Q210.82 1677.33 208.992 1673.79 Q207.186 1670.23 203.552 1670.23 M203.552 1666.52 Q209.362 1666.52 212.418 1671.13 Q215.496 1675.71 215.496 1684.46 Q215.496 1693.19 212.418 1697.8 Q209.362 1702.38 203.552 1702.38 Q197.742 1702.38 194.663 1697.8 Q191.608 1693.19 191.608 1684.46 Q191.608 1675.71 194.663 1671.13 Q197.742 1666.52 203.552 1666.52 Z" fill="#000000" fill-rule="evenodd" fill-opacity="1" /><path clip-path="url(#clip420)" d="M233.714 1670.23 Q230.103 1670.23 228.274 1673.79 Q226.468 1677.33 226.468 1684.46 Q226.468 1691.57 228.274 1695.14 Q230.103 1698.68 233.714 1698.68 Q237.348 1698.68 239.154 1695.14 Q240.982 1691.57 240.982 1684.46 Q240.982 1677.33 239.154 1673.79 Q237.348 1670.23 233.714 1670.23 M233.714 1666.52 Q239.524 1666.52 242.58 1671.13 Q245.658 1675.71 245.658 1684.46 Q245.658 1693.19 242.58 1697.8 Q239.524 1702.38 233.714 1702.38 Q227.904 1702.38 224.825 1697.8 Q221.769 1693.19 221.769 1684.46 Q221.769 1675.71 224.825 1671.13 Q227.904 1666.52 233.714 1666.52 Z" fill="#000000" fill-rule="evenodd" fill-opacity="1" /><path clip-path="url(#clip420)" d="M129.154 1262.89 Q125.543 1262.89 123.714 1266.45 Q121.909 1269.99 121.909 1277.12 Q121.909 1284.23 123.714 1287.79 Q125.543 1291.34 129.154 1291.34 Q132.788 1291.34 134.594 1287.79 Q136.423 1284.23 136.423 1277.12 Q136.423 1269.99 134.594 1266.45 Q132.788 1262.89 129.154 1262.89 M129.154 1259.18 Q134.964 1259.18 138.02 1263.79 Q141.099 1268.37 141.099 1277.12 Q141.099 1285.85 138.02 1290.46 Q134.964 1295.04 129.154 1295.04 Q123.344 1295.04 120.265 1290.46 Q117.21 1285.85 117.21 1277.12 Q117.21 1268.37 120.265 1263.79 Q123.344 1259.18 129.154 1259.18 Z" fill="#000000" fill-rule="evenodd" fill-opacity="1" /><path clip-path="url(#clip420)" d="M149.316 1288.49 L154.2 1288.49 L154.2 1294.37 L149.316 1294.37 L149.316 1288.49 Z" fill="#000000" fill-rule="evenodd" fill-opacity="1" /><path clip-path="url(#clip420)" d="M177.233 1263.88 L165.427 1282.33 L177.233 1282.33 L177.233 1263.88 M176.006 1259.81 L181.885 1259.81 L181.885 1282.33 L186.816 1282.33 L186.816 1286.22 L181.885 1286.22 L181.885 1294.37 L177.233 1294.37 L177.233 1286.22 L161.631 1286.22 L161.631 1281.71 L176.006 1259.81 Z" fill="#000000" fill-rule="evenodd" fill-opacity="1" /><path clip-path="url(#clip420)" d="M198.575 1290.43 L214.894 1290.43 L214.894 1294.37 L192.95 1294.37 L192.95 1290.43 Q195.612 1287.68 200.195 1283.05 Q204.802 1278.4 205.982 1277.05 Q208.228 1274.53 209.107 1272.79 Q210.01 1271.03 210.01 1269.34 Q210.01 1266.59 208.066 1264.85 Q206.145 1263.12 203.043 1263.12 Q200.844 1263.12 198.39 1263.88 Q195.959 1264.65 193.182 1266.2 L193.182 1261.47 Q196.006 1260.34 198.459 1259.76 Q200.913 1259.18 202.95 1259.18 Q208.32 1259.18 211.515 1261.87 Q214.709 1264.55 214.709 1269.04 Q214.709 1271.17 213.899 1273.09 Q213.112 1274.99 211.006 1277.59 Q210.427 1278.26 207.325 1281.47 Q204.223 1284.67 198.575 1290.43 Z" fill="#000000" fill-rule="evenodd" fill-opacity="1" /><path clip-path="url(#clip420)" d="M224.756 1259.81 L243.112 1259.81 L243.112 1263.74 L229.038 1263.74 L229.038 1272.21 Q230.056 1271.87 231.075 1271.71 Q232.093 1271.52 233.112 1271.52 Q238.899 1271.52 242.279 1274.69 Q245.658 1277.86 245.658 1283.28 Q245.658 1288.86 242.186 1291.96 Q238.714 1295.04 232.394 1295.04 Q230.218 1295.04 227.95 1294.67 Q225.705 1294.3 223.297 1293.56 L223.297 1288.86 Q225.381 1289.99 227.603 1290.55 Q229.825 1291.1 232.302 1291.1 Q236.306 1291.1 238.644 1289 Q240.982 1286.89 240.982 1283.28 Q240.982 1279.67 238.644 1277.56 Q236.306 1275.46 232.302 1275.46 Q230.427 1275.46 228.552 1275.87 Q226.7 1276.29 224.756 1277.17 L224.756 1259.81 Z" fill="#000000" fill-rule="evenodd" fill-opacity="1" /><path clip-path="url(#clip420)" d="M128.159 855.544 Q124.548 855.544 122.719 859.109 Q120.913 862.651 120.913 869.78 Q120.913 876.887 122.719 880.452 Q124.548 883.993 128.159 883.993 Q131.793 883.993 133.599 880.452 Q135.427 876.887 135.427 869.78 Q135.427 862.651 133.599 859.109 Q131.793 855.544 128.159 855.544 M128.159 851.841 Q133.969 851.841 137.025 856.447 Q140.103 861.03 140.103 869.78 Q140.103 878.507 137.025 883.114 Q133.969 887.697 128.159 887.697 Q122.349 887.697 119.27 883.114 Q116.214 878.507 116.214 869.78 Q116.214 861.03 119.27 856.447 Q122.349 851.841 128.159 851.841 Z" fill="#000000" fill-rule="evenodd" fill-opacity="1" /><path clip-path="url(#clip420)" d="M148.321 881.146 L153.205 881.146 L153.205 887.026 L148.321 887.026 L148.321 881.146 Z" fill="#000000" fill-rule="evenodd" fill-opacity="1" /><path clip-path="url(#clip420)" d="M176.237 856.54 L164.432 874.989 L176.237 874.989 L176.237 856.54 M175.01 852.466 L180.89 852.466 L180.89 874.989 L185.821 874.989 L185.821 878.877 L180.89 878.877 L180.89 887.026 L176.237 887.026 L176.237 878.877 L160.636 878.877 L160.636 874.364 L175.01 852.466 Z" fill="#000000" fill-rule="evenodd" fill-opacity="1" /><path clip-path="url(#clip420)" d="M193.598 852.466 L211.955 852.466 L211.955 856.401 L197.881 856.401 L197.881 864.873 Q198.899 864.526 199.918 864.364 Q200.936 864.178 201.955 864.178 Q207.742 864.178 211.121 867.35 Q214.501 870.521 214.501 875.938 Q214.501 881.516 211.029 884.618 Q207.557 887.697 201.237 887.697 Q199.061 887.697 196.793 887.327 Q194.547 886.956 192.14 886.215 L192.14 881.516 Q194.223 882.651 196.445 883.206 Q198.668 883.762 201.145 883.762 Q205.149 883.762 207.487 881.655 Q209.825 879.549 209.825 875.938 Q209.825 872.327 207.487 870.22 Q205.149 868.114 201.145 868.114 Q199.27 868.114 197.395 868.53 Q195.543 868.947 193.598 869.827 L193.598 852.466 Z" fill="#000000" fill-rule="evenodd" fill-opacity="1" /><path clip-path="url(#clip420)" d="M233.714 855.544 Q230.103 855.544 228.274 859.109 Q226.468 862.651 226.468 869.78 Q226.468 876.887 228.274 880.452 Q230.103 883.993 233.714 883.993 Q237.348 883.993 239.154 880.452 Q240.982 876.887 240.982 869.78 Q240.982 862.651 239.154 859.109 Q237.348 855.544 233.714 855.544 M233.714 851.841 Q239.524 851.841 242.58 856.447 Q245.658 861.03 245.658 869.78 Q245.658 878.507 242.58 883.114 Q239.524 887.697 233.714 887.697 Q227.904 887.697 224.825 883.114 Q221.769 878.507 221.769 869.78 Q221.769 861.03 224.825 856.447 Q227.904 851.841 233.714 851.841 Z" fill="#000000" fill-rule="evenodd" fill-opacity="1" /><path clip-path="url(#clip420)" d="M129.154 448.202 Q125.543 448.202 123.714 451.767 Q121.909 455.309 121.909 462.438 Q121.909 469.545 123.714 473.11 Q125.543 476.651 129.154 476.651 Q132.788 476.651 134.594 473.11 Q136.423 469.545 136.423 462.438 Q136.423 455.309 134.594 451.767 Q132.788 448.202 129.154 448.202 M129.154 444.499 Q134.964 444.499 138.02 449.105 Q141.099 453.688 141.099 462.438 Q141.099 471.165 138.02 475.772 Q134.964 480.355 129.154 480.355 Q123.344 480.355 120.265 475.772 Q117.21 471.165 117.21 462.438 Q117.21 453.688 120.265 449.105 Q123.344 444.499 129.154 444.499 Z" fill="#000000" fill-rule="evenodd" fill-opacity="1" /><path clip-path="url(#clip420)" d="M149.316 473.804 L154.2 473.804 L154.2 479.684 L149.316 479.684 L149.316 473.804 Z" fill="#000000" fill-rule="evenodd" fill-opacity="1" /><path clip-path="url(#clip420)" d="M177.233 449.198 L165.427 467.647 L177.233 467.647 L177.233 449.198 M176.006 445.124 L181.885 445.124 L181.885 467.647 L186.816 467.647 L186.816 471.536 L181.885 471.536 L181.885 479.684 L177.233 479.684 L177.233 471.536 L161.631 471.536 L161.631 467.022 L176.006 445.124 Z" fill="#000000" fill-rule="evenodd" fill-opacity="1" /><path clip-path="url(#clip420)" d="M193.367 445.124 L215.589 445.124 L215.589 447.114 L203.043 479.684 L198.158 479.684 L209.964 449.059 L193.367 449.059 L193.367 445.124 Z" fill="#000000" fill-rule="evenodd" fill-opacity="1" /><path clip-path="url(#clip420)" d="M224.756 445.124 L243.112 445.124 L243.112 449.059 L229.038 449.059 L229.038 457.531 Q230.056 457.184 231.075 457.022 Q232.093 456.837 233.112 456.837 Q238.899 456.837 242.279 460.008 Q245.658 463.179 245.658 468.596 Q245.658 474.174 242.186 477.276 Q238.714 480.355 232.394 480.355 Q230.218 480.355 227.95 479.985 Q225.705 479.614 223.297 478.873 L223.297 474.174 Q225.381 475.309 227.603 475.864 Q229.825 476.42 232.302 476.42 Q236.306 476.42 238.644 474.313 Q240.982 472.207 240.982 468.596 Q240.982 464.985 238.644 462.878 Q236.306 460.772 232.302 460.772 Q230.427 460.772 228.552 461.188 Q226.7 461.605 224.756 462.485 L224.756 445.124 Z" fill="#000000" fill-rule="evenodd" fill-opacity="1" /><path clip-path="url(#clip420)" d="M128.159 40.8604 Q124.548 40.8604 122.719 44.4252 Q120.913 47.9668 120.913 55.0964 Q120.913 62.2029 122.719 65.7677 Q124.548 69.3093 128.159 69.3093 Q131.793 69.3093 133.599 65.7677 Q135.427 62.2029 135.427 55.0964 Q135.427 47.9668 133.599 44.4252 Q131.793 40.8604 128.159 40.8604 M128.159 37.1567 Q133.969 37.1567 137.025 41.7632 Q140.103 46.3465 140.103 55.0964 Q140.103 63.8232 137.025 68.4297 Q133.969 73.013 128.159 73.013 Q122.349 73.013 119.27 68.4297 Q116.214 63.8232 116.214 55.0964 Q116.214 46.3465 119.27 41.7632 Q122.349 37.1567 128.159 37.1567 Z" fill="#000000" fill-rule="evenodd" fill-opacity="1" /><path clip-path="url(#clip420)" d="M148.321 66.4621 L153.205 66.4621 L153.205 72.3417 L148.321 72.3417 L148.321 66.4621 Z" fill="#000000" fill-rule="evenodd" fill-opacity="1" /><path clip-path="url(#clip420)" d="M163.436 37.7817 L181.793 37.7817 L181.793 41.7169 L167.719 41.7169 L167.719 50.189 Q168.737 49.8418 169.756 49.6798 Q170.774 49.4946 171.793 49.4946 Q177.58 49.4946 180.959 52.6659 Q184.339 55.8372 184.339 61.2538 Q184.339 66.8325 180.867 69.9343 Q177.395 73.013 171.075 73.013 Q168.899 73.013 166.631 72.6426 Q164.385 72.2722 161.978 71.5315 L161.978 66.8325 Q164.061 67.9667 166.284 68.5223 Q168.506 69.0778 170.983 69.0778 Q174.987 69.0778 177.325 66.9714 Q179.663 64.8649 179.663 61.2538 Q179.663 57.6427 177.325 55.5362 Q174.987 53.4298 170.983 53.4298 Q169.108 53.4298 167.233 53.8464 Q165.381 54.2631 163.436 55.1427 L163.436 37.7817 Z" fill="#000000" fill-rule="evenodd" fill-opacity="1" /><path clip-path="url(#clip420)" d="M203.552 40.8604 Q199.941 40.8604 198.112 44.4252 Q196.307 47.9668 196.307 55.0964 Q196.307 62.2029 198.112 65.7677 Q199.941 69.3093 203.552 69.3093 Q207.186 69.3093 208.992 65.7677 Q210.82 62.2029 210.82 55.0964 Q210.82 47.9668 208.992 44.4252 Q207.186 40.8604 203.552 40.8604 M203.552 37.1567 Q209.362 37.1567 212.418 41.7632 Q215.496 46.3465 215.496 55.0964 Q215.496 63.8232 212.418 68.4297 Q209.362 73.013 203.552 73.013 Q197.742 73.013 194.663 68.4297 Q191.608 63.8232 191.608 55.0964 Q191.608 46.3465 194.663 41.7632 Q197.742 37.1567 203.552 37.1567 Z" fill="#000000" fill-rule="evenodd" fill-opacity="1" /><path clip-path="url(#clip420)" d="M233.714 40.8604 Q230.103 40.8604 228.274 44.4252 Q226.468 47.9668 226.468 55.0964 Q226.468 62.2029 228.274 65.7677 Q230.103 69.3093 233.714 69.3093 Q237.348 69.3093 239.154 65.7677 Q240.982 62.2029 240.982 55.0964 Q240.982 47.9668 239.154 44.4252 Q237.348 40.8604 233.714 40.8604 M233.714 37.1567 Q239.524 37.1567 242.58 41.7632 Q245.658 46.3465 245.658 55.0964 Q245.658 63.8232 242.58 68.4297 Q239.524 73.013 233.714 73.013 Q227.904 73.013 224.825 68.4297 Q221.769 63.8232 221.769 55.0964 Q221.769 46.3465 224.825 41.7632 Q227.904 37.1567 233.714 37.1567 Z" fill="#000000" fill-rule="evenodd" fill-opacity="1" /><path clip-path="url(#clip420)" d="M27.0408 959.08 L32.579 959.08 Q31.3059 961.563 30.6693 964.236 Q30.0327 966.91 30.0327 969.774 Q30.0327 974.135 31.3695 976.331 Q32.7063 978.495 35.3799 978.495 Q37.4169 978.495 38.5946 976.936 Q39.7404 975.376 40.7908 970.666 L41.2364 968.66 Q42.5732 962.422 45.0239 959.812 Q47.4429 957.17 51.8034 957.17 Q56.7687 957.17 59.6651 961.117 Q62.5615 965.032 62.5615 971.907 Q62.5615 974.772 61.9886 977.891 Q61.4475 980.978 60.3335 984.416 L54.2861 984.416 Q55.973 981.169 56.8323 978.018 Q57.6599 974.867 57.6599 971.78 Q57.6599 967.642 56.2594 965.414 Q54.8271 963.186 52.249 963.186 Q49.8619 963.186 48.5887 964.809 Q47.3156 966.401 46.1379 971.843 L45.6605 973.88 Q44.5147 979.323 42.1594 981.742 Q39.7722 984.161 35.6345 984.161 Q30.6056 984.161 27.8684 980.596 Q25.1311 977.031 25.1311 970.475 Q25.1311 967.228 25.6085 964.364 Q26.086 961.499 27.0408 959.08 Z" fill="#000000" fill-rule="evenodd" fill-opacity="1" /><path clip-path="url(#clip420)" d="M56.2912 942.179 L75.1974 942.179 L75.1974 948.067 L25.9905 948.067 L25.9905 942.179 L31.4013 942.179 Q28.2185 940.333 26.6907 937.532 Q25.1311 934.699 25.1311 930.784 Q25.1311 924.291 30.2873 920.249 Q35.4436 916.175 43.8463 916.175 Q52.249 916.175 57.4052 920.249 Q62.5615 924.291 62.5615 930.784 Q62.5615 934.699 61.0337 937.532 Q59.4741 940.333 56.2912 942.179 M43.8463 922.254 Q37.3851 922.254 33.7248 924.928 Q30.0327 927.57 30.0327 932.217 Q30.0327 936.864 33.7248 939.537 Q37.3851 942.179 43.8463 942.179 Q50.3075 942.179 53.9996 939.537 Q57.6599 936.864 57.6599 932.217 Q57.6599 927.57 53.9996 924.928 Q50.3075 922.254 43.8463 922.254 Z" fill="#000000" fill-rule="evenodd" fill-opacity="1" /><path clip-path="url(#clip420)" d="M42.3504 875.976 L45.2149 875.976 L45.2149 902.903 Q51.2623 902.521 54.4452 899.274 Q57.5962 895.996 57.5962 890.171 Q57.5962 886.797 56.7687 883.646 Q55.9411 880.464 54.2861 877.344 L59.8242 877.344 Q61.161 880.495 61.8612 883.806 Q62.5615 887.116 62.5615 890.521 Q62.5615 899.051 57.5962 904.049 Q52.631 909.014 44.1646 909.014 Q35.4117 909.014 30.2873 904.303 Q25.1311 899.561 25.1311 891.54 Q25.1311 884.347 29.7781 880.177 Q34.3932 875.976 42.3504 875.976 M40.6316 881.832 Q35.8255 881.896 32.9609 884.538 Q30.0964 887.148 30.0964 891.476 Q30.0964 896.378 32.8654 899.338 Q35.6345 902.266 40.6634 902.712 L40.6316 881.832 Z" fill="#000000" fill-rule="evenodd" fill-opacity="1" /><path clip-path="url(#clip420)" d="M42.3504 835.872 L45.2149 835.872 L45.2149 862.799 Q51.2623 862.417 54.4452 859.17 Q57.5962 855.892 57.5962 850.067 Q57.5962 846.694 56.7687 843.542 Q55.9411 840.36 54.2861 837.24 L59.8242 837.24 Q61.161 840.391 61.8612 843.702 Q62.5615 847.012 62.5615 850.417 Q62.5615 858.947 57.5962 863.945 Q52.631 868.91 44.1646 868.91 Q35.4117 868.91 30.2873 864.199 Q25.1311 859.457 25.1311 851.436 Q25.1311 844.243 29.7781 840.073 Q34.3932 835.872 42.3504 835.872 M40.6316 841.728 Q35.8255 841.792 32.9609 844.434 Q30.0964 847.044 30.0964 851.372 Q30.0964 856.274 32.8654 859.234 Q35.6345 862.162 40.6634 862.608 L40.6316 841.728 Z" fill="#000000" fill-rule="evenodd" fill-opacity="1" /><path clip-path="url(#clip420)" d="M31.4013 802.802 L12.1132 802.802 L12.1132 796.946 L61.6384 796.946 L61.6384 802.802 L56.2912 802.802 Q59.4741 804.648 61.0337 807.481 Q62.5615 810.282 62.5615 814.228 Q62.5615 820.69 57.4052 824.764 Q52.249 828.806 43.8463 828.806 Q35.4436 828.806 30.2873 824.764 Q25.1311 820.69 25.1311 814.228 Q25.1311 810.282 26.6907 807.481 Q28.2185 804.648 31.4013 802.802 M43.8463 822.758 Q50.3075 822.758 53.9996 820.117 Q57.6599 817.443 57.6599 812.796 Q57.6599 808.149 53.9996 805.476 Q50.3075 802.802 43.8463 802.802 Q37.3851 802.802 33.7248 805.476 Q30.0327 808.149 30.0327 812.796 Q30.0327 817.443 33.7248 820.117 Q37.3851 822.758 43.8463 822.758 Z" fill="#000000" fill-rule="evenodd" fill-opacity="1" /><polyline clip-path="url(#clip422)" style="stroke:#009af9; stroke-linecap:round; stroke-linejoin:round; stroke-width:4; stroke-opacity:1; fill:none" points="352.623,1011.57 567.732,1011.57 687.223,1022.16 806.765,1019.1 926.156,1000.27 1045.09,952.71 1162.98,844.285 1278.6,605.065 1389.63,94.9858 1509.14,1686.38 1635.68,1317.74 1758.3,1161.75 1879.32,1093.5 1999.65,1062.3 2119.65,1045.72 2239.45,1032.02 2359,1011.57 2574.11,1011.57 "/>
<circle clip-path="url(#clip422)" cx="352.623" cy="1011.57" r="14.4" fill="#009af9" fill-rule="evenodd" fill-opacity="0.2" stroke="#000000" stroke-opacity="0.2" stroke-width="3.84"/>
<circle clip-path="url(#clip422)" cx="567.732" cy="1011.57" r="14.4" fill="#009af9" fill-rule="evenodd" fill-opacity="0.2" stroke="#000000" stroke-opacity="0.2" stroke-width="3.84"/>
<circle clip-path="url(#clip422)" cx="687.223" cy="1022.16" r="14.4" fill="#009af9" fill-rule="evenodd" fill-opacity="0.2" stroke="#000000" stroke-opacity="0.2" stroke-width="3.84"/>
<circle clip-path="url(#clip422)" cx="806.765" cy="1019.1" r="14.4" fill="#009af9" fill-rule="evenodd" fill-opacity="0.2" stroke="#000000" stroke-opacity="0.2" stroke-width="3.84"/>
<circle clip-path="url(#clip422)" cx="926.156" cy="1000.27" r="14.4" fill="#009af9" fill-rule="evenodd" fill-opacity="0.2" stroke="#000000" stroke-opacity="0.2" stroke-width="3.84"/>
<circle clip-path="url(#clip422)" cx="1045.09" cy="952.71" r="14.4" fill="#009af9" fill-rule="evenodd" fill-opacity="0.2" stroke="#000000" stroke-opacity="0.2" stroke-width="3.84"/>
<circle clip-path="url(#clip422)" cx="1162.98" cy="844.285" r="14.4" fill="#009af9" fill-rule="evenodd" fill-opacity="0.2" stroke="#000000" stroke-opacity="0.2" stroke-width="3.84"/>
<circle clip-path="url(#clip422)" cx="1278.6" cy="605.065" r="14.4" fill="#009af9" fill-rule="evenodd" fill-opacity="0.2" stroke="#000000" stroke-opacity="0.2" stroke-width="3.84"/>
<circle clip-path="url(#clip422)" cx="1389.63" cy="94.9858" r="14.4" fill="#009af9" fill-rule="evenodd" fill-opacity="0.2" stroke="#000000" stroke-opacity="0.2" stroke-width="3.84"/>
<circle clip-path="url(#clip422)" cx="1509.14" cy="1686.38" r="14.4" fill="#009af9" fill-rule="evenodd" fill-opacity="0.2" stroke="#000000" stroke-opacity="0.2" stroke-width="3.84"/>
<circle clip-path="url(#clip422)" cx="1635.68" cy="1317.74" r="14.4" fill="#009af9" fill-rule="evenodd" fill-opacity="0.2" stroke="#000000" stroke-opacity="0.2" stroke-width="3.84"/>
<circle clip-path="url(#clip422)" cx="1758.3" cy="1161.75" r="14.4" fill="#009af9" fill-rule="evenodd" fill-opacity="0.2" stroke="#000000" stroke-opacity="0.2" stroke-width="3.84"/>
<circle clip-path="url(#clip422)" cx="1879.32" cy="1093.5" r="14.4" fill="#009af9" fill-rule="evenodd" fill-opacity="0.2" stroke="#000000" stroke-opacity="0.2" stroke-width="3.84"/>
<circle clip-path="url(#clip422)" cx="1999.65" cy="1062.3" r="14.4" fill="#009af9" fill-rule="evenodd" fill-opacity="0.2" stroke="#000000" stroke-opacity="0.2" stroke-width="3.84"/>
<circle clip-path="url(#clip422)" cx="2119.65" cy="1045.72" r="14.4" fill="#009af9" fill-rule="evenodd" fill-opacity="0.2" stroke="#000000" stroke-opacity="0.2" stroke-width="3.84"/>
<circle clip-path="url(#clip422)" cx="2239.45" cy="1032.02" r="14.4" fill="#009af9" fill-rule="evenodd" fill-opacity="0.2" stroke="#000000" stroke-opacity="0.2" stroke-width="3.84"/>
<circle clip-path="url(#clip422)" cx="2359" cy="1011.57" r="14.4" fill="#009af9" fill-rule="evenodd" fill-opacity="0.2" stroke="#000000" stroke-opacity="0.2" stroke-width="3.84"/>
<circle clip-path="url(#clip422)" cx="2574.11" cy="1011.57" r="14.4" fill="#009af9" fill-rule="evenodd" fill-opacity="0.2" stroke="#000000" stroke-opacity="0.2" stroke-width="3.84"/>
<polyline clip-path="url(#clip422)" style="stroke:#e26f46; stroke-linecap:round; stroke-linejoin:round; stroke-width:4; stroke-opacity:1; fill:none" points="352.623,1011.57 567.732,1011.57 687.096,1003.75 806.431,1001.35 925.75,999.49 1045.03,994.33 1164.17,975.31 1282.8,903.773 1399.56,638.065 1521.48,1424.73 1642.38,1116.95 1762.11,1031.99 1881.54,1009.32 2000.9,1003.45 2120.25,1002.39 2239.6,1004 2359,1011.57 2574.11,1011.57 "/>
<circle clip-path="url(#clip422)" cx="352.623" cy="1011.57" r="14.4" fill="#e26f46" fill-rule="evenodd" fill-opacity="0.2" stroke="#000000" stroke-opacity="0.2" stroke-width="3.84"/>
<circle clip-path="url(#clip422)" cx="567.732" cy="1011.57" r="14.4" fill="#e26f46" fill-rule="evenodd" fill-opacity="0.2" stroke="#000000" stroke-opacity="0.2" stroke-width="3.84"/>
<circle clip-path="url(#clip422)" cx="687.096" cy="1003.75" r="14.4" fill="#e26f46" fill-rule="evenodd" fill-opacity="0.2" stroke="#000000" stroke-opacity="0.2" stroke-width="3.84"/>
<circle clip-path="url(#clip422)" cx="806.431" cy="1001.35" r="14.4" fill="#e26f46" fill-rule="evenodd" fill-opacity="0.2" stroke="#000000" stroke-opacity="0.2" stroke-width="3.84"/>
<circle clip-path="url(#clip422)" cx="925.75" cy="999.49" r="14.4" fill="#e26f46" fill-rule="evenodd" fill-opacity="0.2" stroke="#000000" stroke-opacity="0.2" stroke-width="3.84"/>
<circle clip-path="url(#clip422)" cx="1045.03" cy="994.33" r="14.4" fill="#e26f46" fill-rule="evenodd" fill-opacity="0.2" stroke="#000000" stroke-opacity="0.2" stroke-width="3.84"/>
<circle clip-path="url(#clip422)" cx="1164.17" cy="975.31" r="14.4" fill="#e26f46" fill-rule="evenodd" fill-opacity="0.2" stroke="#000000" stroke-opacity="0.2" stroke-width="3.84"/>
<circle clip-path="url(#clip422)" cx="1282.8" cy="903.773" r="14.4" fill="#e26f46" fill-rule="evenodd" fill-opacity="0.2" stroke="#000000" stroke-opacity="0.2" stroke-width="3.84"/>
<circle clip-path="url(#clip422)" cx="1399.56" cy="638.065" r="14.4" fill="#e26f46" fill-rule="evenodd" fill-opacity="0.2" stroke="#000000" stroke-opacity="0.2" stroke-width="3.84"/>
<circle clip-path="url(#clip422)" cx="1521.48" cy="1424.73" r="14.4" fill="#e26f46" fill-rule="evenodd" fill-opacity="0.2" stroke="#000000" stroke-opacity="0.2" stroke-width="3.84"/>
<circle clip-path="url(#clip422)" cx="1642.38" cy="1116.95" r="14.4" fill="#e26f46" fill-rule="evenodd" fill-opacity="0.2" stroke="#000000" stroke-opacity="0.2" stroke-width="3.84"/>
<circle clip-path="url(#clip422)" cx="1762.11" cy="1031.99" r="14.4" fill="#e26f46" fill-rule="evenodd" fill-opacity="0.2" stroke="#000000" stroke-opacity="0.2" stroke-width="3.84"/>
<circle clip-path="url(#clip422)" cx="1881.54" cy="1009.32" r="14.4" fill="#e26f46" fill-rule="evenodd" fill-opacity="0.2" stroke="#000000" stroke-opacity="0.2" stroke-width="3.84"/>
<circle clip-path="url(#clip422)" cx="2000.9" cy="1003.45" r="14.4" fill="#e26f46" fill-rule="evenodd" fill-opacity="0.2" stroke="#000000" stroke-opacity="0.2" stroke-width="3.84"/>
<circle clip-path="url(#clip422)" cx="2120.25" cy="1002.39" r="14.4" fill="#e26f46" fill-rule="evenodd" fill-opacity="0.2" stroke="#000000" stroke-opacity="0.2" stroke-width="3.84"/>
<circle clip-path="url(#clip422)" cx="2239.6" cy="1004" r="14.4" fill="#e26f46" fill-rule="evenodd" fill-opacity="0.2" stroke="#000000" stroke-opacity="0.2" stroke-width="3.84"/>
<circle clip-path="url(#clip422)" cx="2359" cy="1011.57" r="14.4" fill="#e26f46" fill-rule="evenodd" fill-opacity="0.2" stroke="#000000" stroke-opacity="0.2" stroke-width="3.84"/>
<circle clip-path="url(#clip422)" cx="2574.11" cy="1011.57" r="14.4" fill="#e26f46" fill-rule="evenodd" fill-opacity="0.2" stroke="#000000" stroke-opacity="0.2" stroke-width="3.84"/>
</svg>
