<?xml version="1.0" encoding="utf-8"?>
<svg xmlns="http://www.w3.org/2000/svg" xmlns:xlink="http://www.w3.org/1999/xlink" width="672" height="480" viewBox="0 0 2688 1920">
<defs>
  <clipPath id="clip980">
    <rect x="0" y="0" width="2688" height="1920"/>
  </clipPath>
</defs>
<path clip-path="url(#clip980)" d="M0 1920 L2688 1920 L2688 0 L0 0  Z" fill="#ffffff" fill-rule="evenodd" fill-opacity="1"/>
<defs>
  <clipPath id="clip981">
    <rect x="537" y="0" width="1883" height="1883"/>
  </clipPath>
</defs>
<path clip-path="url(#clip980)" d="M210.238 1734.12 L2640.76 1734.12 L2640.76 47.2441 L210.238 47.2441  Z" fill="#ffffff" fill-rule="evenodd" fill-opacity="1"/>
<defs>
  <clipPath id="clip982">
    <rect x="210" y="47" width="2432" height="1688"/>
  </clipPath>
</defs>
<polyline clip-path="url(#clip982)" style="stroke:#000000; stroke-linecap:round; stroke-linejoin:round; stroke-width:2; stroke-opacity:0.1; fill:none" points="442.808,1734.12 442.808,47.2441 "/>
<polyline clip-path="url(#clip982)" style="stroke:#000000; stroke-linecap:round; stroke-linejoin:round; stroke-width:2; stroke-opacity:0.1; fill:none" points="770.371,1734.12 770.371,47.2441 "/>
<polyline clip-path="url(#clip982)" style="stroke:#000000; stroke-linecap:round; stroke-linejoin:round; stroke-width:2; stroke-opacity:0.1; fill:none" points="1097.93,1734.12 1097.93,47.2441 "/>
<polyline clip-path="url(#clip982)" style="stroke:#000000; stroke-linecap:round; stroke-linejoin:round; stroke-width:2; stroke-opacity:0.1; fill:none" points="1425.5,1734.12 1425.5,47.2441 "/>
<polyline clip-path="url(#clip982)" style="stroke:#000000; stroke-linecap:round; stroke-linejoin:round; stroke-width:2; stroke-opacity:0.1; fill:none" points="1753.06,1734.12 1753.06,47.2441 "/>
<polyline clip-path="url(#clip982)" style="stroke:#000000; stroke-linecap:round; stroke-linejoin:round; stroke-width:2; stroke-opacity:0.1; fill:none" points="2080.62,1734.12 2080.62,47.2441 "/>
<polyline clip-path="url(#clip982)" style="stroke:#000000; stroke-linecap:round; stroke-linejoin:round; stroke-width:2; stroke-opacity:0.1; fill:none" points="2408.19,1734.12 2408.19,47.2441 "/>
<polyline clip-path="url(#clip980)" style="stroke:#000000; stroke-linecap:round; stroke-linejoin:round; stroke-width:4; stroke-opacity:1; fill:none" points="210.238,1734.12 2640.76,1734.12 "/>
<polyline clip-path="url(#clip980)" style="stroke:#000000; stroke-linecap:round; stroke-linejoin:round; stroke-width:4; stroke-opacity:1; fill:none" points="442.808,1734.12 442.808,1715.22 "/>
<polyline clip-path="url(#clip980)" style="stroke:#000000; stroke-linecap:round; stroke-linejoin:round; stroke-width:4; stroke-opacity:1; fill:none" points="770.371,1734.12 770.371,1715.22 "/>
<polyline clip-path="url(#clip980)" style="stroke:#000000; stroke-linecap:round; stroke-linejoin:round; stroke-width:4; stroke-opacity:1; fill:none" points="1097.93,1734.12 1097.93,1715.22 "/>
<polyline clip-path="url(#clip980)" style="stroke:#000000; stroke-linecap:round; stroke-linejoin:round; stroke-width:4; stroke-opacity:1; fill:none" points="1425.5,1734.12 1425.5,1715.22 "/>
<polyline clip-path="url(#clip980)" style="stroke:#000000; stroke-linecap:round; stroke-linejoin:round; stroke-width:4; stroke-opacity:1; fill:none" points="1753.06,1734.12 1753.06,1715.22 "/>
<polyline clip-path="url(#clip980)" style="stroke:#000000; stroke-linecap:round; stroke-linejoin:round; stroke-width:4; stroke-opacity:1; fill:none" points="2080.62,1734.12 2080.62,1715.22 "/>
<polyline clip-path="url(#clip980)" style="stroke:#000000; stroke-linecap:round; stroke-linejoin:round; stroke-width:4; stroke-opacity:1; fill:none" points="2408.19,1734.12 2408.19,1715.22 "/>
<path clip-path="url(#clip980)" d="M437.46 1794.89 L453.78 1794.89 L453.78 1798.82 L431.835 1798.82 L431.835 1794.89 Q434.498 1792.13 439.081 1787.5 Q443.687 1782.85 444.868 1781.51 Q447.113 1778.98 447.993 1777.25 Q448.896 1775.49 448.896 1773.8 Q448.896 1771.04 446.951 1769.31 Q445.03 1767.57 441.928 1767.57 Q439.729 1767.57 437.275 1768.34 Q434.845 1769.1 432.067 1770.65 L432.067 1765.93 Q434.891 1764.79 437.345 1764.21 Q439.798 1763.64 441.835 1763.64 Q447.206 1763.64 450.4 1766.32 Q453.595 1769.01 453.595 1773.5 Q453.595 1775.63 452.784 1777.55 Q451.997 1779.45 449.891 1782.04 Q449.312 1782.71 446.21 1785.93 Q443.109 1789.12 437.46 1794.89 Z" fill="#000000" fill-rule="evenodd" fill-opacity="1" /><path clip-path="url(#clip980)" d="M773.38 1768.34 L761.574 1786.78 L773.38 1786.78 L773.38 1768.34 M772.153 1764.26 L778.033 1764.26 L778.033 1786.78 L782.963 1786.78 L782.963 1790.67 L778.033 1790.67 L778.033 1798.82 L773.38 1798.82 L773.38 1790.67 L757.778 1790.67 L757.778 1786.16 L772.153 1764.26 Z" fill="#000000" fill-rule="evenodd" fill-opacity="1" /><path clip-path="url(#clip980)" d="M1098.34 1779.68 Q1095.19 1779.68 1093.34 1781.83 Q1091.51 1783.98 1091.51 1787.73 Q1091.51 1791.46 1093.34 1793.64 Q1095.19 1795.79 1098.34 1795.79 Q1101.49 1795.79 1103.32 1793.64 Q1105.17 1791.46 1105.17 1787.73 Q1105.17 1783.98 1103.32 1781.83 Q1101.49 1779.68 1098.34 1779.68 M1107.62 1765.02 L1107.62 1769.28 Q1105.86 1768.45 1104.06 1768.01 Q1102.27 1767.57 1100.51 1767.57 Q1095.89 1767.57 1093.43 1770.7 Q1091 1773.82 1090.65 1780.14 Q1092.02 1778.13 1094.08 1777.06 Q1096.14 1775.97 1098.62 1775.97 Q1103.82 1775.97 1106.83 1779.15 Q1109.87 1782.29 1109.87 1787.73 Q1109.87 1793.06 1106.72 1796.27 Q1103.57 1799.49 1098.34 1799.49 Q1092.34 1799.49 1089.17 1794.91 Q1086 1790.3 1086 1781.58 Q1086 1773.38 1089.89 1768.52 Q1093.78 1763.64 1100.33 1763.64 Q1102.09 1763.64 1103.87 1763.98 Q1105.68 1764.33 1107.62 1765.02 Z" fill="#000000" fill-rule="evenodd" fill-opacity="1" /><path clip-path="url(#clip980)" d="M1425.5 1782.41 Q1422.16 1782.41 1420.24 1784.19 Q1418.34 1785.97 1418.34 1789.1 Q1418.34 1792.22 1420.24 1794.01 Q1422.16 1795.79 1425.5 1795.79 Q1428.83 1795.79 1430.75 1794.01 Q1432.67 1792.2 1432.67 1789.1 Q1432.67 1785.97 1430.75 1784.19 Q1428.85 1782.41 1425.5 1782.41 M1420.82 1780.42 Q1417.81 1779.68 1416.12 1777.62 Q1414.46 1775.56 1414.46 1772.59 Q1414.46 1768.45 1417.4 1766.04 Q1420.36 1763.64 1425.5 1763.64 Q1430.66 1763.64 1433.6 1766.04 Q1436.54 1768.45 1436.54 1772.59 Q1436.54 1775.56 1434.85 1777.62 Q1433.18 1779.68 1430.2 1780.42 Q1433.58 1781.21 1435.45 1783.5 Q1437.35 1785.79 1437.35 1789.1 Q1437.35 1794.12 1434.27 1796.81 Q1431.21 1799.49 1425.5 1799.49 Q1419.78 1799.49 1416.7 1796.81 Q1413.65 1794.12 1413.65 1789.1 Q1413.65 1785.79 1415.54 1783.5 Q1417.44 1781.21 1420.82 1780.42 M1419.11 1773.03 Q1419.11 1775.72 1420.77 1777.22 Q1422.46 1778.73 1425.5 1778.73 Q1428.51 1778.73 1430.2 1777.22 Q1431.91 1775.72 1431.91 1773.03 Q1431.91 1770.35 1430.2 1768.84 Q1428.51 1767.34 1425.5 1767.34 Q1422.46 1767.34 1420.77 1768.84 Q1419.11 1770.35 1419.11 1773.03 Z" fill="#000000" fill-rule="evenodd" fill-opacity="1" /><path clip-path="url(#clip980)" d="M1727.75 1794.89 L1735.39 1794.89 L1735.39 1768.52 L1727.08 1770.19 L1727.08 1765.93 L1735.34 1764.26 L1740.02 1764.26 L1740.02 1794.89 L1747.65 1794.89 L1747.65 1798.82 L1727.75 1798.82 L1727.75 1794.89 Z" fill="#000000" fill-rule="evenodd" fill-opacity="1" /><path clip-path="url(#clip980)" d="M1767.1 1767.34 Q1763.49 1767.34 1761.66 1770.9 Q1759.85 1774.45 1759.85 1781.58 Q1759.85 1788.68 1761.66 1792.25 Q1763.49 1795.79 1767.1 1795.79 Q1770.73 1795.79 1772.54 1792.25 Q1774.37 1788.68 1774.37 1781.58 Q1774.37 1774.45 1772.54 1770.9 Q1770.73 1767.34 1767.1 1767.34 M1767.1 1763.64 Q1772.91 1763.64 1775.96 1768.24 Q1779.04 1772.83 1779.04 1781.58 Q1779.04 1790.3 1775.96 1794.91 Q1772.91 1799.49 1767.1 1799.49 Q1761.29 1799.49 1758.21 1794.91 Q1755.15 1790.3 1755.15 1781.58 Q1755.15 1772.83 1758.21 1768.24 Q1761.29 1763.64 1767.1 1763.64 Z" fill="#000000" fill-rule="evenodd" fill-opacity="1" /><path clip-path="url(#clip980)" d="M2056.11 1794.89 L2063.75 1794.89 L2063.75 1768.52 L2055.44 1770.19 L2055.44 1765.93 L2063.7 1764.26 L2068.38 1764.26 L2068.38 1794.89 L2076.02 1794.89 L2076.02 1798.82 L2056.11 1798.82 L2056.11 1794.89 Z" fill="#000000" fill-rule="evenodd" fill-opacity="1" /><path clip-path="url(#clip980)" d="M2089.49 1794.89 L2105.81 1794.89 L2105.81 1798.82 L2083.86 1798.82 L2083.86 1794.89 Q2086.53 1792.13 2091.11 1787.5 Q2095.72 1782.85 2096.9 1781.51 Q2099.14 1778.98 2100.02 1777.25 Q2100.92 1775.49 2100.92 1773.8 Q2100.92 1771.04 2098.98 1769.31 Q2097.06 1767.57 2093.96 1767.57 Q2091.76 1767.57 2089.3 1768.34 Q2086.87 1769.1 2084.1 1770.65 L2084.1 1765.93 Q2086.92 1764.79 2089.37 1764.21 Q2091.83 1763.64 2093.86 1763.64 Q2099.23 1763.64 2102.43 1766.32 Q2105.62 1769.01 2105.62 1773.5 Q2105.62 1775.63 2104.81 1777.55 Q2104.03 1779.45 2101.92 1782.04 Q2101.34 1782.71 2098.24 1785.93 Q2095.14 1789.12 2089.49 1794.89 Z" fill="#000000" fill-rule="evenodd" fill-opacity="1" /><path clip-path="url(#clip980)" d="M2382.63 1794.89 L2390.27 1794.89 L2390.27 1768.52 L2381.96 1770.19 L2381.96 1765.93 L2390.22 1764.26 L2394.9 1764.26 L2394.9 1794.89 L2402.54 1794.89 L2402.54 1798.82 L2382.63 1798.82 L2382.63 1794.89 Z" fill="#000000" fill-rule="evenodd" fill-opacity="1" /><path clip-path="url(#clip980)" d="M2424.83 1768.34 L2413.02 1786.78 L2424.83 1786.78 L2424.83 1768.34 M2423.6 1764.26 L2429.48 1764.26 L2429.48 1786.78 L2434.41 1786.78 L2434.41 1790.67 L2429.48 1790.67 L2429.48 1798.82 L2424.83 1798.82 L2424.83 1790.67 L2409.23 1790.67 L2409.23 1786.16 L2423.6 1764.26 Z" fill="#000000" fill-rule="evenodd" fill-opacity="1" /><path clip-path="url(#clip980)" d="M1383.88 1848.7 L1383.88 1854.24 Q1381.4 1852.97 1378.72 1852.33 Q1376.05 1851.7 1373.19 1851.7 Q1368.83 1851.7 1366.63 1853.03 Q1364.47 1854.37 1364.47 1857.04 Q1364.47 1859.08 1366.03 1860.26 Q1367.58 1861.4 1372.3 1862.45 L1374.3 1862.9 Q1380.54 1864.24 1383.15 1866.69 Q1385.79 1869.11 1385.79 1873.47 Q1385.79 1878.43 1381.84 1881.33 Q1377.93 1884.22 1371.05 1884.22 Q1368.19 1884.22 1365.07 1883.65 Q1361.98 1883.11 1358.55 1882 L1358.55 1875.95 Q1361.79 1877.64 1364.94 1878.49 Q1368.09 1879.32 1371.18 1879.32 Q1375.32 1879.32 1377.55 1877.92 Q1379.78 1876.49 1379.78 1873.91 Q1379.78 1871.52 1378.15 1870.25 Q1376.56 1868.98 1371.12 1867.8 L1369.08 1867.32 Q1363.64 1866.18 1361.22 1863.82 Q1358.8 1861.43 1358.8 1857.3 Q1358.8 1852.27 1362.36 1849.53 Q1365.93 1846.79 1372.49 1846.79 Q1375.73 1846.79 1378.6 1847.27 Q1381.46 1847.75 1383.88 1848.7 Z" fill="#000000" fill-rule="evenodd" fill-opacity="1" /><path clip-path="url(#clip980)" d="M1400.91 1837.53 L1400.91 1847.65 L1412.97 1847.65 L1412.97 1852.2 L1400.91 1852.2 L1400.91 1871.56 Q1400.91 1875.92 1402.09 1877.16 Q1403.3 1878.4 1406.96 1878.4 L1412.97 1878.4 L1412.97 1883.3 L1406.96 1883.3 Q1400.18 1883.3 1397.6 1880.79 Q1395.02 1878.24 1395.02 1871.56 L1395.02 1852.2 L1390.72 1852.2 L1390.72 1847.65 L1395.02 1847.65 L1395.02 1837.53 L1400.91 1837.53 Z" fill="#000000" fill-rule="evenodd" fill-opacity="1" /><path clip-path="url(#clip980)" d="M1451.17 1864.01 L1451.17 1866.88 L1424.24 1866.88 Q1424.62 1872.92 1427.87 1876.11 Q1431.15 1879.26 1436.97 1879.26 Q1440.34 1879.26 1443.5 1878.43 Q1446.68 1877.6 1449.8 1875.95 L1449.8 1881.49 Q1446.65 1882.82 1443.34 1883.52 Q1440.03 1884.22 1436.62 1884.22 Q1428.09 1884.22 1423.09 1879.26 Q1418.13 1874.29 1418.13 1865.83 Q1418.13 1857.07 1422.84 1851.95 Q1427.58 1846.79 1435.6 1846.79 Q1442.8 1846.79 1446.97 1851.44 Q1451.17 1856.06 1451.17 1864.01 M1445.31 1862.29 Q1445.25 1857.49 1442.6 1854.62 Q1439.99 1851.76 1435.67 1851.76 Q1430.76 1851.76 1427.8 1854.53 Q1424.88 1857.3 1424.43 1862.33 L1445.31 1862.29 Z" fill="#000000" fill-rule="evenodd" fill-opacity="1" /><path clip-path="url(#clip980)" d="M1466.44 1877.95 L1466.44 1896.86 L1460.56 1896.86 L1460.56 1847.65 L1466.44 1847.65 L1466.44 1853.06 Q1468.29 1849.88 1471.09 1848.35 Q1473.92 1846.79 1477.84 1846.79 Q1484.33 1846.79 1488.37 1851.95 Q1492.45 1857.11 1492.45 1865.51 Q1492.45 1873.91 1488.37 1879.07 Q1484.33 1884.22 1477.84 1884.22 Q1473.92 1884.22 1471.09 1882.7 Q1468.29 1881.14 1466.44 1877.95 M1486.37 1865.51 Q1486.37 1859.05 1483.7 1855.39 Q1481.05 1851.7 1476.41 1851.7 Q1471.76 1851.7 1469.09 1855.39 Q1466.44 1859.05 1466.44 1865.51 Q1466.44 1871.97 1469.09 1875.66 Q1471.76 1879.32 1476.41 1879.32 Q1481.05 1879.32 1483.7 1875.66 Q1486.37 1871.97 1486.37 1865.51 Z" fill="#000000" fill-rule="evenodd" fill-opacity="1" /><polyline clip-path="url(#clip982)" style="stroke:#000000; stroke-linecap:round; stroke-linejoin:round; stroke-width:2; stroke-opacity:0.1; fill:none" points="210.238,1480.74 2640.76,1480.74 "/>
<polyline clip-path="url(#clip982)" style="stroke:#000000; stroke-linecap:round; stroke-linejoin:round; stroke-width:2; stroke-opacity:0.1; fill:none" points="210.238,1166.25 2640.76,1166.25 "/>
<polyline clip-path="url(#clip982)" style="stroke:#000000; stroke-linecap:round; stroke-linejoin:round; stroke-width:2; stroke-opacity:0.1; fill:none" points="210.238,851.751 2640.76,851.751 "/>
<polyline clip-path="url(#clip982)" style="stroke:#000000; stroke-linecap:round; stroke-linejoin:round; stroke-width:2; stroke-opacity:0.1; fill:none" points="210.238,537.256 2640.76,537.256 "/>
<polyline clip-path="url(#clip982)" style="stroke:#000000; stroke-linecap:round; stroke-linejoin:round; stroke-width:2; stroke-opacity:0.1; fill:none" points="210.238,222.76 2640.76,222.76 "/>
<polyline clip-path="url(#clip980)" style="stroke:#000000; stroke-linecap:round; stroke-linejoin:round; stroke-width:4; stroke-opacity:1; fill:none" points="210.238,1734.12 210.238,47.2441 "/>
<polyline clip-path="url(#clip980)" style="stroke:#000000; stroke-linecap:round; stroke-linejoin:round; stroke-width:4; stroke-opacity:1; fill:none" points="210.238,1480.74 229.135,1480.74 "/>
<polyline clip-path="url(#clip980)" style="stroke:#000000; stroke-linecap:round; stroke-linejoin:round; stroke-width:4; stroke-opacity:1; fill:none" points="210.238,1166.25 229.135,1166.25 "/>
<polyline clip-path="url(#clip980)" style="stroke:#000000; stroke-linecap:round; stroke-linejoin:round; stroke-width:4; stroke-opacity:1; fill:none" points="210.238,851.751 229.135,851.751 "/>
<polyline clip-path="url(#clip980)" style="stroke:#000000; stroke-linecap:round; stroke-linejoin:round; stroke-width:4; stroke-opacity:1; fill:none" points="210.238,537.256 229.135,537.256 "/>
<polyline clip-path="url(#clip980)" style="stroke:#000000; stroke-linecap:round; stroke-linejoin:round; stroke-width:4; stroke-opacity:1; fill:none" points="210.238,222.76 229.135,222.76 "/>
<path clip-path="url(#clip980)" d="M149.015 1463.46 L167.372 1463.46 L167.372 1467.4 L153.298 1467.4 L153.298 1475.87 Q154.316 1475.52 155.335 1475.36 Q156.353 1475.18 157.372 1475.18 Q163.159 1475.18 166.538 1478.35 Q169.918 1481.52 169.918 1486.93 Q169.918 1492.51 166.446 1495.61 Q162.973 1498.69 156.654 1498.69 Q154.478 1498.69 152.21 1498.32 Q149.964 1497.95 147.557 1497.21 L147.557 1492.51 Q149.64 1493.65 151.862 1494.2 Q154.085 1494.76 156.561 1494.76 Q160.566 1494.76 162.904 1492.65 Q165.242 1490.55 165.242 1486.93 Q165.242 1483.32 162.904 1481.22 Q160.566 1479.11 156.561 1479.11 Q154.686 1479.11 152.811 1479.53 Q150.96 1479.94 149.015 1480.82 L149.015 1463.46 Z" fill="#000000" fill-rule="evenodd" fill-opacity="1" /><path clip-path="url(#clip980)" d="M118.622 1179.59 L126.261 1179.59 L126.261 1153.23 L117.951 1154.89 L117.951 1150.63 L126.214 1148.97 L130.89 1148.97 L130.89 1179.59 L138.529 1179.59 L138.529 1183.53 L118.622 1183.53 L118.622 1179.59 Z" fill="#000000" fill-rule="evenodd" fill-opacity="1" /><path clip-path="url(#clip980)" d="M157.973 1152.05 Q154.362 1152.05 152.534 1155.61 Q150.728 1159.15 150.728 1166.28 Q150.728 1173.39 152.534 1176.95 Q154.362 1180.49 157.973 1180.49 Q161.608 1180.49 163.413 1176.95 Q165.242 1173.39 165.242 1166.28 Q165.242 1159.15 163.413 1155.61 Q161.608 1152.05 157.973 1152.05 M157.973 1148.34 Q163.784 1148.34 166.839 1152.95 Q169.918 1157.53 169.918 1166.28 Q169.918 1175.01 166.839 1179.61 Q163.784 1184.2 157.973 1184.2 Q152.163 1184.2 149.085 1179.61 Q146.029 1175.01 146.029 1166.28 Q146.029 1157.53 149.085 1152.95 Q152.163 1148.34 157.973 1148.34 Z" fill="#000000" fill-rule="evenodd" fill-opacity="1" /><path clip-path="url(#clip980)" d="M119.617 865.096 L127.256 865.096 L127.256 838.73 L118.946 840.397 L118.946 836.138 L127.21 834.471 L131.886 834.471 L131.886 865.096 L139.525 865.096 L139.525 869.031 L119.617 869.031 L119.617 865.096 Z" fill="#000000" fill-rule="evenodd" fill-opacity="1" /><path clip-path="url(#clip980)" d="M149.015 834.471 L167.372 834.471 L167.372 838.406 L153.298 838.406 L153.298 846.878 Q154.316 846.531 155.335 846.369 Q156.353 846.184 157.372 846.184 Q163.159 846.184 166.538 849.355 Q169.918 852.527 169.918 857.943 Q169.918 863.522 166.446 866.624 Q162.973 869.702 156.654 869.702 Q154.478 869.702 152.21 869.332 Q149.964 868.962 147.557 868.221 L147.557 863.522 Q149.64 864.656 151.862 865.212 Q154.085 865.767 156.561 865.767 Q160.566 865.767 162.904 863.661 Q165.242 861.554 165.242 857.943 Q165.242 854.332 162.904 852.226 Q160.566 850.119 156.561 850.119 Q154.686 850.119 152.811 850.536 Q150.96 850.952 149.015 851.832 L149.015 834.471 Z" fill="#000000" fill-rule="evenodd" fill-opacity="1" /><path clip-path="url(#clip980)" d="M121.839 550.6 L138.159 550.6 L138.159 554.536 L116.214 554.536 L116.214 550.6 Q118.876 547.846 123.46 543.216 Q128.066 538.563 129.247 537.221 Q131.492 534.698 132.372 532.962 Q133.275 531.202 133.275 529.512 Q133.275 526.758 131.33 525.022 Q129.409 523.286 126.307 523.286 Q124.108 523.286 121.654 524.05 Q119.224 524.813 116.446 526.364 L116.446 521.642 Q119.27 520.508 121.724 519.929 Q124.177 519.351 126.214 519.351 Q131.585 519.351 134.779 522.036 Q137.974 524.721 137.974 529.212 Q137.974 531.341 137.163 533.262 Q136.376 535.161 134.27 537.753 Q133.691 538.424 130.589 541.642 Q127.488 544.836 121.839 550.6 Z" fill="#000000" fill-rule="evenodd" fill-opacity="1" /><path clip-path="url(#clip980)" d="M157.973 523.054 Q154.362 523.054 152.534 526.619 Q150.728 530.161 150.728 537.29 Q150.728 544.397 152.534 547.961 Q154.362 551.503 157.973 551.503 Q161.608 551.503 163.413 547.961 Q165.242 544.397 165.242 537.29 Q165.242 530.161 163.413 526.619 Q161.608 523.054 157.973 523.054 M157.973 519.351 Q163.784 519.351 166.839 523.957 Q169.918 528.54 169.918 537.29 Q169.918 546.017 166.839 550.623 Q163.784 555.207 157.973 555.207 Q152.163 555.207 149.085 550.623 Q146.029 546.017 146.029 537.29 Q146.029 528.54 149.085 523.957 Q152.163 519.351 157.973 519.351 Z" fill="#000000" fill-rule="evenodd" fill-opacity="1" /><path clip-path="url(#clip980)" d="M122.835 236.105 L139.154 236.105 L139.154 240.04 L117.21 240.04 L117.21 236.105 Q119.872 233.35 124.455 228.721 Q129.062 224.068 130.242 222.725 Q132.488 220.202 133.367 218.466 Q134.27 216.707 134.27 215.017 Q134.27 212.262 132.325 210.526 Q130.404 208.79 127.302 208.79 Q125.103 208.79 122.65 209.554 Q120.219 210.318 117.441 211.869 L117.441 207.147 Q120.265 206.012 122.719 205.434 Q125.173 204.855 127.21 204.855 Q132.58 204.855 135.775 207.54 Q138.969 210.225 138.969 214.716 Q138.969 216.846 138.159 218.767 Q137.372 220.665 135.265 223.258 Q134.687 223.929 131.585 227.146 Q128.483 230.341 122.835 236.105 Z" fill="#000000" fill-rule="evenodd" fill-opacity="1" /><path clip-path="url(#clip980)" d="M149.015 205.48 L167.372 205.48 L167.372 209.415 L153.298 209.415 L153.298 217.887 Q154.316 217.54 155.335 217.378 Q156.353 217.193 157.372 217.193 Q163.159 217.193 166.538 220.364 Q169.918 223.535 169.918 228.952 Q169.918 234.531 166.446 237.633 Q162.973 240.711 156.654 240.711 Q154.478 240.711 152.21 240.341 Q149.964 239.97 147.557 239.23 L147.557 234.531 Q149.64 235.665 151.862 236.22 Q154.085 236.776 156.561 236.776 Q160.566 236.776 162.904 234.67 Q165.242 232.563 165.242 228.952 Q165.242 225.341 162.904 223.234 Q160.566 221.128 156.561 221.128 Q154.686 221.128 152.811 221.545 Q150.96 221.961 149.015 222.841 L149.015 205.48 Z" fill="#000000" fill-rule="evenodd" fill-opacity="1" /><path clip-path="url(#clip980)" d="M43.719 1163.98 Q43.719 1171.07 45.3422 1173.81 Q46.9655 1176.55 50.8804 1176.55 Q53.9996 1176.55 55.8457 1174.51 Q57.6599 1172.44 57.6599 1168.91 Q57.6599 1164.04 54.2224 1161.11 Q50.7531 1158.15 45.0239 1158.15 L43.719 1158.15 L43.719 1163.98 M41.3 1152.3 L61.6384 1152.3 L61.6384 1158.15 L56.2276 1158.15 Q59.4741 1160.16 61.0337 1163.15 Q62.5615 1166.14 62.5615 1170.47 Q62.5615 1175.94 59.5059 1179.19 Q56.4186 1182.4 51.2623 1182.4 Q45.2467 1182.4 42.1912 1178.39 Q39.1357 1174.35 39.1357 1166.36 L39.1357 1158.15 L38.5628 1158.15 Q34.5205 1158.15 32.3244 1160.83 Q30.0964 1163.47 30.0964 1168.27 Q30.0964 1171.33 30.8284 1174.23 Q31.5605 1177.12 33.0246 1179.8 L27.6137 1179.8 Q26.3724 1176.58 25.7677 1173.56 Q25.1311 1170.53 25.1311 1167.67 Q25.1311 1159.93 29.1415 1156.11 Q33.1519 1152.3 41.3 1152.3 Z" fill="#000000" fill-rule="evenodd" fill-opacity="1" /><path clip-path="url(#clip980)" d="M27.3591 1114.58 L32.8336 1114.58 Q31.465 1117.06 30.7966 1119.58 Q30.0964 1122.06 30.0964 1124.6 Q30.0964 1130.3 33.7248 1133.45 Q37.3214 1136.6 43.8463 1136.6 Q50.3711 1136.6 53.9996 1133.45 Q57.5962 1130.3 57.5962 1124.6 Q57.5962 1122.06 56.9278 1119.58 Q56.2276 1117.06 54.859 1114.58 L60.2698 1114.58 Q61.4156 1117.03 61.9886 1119.67 Q62.5615 1122.28 62.5615 1125.24 Q62.5615 1133.29 57.5007 1138.04 Q52.44 1142.78 43.8463 1142.78 Q35.1253 1142.78 30.1282 1138 Q25.1311 1133.2 25.1311 1124.86 Q25.1311 1122.15 25.704 1119.58 Q26.2451 1117 27.3591 1114.58 Z" fill="#000000" fill-rule="evenodd" fill-opacity="1" /><path clip-path="url(#clip980)" d="M27.3591 1078.74 L32.8336 1078.74 Q31.465 1081.22 30.7966 1083.74 Q30.0964 1086.22 30.0964 1088.77 Q30.0964 1094.46 33.7248 1097.61 Q37.3214 1100.76 43.8463 1100.76 Q50.3711 1100.76 53.9996 1097.61 Q57.5962 1094.46 57.5962 1088.77 Q57.5962 1086.22 56.9278 1083.74 Q56.2276 1081.22 54.859 1078.74 L60.2698 1078.74 Q61.4156 1081.19 61.9886 1083.83 Q62.5615 1086.44 62.5615 1089.4 Q62.5615 1097.45 57.5007 1102.2 Q52.44 1106.94 43.8463 1106.94 Q35.1253 1106.94 30.1282 1102.17 Q25.1311 1097.36 25.1311 1089.02 Q25.1311 1086.31 25.704 1083.74 Q26.2451 1081.16 27.3591 1078.74 Z" fill="#000000" fill-rule="evenodd" fill-opacity="1" /><path clip-path="url(#clip980)" d="M47.5702 1069.16 L25.9905 1069.16 L25.9905 1063.3 L47.3474 1063.3 Q52.4082 1063.3 54.9545 1061.33 Q57.4689 1059.36 57.4689 1055.41 Q57.4689 1050.67 54.4452 1047.93 Q51.4215 1045.16 46.2016 1045.16 L25.9905 1045.16 L25.9905 1039.3 L61.6384 1039.3 L61.6384 1045.16 L56.1639 1045.16 Q59.4104 1047.29 61.0019 1050.13 Q62.5615 1052.93 62.5615 1056.65 Q62.5615 1062.79 58.742 1065.98 Q54.9226 1069.16 47.5702 1069.16 M25.1311 1054.42 L25.1311 1054.42 Z" fill="#000000" fill-rule="evenodd" fill-opacity="1" /><path clip-path="url(#clip980)" d="M32.8336 999.486 Q28.8869 997.29 27.009 994.235 Q25.1311 991.179 25.1311 987.041 Q25.1311 981.471 29.046 978.448 Q32.9291 975.424 40.1224 975.424 L61.6384 975.424 L61.6384 981.312 L40.3133 981.312 Q35.1889 981.312 32.7063 983.127 Q30.2237 984.941 30.2237 988.665 Q30.2237 993.216 33.2474 995.858 Q36.2711 998.5 41.491 998.5 L61.6384 998.5 L61.6384 1004.39 L40.3133 1004.39 Q35.1571 1004.39 32.7063 1006.2 Q30.2237 1008.02 30.2237 1011.8 Q30.2237 1016.29 33.2792 1018.93 Q36.3029 1021.58 41.491 1021.58 L61.6384 1021.58 L61.6384 1027.46 L25.9905 1027.46 L25.9905 1021.58 L31.5287 1021.58 Q28.2503 1019.57 26.6907 1016.77 Q25.1311 1013.97 25.1311 1010.12 Q25.1311 1006.23 27.1045 1003.53 Q29.0779 1000.79 32.8336 999.486 Z" fill="#000000" fill-rule="evenodd" fill-opacity="1" /><path clip-path="url(#clip980)" d="M47.5702 964.348 L25.9905 964.348 L25.9905 958.491 L47.3474 958.491 Q52.4082 958.491 54.9545 956.518 Q57.4689 954.544 57.4689 950.598 Q57.4689 945.855 54.4452 943.118 Q51.4215 940.349 46.2016 940.349 L25.9905 940.349 L25.9905 934.493 L61.6384 934.493 L61.6384 940.349 L56.1639 940.349 Q59.4104 942.481 61.0019 945.314 Q62.5615 948.115 62.5615 951.839 Q62.5615 957.982 58.742 961.165 Q54.9226 964.348 47.5702 964.348 M25.1311 949.611 L25.1311 949.611 Z" fill="#000000" fill-rule="evenodd" fill-opacity="1" /><path clip-path="url(#clip980)" d="M12.1132 922.43 L12.1132 916.573 L61.6384 916.573 L61.6384 922.43 L12.1132 922.43 Z" fill="#000000" fill-rule="evenodd" fill-opacity="1" /><path clip-path="url(#clip980)" d="M43.719 888.118 Q43.719 895.216 45.3422 897.953 Q46.9655 900.691 50.8804 900.691 Q53.9996 900.691 55.8457 898.654 Q57.6599 896.585 57.6599 893.052 Q57.6599 888.182 54.2224 885.254 Q50.7531 882.294 45.0239 882.294 L43.719 882.294 L43.719 888.118 M41.3 876.437 L61.6384 876.437 L61.6384 882.294 L56.2276 882.294 Q59.4741 884.299 61.0337 887.291 Q62.5615 890.283 62.5615 894.611 Q62.5615 900.086 59.5059 903.332 Q56.4186 906.547 51.2623 906.547 Q45.2467 906.547 42.1912 902.537 Q39.1357 898.494 39.1357 890.505 L39.1357 882.294 L38.5628 882.294 Q34.5205 882.294 32.3244 884.967 Q30.0964 887.609 30.0964 892.415 Q30.0964 895.471 30.8284 898.367 Q31.5605 901.264 33.0246 903.937 L27.6137 903.937 Q26.3724 900.722 25.7677 897.699 Q25.1311 894.675 25.1311 891.81 Q25.1311 884.076 29.1415 880.257 Q33.1519 876.437 41.3 876.437 Z" fill="#000000" fill-rule="evenodd" fill-opacity="1" /><path clip-path="url(#clip980)" d="M15.869 858.581 L25.9905 858.581 L25.9905 846.518 L30.542 846.518 L30.542 858.581 L49.8937 858.581 Q54.2542 858.581 55.4955 857.404 Q56.7368 856.194 56.7368 852.534 L56.7368 846.518 L61.6384 846.518 L61.6384 852.534 Q61.6384 859.314 59.124 861.892 Q56.5777 864.47 49.8937 864.47 L30.542 864.47 L30.542 868.767 L25.9905 868.767 L25.9905 864.47 L15.869 864.47 L15.869 858.581 Z" fill="#000000" fill-rule="evenodd" fill-opacity="1" /><path clip-path="url(#clip980)" d="M42.3504 808.324 L45.2149 808.324 L45.2149 835.251 Q51.2623 834.869 54.4452 831.623 Q57.5962 828.344 57.5962 822.52 Q57.5962 819.146 56.7687 815.995 Q55.9411 812.812 54.2861 809.693 L59.8242 809.693 Q61.161 812.844 61.8612 816.154 Q62.5615 819.464 62.5615 822.87 Q62.5615 831.4 57.5962 836.397 Q52.631 841.362 44.1646 841.362 Q35.4117 841.362 30.2873 836.652 Q25.1311 831.909 25.1311 823.888 Q25.1311 816.695 29.7781 812.526 Q34.3932 808.324 42.3504 808.324 M40.6316 814.181 Q35.8255 814.244 32.9609 816.886 Q30.0964 819.496 30.0964 823.825 Q30.0964 828.726 32.8654 831.686 Q35.6345 834.615 40.6634 835.06 L40.6316 814.181 Z" fill="#000000" fill-rule="evenodd" fill-opacity="1" /><path clip-path="url(#clip980)" d="M31.4013 775.254 L12.1132 775.254 L12.1132 769.398 L61.6384 769.398 L61.6384 775.254 L56.2912 775.254 Q59.4741 777.1 61.0337 779.933 Q62.5615 782.734 62.5615 786.681 Q62.5615 793.142 57.4052 797.216 Q52.249 801.258 43.8463 801.258 Q35.4436 801.258 30.2873 797.216 Q25.1311 793.142 25.1311 786.681 Q25.1311 782.734 26.6907 779.933 Q28.2185 777.1 31.4013 775.254 M43.8463 795.211 Q50.3075 795.211 53.9996 792.569 Q57.6599 789.895 57.6599 785.249 Q57.6599 780.602 53.9996 777.928 Q50.3075 775.254 43.8463 775.254 Q37.3851 775.254 33.7248 777.928 Q30.0327 780.602 30.0327 785.249 Q30.0327 789.895 33.7248 792.569 Q37.3851 795.211 43.8463 795.211 Z" fill="#000000" fill-rule="evenodd" fill-opacity="1" /><path clip-path="url(#clip980)" d="M15.869 730.822 L25.9905 730.822 L25.9905 718.759 L30.542 718.759 L30.542 730.822 L49.8937 730.822 Q54.2542 730.822 55.4955 729.644 Q56.7368 728.435 56.7368 724.774 L56.7368 718.759 L61.6384 718.759 L61.6384 724.774 Q61.6384 731.554 59.124 734.132 Q56.5777 736.71 49.8937 736.71 L30.542 736.71 L30.542 741.007 L25.9905 741.007 L25.9905 736.71 L15.869 736.71 L15.869 730.822 Z" fill="#000000" fill-rule="evenodd" fill-opacity="1" /><path clip-path="url(#clip980)" d="M25.9905 711.056 L25.9905 705.2 L61.6384 705.2 L61.6384 711.056 L25.9905 711.056 M12.1132 711.056 L12.1132 705.2 L19.5293 705.2 L19.5293 711.056 L12.1132 711.056 Z" fill="#000000" fill-rule="evenodd" fill-opacity="1" /><path clip-path="url(#clip980)" d="M32.8336 665.191 Q28.8869 662.995 27.009 659.94 Q25.1311 656.884 25.1311 652.746 Q25.1311 647.176 29.046 644.153 Q32.9291 641.129 40.1224 641.129 L61.6384 641.129 L61.6384 647.017 L40.3133 647.017 Q35.1889 647.017 32.7063 648.831 Q30.2237 650.646 30.2237 654.37 Q30.2237 658.921 33.2474 661.563 Q36.2711 664.205 41.491 664.205 L61.6384 664.205 L61.6384 670.093 L40.3133 670.093 Q35.1571 670.093 32.7063 671.907 Q30.2237 673.721 30.2237 677.509 Q30.2237 681.997 33.2792 684.639 Q36.3029 687.28 41.491 687.28 L61.6384 687.28 L61.6384 693.169 L25.9905 693.169 L25.9905 687.28 L31.5287 687.28 Q28.2503 685.275 26.6907 682.474 Q25.1311 679.673 25.1311 675.822 Q25.1311 671.939 27.1045 669.234 Q29.0779 666.496 32.8336 665.191 Z" fill="#000000" fill-rule="evenodd" fill-opacity="1" /><path clip-path="url(#clip980)" d="M42.3504 598.956 L45.2149 598.956 L45.2149 625.883 Q51.2623 625.501 54.4452 622.255 Q57.5962 618.976 57.5962 613.152 Q57.5962 609.778 56.7687 606.627 Q55.9411 603.444 54.2861 600.325 L59.8242 600.325 Q61.161 603.476 61.8612 606.786 Q62.5615 610.096 62.5615 613.502 Q62.5615 622.032 57.5962 627.029 Q52.631 631.994 44.1646 631.994 Q35.4117 631.994 30.2873 627.284 Q25.1311 622.541 25.1311 614.52 Q25.1311 607.327 29.7781 603.157 Q34.3932 598.956 42.3504 598.956 M40.6316 604.813 Q35.8255 604.876 32.9609 607.518 Q30.0964 610.128 30.0964 614.457 Q30.0964 619.358 32.8654 622.318 Q35.6345 625.246 40.6634 625.692 L40.6316 604.813 Z" fill="#000000" fill-rule="evenodd" fill-opacity="1" /><polyline clip-path="url(#clip982)" style="stroke:#009af9; stroke-linecap:round; stroke-linejoin:round; stroke-width:4; stroke-opacity:1; fill:none" points="279.026,1686.36 442.808,1577.5 606.589,1468.74 770.371,1360.23 934.152,1252.3 1097.93,1145.59 1261.72,1041.39 1425.5,932.429 1589.28,819.345 1753.06,708.553 1916.84,598.749 2080.62,489.392 2244.4,380.246 2408.19,271.22 2571.97,162.3 "/>
<polyline clip-path="url(#clip982)" style="stroke:#e26f46; stroke-linecap:round; stroke-linejoin:round; stroke-width:4; stroke-opacity:1; fill:none" points="279.026,1686.38 442.808,1577.51 606.589,1468.65 770.371,1359.79 934.152,1250.93 1097.93,1142.06 1261.72,1033.2 1425.5,911.668 1589.28,783.294 1753.06,661.786 1916.84,544.511 2080.62,429.962 2244.4,317.218 2408.19,205.689 2571.97,94.9858 "/>
<path clip-path="url(#clip980)" d="M291.255 258.993 L844.027 258.993 L844.027 103.473 L291.255 103.473  Z" fill="#ffffff" fill-rule="evenodd" fill-opacity="1"/>
<polyline clip-path="url(#clip980)" style="stroke:#000000; stroke-linecap:round; stroke-linejoin:round; stroke-width:4; stroke-opacity:1; fill:none" points="291.255,258.993 844.027,258.993 844.027,103.473 291.255,103.473 291.255,258.993 "/>
<polyline clip-path="url(#clip980)" style="stroke:#009af9; stroke-linecap:round; stroke-linejoin:round; stroke-width:4; stroke-opacity:1; fill:none" points="318.261,155.313 480.295,155.313 "/>
<path clip-path="url(#clip980)" d="M529.014 156.945 L529.014 172.593 L524.755 172.593 L524.755 157.084 Q524.755 153.403 523.32 151.575 Q521.884 149.746 519.014 149.746 Q515.565 149.746 513.574 151.945 Q511.584 154.144 511.584 157.94 L511.584 172.593 L507.301 172.593 L507.301 146.667 L511.584 146.667 L511.584 150.695 Q513.111 148.357 515.172 147.2 Q517.255 146.042 519.963 146.042 Q524.431 146.042 526.722 148.82 Q529.014 151.575 529.014 156.945 Z" fill="#000000" fill-rule="evenodd" fill-opacity="1" /><path clip-path="url(#clip980)" d="M547.556 149.653 Q544.13 149.653 542.139 152.339 Q540.148 155.001 540.148 159.653 Q540.148 164.306 542.116 166.991 Q544.107 169.653 547.556 169.653 Q550.958 169.653 552.949 166.968 Q554.94 164.283 554.94 159.653 Q554.94 155.047 552.949 152.362 Q550.958 149.653 547.556 149.653 M547.556 146.042 Q553.111 146.042 556.282 149.653 Q559.454 153.265 559.454 159.653 Q559.454 166.019 556.282 169.653 Q553.111 173.264 547.556 173.264 Q541.977 173.264 538.806 169.653 Q535.658 166.019 535.658 159.653 Q535.658 153.265 538.806 149.653 Q541.977 146.042 547.556 146.042 Z" fill="#000000" fill-rule="evenodd" fill-opacity="1" /><path clip-path="url(#clip980)" d="M586.699 151.644 Q588.296 148.774 590.518 147.408 Q592.741 146.042 595.75 146.042 Q599.801 146.042 602 148.89 Q604.199 151.714 604.199 156.945 L604.199 172.593 L599.916 172.593 L599.916 157.084 Q599.916 153.357 598.597 151.552 Q597.278 149.746 594.569 149.746 Q591.259 149.746 589.338 151.945 Q587.416 154.144 587.416 157.94 L587.416 172.593 L583.134 172.593 L583.134 157.084 Q583.134 153.334 581.815 151.552 Q580.495 149.746 577.741 149.746 Q574.477 149.746 572.555 151.968 Q570.634 154.167 570.634 157.94 L570.634 172.593 L566.352 172.593 L566.352 146.667 L570.634 146.667 L570.634 150.695 Q572.092 148.311 574.13 147.177 Q576.167 146.042 578.967 146.042 Q581.792 146.042 583.759 147.478 Q585.75 148.913 586.699 151.644 Z" fill="#000000" fill-rule="evenodd" fill-opacity="1" /><path clip-path="url(#clip980)" d="M612.694 146.667 L616.953 146.667 L616.953 172.593 L612.694 172.593 L612.694 146.667 M612.694 136.575 L616.953 136.575 L616.953 141.968 L612.694 141.968 L612.694 136.575 Z" fill="#000000" fill-rule="evenodd" fill-opacity="1" /><path clip-path="url(#clip980)" d="M647.416 156.945 L647.416 172.593 L643.157 172.593 L643.157 157.084 Q643.157 153.403 641.722 151.575 Q640.287 149.746 637.416 149.746 Q633.967 149.746 631.976 151.945 Q629.986 154.144 629.986 157.94 L629.986 172.593 L625.703 172.593 L625.703 146.667 L629.986 146.667 L629.986 150.695 Q631.513 148.357 633.574 147.2 Q635.657 146.042 638.365 146.042 Q642.833 146.042 645.125 148.82 Q647.416 151.575 647.416 156.945 Z" fill="#000000" fill-rule="evenodd" fill-opacity="1" /><path clip-path="url(#clip980)" d="M667.694 159.561 Q662.532 159.561 660.541 160.741 Q658.55 161.922 658.55 164.769 Q658.55 167.038 660.032 168.38 Q661.536 169.7 664.106 169.7 Q667.648 169.7 669.777 167.2 Q671.93 164.677 671.93 160.51 L671.93 159.561 L667.694 159.561 M676.189 157.802 L676.189 172.593 L671.93 172.593 L671.93 168.658 Q670.472 171.019 668.296 172.153 Q666.12 173.264 662.972 173.264 Q658.99 173.264 656.629 171.042 Q654.291 168.797 654.291 165.047 Q654.291 160.672 657.208 158.45 Q660.148 156.228 665.958 156.228 L671.93 156.228 L671.93 155.811 Q671.93 152.871 669.985 151.274 Q668.064 149.653 664.569 149.653 Q662.347 149.653 660.24 150.186 Q658.134 150.718 656.189 151.783 L656.189 147.848 Q658.527 146.945 660.726 146.505 Q662.925 146.042 665.009 146.042 Q670.634 146.042 673.411 148.959 Q676.189 151.876 676.189 157.802 Z" fill="#000000" fill-rule="evenodd" fill-opacity="1" /><path clip-path="url(#clip980)" d="M684.962 136.575 L689.221 136.575 L689.221 172.593 L684.962 172.593 L684.962 136.575 Z" fill="#000000" fill-rule="evenodd" fill-opacity="1" /><path clip-path="url(#clip980)" d="M713.203 136.575 L717.462 136.575 L717.462 172.593 L713.203 172.593 L713.203 136.575 Z" fill="#000000" fill-rule="evenodd" fill-opacity="1" /><path clip-path="url(#clip980)" d="M748.55 158.565 L748.55 160.649 L728.967 160.649 Q729.244 165.047 731.606 167.362 Q733.99 169.653 738.226 169.653 Q740.68 169.653 742.971 169.052 Q745.286 168.45 747.555 167.246 L747.555 171.274 Q745.263 172.246 742.855 172.755 Q740.448 173.264 737.971 173.264 Q731.768 173.264 728.133 169.653 Q724.522 166.042 724.522 159.885 Q724.522 153.519 727.948 149.792 Q731.397 146.042 737.23 146.042 Q742.462 146.042 745.494 149.422 Q748.55 152.778 748.55 158.565 M744.291 157.315 Q744.244 153.82 742.323 151.737 Q740.425 149.653 737.277 149.653 Q733.712 149.653 731.559 151.667 Q729.43 153.681 729.106 157.339 L744.291 157.315 Z" fill="#000000" fill-rule="evenodd" fill-opacity="1" /><path clip-path="url(#clip980)" d="M752.485 146.667 L756.999 146.667 L765.101 168.427 L773.203 146.667 L777.716 146.667 L767.994 172.593 L762.207 172.593 L752.485 146.667 Z" fill="#000000" fill-rule="evenodd" fill-opacity="1" /><path clip-path="url(#clip980)" d="M805.772 158.565 L805.772 160.649 L786.189 160.649 Q786.466 165.047 788.827 167.362 Q791.212 169.653 795.448 169.653 Q797.901 169.653 800.193 169.052 Q802.508 168.45 804.776 167.246 L804.776 171.274 Q802.485 172.246 800.077 172.755 Q797.67 173.264 795.193 173.264 Q788.989 173.264 785.355 169.653 Q781.744 166.042 781.744 159.885 Q781.744 153.519 785.17 149.792 Q788.619 146.042 794.452 146.042 Q799.684 146.042 802.716 149.422 Q805.772 152.778 805.772 158.565 M801.513 157.315 Q801.466 153.82 799.545 151.737 Q797.647 149.653 794.499 149.653 Q790.934 149.653 788.781 151.667 Q786.652 153.681 786.327 157.339 L801.513 157.315 Z" fill="#000000" fill-rule="evenodd" fill-opacity="1" /><path clip-path="url(#clip980)" d="M812.763 136.575 L817.022 136.575 L817.022 172.593 L812.763 172.593 L812.763 136.575 Z" fill="#000000" fill-rule="evenodd" fill-opacity="1" /><polyline clip-path="url(#clip980)" style="stroke:#e26f46; stroke-linecap:round; stroke-linejoin:round; stroke-width:4; stroke-opacity:1; fill:none" points="318.261,207.153 480.295,207.153 "/>
<path clip-path="url(#clip980)" d="M522.486 202.489 Q521.769 202.072 520.912 201.887 Q520.079 201.679 519.06 201.679 Q515.449 201.679 513.505 204.04 Q511.584 206.378 511.584 210.776 L511.584 224.433 L507.301 224.433 L507.301 198.507 L511.584 198.507 L511.584 202.535 Q512.926 200.174 515.079 199.04 Q517.232 197.882 520.31 197.882 Q520.75 197.882 521.283 197.952 Q521.815 197.998 522.463 198.114 L522.486 202.489 Z" fill="#000000" fill-rule="evenodd" fill-opacity="1" /><path clip-path="url(#clip980)" d="M548.088 210.405 L548.088 212.489 L528.505 212.489 Q528.783 216.887 531.144 219.202 Q533.528 221.493 537.764 221.493 Q540.218 221.493 542.509 220.892 Q544.824 220.29 547.093 219.086 L547.093 223.114 Q544.801 224.086 542.394 224.595 Q539.986 225.104 537.509 225.104 Q531.306 225.104 527.671 221.493 Q524.06 217.882 524.06 211.725 Q524.06 205.359 527.486 201.632 Q530.935 197.882 536.769 197.882 Q542 197.882 545.032 201.262 Q548.088 204.618 548.088 210.405 M543.829 209.155 Q543.782 205.66 541.861 203.577 Q539.963 201.493 536.815 201.493 Q533.25 201.493 531.097 203.507 Q528.968 205.521 528.644 209.179 L543.829 209.155 Z" fill="#000000" fill-rule="evenodd" fill-opacity="1" /><path clip-path="url(#clip980)" d="M566.861 211.401 Q561.699 211.401 559.708 212.581 Q557.718 213.762 557.718 216.609 Q557.718 218.878 559.199 220.22 Q560.704 221.54 563.273 221.54 Q566.815 221.54 568.944 219.04 Q571.097 216.517 571.097 212.35 L571.097 211.401 L566.861 211.401 M575.356 209.642 L575.356 224.433 L571.097 224.433 L571.097 220.498 Q569.639 222.859 567.463 223.993 Q565.287 225.104 562.139 225.104 Q558.157 225.104 555.796 222.882 Q553.458 220.637 553.458 216.887 Q553.458 212.512 556.375 210.29 Q559.315 208.068 565.125 208.068 L571.097 208.068 L571.097 207.651 Q571.097 204.711 569.153 203.114 Q567.231 201.493 563.736 201.493 Q561.514 201.493 559.407 202.026 Q557.301 202.558 555.356 203.623 L555.356 199.688 Q557.694 198.785 559.893 198.345 Q562.093 197.882 564.176 197.882 Q569.801 197.882 572.579 200.799 Q575.356 203.716 575.356 209.642 Z" fill="#000000" fill-rule="evenodd" fill-opacity="1" /><path clip-path="url(#clip980)" d="M602.787 199.503 L602.787 203.484 Q600.981 202.489 599.153 202.003 Q597.347 201.493 595.495 201.493 Q591.352 201.493 589.06 204.132 Q586.768 206.748 586.768 211.493 Q586.768 216.239 589.06 218.878 Q591.352 221.493 595.495 221.493 Q597.347 221.493 599.153 221.007 Q600.981 220.498 602.787 219.503 L602.787 223.438 Q601.004 224.271 599.083 224.688 Q597.185 225.104 595.032 225.104 Q589.176 225.104 585.727 221.424 Q582.278 217.743 582.278 211.493 Q582.278 205.151 585.75 201.517 Q589.245 197.882 595.31 197.882 Q597.278 197.882 599.153 198.299 Q601.028 198.693 602.787 199.503 Z" fill="#000000" fill-rule="evenodd" fill-opacity="1" /><path clip-path="url(#clip980)" d="M614.407 191.146 L614.407 198.507 L623.18 198.507 L623.18 201.818 L614.407 201.818 L614.407 215.892 Q614.407 219.063 615.264 219.966 Q616.143 220.868 618.805 220.868 L623.18 220.868 L623.18 224.433 L618.805 224.433 Q613.875 224.433 612 222.604 Q610.125 220.753 610.125 215.892 L610.125 201.818 L607 201.818 L607 198.507 L610.125 198.507 L610.125 191.146 L614.407 191.146 Z" fill="#000000" fill-rule="evenodd" fill-opacity="1" /><path clip-path="url(#clip980)" d="M628.782 198.507 L633.041 198.507 L633.041 224.433 L628.782 224.433 L628.782 198.507 M628.782 188.415 L633.041 188.415 L633.041 193.808 L628.782 193.808 L628.782 188.415 Z" fill="#000000" fill-rule="evenodd" fill-opacity="1" /><path clip-path="url(#clip980)" d="M638.898 198.507 L643.412 198.507 L651.513 220.267 L659.615 198.507 L664.129 198.507 L654.407 224.433 L648.62 224.433 L638.898 198.507 Z" fill="#000000" fill-rule="evenodd" fill-opacity="1" /><path clip-path="url(#clip980)" d="M692.184 210.405 L692.184 212.489 L672.601 212.489 Q672.879 216.887 675.24 219.202 Q677.624 221.493 681.86 221.493 Q684.314 221.493 686.606 220.892 Q688.921 220.29 691.189 219.086 L691.189 223.114 Q688.897 224.086 686.49 224.595 Q684.083 225.104 681.606 225.104 Q675.402 225.104 671.768 221.493 Q668.157 217.882 668.157 211.725 Q668.157 205.359 671.583 201.632 Q675.032 197.882 680.865 197.882 Q686.097 197.882 689.129 201.262 Q692.184 204.618 692.184 210.405 M687.925 209.155 Q687.879 205.66 685.958 203.577 Q684.059 201.493 680.911 201.493 Q677.347 201.493 675.194 203.507 Q673.064 205.521 672.74 209.179 L687.925 209.155 Z" fill="#000000" fill-rule="evenodd" fill-opacity="1" /></svg>
