<?xml version="1.0" encoding="utf-8"?>
<svg xmlns="http://www.w3.org/2000/svg" xmlns:xlink="http://www.w3.org/1999/xlink" width="672" height="480" viewBox="0 0 2688 1920">
<defs>
  <clipPath id="clip480">
    <rect x="0" y="0" width="2688" height="1920"/>
  </clipPath>
</defs>
<path clip-path="url(#clip480)" d="M0 1920 L2688 1920 L2688 0 L0 0  Z" fill="#ffffff" fill-rule="evenodd" fill-opacity="1"/>
<defs>
  <clipPath id="clip481">
    <rect x="537" y="0" width="1883" height="1883"/>
  </clipPath>
</defs>
<path clip-path="url(#clip480)" d="M256.302 1734.12 L2640.76 1734.12 L2640.76 47.2441 L256.302 47.2441  Z" fill="#ffffff" fill-rule="evenodd" fill-opacity="1"/>
<defs>
  <clipPath id="clip482">
    <rect x="256" y="47" width="2385" height="1688"/>
  </clipPath>
</defs>
<polyline clip-path="url(#clip482)" style="stroke:#000000; stroke-linecap:round; stroke-linejoin:round; stroke-width:2; stroke-opacity:0.1; fill:none" points="323.787,1734.12 323.787,47.2441 "/>
<polyline clip-path="url(#clip482)" style="stroke:#000000; stroke-linecap:round; stroke-linejoin:round; stroke-width:2; stroke-opacity:0.1; fill:none" points="1027.6,1734.12 1027.6,47.2441 "/>
<polyline clip-path="url(#clip482)" style="stroke:#000000; stroke-linecap:round; stroke-linejoin:round; stroke-width:2; stroke-opacity:0.1; fill:none" points="1731.42,1734.12 1731.42,47.2441 "/>
<polyline clip-path="url(#clip482)" style="stroke:#000000; stroke-linecap:round; stroke-linejoin:round; stroke-width:2; stroke-opacity:0.1; fill:none" points="2435.24,1734.12 2435.24,47.2441 "/>
<polyline clip-path="url(#clip480)" style="stroke:#000000; stroke-linecap:round; stroke-linejoin:round; stroke-width:4; stroke-opacity:1; fill:none" points="256.302,1734.12 2640.76,1734.12 "/>
<polyline clip-path="url(#clip480)" style="stroke:#000000; stroke-linecap:round; stroke-linejoin:round; stroke-width:4; stroke-opacity:1; fill:none" points="323.787,1734.12 323.787,1715.22 "/>
<polyline clip-path="url(#clip480)" style="stroke:#000000; stroke-linecap:round; stroke-linejoin:round; stroke-width:4; stroke-opacity:1; fill:none" points="1027.6,1734.12 1027.6,1715.22 "/>
<polyline clip-path="url(#clip480)" style="stroke:#000000; stroke-linecap:round; stroke-linejoin:round; stroke-width:4; stroke-opacity:1; fill:none" points="1731.42,1734.12 1731.42,1715.22 "/>
<polyline clip-path="url(#clip480)" style="stroke:#000000; stroke-linecap:round; stroke-linejoin:round; stroke-width:4; stroke-opacity:1; fill:none" points="2435.24,1734.12 2435.24,1715.22 "/>
<path clip-path="url(#clip480)" d="M323.787 1767.34 Q320.176 1767.34 318.347 1770.9 Q316.542 1774.45 316.542 1781.58 Q316.542 1788.68 318.347 1792.25 Q320.176 1795.79 323.787 1795.79 Q327.421 1795.79 329.227 1792.25 Q331.055 1788.68 331.055 1781.58 Q331.055 1774.45 329.227 1770.9 Q327.421 1767.34 323.787 1767.34 M323.787 1763.64 Q329.597 1763.64 332.653 1768.24 Q335.731 1772.83 335.731 1781.58 Q335.731 1790.3 332.653 1794.91 Q329.597 1799.49 323.787 1799.49 Q317.977 1799.49 314.898 1794.91 Q311.843 1790.3 311.843 1781.58 Q311.843 1772.83 314.898 1768.24 Q317.977 1763.64 323.787 1763.64 Z" fill="#000000" fill-rule="evenodd" fill-opacity="1" /><path clip-path="url(#clip480)" d="M1002.29 1794.89 L1009.93 1794.89 L1009.93 1768.52 L1001.62 1770.19 L1001.62 1765.93 L1009.88 1764.26 L1014.56 1764.26 L1014.56 1794.89 L1022.2 1794.89 L1022.2 1798.82 L1002.29 1798.82 L1002.29 1794.89 Z" fill="#000000" fill-rule="evenodd" fill-opacity="1" /><path clip-path="url(#clip480)" d="M1041.64 1767.34 Q1038.03 1767.34 1036.2 1770.9 Q1034.4 1774.45 1034.4 1781.58 Q1034.4 1788.68 1036.2 1792.25 Q1038.03 1795.79 1041.64 1795.79 Q1045.28 1795.79 1047.08 1792.25 Q1048.91 1788.68 1048.91 1781.58 Q1048.91 1774.45 1047.08 1770.9 Q1045.28 1767.34 1041.64 1767.34 M1041.64 1763.64 Q1047.45 1763.64 1050.51 1768.24 Q1053.59 1772.83 1053.59 1781.58 Q1053.59 1790.3 1050.51 1794.91 Q1047.45 1799.49 1041.64 1799.49 Q1035.83 1799.49 1032.75 1794.91 Q1029.7 1790.3 1029.7 1781.58 Q1029.7 1772.83 1032.75 1768.24 Q1035.83 1763.64 1041.64 1763.64 Z" fill="#000000" fill-rule="evenodd" fill-opacity="1" /><path clip-path="url(#clip480)" d="M1710.19 1794.89 L1726.51 1794.89 L1726.51 1798.82 L1704.57 1798.82 L1704.57 1794.89 Q1707.23 1792.13 1711.81 1787.5 Q1716.42 1782.85 1717.6 1781.51 Q1719.85 1778.98 1720.73 1777.25 Q1721.63 1775.49 1721.63 1773.8 Q1721.63 1771.04 1719.68 1769.31 Q1717.76 1767.57 1714.66 1767.57 Q1712.46 1767.57 1710.01 1768.34 Q1707.58 1769.1 1704.8 1770.65 L1704.8 1765.93 Q1707.62 1764.79 1710.08 1764.21 Q1712.53 1763.64 1714.57 1763.64 Q1719.94 1763.64 1723.13 1766.32 Q1726.33 1769.01 1726.33 1773.5 Q1726.33 1775.63 1725.52 1777.55 Q1724.73 1779.45 1722.62 1782.04 Q1722.05 1782.71 1718.94 1785.93 Q1715.84 1789.12 1710.19 1794.89 Z" fill="#000000" fill-rule="evenodd" fill-opacity="1" /><path clip-path="url(#clip480)" d="M1746.33 1767.34 Q1742.72 1767.34 1740.89 1770.9 Q1739.08 1774.45 1739.08 1781.58 Q1739.08 1788.68 1740.89 1792.25 Q1742.72 1795.79 1746.33 1795.79 Q1749.96 1795.79 1751.77 1792.25 Q1753.6 1788.68 1753.6 1781.58 Q1753.6 1774.45 1751.77 1770.9 Q1749.96 1767.34 1746.33 1767.34 M1746.33 1763.64 Q1752.14 1763.64 1755.19 1768.24 Q1758.27 1772.83 1758.27 1781.58 Q1758.27 1790.3 1755.19 1794.91 Q1752.14 1799.49 1746.33 1799.49 Q1740.52 1799.49 1737.44 1794.91 Q1734.38 1790.3 1734.38 1781.58 Q1734.38 1772.83 1737.44 1768.24 Q1740.52 1763.64 1746.33 1763.64 Z" fill="#000000" fill-rule="evenodd" fill-opacity="1" /><path clip-path="url(#clip480)" d="M2424.08 1780.19 Q2427.44 1780.9 2429.31 1783.17 Q2431.21 1785.44 2431.21 1788.77 Q2431.21 1793.89 2427.69 1796.69 Q2424.17 1799.49 2417.69 1799.49 Q2415.52 1799.49 2413.2 1799.05 Q2410.91 1798.64 2408.45 1797.78 L2408.45 1793.27 Q2410.4 1794.4 2412.71 1794.98 Q2415.03 1795.56 2417.55 1795.56 Q2421.95 1795.56 2424.24 1793.82 Q2426.56 1792.08 2426.56 1788.77 Q2426.56 1785.72 2424.4 1784.01 Q2422.27 1782.27 2418.45 1782.27 L2414.43 1782.27 L2414.43 1778.43 L2418.64 1778.43 Q2422.09 1778.43 2423.92 1777.06 Q2425.75 1775.67 2425.75 1773.08 Q2425.75 1770.42 2423.85 1769.01 Q2421.97 1767.57 2418.45 1767.57 Q2416.53 1767.57 2414.33 1767.99 Q2412.14 1768.4 2409.5 1769.28 L2409.5 1765.12 Q2412.16 1764.38 2414.47 1764.01 Q2416.81 1763.64 2418.87 1763.64 Q2424.2 1763.64 2427.3 1766.07 Q2430.4 1768.47 2430.4 1772.59 Q2430.4 1775.46 2428.76 1777.46 Q2427.11 1779.42 2424.08 1780.19 Z" fill="#000000" fill-rule="evenodd" fill-opacity="1" /><path clip-path="url(#clip480)" d="M2450.08 1767.34 Q2446.46 1767.34 2444.64 1770.9 Q2442.83 1774.45 2442.83 1781.58 Q2442.83 1788.68 2444.64 1792.25 Q2446.46 1795.79 2450.08 1795.79 Q2453.71 1795.79 2455.51 1792.25 Q2457.34 1788.68 2457.34 1781.58 Q2457.34 1774.45 2455.51 1770.9 Q2453.71 1767.34 2450.08 1767.34 M2450.08 1763.64 Q2455.89 1763.64 2458.94 1768.24 Q2462.02 1772.83 2462.02 1781.58 Q2462.02 1790.3 2458.94 1794.91 Q2455.89 1799.49 2450.08 1799.49 Q2444.26 1799.49 2441.19 1794.91 Q2438.13 1790.3 2438.13 1781.58 Q2438.13 1772.83 2441.19 1768.24 Q2444.26 1763.64 2450.08 1763.64 Z" fill="#000000" fill-rule="evenodd" fill-opacity="1" /><path clip-path="url(#clip480)" d="M1387.69 1837.53 L1387.69 1847.65 L1399.75 1847.65 L1399.75 1852.2 L1387.69 1852.2 L1387.69 1871.56 Q1387.69 1875.92 1388.87 1877.16 Q1390.08 1878.4 1393.74 1878.4 L1399.75 1878.4 L1399.75 1883.3 L1393.74 1883.3 Q1386.96 1883.3 1384.38 1880.79 Q1381.8 1878.24 1381.8 1871.56 L1381.8 1852.2 L1377.5 1852.2 L1377.5 1847.65 L1381.8 1847.65 L1381.8 1837.53 L1387.69 1837.53 Z" fill="#000000" fill-rule="evenodd" fill-opacity="1" /><path clip-path="url(#clip480)" d="M1407.45 1847.65 L1413.31 1847.65 L1413.31 1883.3 L1407.45 1883.3 L1407.45 1847.65 M1407.45 1833.78 L1413.31 1833.78 L1413.31 1841.19 L1407.45 1841.19 L1407.45 1833.78 Z" fill="#000000" fill-rule="evenodd" fill-opacity="1" /><path clip-path="url(#clip480)" d="M1453.32 1854.5 Q1455.52 1850.55 1458.57 1848.67 Q1461.63 1846.79 1465.76 1846.79 Q1471.33 1846.79 1474.36 1850.71 Q1477.38 1854.59 1477.38 1861.78 L1477.38 1883.3 L1471.49 1883.3 L1471.49 1861.98 Q1471.49 1856.85 1469.68 1854.37 Q1467.87 1851.89 1464.14 1851.89 Q1459.59 1851.89 1456.95 1854.91 Q1454.31 1857.93 1454.31 1863.15 L1454.31 1883.3 L1448.42 1883.3 L1448.42 1861.98 Q1448.42 1856.82 1446.6 1854.37 Q1444.79 1851.89 1441 1851.89 Q1436.51 1851.89 1433.87 1854.94 Q1431.23 1857.97 1431.23 1863.15 L1431.23 1883.3 L1425.34 1883.3 L1425.34 1847.65 L1431.23 1847.65 L1431.23 1853.19 Q1433.24 1849.91 1436.04 1848.35 Q1438.84 1846.79 1442.69 1846.79 Q1446.57 1846.79 1449.28 1848.77 Q1452.01 1850.74 1453.32 1854.5 Z" fill="#000000" fill-rule="evenodd" fill-opacity="1" /><path clip-path="url(#clip480)" d="M1519.55 1864.01 L1519.55 1866.88 L1492.63 1866.88 Q1493.01 1872.92 1496.26 1876.11 Q1499.53 1879.26 1505.36 1879.26 Q1508.73 1879.26 1511.88 1878.43 Q1515.07 1877.6 1518.19 1875.95 L1518.19 1881.49 Q1515.03 1882.82 1511.72 1883.52 Q1508.41 1884.22 1505.01 1884.22 Q1496.48 1884.22 1491.48 1879.26 Q1486.52 1874.29 1486.52 1865.83 Q1486.52 1857.07 1491.23 1851.95 Q1495.97 1846.79 1503.99 1846.79 Q1511.18 1846.79 1515.35 1851.44 Q1519.55 1856.06 1519.55 1864.01 M1513.7 1862.29 Q1513.63 1857.49 1510.99 1854.62 Q1508.38 1851.76 1504.05 1851.76 Q1499.15 1851.76 1496.19 1854.53 Q1493.26 1857.3 1492.82 1862.33 L1513.7 1862.29 Z" fill="#000000" fill-rule="evenodd" fill-opacity="1" /><polyline clip-path="url(#clip482)" style="stroke:#000000; stroke-linecap:round; stroke-linejoin:round; stroke-width:2; stroke-opacity:0.1; fill:none" points="256.302,1537.53 2640.76,1537.53 "/>
<polyline clip-path="url(#clip482)" style="stroke:#000000; stroke-linecap:round; stroke-linejoin:round; stroke-width:2; stroke-opacity:0.1; fill:none" points="256.302,1257.49 2640.76,1257.49 "/>
<polyline clip-path="url(#clip482)" style="stroke:#000000; stroke-linecap:round; stroke-linejoin:round; stroke-width:2; stroke-opacity:0.1; fill:none" points="256.302,977.448 2640.76,977.448 "/>
<polyline clip-path="url(#clip482)" style="stroke:#000000; stroke-linecap:round; stroke-linejoin:round; stroke-width:2; stroke-opacity:0.1; fill:none" points="256.302,697.409 2640.76,697.409 "/>
<polyline clip-path="url(#clip482)" style="stroke:#000000; stroke-linecap:round; stroke-linejoin:round; stroke-width:2; stroke-opacity:0.1; fill:none" points="256.302,417.369 2640.76,417.369 "/>
<polyline clip-path="url(#clip482)" style="stroke:#000000; stroke-linecap:round; stroke-linejoin:round; stroke-width:2; stroke-opacity:0.1; fill:none" points="256.302,137.329 2640.76,137.329 "/>
<polyline clip-path="url(#clip480)" style="stroke:#000000; stroke-linecap:round; stroke-linejoin:round; stroke-width:4; stroke-opacity:1; fill:none" points="256.302,1734.12 256.302,47.2441 "/>
<polyline clip-path="url(#clip480)" style="stroke:#000000; stroke-linecap:round; stroke-linejoin:round; stroke-width:4; stroke-opacity:1; fill:none" points="256.302,1537.53 275.2,1537.53 "/>
<polyline clip-path="url(#clip480)" style="stroke:#000000; stroke-linecap:round; stroke-linejoin:round; stroke-width:4; stroke-opacity:1; fill:none" points="256.302,1257.49 275.2,1257.49 "/>
<polyline clip-path="url(#clip480)" style="stroke:#000000; stroke-linecap:round; stroke-linejoin:round; stroke-width:4; stroke-opacity:1; fill:none" points="256.302,977.448 275.2,977.448 "/>
<polyline clip-path="url(#clip480)" style="stroke:#000000; stroke-linecap:round; stroke-linejoin:round; stroke-width:4; stroke-opacity:1; fill:none" points="256.302,697.409 275.2,697.409 "/>
<polyline clip-path="url(#clip480)" style="stroke:#000000; stroke-linecap:round; stroke-linejoin:round; stroke-width:4; stroke-opacity:1; fill:none" points="256.302,417.369 275.2,417.369 "/>
<polyline clip-path="url(#clip480)" style="stroke:#000000; stroke-linecap:round; stroke-linejoin:round; stroke-width:4; stroke-opacity:1; fill:none" points="256.302,137.329 275.2,137.329 "/>
<path clip-path="url(#clip480)" d="M128.83 1523.33 Q125.219 1523.33 123.39 1526.89 Q121.585 1530.43 121.585 1537.56 Q121.585 1544.67 123.39 1548.23 Q125.219 1551.77 128.83 1551.77 Q132.464 1551.77 134.27 1548.23 Q136.099 1544.67 136.099 1537.56 Q136.099 1530.43 134.27 1526.89 Q132.464 1523.33 128.83 1523.33 M128.83 1519.62 Q134.64 1519.62 137.696 1524.23 Q140.774 1528.81 140.774 1537.56 Q140.774 1546.29 137.696 1550.9 Q134.64 1555.48 128.83 1555.48 Q123.02 1555.48 119.941 1550.9 Q116.886 1546.29 116.886 1537.56 Q116.886 1528.81 119.941 1524.23 Q123.02 1519.62 128.83 1519.62 Z" fill="#000000" fill-rule="evenodd" fill-opacity="1" /><path clip-path="url(#clip480)" d="M148.992 1548.93 L153.876 1548.93 L153.876 1554.81 L148.992 1554.81 L148.992 1548.93 Z" fill="#000000" fill-rule="evenodd" fill-opacity="1" /><path clip-path="url(#clip480)" d="M178.228 1536.17 Q181.584 1536.89 183.459 1539.16 Q185.358 1541.43 185.358 1544.76 Q185.358 1549.88 181.839 1552.68 Q178.321 1555.48 171.839 1555.48 Q169.663 1555.48 167.348 1555.04 Q165.057 1554.62 162.603 1553.77 L162.603 1549.25 Q164.548 1550.39 166.862 1550.96 Q169.177 1551.54 171.7 1551.54 Q176.098 1551.54 178.39 1549.81 Q180.705 1548.07 180.705 1544.76 Q180.705 1541.71 178.552 1539.99 Q176.422 1538.26 172.603 1538.26 L168.575 1538.26 L168.575 1534.41 L172.788 1534.41 Q176.237 1534.41 178.066 1533.05 Q179.895 1531.66 179.895 1529.07 Q179.895 1526.4 177.997 1524.99 Q176.122 1523.56 172.603 1523.56 Q170.682 1523.56 168.483 1523.97 Q166.284 1524.39 163.645 1525.27 L163.645 1521.1 Q166.307 1520.36 168.622 1519.99 Q170.96 1519.62 173.02 1519.62 Q178.344 1519.62 181.446 1522.05 Q184.547 1524.46 184.547 1528.58 Q184.547 1531.45 182.904 1533.44 Q181.26 1535.41 178.228 1536.17 Z" fill="#000000" fill-rule="evenodd" fill-opacity="1" /><path clip-path="url(#clip480)" d="M194.362 1554.09 L194.362 1549.83 Q196.121 1550.66 197.927 1551.1 Q199.733 1551.54 201.469 1551.54 Q206.098 1551.54 208.529 1548.44 Q210.982 1545.32 211.33 1538.97 Q209.987 1540.96 207.927 1542.03 Q205.867 1543.09 203.367 1543.09 Q198.182 1543.09 195.149 1539.97 Q192.14 1536.82 192.14 1531.38 Q192.14 1526.06 195.288 1522.84 Q198.436 1519.62 203.668 1519.62 Q209.663 1519.62 212.811 1524.23 Q215.982 1528.81 215.982 1537.56 Q215.982 1545.73 212.094 1550.62 Q208.228 1555.48 201.677 1555.48 Q199.918 1555.48 198.112 1555.13 Q196.307 1554.78 194.362 1554.09 M203.668 1539.44 Q206.816 1539.44 208.645 1537.28 Q210.496 1535.13 210.496 1531.38 Q210.496 1527.65 208.645 1525.5 Q206.816 1523.33 203.668 1523.33 Q200.52 1523.33 198.668 1525.5 Q196.839 1527.65 196.839 1531.38 Q196.839 1535.13 198.668 1537.28 Q200.52 1539.44 203.668 1539.44 Z" fill="#000000" fill-rule="evenodd" fill-opacity="1" /><path clip-path="url(#clip480)" d="M128.645 1243.29 Q125.034 1243.29 123.205 1246.85 Q121.4 1250.39 121.4 1257.52 Q121.4 1264.63 123.205 1268.19 Q125.034 1271.74 128.645 1271.74 Q132.279 1271.74 134.085 1268.19 Q135.913 1264.63 135.913 1257.52 Q135.913 1250.39 134.085 1246.85 Q132.279 1243.29 128.645 1243.29 M128.645 1239.58 Q134.455 1239.58 137.511 1244.19 Q140.589 1248.77 140.589 1257.52 Q140.589 1266.25 137.511 1270.86 Q134.455 1275.44 128.645 1275.44 Q122.835 1275.44 119.756 1270.86 Q116.701 1266.25 116.701 1257.52 Q116.701 1248.77 119.756 1244.19 Q122.835 1239.58 128.645 1239.58 Z" fill="#000000" fill-rule="evenodd" fill-opacity="1" /><path clip-path="url(#clip480)" d="M148.807 1268.89 L153.691 1268.89 L153.691 1274.77 L148.807 1274.77 L148.807 1268.89 Z" fill="#000000" fill-rule="evenodd" fill-opacity="1" /><path clip-path="url(#clip480)" d="M176.723 1244.28 L164.918 1262.73 L176.723 1262.73 L176.723 1244.28 M175.497 1240.21 L181.376 1240.21 L181.376 1262.73 L186.307 1262.73 L186.307 1266.62 L181.376 1266.62 L181.376 1274.77 L176.723 1274.77 L176.723 1266.62 L161.122 1266.62 L161.122 1262.11 L175.497 1240.21 Z" fill="#000000" fill-rule="evenodd" fill-opacity="1" /><path clip-path="url(#clip480)" d="M204.038 1243.29 Q200.427 1243.29 198.598 1246.85 Q196.793 1250.39 196.793 1257.52 Q196.793 1264.63 198.598 1268.19 Q200.427 1271.74 204.038 1271.74 Q207.672 1271.74 209.478 1268.19 Q211.307 1264.63 211.307 1257.52 Q211.307 1250.39 209.478 1246.85 Q207.672 1243.29 204.038 1243.29 M204.038 1239.58 Q209.848 1239.58 212.904 1244.19 Q215.982 1248.77 215.982 1257.52 Q215.982 1266.25 212.904 1270.86 Q209.848 1275.44 204.038 1275.44 Q198.228 1275.44 195.149 1270.86 Q192.094 1266.25 192.094 1257.52 Q192.094 1248.77 195.149 1244.19 Q198.228 1239.58 204.038 1239.58 Z" fill="#000000" fill-rule="evenodd" fill-opacity="1" /><path clip-path="url(#clip480)" d="M129.872 963.247 Q126.261 963.247 124.432 966.812 Q122.626 970.353 122.626 977.483 Q122.626 984.589 124.432 988.154 Q126.261 991.696 129.872 991.696 Q133.506 991.696 135.312 988.154 Q137.14 984.589 137.14 977.483 Q137.14 970.353 135.312 966.812 Q133.506 963.247 129.872 963.247 M129.872 959.543 Q135.682 959.543 138.737 964.15 Q141.816 968.733 141.816 977.483 Q141.816 986.21 138.737 990.816 Q135.682 995.399 129.872 995.399 Q124.062 995.399 120.983 990.816 Q117.927 986.21 117.927 977.483 Q117.927 968.733 120.983 964.15 Q124.062 959.543 129.872 959.543 Z" fill="#000000" fill-rule="evenodd" fill-opacity="1" /><path clip-path="url(#clip480)" d="M150.034 988.849 L154.918 988.849 L154.918 994.728 L150.034 994.728 L150.034 988.849 Z" fill="#000000" fill-rule="evenodd" fill-opacity="1" /><path clip-path="url(#clip480)" d="M177.95 964.242 L166.145 982.691 L177.95 982.691 L177.95 964.242 M176.723 960.168 L182.603 960.168 L182.603 982.691 L187.534 982.691 L187.534 986.58 L182.603 986.58 L182.603 994.728 L177.95 994.728 L177.95 986.58 L162.348 986.58 L162.348 982.066 L176.723 960.168 Z" fill="#000000" fill-rule="evenodd" fill-opacity="1" /><path clip-path="url(#clip480)" d="M196.075 990.793 L203.714 990.793 L203.714 964.427 L195.404 966.094 L195.404 961.835 L203.668 960.168 L208.344 960.168 L208.344 990.793 L215.982 990.793 L215.982 994.728 L196.075 994.728 L196.075 990.793 Z" fill="#000000" fill-rule="evenodd" fill-opacity="1" /><path clip-path="url(#clip480)" d="M130.242 683.207 Q126.631 683.207 124.802 686.772 Q122.997 690.314 122.997 697.443 Q122.997 704.55 124.802 708.114 Q126.631 711.656 130.242 711.656 Q133.876 711.656 135.682 708.114 Q137.511 704.55 137.511 697.443 Q137.511 690.314 135.682 686.772 Q133.876 683.207 130.242 683.207 M130.242 679.504 Q136.052 679.504 139.108 684.11 Q142.187 688.693 142.187 697.443 Q142.187 706.17 139.108 710.776 Q136.052 715.36 130.242 715.36 Q124.432 715.36 121.353 710.776 Q118.298 706.17 118.298 697.443 Q118.298 688.693 121.353 684.11 Q124.432 679.504 130.242 679.504 Z" fill="#000000" fill-rule="evenodd" fill-opacity="1" /><path clip-path="url(#clip480)" d="M150.404 708.809 L155.288 708.809 L155.288 714.689 L150.404 714.689 L150.404 708.809 Z" fill="#000000" fill-rule="evenodd" fill-opacity="1" /><path clip-path="url(#clip480)" d="M178.321 684.203 L166.515 702.652 L178.321 702.652 L178.321 684.203 M177.094 680.129 L182.973 680.129 L182.973 702.652 L187.904 702.652 L187.904 706.54 L182.973 706.54 L182.973 714.689 L178.321 714.689 L178.321 706.54 L162.719 706.54 L162.719 702.027 L177.094 680.129 Z" fill="#000000" fill-rule="evenodd" fill-opacity="1" /><path clip-path="url(#clip480)" d="M199.663 710.753 L215.982 710.753 L215.982 714.689 L194.038 714.689 L194.038 710.753 Q196.7 707.999 201.283 703.369 Q205.89 698.716 207.07 697.374 Q209.316 694.851 210.195 693.115 Q211.098 691.355 211.098 689.665 Q211.098 686.911 209.154 685.175 Q207.232 683.439 204.131 683.439 Q201.932 683.439 199.478 684.203 Q197.047 684.966 194.27 686.517 L194.27 681.795 Q197.094 680.661 199.547 680.082 Q202.001 679.504 204.038 679.504 Q209.408 679.504 212.603 682.189 Q215.797 684.874 215.797 689.365 Q215.797 691.494 214.987 693.415 Q214.2 695.314 212.094 697.906 Q211.515 698.577 208.413 701.795 Q205.311 704.989 199.663 710.753 Z" fill="#000000" fill-rule="evenodd" fill-opacity="1" /><path clip-path="url(#clip480)" d="M129.293 403.168 Q125.682 403.168 123.853 406.732 Q122.048 410.274 122.048 417.404 Q122.048 424.51 123.853 428.075 Q125.682 431.617 129.293 431.617 Q132.927 431.617 134.733 428.075 Q136.562 424.51 136.562 417.404 Q136.562 410.274 134.733 406.732 Q132.927 403.168 129.293 403.168 M129.293 399.464 Q135.103 399.464 138.159 404.07 Q141.237 408.654 141.237 417.404 Q141.237 426.13 138.159 430.737 Q135.103 435.32 129.293 435.32 Q123.483 435.32 120.404 430.737 Q117.349 426.13 117.349 417.404 Q117.349 408.654 120.404 404.07 Q123.483 399.464 129.293 399.464 Z" fill="#000000" fill-rule="evenodd" fill-opacity="1" /><path clip-path="url(#clip480)" d="M149.455 428.769 L154.339 428.769 L154.339 434.649 L149.455 434.649 L149.455 428.769 Z" fill="#000000" fill-rule="evenodd" fill-opacity="1" /><path clip-path="url(#clip480)" d="M177.372 404.163 L165.566 422.612 L177.372 422.612 L177.372 404.163 M176.145 400.089 L182.024 400.089 L182.024 422.612 L186.955 422.612 L186.955 426.501 L182.024 426.501 L182.024 434.649 L177.372 434.649 L177.372 426.501 L161.77 426.501 L161.77 421.987 L176.145 400.089 Z" fill="#000000" fill-rule="evenodd" fill-opacity="1" /><path clip-path="url(#clip480)" d="M208.853 416.015 Q212.209 416.732 214.084 419.001 Q215.982 421.269 215.982 424.603 Q215.982 429.718 212.464 432.519 Q208.945 435.32 202.464 435.32 Q200.288 435.32 197.973 434.88 Q195.682 434.464 193.228 433.607 L193.228 429.093 Q195.172 430.228 197.487 430.806 Q199.802 431.385 202.325 431.385 Q206.723 431.385 209.015 429.649 Q211.33 427.913 211.33 424.603 Q211.33 421.547 209.177 419.834 Q207.047 418.098 203.228 418.098 L199.2 418.098 L199.2 414.256 L203.413 414.256 Q206.862 414.256 208.691 412.89 Q210.519 411.501 210.519 408.908 Q210.519 406.246 208.621 404.834 Q206.746 403.399 203.228 403.399 Q201.307 403.399 199.108 403.816 Q196.908 404.232 194.27 405.112 L194.27 400.945 Q196.932 400.205 199.246 399.834 Q201.584 399.464 203.645 399.464 Q208.969 399.464 212.07 401.894 Q215.172 404.302 215.172 408.422 Q215.172 411.293 213.529 413.283 Q211.885 415.251 208.853 416.015 Z" fill="#000000" fill-rule="evenodd" fill-opacity="1" /><path clip-path="url(#clip480)" d="M128.159 123.128 Q124.548 123.128 122.719 126.693 Q120.913 130.234 120.913 137.364 Q120.913 144.47 122.719 148.035 Q124.548 151.577 128.159 151.577 Q131.793 151.577 133.599 148.035 Q135.427 144.47 135.427 137.364 Q135.427 130.234 133.599 126.693 Q131.793 123.128 128.159 123.128 M128.159 119.424 Q133.969 119.424 137.025 124.031 Q140.103 128.614 140.103 137.364 Q140.103 146.091 137.025 150.697 Q133.969 155.281 128.159 155.281 Q122.349 155.281 119.27 150.697 Q116.214 146.091 116.214 137.364 Q116.214 128.614 119.27 124.031 Q122.349 119.424 128.159 119.424 Z" fill="#000000" fill-rule="evenodd" fill-opacity="1" /><path clip-path="url(#clip480)" d="M148.321 148.73 L153.205 148.73 L153.205 154.609 L148.321 154.609 L148.321 148.73 Z" fill="#000000" fill-rule="evenodd" fill-opacity="1" /><path clip-path="url(#clip480)" d="M176.237 124.123 L164.432 142.572 L176.237 142.572 L176.237 124.123 M175.01 120.049 L180.89 120.049 L180.89 142.572 L185.821 142.572 L185.821 146.461 L180.89 146.461 L180.89 154.609 L176.237 154.609 L176.237 146.461 L160.636 146.461 L160.636 141.947 L175.01 120.049 Z" fill="#000000" fill-rule="evenodd" fill-opacity="1" /><path clip-path="url(#clip480)" d="M206.399 124.123 L194.594 142.572 L206.399 142.572 L206.399 124.123 M205.172 120.049 L211.052 120.049 L211.052 142.572 L215.982 142.572 L215.982 146.461 L211.052 146.461 L211.052 154.609 L206.399 154.609 L206.399 146.461 L190.797 146.461 L190.797 141.947 L205.172 120.049 Z" fill="#000000" fill-rule="evenodd" fill-opacity="1" /><path clip-path="url(#clip480)" d="M27.0408 959.08 L32.579 959.08 Q31.3059 961.563 30.6693 964.236 Q30.0327 966.91 30.0327 969.774 Q30.0327 974.135 31.3695 976.331 Q32.7063 978.495 35.3799 978.495 Q37.4169 978.495 38.5946 976.936 Q39.7404 975.376 40.7908 970.666 L41.2364 968.66 Q42.5732 962.422 45.0239 959.812 Q47.4429 957.17 51.8034 957.17 Q56.7687 957.17 59.6651 961.117 Q62.5615 965.032 62.5615 971.907 Q62.5615 974.772 61.9886 977.891 Q61.4475 980.978 60.3335 984.416 L54.2861 984.416 Q55.973 981.169 56.8323 978.018 Q57.6599 974.867 57.6599 971.78 Q57.6599 967.642 56.2594 965.414 Q54.8271 963.186 52.249 963.186 Q49.8619 963.186 48.5887 964.809 Q47.3156 966.401 46.1379 971.843 L45.6605 973.88 Q44.5147 979.323 42.1594 981.742 Q39.7722 984.161 35.6345 984.161 Q30.6056 984.161 27.8684 980.596 Q25.1311 977.031 25.1311 970.475 Q25.1311 967.228 25.6085 964.364 Q26.086 961.499 27.0408 959.08 Z" fill="#000000" fill-rule="evenodd" fill-opacity="1" /><path clip-path="url(#clip480)" d="M56.2912 942.179 L75.1974 942.179 L75.1974 948.067 L25.9905 948.067 L25.9905 942.179 L31.4013 942.179 Q28.2185 940.333 26.6907 937.532 Q25.1311 934.699 25.1311 930.784 Q25.1311 924.291 30.2873 920.249 Q35.4436 916.175 43.8463 916.175 Q52.249 916.175 57.4052 920.249 Q62.5615 924.291 62.5615 930.784 Q62.5615 934.699 61.0337 937.532 Q59.4741 940.333 56.2912 942.179 M43.8463 922.254 Q37.3851 922.254 33.7248 924.928 Q30.0327 927.57 30.0327 932.217 Q30.0327 936.864 33.7248 939.537 Q37.3851 942.179 43.8463 942.179 Q50.3075 942.179 53.9996 939.537 Q57.6599 936.864 57.6599 932.217 Q57.6599 927.57 53.9996 924.928 Q50.3075 922.254 43.8463 922.254 Z" fill="#000000" fill-rule="evenodd" fill-opacity="1" /><path clip-path="url(#clip480)" d="M42.3504 875.976 L45.2149 875.976 L45.2149 902.903 Q51.2623 902.521 54.4452 899.274 Q57.5962 895.996 57.5962 890.171 Q57.5962 886.797 56.7687 883.646 Q55.9411 880.464 54.2861 877.344 L59.8242 877.344 Q61.161 880.495 61.8612 883.806 Q62.5615 887.116 62.5615 890.521 Q62.5615 899.051 57.5962 904.049 Q52.631 909.014 44.1646 909.014 Q35.4117 909.014 30.2873 904.303 Q25.1311 899.561 25.1311 891.54 Q25.1311 884.347 29.7781 880.177 Q34.3932 875.976 42.3504 875.976 M40.6316 881.832 Q35.8255 881.896 32.9609 884.538 Q30.0964 887.148 30.0964 891.476 Q30.0964 896.378 32.8654 899.338 Q35.6345 902.266 40.6634 902.712 L40.6316 881.832 Z" fill="#000000" fill-rule="evenodd" fill-opacity="1" /><path clip-path="url(#clip480)" d="M42.3504 835.872 L45.2149 835.872 L45.2149 862.799 Q51.2623 862.417 54.4452 859.17 Q57.5962 855.892 57.5962 850.067 Q57.5962 846.694 56.7687 843.542 Q55.9411 840.36 54.2861 837.24 L59.8242 837.24 Q61.161 840.391 61.8612 843.702 Q62.5615 847.012 62.5615 850.417 Q62.5615 858.947 57.5962 863.945 Q52.631 868.91 44.1646 868.91 Q35.4117 868.91 30.2873 864.199 Q25.1311 859.457 25.1311 851.436 Q25.1311 844.243 29.7781 840.073 Q34.3932 835.872 42.3504 835.872 M40.6316 841.728 Q35.8255 841.792 32.9609 844.434 Q30.0964 847.044 30.0964 851.372 Q30.0964 856.274 32.8654 859.234 Q35.6345 862.162 40.6634 862.608 L40.6316 841.728 Z" fill="#000000" fill-rule="evenodd" fill-opacity="1" /><path clip-path="url(#clip480)" d="M31.4013 802.802 L12.1132 802.802 L12.1132 796.946 L61.6384 796.946 L61.6384 802.802 L56.2912 802.802 Q59.4741 804.648 61.0337 807.481 Q62.5615 810.282 62.5615 814.228 Q62.5615 820.69 57.4052 824.764 Q52.249 828.806 43.8463 828.806 Q35.4436 828.806 30.2873 824.764 Q25.1311 820.69 25.1311 814.228 Q25.1311 810.282 26.6907 807.481 Q28.2185 804.648 31.4013 802.802 M43.8463 822.758 Q50.3075 822.758 53.9996 820.117 Q57.6599 817.443 57.6599 812.796 Q57.6599 808.149 53.9996 805.476 Q50.3075 802.802 43.8463 802.802 Q37.3851 802.802 33.7248 805.476 Q30.0327 808.149 30.0327 812.796 Q30.0327 817.443 33.7248 820.117 Q37.3851 822.758 43.8463 822.758 Z" fill="#000000" fill-rule="evenodd" fill-opacity="1" /><polyline clip-path="url(#clip482)" style="stroke:#009af9; stroke-linecap:round; stroke-linejoin:round; stroke-width:4; stroke-opacity:1; fill:none" points="323.787,963.264 534.932,963.264 656.76,966.696 778.575,960.348 900.275,940.14 1021.69,893.157 1142.46,789.764 1261.86,566.603 1378.46,94.9858 1500.38,1686.38 1626.92,1296.42 1750.89,1123.76 1873.76,1045.62 1996.12,1009.29 2118.25,990.837 2240.25,978.219 2362.13,963.264 2573.27,963.264 "/>
<circle clip-path="url(#clip482)" cx="323.787" cy="963.264" r="14.4" fill="#009af9" fill-rule="evenodd" fill-opacity="0.2" stroke="#000000" stroke-opacity="0.2" stroke-width="3.84"/>
<circle clip-path="url(#clip482)" cx="534.932" cy="963.264" r="14.4" fill="#009af9" fill-rule="evenodd" fill-opacity="0.2" stroke="#000000" stroke-opacity="0.2" stroke-width="3.84"/>
<circle clip-path="url(#clip482)" cx="656.76" cy="966.696" r="14.4" fill="#009af9" fill-rule="evenodd" fill-opacity="0.2" stroke="#000000" stroke-opacity="0.2" stroke-width="3.84"/>
<circle clip-path="url(#clip482)" cx="778.575" cy="960.348" r="14.4" fill="#009af9" fill-rule="evenodd" fill-opacity="0.2" stroke="#000000" stroke-opacity="0.2" stroke-width="3.84"/>
<circle clip-path="url(#clip482)" cx="900.275" cy="940.14" r="14.4" fill="#009af9" fill-rule="evenodd" fill-opacity="0.2" stroke="#000000" stroke-opacity="0.2" stroke-width="3.84"/>
<circle clip-path="url(#clip482)" cx="1021.69" cy="893.157" r="14.4" fill="#009af9" fill-rule="evenodd" fill-opacity="0.2" stroke="#000000" stroke-opacity="0.2" stroke-width="3.84"/>
<circle clip-path="url(#clip482)" cx="1142.46" cy="789.764" r="14.4" fill="#009af9" fill-rule="evenodd" fill-opacity="0.2" stroke="#000000" stroke-opacity="0.2" stroke-width="3.84"/>
<circle clip-path="url(#clip482)" cx="1261.86" cy="566.603" r="14.4" fill="#009af9" fill-rule="evenodd" fill-opacity="0.2" stroke="#000000" stroke-opacity="0.2" stroke-width="3.84"/>
<circle clip-path="url(#clip482)" cx="1378.46" cy="94.9858" r="14.4" fill="#009af9" fill-rule="evenodd" fill-opacity="0.2" stroke="#000000" stroke-opacity="0.2" stroke-width="3.84"/>
<circle clip-path="url(#clip482)" cx="1500.38" cy="1686.38" r="14.4" fill="#009af9" fill-rule="evenodd" fill-opacity="0.2" stroke="#000000" stroke-opacity="0.2" stroke-width="3.84"/>
<circle clip-path="url(#clip482)" cx="1626.92" cy="1296.42" r="14.4" fill="#009af9" fill-rule="evenodd" fill-opacity="0.2" stroke="#000000" stroke-opacity="0.2" stroke-width="3.84"/>
<circle clip-path="url(#clip482)" cx="1750.89" cy="1123.76" r="14.4" fill="#009af9" fill-rule="evenodd" fill-opacity="0.2" stroke="#000000" stroke-opacity="0.2" stroke-width="3.84"/>
<circle clip-path="url(#clip482)" cx="1873.76" cy="1045.62" r="14.4" fill="#009af9" fill-rule="evenodd" fill-opacity="0.2" stroke="#000000" stroke-opacity="0.2" stroke-width="3.84"/>
<circle clip-path="url(#clip482)" cx="1996.12" cy="1009.29" r="14.4" fill="#009af9" fill-rule="evenodd" fill-opacity="0.2" stroke="#000000" stroke-opacity="0.2" stroke-width="3.84"/>
<circle clip-path="url(#clip482)" cx="2118.25" cy="990.837" r="14.4" fill="#009af9" fill-rule="evenodd" fill-opacity="0.2" stroke="#000000" stroke-opacity="0.2" stroke-width="3.84"/>
<circle clip-path="url(#clip482)" cx="2240.25" cy="978.219" r="14.4" fill="#009af9" fill-rule="evenodd" fill-opacity="0.2" stroke="#000000" stroke-opacity="0.2" stroke-width="3.84"/>
<circle clip-path="url(#clip482)" cx="2362.13" cy="963.264" r="14.4" fill="#009af9" fill-rule="evenodd" fill-opacity="0.2" stroke="#000000" stroke-opacity="0.2" stroke-width="3.84"/>
<circle clip-path="url(#clip482)" cx="2573.27" cy="963.264" r="14.4" fill="#009af9" fill-rule="evenodd" fill-opacity="0.2" stroke="#000000" stroke-opacity="0.2" stroke-width="3.84"/>
<polyline clip-path="url(#clip482)" style="stroke:#e26f46; stroke-linecap:round; stroke-linejoin:round; stroke-width:4; stroke-opacity:1; fill:none" points="323.787,963.264 534.932,963.264 656.689,950.355 778.414,946.357 900.123,943.779 1021.8,937.782 1143.39,917.125 1264.63,843.289 1384.68,581.035 1508.32,1435.97 1631.26,1084.9 1753.31,984.571 1875.11,956.542 1996.86,948.99 2118.59,947.795 2240.33,950.719 2362.13,963.264 2573.27,963.264 "/>
<circle clip-path="url(#clip482)" cx="323.787" cy="963.264" r="14.4" fill="#e26f46" fill-rule="evenodd" fill-opacity="0.2" stroke="#000000" stroke-opacity="0.2" stroke-width="3.84"/>
<circle clip-path="url(#clip482)" cx="534.932" cy="963.264" r="14.4" fill="#e26f46" fill-rule="evenodd" fill-opacity="0.2" stroke="#000000" stroke-opacity="0.2" stroke-width="3.84"/>
<circle clip-path="url(#clip482)" cx="656.689" cy="950.355" r="14.4" fill="#e26f46" fill-rule="evenodd" fill-opacity="0.2" stroke="#000000" stroke-opacity="0.2" stroke-width="3.84"/>
<circle clip-path="url(#clip482)" cx="778.414" cy="946.357" r="14.4" fill="#e26f46" fill-rule="evenodd" fill-opacity="0.2" stroke="#000000" stroke-opacity="0.2" stroke-width="3.84"/>
<circle clip-path="url(#clip482)" cx="900.123" cy="943.779" r="14.4" fill="#e26f46" fill-rule="evenodd" fill-opacity="0.2" stroke="#000000" stroke-opacity="0.2" stroke-width="3.84"/>
<circle clip-path="url(#clip482)" cx="1021.8" cy="937.782" r="14.4" fill="#e26f46" fill-rule="evenodd" fill-opacity="0.2" stroke="#000000" stroke-opacity="0.2" stroke-width="3.84"/>
<circle clip-path="url(#clip482)" cx="1143.39" cy="917.125" r="14.4" fill="#e26f46" fill-rule="evenodd" fill-opacity="0.2" stroke="#000000" stroke-opacity="0.2" stroke-width="3.84"/>
<circle clip-path="url(#clip482)" cx="1264.63" cy="843.289" r="14.4" fill="#e26f46" fill-rule="evenodd" fill-opacity="0.2" stroke="#000000" stroke-opacity="0.2" stroke-width="3.84"/>
<circle clip-path="url(#clip482)" cx="1384.68" cy="581.035" r="14.4" fill="#e26f46" fill-rule="evenodd" fill-opacity="0.2" stroke="#000000" stroke-opacity="0.2" stroke-width="3.84"/>
<circle clip-path="url(#clip482)" cx="1508.32" cy="1435.97" r="14.4" fill="#e26f46" fill-rule="evenodd" fill-opacity="0.2" stroke="#000000" stroke-opacity="0.2" stroke-width="3.84"/>
<circle clip-path="url(#clip482)" cx="1631.26" cy="1084.9" r="14.4" fill="#e26f46" fill-rule="evenodd" fill-opacity="0.2" stroke="#000000" stroke-opacity="0.2" stroke-width="3.84"/>
<circle clip-path="url(#clip482)" cx="1753.31" cy="984.571" r="14.4" fill="#e26f46" fill-rule="evenodd" fill-opacity="0.2" stroke="#000000" stroke-opacity="0.2" stroke-width="3.84"/>
<circle clip-path="url(#clip482)" cx="1875.11" cy="956.542" r="14.4" fill="#e26f46" fill-rule="evenodd" fill-opacity="0.2" stroke="#000000" stroke-opacity="0.2" stroke-width="3.84"/>
<circle clip-path="url(#clip482)" cx="1996.86" cy="948.99" r="14.4" fill="#e26f46" fill-rule="evenodd" fill-opacity="0.2" stroke="#000000" stroke-opacity="0.2" stroke-width="3.84"/>
<circle clip-path="url(#clip482)" cx="2118.59" cy="947.795" r="14.4" fill="#e26f46" fill-rule="evenodd" fill-opacity="0.2" stroke="#000000" stroke-opacity="0.2" stroke-width="3.84"/>
<circle clip-path="url(#clip482)" cx="2240.33" cy="950.719" r="14.4" fill="#e26f46" fill-rule="evenodd" fill-opacity="0.2" stroke="#000000" stroke-opacity="0.2" stroke-width="3.84"/>
<circle clip-path="url(#clip482)" cx="2362.13" cy="963.264" r="14.4" fill="#e26f46" fill-rule="evenodd" fill-opacity="0.2" stroke="#000000" stroke-opacity="0.2" stroke-width="3.84"/>
<circle clip-path="url(#clip482)" cx="2573.27" cy="963.264" r="14.4" fill="#e26f46" fill-rule="evenodd" fill-opacity="0.2" stroke="#000000" stroke-opacity="0.2" stroke-width="3.84"/>
</svg>
