<?xml version="1.0" encoding="utf-8"?>
<svg xmlns="http://www.w3.org/2000/svg" xmlns:xlink="http://www.w3.org/1999/xlink" width="672" height="480" viewBox="0 0 2688 1920">
<defs>
  <clipPath id="clip250">
    <rect x="0" y="0" width="2688" height="1920"/>
  </clipPath>
</defs>
<path clip-path="url(#clip250)" d="M0 1920 L2688 1920 L2688 0 L0 0  Z" fill="#ffffff" fill-rule="evenodd" fill-opacity="1"/>
<defs>
  <clipPath id="clip251">
    <rect x="537" y="0" width="1883" height="1883"/>
  </clipPath>
</defs>
<path clip-path="url(#clip250)" d="M210.238 1734.12 L2640.76 1734.12 L2640.76 47.2441 L210.238 47.2441  Z" fill="#ffffff" fill-rule="evenodd" fill-opacity="1"/>
<defs>
  <clipPath id="clip252">
    <rect x="210" y="47" width="2432" height="1688"/>
  </clipPath>
</defs>
<polyline clip-path="url(#clip252)" style="stroke:#000000; stroke-linecap:round; stroke-linejoin:round; stroke-width:2; stroke-opacity:0.1; fill:none" points="442.808,1734.12 442.808,47.2441 "/>
<polyline clip-path="url(#clip252)" style="stroke:#000000; stroke-linecap:round; stroke-linejoin:round; stroke-width:2; stroke-opacity:0.1; fill:none" points="770.371,1734.12 770.371,47.2441 "/>
<polyline clip-path="url(#clip252)" style="stroke:#000000; stroke-linecap:round; stroke-linejoin:round; stroke-width:2; stroke-opacity:0.1; fill:none" points="1097.93,1734.12 1097.93,47.2441 "/>
<polyline clip-path="url(#clip252)" style="stroke:#000000; stroke-linecap:round; stroke-linejoin:round; stroke-width:2; stroke-opacity:0.1; fill:none" points="1425.5,1734.12 1425.5,47.2441 "/>
<polyline clip-path="url(#clip252)" style="stroke:#000000; stroke-linecap:round; stroke-linejoin:round; stroke-width:2; stroke-opacity:0.1; fill:none" points="1753.06,1734.12 1753.06,47.2441 "/>
<polyline clip-path="url(#clip252)" style="stroke:#000000; stroke-linecap:round; stroke-linejoin:round; stroke-width:2; stroke-opacity:0.1; fill:none" points="2080.62,1734.12 2080.62,47.2441 "/>
<polyline clip-path="url(#clip252)" style="stroke:#000000; stroke-linecap:round; stroke-linejoin:round; stroke-width:2; stroke-opacity:0.1; fill:none" points="2408.19,1734.12 2408.19,47.2441 "/>
<polyline clip-path="url(#clip250)" style="stroke:#000000; stroke-linecap:round; stroke-linejoin:round; stroke-width:4; stroke-opacity:1; fill:none" points="210.238,1734.12 2640.76,1734.12 "/>
<polyline clip-path="url(#clip250)" style="stroke:#000000; stroke-linecap:round; stroke-linejoin:round; stroke-width:4; stroke-opacity:1; fill:none" points="442.808,1734.12 442.808,1715.22 "/>
<polyline clip-path="url(#clip250)" style="stroke:#000000; stroke-linecap:round; stroke-linejoin:round; stroke-width:4; stroke-opacity:1; fill:none" points="770.371,1734.12 770.371,1715.22 "/>
<polyline clip-path="url(#clip250)" style="stroke:#000000; stroke-linecap:round; stroke-linejoin:round; stroke-width:4; stroke-opacity:1; fill:none" points="1097.93,1734.12 1097.93,1715.22 "/>
<polyline clip-path="url(#clip250)" style="stroke:#000000; stroke-linecap:round; stroke-linejoin:round; stroke-width:4; stroke-opacity:1; fill:none" points="1425.5,1734.12 1425.5,1715.22 "/>
<polyline clip-path="url(#clip250)" style="stroke:#000000; stroke-linecap:round; stroke-linejoin:round; stroke-width:4; stroke-opacity:1; fill:none" points="1753.06,1734.12 1753.06,1715.22 "/>
<polyline clip-path="url(#clip250)" style="stroke:#000000; stroke-linecap:round; stroke-linejoin:round; stroke-width:4; stroke-opacity:1; fill:none" points="2080.62,1734.12 2080.62,1715.22 "/>
<polyline clip-path="url(#clip250)" style="stroke:#000000; stroke-linecap:round; stroke-linejoin:round; stroke-width:4; stroke-opacity:1; fill:none" points="2408.19,1734.12 2408.19,1715.22 "/>
<path clip-path="url(#clip250)" d="M437.46 1794.89 L453.78 1794.89 L453.78 1798.82 L431.835 1798.82 L431.835 1794.89 Q434.498 1792.13 439.081 1787.5 Q443.687 1782.85 444.868 1781.51 Q447.113 1778.98 447.993 1777.25 Q448.896 1775.49 448.896 1773.8 Q448.896 1771.04 446.951 1769.31 Q445.03 1767.57 441.928 1767.57 Q439.729 1767.57 437.275 1768.34 Q434.845 1769.1 432.067 1770.65 L432.067 1765.93 Q434.891 1764.79 437.345 1764.21 Q439.798 1763.64 441.835 1763.64 Q447.206 1763.64 450.4 1766.32 Q453.595 1769.01 453.595 1773.5 Q453.595 1775.63 452.784 1777.55 Q451.997 1779.45 449.891 1782.04 Q449.312 1782.71 446.21 1785.93 Q443.109 1789.12 437.46 1794.89 Z" fill="#000000" fill-rule="evenodd" fill-opacity="1" /><path clip-path="url(#clip250)" d="M773.38 1768.34 L761.574 1786.78 L773.38 1786.78 L773.38 1768.34 M772.153 1764.26 L778.033 1764.26 L778.033 1786.78 L782.963 1786.78 L782.963 1790.67 L778.033 1790.67 L778.033 1798.82 L773.38 1798.82 L773.38 1790.67 L757.778 1790.67 L757.778 1786.16 L772.153 1764.26 Z" fill="#000000" fill-rule="evenodd" fill-opacity="1" /><path clip-path="url(#clip250)" d="M1098.34 1779.68 Q1095.19 1779.68 1093.34 1781.83 Q1091.51 1783.98 1091.51 1787.73 Q1091.51 1791.46 1093.34 1793.64 Q1095.19 1795.79 1098.34 1795.79 Q1101.49 1795.79 1103.32 1793.64 Q1105.17 1791.46 1105.17 1787.73 Q1105.17 1783.98 1103.32 1781.83 Q1101.49 1779.68 1098.34 1779.68 M1107.62 1765.02 L1107.62 1769.28 Q1105.86 1768.45 1104.06 1768.01 Q1102.27 1767.57 1100.51 1767.57 Q1095.89 1767.57 1093.43 1770.7 Q1091 1773.82 1090.65 1780.14 Q1092.02 1778.13 1094.08 1777.06 Q1096.14 1775.97 1098.62 1775.97 Q1103.82 1775.97 1106.83 1779.15 Q1109.87 1782.29 1109.87 1787.73 Q1109.87 1793.06 1106.72 1796.27 Q1103.57 1799.49 1098.34 1799.49 Q1092.34 1799.49 1089.17 1794.91 Q1086 1790.3 1086 1781.58 Q1086 1773.38 1089.89 1768.52 Q1093.78 1763.64 1100.33 1763.64 Q1102.09 1763.64 1103.87 1763.98 Q1105.68 1764.33 1107.62 1765.02 Z" fill="#000000" fill-rule="evenodd" fill-opacity="1" /><path clip-path="url(#clip250)" d="M1425.5 1782.41 Q1422.16 1782.41 1420.24 1784.19 Q1418.34 1785.97 1418.34 1789.1 Q1418.34 1792.22 1420.24 1794.01 Q1422.16 1795.79 1425.5 1795.79 Q1428.83 1795.79 1430.75 1794.01 Q1432.67 1792.2 1432.67 1789.1 Q1432.67 1785.97 1430.75 1784.19 Q1428.85 1782.41 1425.5 1782.41 M1420.82 1780.42 Q1417.81 1779.68 1416.12 1777.62 Q1414.46 1775.56 1414.46 1772.59 Q1414.46 1768.45 1417.4 1766.04 Q1420.36 1763.64 1425.5 1763.64 Q1430.66 1763.64 1433.6 1766.04 Q1436.54 1768.45 1436.54 1772.59 Q1436.54 1775.56 1434.85 1777.62 Q1433.18 1779.68 1430.2 1780.42 Q1433.58 1781.21 1435.45 1783.5 Q1437.35 1785.79 1437.35 1789.1 Q1437.35 1794.12 1434.27 1796.81 Q1431.21 1799.49 1425.5 1799.49 Q1419.78 1799.49 1416.7 1796.81 Q1413.65 1794.12 1413.65 1789.1 Q1413.65 1785.79 1415.54 1783.5 Q1417.44 1781.21 1420.82 1780.42 M1419.11 1773.03 Q1419.11 1775.72 1420.77 1777.22 Q1422.46 1778.73 1425.5 1778.73 Q1428.51 1778.73 1430.2 1777.22 Q1431.91 1775.72 1431.91 1773.03 Q1431.91 1770.35 1430.2 1768.84 Q1428.51 1767.34 1425.5 1767.34 Q1422.46 1767.34 1420.77 1768.84 Q1419.11 1770.35 1419.11 1773.03 Z" fill="#000000" fill-rule="evenodd" fill-opacity="1" /><path clip-path="url(#clip250)" d="M1727.75 1794.89 L1735.39 1794.89 L1735.39 1768.52 L1727.08 1770.19 L1727.08 1765.93 L1735.34 1764.26 L1740.02 1764.26 L1740.02 1794.89 L1747.65 1794.89 L1747.65 1798.82 L1727.75 1798.82 L1727.75 1794.89 Z" fill="#000000" fill-rule="evenodd" fill-opacity="1" /><path clip-path="url(#clip250)" d="M1767.1 1767.34 Q1763.49 1767.34 1761.66 1770.9 Q1759.85 1774.45 1759.85 1781.58 Q1759.85 1788.68 1761.66 1792.25 Q1763.49 1795.79 1767.1 1795.79 Q1770.73 1795.79 1772.54 1792.25 Q1774.37 1788.68 1774.37 1781.58 Q1774.37 1774.45 1772.54 1770.9 Q1770.73 1767.34 1767.1 1767.34 M1767.1 1763.64 Q1772.91 1763.64 1775.96 1768.24 Q1779.04 1772.83 1779.04 1781.58 Q1779.04 1790.3 1775.96 1794.91 Q1772.91 1799.49 1767.1 1799.49 Q1761.29 1799.49 1758.21 1794.91 Q1755.15 1790.3 1755.15 1781.58 Q1755.15 1772.83 1758.21 1768.24 Q1761.29 1763.64 1767.1 1763.64 Z" fill="#000000" fill-rule="evenodd" fill-opacity="1" /><path clip-path="url(#clip250)" d="M2056.11 1794.89 L2063.75 1794.89 L2063.75 1768.52 L2055.44 1770.19 L2055.44 1765.93 L2063.7 1764.26 L2068.38 1764.26 L2068.38 1794.89 L2076.02 1794.89 L2076.02 1798.82 L2056.11 1798.82 L2056.11 1794.89 Z" fill="#000000" fill-rule="evenodd" fill-opacity="1" /><path clip-path="url(#clip250)" d="M2089.49 1794.89 L2105.81 1794.89 L2105.81 1798.82 L2083.86 1798.82 L2083.86 1794.89 Q2086.53 1792.13 2091.11 1787.5 Q2095.72 1782.85 2096.9 1781.51 Q2099.14 1778.98 2100.02 1777.25 Q2100.92 1775.49 2100.92 1773.8 Q2100.92 1771.04 2098.98 1769.31 Q2097.06 1767.57 2093.96 1767.57 Q2091.76 1767.57 2089.3 1768.34 Q2086.87 1769.1 2084.1 1770.65 L2084.1 1765.93 Q2086.92 1764.79 2089.37 1764.21 Q2091.83 1763.64 2093.86 1763.64 Q2099.23 1763.64 2102.43 1766.32 Q2105.62 1769.01 2105.62 1773.5 Q2105.62 1775.63 2104.81 1777.55 Q2104.03 1779.45 2101.92 1782.04 Q2101.34 1782.71 2098.24 1785.93 Q2095.14 1789.12 2089.49 1794.89 Z" fill="#000000" fill-rule="evenodd" fill-opacity="1" /><path clip-path="url(#clip250)" d="M2382.63 1794.89 L2390.27 1794.89 L2390.27 1768.52 L2381.96 1770.19 L2381.96 1765.93 L2390.22 1764.26 L2394.9 1764.26 L2394.9 1794.89 L2402.54 1794.89 L2402.54 1798.82 L2382.63 1798.82 L2382.63 1794.89 Z" fill="#000000" fill-rule="evenodd" fill-opacity="1" /><path clip-path="url(#clip250)" d="M2424.83 1768.34 L2413.02 1786.78 L2424.83 1786.78 L2424.83 1768.34 M2423.6 1764.26 L2429.48 1764.26 L2429.48 1786.78 L2434.41 1786.78 L2434.41 1790.67 L2429.48 1790.67 L2429.48 1798.82 L2424.83 1798.82 L2424.83 1790.67 L2409.23 1790.67 L2409.23 1786.16 L2423.6 1764.26 Z" fill="#000000" fill-rule="evenodd" fill-opacity="1" /><path clip-path="url(#clip250)" d="M1383.88 1848.7 L1383.88 1854.24 Q1381.4 1852.97 1378.72 1852.33 Q1376.05 1851.7 1373.19 1851.7 Q1368.83 1851.7 1366.63 1853.03 Q1364.47 1854.37 1364.47 1857.04 Q1364.47 1859.08 1366.03 1860.26 Q1367.58 1861.4 1372.3 1862.45 L1374.3 1862.9 Q1380.54 1864.24 1383.15 1866.69 Q1385.79 1869.11 1385.79 1873.47 Q1385.79 1878.43 1381.84 1881.33 Q1377.93 1884.22 1371.05 1884.22 Q1368.19 1884.22 1365.07 1883.65 Q1361.98 1883.11 1358.55 1882 L1358.55 1875.95 Q1361.79 1877.64 1364.94 1878.49 Q1368.09 1879.32 1371.18 1879.32 Q1375.32 1879.32 1377.55 1877.92 Q1379.78 1876.49 1379.78 1873.91 Q1379.78 1871.52 1378.15 1870.25 Q1376.56 1868.98 1371.12 1867.8 L1369.08 1867.32 Q1363.64 1866.18 1361.22 1863.82 Q1358.8 1861.43 1358.8 1857.3 Q1358.8 1852.27 1362.36 1849.53 Q1365.93 1846.79 1372.49 1846.79 Q1375.73 1846.79 1378.6 1847.27 Q1381.46 1847.75 1383.88 1848.7 Z" fill="#000000" fill-rule="evenodd" fill-opacity="1" /><path clip-path="url(#clip250)" d="M1400.91 1837.53 L1400.91 1847.65 L1412.97 1847.65 L1412.97 1852.2 L1400.91 1852.2 L1400.91 1871.56 Q1400.91 1875.92 1402.09 1877.16 Q1403.3 1878.4 1406.96 1878.4 L1412.97 1878.4 L1412.97 1883.3 L1406.96 1883.3 Q1400.18 1883.3 1397.6 1880.79 Q1395.02 1878.24 1395.02 1871.56 L1395.02 1852.2 L1390.72 1852.2 L1390.72 1847.65 L1395.02 1847.65 L1395.02 1837.53 L1400.91 1837.53 Z" fill="#000000" fill-rule="evenodd" fill-opacity="1" /><path clip-path="url(#clip250)" d="M1451.17 1864.01 L1451.17 1866.88 L1424.24 1866.88 Q1424.62 1872.92 1427.87 1876.11 Q1431.15 1879.26 1436.97 1879.26 Q1440.34 1879.26 1443.5 1878.43 Q1446.68 1877.6 1449.8 1875.95 L1449.8 1881.49 Q1446.65 1882.82 1443.34 1883.52 Q1440.03 1884.22 1436.62 1884.22 Q1428.09 1884.22 1423.09 1879.26 Q1418.13 1874.29 1418.13 1865.83 Q1418.13 1857.07 1422.84 1851.95 Q1427.58 1846.79 1435.6 1846.79 Q1442.8 1846.79 1446.97 1851.44 Q1451.17 1856.06 1451.17 1864.01 M1445.31 1862.29 Q1445.25 1857.49 1442.6 1854.62 Q1439.99 1851.76 1435.67 1851.76 Q1430.76 1851.76 1427.8 1854.53 Q1424.88 1857.3 1424.43 1862.33 L1445.31 1862.29 Z" fill="#000000" fill-rule="evenodd" fill-opacity="1" /><path clip-path="url(#clip250)" d="M1466.44 1877.95 L1466.44 1896.86 L1460.56 1896.86 L1460.56 1847.65 L1466.44 1847.65 L1466.44 1853.06 Q1468.29 1849.88 1471.09 1848.35 Q1473.92 1846.79 1477.84 1846.79 Q1484.33 1846.79 1488.37 1851.95 Q1492.45 1857.11 1492.45 1865.51 Q1492.45 1873.91 1488.37 1879.07 Q1484.33 1884.22 1477.84 1884.22 Q1473.92 1884.22 1471.09 1882.7 Q1468.29 1881.14 1466.44 1877.95 M1486.37 1865.51 Q1486.37 1859.05 1483.7 1855.39 Q1481.05 1851.7 1476.41 1851.7 Q1471.76 1851.7 1469.09 1855.39 Q1466.44 1859.05 1466.44 1865.51 Q1466.44 1871.97 1469.09 1875.66 Q1471.76 1879.32 1476.41 1879.32 Q1481.05 1879.32 1483.7 1875.66 Q1486.37 1871.97 1486.37 1865.51 Z" fill="#000000" fill-rule="evenodd" fill-opacity="1" /><polyline clip-path="url(#clip252)" style="stroke:#000000; stroke-linecap:round; stroke-linejoin:round; stroke-width:2; stroke-opacity:0.1; fill:none" points="210.238,1471.66 2640.76,1471.66 "/>
<polyline clip-path="url(#clip252)" style="stroke:#000000; stroke-linecap:round; stroke-linejoin:round; stroke-width:2; stroke-opacity:0.1; fill:none" points="210.238,1143.27 2640.76,1143.27 "/>
<polyline clip-path="url(#clip252)" style="stroke:#000000; stroke-linecap:round; stroke-linejoin:round; stroke-width:2; stroke-opacity:0.1; fill:none" points="210.238,814.888 2640.76,814.888 "/>
<polyline clip-path="url(#clip252)" style="stroke:#000000; stroke-linecap:round; stroke-linejoin:round; stroke-width:2; stroke-opacity:0.1; fill:none" points="210.238,486.502 2640.76,486.502 "/>
<polyline clip-path="url(#clip252)" style="stroke:#000000; stroke-linecap:round; stroke-linejoin:round; stroke-width:2; stroke-opacity:0.1; fill:none" points="210.238,158.116 2640.76,158.116 "/>
<polyline clip-path="url(#clip250)" style="stroke:#000000; stroke-linecap:round; stroke-linejoin:round; stroke-width:4; stroke-opacity:1; fill:none" points="210.238,1734.12 210.238,47.2441 "/>
<polyline clip-path="url(#clip250)" style="stroke:#000000; stroke-linecap:round; stroke-linejoin:round; stroke-width:4; stroke-opacity:1; fill:none" points="210.238,1471.66 229.135,1471.66 "/>
<polyline clip-path="url(#clip250)" style="stroke:#000000; stroke-linecap:round; stroke-linejoin:round; stroke-width:4; stroke-opacity:1; fill:none" points="210.238,1143.27 229.135,1143.27 "/>
<polyline clip-path="url(#clip250)" style="stroke:#000000; stroke-linecap:round; stroke-linejoin:round; stroke-width:4; stroke-opacity:1; fill:none" points="210.238,814.888 229.135,814.888 "/>
<polyline clip-path="url(#clip250)" style="stroke:#000000; stroke-linecap:round; stroke-linejoin:round; stroke-width:4; stroke-opacity:1; fill:none" points="210.238,486.502 229.135,486.502 "/>
<polyline clip-path="url(#clip250)" style="stroke:#000000; stroke-linecap:round; stroke-linejoin:round; stroke-width:4; stroke-opacity:1; fill:none" points="210.238,158.116 229.135,158.116 "/>
<path clip-path="url(#clip250)" d="M149.015 1454.38 L167.372 1454.38 L167.372 1458.32 L153.298 1458.32 L153.298 1466.79 Q154.316 1466.44 155.335 1466.28 Q156.353 1466.09 157.372 1466.09 Q163.159 1466.09 166.538 1469.26 Q169.918 1472.44 169.918 1477.85 Q169.918 1483.43 166.446 1486.53 Q162.973 1489.61 156.654 1489.61 Q154.478 1489.61 152.21 1489.24 Q149.964 1488.87 147.557 1488.13 L147.557 1483.43 Q149.64 1484.57 151.862 1485.12 Q154.085 1485.68 156.561 1485.68 Q160.566 1485.68 162.904 1483.57 Q165.242 1481.46 165.242 1477.85 Q165.242 1474.24 162.904 1472.13 Q160.566 1470.03 156.561 1470.03 Q154.686 1470.03 152.811 1470.44 Q150.96 1470.86 149.015 1471.74 L149.015 1454.38 Z" fill="#000000" fill-rule="evenodd" fill-opacity="1" /><path clip-path="url(#clip250)" d="M118.622 1156.62 L126.261 1156.62 L126.261 1130.25 L117.951 1131.92 L117.951 1127.66 L126.214 1125.99 L130.89 1125.99 L130.89 1156.62 L138.529 1156.62 L138.529 1160.55 L118.622 1160.55 L118.622 1156.62 Z" fill="#000000" fill-rule="evenodd" fill-opacity="1" /><path clip-path="url(#clip250)" d="M157.973 1129.07 Q154.362 1129.07 152.534 1132.64 Q150.728 1136.18 150.728 1143.31 Q150.728 1150.42 152.534 1153.98 Q154.362 1157.52 157.973 1157.52 Q161.608 1157.52 163.413 1153.98 Q165.242 1150.42 165.242 1143.31 Q165.242 1136.18 163.413 1132.64 Q161.608 1129.07 157.973 1129.07 M157.973 1125.37 Q163.784 1125.37 166.839 1129.98 Q169.918 1134.56 169.918 1143.31 Q169.918 1152.04 166.839 1156.64 Q163.784 1161.23 157.973 1161.23 Q152.163 1161.23 149.085 1156.64 Q146.029 1152.04 146.029 1143.31 Q146.029 1134.56 149.085 1129.98 Q152.163 1125.37 157.973 1125.37 Z" fill="#000000" fill-rule="evenodd" fill-opacity="1" /><path clip-path="url(#clip250)" d="M119.617 828.233 L127.256 828.233 L127.256 801.867 L118.946 803.534 L118.946 799.275 L127.21 797.608 L131.886 797.608 L131.886 828.233 L139.525 828.233 L139.525 832.168 L119.617 832.168 L119.617 828.233 Z" fill="#000000" fill-rule="evenodd" fill-opacity="1" /><path clip-path="url(#clip250)" d="M149.015 797.608 L167.372 797.608 L167.372 801.543 L153.298 801.543 L153.298 810.015 Q154.316 809.668 155.335 809.506 Q156.353 809.321 157.372 809.321 Q163.159 809.321 166.538 812.492 Q169.918 815.664 169.918 821.08 Q169.918 826.659 166.446 829.761 Q162.973 832.839 156.654 832.839 Q154.478 832.839 152.21 832.469 Q149.964 832.099 147.557 831.358 L147.557 826.659 Q149.64 827.793 151.862 828.349 Q154.085 828.904 156.561 828.904 Q160.566 828.904 162.904 826.798 Q165.242 824.691 165.242 821.08 Q165.242 817.469 162.904 815.363 Q160.566 813.256 156.561 813.256 Q154.686 813.256 152.811 813.673 Q150.96 814.09 149.015 814.969 L149.015 797.608 Z" fill="#000000" fill-rule="evenodd" fill-opacity="1" /><path clip-path="url(#clip250)" d="M121.839 499.847 L138.159 499.847 L138.159 503.782 L116.214 503.782 L116.214 499.847 Q118.876 497.092 123.46 492.463 Q128.066 487.81 129.247 486.467 Q131.492 483.944 132.372 482.208 Q133.275 480.449 133.275 478.759 Q133.275 476.005 131.33 474.268 Q129.409 472.532 126.307 472.532 Q124.108 472.532 121.654 473.296 Q119.224 474.06 116.446 475.611 L116.446 470.889 Q119.27 469.755 121.724 469.176 Q124.177 468.597 126.214 468.597 Q131.585 468.597 134.779 471.282 Q137.974 473.967 137.974 478.458 Q137.974 480.588 137.163 482.509 Q136.376 484.407 134.27 487 Q133.691 487.671 130.589 490.889 Q127.488 494.083 121.839 499.847 Z" fill="#000000" fill-rule="evenodd" fill-opacity="1" /><path clip-path="url(#clip250)" d="M157.973 472.301 Q154.362 472.301 152.534 475.866 Q150.728 479.407 150.728 486.537 Q150.728 493.643 152.534 497.208 Q154.362 500.75 157.973 500.75 Q161.608 500.75 163.413 497.208 Q165.242 493.643 165.242 486.537 Q165.242 479.407 163.413 475.866 Q161.608 472.301 157.973 472.301 M157.973 468.597 Q163.784 468.597 166.839 473.204 Q169.918 477.787 169.918 486.537 Q169.918 495.264 166.839 499.87 Q163.784 504.453 157.973 504.453 Q152.163 504.453 149.085 499.87 Q146.029 495.264 146.029 486.537 Q146.029 477.787 149.085 473.204 Q152.163 468.597 157.973 468.597 Z" fill="#000000" fill-rule="evenodd" fill-opacity="1" /><path clip-path="url(#clip250)" d="M122.835 171.461 L139.154 171.461 L139.154 175.396 L117.21 175.396 L117.21 171.461 Q119.872 168.706 124.455 164.077 Q129.062 159.424 130.242 158.081 Q132.488 155.558 133.367 153.822 Q134.27 152.063 134.27 150.373 Q134.27 147.619 132.325 145.882 Q130.404 144.146 127.302 144.146 Q125.103 144.146 122.65 144.91 Q120.219 145.674 117.441 147.225 L117.441 142.503 Q120.265 141.369 122.719 140.79 Q125.173 140.211 127.21 140.211 Q132.58 140.211 135.775 142.896 Q138.969 145.582 138.969 150.072 Q138.969 152.202 138.159 154.123 Q137.372 156.021 135.265 158.614 Q134.687 159.285 131.585 162.503 Q128.483 165.697 122.835 171.461 Z" fill="#000000" fill-rule="evenodd" fill-opacity="1" /><path clip-path="url(#clip250)" d="M149.015 140.836 L167.372 140.836 L167.372 144.771 L153.298 144.771 L153.298 153.244 Q154.316 152.896 155.335 152.734 Q156.353 152.549 157.372 152.549 Q163.159 152.549 166.538 155.72 Q169.918 158.892 169.918 164.308 Q169.918 169.887 166.446 172.989 Q162.973 176.067 156.654 176.067 Q154.478 176.067 152.21 175.697 Q149.964 175.327 147.557 174.586 L147.557 169.887 Q149.64 171.021 151.862 171.577 Q154.085 172.132 156.561 172.132 Q160.566 172.132 162.904 170.026 Q165.242 167.919 165.242 164.308 Q165.242 160.697 162.904 158.591 Q160.566 156.484 156.561 156.484 Q154.686 156.484 152.811 156.901 Q150.96 157.318 149.015 158.197 L149.015 140.836 Z" fill="#000000" fill-rule="evenodd" fill-opacity="1" /><path clip-path="url(#clip250)" d="M43.719 1163.98 Q43.719 1171.07 45.3422 1173.81 Q46.9655 1176.55 50.8804 1176.55 Q53.9996 1176.55 55.8457 1174.51 Q57.6599 1172.44 57.6599 1168.91 Q57.6599 1164.04 54.2224 1161.11 Q50.7531 1158.15 45.0239 1158.15 L43.719 1158.15 L43.719 1163.98 M41.3 1152.3 L61.6384 1152.3 L61.6384 1158.15 L56.2276 1158.15 Q59.4741 1160.16 61.0337 1163.15 Q62.5615 1166.14 62.5615 1170.47 Q62.5615 1175.94 59.5059 1179.19 Q56.4186 1182.4 51.2623 1182.4 Q45.2467 1182.4 42.1912 1178.39 Q39.1357 1174.35 39.1357 1166.36 L39.1357 1158.15 L38.5628 1158.15 Q34.5205 1158.15 32.3244 1160.83 Q30.0964 1163.47 30.0964 1168.27 Q30.0964 1171.33 30.8284 1174.23 Q31.5605 1177.12 33.0246 1179.8 L27.6137 1179.8 Q26.3724 1176.58 25.7677 1173.56 Q25.1311 1170.53 25.1311 1167.67 Q25.1311 1159.93 29.1415 1156.11 Q33.1519 1152.3 41.3 1152.3 Z" fill="#000000" fill-rule="evenodd" fill-opacity="1" /><path clip-path="url(#clip250)" d="M27.3591 1114.58 L32.8336 1114.58 Q31.465 1117.06 30.7966 1119.58 Q30.0964 1122.06 30.0964 1124.6 Q30.0964 1130.3 33.7248 1133.45 Q37.3214 1136.6 43.8463 1136.6 Q50.3711 1136.6 53.9996 1133.45 Q57.5962 1130.3 57.5962 1124.6 Q57.5962 1122.06 56.9278 1119.58 Q56.2276 1117.06 54.859 1114.58 L60.2698 1114.58 Q61.4156 1117.03 61.9886 1119.67 Q62.5615 1122.28 62.5615 1125.24 Q62.5615 1133.29 57.5007 1138.04 Q52.44 1142.78 43.8463 1142.78 Q35.1253 1142.78 30.1282 1138 Q25.1311 1133.2 25.1311 1124.86 Q25.1311 1122.15 25.704 1119.58 Q26.2451 1117 27.3591 1114.58 Z" fill="#000000" fill-rule="evenodd" fill-opacity="1" /><path clip-path="url(#clip250)" d="M27.3591 1078.74 L32.8336 1078.74 Q31.465 1081.22 30.7966 1083.74 Q30.0964 1086.22 30.0964 1088.77 Q30.0964 1094.46 33.7248 1097.61 Q37.3214 1100.76 43.8463 1100.76 Q50.3711 1100.76 53.9996 1097.61 Q57.5962 1094.46 57.5962 1088.77 Q57.5962 1086.22 56.9278 1083.74 Q56.2276 1081.22 54.859 1078.74 L60.2698 1078.74 Q61.4156 1081.19 61.9886 1083.83 Q62.5615 1086.44 62.5615 1089.4 Q62.5615 1097.45 57.5007 1102.2 Q52.44 1106.94 43.8463 1106.94 Q35.1253 1106.94 30.1282 1102.17 Q25.1311 1097.36 25.1311 1089.02 Q25.1311 1086.31 25.704 1083.74 Q26.2451 1081.16 27.3591 1078.74 Z" fill="#000000" fill-rule="evenodd" fill-opacity="1" /><path clip-path="url(#clip250)" d="M47.5702 1069.16 L25.9905 1069.16 L25.9905 1063.3 L47.3474 1063.3 Q52.4082 1063.3 54.9545 1061.33 Q57.4689 1059.36 57.4689 1055.41 Q57.4689 1050.67 54.4452 1047.93 Q51.4215 1045.16 46.2016 1045.16 L25.9905 1045.16 L25.9905 1039.3 L61.6384 1039.3 L61.6384 1045.16 L56.1639 1045.16 Q59.4104 1047.29 61.0019 1050.13 Q62.5615 1052.93 62.5615 1056.65 Q62.5615 1062.79 58.742 1065.98 Q54.9226 1069.16 47.5702 1069.16 M25.1311 1054.42 L25.1311 1054.42 Z" fill="#000000" fill-rule="evenodd" fill-opacity="1" /><path clip-path="url(#clip250)" d="M32.8336 999.486 Q28.8869 997.29 27.009 994.235 Q25.1311 991.179 25.1311 987.041 Q25.1311 981.471 29.046 978.448 Q32.9291 975.424 40.1224 975.424 L61.6384 975.424 L61.6384 981.312 L40.3133 981.312 Q35.1889 981.312 32.7063 983.127 Q30.2237 984.941 30.2237 988.665 Q30.2237 993.216 33.2474 995.858 Q36.2711 998.5 41.491 998.5 L61.6384 998.5 L61.6384 1004.39 L40.3133 1004.39 Q35.1571 1004.39 32.7063 1006.2 Q30.2237 1008.02 30.2237 1011.8 Q30.2237 1016.29 33.2792 1018.93 Q36.3029 1021.58 41.491 1021.58 L61.6384 1021.58 L61.6384 1027.46 L25.9905 1027.46 L25.9905 1021.58 L31.5287 1021.58 Q28.2503 1019.57 26.6907 1016.77 Q25.1311 1013.97 25.1311 1010.12 Q25.1311 1006.23 27.1045 1003.53 Q29.0779 1000.79 32.8336 999.486 Z" fill="#000000" fill-rule="evenodd" fill-opacity="1" /><path clip-path="url(#clip250)" d="M47.5702 964.348 L25.9905 964.348 L25.9905 958.491 L47.3474 958.491 Q52.4082 958.491 54.9545 956.518 Q57.4689 954.544 57.4689 950.598 Q57.4689 945.855 54.4452 943.118 Q51.4215 940.349 46.2016 940.349 L25.9905 940.349 L25.9905 934.493 L61.6384 934.493 L61.6384 940.349 L56.1639 940.349 Q59.4104 942.481 61.0019 945.314 Q62.5615 948.115 62.5615 951.839 Q62.5615 957.982 58.742 961.165 Q54.9226 964.348 47.5702 964.348 M25.1311 949.611 L25.1311 949.611 Z" fill="#000000" fill-rule="evenodd" fill-opacity="1" /><path clip-path="url(#clip250)" d="M12.1132 922.43 L12.1132 916.573 L61.6384 916.573 L61.6384 922.43 L12.1132 922.43 Z" fill="#000000" fill-rule="evenodd" fill-opacity="1" /><path clip-path="url(#clip250)" d="M43.719 888.118 Q43.719 895.216 45.3422 897.953 Q46.9655 900.691 50.8804 900.691 Q53.9996 900.691 55.8457 898.654 Q57.6599 896.585 57.6599 893.052 Q57.6599 888.182 54.2224 885.254 Q50.7531 882.294 45.0239 882.294 L43.719 882.294 L43.719 888.118 M41.3 876.437 L61.6384 876.437 L61.6384 882.294 L56.2276 882.294 Q59.4741 884.299 61.0337 887.291 Q62.5615 890.283 62.5615 894.611 Q62.5615 900.086 59.5059 903.332 Q56.4186 906.547 51.2623 906.547 Q45.2467 906.547 42.1912 902.537 Q39.1357 898.494 39.1357 890.505 L39.1357 882.294 L38.5628 882.294 Q34.5205 882.294 32.3244 884.967 Q30.0964 887.609 30.0964 892.415 Q30.0964 895.471 30.8284 898.367 Q31.5605 901.264 33.0246 903.937 L27.6137 903.937 Q26.3724 900.722 25.7677 897.699 Q25.1311 894.675 25.1311 891.81 Q25.1311 884.076 29.1415 880.257 Q33.1519 876.437 41.3 876.437 Z" fill="#000000" fill-rule="evenodd" fill-opacity="1" /><path clip-path="url(#clip250)" d="M15.869 858.581 L25.9905 858.581 L25.9905 846.518 L30.542 846.518 L30.542 858.581 L49.8937 858.581 Q54.2542 858.581 55.4955 857.404 Q56.7368 856.194 56.7368 852.534 L56.7368 846.518 L61.6384 846.518 L61.6384 852.534 Q61.6384 859.314 59.124 861.892 Q56.5777 864.47 49.8937 864.47 L30.542 864.47 L30.542 868.767 L25.9905 868.767 L25.9905 864.47 L15.869 864.47 L15.869 858.581 Z" fill="#000000" fill-rule="evenodd" fill-opacity="1" /><path clip-path="url(#clip250)" d="M42.3504 808.324 L45.2149 808.324 L45.2149 835.251 Q51.2623 834.869 54.4452 831.623 Q57.5962 828.344 57.5962 822.52 Q57.5962 819.146 56.7687 815.995 Q55.9411 812.812 54.2861 809.693 L59.8242 809.693 Q61.161 812.844 61.8612 816.154 Q62.5615 819.464 62.5615 822.87 Q62.5615 831.4 57.5962 836.397 Q52.631 841.362 44.1646 841.362 Q35.4117 841.362 30.2873 836.652 Q25.1311 831.909 25.1311 823.888 Q25.1311 816.695 29.7781 812.526 Q34.3932 808.324 42.3504 808.324 M40.6316 814.181 Q35.8255 814.244 32.9609 816.886 Q30.0964 819.496 30.0964 823.825 Q30.0964 828.726 32.8654 831.686 Q35.6345 834.615 40.6634 835.06 L40.6316 814.181 Z" fill="#000000" fill-rule="evenodd" fill-opacity="1" /><path clip-path="url(#clip250)" d="M31.4013 775.254 L12.1132 775.254 L12.1132 769.398 L61.6384 769.398 L61.6384 775.254 L56.2912 775.254 Q59.4741 777.1 61.0337 779.933 Q62.5615 782.734 62.5615 786.681 Q62.5615 793.142 57.4052 797.216 Q52.249 801.258 43.8463 801.258 Q35.4436 801.258 30.2873 797.216 Q25.1311 793.142 25.1311 786.681 Q25.1311 782.734 26.6907 779.933 Q28.2185 777.1 31.4013 775.254 M43.8463 795.211 Q50.3075 795.211 53.9996 792.569 Q57.6599 789.895 57.6599 785.249 Q57.6599 780.602 53.9996 777.928 Q50.3075 775.254 43.8463 775.254 Q37.3851 775.254 33.7248 777.928 Q30.0327 780.602 30.0327 785.249 Q30.0327 789.895 33.7248 792.569 Q37.3851 795.211 43.8463 795.211 Z" fill="#000000" fill-rule="evenodd" fill-opacity="1" /><path clip-path="url(#clip250)" d="M15.869 730.822 L25.9905 730.822 L25.9905 718.759 L30.542 718.759 L30.542 730.822 L49.8937 730.822 Q54.2542 730.822 55.4955 729.644 Q56.7368 728.435 56.7368 724.774 L56.7368 718.759 L61.6384 718.759 L61.6384 724.774 Q61.6384 731.554 59.124 734.132 Q56.5777 736.71 49.8937 736.71 L30.542 736.71 L30.542 741.007 L25.9905 741.007 L25.9905 736.71 L15.869 736.71 L15.869 730.822 Z" fill="#000000" fill-rule="evenodd" fill-opacity="1" /><path clip-path="url(#clip250)" d="M25.9905 711.056 L25.9905 705.2 L61.6384 705.2 L61.6384 711.056 L25.9905 711.056 M12.1132 711.056 L12.1132 705.2 L19.5293 705.2 L19.5293 711.056 L12.1132 711.056 Z" fill="#000000" fill-rule="evenodd" fill-opacity="1" /><path clip-path="url(#clip250)" d="M32.8336 665.191 Q28.8869 662.995 27.009 659.94 Q25.1311 656.884 25.1311 652.746 Q25.1311 647.176 29.046 644.153 Q32.9291 641.129 40.1224 641.129 L61.6384 641.129 L61.6384 647.017 L40.3133 647.017 Q35.1889 647.017 32.7063 648.831 Q30.2237 650.646 30.2237 654.37 Q30.2237 658.921 33.2474 661.563 Q36.2711 664.205 41.491 664.205 L61.6384 664.205 L61.6384 670.093 L40.3133 670.093 Q35.1571 670.093 32.7063 671.907 Q30.2237 673.721 30.2237 677.509 Q30.2237 681.997 33.2792 684.639 Q36.3029 687.28 41.491 687.28 L61.6384 687.28 L61.6384 693.169 L25.9905 693.169 L25.9905 687.28 L31.5287 687.28 Q28.2503 685.275 26.6907 682.474 Q25.1311 679.673 25.1311 675.822 Q25.1311 671.939 27.1045 669.234 Q29.0779 666.496 32.8336 665.191 Z" fill="#000000" fill-rule="evenodd" fill-opacity="1" /><path clip-path="url(#clip250)" d="M42.3504 598.956 L45.2149 598.956 L45.2149 625.883 Q51.2623 625.501 54.4452 622.255 Q57.5962 618.976 57.5962 613.152 Q57.5962 609.778 56.7687 606.627 Q55.9411 603.444 54.2861 600.325 L59.8242 600.325 Q61.161 603.476 61.8612 606.786 Q62.5615 610.096 62.5615 613.502 Q62.5615 622.032 57.5962 627.029 Q52.631 631.994 44.1646 631.994 Q35.4117 631.994 30.2873 627.284 Q25.1311 622.541 25.1311 614.52 Q25.1311 607.327 29.7781 603.157 Q34.3932 598.956 42.3504 598.956 M40.6316 604.813 Q35.8255 604.876 32.9609 607.518 Q30.0964 610.128 30.0964 614.457 Q30.0964 619.358 32.8654 622.318 Q35.6345 625.246 40.6634 625.692 L40.6316 604.813 Z" fill="#000000" fill-rule="evenodd" fill-opacity="1" /><polyline clip-path="url(#clip252)" style="stroke:#009af9; stroke-linecap:round; stroke-linejoin:round; stroke-width:4; stroke-opacity:1; fill:none" points="279.026,1686.36 442.808,1572.69 606.589,1459.12 770.371,1345.83 934.152,1233.13 1097.93,1121.71 1261.72,1012.9 1425.5,899.129 1589.28,781.051 1753.06,665.365 1916.84,550.712 2080.62,436.524 2244.4,322.558 2408.19,208.716 2571.97,94.9858 "/>
<polyline clip-path="url(#clip252)" style="stroke:#e26f46; stroke-linecap:round; stroke-linejoin:round; stroke-width:4; stroke-opacity:1; fill:none" points="279.026,1686.38 442.808,1572.7 606.589,1459.03 770.371,1345.36 934.152,1231.69 1097.93,1118.02 1261.72,1004.35 1425.5,877.451 1589.28,749.848 1753.06,636.456 1916.84,527.79 2080.62,420.835 2244.4,314.092 2408.19,206.23 2571.97,94.9858 "/>
<path clip-path="url(#clip250)" d="M2006.97 1677.89 L2559.74 1677.89 L2559.74 1522.37 L2006.97 1522.37  Z" fill="#ffffff" fill-rule="evenodd" fill-opacity="1"/>
<polyline clip-path="url(#clip250)" style="stroke:#000000; stroke-linecap:round; stroke-linejoin:round; stroke-width:4; stroke-opacity:1; fill:none" points="2006.97,1677.89 2559.74,1677.89 2559.74,1522.37 2006.97,1522.37 2006.97,1677.89 "/>
<polyline clip-path="url(#clip250)" style="stroke:#009af9; stroke-linecap:round; stroke-linejoin:round; stroke-width:4; stroke-opacity:1; fill:none" points="2033.97,1574.21 2196.01,1574.21 "/>
<path clip-path="url(#clip250)" d="M2244.73 1575.84 L2244.73 1591.49 L2240.47 1591.49 L2240.47 1575.98 Q2240.47 1572.3 2239.03 1570.47 Q2237.6 1568.64 2234.73 1568.64 Q2231.28 1568.64 2229.29 1570.84 Q2227.29 1573.04 2227.29 1576.84 L2227.29 1591.49 L2223.01 1591.49 L2223.01 1565.56 L2227.29 1565.56 L2227.29 1569.59 Q2228.82 1567.25 2230.88 1566.09 Q2232.97 1564.94 2235.67 1564.94 Q2240.14 1564.94 2242.43 1567.71 Q2244.73 1570.47 2244.73 1575.84 Z" fill="#000000" fill-rule="evenodd" fill-opacity="1" /><path clip-path="url(#clip250)" d="M2263.27 1568.55 Q2259.84 1568.55 2257.85 1571.23 Q2255.86 1573.9 2255.86 1578.55 Q2255.86 1583.2 2257.83 1585.89 Q2259.82 1588.55 2263.27 1588.55 Q2266.67 1588.55 2268.66 1585.86 Q2270.65 1583.18 2270.65 1578.55 Q2270.65 1573.94 2268.66 1571.26 Q2266.67 1568.55 2263.27 1568.55 M2263.27 1564.94 Q2268.82 1564.94 2271.99 1568.55 Q2275.16 1572.16 2275.16 1578.55 Q2275.16 1584.91 2271.99 1588.55 Q2268.82 1592.16 2263.27 1592.16 Q2257.69 1592.16 2254.52 1588.55 Q2251.37 1584.91 2251.37 1578.55 Q2251.37 1572.16 2254.52 1568.55 Q2257.69 1564.94 2263.27 1564.94 Z" fill="#000000" fill-rule="evenodd" fill-opacity="1" /><path clip-path="url(#clip250)" d="M2302.41 1570.54 Q2304.01 1567.67 2306.23 1566.3 Q2308.45 1564.94 2311.46 1564.94 Q2315.51 1564.94 2317.71 1567.78 Q2319.91 1570.61 2319.91 1575.84 L2319.91 1591.49 L2315.63 1591.49 L2315.63 1575.98 Q2315.63 1572.25 2314.31 1570.45 Q2312.99 1568.64 2310.28 1568.64 Q2306.97 1568.64 2305.05 1570.84 Q2303.13 1573.04 2303.13 1576.84 L2303.13 1591.49 L2298.85 1591.49 L2298.85 1575.98 Q2298.85 1572.23 2297.53 1570.45 Q2296.21 1568.64 2293.45 1568.64 Q2290.19 1568.64 2288.27 1570.86 Q2286.35 1573.06 2286.35 1576.84 L2286.35 1591.49 L2282.06 1591.49 L2282.06 1565.56 L2286.35 1565.56 L2286.35 1569.59 Q2287.8 1567.21 2289.84 1566.07 Q2291.88 1564.94 2294.68 1564.94 Q2297.5 1564.94 2299.47 1566.37 Q2301.46 1567.81 2302.41 1570.54 Z" fill="#000000" fill-rule="evenodd" fill-opacity="1" /><path clip-path="url(#clip250)" d="M2328.41 1565.56 L2332.66 1565.56 L2332.66 1591.49 L2328.41 1591.49 L2328.41 1565.56 M2328.41 1555.47 L2332.66 1555.47 L2332.66 1560.86 L2328.41 1560.86 L2328.41 1555.47 Z" fill="#000000" fill-rule="evenodd" fill-opacity="1" /><path clip-path="url(#clip250)" d="M2363.13 1575.84 L2363.13 1591.49 L2358.87 1591.49 L2358.87 1575.98 Q2358.87 1572.3 2357.43 1570.47 Q2356 1568.64 2353.13 1568.64 Q2349.68 1568.64 2347.69 1570.84 Q2345.7 1573.04 2345.7 1576.84 L2345.7 1591.49 L2341.41 1591.49 L2341.41 1565.56 L2345.7 1565.56 L2345.7 1569.59 Q2347.22 1567.25 2349.28 1566.09 Q2351.37 1564.94 2354.08 1564.94 Q2358.54 1564.94 2360.84 1567.71 Q2363.13 1570.47 2363.13 1575.84 Z" fill="#000000" fill-rule="evenodd" fill-opacity="1" /><path clip-path="url(#clip250)" d="M2383.4 1578.46 Q2378.24 1578.46 2376.25 1579.64 Q2374.26 1580.82 2374.26 1583.66 Q2374.26 1585.93 2375.74 1587.27 Q2377.25 1588.59 2379.82 1588.59 Q2383.36 1588.59 2385.49 1586.09 Q2387.64 1583.57 2387.64 1579.4 L2387.64 1578.46 L2383.4 1578.46 M2391.9 1576.7 L2391.9 1591.49 L2387.64 1591.49 L2387.64 1587.55 Q2386.18 1589.91 2384.01 1591.05 Q2381.83 1592.16 2378.68 1592.16 Q2374.7 1592.16 2372.34 1589.94 Q2370 1587.69 2370 1583.94 Q2370 1579.57 2372.92 1577.34 Q2375.86 1575.12 2381.67 1575.12 L2387.64 1575.12 L2387.64 1574.71 Q2387.64 1571.77 2385.7 1570.17 Q2383.78 1568.55 2380.28 1568.55 Q2378.06 1568.55 2375.95 1569.08 Q2373.84 1569.61 2371.9 1570.68 L2371.9 1566.74 Q2374.24 1565.84 2376.44 1565.4 Q2378.64 1564.94 2380.72 1564.94 Q2386.34 1564.94 2389.12 1567.85 Q2391.9 1570.77 2391.9 1576.7 Z" fill="#000000" fill-rule="evenodd" fill-opacity="1" /><path clip-path="url(#clip250)" d="M2400.67 1555.47 L2404.93 1555.47 L2404.93 1591.49 L2400.67 1591.49 L2400.67 1555.47 Z" fill="#000000" fill-rule="evenodd" fill-opacity="1" /><path clip-path="url(#clip250)" d="M2428.91 1555.47 L2433.17 1555.47 L2433.17 1591.49 L2428.91 1591.49 L2428.91 1555.47 Z" fill="#000000" fill-rule="evenodd" fill-opacity="1" /><path clip-path="url(#clip250)" d="M2464.26 1577.46 L2464.26 1579.54 L2444.68 1579.54 Q2444.96 1583.94 2447.32 1586.26 Q2449.7 1588.55 2453.94 1588.55 Q2456.39 1588.55 2458.68 1587.95 Q2461 1587.34 2463.27 1586.14 L2463.27 1590.17 Q2460.97 1591.14 2458.57 1591.65 Q2456.16 1592.16 2453.68 1592.16 Q2447.48 1592.16 2443.84 1588.55 Q2440.23 1584.94 2440.23 1578.78 Q2440.23 1572.41 2443.66 1568.69 Q2447.11 1564.94 2452.94 1564.94 Q2458.17 1564.94 2461.21 1568.32 Q2464.26 1571.67 2464.26 1577.46 M2460 1576.21 Q2459.96 1572.71 2458.03 1570.63 Q2456.14 1568.55 2452.99 1568.55 Q2449.42 1568.55 2447.27 1570.56 Q2445.14 1572.58 2444.82 1576.23 L2460 1576.21 Z" fill="#000000" fill-rule="evenodd" fill-opacity="1" /><path clip-path="url(#clip250)" d="M2468.2 1565.56 L2472.71 1565.56 L2480.81 1587.32 L2488.91 1565.56 L2493.43 1565.56 L2483.71 1591.49 L2477.92 1591.49 L2468.2 1565.56 Z" fill="#000000" fill-rule="evenodd" fill-opacity="1" /><path clip-path="url(#clip250)" d="M2521.48 1577.46 L2521.48 1579.54 L2501.9 1579.54 Q2502.18 1583.94 2504.54 1586.26 Q2506.92 1588.55 2511.16 1588.55 Q2513.61 1588.55 2515.9 1587.95 Q2518.22 1587.34 2520.49 1586.14 L2520.49 1590.17 Q2518.2 1591.14 2515.79 1591.65 Q2513.38 1592.16 2510.9 1592.16 Q2504.7 1592.16 2501.07 1588.55 Q2497.46 1584.94 2497.46 1578.78 Q2497.46 1572.41 2500.88 1568.69 Q2504.33 1564.94 2510.16 1564.94 Q2515.4 1564.94 2518.43 1568.32 Q2521.48 1571.67 2521.48 1577.46 M2517.22 1576.21 Q2517.18 1572.71 2515.26 1570.63 Q2513.36 1568.55 2510.21 1568.55 Q2506.65 1568.55 2504.49 1570.56 Q2502.36 1572.58 2502.04 1576.23 L2517.22 1576.21 Z" fill="#000000" fill-rule="evenodd" fill-opacity="1" /><path clip-path="url(#clip250)" d="M2528.47 1555.47 L2532.73 1555.47 L2532.73 1591.49 L2528.47 1591.49 L2528.47 1555.47 Z" fill="#000000" fill-rule="evenodd" fill-opacity="1" /><polyline clip-path="url(#clip250)" style="stroke:#e26f46; stroke-linecap:round; stroke-linejoin:round; stroke-width:4; stroke-opacity:1; fill:none" points="2033.97,1626.05 2196.01,1626.05 "/>
<path clip-path="url(#clip250)" d="M2238.2 1621.38 Q2237.48 1620.97 2236.62 1620.78 Q2235.79 1620.57 2234.77 1620.57 Q2231.16 1620.57 2229.22 1622.93 Q2227.29 1625.27 2227.29 1629.67 L2227.29 1643.33 L2223.01 1643.33 L2223.01 1617.4 L2227.29 1617.4 L2227.29 1621.43 Q2228.64 1619.07 2230.79 1617.93 Q2232.94 1616.78 2236.02 1616.78 Q2236.46 1616.78 2236.99 1616.85 Q2237.53 1616.89 2238.17 1617.01 L2238.2 1621.38 Z" fill="#000000" fill-rule="evenodd" fill-opacity="1" /><path clip-path="url(#clip250)" d="M2263.8 1629.3 L2263.8 1631.38 L2244.22 1631.38 Q2244.49 1635.78 2246.85 1638.1 Q2249.24 1640.39 2253.48 1640.39 Q2255.93 1640.39 2258.22 1639.79 Q2260.54 1639.18 2262.8 1637.98 L2262.8 1642.01 Q2260.51 1642.98 2258.1 1643.49 Q2255.7 1644 2253.22 1644 Q2247.02 1644 2243.38 1640.39 Q2239.77 1636.78 2239.77 1630.62 Q2239.77 1624.25 2243.2 1620.53 Q2246.65 1616.78 2252.48 1616.78 Q2257.71 1616.78 2260.74 1620.16 Q2263.8 1623.51 2263.8 1629.3 M2259.54 1628.05 Q2259.49 1624.55 2257.57 1622.47 Q2255.67 1620.39 2252.53 1620.39 Q2248.96 1620.39 2246.81 1622.4 Q2244.68 1624.42 2244.35 1628.07 L2259.54 1628.05 Z" fill="#000000" fill-rule="evenodd" fill-opacity="1" /><path clip-path="url(#clip250)" d="M2282.57 1630.3 Q2277.41 1630.3 2275.42 1631.48 Q2273.43 1632.66 2273.43 1635.5 Q2273.43 1637.77 2274.91 1639.11 Q2276.41 1640.43 2278.98 1640.43 Q2282.53 1640.43 2284.66 1637.93 Q2286.81 1635.41 2286.81 1631.24 L2286.81 1630.3 L2282.57 1630.3 M2291.07 1628.54 L2291.07 1643.33 L2286.81 1643.33 L2286.81 1639.39 Q2285.35 1641.75 2283.17 1642.89 Q2281 1644 2277.85 1644 Q2273.87 1644 2271.51 1641.78 Q2269.17 1639.53 2269.17 1635.78 Q2269.17 1631.41 2272.09 1629.18 Q2275.03 1626.96 2280.84 1626.96 L2286.81 1626.96 L2286.81 1626.55 Q2286.81 1623.61 2284.86 1622.01 Q2282.94 1620.39 2279.45 1620.39 Q2277.22 1620.39 2275.12 1620.92 Q2273.01 1621.45 2271.07 1622.52 L2271.07 1618.58 Q2273.41 1617.68 2275.6 1617.24 Q2277.8 1616.78 2279.89 1616.78 Q2285.51 1616.78 2288.29 1619.69 Q2291.07 1622.61 2291.07 1628.54 Z" fill="#000000" fill-rule="evenodd" fill-opacity="1" /><path clip-path="url(#clip250)" d="M2318.5 1618.4 L2318.5 1622.38 Q2316.69 1621.38 2314.86 1620.9 Q2313.06 1620.39 2311.21 1620.39 Q2307.06 1620.39 2304.77 1623.03 Q2302.48 1625.64 2302.48 1630.39 Q2302.48 1635.13 2304.77 1637.77 Q2307.06 1640.39 2311.21 1640.39 Q2313.06 1640.39 2314.86 1639.9 Q2316.69 1639.39 2318.5 1638.4 L2318.5 1642.33 Q2316.72 1643.17 2314.79 1643.58 Q2312.9 1644 2310.74 1644 Q2304.89 1644 2301.44 1640.32 Q2297.99 1636.64 2297.99 1630.39 Q2297.99 1624.05 2301.46 1620.41 Q2304.96 1616.78 2311.02 1616.78 Q2312.99 1616.78 2314.86 1617.19 Q2316.74 1617.59 2318.5 1618.4 Z" fill="#000000" fill-rule="evenodd" fill-opacity="1" /><path clip-path="url(#clip250)" d="M2330.12 1610.04 L2330.12 1617.4 L2338.89 1617.4 L2338.89 1620.71 L2330.12 1620.71 L2330.12 1634.79 Q2330.12 1637.96 2330.97 1638.86 Q2331.85 1639.76 2334.52 1639.76 L2338.89 1639.76 L2338.89 1643.33 L2334.52 1643.33 Q2329.59 1643.33 2327.71 1641.5 Q2325.84 1639.65 2325.84 1634.79 L2325.84 1620.71 L2322.71 1620.71 L2322.71 1617.4 L2325.84 1617.4 L2325.84 1610.04 L2330.12 1610.04 Z" fill="#000000" fill-rule="evenodd" fill-opacity="1" /><path clip-path="url(#clip250)" d="M2344.49 1617.4 L2348.75 1617.4 L2348.75 1643.33 L2344.49 1643.33 L2344.49 1617.4 M2344.49 1607.31 L2348.75 1607.31 L2348.75 1612.7 L2344.49 1612.7 L2344.49 1607.31 Z" fill="#000000" fill-rule="evenodd" fill-opacity="1" /><path clip-path="url(#clip250)" d="M2354.61 1617.4 L2359.12 1617.4 L2367.22 1639.16 L2375.33 1617.4 L2379.84 1617.4 L2370.12 1643.33 L2364.33 1643.33 L2354.61 1617.4 Z" fill="#000000" fill-rule="evenodd" fill-opacity="1" /><path clip-path="url(#clip250)" d="M2407.9 1629.3 L2407.9 1631.38 L2388.31 1631.38 Q2388.59 1635.78 2390.95 1638.1 Q2393.34 1640.39 2397.57 1640.39 Q2400.03 1640.39 2402.32 1639.79 Q2404.63 1639.18 2406.9 1637.98 L2406.9 1642.01 Q2404.61 1642.98 2402.2 1643.49 Q2399.79 1644 2397.32 1644 Q2391.11 1644 2387.48 1640.39 Q2383.87 1636.78 2383.87 1630.62 Q2383.87 1624.25 2387.29 1620.53 Q2390.74 1616.78 2396.58 1616.78 Q2401.81 1616.78 2404.84 1620.16 Q2407.9 1623.51 2407.9 1629.3 M2403.64 1628.05 Q2403.59 1624.55 2401.67 1622.47 Q2399.77 1620.39 2396.62 1620.39 Q2393.06 1620.39 2390.9 1622.4 Q2388.78 1624.42 2388.45 1628.07 L2403.64 1628.05 Z" fill="#000000" fill-rule="evenodd" fill-opacity="1" /></svg>
