<svg class="main-svg" xmlns="http://www.w3.org/2000/svg" xmlns:xlink="http://www.w3.org/1999/xlink" width="700" height="500" style="" viewBox="0 0 700 500"><rect x="0" y="0" width="700" height="500" style="fill: rgb(255, 255, 255); fill-opacity: 1;"/><defs id="defs-f6f403"><g class="clips"><clipPath id="clipf6f403xyplot" class="plotclip"><rect width="555.5192319710036" height="362.16138998250216"/></clipPath><clipPath class="axesclip" id="clipf6f403x"><rect x="90.96558242719661" y="0" width="555.5192319710036" height="500"/></clipPath><clipPath class="axesclip" id="clipf6f403y"><rect x="0" y="63.19881889763781" width="700" height="362.16138998250216"/></clipPath><clipPath class="axesclip" id="clipf6f403xy"><rect x="90.96558242719661" y="63.19881889763781" width="555.5192319710036" height="362.16138998250216"/></clipPath></g><g class="gradients"/></defs><g class="bglayer"/><g class="layer-below"><g class="imagelayer"/><g class="shapelayer"/></g><g class="cartesianlayer"><g class="subplot xy"><g class="layer-subplot"><g class="shapelayer"/><g class="imagelayer"/></g><g class="gridlayer"><g class="x"><path class="xgrid crisp" transform="translate(106.68558242719661,0)" d="M0,63.19881889763781v362.16138998250216" style="stroke: rgb(0, 0, 0); stroke-opacity: 0.1; stroke-width: 0.5px;"/><path class="xgrid crisp" transform="translate(237.3755824271966,0)" d="M0,63.19881889763781v362.16138998250216" style="stroke: rgb(0, 0, 0); stroke-opacity: 0.1; stroke-width: 0.5px;"/><path class="xgrid crisp" transform="translate(368.05558242719655,0)" d="M0,63.19881889763781v362.16138998250216" style="stroke: rgb(0, 0, 0); stroke-opacity: 0.1; stroke-width: 0.5px;"/><path class="xgrid crisp" transform="translate(498.7455824271966,0)" d="M0,63.19881889763781v362.16138998250216" style="stroke: rgb(0, 0, 0); stroke-opacity: 0.1; stroke-width: 0.5px;"/><path class="xgrid crisp" transform="translate(629.4255824271967,0)" d="M0,63.19881889763781v362.16138998250216" style="stroke: rgb(0, 0, 0); stroke-opacity: 0.1; stroke-width: 0.5px;"/></g><g class="y"><path class="ygrid crisp" transform="translate(0,415.10881889763783)" d="M90.96558242719661,0h555.5192319710036" style="stroke: rgb(0, 0, 0); stroke-opacity: 0.1; stroke-width: 0.5px;"/><path class="ygrid crisp" transform="translate(0,334.2488188976378)" d="M90.96558242719661,0h555.5192319710036" style="stroke: rgb(0, 0, 0); stroke-opacity: 0.1; stroke-width: 0.5px;"/><path class="ygrid crisp" transform="translate(0,253.3788188976378)" d="M90.96558242719661,0h555.5192319710036" style="stroke: rgb(0, 0, 0); stroke-opacity: 0.1; stroke-width: 0.5px;"/><path class="ygrid crisp" transform="translate(0,172.5088188976378)" d="M90.96558242719661,0h555.5192319710036" style="stroke: rgb(0, 0, 0); stroke-opacity: 0.1; stroke-width: 0.5px;"/><path class="ygrid crisp" transform="translate(0,91.64881889763781)" d="M90.96558242719661,0h555.5192319710036" style="stroke: rgb(0, 0, 0); stroke-opacity: 0.1; stroke-width: 0.5px;"/></g></g><g class="zerolinelayer"/><path class="xlines-below"/><path class="ylines-below"/><g class="overlines-below"/><g class="xaxislayer-below"/><g class="yaxislayer-below"/><g class="overaxes-below"/><g class="plot" transform="translate(90.96558242719661,63.19881889763781)" clip-path="url('#clipf6f403xyplot')"><g class="scatterlayer mlayer"><g class="trace scatter tracef490aa" style="stroke-miterlimit: 2; opacity: 1;"><g class="fills"/><g class="errorbars"/><g class="lines"><path class="js-line" d="M15.72,351.91L38.59,225.59L61.46,173.04L95.12,225.59L124.85,351.91" style="vector-effect: non-scaling-stroke; fill: none; stroke: rgb(0, 154, 250); stroke-opacity: 1; stroke-width: 1px; opacity: 1;"/></g><g class="points"/><g class="text"/></g><g class="trace scatter trace27ed49" style="stroke-miterlimit: 2; opacity: 1;"><g class="fills"/><g class="errorbars"/><g class="lines"/><g class="points"><path class="point" transform="translate(15.72,351.91)" d="M2,0A2,2 0 1,1 0,-2A2,2 0 0,1 2,0Z" style="opacity: 1; stroke-width: 1px; fill: rgb(0, 154, 250); fill-opacity: 0.1; stroke: rgb(0, 0, 0); stroke-opacity: 0.1;"/><path class="point" transform="translate(38.59,225.59)" d="M2,0A2,2 0 1,1 0,-2A2,2 0 0,1 2,0Z" style="opacity: 1; stroke-width: 1px; fill: rgb(0, 154, 250); fill-opacity: 0.1; stroke: rgb(0, 0, 0); stroke-opacity: 0.1;"/><path class="point" transform="translate(61.46,173.04)" d="M2,0A2,2 0 1,1 0,-2A2,2 0 0,1 2,0Z" style="opacity: 1; stroke-width: 1px; fill: rgb(0, 154, 250); fill-opacity: 0.1; stroke: rgb(0, 0, 0); stroke-opacity: 0.1;"/><path class="point" transform="translate(95.12,225.59)" d="M2,0A2,2 0 1,1 0,-2A2,2 0 0,1 2,0Z" style="opacity: 1; stroke-width: 1px; fill: rgb(0, 154, 250); fill-opacity: 0.1; stroke: rgb(0, 0, 0); stroke-opacity: 0.1;"/><path class="point" transform="translate(124.85,351.91)" d="M2,0A2,2 0 1,1 0,-2A2,2 0 0,1 2,0Z" style="opacity: 1; stroke-width: 1px; fill: rgb(0, 154, 250); fill-opacity: 0.1; stroke: rgb(0, 0, 0); stroke-opacity: 0.1;"/></g><g class="text"/></g><g class="trace scatter trace4c1976" style="stroke-miterlimit: 2; opacity: 1;"><g class="fills"/><g class="errorbars"/><g class="lines"><path class="js-line" d="M15.72,351.91L38.59,206.11L61.46,137.14L95.21,136.87L122.05,206.11L151.78,351.91" style="vector-effect: non-scaling-stroke; fill: none; stroke: rgb(227, 111, 71); stroke-opacity: 1; stroke-width: 1px; opacity: 1;"/></g><g class="points"/><g class="text"/></g><g class="trace scatter trace53fa63" style="stroke-miterlimit: 2; opacity: 1;"><g class="fills"/><g class="errorbars"/><g class="lines"/><g class="points"><path class="point" transform="translate(15.72,351.91)" d="M2,0A2,2 0 1,1 0,-2A2,2 0 0,1 2,0Z" style="opacity: 1; stroke-width: 1px; fill: rgb(227, 111, 71); fill-opacity: 0.1; stroke: rgb(0, 0, 0); stroke-opacity: 0.1;"/><path class="point" transform="translate(38.59,206.11)" d="M2,0A2,2 0 1,1 0,-2A2,2 0 0,1 2,0Z" style="opacity: 1; stroke-width: 1px; fill: rgb(227, 111, 71); fill-opacity: 0.1; stroke: rgb(0, 0, 0); stroke-opacity: 0.1;"/><path class="point" transform="translate(61.46,137.14)" d="M2,0A2,2 0 1,1 0,-2A2,2 0 0,1 2,0Z" style="opacity: 1; stroke-width: 1px; fill: rgb(227, 111, 71); fill-opacity: 0.1; stroke: rgb(0, 0, 0); stroke-opacity: 0.1;"/><path class="point" transform="translate(95.21,136.87)" d="M2,0A2,2 0 1,1 0,-2A2,2 0 0,1 2,0Z" style="opacity: 1; stroke-width: 1px; fill: rgb(227, 111, 71); fill-opacity: 0.1; stroke: rgb(0, 0, 0); stroke-opacity: 0.1;"/><path class="point" transform="translate(122.05,206.11)" d="M2,0A2,2 0 1,1 0,-2A2,2 0 0,1 2,0Z" style="opacity: 1; stroke-width: 1px; fill: rgb(227, 111, 71); fill-opacity: 0.1; stroke: rgb(0, 0, 0); stroke-opacity: 0.1;"/><path class="point" transform="translate(151.78,351.91)" d="M2,0A2,2 0 1,1 0,-2A2,2 0 0,1 2,0Z" style="opacity: 1; stroke-width: 1px; fill: rgb(227, 111, 71); fill-opacity: 0.1; stroke: rgb(0, 0, 0); stroke-opacity: 0.1;"/></g><g class="text"/></g><g class="trace scatter trace77a04d" style="stroke-miterlimit: 2; opacity: 1;"><g class="fills"/><g class="errorbars"/><g class="lines"><path class="js-line" d="M15.72,351.91L38.59,196.81L61.46,124.23L93.29,92.61L121.24,123.93L146.17,196.81L175.9,351.91" style="vector-effect: non-scaling-stroke; fill: none; stroke: rgb(62, 164, 78); stroke-opacity: 1; stroke-width: 1px; opacity: 1;"/></g><g class="points"/><g class="text"/></g><g class="trace scatter tracea98449" style="stroke-miterlimit: 2; opacity: 1;"><g class="fills"/><g class="errorbars"/><g class="lines"/><g class="points"><path class="point" transform="translate(15.72,351.91)" d="M2,0A2,2 0 1,1 0,-2A2,2 0 0,1 2,0Z" style="opacity: 1; stroke-width: 1px; fill: rgb(62, 164, 78); fill-opacity: 0.1; stroke: rgb(0, 0, 0); stroke-opacity: 0.1;"/><path class="point" transform="translate(38.59,196.81)" d="M2,0A2,2 0 1,1 0,-2A2,2 0 0,1 2,0Z" style="opacity: 1; stroke-width: 1px; fill: rgb(62, 164, 78); fill-opacity: 0.1; stroke: rgb(0, 0, 0); stroke-opacity: 0.1;"/><path class="point" transform="translate(61.46,124.23)" d="M2,0A2,2 0 1,1 0,-2A2,2 0 0,1 2,0Z" style="opacity: 1; stroke-width: 1px; fill: rgb(62, 164, 78); fill-opacity: 0.1; stroke: rgb(0, 0, 0); stroke-opacity: 0.1;"/><path class="point" transform="translate(93.29,92.61)" d="M2,0A2,2 0 1,1 0,-2A2,2 0 0,1 2,0Z" style="opacity: 1; stroke-width: 1px; fill: rgb(62, 164, 78); fill-opacity: 0.1; stroke: rgb(0, 0, 0); stroke-opacity: 0.1;"/><path class="point" transform="translate(121.24,123.93)" d="M2,0A2,2 0 1,1 0,-2A2,2 0 0,1 2,0Z" style="opacity: 1; stroke-width: 1px; fill: rgb(62, 164, 78); fill-opacity: 0.1; stroke: rgb(0, 0, 0); stroke-opacity: 0.1;"/><path class="point" transform="translate(146.17,196.81)" d="M2,0A2,2 0 1,1 0,-2A2,2 0 0,1 2,0Z" style="opacity: 1; stroke-width: 1px; fill: rgb(62, 164, 78); fill-opacity: 0.1; stroke: rgb(0, 0, 0); stroke-opacity: 0.1;"/><path class="point" transform="translate(175.9,351.91)" d="M2,0A2,2 0 1,1 0,-2A2,2 0 0,1 2,0Z" style="opacity: 1; stroke-width: 1px; fill: rgb(62, 164, 78); fill-opacity: 0.1; stroke: rgb(0, 0, 0); stroke-opacity: 0.1;"/></g><g class="text"/></g><g class="trace scatter tracec50128" style="stroke-miterlimit: 2; opacity: 1;"><g class="fills"/><g class="errorbars"/><g class="lines"><path class="js-line" d="M15.72,351.91L38.59,191.91L61.46,117.91L92.43,75.84L118.69,75.74L144.93,117.6L169,191.91L198.73,351.91" style="vector-effect: non-scaling-stroke; fill: none; stroke: rgb(195, 113, 210); stroke-opacity: 1; stroke-width: 1px; opacity: 1;"/></g><g class="points"/><g class="text"/></g><g class="trace scatter trace430c01" style="stroke-miterlimit: 2; opacity: 1;"><g class="fills"/><g class="errorbars"/><g class="lines"/><g class="points"><path class="point" transform="translate(15.72,351.91)" d="M2,0A2,2 0 1,1 0,-2A2,2 0 0,1 2,0Z" style="opacity: 1; stroke-width: 1px; fill: rgb(195, 113, 210); fill-opacity: 0.1; stroke: rgb(0, 0, 0); stroke-opacity: 0.1;"/><path class="point" transform="translate(38.59,191.91)" d="M2,0A2,2 0 1,1 0,-2A2,2 0 0,1 2,0Z" style="opacity: 1; stroke-width: 1px; fill: rgb(195, 113, 210); fill-opacity: 0.1; stroke: rgb(0, 0, 0); stroke-opacity: 0.1;"/><path class="point" transform="translate(61.46,117.91)" d="M2,0A2,2 0 1,1 0,-2A2,2 0 0,1 2,0Z" style="opacity: 1; stroke-width: 1px; fill: rgb(195, 113, 210); fill-opacity: 0.1; stroke: rgb(0, 0, 0); stroke-opacity: 0.1;"/><path class="point" transform="translate(92.43,75.84)" d="M2,0A2,2 0 1,1 0,-2A2,2 0 0,1 2,0Z" style="opacity: 1; stroke-width: 1px; fill: rgb(195, 113, 210); fill-opacity: 0.1; stroke: rgb(0, 0, 0); stroke-opacity: 0.1;"/><path class="point" transform="translate(118.69,75.74)" d="M2,0A2,2 0 1,1 0,-2A2,2 0 0,1 2,0Z" style="opacity: 1; stroke-width: 1px; fill: rgb(195, 113, 210); fill-opacity: 0.1; stroke: rgb(0, 0, 0); stroke-opacity: 0.1;"/><path class="point" transform="translate(144.93,117.6)" d="M2,0A2,2 0 1,1 0,-2A2,2 0 0,1 2,0Z" style="opacity: 1; stroke-width: 1px; fill: rgb(195, 113, 210); fill-opacity: 0.1; stroke: rgb(0, 0, 0); stroke-opacity: 0.1;"/><path class="point" transform="translate(169,191.91)" d="M2,0A2,2 0 1,1 0,-2A2,2 0 0,1 2,0Z" style="opacity: 1; stroke-width: 1px; fill: rgb(195, 113, 210); fill-opacity: 0.1; stroke: rgb(0, 0, 0); stroke-opacity: 0.1;"/><path class="point" transform="translate(198.73,351.91)" d="M2,0A2,2 0 1,1 0,-2A2,2 0 0,1 2,0Z" style="opacity: 1; stroke-width: 1px; fill: rgb(195, 113, 210); fill-opacity: 0.1; stroke: rgb(0, 0, 0); stroke-opacity: 0.1;"/></g><g class="text"/></g><g class="trace scatter traced0312b" style="stroke-miterlimit: 2; opacity: 1;"><g class="fills"/><g class="errorbars"/><g class="lines"><path class="js-line" d="M15.72,351.91L38.59,189.22L61.46,114.55L92,67.63L117.49,56.4L142.01,67.49L167.5,114.24L191.13,189.22L220.86,351.91" style="vector-effect: non-scaling-stroke; fill: none; stroke: rgb(172, 142, 24); stroke-opacity: 1; stroke-width: 1px; opacity: 1;"/></g><g class="points"/><g class="text"/></g><g class="trace scatter trace00e825" style="stroke-miterlimit: 2; opacity: 1;"><g class="fills"/><g class="errorbars"/><g class="lines"/><g class="points"><path class="point" transform="translate(15.72,351.91)" d="M2,0A2,2 0 1,1 0,-2A2,2 0 0,1 2,0Z" style="opacity: 1; stroke-width: 1px; fill: rgb(172, 142, 24); fill-opacity: 0.1; stroke: rgb(0, 0, 0); stroke-opacity: 0.1;"/><path class="point" transform="translate(38.59,189.22)" d="M2,0A2,2 0 1,1 0,-2A2,2 0 0,1 2,0Z" style="opacity: 1; stroke-width: 1px; fill: rgb(172, 142, 24); fill-opacity: 0.1; stroke: rgb(0, 0, 0); stroke-opacity: 0.1;"/><path class="point" transform="translate(61.46,114.55)" d="M2,0A2,2 0 1,1 0,-2A2,2 0 0,1 2,0Z" style="opacity: 1; stroke-width: 1px; fill: rgb(172, 142, 24); fill-opacity: 0.1; stroke: rgb(0, 0, 0); stroke-opacity: 0.1;"/><path class="point" transform="translate(92,67.63)" d="M2,0A2,2 0 1,1 0,-2A2,2 0 0,1 2,0Z" style="opacity: 1; stroke-width: 1px; fill: rgb(172, 142, 24); fill-opacity: 0.1; stroke: rgb(0, 0, 0); stroke-opacity: 0.1;"/><path class="point" transform="translate(117.49,56.4)" d="M2,0A2,2 0 1,1 0,-2A2,2 0 0,1 2,0Z" style="opacity: 1; stroke-width: 1px; fill: rgb(172, 142, 24); fill-opacity: 0.1; stroke: rgb(0, 0, 0); stroke-opacity: 0.1;"/><path class="point" transform="translate(142.01,67.49)" d="M2,0A2,2 0 1,1 0,-2A2,2 0 0,1 2,0Z" style="opacity: 1; stroke-width: 1px; fill: rgb(172, 142, 24); fill-opacity: 0.1; stroke: rgb(0, 0, 0); stroke-opacity: 0.1;"/><path class="point" transform="translate(167.5,114.24)" d="M2,0A2,2 0 1,1 0,-2A2,2 0 0,1 2,0Z" style="opacity: 1; stroke-width: 1px; fill: rgb(172, 142, 24); fill-opacity: 0.1; stroke: rgb(0, 0, 0); stroke-opacity: 0.1;"/><path class="point" transform="translate(191.13,189.22)" d="M2,0A2,2 0 1,1 0,-2A2,2 0 0,1 2,0Z" style="opacity: 1; stroke-width: 1px; fill: rgb(172, 142, 24); fill-opacity: 0.1; stroke: rgb(0, 0, 0); stroke-opacity: 0.1;"/><path class="point" transform="translate(220.86,351.91)" d="M2,0A2,2 0 1,1 0,-2A2,2 0 0,1 2,0Z" style="opacity: 1; stroke-width: 1px; fill: rgb(172, 142, 24); fill-opacity: 0.1; stroke: rgb(0, 0, 0); stroke-opacity: 0.1;"/></g><g class="text"/></g><g class="trace scatter trace1ab731" style="stroke-miterlimit: 2; opacity: 1;"><g class="fills"/><g class="errorbars"/><g class="lines"><path class="js-line" d="M15.72,351.91L38.59,187.73L61.46,112.71L91.76,63.29L116.87,46.77L140.62,46.72L164.37,63.13L189.47,112.4L212.86,187.73L242.6,351.91" style="vector-effect: non-scaling-stroke; fill: none; stroke: rgb(0, 170, 174); stroke-opacity: 1; stroke-width: 1px; opacity: 1;"/></g><g class="points"/><g class="text"/></g><g class="trace scatter tracedc27e7" style="stroke-miterlimit: 2; opacity: 1;"><g class="fills"/><g class="errorbars"/><g class="lines"/><g class="points"><path class="point" transform="translate(15.72,351.91)" d="M2,0A2,2 0 1,1 0,-2A2,2 0 0,1 2,0Z" style="opacity: 1; stroke-width: 1px; fill: rgb(0, 170, 174); fill-opacity: 0.1; stroke: rgb(0, 0, 0); stroke-opacity: 0.1;"/><path class="point" transform="translate(38.59,187.73)" d="M2,0A2,2 0 1,1 0,-2A2,2 0 0,1 2,0Z" style="opacity: 1; stroke-width: 1px; fill: rgb(0, 170, 174); fill-opacity: 0.1; stroke: rgb(0, 0, 0); stroke-opacity: 0.1;"/><path class="point" transform="translate(61.46,112.71)" d="M2,0A2,2 0 1,1 0,-2A2,2 0 0,1 2,0Z" style="opacity: 1; stroke-width: 1px; fill: rgb(0, 170, 174); fill-opacity: 0.1; stroke: rgb(0, 0, 0); stroke-opacity: 0.1;"/><path class="point" transform="translate(91.76,63.29)" d="M2,0A2,2 0 1,1 0,-2A2,2 0 0,1 2,0Z" style="opacity: 1; stroke-width: 1px; fill: rgb(0, 170, 174); fill-opacity: 0.1; stroke: rgb(0, 0, 0); stroke-opacity: 0.1;"/><path class="point" transform="translate(116.87,46.77)" d="M2,0A2,2 0 1,1 0,-2A2,2 0 0,1 2,0Z" style="opacity: 1; stroke-width: 1px; fill: rgb(0, 170, 174); fill-opacity: 0.1; stroke: rgb(0, 0, 0); stroke-opacity: 0.1;"/><path class="point" transform="translate(140.62,46.72)" d="M2,0A2,2 0 1,1 0,-2A2,2 0 0,1 2,0Z" style="opacity: 1; stroke-width: 1px; fill: rgb(0, 170, 174); fill-opacity: 0.1; stroke: rgb(0, 0, 0); stroke-opacity: 0.1;"/><path class="point" transform="translate(164.37,63.13)" d="M2,0A2,2 0 1,1 0,-2A2,2 0 0,1 2,0Z" style="opacity: 1; stroke-width: 1px; fill: rgb(0, 170, 174); fill-opacity: 0.1; stroke: rgb(0, 0, 0); stroke-opacity: 0.1;"/><path class="point" transform="translate(189.47,112.4)" d="M2,0A2,2 0 1,1 0,-2A2,2 0 0,1 2,0Z" style="opacity: 1; stroke-width: 1px; fill: rgb(0, 170, 174); fill-opacity: 0.1; stroke: rgb(0, 0, 0); stroke-opacity: 0.1;"/><path class="point" transform="translate(212.86,187.73)" d="M2,0A2,2 0 1,1 0,-2A2,2 0 0,1 2,0Z" style="opacity: 1; stroke-width: 1px; fill: rgb(0, 170, 174); fill-opacity: 0.1; stroke: rgb(0, 0, 0); stroke-opacity: 0.1;"/><path class="point" transform="translate(242.6,351.91)" d="M2,0A2,2 0 1,1 0,-2A2,2 0 0,1 2,0Z" style="opacity: 1; stroke-width: 1px; fill: rgb(0, 170, 174); fill-opacity: 0.1; stroke: rgb(0, 0, 0); stroke-opacity: 0.1;"/></g><g class="text"/></g><g class="trace scatter trace4bde25" style="stroke-miterlimit: 2; opacity: 1;"><g class="fills"/><g class="errorbars"/><g class="lines"><path class="js-line" d="M15.72,351.91L38.59,186.89L61.46,111.68L91.63,60.92L116.54,41.65L139.9,36.26L162.86,41.57L186.21,60.75L211.1,111.37L234.37,186.89L264.1,351.91" style="vector-effect: non-scaling-stroke; fill: none; stroke: rgb(237, 94, 147); stroke-opacity: 1; stroke-width: 1px; opacity: 1;"/></g><g class="points"/><g class="text"/></g><g class="trace scatter trace890285" style="stroke-miterlimit: 2; opacity: 1;"><g class="fills"/><g class="errorbars"/><g class="lines"/><g class="points"><path class="point" transform="translate(15.72,351.91)" d="M2,0A2,2 0 1,1 0,-2A2,2 0 0,1 2,0Z" style="opacity: 1; stroke-width: 1px; fill: rgb(237, 94, 147); fill-opacity: 0.1; stroke: rgb(0, 0, 0); stroke-opacity: 0.1;"/><path class="point" transform="translate(38.59,186.89)" d="M2,0A2,2 0 1,1 0,-2A2,2 0 0,1 2,0Z" style="opacity: 1; stroke-width: 1px; fill: rgb(237, 94, 147); fill-opacity: 0.1; stroke: rgb(0, 0, 0); stroke-opacity: 0.1;"/><path class="point" transform="translate(61.46,111.68)" d="M2,0A2,2 0 1,1 0,-2A2,2 0 0,1 2,0Z" style="opacity: 1; stroke-width: 1px; fill: rgb(237, 94, 147); fill-opacity: 0.1; stroke: rgb(0, 0, 0); stroke-opacity: 0.1;"/><path class="point" transform="translate(91.63,60.92)" d="M2,0A2,2 0 1,1 0,-2A2,2 0 0,1 2,0Z" style="opacity: 1; stroke-width: 1px; fill: rgb(237, 94, 147); fill-opacity: 0.1; stroke: rgb(0, 0, 0); stroke-opacity: 0.1;"/><path class="point" transform="translate(116.54,41.65)" d="M2,0A2,2 0 1,1 0,-2A2,2 0 0,1 2,0Z" style="opacity: 1; stroke-width: 1px; fill: rgb(237, 94, 147); fill-opacity: 0.1; stroke: rgb(0, 0, 0); stroke-opacity: 0.1;"/><path class="point" transform="translate(139.9,36.26)" d="M2,0A2,2 0 1,1 0,-2A2,2 0 0,1 2,0Z" style="opacity: 1; stroke-width: 1px; fill: rgb(237, 94, 147); fill-opacity: 0.1; stroke: rgb(0, 0, 0); stroke-opacity: 0.1;"/><path class="point" transform="translate(162.86,41.57)" d="M2,0A2,2 0 1,1 0,-2A2,2 0 0,1 2,0Z" style="opacity: 1; stroke-width: 1px; fill: rgb(237, 94, 147); fill-opacity: 0.1; stroke: rgb(0, 0, 0); stroke-opacity: 0.1;"/><path class="point" transform="translate(186.21,60.75)" d="M2,0A2,2 0 1,1 0,-2A2,2 0 0,1 2,0Z" style="opacity: 1; stroke-width: 1px; fill: rgb(237, 94, 147); fill-opacity: 0.1; stroke: rgb(0, 0, 0); stroke-opacity: 0.1;"/><path class="point" transform="translate(211.1,111.37)" d="M2,0A2,2 0 1,1 0,-2A2,2 0 0,1 2,0Z" style="opacity: 1; stroke-width: 1px; fill: rgb(237, 94, 147); fill-opacity: 0.1; stroke: rgb(0, 0, 0); stroke-opacity: 0.1;"/><path class="point" transform="translate(234.37,186.89)" d="M2,0A2,2 0 1,1 0,-2A2,2 0 0,1 2,0Z" style="opacity: 1; stroke-width: 1px; fill: rgb(237, 94, 147); fill-opacity: 0.1; stroke: rgb(0, 0, 0); stroke-opacity: 0.1;"/><path class="point" transform="translate(264.1,351.91)" d="M2,0A2,2 0 1,1 0,-2A2,2 0 0,1 2,0Z" style="opacity: 1; stroke-width: 1px; fill: rgb(237, 94, 147); fill-opacity: 0.1; stroke: rgb(0, 0, 0); stroke-opacity: 0.1;"/></g><g class="text"/></g><g class="trace scatter trace79254f" style="stroke-miterlimit: 2; opacity: 1;"><g class="fills"/><g class="errorbars"/><g class="lines"><path class="js-line" d="M15.72,351.91L38.59,186L61.46,110.6L91.5,58.45L116.19,36.4L139.16,25.87L161.39,21.53L183.33,21.52L205.27,25.82L227.49,36.3L250.45,58.27L275.14,110.29L298.27,186L328,351.91" style="vector-effect: non-scaling-stroke; fill: none; stroke: rgb(198, 130, 37); stroke-opacity: 1; stroke-width: 1px; opacity: 1;"/></g><g class="points"/><g class="text"/></g><g class="trace scatter trace0c88e4" style="stroke-miterlimit: 2; opacity: 1;"><g class="fills"/><g class="errorbars"/><g class="lines"/><g class="points"><path class="point" transform="translate(15.72,351.91)" d="M2,0A2,2 0 1,1 0,-2A2,2 0 0,1 2,0Z" style="opacity: 1; stroke-width: 1px; fill: rgb(198, 130, 37); fill-opacity: 0.1; stroke: rgb(0, 0, 0); stroke-opacity: 0.1;"/><path class="point" transform="translate(38.59,186)" d="M2,0A2,2 0 1,1 0,-2A2,2 0 0,1 2,0Z" style="opacity: 1; stroke-width: 1px; fill: rgb(198, 130, 37); fill-opacity: 0.1; stroke: rgb(0, 0, 0); stroke-opacity: 0.1;"/><path class="point" transform="translate(61.46,110.6)" d="M2,0A2,2 0 1,1 0,-2A2,2 0 0,1 2,0Z" style="opacity: 1; stroke-width: 1px; fill: rgb(198, 130, 37); fill-opacity: 0.1; stroke: rgb(0, 0, 0); stroke-opacity: 0.1;"/><path class="point" transform="translate(91.5,58.45)" d="M2,0A2,2 0 1,1 0,-2A2,2 0 0,1 2,0Z" style="opacity: 1; stroke-width: 1px; fill: rgb(198, 130, 37); fill-opacity: 0.1; stroke: rgb(0, 0, 0); stroke-opacity: 0.1;"/><path class="point" transform="translate(116.19,36.4)" d="M2,0A2,2 0 1,1 0,-2A2,2 0 0,1 2,0Z" style="opacity: 1; stroke-width: 1px; fill: rgb(198, 130, 37); fill-opacity: 0.1; stroke: rgb(0, 0, 0); stroke-opacity: 0.1;"/><path class="point" transform="translate(139.16,25.87)" d="M2,0A2,2 0 1,1 0,-2A2,2 0 0,1 2,0Z" style="opacity: 1; stroke-width: 1px; fill: rgb(198, 130, 37); fill-opacity: 0.1; stroke: rgb(0, 0, 0); stroke-opacity: 0.1;"/><path class="point" transform="translate(161.39,21.53)" d="M2,0A2,2 0 1,1 0,-2A2,2 0 0,1 2,0Z" style="opacity: 1; stroke-width: 1px; fill: rgb(198, 130, 37); fill-opacity: 0.1; stroke: rgb(0, 0, 0); stroke-opacity: 0.1;"/><path class="point" transform="translate(183.33,21.52)" d="M2,0A2,2 0 1,1 0,-2A2,2 0 0,1 2,0Z" style="opacity: 1; stroke-width: 1px; fill: rgb(198, 130, 37); fill-opacity: 0.1; stroke: rgb(0, 0, 0); stroke-opacity: 0.1;"/><path class="point" transform="translate(205.27,25.82)" d="M2,0A2,2 0 1,1 0,-2A2,2 0 0,1 2,0Z" style="opacity: 1; stroke-width: 1px; fill: rgb(198, 130, 37); fill-opacity: 0.1; stroke: rgb(0, 0, 0); stroke-opacity: 0.1;"/><path class="point" transform="translate(227.49,36.3)" d="M2,0A2,2 0 1,1 0,-2A2,2 0 0,1 2,0Z" style="opacity: 1; stroke-width: 1px; fill: rgb(198, 130, 37); fill-opacity: 0.1; stroke: rgb(0, 0, 0); stroke-opacity: 0.1;"/><path class="point" transform="translate(250.45,58.27)" d="M2,0A2,2 0 1,1 0,-2A2,2 0 0,1 2,0Z" style="opacity: 1; stroke-width: 1px; fill: rgb(198, 130, 37); fill-opacity: 0.1; stroke: rgb(0, 0, 0); stroke-opacity: 0.1;"/><path class="point" transform="translate(275.14,110.29)" d="M2,0A2,2 0 1,1 0,-2A2,2 0 0,1 2,0Z" style="opacity: 1; stroke-width: 1px; fill: rgb(198, 130, 37); fill-opacity: 0.1; stroke: rgb(0, 0, 0); stroke-opacity: 0.1;"/><path class="point" transform="translate(298.27,186)" d="M2,0A2,2 0 1,1 0,-2A2,2 0 0,1 2,0Z" style="opacity: 1; stroke-width: 1px; fill: rgb(198, 130, 37); fill-opacity: 0.1; stroke: rgb(0, 0, 0); stroke-opacity: 0.1;"/><path class="point" transform="translate(328,351.91)" d="M2,0A2,2 0 1,1 0,-2A2,2 0 0,1 2,0Z" style="opacity: 1; stroke-width: 1px; fill: rgb(198, 130, 37); fill-opacity: 0.1; stroke: rgb(0, 0, 0); stroke-opacity: 0.1;"/></g><g class="text"/></g><g class="trace scatter tracea2cfbc" style="stroke-miterlimit: 2; opacity: 1;"><g class="fills"/><g class="errorbars"/><g class="lines"><path class="js-line" d="M15.72,351.91L38.59,185.82L61.46,110.38L91.47,57.94L116.12,35.33L139.02,23.8L161.1,17.65L182.79,14.39L204.26,12.81L225.63,12.33L246.97,12.8L268.35,14.37L289.82,17.62L311.5,23.74L333.58,35.23L356.47,57.76L381.11,110.06L404.21,185.82L433.94,351.91" style="vector-effect: non-scaling-stroke; fill: none; stroke: rgb(0, 169, 141); stroke-opacity: 1; stroke-width: 1px; opacity: 1;"/></g><g class="points"/><g class="text"/></g><g class="trace scatter trace3c007b" style="stroke-miterlimit: 2; opacity: 1;"><g class="fills"/><g class="errorbars"/><g class="lines"/><g class="points"><path class="point" transform="translate(15.72,351.91)" d="M2,0A2,2 0 1,1 0,-2A2,2 0 0,1 2,0Z" style="opacity: 1; stroke-width: 1px; fill: rgb(0, 169, 141); fill-opacity: 0.1; stroke: rgb(0, 0, 0); stroke-opacity: 0.1;"/><path class="point" transform="translate(38.59,185.82)" d="M2,0A2,2 0 1,1 0,-2A2,2 0 0,1 2,0Z" style="opacity: 1; stroke-width: 1px; fill: rgb(0, 169, 141); fill-opacity: 0.1; stroke: rgb(0, 0, 0); stroke-opacity: 0.1;"/><path class="point" transform="translate(61.46,110.38)" d="M2,0A2,2 0 1,1 0,-2A2,2 0 0,1 2,0Z" style="opacity: 1; stroke-width: 1px; fill: rgb(0, 169, 141); fill-opacity: 0.1; stroke: rgb(0, 0, 0); stroke-opacity: 0.1;"/><path class="point" transform="translate(91.47,57.94)" d="M2,0A2,2 0 1,1 0,-2A2,2 0 0,1 2,0Z" style="opacity: 1; stroke-width: 1px; fill: rgb(0, 169, 141); fill-opacity: 0.1; stroke: rgb(0, 0, 0); stroke-opacity: 0.1;"/><path class="point" transform="translate(116.12,35.33)" d="M2,0A2,2 0 1,1 0,-2A2,2 0 0,1 2,0Z" style="opacity: 1; stroke-width: 1px; fill: rgb(0, 169, 141); fill-opacity: 0.1; stroke: rgb(0, 0, 0); stroke-opacity: 0.1;"/><path class="point" transform="translate(139.02,23.8)" d="M2,0A2,2 0 1,1 0,-2A2,2 0 0,1 2,0Z" style="opacity: 1; stroke-width: 1px; fill: rgb(0, 169, 141); fill-opacity: 0.1; stroke: rgb(0, 0, 0); stroke-opacity: 0.1;"/><path class="point" transform="translate(161.1,17.65)" d="M2,0A2,2 0 1,1 0,-2A2,2 0 0,1 2,0Z" style="opacity: 1; stroke-width: 1px; fill: rgb(0, 169, 141); fill-opacity: 0.1; stroke: rgb(0, 0, 0); stroke-opacity: 0.1;"/><path class="point" transform="translate(182.79,14.39)" d="M2,0A2,2 0 1,1 0,-2A2,2 0 0,1 2,0Z" style="opacity: 1; stroke-width: 1px; fill: rgb(0, 169, 141); fill-opacity: 0.1; stroke: rgb(0, 0, 0); stroke-opacity: 0.1;"/><path class="point" transform="translate(204.26,12.81)" d="M2,0A2,2 0 1,1 0,-2A2,2 0 0,1 2,0Z" style="opacity: 1; stroke-width: 1px; fill: rgb(0, 169, 141); fill-opacity: 0.1; stroke: rgb(0, 0, 0); stroke-opacity: 0.1;"/><path class="point" transform="translate(225.63,12.33)" d="M2,0A2,2 0 1,1 0,-2A2,2 0 0,1 2,0Z" style="opacity: 1; stroke-width: 1px; fill: rgb(0, 169, 141); fill-opacity: 0.1; stroke: rgb(0, 0, 0); stroke-opacity: 0.1;"/><path class="point" transform="translate(246.97,12.8)" d="M2,0A2,2 0 1,1 0,-2A2,2 0 0,1 2,0Z" style="opacity: 1; stroke-width: 1px; fill: rgb(0, 169, 141); fill-opacity: 0.1; stroke: rgb(0, 0, 0); stroke-opacity: 0.1;"/><path class="point" transform="translate(268.35,14.37)" d="M2,0A2,2 0 1,1 0,-2A2,2 0 0,1 2,0Z" style="opacity: 1; stroke-width: 1px; fill: rgb(0, 169, 141); fill-opacity: 0.1; stroke: rgb(0, 0, 0); stroke-opacity: 0.1;"/><path class="point" transform="translate(289.82,17.62)" d="M2,0A2,2 0 1,1 0,-2A2,2 0 0,1 2,0Z" style="opacity: 1; stroke-width: 1px; fill: rgb(0, 169, 141); fill-opacity: 0.1; stroke: rgb(0, 0, 0); stroke-opacity: 0.1;"/><path class="point" transform="translate(311.5,23.74)" d="M2,0A2,2 0 1,1 0,-2A2,2 0 0,1 2,0Z" style="opacity: 1; stroke-width: 1px; fill: rgb(0, 169, 141); fill-opacity: 0.1; stroke: rgb(0, 0, 0); stroke-opacity: 0.1;"/><path class="point" transform="translate(333.58,35.23)" d="M2,0A2,2 0 1,1 0,-2A2,2 0 0,1 2,0Z" style="opacity: 1; stroke-width: 1px; fill: rgb(0, 169, 141); fill-opacity: 0.1; stroke: rgb(0, 0, 0); stroke-opacity: 0.1;"/><path class="point" transform="translate(356.47,57.76)" d="M2,0A2,2 0 1,1 0,-2A2,2 0 0,1 2,0Z" style="opacity: 1; stroke-width: 1px; fill: rgb(0, 169, 141); fill-opacity: 0.1; stroke: rgb(0, 0, 0); stroke-opacity: 0.1;"/><path class="point" transform="translate(381.11,110.06)" d="M2,0A2,2 0 1,1 0,-2A2,2 0 0,1 2,0Z" style="opacity: 1; stroke-width: 1px; fill: rgb(0, 169, 141); fill-opacity: 0.1; stroke: rgb(0, 0, 0); stroke-opacity: 0.1;"/><path class="point" transform="translate(404.21,185.82)" d="M2,0A2,2 0 1,1 0,-2A2,2 0 0,1 2,0Z" style="opacity: 1; stroke-width: 1px; fill: rgb(0, 169, 141); fill-opacity: 0.1; stroke: rgb(0, 0, 0); stroke-opacity: 0.1;"/><path class="point" transform="translate(433.94,351.91)" d="M2,0A2,2 0 1,1 0,-2A2,2 0 0,1 2,0Z" style="opacity: 1; stroke-width: 1px; fill: rgb(0, 169, 141); fill-opacity: 0.1; stroke: rgb(0, 0, 0); stroke-opacity: 0.1;"/></g><g class="text"/></g><g class="trace scatter tracead2b9e" style="stroke-miterlimit: 2; opacity: 1;"><g class="fills"/><g class="errorbars"/><g class="lines"><path class="js-line" d="M15.72,351.91L38.59,185.81L61.46,110.36L91.47,57.92L116.12,35.27L139.01,23.68L161.09,17.43L182.75,13.99L204.2,12.08L246.79,10.49L268.02,10.25L310.44,10.48L331.67,11.03L352.93,12.07L374.26,13.97L395.7,17.39L417.37,23.62L439.44,35.17L462.33,57.73L486.96,110.05L510.07,185.81L539.8,351.91" style="vector-effect: non-scaling-stroke; fill: none; stroke: rgb(142, 151, 30); stroke-opacity: 1; stroke-width: 1px; opacity: 1;"/></g><g class="points"/><g class="text"/></g><g class="trace scatter tracef74deb" style="stroke-miterlimit: 2; opacity: 1;"><g class="fills"/><g class="errorbars"/><g class="lines"/><g class="points"><path class="point" transform="translate(15.72,351.91)" d="M2,0A2,2 0 1,1 0,-2A2,2 0 0,1 2,0Z" style="opacity: 1; stroke-width: 1px; fill: rgb(142, 151, 30); fill-opacity: 0.1; stroke: rgb(0, 0, 0); stroke-opacity: 0.1;"/><path class="point" transform="translate(38.59,185.81)" d="M2,0A2,2 0 1,1 0,-2A2,2 0 0,1 2,0Z" style="opacity: 1; stroke-width: 1px; fill: rgb(142, 151, 30); fill-opacity: 0.1; stroke: rgb(0, 0, 0); stroke-opacity: 0.1;"/><path class="point" transform="translate(61.46,110.36)" d="M2,0A2,2 0 1,1 0,-2A2,2 0 0,1 2,0Z" style="opacity: 1; stroke-width: 1px; fill: rgb(142, 151, 30); fill-opacity: 0.1; stroke: rgb(0, 0, 0); stroke-opacity: 0.1;"/><path class="point" transform="translate(91.47,57.92)" d="M2,0A2,2 0 1,1 0,-2A2,2 0 0,1 2,0Z" style="opacity: 1; stroke-width: 1px; fill: rgb(142, 151, 30); fill-opacity: 0.1; stroke: rgb(0, 0, 0); stroke-opacity: 0.1;"/><path class="point" transform="translate(116.12,35.27)" d="M2,0A2,2 0 1,1 0,-2A2,2 0 0,1 2,0Z" style="opacity: 1; stroke-width: 1px; fill: rgb(142, 151, 30); fill-opacity: 0.1; stroke: rgb(0, 0, 0); stroke-opacity: 0.1;"/><path class="point" transform="translate(139.01,23.68)" d="M2,0A2,2 0 1,1 0,-2A2,2 0 0,1 2,0Z" style="opacity: 1; stroke-width: 1px; fill: rgb(142, 151, 30); fill-opacity: 0.1; stroke: rgb(0, 0, 0); stroke-opacity: 0.1;"/><path class="point" transform="translate(161.09,17.43)" d="M2,0A2,2 0 1,1 0,-2A2,2 0 0,1 2,0Z" style="opacity: 1; stroke-width: 1px; fill: rgb(142, 151, 30); fill-opacity: 0.1; stroke: rgb(0, 0, 0); stroke-opacity: 0.1;"/><path class="point" transform="translate(182.75,13.99)" d="M2,0A2,2 0 1,1 0,-2A2,2 0 0,1 2,0Z" style="opacity: 1; stroke-width: 1px; fill: rgb(142, 151, 30); fill-opacity: 0.1; stroke: rgb(0, 0, 0); stroke-opacity: 0.1;"/><path class="point" transform="translate(204.2,12.08)" d="M2,0A2,2 0 1,1 0,-2A2,2 0 0,1 2,0Z" style="opacity: 1; stroke-width: 1px; fill: rgb(142, 151, 30); fill-opacity: 0.1; stroke: rgb(0, 0, 0); stroke-opacity: 0.1;"/><path class="point" transform="translate(225.53,11.03)" d="M2,0A2,2 0 1,1 0,-2A2,2 0 0,1 2,0Z" style="opacity: 1; stroke-width: 1px; fill: rgb(142, 151, 30); fill-opacity: 0.1; stroke: rgb(0, 0, 0); stroke-opacity: 0.1;"/><path class="point" transform="translate(246.79,10.49)" d="M2,0A2,2 0 1,1 0,-2A2,2 0 0,1 2,0Z" style="opacity: 1; stroke-width: 1px; fill: rgb(142, 151, 30); fill-opacity: 0.1; stroke: rgb(0, 0, 0); stroke-opacity: 0.1;"/><path class="point" transform="translate(268.02,10.25)" d="M2,0A2,2 0 1,1 0,-2A2,2 0 0,1 2,0Z" style="opacity: 1; stroke-width: 1px; fill: rgb(142, 151, 30); fill-opacity: 0.1; stroke: rgb(0, 0, 0); stroke-opacity: 0.1;"/><path class="point" transform="translate(289.23,10.25)" d="M2,0A2,2 0 1,1 0,-2A2,2 0 0,1 2,0Z" style="opacity: 1; stroke-width: 1px; fill: rgb(142, 151, 30); fill-opacity: 0.1; stroke: rgb(0, 0, 0); stroke-opacity: 0.1;"/><path class="point" transform="translate(310.44,10.48)" d="M2,0A2,2 0 1,1 0,-2A2,2 0 0,1 2,0Z" style="opacity: 1; stroke-width: 1px; fill: rgb(142, 151, 30); fill-opacity: 0.1; stroke: rgb(0, 0, 0); stroke-opacity: 0.1;"/><path class="point" transform="translate(331.67,11.03)" d="M2,0A2,2 0 1,1 0,-2A2,2 0 0,1 2,0Z" style="opacity: 1; stroke-width: 1px; fill: rgb(142, 151, 30); fill-opacity: 0.1; stroke: rgb(0, 0, 0); stroke-opacity: 0.1;"/><path class="point" transform="translate(352.93,12.07)" d="M2,0A2,2 0 1,1 0,-2A2,2 0 0,1 2,0Z" style="opacity: 1; stroke-width: 1px; fill: rgb(142, 151, 30); fill-opacity: 0.1; stroke: rgb(0, 0, 0); stroke-opacity: 0.1;"/><path class="point" transform="translate(374.26,13.97)" d="M2,0A2,2 0 1,1 0,-2A2,2 0 0,1 2,0Z" style="opacity: 1; stroke-width: 1px; fill: rgb(142, 151, 30); fill-opacity: 0.1; stroke: rgb(0, 0, 0); stroke-opacity: 0.1;"/><path class="point" transform="translate(395.7,17.39)" d="M2,0A2,2 0 1,1 0,-2A2,2 0 0,1 2,0Z" style="opacity: 1; stroke-width: 1px; fill: rgb(142, 151, 30); fill-opacity: 0.1; stroke: rgb(0, 0, 0); stroke-opacity: 0.1;"/><path class="point" transform="translate(417.37,23.62)" d="M2,0A2,2 0 1,1 0,-2A2,2 0 0,1 2,0Z" style="opacity: 1; stroke-width: 1px; fill: rgb(142, 151, 30); fill-opacity: 0.1; stroke: rgb(0, 0, 0); stroke-opacity: 0.1;"/><path class="point" transform="translate(439.44,35.17)" d="M2,0A2,2 0 1,1 0,-2A2,2 0 0,1 2,0Z" style="opacity: 1; stroke-width: 1px; fill: rgb(142, 151, 30); fill-opacity: 0.1; stroke: rgb(0, 0, 0); stroke-opacity: 0.1;"/><path class="point" transform="translate(462.33,57.73)" d="M2,0A2,2 0 1,1 0,-2A2,2 0 0,1 2,0Z" style="opacity: 1; stroke-width: 1px; fill: rgb(142, 151, 30); fill-opacity: 0.1; stroke: rgb(0, 0, 0); stroke-opacity: 0.1;"/><path class="point" transform="translate(486.96,110.05)" d="M2,0A2,2 0 1,1 0,-2A2,2 0 0,1 2,0Z" style="opacity: 1; stroke-width: 1px; fill: rgb(142, 151, 30); fill-opacity: 0.1; stroke: rgb(0, 0, 0); stroke-opacity: 0.1;"/><path class="point" transform="translate(510.07,185.81)" d="M2,0A2,2 0 1,1 0,-2A2,2 0 0,1 2,0Z" style="opacity: 1; stroke-width: 1px; fill: rgb(142, 151, 30); fill-opacity: 0.1; stroke: rgb(0, 0, 0); stroke-opacity: 0.1;"/><path class="point" transform="translate(539.8,351.91)" d="M2,0A2,2 0 1,1 0,-2A2,2 0 0,1 2,0Z" style="opacity: 1; stroke-width: 1px; fill: rgb(142, 151, 30); fill-opacity: 0.1; stroke: rgb(0, 0, 0); stroke-opacity: 0.1;"/></g><g class="text"/></g></g></g><g class="overplot"/><path class="xlines-above crisp" d="M89.96558242719661,425.86020888013996H646.4848143982002" style="fill: none; stroke-width: 1px; stroke: rgb(0, 0, 0); stroke-opacity: 1;"/><path class="ylines-above crisp" d="M90.46558242719661,63.19881889763781V425.36020888013996" style="fill: none; stroke-width: 1px; stroke: rgb(0, 0, 0); stroke-opacity: 1;"/><g class="overlines-above"/><g class="xaxislayer-above"><path class="xtick ticks crisp" d="M0,425.36020888013996v-5" transform="translate(106.68558242719661,0)" style="stroke: rgb(0, 0, 0); stroke-opacity: 1; stroke-width: 1px;"/><path class="xtick ticks crisp" d="M0,425.36020888013996v-5" transform="translate(237.3755824271966,0)" style="stroke: rgb(0, 0, 0); stroke-opacity: 1; stroke-width: 1px;"/><path class="xtick ticks crisp" d="M0,425.36020888013996v-5" transform="translate(368.05558242719655,0)" style="stroke: rgb(0, 0, 0); stroke-opacity: 1; stroke-width: 1px;"/><path class="xtick ticks crisp" d="M0,425.36020888013996v-5" transform="translate(498.7455824271966,0)" style="stroke: rgb(0, 0, 0); stroke-opacity: 1; stroke-width: 1px;"/><path class="xtick ticks crisp" d="M0,425.36020888013996v-5" transform="translate(629.4255824271967,0)" style="stroke: rgb(0, 0, 0); stroke-opacity: 1; stroke-width: 1px;"/><g class="xtick"><text text-anchor="middle" x="0" y="439.56020888013995" transform="translate(106.68558242719661,0)" style="font-family: sans-serif; font-size: 11px; fill: rgb(0, 0, 0); fill-opacity: 1; white-space: pre;">0</text></g><g class="xtick"><text text-anchor="middle" x="0" y="439.56020888013995" transform="translate(237.3755824271966,0)" style="font-family: sans-serif; font-size: 11px; fill: rgb(0, 0, 0); fill-opacity: 1; white-space: pre;">10</text></g><g class="xtick"><text text-anchor="middle" x="0" y="439.56020888013995" transform="translate(368.05558242719655,0)" style="font-family: sans-serif; font-size: 11px; fill: rgb(0, 0, 0); fill-opacity: 1; white-space: pre;">20</text></g><g class="xtick"><text text-anchor="middle" x="0" y="439.56020888013995" transform="translate(498.7455824271966,0)" style="font-family: sans-serif; font-size: 11px; fill: rgb(0, 0, 0); fill-opacity: 1; white-space: pre;">30</text></g><g class="xtick"><text text-anchor="middle" x="0" y="439.56020888013995" transform="translate(629.4255824271967,0)" style="font-family: sans-serif; font-size: 11px; fill: rgb(0, 0, 0); fill-opacity: 1; white-space: pre;">40</text></g></g><g class="yaxislayer-above"><path class="ytick ticks crisp" d="M90.96558242719661,0h5" transform="translate(0,415.10881889763783)" style="stroke: rgb(0, 0, 0); stroke-opacity: 1; stroke-width: 1px;"/><path class="ytick ticks crisp" d="M90.96558242719661,0h5" transform="translate(0,334.2488188976378)" style="stroke: rgb(0, 0, 0); stroke-opacity: 1; stroke-width: 1px;"/><path class="ytick ticks crisp" d="M90.96558242719661,0h5" transform="translate(0,253.3788188976378)" style="stroke: rgb(0, 0, 0); stroke-opacity: 1; stroke-width: 1px;"/><path class="ytick ticks crisp" d="M90.96558242719661,0h5" transform="translate(0,172.5088188976378)" style="stroke: rgb(0, 0, 0); stroke-opacity: 1; stroke-width: 1px;"/><path class="ytick ticks crisp" d="M90.96558242719661,0h5" transform="translate(0,91.64881889763781)" style="stroke: rgb(0, 0, 0); stroke-opacity: 1; stroke-width: 1px;"/><g class="ytick"><text text-anchor="end" x="87.7655824271966" y="3.8499999999999996" transform="translate(0,415.10881889763783)" style="font-family: sans-serif; font-size: 11px; fill: rgb(0, 0, 0); fill-opacity: 1; white-space: pre;">0.0</text></g><g class="ytick"><text text-anchor="end" x="87.7655824271966" y="3.8499999999999996" transform="translate(0,334.2488188976378)" style="font-family: sans-serif; font-size: 11px; fill: rgb(0, 0, 0); fill-opacity: 1; white-space: pre;">0.1</text></g><g class="ytick"><text text-anchor="end" x="87.7655824271966" y="3.8499999999999996" transform="translate(0,253.3788188976378)" style="font-family: sans-serif; font-size: 11px; fill: rgb(0, 0, 0); fill-opacity: 1; white-space: pre;">0.2</text></g><g class="ytick"><text text-anchor="end" x="87.7655824271966" y="3.8499999999999996" transform="translate(0,172.5088188976378)" style="font-family: sans-serif; font-size: 11px; fill: rgb(0, 0, 0); fill-opacity: 1; white-space: pre;">0.3</text></g><g class="ytick"><text text-anchor="end" x="87.7655824271966" y="3.8499999999999996" transform="translate(0,91.64881889763781)" style="font-family: sans-serif; font-size: 11px; fill: rgb(0, 0, 0); fill-opacity: 1; white-space: pre;">0.4</text></g></g><g class="overaxes-above"/></g></g><g class="polarlayer"/><g class="ternarylayer"/><g class="geolayer"/><g class="funnelarealayer"/><g class="pielayer"/><g class="treemaplayer"/><g class="sunburstlayer"/><g class="glimages"/><defs id="topdefs-f6f403"><g class="clips"/></defs><g class="layer-above"><g class="imagelayer"/><g class="shapelayer"/></g><g class="infolayer"><g class="g-gtitle"/><g class="g-xtitle"><text class="xtitle" x="368.72519841269843" y="467.0625" text-anchor="middle" style="font-family: sans-serif; font-size: 15px; fill: rgb(0, 0, 0); opacity: 1; font-weight: normal; white-space: pre;">time</text></g><g class="g-ytitle"><text class="ytitle" transform="rotate(-90,46.96875,244.27951388888889)" x="46.96875" y="244.27951388888889" text-anchor="middle" style="font-family: sans-serif; font-size: 15px; fill: rgb(0, 0, 0); opacity: 1; font-weight: normal; white-space: pre;">speed</text></g></g></svg>