<?xml version="1.0" encoding="utf-8"?>
<svg xmlns="http://www.w3.org/2000/svg" xmlns:xlink="http://www.w3.org/1999/xlink" width="672" height="480" viewBox="0 0 2688 1920">
<defs>
  <clipPath id="clip520">
    <rect x="0" y="0" width="2688" height="1920"/>
  </clipPath>
</defs>
<path clip-path="url(#clip520)" d="
M0 1920 L2688 1920 L2688 0 L0 0  Z
  " fill="#ffffff" fill-rule="evenodd" fill-opacity="1"/>
<defs>
  <clipPath id="clip521">
    <rect x="537" y="0" width="1883" height="1883"/>
  </clipPath>
</defs>
<path clip-path="url(#clip520)" d="
M226.141 774.117 L2640.76 774.117 L2640.76 127.792 L226.141 127.792  Z
  " fill="#ffffff" fill-rule="evenodd" fill-opacity="1"/>
<defs>
  <clipPath id="clip522">
    <rect x="226" y="127" width="2416" height="647"/>
  </clipPath>
</defs>
<polyline clip-path="url(#clip522)" style="stroke:#000000; stroke-linecap:round; stroke-linejoin:round; stroke-width:2; stroke-opacity:0.1; fill:none" points="
  294.479,774.117 294.479,127.792 
  "/>
<polyline clip-path="url(#clip522)" style="stroke:#000000; stroke-linecap:round; stroke-linejoin:round; stroke-width:2; stroke-opacity:0.1; fill:none" points="
  711.698,774.117 711.698,127.792 
  "/>
<polyline clip-path="url(#clip522)" style="stroke:#000000; stroke-linecap:round; stroke-linejoin:round; stroke-width:2; stroke-opacity:0.1; fill:none" points="
  1128.92,774.117 1128.92,127.792 
  "/>
<polyline clip-path="url(#clip522)" style="stroke:#000000; stroke-linecap:round; stroke-linejoin:round; stroke-width:2; stroke-opacity:0.1; fill:none" points="
  1546.14,774.117 1546.14,127.792 
  "/>
<polyline clip-path="url(#clip522)" style="stroke:#000000; stroke-linecap:round; stroke-linejoin:round; stroke-width:2; stroke-opacity:0.1; fill:none" points="
  1963.36,774.117 1963.36,127.792 
  "/>
<polyline clip-path="url(#clip522)" style="stroke:#000000; stroke-linecap:round; stroke-linejoin:round; stroke-width:2; stroke-opacity:0.1; fill:none" points="
  2380.57,774.117 2380.57,127.792 
  "/>
<polyline clip-path="url(#clip520)" style="stroke:#000000; stroke-linecap:round; stroke-linejoin:round; stroke-width:4; stroke-opacity:1; fill:none" points="
  226.141,774.117 2640.76,774.117 
  "/>
<polyline clip-path="url(#clip520)" style="stroke:#000000; stroke-linecap:round; stroke-linejoin:round; stroke-width:4; stroke-opacity:1; fill:none" points="
  294.479,774.117 294.479,755.219 
  "/>
<polyline clip-path="url(#clip520)" style="stroke:#000000; stroke-linecap:round; stroke-linejoin:round; stroke-width:4; stroke-opacity:1; fill:none" points="
  711.698,774.117 711.698,755.219 
  "/>
<polyline clip-path="url(#clip520)" style="stroke:#000000; stroke-linecap:round; stroke-linejoin:round; stroke-width:4; stroke-opacity:1; fill:none" points="
  1128.92,774.117 1128.92,755.219 
  "/>
<polyline clip-path="url(#clip520)" style="stroke:#000000; stroke-linecap:round; stroke-linejoin:round; stroke-width:4; stroke-opacity:1; fill:none" points="
  1546.14,774.117 1546.14,755.219 
  "/>
<polyline clip-path="url(#clip520)" style="stroke:#000000; stroke-linecap:round; stroke-linejoin:round; stroke-width:4; stroke-opacity:1; fill:none" points="
  1963.36,774.117 1963.36,755.219 
  "/>
<polyline clip-path="url(#clip520)" style="stroke:#000000; stroke-linecap:round; stroke-linejoin:round; stroke-width:4; stroke-opacity:1; fill:none" points="
  2380.57,774.117 2380.57,755.219 
  "/>
<path clip-path="url(#clip520)" d="M271.863 807.34 Q268.252 807.34 266.423 810.904 Q264.618 814.446 264.618 821.576 Q264.618 828.682 266.423 832.247 Q268.252 835.789 271.863 835.789 Q275.497 835.789 277.303 832.247 Q279.132 828.682 279.132 821.576 Q279.132 814.446 277.303 810.904 Q275.497 807.34 271.863 807.34 M271.863 803.636 Q277.673 803.636 280.729 808.242 Q283.807 812.826 283.807 821.576 Q283.807 830.303 280.729 834.909 Q277.673 839.492 271.863 839.492 Q266.053 839.492 262.974 834.909 Q259.919 830.303 259.919 821.576 Q259.919 812.826 262.974 808.242 Q266.053 803.636 271.863 803.636 Z" fill="#000000" fill-rule="evenodd" fill-opacity="1" /><path clip-path="url(#clip520)" d="M292.025 832.941 L296.909 832.941 L296.909 838.821 L292.025 838.821 L292.025 832.941 Z" fill="#000000" fill-rule="evenodd" fill-opacity="1" /><path clip-path="url(#clip520)" d="M317.094 807.34 Q313.483 807.34 311.655 810.904 Q309.849 814.446 309.849 821.576 Q309.849 828.682 311.655 832.247 Q313.483 835.789 317.094 835.789 Q320.729 835.789 322.534 832.247 Q324.363 828.682 324.363 821.576 Q324.363 814.446 322.534 810.904 Q320.729 807.34 317.094 807.34 M317.094 803.636 Q322.904 803.636 325.96 808.242 Q329.039 812.826 329.039 821.576 Q329.039 830.303 325.96 834.909 Q322.904 839.492 317.094 839.492 Q311.284 839.492 308.206 834.909 Q305.15 830.303 305.15 821.576 Q305.15 812.826 308.206 808.242 Q311.284 803.636 317.094 803.636 Z" fill="#000000" fill-rule="evenodd" fill-opacity="1" /><path clip-path="url(#clip520)" d="M683.434 834.886 L699.754 834.886 L699.754 838.821 L677.809 838.821 L677.809 834.886 Q680.471 832.131 685.055 827.502 Q689.661 822.849 690.842 821.506 Q693.087 818.983 693.967 817.247 Q694.869 815.488 694.869 813.798 Q694.869 811.043 692.925 809.307 Q691.004 807.571 687.902 807.571 Q685.703 807.571 683.249 808.335 Q680.818 809.099 678.041 810.65 L678.041 805.928 Q680.865 804.793 683.318 804.215 Q685.772 803.636 687.809 803.636 Q693.179 803.636 696.374 806.321 Q699.568 809.006 699.568 813.497 Q699.568 815.627 698.758 817.548 Q697.971 819.446 695.865 822.039 Q695.286 822.71 692.184 825.928 Q689.082 829.122 683.434 834.886 Z" fill="#000000" fill-rule="evenodd" fill-opacity="1" /><path clip-path="url(#clip520)" d="M709.568 832.941 L714.453 832.941 L714.453 838.821 L709.568 838.821 L709.568 832.941 Z" fill="#000000" fill-rule="evenodd" fill-opacity="1" /><path clip-path="url(#clip520)" d="M724.684 804.261 L743.04 804.261 L743.04 808.196 L728.966 808.196 L728.966 816.668 Q729.985 816.321 731.003 816.159 Q732.022 815.974 733.04 815.974 Q738.827 815.974 742.207 819.145 Q745.587 822.316 745.587 827.733 Q745.587 833.312 742.114 836.414 Q738.642 839.492 732.323 839.492 Q730.147 839.492 727.878 839.122 Q725.633 838.752 723.226 838.011 L723.226 833.312 Q725.309 834.446 727.531 835.002 Q729.753 835.557 732.23 835.557 Q736.235 835.557 738.573 833.451 Q740.911 831.344 740.911 827.733 Q740.911 824.122 738.573 822.016 Q736.235 819.909 732.23 819.909 Q730.355 819.909 728.48 820.326 Q726.628 820.742 724.684 821.622 L724.684 804.261 Z" fill="#000000" fill-rule="evenodd" fill-opacity="1" /><path clip-path="url(#clip520)" d="M1096.08 804.261 L1114.44 804.261 L1114.44 808.196 L1100.36 808.196 L1100.36 816.668 Q1101.38 816.321 1102.4 816.159 Q1103.42 815.974 1104.44 815.974 Q1110.23 815.974 1113.6 819.145 Q1116.98 822.316 1116.98 827.733 Q1116.98 833.312 1113.51 836.414 Q1110.04 839.492 1103.72 839.492 Q1101.54 839.492 1099.28 839.122 Q1097.03 838.752 1094.62 838.011 L1094.62 833.312 Q1096.71 834.446 1098.93 835.002 Q1101.15 835.557 1103.63 835.557 Q1107.63 835.557 1109.97 833.451 Q1112.31 831.344 1112.31 827.733 Q1112.31 824.122 1109.97 822.016 Q1107.63 819.909 1103.63 819.909 Q1101.75 819.909 1099.88 820.326 Q1098.03 820.742 1096.08 821.622 L1096.08 804.261 Z" fill="#000000" fill-rule="evenodd" fill-opacity="1" /><path clip-path="url(#clip520)" d="M1126.2 832.941 L1131.08 832.941 L1131.08 838.821 L1126.2 838.821 L1126.2 832.941 Z" fill="#000000" fill-rule="evenodd" fill-opacity="1" /><path clip-path="url(#clip520)" d="M1151.27 807.34 Q1147.66 807.34 1145.83 810.904 Q1144.02 814.446 1144.02 821.576 Q1144.02 828.682 1145.83 832.247 Q1147.66 835.789 1151.27 835.789 Q1154.9 835.789 1156.71 832.247 Q1158.53 828.682 1158.53 821.576 Q1158.53 814.446 1156.71 810.904 Q1154.9 807.34 1151.27 807.34 M1151.27 803.636 Q1157.08 803.636 1160.13 808.242 Q1163.21 812.826 1163.21 821.576 Q1163.21 830.303 1160.13 834.909 Q1157.08 839.492 1151.27 839.492 Q1145.46 839.492 1142.38 834.909 Q1139.32 830.303 1139.32 821.576 Q1139.32 812.826 1142.38 808.242 Q1145.46 803.636 1151.27 803.636 Z" fill="#000000" fill-rule="evenodd" fill-opacity="1" /><path clip-path="url(#clip520)" d="M1512.46 804.261 L1534.68 804.261 L1534.68 806.252 L1522.13 838.821 L1517.25 838.821 L1529.05 808.196 L1512.46 808.196 L1512.46 804.261 Z" fill="#000000" fill-rule="evenodd" fill-opacity="1" /><path clip-path="url(#clip520)" d="M1543.8 832.941 L1548.68 832.941 L1548.68 838.821 L1543.8 838.821 L1543.8 832.941 Z" fill="#000000" fill-rule="evenodd" fill-opacity="1" /><path clip-path="url(#clip520)" d="M1558.91 804.261 L1577.27 804.261 L1577.27 808.196 L1563.2 808.196 L1563.2 816.668 Q1564.21 816.321 1565.23 816.159 Q1566.25 815.974 1567.27 815.974 Q1573.06 815.974 1576.44 819.145 Q1579.82 822.316 1579.82 827.733 Q1579.82 833.312 1576.34 836.414 Q1572.87 839.492 1566.55 839.492 Q1564.38 839.492 1562.11 839.122 Q1559.86 838.752 1557.46 838.011 L1557.46 833.312 Q1559.54 834.446 1561.76 835.002 Q1563.98 835.557 1566.46 835.557 Q1570.46 835.557 1572.8 833.451 Q1575.14 831.344 1575.14 827.733 Q1575.14 824.122 1572.8 822.016 Q1570.46 819.909 1566.46 819.909 Q1564.59 819.909 1562.71 820.326 Q1560.86 820.742 1558.91 821.622 L1558.91 804.261 Z" fill="#000000" fill-rule="evenodd" fill-opacity="1" /><path clip-path="url(#clip520)" d="M1915.43 834.886 L1923.07 834.886 L1923.07 808.52 L1914.76 810.187 L1914.76 805.928 L1923.02 804.261 L1927.7 804.261 L1927.7 834.886 L1935.33 834.886 L1935.33 838.821 L1915.43 838.821 L1915.43 834.886 Z" fill="#000000" fill-rule="evenodd" fill-opacity="1" /><path clip-path="url(#clip520)" d="M1954.78 807.34 Q1951.17 807.34 1949.34 810.904 Q1947.53 814.446 1947.53 821.576 Q1947.53 828.682 1949.34 832.247 Q1951.17 835.789 1954.78 835.789 Q1958.41 835.789 1960.22 832.247 Q1962.05 828.682 1962.05 821.576 Q1962.05 814.446 1960.22 810.904 Q1958.41 807.34 1954.78 807.34 M1954.78 803.636 Q1960.59 803.636 1963.64 808.242 Q1966.72 812.826 1966.72 821.576 Q1966.72 830.303 1963.64 834.909 Q1960.59 839.492 1954.78 839.492 Q1948.97 839.492 1945.89 834.909 Q1942.83 830.303 1942.83 821.576 Q1942.83 812.826 1945.89 808.242 Q1948.97 803.636 1954.78 803.636 Z" fill="#000000" fill-rule="evenodd" fill-opacity="1" /><path clip-path="url(#clip520)" d="M1974.94 832.941 L1979.83 832.941 L1979.83 838.821 L1974.94 838.821 L1974.94 832.941 Z" fill="#000000" fill-rule="evenodd" fill-opacity="1" /><path clip-path="url(#clip520)" d="M2000.01 807.34 Q1996.4 807.34 1994.57 810.904 Q1992.76 814.446 1992.76 821.576 Q1992.76 828.682 1994.57 832.247 Q1996.4 835.789 2000.01 835.789 Q2003.64 835.789 2005.45 832.247 Q2007.28 828.682 2007.28 821.576 Q2007.28 814.446 2005.45 810.904 Q2003.64 807.34 2000.01 807.34 M2000.01 803.636 Q2005.82 803.636 2008.88 808.242 Q2011.95 812.826 2011.95 821.576 Q2011.95 830.303 2008.88 834.909 Q2005.82 839.492 2000.01 839.492 Q1994.2 839.492 1991.12 834.909 Q1988.07 830.303 1988.07 821.576 Q1988.07 812.826 1991.12 808.242 Q1994.2 803.636 2000.01 803.636 Z" fill="#000000" fill-rule="evenodd" fill-opacity="1" /><path clip-path="url(#clip520)" d="M2333.14 834.886 L2340.78 834.886 L2340.78 808.52 L2332.47 810.187 L2332.47 805.928 L2340.74 804.261 L2345.41 804.261 L2345.41 834.886 L2353.05 834.886 L2353.05 838.821 L2333.14 838.821 L2333.14 834.886 Z" fill="#000000" fill-rule="evenodd" fill-opacity="1" /><path clip-path="url(#clip520)" d="M2366.52 834.886 L2382.84 834.886 L2382.84 838.821 L2360.9 838.821 L2360.9 834.886 Q2363.56 832.131 2368.14 827.502 Q2372.75 822.849 2373.93 821.506 Q2376.18 818.983 2377.06 817.247 Q2377.96 815.488 2377.96 813.798 Q2377.96 811.043 2376.01 809.307 Q2374.09 807.571 2370.99 807.571 Q2368.79 807.571 2366.34 808.335 Q2363.91 809.099 2361.13 810.65 L2361.13 805.928 Q2363.95 804.793 2366.41 804.215 Q2368.86 803.636 2370.9 803.636 Q2376.27 803.636 2379.46 806.321 Q2382.66 809.006 2382.66 813.497 Q2382.66 815.627 2381.85 817.548 Q2381.06 819.446 2378.95 822.039 Q2378.38 822.71 2375.27 825.928 Q2372.17 829.122 2366.52 834.886 Z" fill="#000000" fill-rule="evenodd" fill-opacity="1" /><path clip-path="url(#clip520)" d="M2392.66 832.941 L2397.54 832.941 L2397.54 838.821 L2392.66 838.821 L2392.66 832.941 Z" fill="#000000" fill-rule="evenodd" fill-opacity="1" /><path clip-path="url(#clip520)" d="M2407.77 804.261 L2426.13 804.261 L2426.13 808.196 L2412.06 808.196 L2412.06 816.668 Q2413.07 816.321 2414.09 816.159 Q2415.11 815.974 2416.13 815.974 Q2421.92 815.974 2425.3 819.145 Q2428.68 822.316 2428.68 827.733 Q2428.68 833.312 2425.2 836.414 Q2421.73 839.492 2415.41 839.492 Q2413.24 839.492 2410.97 839.122 Q2408.72 838.752 2406.32 838.011 L2406.32 833.312 Q2408.4 834.446 2410.62 835.002 Q2412.84 835.557 2415.32 835.557 Q2419.32 835.557 2421.66 833.451 Q2424 831.344 2424 827.733 Q2424 824.122 2421.66 822.016 Q2419.32 819.909 2415.32 819.909 Q2413.44 819.909 2411.57 820.326 Q2409.72 820.742 2407.77 821.622 L2407.77 804.261 Z" fill="#000000" fill-rule="evenodd" fill-opacity="1" /><path clip-path="url(#clip520)" d="M1372.61 877.532 L1372.61 887.653 L1384.67 887.653 L1384.67 892.205 L1372.61 892.205 L1372.61 911.556 Q1372.61 915.917 1373.79 917.158 Q1375 918.399 1378.66 918.399 L1384.67 918.399 L1384.67 923.301 L1378.66 923.301 Q1371.88 923.301 1369.3 920.787 Q1366.72 918.24 1366.72 911.556 L1366.72 892.205 L1362.42 892.205 L1362.42 887.653 L1366.72 887.653 L1366.72 877.532 L1372.61 877.532 Z" fill="#000000" fill-rule="evenodd" fill-opacity="1" /><path clip-path="url(#clip520)" d="M1392.37 887.653 L1398.23 887.653 L1398.23 923.301 L1392.37 923.301 L1392.37 887.653 M1392.37 873.776 L1398.23 873.776 L1398.23 881.192 L1392.37 881.192 L1392.37 873.776 Z" fill="#000000" fill-rule="evenodd" fill-opacity="1" /><path clip-path="url(#clip520)" d="M1438.24 894.496 Q1440.43 890.549 1443.49 888.672 Q1446.55 886.794 1450.68 886.794 Q1456.25 886.794 1459.28 890.709 Q1462.3 894.592 1462.3 901.785 L1462.3 923.301 L1456.41 923.301 L1456.41 901.976 Q1456.41 896.851 1454.6 894.369 Q1452.78 891.886 1449.06 891.886 Q1444.51 891.886 1441.87 894.91 Q1439.23 897.934 1439.23 903.154 L1439.23 923.301 L1433.34 923.301 L1433.34 901.976 Q1433.34 896.82 1431.52 894.369 Q1429.71 891.886 1425.92 891.886 Q1421.43 891.886 1418.79 894.942 Q1416.15 897.965 1416.15 903.154 L1416.15 923.301 L1410.26 923.301 L1410.26 887.653 L1416.15 887.653 L1416.15 893.191 Q1418.15 889.913 1420.96 888.353 Q1423.76 886.794 1427.61 886.794 Q1431.49 886.794 1434.2 888.767 Q1436.93 890.74 1438.24 894.496 Z" fill="#000000" fill-rule="evenodd" fill-opacity="1" /><path clip-path="url(#clip520)" d="M1504.47 904.013 L1504.47 906.877 L1477.55 906.877 Q1477.93 912.925 1481.18 916.108 Q1484.45 919.259 1490.28 919.259 Q1493.65 919.259 1496.8 918.431 Q1499.99 917.604 1503.1 915.949 L1503.1 921.487 Q1499.95 922.824 1496.64 923.524 Q1493.33 924.224 1489.93 924.224 Q1481.4 924.224 1476.4 919.259 Q1471.44 914.294 1471.44 905.827 Q1471.44 897.074 1476.15 891.95 Q1480.89 886.794 1488.91 886.794 Q1496.1 886.794 1500.27 891.441 Q1504.47 896.056 1504.47 904.013 M1498.62 902.294 Q1498.55 897.488 1495.91 894.623 Q1493.3 891.759 1488.97 891.759 Q1484.07 891.759 1481.11 894.528 Q1478.18 897.297 1477.74 902.326 L1498.62 902.294 Z" fill="#000000" fill-rule="evenodd" fill-opacity="1" /><polyline clip-path="url(#clip522)" style="stroke:#000000; stroke-linecap:round; stroke-linejoin:round; stroke-width:2; stroke-opacity:0.1; fill:none" points="
  226.141,755.825 2640.76,755.825 
  "/>
<polyline clip-path="url(#clip522)" style="stroke:#000000; stroke-linecap:round; stroke-linejoin:round; stroke-width:2; stroke-opacity:0.1; fill:none" points="
  226.141,620.944 2640.76,620.944 
  "/>
<polyline clip-path="url(#clip522)" style="stroke:#000000; stroke-linecap:round; stroke-linejoin:round; stroke-width:2; stroke-opacity:0.1; fill:none" points="
  226.141,486.064 2640.76,486.064 
  "/>
<polyline clip-path="url(#clip522)" style="stroke:#000000; stroke-linecap:round; stroke-linejoin:round; stroke-width:2; stroke-opacity:0.1; fill:none" points="
  226.141,351.184 2640.76,351.184 
  "/>
<polyline clip-path="url(#clip522)" style="stroke:#000000; stroke-linecap:round; stroke-linejoin:round; stroke-width:2; stroke-opacity:0.1; fill:none" points="
  226.141,216.304 2640.76,216.304 
  "/>
<polyline clip-path="url(#clip520)" style="stroke:#000000; stroke-linecap:round; stroke-linejoin:round; stroke-width:4; stroke-opacity:1; fill:none" points="
  226.141,774.117 226.141,127.792 
  "/>
<polyline clip-path="url(#clip520)" style="stroke:#000000; stroke-linecap:round; stroke-linejoin:round; stroke-width:4; stroke-opacity:1; fill:none" points="
  226.141,755.825 245.038,755.825 
  "/>
<polyline clip-path="url(#clip520)" style="stroke:#000000; stroke-linecap:round; stroke-linejoin:round; stroke-width:4; stroke-opacity:1; fill:none" points="
  226.141,620.944 245.038,620.944 
  "/>
<polyline clip-path="url(#clip520)" style="stroke:#000000; stroke-linecap:round; stroke-linejoin:round; stroke-width:4; stroke-opacity:1; fill:none" points="
  226.141,486.064 245.038,486.064 
  "/>
<polyline clip-path="url(#clip520)" style="stroke:#000000; stroke-linecap:round; stroke-linejoin:round; stroke-width:4; stroke-opacity:1; fill:none" points="
  226.141,351.184 245.038,351.184 
  "/>
<polyline clip-path="url(#clip520)" style="stroke:#000000; stroke-linecap:round; stroke-linejoin:round; stroke-width:4; stroke-opacity:1; fill:none" points="
  226.141,216.304 245.038,216.304 
  "/>
<path clip-path="url(#clip520)" d="M128.645 741.623 Q125.034 741.623 123.205 745.188 Q121.4 748.73 121.4 755.859 Q121.4 762.966 123.205 766.531 Q125.034 770.072 128.645 770.072 Q132.279 770.072 134.085 766.531 Q135.913 762.966 135.913 755.859 Q135.913 748.73 134.085 745.188 Q132.279 741.623 128.645 741.623 M128.645 737.92 Q134.455 737.92 137.511 742.526 Q140.589 747.11 140.589 755.859 Q140.589 764.586 137.511 769.193 Q134.455 773.776 128.645 773.776 Q122.835 773.776 119.756 769.193 Q116.701 764.586 116.701 755.859 Q116.701 747.11 119.756 742.526 Q122.835 737.92 128.645 737.92 Z" fill="#000000" fill-rule="evenodd" fill-opacity="1" /><path clip-path="url(#clip520)" d="M148.807 767.225 L153.691 767.225 L153.691 773.105 L148.807 773.105 L148.807 767.225 Z" fill="#000000" fill-rule="evenodd" fill-opacity="1" /><path clip-path="url(#clip520)" d="M173.876 741.623 Q170.265 741.623 168.436 745.188 Q166.631 748.73 166.631 755.859 Q166.631 762.966 168.436 766.531 Q170.265 770.072 173.876 770.072 Q177.51 770.072 179.316 766.531 Q181.145 762.966 181.145 755.859 Q181.145 748.73 179.316 745.188 Q177.51 741.623 173.876 741.623 M173.876 737.92 Q179.686 737.92 182.742 742.526 Q185.821 747.11 185.821 755.859 Q185.821 764.586 182.742 769.193 Q179.686 773.776 173.876 773.776 Q168.066 773.776 164.987 769.193 Q161.932 764.586 161.932 755.859 Q161.932 747.11 164.987 742.526 Q168.066 737.92 173.876 737.92 Z" fill="#000000" fill-rule="evenodd" fill-opacity="1" /><path clip-path="url(#clip520)" d="M129.872 606.743 Q126.261 606.743 124.432 610.308 Q122.626 613.85 122.626 620.979 Q122.626 628.086 124.432 631.65 Q126.261 635.192 129.872 635.192 Q133.506 635.192 135.312 631.65 Q137.14 628.086 137.14 620.979 Q137.14 613.85 135.312 610.308 Q133.506 606.743 129.872 606.743 M129.872 603.039 Q135.682 603.039 138.737 607.646 Q141.816 612.229 141.816 620.979 Q141.816 629.706 138.737 634.312 Q135.682 638.896 129.872 638.896 Q124.062 638.896 120.983 634.312 Q117.927 629.706 117.927 620.979 Q117.927 612.229 120.983 607.646 Q124.062 603.039 129.872 603.039 Z" fill="#000000" fill-rule="evenodd" fill-opacity="1" /><path clip-path="url(#clip520)" d="M150.034 632.345 L154.918 632.345 L154.918 638.224 L150.034 638.224 L150.034 632.345 Z" fill="#000000" fill-rule="evenodd" fill-opacity="1" /><path clip-path="url(#clip520)" d="M165.913 634.289 L173.552 634.289 L173.552 607.924 L165.242 609.59 L165.242 605.331 L173.506 603.664 L178.182 603.664 L178.182 634.289 L185.821 634.289 L185.821 638.224 L165.913 638.224 L165.913 634.289 Z" fill="#000000" fill-rule="evenodd" fill-opacity="1" /><path clip-path="url(#clip520)" d="M130.242 471.863 Q126.631 471.863 124.802 475.428 Q122.997 478.969 122.997 486.099 Q122.997 493.205 124.802 496.77 Q126.631 500.312 130.242 500.312 Q133.876 500.312 135.682 496.77 Q137.511 493.205 137.511 486.099 Q137.511 478.969 135.682 475.428 Q133.876 471.863 130.242 471.863 M130.242 468.159 Q136.052 468.159 139.108 472.766 Q142.187 477.349 142.187 486.099 Q142.187 494.826 139.108 499.432 Q136.052 504.015 130.242 504.015 Q124.432 504.015 121.353 499.432 Q118.298 494.826 118.298 486.099 Q118.298 477.349 121.353 472.766 Q124.432 468.159 130.242 468.159 Z" fill="#000000" fill-rule="evenodd" fill-opacity="1" /><path clip-path="url(#clip520)" d="M150.404 497.465 L155.288 497.465 L155.288 503.344 L150.404 503.344 L150.404 497.465 Z" fill="#000000" fill-rule="evenodd" fill-opacity="1" /><path clip-path="url(#clip520)" d="M169.501 499.409 L185.821 499.409 L185.821 503.344 L163.876 503.344 L163.876 499.409 Q166.538 496.654 171.122 492.025 Q175.728 487.372 176.909 486.029 Q179.154 483.506 180.034 481.77 Q180.936 480.011 180.936 478.321 Q180.936 475.567 178.992 473.83 Q177.071 472.094 173.969 472.094 Q171.77 472.094 169.316 472.858 Q166.885 473.622 164.108 475.173 L164.108 470.451 Q166.932 469.317 169.385 468.738 Q171.839 468.159 173.876 468.159 Q179.247 468.159 182.441 470.844 Q185.635 473.529 185.635 478.02 Q185.635 480.15 184.825 482.071 Q184.038 483.969 181.932 486.562 Q181.353 487.233 178.251 490.451 Q175.149 493.645 169.501 499.409 Z" fill="#000000" fill-rule="evenodd" fill-opacity="1" /><path clip-path="url(#clip520)" d="M129.293 336.983 Q125.682 336.983 123.853 340.547 Q122.048 344.089 122.048 351.219 Q122.048 358.325 123.853 361.89 Q125.682 365.431 129.293 365.431 Q132.927 365.431 134.733 361.89 Q136.562 358.325 136.562 351.219 Q136.562 344.089 134.733 340.547 Q132.927 336.983 129.293 336.983 M129.293 333.279 Q135.103 333.279 138.159 337.885 Q141.237 342.469 141.237 351.219 Q141.237 359.945 138.159 364.552 Q135.103 369.135 129.293 369.135 Q123.483 369.135 120.404 364.552 Q117.349 359.945 117.349 351.219 Q117.349 342.469 120.404 337.885 Q123.483 333.279 129.293 333.279 Z" fill="#000000" fill-rule="evenodd" fill-opacity="1" /><path clip-path="url(#clip520)" d="M149.455 362.584 L154.339 362.584 L154.339 368.464 L149.455 368.464 L149.455 362.584 Z" fill="#000000" fill-rule="evenodd" fill-opacity="1" /><path clip-path="url(#clip520)" d="M178.691 349.83 Q182.047 350.547 183.922 352.816 Q185.821 355.084 185.821 358.418 Q185.821 363.533 182.302 366.334 Q178.784 369.135 172.302 369.135 Q170.126 369.135 167.811 368.695 Q165.52 368.279 163.066 367.422 L163.066 362.908 Q165.01 364.043 167.325 364.621 Q169.64 365.2 172.163 365.2 Q176.561 365.2 178.853 363.464 Q181.168 361.728 181.168 358.418 Q181.168 355.362 179.015 353.649 Q176.885 351.913 173.066 351.913 L169.038 351.913 L169.038 348.07 L173.251 348.07 Q176.7 348.07 178.529 346.705 Q180.358 345.316 180.358 342.723 Q180.358 340.061 178.459 338.649 Q176.584 337.214 173.066 337.214 Q171.145 337.214 168.946 337.631 Q166.747 338.047 164.108 338.927 L164.108 334.76 Q166.77 334.02 169.085 333.649 Q171.422 333.279 173.483 333.279 Q178.807 333.279 181.909 335.709 Q185.01 338.117 185.01 342.237 Q185.01 345.107 183.367 347.098 Q181.723 349.066 178.691 349.83 Z" fill="#000000" fill-rule="evenodd" fill-opacity="1" /><path clip-path="url(#clip520)" d="M128.159 202.102 Q124.548 202.102 122.719 205.667 Q120.913 209.209 120.913 216.338 Q120.913 223.445 122.719 227.009 Q124.548 230.551 128.159 230.551 Q131.793 230.551 133.599 227.009 Q135.427 223.445 135.427 216.338 Q135.427 209.209 133.599 205.667 Q131.793 202.102 128.159 202.102 M128.159 198.399 Q133.969 198.399 137.025 203.005 Q140.103 207.588 140.103 216.338 Q140.103 225.065 137.025 229.672 Q133.969 234.255 128.159 234.255 Q122.349 234.255 119.27 229.672 Q116.214 225.065 116.214 216.338 Q116.214 207.588 119.27 203.005 Q122.349 198.399 128.159 198.399 Z" fill="#000000" fill-rule="evenodd" fill-opacity="1" /><path clip-path="url(#clip520)" d="M148.321 227.704 L153.205 227.704 L153.205 233.584 L148.321 233.584 L148.321 227.704 Z" fill="#000000" fill-rule="evenodd" fill-opacity="1" /><path clip-path="url(#clip520)" d="M176.237 203.098 L164.432 221.547 L176.237 221.547 L176.237 203.098 M175.01 199.024 L180.89 199.024 L180.89 221.547 L185.821 221.547 L185.821 225.435 L180.89 225.435 L180.89 233.584 L176.237 233.584 L176.237 225.435 L160.636 225.435 L160.636 220.922 L175.01 199.024 Z" fill="#000000" fill-rule="evenodd" fill-opacity="1" /><path clip-path="url(#clip520)" d="M27.0408 519.354 L32.579 519.354 Q31.3059 521.837 30.6693 524.51 Q30.0327 527.184 30.0327 530.048 Q30.0327 534.409 31.3695 536.605 Q32.7063 538.769 35.3799 538.769 Q37.4169 538.769 38.5946 537.21 Q39.7404 535.65 40.7908 530.94 L41.2364 528.934 Q42.5732 522.696 45.0239 520.086 Q47.4429 517.444 51.8034 517.444 Q56.7687 517.444 59.6651 521.391 Q62.5615 525.306 62.5615 532.181 Q62.5615 535.046 61.9886 538.165 Q61.4475 541.252 60.3335 544.69 L54.2861 544.69 Q55.973 541.443 56.8323 538.292 Q57.6599 535.141 57.6599 532.054 Q57.6599 527.916 56.2594 525.688 Q54.8271 523.46 52.249 523.46 Q49.8619 523.46 48.5887 525.083 Q47.3156 526.675 46.1379 532.117 L45.6605 534.154 Q44.5147 539.597 42.1594 542.016 Q39.7722 544.435 35.6345 544.435 Q30.6056 544.435 27.8684 540.87 Q25.1311 537.305 25.1311 530.749 Q25.1311 527.502 25.6085 524.638 Q26.086 521.773 27.0408 519.354 Z" fill="#000000" fill-rule="evenodd" fill-opacity="1" /><path clip-path="url(#clip520)" d="M56.2912 502.453 L75.1974 502.453 L75.1974 508.341 L25.9905 508.341 L25.9905 502.453 L31.4013 502.453 Q28.2185 500.607 26.6907 497.806 Q25.1311 494.973 25.1311 491.059 Q25.1311 484.565 30.2873 480.523 Q35.4436 476.449 43.8463 476.449 Q52.249 476.449 57.4052 480.523 Q62.5615 484.565 62.5615 491.059 Q62.5615 494.973 61.0337 497.806 Q59.4741 500.607 56.2912 502.453 M43.8463 482.528 Q37.3851 482.528 33.7248 485.202 Q30.0327 487.844 30.0327 492.491 Q30.0327 497.138 33.7248 499.811 Q37.3851 502.453 43.8463 502.453 Q50.3075 502.453 53.9996 499.811 Q57.6599 497.138 57.6599 492.491 Q57.6599 487.844 53.9996 485.202 Q50.3075 482.528 43.8463 482.528 Z" fill="#000000" fill-rule="evenodd" fill-opacity="1" /><path clip-path="url(#clip520)" d="M42.3504 436.25 L45.2149 436.25 L45.2149 463.177 Q51.2623 462.795 54.4452 459.548 Q57.5962 456.27 57.5962 450.445 Q57.5962 447.071 56.7687 443.92 Q55.9411 440.738 54.2861 437.618 L59.8242 437.618 Q61.161 440.769 61.8612 444.08 Q62.5615 447.39 62.5615 450.795 Q62.5615 459.325 57.5962 464.323 Q52.631 469.288 44.1646 469.288 Q35.4117 469.288 30.2873 464.577 Q25.1311 459.835 25.1311 451.814 Q25.1311 444.621 29.7781 440.451 Q34.3932 436.25 42.3504 436.25 M40.6316 442.106 Q35.8255 442.17 32.9609 444.812 Q30.0964 447.422 30.0964 451.75 Q30.0964 456.652 32.8654 459.612 Q35.6345 462.54 40.6634 462.986 L40.6316 442.106 Z" fill="#000000" fill-rule="evenodd" fill-opacity="1" /><path clip-path="url(#clip520)" d="M42.3504 396.146 L45.2149 396.146 L45.2149 423.073 Q51.2623 422.691 54.4452 419.444 Q57.5962 416.166 57.5962 410.341 Q57.5962 406.968 56.7687 403.816 Q55.9411 400.634 54.2861 397.514 L59.8242 397.514 Q61.161 400.665 61.8612 403.976 Q62.5615 407.286 62.5615 410.691 Q62.5615 419.222 57.5962 424.219 Q52.631 429.184 44.1646 429.184 Q35.4117 429.184 30.2873 424.473 Q25.1311 419.731 25.1311 411.71 Q25.1311 404.517 29.7781 400.347 Q34.3932 396.146 42.3504 396.146 M40.6316 402.002 Q35.8255 402.066 32.9609 404.708 Q30.0964 407.318 30.0964 411.646 Q30.0964 416.548 32.8654 419.508 Q35.6345 422.436 40.6634 422.882 L40.6316 402.002 Z" fill="#000000" fill-rule="evenodd" fill-opacity="1" /><path clip-path="url(#clip520)" d="M31.4013 363.076 L12.1132 363.076 L12.1132 357.22 L61.6384 357.22 L61.6384 363.076 L56.2912 363.076 Q59.4741 364.922 61.0337 367.755 Q62.5615 370.556 62.5615 374.502 Q62.5615 380.964 57.4052 385.038 Q52.249 389.08 43.8463 389.08 Q35.4436 389.08 30.2873 385.038 Q25.1311 380.964 25.1311 374.502 Q25.1311 370.556 26.6907 367.755 Q28.2185 364.922 31.4013 363.076 M43.8463 383.032 Q50.3075 383.032 53.9996 380.391 Q57.6599 377.717 57.6599 373.07 Q57.6599 368.423 53.9996 365.75 Q50.3075 363.076 43.8463 363.076 Q37.3851 363.076 33.7248 365.75 Q30.0327 368.423 30.0327 373.07 Q30.0327 377.717 33.7248 380.391 Q37.3851 383.032 43.8463 383.032 Z" fill="#000000" fill-rule="evenodd" fill-opacity="1" /><path clip-path="url(#clip520)" d="M1382.63 12.096 L1390.85 12.096 L1390.85 48.8377 Q1390.85 58.5599 1394.38 62.8538 Q1397.9 67.1073 1405.8 67.1073 Q1413.66 67.1073 1417.18 62.8538 Q1420.71 58.5599 1420.71 48.8377 L1420.71 12.096 L1428.93 12.096 L1428.93 49.8504 Q1428.93 61.6791 1423.06 67.7149 Q1417.22 73.7508 1405.8 73.7508 Q1394.34 73.7508 1388.46 67.7149 Q1382.63 61.6791 1382.63 49.8504 L1382.63 12.096 Z" fill="#000000" fill-rule="evenodd" fill-opacity="1" /><path clip-path="url(#clip520)" d="M1451.17 65.7705 L1451.17 89.8329 L1443.68 89.8329 L1443.68 27.2059 L1451.17 27.2059 L1451.17 34.0924 Q1453.52 30.0415 1457.09 28.0971 Q1460.69 26.1121 1465.67 26.1121 Q1473.94 26.1121 1479.08 32.6746 Q1484.27 39.2371 1484.27 49.9314 Q1484.27 60.6258 1479.08 67.1883 Q1473.94 73.7508 1465.67 73.7508 Q1460.69 73.7508 1457.09 71.8063 Q1453.52 69.8214 1451.17 65.7705 M1476.53 49.9314 Q1476.53 41.7081 1473.13 37.0496 Q1469.76 32.3505 1463.85 32.3505 Q1457.94 32.3505 1454.53 37.0496 Q1451.17 41.7081 1451.17 49.9314 Q1451.17 58.1548 1454.53 62.8538 Q1457.94 67.5124 1463.85 67.5124 Q1469.76 67.5124 1473.13 62.8538 Q1476.53 58.1548 1476.53 49.9314 Z" fill="#000000" fill-rule="evenodd" fill-opacity="1" /><polyline clip-path="url(#clip522)" style="stroke:#009af9; stroke-linecap:round; stroke-linejoin:round; stroke-width:4; stroke-opacity:1; fill:none" points="
  294.479,755.825 414.37,629.376 534.262,502.928 654.153,376.48 774.045,304.772 893.936,269.655 1013.83,234.537 1133.72,219.863 1253.61,209.476 1373.5,201.063 
  1493.39,201.024 1613.29,200.985 1733.18,206.399 1853.07,216.18 1972.96,225.96 2092.85,250.438 2212.74,278.951 2332.63,307.464 2452.53,446.178 2572.42,755.825 
  
  "/>
<polyline clip-path="url(#clip522)" style="stroke:#e26f46; stroke-linecap:round; stroke-linejoin:round; stroke-width:4; stroke-opacity:1; fill:none" points="
  294.479,755.825 702.185,325.821 1034.61,228.448 1350.64,201.07 1666.6,200.968 1998.79,228.067 2405.53,324.801 2572.42,755.825 
  "/>
<circle clip-path="url(#clip522)" cx="294.479" cy="755.825" r="14.4" fill="#3da44d" fill-rule="evenodd" fill-opacity="0.1" stroke="#000000" stroke-opacity="0.1" stroke-width="3.84"/>
<circle clip-path="url(#clip522)" cx="702.185" cy="325.821" r="14.4" fill="#3da44d" fill-rule="evenodd" fill-opacity="0.1" stroke="#000000" stroke-opacity="0.1" stroke-width="3.84"/>
<circle clip-path="url(#clip522)" cx="1034.61" cy="228.448" r="14.4" fill="#3da44d" fill-rule="evenodd" fill-opacity="0.1" stroke="#000000" stroke-opacity="0.1" stroke-width="3.84"/>
<circle clip-path="url(#clip522)" cx="1350.64" cy="201.07" r="14.4" fill="#3da44d" fill-rule="evenodd" fill-opacity="0.1" stroke="#000000" stroke-opacity="0.1" stroke-width="3.84"/>
<circle clip-path="url(#clip522)" cx="1666.6" cy="200.968" r="14.4" fill="#3da44d" fill-rule="evenodd" fill-opacity="0.1" stroke="#000000" stroke-opacity="0.1" stroke-width="3.84"/>
<circle clip-path="url(#clip522)" cx="1998.79" cy="228.067" r="14.4" fill="#3da44d" fill-rule="evenodd" fill-opacity="0.1" stroke="#000000" stroke-opacity="0.1" stroke-width="3.84"/>
<circle clip-path="url(#clip522)" cx="2405.53" cy="324.801" r="14.4" fill="#3da44d" fill-rule="evenodd" fill-opacity="0.1" stroke="#000000" stroke-opacity="0.1" stroke-width="3.84"/>
<circle clip-path="url(#clip522)" cx="2572.42" cy="755.825" r="14.4" fill="#3da44d" fill-rule="evenodd" fill-opacity="0.1" stroke="#000000" stroke-opacity="0.1" stroke-width="3.84"/>
<polyline clip-path="url(#clip522)" style="stroke:#c271d2; stroke-linecap:round; stroke-linejoin:round; stroke-width:4; stroke-opacity:1; fill:none" points="
  294.479,755.825 413.734,617.902 532.989,479.979 652.244,342.056 771.499,282.903 890.754,252.118 1010.01,221.332 1129.26,211.865 1248.52,202.681 1367.77,197.055 
  1487.03,197.829 1606.28,198.603 1725.54,206.648 1844.79,217.549 1964.05,228.45 2083.3,258.071 2202.56,289.185 2321.81,320.298 2441.07,457.958 2560.32,755.825 
  
  "/>
<polyline clip-path="url(#clip522)" style="stroke:#ac8d18; stroke-linecap:round; stroke-linejoin:round; stroke-width:4; stroke-opacity:1; fill:none" points="
  294.479,755.825 683.819,305.537 1011.57,220.928 1325.17,196.779 1639.92,198.822 1972.86,229.255 2393.44,338.985 2560.32,755.825 
  "/>
<circle clip-path="url(#clip522)" cx="294.479" cy="755.825" r="14.4" fill="#00a9ad" fill-rule="evenodd" fill-opacity="0.1" stroke="#000000" stroke-opacity="0.1" stroke-width="3.84"/>
<circle clip-path="url(#clip522)" cx="683.819" cy="305.537" r="14.4" fill="#00a9ad" fill-rule="evenodd" fill-opacity="0.1" stroke="#000000" stroke-opacity="0.1" stroke-width="3.84"/>
<circle clip-path="url(#clip522)" cx="1011.57" cy="220.928" r="14.4" fill="#00a9ad" fill-rule="evenodd" fill-opacity="0.1" stroke="#000000" stroke-opacity="0.1" stroke-width="3.84"/>
<circle clip-path="url(#clip522)" cx="1325.17" cy="196.779" r="14.4" fill="#00a9ad" fill-rule="evenodd" fill-opacity="0.1" stroke="#000000" stroke-opacity="0.1" stroke-width="3.84"/>
<circle clip-path="url(#clip522)" cx="1639.92" cy="198.822" r="14.4" fill="#00a9ad" fill-rule="evenodd" fill-opacity="0.1" stroke="#000000" stroke-opacity="0.1" stroke-width="3.84"/>
<circle clip-path="url(#clip522)" cx="1972.86" cy="229.255" r="14.4" fill="#00a9ad" fill-rule="evenodd" fill-opacity="0.1" stroke="#000000" stroke-opacity="0.1" stroke-width="3.84"/>
<circle clip-path="url(#clip522)" cx="2393.44" cy="338.985" r="14.4" fill="#00a9ad" fill-rule="evenodd" fill-opacity="0.1" stroke="#000000" stroke-opacity="0.1" stroke-width="3.84"/>
<circle clip-path="url(#clip522)" cx="2560.32" cy="755.825" r="14.4" fill="#00a9ad" fill-rule="evenodd" fill-opacity="0.1" stroke="#000000" stroke-opacity="0.1" stroke-width="3.84"/>
<polyline clip-path="url(#clip522)" style="stroke:#ed5d92; stroke-linecap:round; stroke-linejoin:round; stroke-width:4; stroke-opacity:1; fill:none" points="
  294.479,755.825 411.93,603.254 529.382,450.683 646.833,298.112 764.285,255.537 881.737,229.085 999.188,205.488 1116.64,197.589 1234.09,189.69 1351.54,186.916 
  1468.99,188.609 1586.45,190.301 1703.9,201.373 1821.35,213.557 1938.8,227.542 2056.25,261.28 2173.7,295.018 2291.16,328.755 2408.61,469.013 2526.06,755.825 
  
  "/>
<polyline clip-path="url(#clip522)" style="stroke:#c68125; stroke-linecap:round; stroke-linejoin:round; stroke-width:4; stroke-opacity:1; fill:none" points="
  294.479,755.825 661.848,278.608 981.113,206.703 1288.78,186.012 1598.89,190.48 1928.98,224.722 2359.17,348.293 2526.06,755.825 
  "/>
<circle clip-path="url(#clip522)" cx="294.479" cy="755.825" r="14.4" fill="#00a98d" fill-rule="evenodd" fill-opacity="0.1" stroke="#000000" stroke-opacity="0.1" stroke-width="3.84"/>
<circle clip-path="url(#clip522)" cx="661.848" cy="278.608" r="14.4" fill="#00a98d" fill-rule="evenodd" fill-opacity="0.1" stroke="#000000" stroke-opacity="0.1" stroke-width="3.84"/>
<circle clip-path="url(#clip522)" cx="981.113" cy="206.703" r="14.4" fill="#00a98d" fill-rule="evenodd" fill-opacity="0.1" stroke="#000000" stroke-opacity="0.1" stroke-width="3.84"/>
<circle clip-path="url(#clip522)" cx="1288.78" cy="186.012" r="14.4" fill="#00a98d" fill-rule="evenodd" fill-opacity="0.1" stroke="#000000" stroke-opacity="0.1" stroke-width="3.84"/>
<circle clip-path="url(#clip522)" cx="1598.89" cy="190.48" r="14.4" fill="#00a98d" fill-rule="evenodd" fill-opacity="0.1" stroke="#000000" stroke-opacity="0.1" stroke-width="3.84"/>
<circle clip-path="url(#clip522)" cx="1928.98" cy="224.722" r="14.4" fill="#00a98d" fill-rule="evenodd" fill-opacity="0.1" stroke="#000000" stroke-opacity="0.1" stroke-width="3.84"/>
<circle clip-path="url(#clip522)" cx="2359.17" cy="348.293" r="14.4" fill="#00a98d" fill-rule="evenodd" fill-opacity="0.1" stroke="#000000" stroke-opacity="0.1" stroke-width="3.84"/>
<circle clip-path="url(#clip522)" cx="2526.06" cy="755.825" r="14.4" fill="#00a98d" fill-rule="evenodd" fill-opacity="0.1" stroke="#000000" stroke-opacity="0.1" stroke-width="3.84"/>
<polyline clip-path="url(#clip522)" style="stroke:#8e971d; stroke-linecap:round; stroke-linejoin:round; stroke-width:4; stroke-opacity:1; fill:none" points="
  294.479,755.825 409.177,585.306 523.876,414.787 638.574,245.165 753.273,222.95 867.972,200.734 982.67,183.638 1097.37,177.182 1212.07,170.725 1326.77,170.931 
  1441.46,173.72 1556.16,177.418 1670.86,191.127 1785.56,204.835 1900.26,224.399 2014.96,260.899 2129.66,297.399 2244.35,333.899 2359.05,479.515 2473.75,755.825 
  
  "/>
<polyline clip-path="url(#clip522)" style="stroke:#00a8cb; stroke-linecap:round; stroke-linejoin:round; stroke-width:4; stroke-opacity:1; fill:none" points="
  294.479,755.825 637.88,245.3 945.403,185.736 1244.11,168.921 1546.62,176.277 1870.79,215.023 2306.86,353.791 2473.75,755.825 
  "/>
<circle clip-path="url(#clip522)" cx="294.479" cy="755.825" r="14.4" fill="#9b7fe8" fill-rule="evenodd" fill-opacity="0.1" stroke="#000000" stroke-opacity="0.1" stroke-width="3.84"/>
<circle clip-path="url(#clip522)" cx="637.88" cy="245.3" r="14.4" fill="#9b7fe8" fill-rule="evenodd" fill-opacity="0.1" stroke="#000000" stroke-opacity="0.1" stroke-width="3.84"/>
<circle clip-path="url(#clip522)" cx="945.403" cy="185.736" r="14.4" fill="#9b7fe8" fill-rule="evenodd" fill-opacity="0.1" stroke="#000000" stroke-opacity="0.1" stroke-width="3.84"/>
<circle clip-path="url(#clip522)" cx="1244.11" cy="168.921" r="14.4" fill="#9b7fe8" fill-rule="evenodd" fill-opacity="0.1" stroke="#000000" stroke-opacity="0.1" stroke-width="3.84"/>
<circle clip-path="url(#clip522)" cx="1546.62" cy="176.277" r="14.4" fill="#9b7fe8" fill-rule="evenodd" fill-opacity="0.1" stroke="#000000" stroke-opacity="0.1" stroke-width="3.84"/>
<circle clip-path="url(#clip522)" cx="1870.79" cy="215.023" r="14.4" fill="#9b7fe8" fill-rule="evenodd" fill-opacity="0.1" stroke="#000000" stroke-opacity="0.1" stroke-width="3.84"/>
<circle clip-path="url(#clip522)" cx="2306.86" cy="353.791" r="14.4" fill="#9b7fe8" fill-rule="evenodd" fill-opacity="0.1" stroke="#000000" stroke-opacity="0.1" stroke-width="3.84"/>
<circle clip-path="url(#clip522)" cx="2473.75" cy="755.825" r="14.4" fill="#9b7fe8" fill-rule="evenodd" fill-opacity="0.1" stroke="#000000" stroke-opacity="0.1" stroke-width="3.84"/>
<polyline clip-path="url(#clip522)" style="stroke:#608cf6; stroke-linecap:round; stroke-linejoin:round; stroke-width:4; stroke-opacity:1; fill:none" points="
  294.479,755.825 405.787,564.56 517.095,373.295 628.402,204.577 739.71,186.281 851.018,167.984 962.326,156.295 1073.63,151.411 1184.94,146.526 1296.25,149.788 
  1407.56,153.86 1518.87,161.134 1630.17,176.633 1741.48,192.132 1852.79,218.236 1964.1,257.701 2075.41,297.166 2186.71,336.631 2298.02,489.417 2409.33,755.825 
  
  "/>
<polyline clip-path="url(#clip522)" style="stroke:#f05f73; stroke-linecap:round; stroke-linejoin:round; stroke-width:4; stroke-opacity:1; fill:none" points="
  294.479,755.825 613.894,206.962 907.493,158.701 1195.02,146.084 1487.68,156.792 1803.53,200.772 2242.44,356.39 2409.33,755.825 
  "/>
<circle clip-path="url(#clip522)" cx="294.479" cy="755.825" r="14.4" fill="#dd64b5" fill-rule="evenodd" fill-opacity="0.1" stroke="#000000" stroke-opacity="0.1" stroke-width="3.84"/>
<circle clip-path="url(#clip522)" cx="613.894" cy="206.962" r="14.4" fill="#dd64b5" fill-rule="evenodd" fill-opacity="0.1" stroke="#000000" stroke-opacity="0.1" stroke-width="3.84"/>
<circle clip-path="url(#clip522)" cx="907.493" cy="158.701" r="14.4" fill="#dd64b5" fill-rule="evenodd" fill-opacity="0.1" stroke="#000000" stroke-opacity="0.1" stroke-width="3.84"/>
<circle clip-path="url(#clip522)" cx="1195.02" cy="146.084" r="14.4" fill="#dd64b5" fill-rule="evenodd" fill-opacity="0.1" stroke="#000000" stroke-opacity="0.1" stroke-width="3.84"/>
<circle clip-path="url(#clip522)" cx="1487.68" cy="156.792" r="14.4" fill="#dd64b5" fill-rule="evenodd" fill-opacity="0.1" stroke="#000000" stroke-opacity="0.1" stroke-width="3.84"/>
<circle clip-path="url(#clip522)" cx="1803.53" cy="200.772" r="14.4" fill="#dd64b5" fill-rule="evenodd" fill-opacity="0.1" stroke="#000000" stroke-opacity="0.1" stroke-width="3.84"/>
<circle clip-path="url(#clip522)" cx="2242.44" cy="356.39" r="14.4" fill="#dd64b5" fill-rule="evenodd" fill-opacity="0.1" stroke="#000000" stroke-opacity="0.1" stroke-width="3.84"/>
<circle clip-path="url(#clip522)" cx="2409.33" cy="755.825" r="14.4" fill="#dd64b5" fill-rule="evenodd" fill-opacity="0.1" stroke="#000000" stroke-opacity="0.1" stroke-width="3.84"/>
<path clip-path="url(#clip520)" d="
M226.141 1734.12 L2640.76 1734.12 L2640.76 1087.79 L226.141 1087.79  Z
  " fill="#ffffff" fill-rule="evenodd" fill-opacity="1"/>
<defs>
  <clipPath id="clip523">
    <rect x="226" y="1087" width="2416" height="647"/>
  </clipPath>
</defs>
<polyline clip-path="url(#clip523)" style="stroke:#000000; stroke-linecap:round; stroke-linejoin:round; stroke-width:2; stroke-opacity:0.1; fill:none" points="
  294.479,1734.12 294.479,1087.79 
  "/>
<polyline clip-path="url(#clip523)" style="stroke:#000000; stroke-linecap:round; stroke-linejoin:round; stroke-width:2; stroke-opacity:0.1; fill:none" points="
  711.698,1734.12 711.698,1087.79 
  "/>
<polyline clip-path="url(#clip523)" style="stroke:#000000; stroke-linecap:round; stroke-linejoin:round; stroke-width:2; stroke-opacity:0.1; fill:none" points="
  1128.92,1734.12 1128.92,1087.79 
  "/>
<polyline clip-path="url(#clip523)" style="stroke:#000000; stroke-linecap:round; stroke-linejoin:round; stroke-width:2; stroke-opacity:0.1; fill:none" points="
  1546.14,1734.12 1546.14,1087.79 
  "/>
<polyline clip-path="url(#clip523)" style="stroke:#000000; stroke-linecap:round; stroke-linejoin:round; stroke-width:2; stroke-opacity:0.1; fill:none" points="
  1963.36,1734.12 1963.36,1087.79 
  "/>
<polyline clip-path="url(#clip523)" style="stroke:#000000; stroke-linecap:round; stroke-linejoin:round; stroke-width:2; stroke-opacity:0.1; fill:none" points="
  2380.57,1734.12 2380.57,1087.79 
  "/>
<polyline clip-path="url(#clip520)" style="stroke:#000000; stroke-linecap:round; stroke-linejoin:round; stroke-width:4; stroke-opacity:1; fill:none" points="
  226.141,1734.12 2640.76,1734.12 
  "/>
<polyline clip-path="url(#clip520)" style="stroke:#000000; stroke-linecap:round; stroke-linejoin:round; stroke-width:4; stroke-opacity:1; fill:none" points="
  294.479,1734.12 294.479,1715.22 
  "/>
<polyline clip-path="url(#clip520)" style="stroke:#000000; stroke-linecap:round; stroke-linejoin:round; stroke-width:4; stroke-opacity:1; fill:none" points="
  711.698,1734.12 711.698,1715.22 
  "/>
<polyline clip-path="url(#clip520)" style="stroke:#000000; stroke-linecap:round; stroke-linejoin:round; stroke-width:4; stroke-opacity:1; fill:none" points="
  1128.92,1734.12 1128.92,1715.22 
  "/>
<polyline clip-path="url(#clip520)" style="stroke:#000000; stroke-linecap:round; stroke-linejoin:round; stroke-width:4; stroke-opacity:1; fill:none" points="
  1546.14,1734.12 1546.14,1715.22 
  "/>
<polyline clip-path="url(#clip520)" style="stroke:#000000; stroke-linecap:round; stroke-linejoin:round; stroke-width:4; stroke-opacity:1; fill:none" points="
  1963.36,1734.12 1963.36,1715.22 
  "/>
<polyline clip-path="url(#clip520)" style="stroke:#000000; stroke-linecap:round; stroke-linejoin:round; stroke-width:4; stroke-opacity:1; fill:none" points="
  2380.57,1734.12 2380.57,1715.22 
  "/>
<path clip-path="url(#clip520)" d="M271.863 1767.34 Q268.252 1767.34 266.423 1770.9 Q264.618 1774.45 264.618 1781.58 Q264.618 1788.68 266.423 1792.25 Q268.252 1795.79 271.863 1795.79 Q275.497 1795.79 277.303 1792.25 Q279.132 1788.68 279.132 1781.58 Q279.132 1774.45 277.303 1770.9 Q275.497 1767.34 271.863 1767.34 M271.863 1763.64 Q277.673 1763.64 280.729 1768.24 Q283.807 1772.83 283.807 1781.58 Q283.807 1790.3 280.729 1794.91 Q277.673 1799.49 271.863 1799.49 Q266.053 1799.49 262.974 1794.91 Q259.919 1790.3 259.919 1781.58 Q259.919 1772.83 262.974 1768.24 Q266.053 1763.64 271.863 1763.64 Z" fill="#000000" fill-rule="evenodd" fill-opacity="1" /><path clip-path="url(#clip520)" d="M292.025 1792.94 L296.909 1792.94 L296.909 1798.82 L292.025 1798.82 L292.025 1792.94 Z" fill="#000000" fill-rule="evenodd" fill-opacity="1" /><path clip-path="url(#clip520)" d="M317.094 1767.34 Q313.483 1767.34 311.655 1770.9 Q309.849 1774.45 309.849 1781.58 Q309.849 1788.68 311.655 1792.25 Q313.483 1795.79 317.094 1795.79 Q320.729 1795.79 322.534 1792.25 Q324.363 1788.68 324.363 1781.58 Q324.363 1774.45 322.534 1770.9 Q320.729 1767.34 317.094 1767.34 M317.094 1763.64 Q322.904 1763.64 325.96 1768.24 Q329.039 1772.83 329.039 1781.58 Q329.039 1790.3 325.96 1794.91 Q322.904 1799.49 317.094 1799.49 Q311.284 1799.49 308.206 1794.91 Q305.15 1790.3 305.15 1781.58 Q305.15 1772.83 308.206 1768.24 Q311.284 1763.64 317.094 1763.64 Z" fill="#000000" fill-rule="evenodd" fill-opacity="1" /><path clip-path="url(#clip520)" d="M683.434 1794.89 L699.754 1794.89 L699.754 1798.82 L677.809 1798.82 L677.809 1794.89 Q680.471 1792.13 685.055 1787.5 Q689.661 1782.85 690.842 1781.51 Q693.087 1778.98 693.967 1777.25 Q694.869 1775.49 694.869 1773.8 Q694.869 1771.04 692.925 1769.31 Q691.004 1767.57 687.902 1767.57 Q685.703 1767.57 683.249 1768.34 Q680.818 1769.1 678.041 1770.65 L678.041 1765.93 Q680.865 1764.79 683.318 1764.21 Q685.772 1763.64 687.809 1763.64 Q693.179 1763.64 696.374 1766.32 Q699.568 1769.01 699.568 1773.5 Q699.568 1775.63 698.758 1777.55 Q697.971 1779.45 695.865 1782.04 Q695.286 1782.71 692.184 1785.93 Q689.082 1789.12 683.434 1794.89 Z" fill="#000000" fill-rule="evenodd" fill-opacity="1" /><path clip-path="url(#clip520)" d="M709.568 1792.94 L714.453 1792.94 L714.453 1798.82 L709.568 1798.82 L709.568 1792.94 Z" fill="#000000" fill-rule="evenodd" fill-opacity="1" /><path clip-path="url(#clip520)" d="M724.684 1764.26 L743.04 1764.26 L743.04 1768.2 L728.966 1768.2 L728.966 1776.67 Q729.985 1776.32 731.003 1776.16 Q732.022 1775.97 733.04 1775.97 Q738.827 1775.97 742.207 1779.15 Q745.587 1782.32 745.587 1787.73 Q745.587 1793.31 742.114 1796.41 Q738.642 1799.49 732.323 1799.49 Q730.147 1799.49 727.878 1799.12 Q725.633 1798.75 723.226 1798.01 L723.226 1793.31 Q725.309 1794.45 727.531 1795 Q729.753 1795.56 732.23 1795.56 Q736.235 1795.56 738.573 1793.45 Q740.911 1791.34 740.911 1787.73 Q740.911 1784.12 738.573 1782.02 Q736.235 1779.91 732.23 1779.91 Q730.355 1779.91 728.48 1780.33 Q726.628 1780.74 724.684 1781.62 L724.684 1764.26 Z" fill="#000000" fill-rule="evenodd" fill-opacity="1" /><path clip-path="url(#clip520)" d="M1096.08 1764.26 L1114.44 1764.26 L1114.44 1768.2 L1100.36 1768.2 L1100.36 1776.67 Q1101.38 1776.32 1102.4 1776.16 Q1103.42 1775.97 1104.44 1775.97 Q1110.23 1775.97 1113.6 1779.15 Q1116.98 1782.32 1116.98 1787.73 Q1116.98 1793.31 1113.51 1796.41 Q1110.04 1799.49 1103.72 1799.49 Q1101.54 1799.49 1099.28 1799.12 Q1097.03 1798.75 1094.62 1798.01 L1094.62 1793.31 Q1096.71 1794.45 1098.93 1795 Q1101.15 1795.56 1103.63 1795.56 Q1107.63 1795.56 1109.97 1793.45 Q1112.31 1791.34 1112.31 1787.73 Q1112.31 1784.12 1109.97 1782.02 Q1107.63 1779.91 1103.63 1779.91 Q1101.75 1779.91 1099.88 1780.33 Q1098.03 1780.74 1096.08 1781.62 L1096.08 1764.26 Z" fill="#000000" fill-rule="evenodd" fill-opacity="1" /><path clip-path="url(#clip520)" d="M1126.2 1792.94 L1131.08 1792.94 L1131.08 1798.82 L1126.2 1798.82 L1126.2 1792.94 Z" fill="#000000" fill-rule="evenodd" fill-opacity="1" /><path clip-path="url(#clip520)" d="M1151.27 1767.34 Q1147.66 1767.34 1145.83 1770.9 Q1144.02 1774.45 1144.02 1781.58 Q1144.02 1788.68 1145.83 1792.25 Q1147.66 1795.79 1151.27 1795.79 Q1154.9 1795.79 1156.71 1792.25 Q1158.53 1788.68 1158.53 1781.58 Q1158.53 1774.45 1156.71 1770.9 Q1154.9 1767.34 1151.27 1767.34 M1151.27 1763.64 Q1157.08 1763.64 1160.13 1768.24 Q1163.21 1772.83 1163.21 1781.58 Q1163.21 1790.3 1160.13 1794.91 Q1157.08 1799.49 1151.27 1799.49 Q1145.46 1799.49 1142.38 1794.91 Q1139.32 1790.3 1139.32 1781.58 Q1139.32 1772.83 1142.38 1768.24 Q1145.46 1763.64 1151.27 1763.64 Z" fill="#000000" fill-rule="evenodd" fill-opacity="1" /><path clip-path="url(#clip520)" d="M1512.46 1764.26 L1534.68 1764.26 L1534.68 1766.25 L1522.13 1798.82 L1517.25 1798.82 L1529.05 1768.2 L1512.46 1768.2 L1512.46 1764.26 Z" fill="#000000" fill-rule="evenodd" fill-opacity="1" /><path clip-path="url(#clip520)" d="M1543.8 1792.94 L1548.68 1792.94 L1548.68 1798.82 L1543.8 1798.82 L1543.8 1792.94 Z" fill="#000000" fill-rule="evenodd" fill-opacity="1" /><path clip-path="url(#clip520)" d="M1558.91 1764.26 L1577.27 1764.26 L1577.27 1768.2 L1563.2 1768.2 L1563.2 1776.67 Q1564.21 1776.32 1565.23 1776.16 Q1566.25 1775.97 1567.27 1775.97 Q1573.06 1775.97 1576.44 1779.15 Q1579.82 1782.32 1579.82 1787.73 Q1579.82 1793.31 1576.34 1796.41 Q1572.87 1799.49 1566.55 1799.49 Q1564.38 1799.49 1562.11 1799.12 Q1559.86 1798.75 1557.46 1798.01 L1557.46 1793.31 Q1559.54 1794.45 1561.76 1795 Q1563.98 1795.56 1566.46 1795.56 Q1570.46 1795.56 1572.8 1793.45 Q1575.14 1791.34 1575.14 1787.73 Q1575.14 1784.12 1572.8 1782.02 Q1570.46 1779.91 1566.46 1779.91 Q1564.59 1779.91 1562.71 1780.33 Q1560.86 1780.74 1558.91 1781.62 L1558.91 1764.26 Z" fill="#000000" fill-rule="evenodd" fill-opacity="1" /><path clip-path="url(#clip520)" d="M1915.43 1794.89 L1923.07 1794.89 L1923.07 1768.52 L1914.76 1770.19 L1914.76 1765.93 L1923.02 1764.26 L1927.7 1764.26 L1927.7 1794.89 L1935.33 1794.89 L1935.33 1798.82 L1915.43 1798.82 L1915.43 1794.89 Z" fill="#000000" fill-rule="evenodd" fill-opacity="1" /><path clip-path="url(#clip520)" d="M1954.78 1767.34 Q1951.17 1767.34 1949.34 1770.9 Q1947.53 1774.45 1947.53 1781.58 Q1947.53 1788.68 1949.34 1792.25 Q1951.17 1795.79 1954.78 1795.79 Q1958.41 1795.79 1960.22 1792.25 Q1962.05 1788.68 1962.05 1781.58 Q1962.05 1774.45 1960.22 1770.9 Q1958.41 1767.34 1954.78 1767.34 M1954.78 1763.64 Q1960.59 1763.64 1963.64 1768.24 Q1966.72 1772.83 1966.72 1781.58 Q1966.72 1790.3 1963.64 1794.91 Q1960.59 1799.49 1954.78 1799.49 Q1948.97 1799.49 1945.89 1794.91 Q1942.83 1790.3 1942.83 1781.58 Q1942.83 1772.83 1945.89 1768.24 Q1948.97 1763.64 1954.78 1763.64 Z" fill="#000000" fill-rule="evenodd" fill-opacity="1" /><path clip-path="url(#clip520)" d="M1974.94 1792.94 L1979.83 1792.94 L1979.83 1798.82 L1974.94 1798.82 L1974.94 1792.94 Z" fill="#000000" fill-rule="evenodd" fill-opacity="1" /><path clip-path="url(#clip520)" d="M2000.01 1767.34 Q1996.4 1767.34 1994.57 1770.9 Q1992.76 1774.45 1992.76 1781.58 Q1992.76 1788.68 1994.57 1792.25 Q1996.4 1795.79 2000.01 1795.79 Q2003.64 1795.79 2005.45 1792.25 Q2007.28 1788.68 2007.28 1781.58 Q2007.28 1774.45 2005.45 1770.9 Q2003.64 1767.34 2000.01 1767.34 M2000.01 1763.64 Q2005.82 1763.64 2008.88 1768.24 Q2011.95 1772.83 2011.95 1781.58 Q2011.95 1790.3 2008.88 1794.91 Q2005.82 1799.49 2000.01 1799.49 Q1994.2 1799.49 1991.12 1794.91 Q1988.07 1790.3 1988.07 1781.58 Q1988.07 1772.83 1991.12 1768.24 Q1994.2 1763.64 2000.01 1763.64 Z" fill="#000000" fill-rule="evenodd" fill-opacity="1" /><path clip-path="url(#clip520)" d="M2333.14 1794.89 L2340.78 1794.89 L2340.78 1768.52 L2332.47 1770.19 L2332.47 1765.93 L2340.74 1764.26 L2345.41 1764.26 L2345.41 1794.89 L2353.05 1794.89 L2353.05 1798.82 L2333.14 1798.82 L2333.14 1794.89 Z" fill="#000000" fill-rule="evenodd" fill-opacity="1" /><path clip-path="url(#clip520)" d="M2366.52 1794.89 L2382.84 1794.89 L2382.84 1798.82 L2360.9 1798.82 L2360.9 1794.89 Q2363.56 1792.13 2368.14 1787.5 Q2372.75 1782.85 2373.93 1781.51 Q2376.18 1778.98 2377.06 1777.25 Q2377.96 1775.49 2377.96 1773.8 Q2377.96 1771.04 2376.01 1769.31 Q2374.09 1767.57 2370.99 1767.57 Q2368.79 1767.57 2366.34 1768.34 Q2363.91 1769.1 2361.13 1770.65 L2361.13 1765.93 Q2363.95 1764.79 2366.41 1764.21 Q2368.86 1763.64 2370.9 1763.64 Q2376.27 1763.64 2379.46 1766.32 Q2382.66 1769.01 2382.66 1773.5 Q2382.66 1775.63 2381.85 1777.55 Q2381.06 1779.45 2378.95 1782.04 Q2378.38 1782.71 2375.27 1785.93 Q2372.17 1789.12 2366.52 1794.89 Z" fill="#000000" fill-rule="evenodd" fill-opacity="1" /><path clip-path="url(#clip520)" d="M2392.66 1792.94 L2397.54 1792.94 L2397.54 1798.82 L2392.66 1798.82 L2392.66 1792.94 Z" fill="#000000" fill-rule="evenodd" fill-opacity="1" /><path clip-path="url(#clip520)" d="M2407.77 1764.26 L2426.13 1764.26 L2426.13 1768.2 L2412.06 1768.2 L2412.06 1776.67 Q2413.07 1776.32 2414.09 1776.16 Q2415.11 1775.97 2416.13 1775.97 Q2421.92 1775.97 2425.3 1779.15 Q2428.68 1782.32 2428.68 1787.73 Q2428.68 1793.31 2425.2 1796.41 Q2421.73 1799.49 2415.41 1799.49 Q2413.24 1799.49 2410.97 1799.12 Q2408.72 1798.75 2406.32 1798.01 L2406.32 1793.31 Q2408.4 1794.45 2410.62 1795 Q2412.84 1795.56 2415.32 1795.56 Q2419.32 1795.56 2421.66 1793.45 Q2424 1791.34 2424 1787.73 Q2424 1784.12 2421.66 1782.02 Q2419.32 1779.91 2415.32 1779.91 Q2413.44 1779.91 2411.57 1780.33 Q2409.72 1780.74 2407.77 1781.62 L2407.77 1764.26 Z" fill="#000000" fill-rule="evenodd" fill-opacity="1" /><path clip-path="url(#clip520)" d="M1372.61 1837.53 L1372.61 1847.65 L1384.67 1847.65 L1384.67 1852.2 L1372.61 1852.2 L1372.61 1871.56 Q1372.61 1875.92 1373.79 1877.16 Q1375 1878.4 1378.66 1878.4 L1384.67 1878.4 L1384.67 1883.3 L1378.66 1883.3 Q1371.88 1883.3 1369.3 1880.79 Q1366.72 1878.24 1366.72 1871.56 L1366.72 1852.2 L1362.42 1852.2 L1362.42 1847.65 L1366.72 1847.65 L1366.72 1837.53 L1372.61 1837.53 Z" fill="#000000" fill-rule="evenodd" fill-opacity="1" /><path clip-path="url(#clip520)" d="M1392.37 1847.65 L1398.23 1847.65 L1398.23 1883.3 L1392.37 1883.3 L1392.37 1847.65 M1392.37 1833.78 L1398.23 1833.78 L1398.23 1841.19 L1392.37 1841.19 L1392.37 1833.78 Z" fill="#000000" fill-rule="evenodd" fill-opacity="1" /><path clip-path="url(#clip520)" d="M1438.24 1854.5 Q1440.43 1850.55 1443.49 1848.67 Q1446.55 1846.79 1450.68 1846.79 Q1456.25 1846.79 1459.28 1850.71 Q1462.3 1854.59 1462.3 1861.78 L1462.3 1883.3 L1456.41 1883.3 L1456.41 1861.98 Q1456.41 1856.85 1454.6 1854.37 Q1452.78 1851.89 1449.06 1851.89 Q1444.51 1851.89 1441.87 1854.91 Q1439.23 1857.93 1439.23 1863.15 L1439.23 1883.3 L1433.34 1883.3 L1433.34 1861.98 Q1433.34 1856.82 1431.52 1854.37 Q1429.71 1851.89 1425.92 1851.89 Q1421.43 1851.89 1418.79 1854.94 Q1416.15 1857.97 1416.15 1863.15 L1416.15 1883.3 L1410.26 1883.3 L1410.26 1847.65 L1416.15 1847.65 L1416.15 1853.19 Q1418.15 1849.91 1420.96 1848.35 Q1423.76 1846.79 1427.61 1846.79 Q1431.49 1846.79 1434.2 1848.77 Q1436.93 1850.74 1438.24 1854.5 Z" fill="#000000" fill-rule="evenodd" fill-opacity="1" /><path clip-path="url(#clip520)" d="M1504.47 1864.01 L1504.47 1866.88 L1477.55 1866.88 Q1477.93 1872.92 1481.18 1876.11 Q1484.45 1879.26 1490.28 1879.26 Q1493.65 1879.26 1496.8 1878.43 Q1499.99 1877.6 1503.1 1875.95 L1503.1 1881.49 Q1499.95 1882.82 1496.64 1883.52 Q1493.33 1884.22 1489.93 1884.22 Q1481.4 1884.22 1476.4 1879.26 Q1471.44 1874.29 1471.44 1865.83 Q1471.44 1857.07 1476.15 1851.95 Q1480.89 1846.79 1488.91 1846.79 Q1496.1 1846.79 1500.27 1851.44 Q1504.47 1856.06 1504.47 1864.01 M1498.62 1862.29 Q1498.55 1857.49 1495.91 1854.62 Q1493.3 1851.76 1488.97 1851.76 Q1484.07 1851.76 1481.11 1854.53 Q1478.18 1857.3 1477.74 1862.33 L1498.62 1862.29 Z" fill="#000000" fill-rule="evenodd" fill-opacity="1" /><polyline clip-path="url(#clip523)" style="stroke:#000000; stroke-linecap:round; stroke-linejoin:round; stroke-width:2; stroke-opacity:0.1; fill:none" points="
  226.141,1715.82 2640.76,1715.82 
  "/>
<polyline clip-path="url(#clip523)" style="stroke:#000000; stroke-linecap:round; stroke-linejoin:round; stroke-width:2; stroke-opacity:0.1; fill:none" points="
  226.141,1581.06 2640.76,1581.06 
  "/>
<polyline clip-path="url(#clip523)" style="stroke:#000000; stroke-linecap:round; stroke-linejoin:round; stroke-width:2; stroke-opacity:0.1; fill:none" points="
  226.141,1446.3 2640.76,1446.3 
  "/>
<polyline clip-path="url(#clip523)" style="stroke:#000000; stroke-linecap:round; stroke-linejoin:round; stroke-width:2; stroke-opacity:0.1; fill:none" points="
  226.141,1311.53 2640.76,1311.53 
  "/>
<polyline clip-path="url(#clip523)" style="stroke:#000000; stroke-linecap:round; stroke-linejoin:round; stroke-width:2; stroke-opacity:0.1; fill:none" points="
  226.141,1176.77 2640.76,1176.77 
  "/>
<polyline clip-path="url(#clip520)" style="stroke:#000000; stroke-linecap:round; stroke-linejoin:round; stroke-width:4; stroke-opacity:1; fill:none" points="
  226.141,1734.12 226.141,1087.79 
  "/>
<polyline clip-path="url(#clip520)" style="stroke:#000000; stroke-linecap:round; stroke-linejoin:round; stroke-width:4; stroke-opacity:1; fill:none" points="
  226.141,1715.82 245.038,1715.82 
  "/>
<polyline clip-path="url(#clip520)" style="stroke:#000000; stroke-linecap:round; stroke-linejoin:round; stroke-width:4; stroke-opacity:1; fill:none" points="
  226.141,1581.06 245.038,1581.06 
  "/>
<polyline clip-path="url(#clip520)" style="stroke:#000000; stroke-linecap:round; stroke-linejoin:round; stroke-width:4; stroke-opacity:1; fill:none" points="
  226.141,1446.3 245.038,1446.3 
  "/>
<polyline clip-path="url(#clip520)" style="stroke:#000000; stroke-linecap:round; stroke-linejoin:round; stroke-width:4; stroke-opacity:1; fill:none" points="
  226.141,1311.53 245.038,1311.53 
  "/>
<polyline clip-path="url(#clip520)" style="stroke:#000000; stroke-linecap:round; stroke-linejoin:round; stroke-width:4; stroke-opacity:1; fill:none" points="
  226.141,1176.77 245.038,1176.77 
  "/>
<path clip-path="url(#clip520)" d="M128.645 1701.62 Q125.034 1701.62 123.205 1705.19 Q121.4 1708.73 121.4 1715.86 Q121.4 1722.97 123.205 1726.53 Q125.034 1730.07 128.645 1730.07 Q132.279 1730.07 134.085 1726.53 Q135.913 1722.97 135.913 1715.86 Q135.913 1708.73 134.085 1705.19 Q132.279 1701.62 128.645 1701.62 M128.645 1697.92 Q134.455 1697.92 137.511 1702.53 Q140.589 1707.11 140.589 1715.86 Q140.589 1724.59 137.511 1729.19 Q134.455 1733.78 128.645 1733.78 Q122.835 1733.78 119.756 1729.19 Q116.701 1724.59 116.701 1715.86 Q116.701 1707.11 119.756 1702.53 Q122.835 1697.92 128.645 1697.92 Z" fill="#000000" fill-rule="evenodd" fill-opacity="1" /><path clip-path="url(#clip520)" d="M148.807 1727.23 L153.691 1727.23 L153.691 1733.1 L148.807 1733.1 L148.807 1727.23 Z" fill="#000000" fill-rule="evenodd" fill-opacity="1" /><path clip-path="url(#clip520)" d="M173.876 1701.62 Q170.265 1701.62 168.436 1705.19 Q166.631 1708.73 166.631 1715.86 Q166.631 1722.97 168.436 1726.53 Q170.265 1730.07 173.876 1730.07 Q177.51 1730.07 179.316 1726.53 Q181.145 1722.97 181.145 1715.86 Q181.145 1708.73 179.316 1705.19 Q177.51 1701.62 173.876 1701.62 M173.876 1697.92 Q179.686 1697.92 182.742 1702.53 Q185.821 1707.11 185.821 1715.86 Q185.821 1724.59 182.742 1729.19 Q179.686 1733.78 173.876 1733.78 Q168.066 1733.78 164.987 1729.19 Q161.932 1724.59 161.932 1715.86 Q161.932 1707.11 164.987 1702.53 Q168.066 1697.92 173.876 1697.92 Z" fill="#000000" fill-rule="evenodd" fill-opacity="1" /><path clip-path="url(#clip520)" d="M129.872 1566.86 Q126.261 1566.86 124.432 1570.42 Q122.626 1573.97 122.626 1581.1 Q122.626 1588.2 124.432 1591.77 Q126.261 1595.31 129.872 1595.31 Q133.506 1595.31 135.312 1591.77 Q137.14 1588.2 137.14 1581.1 Q137.14 1573.97 135.312 1570.42 Q133.506 1566.86 129.872 1566.86 M129.872 1563.16 Q135.682 1563.16 138.737 1567.76 Q141.816 1572.35 141.816 1581.1 Q141.816 1589.82 138.737 1594.43 Q135.682 1599.01 129.872 1599.01 Q124.062 1599.01 120.983 1594.43 Q117.927 1589.82 117.927 1581.1 Q117.927 1572.35 120.983 1567.76 Q124.062 1563.16 129.872 1563.16 Z" fill="#000000" fill-rule="evenodd" fill-opacity="1" /><path clip-path="url(#clip520)" d="M150.034 1592.46 L154.918 1592.46 L154.918 1598.34 L150.034 1598.34 L150.034 1592.46 Z" fill="#000000" fill-rule="evenodd" fill-opacity="1" /><path clip-path="url(#clip520)" d="M165.913 1594.41 L173.552 1594.41 L173.552 1568.04 L165.242 1569.71 L165.242 1565.45 L173.506 1563.78 L178.182 1563.78 L178.182 1594.41 L185.821 1594.41 L185.821 1598.34 L165.913 1598.34 L165.913 1594.41 Z" fill="#000000" fill-rule="evenodd" fill-opacity="1" /><path clip-path="url(#clip520)" d="M130.242 1432.1 Q126.631 1432.1 124.802 1435.66 Q122.997 1439.2 122.997 1446.33 Q122.997 1453.44 124.802 1457 Q126.631 1460.54 130.242 1460.54 Q133.876 1460.54 135.682 1457 Q137.511 1453.44 137.511 1446.33 Q137.511 1439.2 135.682 1435.66 Q133.876 1432.1 130.242 1432.1 M130.242 1428.39 Q136.052 1428.39 139.108 1433 Q142.187 1437.58 142.187 1446.33 Q142.187 1455.06 139.108 1459.67 Q136.052 1464.25 130.242 1464.25 Q124.432 1464.25 121.353 1459.67 Q118.298 1455.06 118.298 1446.33 Q118.298 1437.58 121.353 1433 Q124.432 1428.39 130.242 1428.39 Z" fill="#000000" fill-rule="evenodd" fill-opacity="1" /><path clip-path="url(#clip520)" d="M150.404 1457.7 L155.288 1457.7 L155.288 1463.58 L150.404 1463.58 L150.404 1457.7 Z" fill="#000000" fill-rule="evenodd" fill-opacity="1" /><path clip-path="url(#clip520)" d="M169.501 1459.64 L185.821 1459.64 L185.821 1463.58 L163.876 1463.58 L163.876 1459.64 Q166.538 1456.89 171.122 1452.26 Q175.728 1447.61 176.909 1446.26 Q179.154 1443.74 180.034 1442 Q180.936 1440.24 180.936 1438.55 Q180.936 1435.8 178.992 1434.06 Q177.071 1432.33 173.969 1432.33 Q171.77 1432.33 169.316 1433.09 Q166.885 1433.86 164.108 1435.41 L164.108 1430.68 Q166.932 1429.55 169.385 1428.97 Q171.839 1428.39 173.876 1428.39 Q179.247 1428.39 182.441 1431.08 Q185.635 1433.76 185.635 1438.25 Q185.635 1440.38 184.825 1442.3 Q184.038 1444.2 181.932 1446.8 Q181.353 1447.47 178.251 1450.68 Q175.149 1453.88 169.501 1459.64 Z" fill="#000000" fill-rule="evenodd" fill-opacity="1" /><path clip-path="url(#clip520)" d="M129.293 1297.33 Q125.682 1297.33 123.853 1300.9 Q122.048 1304.44 122.048 1311.57 Q122.048 1318.67 123.853 1322.24 Q125.682 1325.78 129.293 1325.78 Q132.927 1325.78 134.733 1322.24 Q136.562 1318.67 136.562 1311.57 Q136.562 1304.44 134.733 1300.9 Q132.927 1297.33 129.293 1297.33 M129.293 1293.63 Q135.103 1293.63 138.159 1298.24 Q141.237 1302.82 141.237 1311.57 Q141.237 1320.3 138.159 1324.9 Q135.103 1329.48 129.293 1329.48 Q123.483 1329.48 120.404 1324.9 Q117.349 1320.3 117.349 1311.57 Q117.349 1302.82 120.404 1298.24 Q123.483 1293.63 129.293 1293.63 Z" fill="#000000" fill-rule="evenodd" fill-opacity="1" /><path clip-path="url(#clip520)" d="M149.455 1322.93 L154.339 1322.93 L154.339 1328.81 L149.455 1328.81 L149.455 1322.93 Z" fill="#000000" fill-rule="evenodd" fill-opacity="1" /><path clip-path="url(#clip520)" d="M178.691 1310.18 Q182.047 1310.9 183.922 1313.17 Q185.821 1315.43 185.821 1318.77 Q185.821 1323.88 182.302 1326.68 Q178.784 1329.48 172.302 1329.48 Q170.126 1329.48 167.811 1329.05 Q165.52 1328.63 163.066 1327.77 L163.066 1323.26 Q165.01 1324.39 167.325 1324.97 Q169.64 1325.55 172.163 1325.55 Q176.561 1325.55 178.853 1323.81 Q181.168 1322.08 181.168 1318.77 Q181.168 1315.71 179.015 1314 Q176.885 1312.26 173.066 1312.26 L169.038 1312.26 L169.038 1308.42 L173.251 1308.42 Q176.7 1308.42 178.529 1307.05 Q180.358 1305.67 180.358 1303.07 Q180.358 1300.41 178.459 1299 Q176.584 1297.56 173.066 1297.56 Q171.145 1297.56 168.946 1297.98 Q166.747 1298.4 164.108 1299.28 L164.108 1295.11 Q166.77 1294.37 169.085 1294 Q171.422 1293.63 173.483 1293.63 Q178.807 1293.63 181.909 1296.06 Q185.01 1298.47 185.01 1302.59 Q185.01 1305.46 183.367 1307.45 Q181.723 1309.42 178.691 1310.18 Z" fill="#000000" fill-rule="evenodd" fill-opacity="1" /><path clip-path="url(#clip520)" d="M128.159 1162.57 Q124.548 1162.57 122.719 1166.13 Q120.913 1169.68 120.913 1176.8 Q120.913 1183.91 122.719 1187.48 Q124.548 1191.02 128.159 1191.02 Q131.793 1191.02 133.599 1187.48 Q135.427 1183.91 135.427 1176.8 Q135.427 1169.68 133.599 1166.13 Q131.793 1162.57 128.159 1162.57 M128.159 1158.87 Q133.969 1158.87 137.025 1163.47 Q140.103 1168.05 140.103 1176.8 Q140.103 1185.53 137.025 1190.14 Q133.969 1194.72 128.159 1194.72 Q122.349 1194.72 119.27 1190.14 Q116.214 1185.53 116.214 1176.8 Q116.214 1168.05 119.27 1163.47 Q122.349 1158.87 128.159 1158.87 Z" fill="#000000" fill-rule="evenodd" fill-opacity="1" /><path clip-path="url(#clip520)" d="M148.321 1188.17 L153.205 1188.17 L153.205 1194.05 L148.321 1194.05 L148.321 1188.17 Z" fill="#000000" fill-rule="evenodd" fill-opacity="1" /><path clip-path="url(#clip520)" d="M176.237 1163.56 L164.432 1182.01 L176.237 1182.01 L176.237 1163.56 M175.01 1159.49 L180.89 1159.49 L180.89 1182.01 L185.821 1182.01 L185.821 1185.9 L180.89 1185.9 L180.89 1194.05 L176.237 1194.05 L176.237 1185.9 L160.636 1185.9 L160.636 1181.39 L175.01 1159.49 Z" fill="#000000" fill-rule="evenodd" fill-opacity="1" /><path clip-path="url(#clip520)" d="M27.0408 1479.35 L32.579 1479.35 Q31.3059 1481.84 30.6693 1484.51 Q30.0327 1487.18 30.0327 1490.05 Q30.0327 1494.41 31.3695 1496.61 Q32.7063 1498.77 35.3799 1498.77 Q37.4169 1498.77 38.5946 1497.21 Q39.7404 1495.65 40.7908 1490.94 L41.2364 1488.93 Q42.5732 1482.7 45.0239 1480.09 Q47.4429 1477.44 51.8034 1477.44 Q56.7687 1477.44 59.6651 1481.39 Q62.5615 1485.31 62.5615 1492.18 Q62.5615 1495.05 61.9886 1498.16 Q61.4475 1501.25 60.3335 1504.69 L54.2861 1504.69 Q55.973 1501.44 56.8323 1498.29 Q57.6599 1495.14 57.6599 1492.05 Q57.6599 1487.92 56.2594 1485.69 Q54.8271 1483.46 52.249 1483.46 Q49.8619 1483.46 48.5887 1485.08 Q47.3156 1486.67 46.1379 1492.12 L45.6605 1494.15 Q44.5147 1499.6 42.1594 1502.02 Q39.7722 1504.43 35.6345 1504.43 Q30.6056 1504.43 27.8684 1500.87 Q25.1311 1497.31 25.1311 1490.75 Q25.1311 1487.5 25.6085 1484.64 Q26.086 1481.77 27.0408 1479.35 Z" fill="#000000" fill-rule="evenodd" fill-opacity="1" /><path clip-path="url(#clip520)" d="M56.2912 1462.45 L75.1974 1462.45 L75.1974 1468.34 L25.9905 1468.34 L25.9905 1462.45 L31.4013 1462.45 Q28.2185 1460.61 26.6907 1457.81 Q25.1311 1454.97 25.1311 1451.06 Q25.1311 1444.57 30.2873 1440.52 Q35.4436 1436.45 43.8463 1436.45 Q52.249 1436.45 57.4052 1440.52 Q62.5615 1444.57 62.5615 1451.06 Q62.5615 1454.97 61.0337 1457.81 Q59.4741 1460.61 56.2912 1462.45 M43.8463 1442.53 Q37.3851 1442.53 33.7248 1445.2 Q30.0327 1447.84 30.0327 1452.49 Q30.0327 1457.14 33.7248 1459.81 Q37.3851 1462.45 43.8463 1462.45 Q50.3075 1462.45 53.9996 1459.81 Q57.6599 1457.14 57.6599 1452.49 Q57.6599 1447.84 53.9996 1445.2 Q50.3075 1442.53 43.8463 1442.53 Z" fill="#000000" fill-rule="evenodd" fill-opacity="1" /><path clip-path="url(#clip520)" d="M42.3504 1396.25 L45.2149 1396.25 L45.2149 1423.18 Q51.2623 1422.79 54.4452 1419.55 Q57.5962 1416.27 57.5962 1410.45 Q57.5962 1407.07 56.7687 1403.92 Q55.9411 1400.74 54.2861 1397.62 L59.8242 1397.62 Q61.161 1400.77 61.8612 1404.08 Q62.5615 1407.39 62.5615 1410.8 Q62.5615 1419.33 57.5962 1424.32 Q52.631 1429.29 44.1646 1429.29 Q35.4117 1429.29 30.2873 1424.58 Q25.1311 1419.83 25.1311 1411.81 Q25.1311 1404.62 29.7781 1400.45 Q34.3932 1396.25 42.3504 1396.25 M40.6316 1402.11 Q35.8255 1402.17 32.9609 1404.81 Q30.0964 1407.42 30.0964 1411.75 Q30.0964 1416.65 32.8654 1419.61 Q35.6345 1422.54 40.6634 1422.99 L40.6316 1402.11 Z" fill="#000000" fill-rule="evenodd" fill-opacity="1" /><path clip-path="url(#clip520)" d="M42.3504 1356.15 L45.2149 1356.15 L45.2149 1383.07 Q51.2623 1382.69 54.4452 1379.44 Q57.5962 1376.17 57.5962 1370.34 Q57.5962 1366.97 56.7687 1363.82 Q55.9411 1360.63 54.2861 1357.51 L59.8242 1357.51 Q61.161 1360.67 61.8612 1363.98 Q62.5615 1367.29 62.5615 1370.69 Q62.5615 1379.22 57.5962 1384.22 Q52.631 1389.18 44.1646 1389.18 Q35.4117 1389.18 30.2873 1384.47 Q25.1311 1379.73 25.1311 1371.71 Q25.1311 1364.52 29.7781 1360.35 Q34.3932 1356.15 42.3504 1356.15 M40.6316 1362 Q35.8255 1362.07 32.9609 1364.71 Q30.0964 1367.32 30.0964 1371.65 Q30.0964 1376.55 32.8654 1379.51 Q35.6345 1382.44 40.6634 1382.88 L40.6316 1362 Z" fill="#000000" fill-rule="evenodd" fill-opacity="1" /><path clip-path="url(#clip520)" d="M31.4013 1323.08 L12.1132 1323.08 L12.1132 1317.22 L61.6384 1317.22 L61.6384 1323.08 L56.2912 1323.08 Q59.4741 1324.92 61.0337 1327.75 Q62.5615 1330.56 62.5615 1334.5 Q62.5615 1340.96 57.4052 1345.04 Q52.249 1349.08 43.8463 1349.08 Q35.4436 1349.08 30.2873 1345.04 Q25.1311 1340.96 25.1311 1334.5 Q25.1311 1330.56 26.6907 1327.75 Q28.2185 1324.92 31.4013 1323.08 M43.8463 1343.03 Q50.3075 1343.03 53.9996 1340.39 Q57.6599 1337.72 57.6599 1333.07 Q57.6599 1328.42 53.9996 1325.75 Q50.3075 1323.08 43.8463 1323.08 Q37.3851 1323.08 33.7248 1325.75 Q30.0327 1328.42 30.0327 1333.07 Q30.0327 1337.72 33.7248 1340.39 Q37.3851 1343.03 43.8463 1343.03 Z" fill="#000000" fill-rule="evenodd" fill-opacity="1" /><path clip-path="url(#clip520)" d="M1331.69 978.821 L1331.69 1025.85 L1341.57 1025.85 Q1354.09 1025.85 1359.88 1020.18 Q1365.72 1014.51 1365.72 1002.28 Q1365.72 990.123 1359.88 984.492 Q1354.09 978.821 1341.57 978.821 L1331.69 978.821 M1323.51 972.096 L1340.32 972.096 Q1357.9 972.096 1366.12 979.428 Q1374.35 986.72 1374.35 1002.28 Q1374.35 1017.91 1366.08 1025.24 Q1357.82 1032.58 1340.32 1032.58 L1323.51 1032.58 L1323.51 972.096 Z" fill="#000000" fill-rule="evenodd" fill-opacity="1" /><path clip-path="url(#clip520)" d="M1404.65 992.432 Q1398.65 992.432 1395.17 997.131 Q1391.68 1001.79 1391.68 1009.93 Q1391.68 1018.07 1395.13 1022.77 Q1398.61 1027.43 1404.65 1027.43 Q1410.6 1027.43 1414.08 1022.73 Q1417.57 1018.03 1417.57 1009.93 Q1417.57 1001.87 1414.08 997.171 Q1410.6 992.432 1404.65 992.432 M1404.65 986.112 Q1414.37 986.112 1419.92 992.432 Q1425.47 998.751 1425.47 1009.93 Q1425.47 1021.07 1419.92 1027.43 Q1414.37 1033.75 1404.65 1033.75 Q1394.88 1033.75 1389.33 1027.43 Q1383.82 1021.07 1383.82 1009.93 Q1383.82 998.751 1389.33 992.432 Q1394.88 986.112 1404.65 986.112 Z" fill="#000000" fill-rule="evenodd" fill-opacity="1" /><path clip-path="url(#clip520)" d="M1433.49 987.206 L1440.94 987.206 L1450.26 1022.61 L1459.54 987.206 L1468.33 987.206 L1477.64 1022.61 L1486.92 987.206 L1494.37 987.206 L1482.5 1032.58 L1473.71 1032.58 L1463.95 995.389 L1454.15 1032.58 L1445.36 1032.58 L1433.49 987.206 Z" fill="#000000" fill-rule="evenodd" fill-opacity="1" /><path clip-path="url(#clip520)" d="M1543.39 1005.19 L1543.39 1032.58 L1535.94 1032.58 L1535.94 1005.43 Q1535.94 998.994 1533.42 995.794 Q1530.91 992.594 1525.89 992.594 Q1519.85 992.594 1516.37 996.442 Q1512.89 1000.29 1512.89 1006.93 L1512.89 1032.58 L1505.39 1032.58 L1505.39 987.206 L1512.89 987.206 L1512.89 994.254 Q1515.56 990.163 1519.17 988.138 Q1522.81 986.112 1527.55 986.112 Q1535.37 986.112 1539.38 990.973 Q1543.39 995.794 1543.39 1005.19 Z" fill="#000000" fill-rule="evenodd" fill-opacity="1" /><polyline clip-path="url(#clip523)" style="stroke:#009af9; stroke-linecap:round; stroke-linejoin:round; stroke-width:4; stroke-opacity:1; fill:none" points="
  294.479,1715.82 414.37,1589.49 534.262,1463.15 654.153,1336.81 774.045,1265.16 893.936,1230.07 1013.83,1194.99 1133.72,1180.33 1253.61,1169.95 1373.5,1161.54 
  1493.39,1161.5 1613.29,1161.47 1733.18,1166.87 1853.07,1176.65 1972.96,1186.42 2092.85,1210.87 2212.74,1239.36 2332.63,1267.85 2452.53,1406.45 2572.42,1715.82 
  
  "/>
<polyline clip-path="url(#clip523)" style="stroke:#e26f46; stroke-linecap:round; stroke-linejoin:round; stroke-width:4; stroke-opacity:1; fill:none" points="
  294.479,1715.82 702.185,1286.19 1034.61,1188.9 1350.64,1161.55 1666.6,1161.45 1998.79,1188.52 2405.53,1285.17 2572.42,1715.82 
  "/>
<circle clip-path="url(#clip523)" cx="294.479" cy="1715.82" r="14.4" fill="#3da44d" fill-rule="evenodd" fill-opacity="0.1" stroke="#000000" stroke-opacity="0.1" stroke-width="3.84"/>
<circle clip-path="url(#clip523)" cx="702.185" cy="1286.19" r="14.4" fill="#3da44d" fill-rule="evenodd" fill-opacity="0.1" stroke="#000000" stroke-opacity="0.1" stroke-width="3.84"/>
<circle clip-path="url(#clip523)" cx="1034.61" cy="1188.9" r="14.4" fill="#3da44d" fill-rule="evenodd" fill-opacity="0.1" stroke="#000000" stroke-opacity="0.1" stroke-width="3.84"/>
<circle clip-path="url(#clip523)" cx="1350.64" cy="1161.55" r="14.4" fill="#3da44d" fill-rule="evenodd" fill-opacity="0.1" stroke="#000000" stroke-opacity="0.1" stroke-width="3.84"/>
<circle clip-path="url(#clip523)" cx="1666.6" cy="1161.45" r="14.4" fill="#3da44d" fill-rule="evenodd" fill-opacity="0.1" stroke="#000000" stroke-opacity="0.1" stroke-width="3.84"/>
<circle clip-path="url(#clip523)" cx="1998.79" cy="1188.52" r="14.4" fill="#3da44d" fill-rule="evenodd" fill-opacity="0.1" stroke="#000000" stroke-opacity="0.1" stroke-width="3.84"/>
<circle clip-path="url(#clip523)" cx="2405.53" cy="1285.17" r="14.4" fill="#3da44d" fill-rule="evenodd" fill-opacity="0.1" stroke="#000000" stroke-opacity="0.1" stroke-width="3.84"/>
<circle clip-path="url(#clip523)" cx="2572.42" cy="1715.82" r="14.4" fill="#3da44d" fill-rule="evenodd" fill-opacity="0.1" stroke="#000000" stroke-opacity="0.1" stroke-width="3.84"/>
<polyline clip-path="url(#clip523)" style="stroke:#c271d2; stroke-linecap:round; stroke-linejoin:round; stroke-width:4; stroke-opacity:1; fill:none" points="
  294.479,1715.82 413.761,1598.36 533.042,1480.9 652.324,1363.44 771.606,1282.17 890.888,1242.67 1010.17,1203.17 1129.45,1182.35 1248.73,1170.72 1368.02,1159.41 
  1487.3,1158.56 1606.58,1157.7 1725.86,1160.69 1845.14,1169.38 1964.42,1178.07 2083.71,1197.98 2202.99,1223.75 2322.27,1249.53 2441.55,1393.61 2560.83,1715.82 
  
  "/>
<polyline clip-path="url(#clip523)" style="stroke:#ac8d18; stroke-linecap:round; stroke-linejoin:round; stroke-width:4; stroke-opacity:1; fill:none" points="
  294.479,1715.82 716.237,1300.51 1049.46,1190.16 1364.28,1159.44 1677.84,1157.19 2005.39,1181.06 2393.95,1265.02 2560.83,1715.82 
  "/>
<circle clip-path="url(#clip523)" cx="294.479" cy="1715.82" r="14.4" fill="#00a9ad" fill-rule="evenodd" fill-opacity="0.1" stroke="#000000" stroke-opacity="0.1" stroke-width="3.84"/>
<circle clip-path="url(#clip523)" cx="716.237" cy="1300.51" r="14.4" fill="#00a9ad" fill-rule="evenodd" fill-opacity="0.1" stroke="#000000" stroke-opacity="0.1" stroke-width="3.84"/>
<circle clip-path="url(#clip523)" cx="1049.46" cy="1190.16" r="14.4" fill="#00a9ad" fill-rule="evenodd" fill-opacity="0.1" stroke="#000000" stroke-opacity="0.1" stroke-width="3.84"/>
<circle clip-path="url(#clip523)" cx="1364.28" cy="1159.44" r="14.4" fill="#00a9ad" fill-rule="evenodd" fill-opacity="0.1" stroke="#000000" stroke-opacity="0.1" stroke-width="3.84"/>
<circle clip-path="url(#clip523)" cx="1677.84" cy="1157.19" r="14.4" fill="#00a9ad" fill-rule="evenodd" fill-opacity="0.1" stroke="#000000" stroke-opacity="0.1" stroke-width="3.84"/>
<circle clip-path="url(#clip523)" cx="2005.39" cy="1181.06" r="14.4" fill="#00a9ad" fill-rule="evenodd" fill-opacity="0.1" stroke="#000000" stroke-opacity="0.1" stroke-width="3.84"/>
<circle clip-path="url(#clip523)" cx="2393.95" cy="1265.02" r="14.4" fill="#00a9ad" fill-rule="evenodd" fill-opacity="0.1" stroke="#000000" stroke-opacity="0.1" stroke-width="3.84"/>
<circle clip-path="url(#clip523)" cx="2560.83" cy="1715.82" r="14.4" fill="#00a9ad" fill-rule="evenodd" fill-opacity="0.1" stroke="#000000" stroke-opacity="0.1" stroke-width="3.84"/>
<polyline clip-path="url(#clip523)" style="stroke:#ed5d92; stroke-linecap:round; stroke-linejoin:round; stroke-width:4; stroke-opacity:1; fill:none" points="
  294.479,1715.82 411.972,1605.32 529.465,1494.82 646.958,1384.32 764.451,1295.49 881.944,1251.3 999.437,1207.11 1116.93,1178.92 1234.42,1165.83 1351.92,1152.74 
  1469.41,1149.53 1586.9,1147.74 1704.39,1148.34 1821.89,1155.85 1939.38,1163.37 2056.87,1179.18 2174.37,1202.03 2291.86,1224.87 2409.35,1379.5 2526.85,1715.82 
  
  "/>
<polyline clip-path="url(#clip523)" style="stroke:#c68125; stroke-linecap:round; stroke-linejoin:round; stroke-width:4; stroke-opacity:1; fill:none" points="
  294.479,1715.82 726.041,1309.94 1056.44,1185.67 1366.61,1151.1 1674.23,1146.41 1993.29,1166.82 2359.96,1238.11 2526.85,1715.82 
  "/>
<circle clip-path="url(#clip523)" cx="294.479" cy="1715.82" r="14.4" fill="#00a98d" fill-rule="evenodd" fill-opacity="0.1" stroke="#000000" stroke-opacity="0.1" stroke-width="3.84"/>
<circle clip-path="url(#clip523)" cx="726.041" cy="1309.94" r="14.4" fill="#00a98d" fill-rule="evenodd" fill-opacity="0.1" stroke="#000000" stroke-opacity="0.1" stroke-width="3.84"/>
<circle clip-path="url(#clip523)" cx="1056.44" cy="1185.67" r="14.4" fill="#00a98d" fill-rule="evenodd" fill-opacity="0.1" stroke="#000000" stroke-opacity="0.1" stroke-width="3.84"/>
<circle clip-path="url(#clip523)" cx="1366.61" cy="1151.1" r="14.4" fill="#00a98d" fill-rule="evenodd" fill-opacity="0.1" stroke="#000000" stroke-opacity="0.1" stroke-width="3.84"/>
<circle clip-path="url(#clip523)" cx="1674.23" cy="1146.41" r="14.4" fill="#00a98d" fill-rule="evenodd" fill-opacity="0.1" stroke="#000000" stroke-opacity="0.1" stroke-width="3.84"/>
<circle clip-path="url(#clip523)" cx="1993.29" cy="1166.82" r="14.4" fill="#00a98d" fill-rule="evenodd" fill-opacity="0.1" stroke="#000000" stroke-opacity="0.1" stroke-width="3.84"/>
<circle clip-path="url(#clip523)" cx="2359.96" cy="1238.11" r="14.4" fill="#00a98d" fill-rule="evenodd" fill-opacity="0.1" stroke="#000000" stroke-opacity="0.1" stroke-width="3.84"/>
<circle clip-path="url(#clip523)" cx="2526.85" cy="1715.82" r="14.4" fill="#00a98d" fill-rule="evenodd" fill-opacity="0.1" stroke="#000000" stroke-opacity="0.1" stroke-width="3.84"/>
<polyline clip-path="url(#clip523)" style="stroke:#8e971d; stroke-linecap:round; stroke-linejoin:round; stroke-width:4; stroke-opacity:1; fill:none" points="
  294.479,1715.82 409.213,1610.87 523.948,1505.92 638.683,1400.97 753.417,1306.36 868.152,1256.99 982.886,1207.63 1097.62,1170.63 1212.36,1155.78 1327.09,1140.94 
  1441.82,1134.69 1556.56,1131.77 1671.29,1129.92 1786.03,1136.09 1900.76,1142.26 2015.5,1154.42 2130.23,1174.16 2244.97,1193.89 2359.7,1364.4 2474.44,1715.82 
  
  "/>
<polyline clip-path="url(#clip523)" style="stroke:#00a8cb; stroke-linecap:round; stroke-linejoin:round; stroke-width:4; stroke-opacity:1; fill:none" points="
  294.479,1715.82 732.077,1315.54 1056.53,1175.94 1359.04,1136.8 1657.63,1129.19 1964.88,1145.71 2307.55,1204.65 2474.44,1715.82 
  "/>
<circle clip-path="url(#clip523)" cx="294.479" cy="1715.82" r="14.4" fill="#9b7fe8" fill-rule="evenodd" fill-opacity="0.1" stroke="#000000" stroke-opacity="0.1" stroke-width="3.84"/>
<circle clip-path="url(#clip523)" cx="732.077" cy="1315.54" r="14.4" fill="#9b7fe8" fill-rule="evenodd" fill-opacity="0.1" stroke="#000000" stroke-opacity="0.1" stroke-width="3.84"/>
<circle clip-path="url(#clip523)" cx="1056.53" cy="1175.94" r="14.4" fill="#9b7fe8" fill-rule="evenodd" fill-opacity="0.1" stroke="#000000" stroke-opacity="0.1" stroke-width="3.84"/>
<circle clip-path="url(#clip523)" cx="1359.04" cy="1136.8" r="14.4" fill="#9b7fe8" fill-rule="evenodd" fill-opacity="0.1" stroke="#000000" stroke-opacity="0.1" stroke-width="3.84"/>
<circle clip-path="url(#clip523)" cx="1657.63" cy="1129.19" r="14.4" fill="#9b7fe8" fill-rule="evenodd" fill-opacity="0.1" stroke="#000000" stroke-opacity="0.1" stroke-width="3.84"/>
<circle clip-path="url(#clip523)" cx="1964.88" cy="1145.71" r="14.4" fill="#9b7fe8" fill-rule="evenodd" fill-opacity="0.1" stroke="#000000" stroke-opacity="0.1" stroke-width="3.84"/>
<circle clip-path="url(#clip523)" cx="2307.55" cy="1204.65" r="14.4" fill="#9b7fe8" fill-rule="evenodd" fill-opacity="0.1" stroke="#000000" stroke-opacity="0.1" stroke-width="3.84"/>
<circle clip-path="url(#clip523)" cx="2474.44" cy="1715.82" r="14.4" fill="#9b7fe8" fill-rule="evenodd" fill-opacity="0.1" stroke="#000000" stroke-opacity="0.1" stroke-width="3.84"/>
<polyline clip-path="url(#clip523)" style="stroke:#608cf6; stroke-linecap:round; stroke-linejoin:round; stroke-width:4; stroke-opacity:1; fill:none" points="
  294.479,1715.82 405.797,1615.35 517.115,1514.88 628.433,1414.4 739.752,1315.86 851.07,1260.69 962.388,1205.52 1073.71,1158.14 1185.02,1141.22 1296.34,1124.3 
  1407.66,1114.65 1518.98,1110.38 1630.3,1106.11 1741.62,1110.72 1852.93,1115.39 1964.25,1124.37 2075.57,1141.01 2186.89,1157.64 2298.21,1349.06 2409.52,1715.82 
  
  "/>
<polyline clip-path="url(#clip523)" style="stroke:#f05f73; stroke-linecap:round; stroke-linejoin:round; stroke-width:4; stroke-opacity:1; fill:none" points="
  294.479,1715.82 735.009,1318.21 1051.05,1161.58 1343.62,1117.11 1630.89,1106.08 1924.07,1118.37 2242.64,1165.97 2409.52,1715.82 
  "/>
<circle clip-path="url(#clip523)" cx="294.479" cy="1715.82" r="14.4" fill="#dd64b5" fill-rule="evenodd" fill-opacity="0.1" stroke="#000000" stroke-opacity="0.1" stroke-width="3.84"/>
<circle clip-path="url(#clip523)" cx="735.009" cy="1318.21" r="14.4" fill="#dd64b5" fill-rule="evenodd" fill-opacity="0.1" stroke="#000000" stroke-opacity="0.1" stroke-width="3.84"/>
<circle clip-path="url(#clip523)" cx="1051.05" cy="1161.58" r="14.4" fill="#dd64b5" fill-rule="evenodd" fill-opacity="0.1" stroke="#000000" stroke-opacity="0.1" stroke-width="3.84"/>
<circle clip-path="url(#clip523)" cx="1343.62" cy="1117.11" r="14.4" fill="#dd64b5" fill-rule="evenodd" fill-opacity="0.1" stroke="#000000" stroke-opacity="0.1" stroke-width="3.84"/>
<circle clip-path="url(#clip523)" cx="1630.89" cy="1106.08" r="14.4" fill="#dd64b5" fill-rule="evenodd" fill-opacity="0.1" stroke="#000000" stroke-opacity="0.1" stroke-width="3.84"/>
<circle clip-path="url(#clip523)" cx="1924.07" cy="1118.37" r="14.4" fill="#dd64b5" fill-rule="evenodd" fill-opacity="0.1" stroke="#000000" stroke-opacity="0.1" stroke-width="3.84"/>
<circle clip-path="url(#clip523)" cx="2242.64" cy="1165.97" r="14.4" fill="#dd64b5" fill-rule="evenodd" fill-opacity="0.1" stroke="#000000" stroke-opacity="0.1" stroke-width="3.84"/>
<circle clip-path="url(#clip523)" cx="2409.52" cy="1715.82" r="14.4" fill="#dd64b5" fill-rule="evenodd" fill-opacity="0.1" stroke="#000000" stroke-opacity="0.1" stroke-width="3.84"/>
</svg>
