<?xml version="1.0" encoding="utf-8"?>
<svg xmlns="http://www.w3.org/2000/svg" xmlns:xlink="http://www.w3.org/1999/xlink" width="672" height="480" viewBox="0 0 2688 1920">
<defs>
  <clipPath id="clip680">
    <rect x="0" y="0" width="2688" height="1920"/>
  </clipPath>
</defs>
<path clip-path="url(#clip680)" d="
M0 1920 L2688 1920 L2688 0 L0 0  Z
  " fill="#ffffff" fill-rule="evenodd" fill-opacity="1"/>
<defs>
  <clipPath id="clip681">
    <rect x="537" y="0" width="1883" height="1883"/>
  </clipPath>
</defs>
<path clip-path="url(#clip680)" d="
M255.816 498.559 L2640.76 498.559 L2640.76 47.2441 L255.816 47.2441  Z
  " fill="#ffffff" fill-rule="evenodd" fill-opacity="1"/>
<defs>
  <clipPath id="clip682">
    <rect x="255" y="47" width="2386" height="452"/>
  </clipPath>
</defs>
<polyline clip-path="url(#clip680)" style="stroke:#000000; stroke-linecap:round; stroke-linejoin:round; stroke-width:4; stroke-opacity:1; fill:none" points="
  255.816,498.559 2640.76,498.559 
  "/>
<polyline clip-path="url(#clip680)" style="stroke:#000000; stroke-linecap:round; stroke-linejoin:round; stroke-width:4; stroke-opacity:1; fill:none" points="
  323.315,498.559 323.315,479.661 
  "/>
<polyline clip-path="url(#clip680)" style="stroke:#000000; stroke-linecap:round; stroke-linejoin:round; stroke-width:4; stroke-opacity:1; fill:none" points="
  966.155,498.559 966.155,479.661 
  "/>
<polyline clip-path="url(#clip680)" style="stroke:#000000; stroke-linecap:round; stroke-linejoin:round; stroke-width:4; stroke-opacity:1; fill:none" points="
  1609,498.559 1609,479.661 
  "/>
<polyline clip-path="url(#clip680)" style="stroke:#000000; stroke-linecap:round; stroke-linejoin:round; stroke-width:4; stroke-opacity:1; fill:none" points="
  2251.84,498.559 2251.84,479.661 
  "/>
<path clip-path="url(#clip680)" d="M323.315 531.781 Q319.704 531.781 317.875 535.346 Q316.069 538.888 316.069 546.017 Q316.069 553.124 317.875 556.688 Q319.704 560.23 323.315 560.23 Q326.949 560.23 328.754 556.688 Q330.583 553.124 330.583 546.017 Q330.583 538.888 328.754 535.346 Q326.949 531.781 323.315 531.781 M323.315 528.078 Q329.125 528.078 332.18 532.684 Q335.259 537.267 335.259 546.017 Q335.259 554.744 332.18 559.351 Q329.125 563.934 323.315 563.934 Q317.504 563.934 314.426 559.351 Q311.37 554.744 311.37 546.017 Q311.37 537.267 314.426 532.684 Q317.504 528.078 323.315 528.078 Z" fill="#000000" fill-rule="evenodd" fill-opacity="1" /><path clip-path="url(#clip680)" d="M960.808 559.327 L977.128 559.327 L977.128 563.263 L955.183 563.263 L955.183 559.327 Q957.845 556.573 962.429 551.943 Q967.035 547.29 968.216 545.948 Q970.461 543.425 971.341 541.689 Q972.243 539.929 972.243 538.24 Q972.243 535.485 970.299 533.749 Q968.378 532.013 965.276 532.013 Q963.077 532.013 960.623 532.777 Q958.193 533.54 955.415 535.091 L955.415 530.369 Q958.239 529.235 960.693 528.656 Q963.146 528.078 965.183 528.078 Q970.554 528.078 973.748 530.763 Q976.942 533.448 976.942 537.939 Q976.942 540.068 976.132 541.989 Q975.345 543.888 973.239 546.48 Q972.66 547.152 969.558 550.369 Q966.456 553.564 960.808 559.327 Z" fill="#000000" fill-rule="evenodd" fill-opacity="1" /><path clip-path="url(#clip680)" d="M1612.01 532.777 L1600.2 551.226 L1612.01 551.226 L1612.01 532.777 M1610.78 528.703 L1616.66 528.703 L1616.66 551.226 L1621.59 551.226 L1621.59 555.114 L1616.66 555.114 L1616.66 563.263 L1612.01 563.263 L1612.01 555.114 L1596.4 555.114 L1596.4 550.601 L1610.78 528.703 Z" fill="#000000" fill-rule="evenodd" fill-opacity="1" /><path clip-path="url(#clip680)" d="M2252.24 544.119 Q2249.09 544.119 2247.24 546.272 Q2245.41 548.425 2245.41 552.175 Q2245.41 555.901 2247.24 558.077 Q2249.09 560.23 2252.24 560.23 Q2255.39 560.23 2257.22 558.077 Q2259.07 555.901 2259.07 552.175 Q2259.07 548.425 2257.22 546.272 Q2255.39 544.119 2252.24 544.119 M2261.52 529.466 L2261.52 533.726 Q2259.77 532.892 2257.96 532.453 Q2256.18 532.013 2254.42 532.013 Q2249.79 532.013 2247.33 535.138 Q2244.9 538.263 2244.56 544.582 Q2245.92 542.568 2247.98 541.503 Q2250.04 540.415 2252.52 540.415 Q2257.73 540.415 2260.74 543.587 Q2263.77 546.735 2263.77 552.175 Q2263.77 557.499 2260.62 560.716 Q2257.47 563.934 2252.24 563.934 Q2246.25 563.934 2243.08 559.351 Q2239.9 554.744 2239.9 546.017 Q2239.9 537.823 2243.79 532.962 Q2247.68 528.078 2254.23 528.078 Q2255.99 528.078 2257.77 528.425 Q2259.58 528.772 2261.52 529.466 Z" fill="#000000" fill-rule="evenodd" fill-opacity="1" /><polyline clip-path="url(#clip680)" style="stroke:#000000; stroke-linecap:round; stroke-linejoin:round; stroke-width:4; stroke-opacity:1; fill:none" points="
  255.816,498.559 255.816,47.2441 
  "/>
<polyline clip-path="url(#clip680)" style="stroke:#000000; stroke-linecap:round; stroke-linejoin:round; stroke-width:4; stroke-opacity:1; fill:none" points="
  255.816,498.559 274.714,498.559 
  "/>
<polyline clip-path="url(#clip680)" style="stroke:#000000; stroke-linecap:round; stroke-linejoin:round; stroke-width:4; stroke-opacity:1; fill:none" points="
  255.816,422.877 274.714,422.877 
  "/>
<polyline clip-path="url(#clip680)" style="stroke:#000000; stroke-linecap:round; stroke-linejoin:round; stroke-width:4; stroke-opacity:1; fill:none" points="
  255.816,347.195 274.714,347.195 
  "/>
<polyline clip-path="url(#clip680)" style="stroke:#000000; stroke-linecap:round; stroke-linejoin:round; stroke-width:4; stroke-opacity:1; fill:none" points="
  255.816,271.513 274.714,271.513 
  "/>
<polyline clip-path="url(#clip680)" style="stroke:#000000; stroke-linecap:round; stroke-linejoin:round; stroke-width:4; stroke-opacity:1; fill:none" points="
  255.816,195.831 274.714,195.831 
  "/>
<polyline clip-path="url(#clip680)" style="stroke:#000000; stroke-linecap:round; stroke-linejoin:round; stroke-width:4; stroke-opacity:1; fill:none" points="
  255.816,120.149 274.714,120.149 
  "/>
<path clip-path="url(#clip680)" d="M158.321 484.357 Q154.71 484.357 152.881 487.922 Q151.075 491.464 151.075 498.593 Q151.075 505.7 152.881 509.264 Q154.71 512.806 158.321 512.806 Q161.955 512.806 163.76 509.264 Q165.589 505.7 165.589 498.593 Q165.589 491.464 163.76 487.922 Q161.955 484.357 158.321 484.357 M158.321 480.654 Q164.131 480.654 167.186 485.26 Q170.265 489.843 170.265 498.593 Q170.265 507.32 167.186 511.927 Q164.131 516.51 158.321 516.51 Q152.511 516.51 149.432 511.927 Q146.376 507.32 146.376 498.593 Q146.376 489.843 149.432 485.26 Q152.511 480.654 158.321 480.654 Z" fill="#000000" fill-rule="evenodd" fill-opacity="1" /><path clip-path="url(#clip680)" d="M178.483 509.959 L183.367 509.959 L183.367 515.839 L178.483 515.839 L178.483 509.959 Z" fill="#000000" fill-rule="evenodd" fill-opacity="1" /><path clip-path="url(#clip680)" d="M203.552 484.357 Q199.941 484.357 198.112 487.922 Q196.307 491.464 196.307 498.593 Q196.307 505.7 198.112 509.264 Q199.941 512.806 203.552 512.806 Q207.186 512.806 208.992 509.264 Q210.82 505.7 210.82 498.593 Q210.82 491.464 208.992 487.922 Q207.186 484.357 203.552 484.357 M203.552 480.654 Q209.362 480.654 212.418 485.26 Q215.496 489.843 215.496 498.593 Q215.496 507.32 212.418 511.927 Q209.362 516.51 203.552 516.51 Q197.742 516.51 194.663 511.927 Q191.608 507.32 191.608 498.593 Q191.608 489.843 194.663 485.26 Q197.742 480.654 203.552 480.654 Z" fill="#000000" fill-rule="evenodd" fill-opacity="1" /><path clip-path="url(#clip680)" d="M159.548 408.675 Q155.936 408.675 154.108 412.24 Q152.302 415.782 152.302 422.911 Q152.302 430.018 154.108 433.583 Q155.936 437.124 159.548 437.124 Q163.182 437.124 164.987 433.583 Q166.816 430.018 166.816 422.911 Q166.816 415.782 164.987 412.24 Q163.182 408.675 159.548 408.675 M159.548 404.972 Q165.358 404.972 168.413 409.578 Q171.492 414.161 171.492 422.911 Q171.492 431.638 168.413 436.245 Q165.358 440.828 159.548 440.828 Q153.737 440.828 150.659 436.245 Q147.603 431.638 147.603 422.911 Q147.603 414.161 150.659 409.578 Q153.737 404.972 159.548 404.972 Z" fill="#000000" fill-rule="evenodd" fill-opacity="1" /><path clip-path="url(#clip680)" d="M179.709 434.277 L184.594 434.277 L184.594 440.157 L179.709 440.157 L179.709 434.277 Z" fill="#000000" fill-rule="evenodd" fill-opacity="1" /><path clip-path="url(#clip680)" d="M195.589 436.221 L203.228 436.221 L203.228 409.856 L194.918 411.523 L194.918 407.263 L203.182 405.597 L207.857 405.597 L207.857 436.221 L215.496 436.221 L215.496 440.157 L195.589 440.157 L195.589 436.221 Z" fill="#000000" fill-rule="evenodd" fill-opacity="1" /><path clip-path="url(#clip680)" d="M159.918 332.993 Q156.307 332.993 154.478 336.558 Q152.673 340.1 152.673 347.229 Q152.673 354.336 154.478 357.901 Q156.307 361.442 159.918 361.442 Q163.552 361.442 165.358 357.901 Q167.186 354.336 167.186 347.229 Q167.186 340.1 165.358 336.558 Q163.552 332.993 159.918 332.993 M159.918 329.29 Q165.728 329.29 168.784 333.896 Q171.862 338.479 171.862 347.229 Q171.862 355.956 168.784 360.563 Q165.728 365.146 159.918 365.146 Q154.108 365.146 151.029 360.563 Q147.974 355.956 147.974 347.229 Q147.974 338.479 151.029 333.896 Q154.108 329.29 159.918 329.29 Z" fill="#000000" fill-rule="evenodd" fill-opacity="1" /><path clip-path="url(#clip680)" d="M180.08 358.595 L184.964 358.595 L184.964 364.475 L180.08 364.475 L180.08 358.595 Z" fill="#000000" fill-rule="evenodd" fill-opacity="1" /><path clip-path="url(#clip680)" d="M199.177 360.54 L215.496 360.54 L215.496 364.475 L193.552 364.475 L193.552 360.54 Q196.214 357.785 200.797 353.155 Q205.404 348.503 206.584 347.16 Q208.83 344.637 209.709 342.901 Q210.612 341.141 210.612 339.452 Q210.612 336.697 208.668 334.961 Q206.746 333.225 203.645 333.225 Q201.445 333.225 198.992 333.989 Q196.561 334.753 193.783 336.304 L193.783 331.581 Q196.608 330.447 199.061 329.868 Q201.515 329.29 203.552 329.29 Q208.922 329.29 212.117 331.975 Q215.311 334.66 215.311 339.151 Q215.311 341.28 214.501 343.202 Q213.714 345.1 211.607 347.692 Q211.029 348.364 207.927 351.581 Q204.825 354.776 199.177 360.54 Z" fill="#000000" fill-rule="evenodd" fill-opacity="1" /><path clip-path="url(#clip680)" d="M158.969 257.311 Q155.358 257.311 153.529 260.876 Q151.724 264.418 151.724 271.547 Q151.724 278.654 153.529 282.219 Q155.358 285.76 158.969 285.76 Q162.603 285.76 164.409 282.219 Q166.237 278.654 166.237 271.547 Q166.237 264.418 164.409 260.876 Q162.603 257.311 158.969 257.311 M158.969 253.608 Q164.779 253.608 167.835 258.214 Q170.913 262.798 170.913 271.547 Q170.913 280.274 167.835 284.881 Q164.779 289.464 158.969 289.464 Q153.159 289.464 150.08 284.881 Q147.024 280.274 147.024 271.547 Q147.024 262.798 150.08 258.214 Q153.159 253.608 158.969 253.608 Z" fill="#000000" fill-rule="evenodd" fill-opacity="1" /><path clip-path="url(#clip680)" d="M179.131 282.913 L184.015 282.913 L184.015 288.793 L179.131 288.793 L179.131 282.913 Z" fill="#000000" fill-rule="evenodd" fill-opacity="1" /><path clip-path="url(#clip680)" d="M208.367 270.159 Q211.723 270.876 213.598 273.145 Q215.496 275.413 215.496 278.747 Q215.496 283.862 211.978 286.663 Q208.459 289.464 201.978 289.464 Q199.802 289.464 197.487 289.024 Q195.196 288.608 192.742 287.751 L192.742 283.237 Q194.686 284.371 197.001 284.95 Q199.316 285.529 201.839 285.529 Q206.237 285.529 208.529 283.793 Q210.844 282.057 210.844 278.747 Q210.844 275.691 208.691 273.978 Q206.561 272.242 202.742 272.242 L198.714 272.242 L198.714 268.399 L202.927 268.399 Q206.376 268.399 208.205 267.034 Q210.033 265.645 210.033 263.052 Q210.033 260.39 208.135 258.978 Q206.26 257.543 202.742 257.543 Q200.82 257.543 198.621 257.96 Q196.422 258.376 193.783 259.256 L193.783 255.089 Q196.445 254.349 198.76 253.978 Q201.098 253.608 203.158 253.608 Q208.482 253.608 211.584 256.038 Q214.686 258.446 214.686 262.566 Q214.686 265.436 213.043 267.427 Q211.399 269.395 208.367 270.159 Z" fill="#000000" fill-rule="evenodd" fill-opacity="1" /><path clip-path="url(#clip680)" d="M157.835 181.63 Q154.223 181.63 152.395 185.194 Q150.589 188.736 150.589 195.866 Q150.589 202.972 152.395 206.537 Q154.223 210.078 157.835 210.078 Q161.469 210.078 163.274 206.537 Q165.103 202.972 165.103 195.866 Q165.103 188.736 163.274 185.194 Q161.469 181.63 157.835 181.63 M157.835 177.926 Q163.645 177.926 166.7 182.532 Q169.779 187.116 169.779 195.866 Q169.779 204.592 166.7 209.199 Q163.645 213.782 157.835 213.782 Q152.024 213.782 148.946 209.199 Q145.89 204.592 145.89 195.866 Q145.89 187.116 148.946 182.532 Q152.024 177.926 157.835 177.926 Z" fill="#000000" fill-rule="evenodd" fill-opacity="1" /><path clip-path="url(#clip680)" d="M177.997 207.231 L182.881 207.231 L182.881 213.111 L177.997 213.111 L177.997 207.231 Z" fill="#000000" fill-rule="evenodd" fill-opacity="1" /><path clip-path="url(#clip680)" d="M205.913 182.625 L194.108 201.074 L205.913 201.074 L205.913 182.625 M204.686 178.551 L210.566 178.551 L210.566 201.074 L215.496 201.074 L215.496 204.963 L210.566 204.963 L210.566 213.111 L205.913 213.111 L205.913 204.963 L190.311 204.963 L190.311 200.449 L204.686 178.551 Z" fill="#000000" fill-rule="evenodd" fill-opacity="1" /><path clip-path="url(#clip680)" d="M159.316 105.948 Q155.705 105.948 153.876 109.512 Q152.071 113.054 152.071 120.184 Q152.071 127.29 153.876 130.855 Q155.705 134.397 159.316 134.397 Q162.95 134.397 164.756 130.855 Q166.585 127.29 166.585 120.184 Q166.585 113.054 164.756 109.512 Q162.95 105.948 159.316 105.948 M159.316 102.244 Q165.126 102.244 168.182 106.85 Q171.26 111.434 171.26 120.184 Q171.26 128.91 168.182 133.517 Q165.126 138.1 159.316 138.1 Q153.506 138.1 150.427 133.517 Q147.372 128.91 147.372 120.184 Q147.372 111.434 150.427 106.85 Q153.506 102.244 159.316 102.244 Z" fill="#000000" fill-rule="evenodd" fill-opacity="1" /><path clip-path="url(#clip680)" d="M179.478 131.549 L184.362 131.549 L184.362 137.429 L179.478 137.429 L179.478 131.549 Z" fill="#000000" fill-rule="evenodd" fill-opacity="1" /><path clip-path="url(#clip680)" d="M194.594 102.869 L212.95 102.869 L212.95 106.804 L198.876 106.804 L198.876 115.276 Q199.895 114.929 200.913 114.767 Q201.932 114.582 202.95 114.582 Q208.737 114.582 212.117 117.753 Q215.496 120.924 215.496 126.341 Q215.496 131.92 212.024 135.022 Q208.552 138.1 202.233 138.1 Q200.057 138.1 197.788 137.73 Q195.543 137.359 193.135 136.619 L193.135 131.92 Q195.219 133.054 197.441 133.609 Q199.663 134.165 202.14 134.165 Q206.145 134.165 208.482 132.059 Q210.82 129.952 210.82 126.341 Q210.82 122.73 208.482 120.623 Q206.145 118.517 202.14 118.517 Q200.265 118.517 198.39 118.934 Q196.538 119.35 194.594 120.23 L194.594 102.869 Z" fill="#000000" fill-rule="evenodd" fill-opacity="1" /><path clip-path="url(#clip680)" d="M91.3142 455.279 L43.7942 473.421 L43.7942 466.705 L83.8027 451.65 L43.7942 436.564 L43.7942 429.88 L91.3142 447.99 L91.3142 455.279 Z" fill="#000000" fill-rule="evenodd" fill-opacity="1" /><path clip-path="url(#clip680)" d="M62.5094 374.721 Q58.5626 372.525 56.6848 369.469 Q54.8069 366.414 54.8069 362.276 Q54.8069 356.706 58.7218 353.682 Q62.6049 350.658 69.7981 350.658 L91.3142 350.658 L91.3142 356.547 L69.9891 356.547 Q64.8647 356.547 62.3821 358.361 Q59.8994 360.175 59.8994 363.899 Q59.8994 368.451 62.9232 371.092 Q65.9469 373.734 71.1667 373.734 L91.3142 373.734 L91.3142 379.622 L69.9891 379.622 Q64.8329 379.622 62.3821 381.437 Q59.8994 383.251 59.8994 387.038 Q59.8994 391.526 62.955 394.168 Q65.9787 396.81 71.1667 396.81 L91.3142 396.81 L91.3142 402.698 L55.6663 402.698 L55.6663 396.81 L61.2044 396.81 Q57.9261 394.805 56.3665 392.004 Q54.8069 389.203 54.8069 385.352 Q54.8069 381.468 56.7803 378.763 Q58.7536 376.026 62.5094 374.721 Z" fill="#000000" fill-rule="evenodd" fill-opacity="1" /><path clip-path="url(#clip680)" d="M55.6663 338.977 L55.6663 333.121 L91.3142 333.121 L91.3142 338.977 L55.6663 338.977 M41.789 338.977 L41.789 333.121 L49.2051 333.121 L49.2051 338.977 L41.789 338.977 Z" fill="#000000" fill-rule="evenodd" fill-opacity="1" /><path clip-path="url(#clip680)" d="M61.0771 297.409 L41.789 297.409 L41.789 291.553 L91.3142 291.553 L91.3142 297.409 L85.967 297.409 Q89.1499 299.255 90.7095 302.088 Q92.2372 304.889 92.2372 308.836 Q92.2372 315.297 87.081 319.371 Q81.9248 323.413 73.5221 323.413 Q65.1193 323.413 59.9631 319.371 Q54.8069 315.297 54.8069 308.836 Q54.8069 304.889 56.3665 302.088 Q57.8943 299.255 61.0771 297.409 M73.5221 317.366 Q79.9833 317.366 83.6754 314.724 Q87.3356 312.05 87.3356 307.403 Q87.3356 302.756 83.6754 300.083 Q79.9833 297.409 73.5221 297.409 Q67.0609 297.409 63.4006 300.083 Q59.7085 302.756 59.7085 307.403 Q59.7085 312.05 63.4006 314.724 Q67.0609 317.366 73.5221 317.366 Z" fill="#000000" fill-rule="evenodd" fill-opacity="1" /><path clip-path="url(#clip680)" d="M56.7166 256.764 L62.2548 256.764 Q60.9816 259.247 60.345 261.92 Q59.7085 264.594 59.7085 267.459 Q59.7085 271.819 61.0453 274.015 Q62.3821 276.18 65.0557 276.18 Q67.0927 276.18 68.2704 274.62 Q69.4162 273.06 70.4665 268.35 L70.9121 266.345 Q72.2489 260.106 74.6997 257.496 Q77.1187 254.855 81.4792 254.855 Q86.4444 254.855 89.3408 258.801 Q92.2372 262.716 92.2372 269.591 Q92.2372 272.456 91.6643 275.575 Q91.1232 278.662 90.0092 282.1 L83.9618 282.1 Q85.6487 278.853 86.5081 275.702 Q87.3356 272.551 87.3356 269.464 Q87.3356 265.326 85.9352 263.098 Q84.5029 260.87 81.9248 260.87 Q79.5377 260.87 78.2645 262.493 Q76.9914 264.085 75.8137 269.527 L75.3363 271.565 Q74.1905 277.007 71.8351 279.426 Q69.448 281.845 65.3103 281.845 Q60.2814 281.845 57.5441 278.28 Q54.8069 274.716 54.8069 268.159 Q54.8069 264.912 55.2843 262.048 Q55.7617 259.183 56.7166 256.764 Z" fill="#000000" fill-rule="evenodd" fill-opacity="1" /><path clip-path="url(#clip680)" d="M45.5448 239.736 L55.6663 239.736 L55.6663 227.673 L60.2177 227.673 L60.2177 239.736 L79.5695 239.736 Q83.93 239.736 85.1713 238.558 Q86.4126 237.349 86.4126 233.689 L86.4126 227.673 L91.3142 227.673 L91.3142 233.689 Q91.3142 240.468 88.7998 243.046 Q86.2535 245.624 79.5695 245.624 L60.2177 245.624 L60.2177 249.921 L55.6663 249.921 L55.6663 245.624 L45.5448 245.624 L45.5448 239.736 Z" fill="#000000" fill-rule="evenodd" fill-opacity="1" /><path clip-path="url(#clip680)" d="M73.3947 203.77 Q73.3947 210.868 75.018 213.605 Q76.6413 216.342 80.5562 216.342 Q83.6754 216.342 85.5214 214.305 Q87.3356 212.236 87.3356 208.703 Q87.3356 203.833 83.8982 200.905 Q80.4289 197.945 74.6997 197.945 L73.3947 197.945 L73.3947 203.77 M70.9758 192.089 L91.3142 192.089 L91.3142 197.945 L85.9034 197.945 Q89.1499 199.95 90.7095 202.942 Q92.2372 205.934 92.2372 210.263 Q92.2372 215.737 89.1817 218.984 Q86.0943 222.198 80.9381 222.198 Q74.9225 222.198 71.867 218.188 Q68.8114 214.146 68.8114 206.157 L68.8114 197.945 L68.2385 197.945 Q64.1963 197.945 62.0001 200.619 Q59.7721 203.26 59.7721 208.067 Q59.7721 211.122 60.5042 214.019 Q61.2362 216.915 62.7004 219.589 L57.2895 219.589 Q56.0482 216.374 55.4435 213.35 Q54.8069 210.326 54.8069 207.462 Q54.8069 199.728 58.8173 195.908 Q62.8277 192.089 70.9758 192.089 Z" fill="#000000" fill-rule="evenodd" fill-opacity="1" /><path clip-path="url(#clip680)" d="M69.7981 150.393 L91.3142 150.393 L91.3142 156.25 L69.9891 156.25 Q64.9284 156.25 62.4139 158.223 Q59.8994 160.196 59.8994 164.143 Q59.8994 168.886 62.9232 171.623 Q65.9469 174.36 71.1667 174.36 L91.3142 174.36 L91.3142 180.248 L55.6663 180.248 L55.6663 174.36 L61.2044 174.36 Q57.9897 172.259 56.3983 169.427 Q54.8069 166.562 54.8069 162.838 Q54.8069 156.695 58.6263 153.544 Q62.4139 150.393 69.7981 150.393 Z" fill="#000000" fill-rule="evenodd" fill-opacity="1" /><path clip-path="url(#clip680)" d="M57.0349 113.058 L62.5094 113.058 Q61.1408 115.541 60.4724 118.055 Q59.7721 120.538 59.7721 123.084 Q59.7721 128.782 63.4006 131.933 Q66.9972 135.084 73.5221 135.084 Q80.0469 135.084 83.6754 131.933 Q87.272 128.782 87.272 123.084 Q87.272 120.538 86.6036 118.055 Q85.9034 115.541 84.5347 113.058 L89.9456 113.058 Q91.0914 115.509 91.6643 118.151 Q92.2372 120.761 92.2372 123.721 Q92.2372 131.774 87.1765 136.516 Q82.1158 141.258 73.5221 141.258 Q64.801 141.258 59.804 136.484 Q54.8069 131.678 54.8069 123.339 Q54.8069 120.634 55.3798 118.055 Q55.9209 115.477 57.0349 113.058 Z" fill="#000000" fill-rule="evenodd" fill-opacity="1" /><path clip-path="url(#clip680)" d="M72.0261 72.3816 L74.8907 72.3816 L74.8907 99.3085 Q80.9381 98.9266 84.121 95.68 Q87.272 92.4017 87.272 86.5771 Q87.272 83.2033 86.4444 80.0522 Q85.6169 76.8694 83.9618 73.7502 L89.5 73.7502 Q90.8368 76.9012 91.537 80.2114 Q92.2372 83.5215 92.2372 86.9272 Q92.2372 95.4572 87.272 100.454 Q82.3067 105.42 73.8403 105.42 Q65.0875 105.42 59.9631 100.709 Q54.8069 95.9665 54.8069 87.9457 Q54.8069 80.7525 59.4538 76.5829 Q64.069 72.3816 72.0261 72.3816 M70.3074 78.238 Q65.5013 78.3017 62.6367 80.9434 Q59.7721 83.5534 59.7721 87.882 Q59.7721 92.7836 62.5412 95.7437 Q65.3103 98.6719 70.3392 99.1175 L70.3074 78.238 Z" fill="#000000" fill-rule="evenodd" fill-opacity="1" /><polyline clip-path="url(#clip682)" style="stroke:#009af9; stroke-linecap:round; stroke-linejoin:round; stroke-width:4; stroke-opacity:1; fill:none" points="
  323.315,257.393 323.315,257.393 644.735,120.66 966.155,69.8059 1287.58,49.9599 1609,47.2441 1930.42,59.9498 2251.84,96.4423 2573.26,187.879 2573.26,187.879 
  
  "/>
<circle clip-path="url(#clip682)" cx="323.315" cy="257.393" r="14.4" fill="#009af9" fill-rule="evenodd" fill-opacity="1" stroke="#000000" stroke-opacity="1" stroke-width="3.84"/>
<circle clip-path="url(#clip682)" cx="323.315" cy="257.393" r="14.4" fill="#009af9" fill-rule="evenodd" fill-opacity="1" stroke="#000000" stroke-opacity="1" stroke-width="3.84"/>
<circle clip-path="url(#clip682)" cx="644.735" cy="120.66" r="14.4" fill="#009af9" fill-rule="evenodd" fill-opacity="1" stroke="#000000" stroke-opacity="1" stroke-width="3.84"/>
<circle clip-path="url(#clip682)" cx="966.155" cy="69.8059" r="14.4" fill="#009af9" fill-rule="evenodd" fill-opacity="1" stroke="#000000" stroke-opacity="1" stroke-width="3.84"/>
<circle clip-path="url(#clip682)" cx="1287.58" cy="49.9599" r="14.4" fill="#009af9" fill-rule="evenodd" fill-opacity="1" stroke="#000000" stroke-opacity="1" stroke-width="3.84"/>
<circle clip-path="url(#clip682)" cx="1609" cy="47.2441" r="14.4" fill="#009af9" fill-rule="evenodd" fill-opacity="1" stroke="#000000" stroke-opacity="1" stroke-width="3.84"/>
<circle clip-path="url(#clip682)" cx="1930.42" cy="59.9498" r="14.4" fill="#009af9" fill-rule="evenodd" fill-opacity="1" stroke="#000000" stroke-opacity="1" stroke-width="3.84"/>
<circle clip-path="url(#clip682)" cx="2251.84" cy="96.4423" r="14.4" fill="#009af9" fill-rule="evenodd" fill-opacity="1" stroke="#000000" stroke-opacity="1" stroke-width="3.84"/>
<circle clip-path="url(#clip682)" cx="2573.26" cy="187.879" r="14.4" fill="#009af9" fill-rule="evenodd" fill-opacity="1" stroke="#000000" stroke-opacity="1" stroke-width="3.84"/>
<circle clip-path="url(#clip682)" cx="2573.26" cy="187.879" r="14.4" fill="#009af9" fill-rule="evenodd" fill-opacity="1" stroke="#000000" stroke-opacity="1" stroke-width="3.84"/>
<path clip-path="url(#clip680)" d="
M2270.33 483.515 L2561.26 483.515 L2561.26 379.835 L2270.33 379.835  Z
  " fill="#ffffff" fill-rule="evenodd" fill-opacity="1"/>
<polyline clip-path="url(#clip680)" style="stroke:#000000; stroke-linecap:round; stroke-linejoin:round; stroke-width:4; stroke-opacity:1; fill:none" points="
  2270.33,483.515 2561.26,483.515 2561.26,379.835 2270.33,379.835 2270.33,483.515 
  "/>
<polyline clip-path="url(#clip680)" style="stroke:#009af9; stroke-linecap:round; stroke-linejoin:round; stroke-width:4; stroke-opacity:1; fill:none" points="
  2296.83,431.675 2455.83,431.675 
  "/>
<circle clip-path="url(#clip680)" cx="2376.33" cy="431.675" r="22.0828" fill="#009af9" fill-rule="evenodd" fill-opacity="1" stroke="#000000" stroke-opacity="1" stroke-width="6.144"/>
<path clip-path="url(#clip680)" d="M2496.17 451.362 Q2494.37 455.992 2492.65 457.404 Q2490.94 458.816 2488.07 458.816 L2484.67 458.816 L2484.67 455.251 L2487.17 455.251 Q2488.93 455.251 2489.9 454.418 Q2490.87 453.584 2492.05 450.482 L2492.81 448.538 L2482.33 423.029 L2486.84 423.029 L2494.94 443.307 L2503.05 423.029 L2507.56 423.029 L2496.17 451.362 Z" fill="#000000" fill-rule="evenodd" fill-opacity="1" /><path clip-path="url(#clip680)" d="M2514.85 445.02 L2522.49 445.02 L2522.49 418.654 L2514.18 420.321 L2514.18 416.061 L2522.44 414.395 L2527.12 414.395 L2527.12 445.02 L2534.76 445.02 L2534.76 448.955 L2514.85 448.955 L2514.85 445.02 Z" fill="#000000" fill-rule="evenodd" fill-opacity="1" /><path clip-path="url(#clip680)" d="
M255.816 1116.34 L2640.76 1116.34 L2640.76 665.023 L255.816 665.023  Z
  " fill="#ffffff" fill-rule="evenodd" fill-opacity="1"/>
<defs>
  <clipPath id="clip683">
    <rect x="255" y="665" width="2386" height="452"/>
  </clipPath>
</defs>
<polyline clip-path="url(#clip680)" style="stroke:#000000; stroke-linecap:round; stroke-linejoin:round; stroke-width:4; stroke-opacity:1; fill:none" points="
  255.816,1116.34 2640.76,1116.34 
  "/>
<polyline clip-path="url(#clip680)" style="stroke:#000000; stroke-linecap:round; stroke-linejoin:round; stroke-width:4; stroke-opacity:1; fill:none" points="
  484.025,1116.34 484.025,1097.44 
  "/>
<polyline clip-path="url(#clip680)" style="stroke:#000000; stroke-linecap:round; stroke-linejoin:round; stroke-width:4; stroke-opacity:1; fill:none" points="
  805.445,1116.34 805.445,1097.44 
  "/>
<polyline clip-path="url(#clip680)" style="stroke:#000000; stroke-linecap:round; stroke-linejoin:round; stroke-width:4; stroke-opacity:1; fill:none" points="
  1126.87,1116.34 1126.87,1097.44 
  "/>
<polyline clip-path="url(#clip680)" style="stroke:#000000; stroke-linecap:round; stroke-linejoin:round; stroke-width:4; stroke-opacity:1; fill:none" points="
  1448.29,1116.34 1448.29,1097.44 
  "/>
<polyline clip-path="url(#clip680)" style="stroke:#000000; stroke-linecap:round; stroke-linejoin:round; stroke-width:4; stroke-opacity:1; fill:none" points="
  1769.71,1116.34 1769.71,1097.44 
  "/>
<polyline clip-path="url(#clip680)" style="stroke:#000000; stroke-linecap:round; stroke-linejoin:round; stroke-width:4; stroke-opacity:1; fill:none" points="
  2091.13,1116.34 2091.13,1097.44 
  "/>
<polyline clip-path="url(#clip680)" style="stroke:#000000; stroke-linecap:round; stroke-linejoin:round; stroke-width:4; stroke-opacity:1; fill:none" points="
  2412.55,1116.34 2412.55,1097.44 
  "/>
<path clip-path="url(#clip680)" d="M474.407 1177.11 L482.046 1177.11 L482.046 1150.74 L473.736 1152.41 L473.736 1148.15 L481.999 1146.48 L486.675 1146.48 L486.675 1177.11 L494.314 1177.11 L494.314 1181.04 L474.407 1181.04 L474.407 1177.11 Z" fill="#000000" fill-rule="evenodd" fill-opacity="1" /><path clip-path="url(#clip680)" d="M800.098 1177.11 L816.417 1177.11 L816.417 1181.04 L794.473 1181.04 L794.473 1177.11 Q797.135 1174.35 801.718 1169.72 Q806.325 1165.07 807.505 1163.73 Q809.751 1161.2 810.63 1159.47 Q811.533 1157.71 811.533 1156.02 Q811.533 1153.26 809.589 1151.53 Q807.667 1149.79 804.566 1149.79 Q802.367 1149.79 799.913 1150.56 Q797.482 1151.32 794.705 1152.87 L794.705 1148.15 Q797.529 1147.01 799.982 1146.44 Q802.436 1145.86 804.473 1145.86 Q809.843 1145.86 813.038 1148.54 Q816.232 1151.23 816.232 1155.72 Q816.232 1157.85 815.422 1159.77 Q814.635 1161.67 812.529 1164.26 Q811.95 1164.93 808.848 1168.15 Q805.746 1171.34 800.098 1177.11 Z" fill="#000000" fill-rule="evenodd" fill-opacity="1" /><path clip-path="url(#clip680)" d="M1131.11 1162.41 Q1134.47 1163.13 1136.34 1165.39 Q1138.24 1167.66 1138.24 1171 Q1138.24 1176.11 1134.72 1178.91 Q1131.21 1181.71 1124.72 1181.71 Q1122.55 1181.71 1120.23 1181.27 Q1117.94 1180.86 1115.49 1180 L1115.49 1175.49 Q1117.43 1176.62 1119.75 1177.2 Q1122.06 1177.78 1124.59 1177.78 Q1128.98 1177.78 1131.28 1176.04 Q1133.59 1174.31 1133.59 1171 Q1133.59 1167.94 1131.44 1166.23 Q1129.31 1164.49 1125.49 1164.49 L1121.46 1164.49 L1121.46 1160.65 L1125.67 1160.65 Q1129.12 1160.65 1130.95 1159.28 Q1132.78 1157.89 1132.78 1155.3 Q1132.78 1152.64 1130.88 1151.23 Q1129.01 1149.79 1125.49 1149.79 Q1123.57 1149.79 1121.37 1150.21 Q1119.17 1150.63 1116.53 1151.5 L1116.53 1147.34 Q1119.19 1146.6 1121.51 1146.23 Q1123.84 1145.86 1125.91 1145.86 Q1131.23 1145.86 1134.33 1148.29 Q1137.43 1150.69 1137.43 1154.82 Q1137.43 1157.69 1135.79 1159.68 Q1134.15 1161.64 1131.11 1162.41 Z" fill="#000000" fill-rule="evenodd" fill-opacity="1" /><path clip-path="url(#clip680)" d="M1451.3 1150.56 L1439.49 1169 L1451.3 1169 L1451.3 1150.56 M1450.07 1146.48 L1455.95 1146.48 L1455.95 1169 L1460.88 1169 L1460.88 1172.89 L1455.95 1172.89 L1455.95 1181.04 L1451.3 1181.04 L1451.3 1172.89 L1435.69 1172.89 L1435.69 1168.38 L1450.07 1146.48 Z" fill="#000000" fill-rule="evenodd" fill-opacity="1" /><path clip-path="url(#clip680)" d="M1759.98 1146.48 L1778.34 1146.48 L1778.34 1150.42 L1764.27 1150.42 L1764.27 1158.89 Q1765.29 1158.54 1766.3 1158.38 Q1767.32 1158.19 1768.34 1158.19 Q1774.13 1158.19 1777.51 1161.37 Q1780.89 1164.54 1780.89 1169.95 Q1780.89 1175.53 1777.41 1178.63 Q1773.94 1181.71 1767.62 1181.71 Q1765.45 1181.71 1763.18 1181.34 Q1760.93 1180.97 1758.53 1180.23 L1758.53 1175.53 Q1760.61 1176.67 1762.83 1177.22 Q1765.05 1177.78 1767.53 1177.78 Q1771.54 1177.78 1773.87 1175.67 Q1776.21 1173.56 1776.21 1169.95 Q1776.21 1166.34 1773.87 1164.24 Q1771.54 1162.13 1767.53 1162.13 Q1765.66 1162.13 1763.78 1162.55 Q1761.93 1162.96 1759.98 1163.84 L1759.98 1146.48 Z" fill="#000000" fill-rule="evenodd" fill-opacity="1" /><path clip-path="url(#clip680)" d="M2091.53 1161.9 Q2088.38 1161.9 2086.53 1164.05 Q2084.7 1166.2 2084.7 1169.95 Q2084.7 1173.68 2086.53 1175.86 Q2088.38 1178.01 2091.53 1178.01 Q2094.68 1178.01 2096.51 1175.86 Q2098.36 1173.68 2098.36 1169.95 Q2098.36 1166.2 2096.51 1164.05 Q2094.68 1161.9 2091.53 1161.9 M2100.81 1147.25 L2100.81 1151.5 Q2099.06 1150.67 2097.25 1150.23 Q2095.47 1149.79 2093.71 1149.79 Q2089.08 1149.79 2086.62 1152.92 Q2084.19 1156.04 2083.85 1162.36 Q2085.21 1160.35 2087.27 1159.28 Q2089.33 1158.19 2091.81 1158.19 Q2097.02 1158.19 2100.03 1161.37 Q2103.06 1164.51 2103.06 1169.95 Q2103.06 1175.28 2099.91 1178.5 Q2096.76 1181.71 2091.53 1181.71 Q2085.54 1181.71 2082.37 1177.13 Q2079.19 1172.52 2079.19 1163.8 Q2079.19 1155.6 2083.08 1150.74 Q2086.97 1145.86 2093.52 1145.86 Q2095.28 1145.86 2097.06 1146.2 Q2098.87 1146.55 2100.81 1147.25 Z" fill="#000000" fill-rule="evenodd" fill-opacity="1" /><path clip-path="url(#clip680)" d="M2401.44 1146.48 L2423.66 1146.48 L2423.66 1148.47 L2411.11 1181.04 L2406.23 1181.04 L2418.03 1150.42 L2401.44 1150.42 L2401.44 1146.48 Z" fill="#000000" fill-rule="evenodd" fill-opacity="1" /><polyline clip-path="url(#clip680)" style="stroke:#000000; stroke-linecap:round; stroke-linejoin:round; stroke-width:4; stroke-opacity:1; fill:none" points="
  255.816,1116.34 255.816,665.023 
  "/>
<polyline clip-path="url(#clip680)" style="stroke:#000000; stroke-linecap:round; stroke-linejoin:round; stroke-width:4; stroke-opacity:1; fill:none" points="
  255.816,1116.34 274.714,1116.34 
  "/>
<polyline clip-path="url(#clip680)" style="stroke:#000000; stroke-linecap:round; stroke-linejoin:round; stroke-width:4; stroke-opacity:1; fill:none" points="
  255.816,1002.05 274.714,1002.05 
  "/>
<polyline clip-path="url(#clip680)" style="stroke:#000000; stroke-linecap:round; stroke-linejoin:round; stroke-width:4; stroke-opacity:1; fill:none" points="
  255.816,887.754 274.714,887.754 
  "/>
<polyline clip-path="url(#clip680)" style="stroke:#000000; stroke-linecap:round; stroke-linejoin:round; stroke-width:4; stroke-opacity:1; fill:none" points="
  255.816,773.463 274.714,773.463 
  "/>
<path clip-path="url(#clip680)" d="M158.321 1102.14 Q154.71 1102.14 152.881 1105.7 Q151.075 1109.24 151.075 1116.37 Q151.075 1123.48 152.881 1127.04 Q154.71 1130.59 158.321 1130.59 Q161.955 1130.59 163.76 1127.04 Q165.589 1123.48 165.589 1116.37 Q165.589 1109.24 163.76 1105.7 Q161.955 1102.14 158.321 1102.14 M158.321 1098.43 Q164.131 1098.43 167.186 1103.04 Q170.265 1107.62 170.265 1116.37 Q170.265 1125.1 167.186 1129.71 Q164.131 1134.29 158.321 1134.29 Q152.511 1134.29 149.432 1129.71 Q146.376 1125.1 146.376 1116.37 Q146.376 1107.62 149.432 1103.04 Q152.511 1098.43 158.321 1098.43 Z" fill="#000000" fill-rule="evenodd" fill-opacity="1" /><path clip-path="url(#clip680)" d="M178.483 1127.74 L183.367 1127.74 L183.367 1133.62 L178.483 1133.62 L178.483 1127.74 Z" fill="#000000" fill-rule="evenodd" fill-opacity="1" /><path clip-path="url(#clip680)" d="M203.552 1102.14 Q199.941 1102.14 198.112 1105.7 Q196.307 1109.24 196.307 1116.37 Q196.307 1123.48 198.112 1127.04 Q199.941 1130.59 203.552 1130.59 Q207.186 1130.59 208.992 1127.04 Q210.82 1123.48 210.82 1116.37 Q210.82 1109.24 208.992 1105.7 Q207.186 1102.14 203.552 1102.14 M203.552 1098.43 Q209.362 1098.43 212.418 1103.04 Q215.496 1107.62 215.496 1116.37 Q215.496 1125.1 212.418 1129.71 Q209.362 1134.29 203.552 1134.29 Q197.742 1134.29 194.663 1129.71 Q191.608 1125.1 191.608 1116.37 Q191.608 1107.62 194.663 1103.04 Q197.742 1098.43 203.552 1098.43 Z" fill="#000000" fill-rule="evenodd" fill-opacity="1" /><path clip-path="url(#clip680)" d="M159.548 987.845 Q155.936 987.845 154.108 991.41 Q152.302 994.951 152.302 1002.08 Q152.302 1009.19 154.108 1012.75 Q155.936 1016.29 159.548 1016.29 Q163.182 1016.29 164.987 1012.75 Q166.816 1009.19 166.816 1002.08 Q166.816 994.951 164.987 991.41 Q163.182 987.845 159.548 987.845 M159.548 984.141 Q165.358 984.141 168.413 988.747 Q171.492 993.331 171.492 1002.08 Q171.492 1010.81 168.413 1015.41 Q165.358 1020 159.548 1020 Q153.737 1020 150.659 1015.41 Q147.603 1010.81 147.603 1002.08 Q147.603 993.331 150.659 988.747 Q153.737 984.141 159.548 984.141 Z" fill="#000000" fill-rule="evenodd" fill-opacity="1" /><path clip-path="url(#clip680)" d="M179.709 1013.45 L184.594 1013.45 L184.594 1019.33 L179.709 1019.33 L179.709 1013.45 Z" fill="#000000" fill-rule="evenodd" fill-opacity="1" /><path clip-path="url(#clip680)" d="M195.589 1015.39 L203.228 1015.39 L203.228 989.025 L194.918 990.692 L194.918 986.433 L203.182 984.766 L207.857 984.766 L207.857 1015.39 L215.496 1015.39 L215.496 1019.33 L195.589 1019.33 L195.589 1015.39 Z" fill="#000000" fill-rule="evenodd" fill-opacity="1" /><path clip-path="url(#clip680)" d="M159.918 873.553 Q156.307 873.553 154.478 877.118 Q152.673 880.659 152.673 887.789 Q152.673 894.895 154.478 898.46 Q156.307 902.002 159.918 902.002 Q163.552 902.002 165.358 898.46 Q167.186 894.895 167.186 887.789 Q167.186 880.659 165.358 877.118 Q163.552 873.553 159.918 873.553 M159.918 869.849 Q165.728 869.849 168.784 874.456 Q171.862 879.039 171.862 887.789 Q171.862 896.516 168.784 901.122 Q165.728 905.706 159.918 905.706 Q154.108 905.706 151.029 901.122 Q147.974 896.516 147.974 887.789 Q147.974 879.039 151.029 874.456 Q154.108 869.849 159.918 869.849 Z" fill="#000000" fill-rule="evenodd" fill-opacity="1" /><path clip-path="url(#clip680)" d="M180.08 899.155 L184.964 899.155 L184.964 905.034 L180.08 905.034 L180.08 899.155 Z" fill="#000000" fill-rule="evenodd" fill-opacity="1" /><path clip-path="url(#clip680)" d="M199.177 901.099 L215.496 901.099 L215.496 905.034 L193.552 905.034 L193.552 901.099 Q196.214 898.345 200.797 893.715 Q205.404 889.062 206.584 887.72 Q208.83 885.196 209.709 883.46 Q210.612 881.701 210.612 880.011 Q210.612 877.257 208.668 875.521 Q206.746 873.784 203.645 873.784 Q201.445 873.784 198.992 874.548 Q196.561 875.312 193.783 876.863 L193.783 872.141 Q196.608 871.007 199.061 870.428 Q201.515 869.849 203.552 869.849 Q208.922 869.849 212.117 872.534 Q215.311 875.22 215.311 879.71 Q215.311 881.84 214.501 883.761 Q213.714 885.659 211.607 888.252 Q211.029 888.923 207.927 892.141 Q204.825 895.335 199.177 901.099 Z" fill="#000000" fill-rule="evenodd" fill-opacity="1" /><path clip-path="url(#clip680)" d="M158.969 759.261 Q155.358 759.261 153.529 762.826 Q151.724 766.368 151.724 773.497 Q151.724 780.604 153.529 784.169 Q155.358 787.71 158.969 787.71 Q162.603 787.71 164.409 784.169 Q166.237 780.604 166.237 773.497 Q166.237 766.368 164.409 762.826 Q162.603 759.261 158.969 759.261 M158.969 755.558 Q164.779 755.558 167.835 760.164 Q170.913 764.747 170.913 773.497 Q170.913 782.224 167.835 786.831 Q164.779 791.414 158.969 791.414 Q153.159 791.414 150.08 786.831 Q147.024 782.224 147.024 773.497 Q147.024 764.747 150.08 760.164 Q153.159 755.558 158.969 755.558 Z" fill="#000000" fill-rule="evenodd" fill-opacity="1" /><path clip-path="url(#clip680)" d="M179.131 784.863 L184.015 784.863 L184.015 790.743 L179.131 790.743 L179.131 784.863 Z" fill="#000000" fill-rule="evenodd" fill-opacity="1" /><path clip-path="url(#clip680)" d="M208.367 772.108 Q211.723 772.826 213.598 775.095 Q215.496 777.363 215.496 780.696 Q215.496 785.812 211.978 788.613 Q208.459 791.414 201.978 791.414 Q199.802 791.414 197.487 790.974 Q195.196 790.557 192.742 789.701 L192.742 785.187 Q194.686 786.321 197.001 786.9 Q199.316 787.479 201.839 787.479 Q206.237 787.479 208.529 785.743 Q210.844 784.007 210.844 780.696 Q210.844 777.641 208.691 775.928 Q206.561 774.192 202.742 774.192 L198.714 774.192 L198.714 770.349 L202.927 770.349 Q206.376 770.349 208.205 768.983 Q210.033 767.595 210.033 765.002 Q210.033 762.34 208.135 760.928 Q206.26 759.493 202.742 759.493 Q200.82 759.493 198.621 759.909 Q196.422 760.326 193.783 761.206 L193.783 757.039 Q196.445 756.298 198.76 755.928 Q201.098 755.558 203.158 755.558 Q208.482 755.558 211.584 757.988 Q214.686 760.396 214.686 764.516 Q214.686 767.386 213.043 769.377 Q211.399 771.345 208.367 772.108 Z" fill="#000000" fill-rule="evenodd" fill-opacity="1" /><path clip-path="url(#clip680)" d="M49.5639 899.593 L67.4197 899.593 L67.4197 891.508 Q67.4197 887.02 65.0962 884.569 Q62.7727 882.119 58.4758 882.119 Q54.2108 882.119 51.8873 884.569 Q49.5639 887.02 49.5639 891.508 L49.5639 899.593 M44.2803 906.022 L44.2803 891.508 Q44.2803 883.519 47.9088 879.445 Q51.5054 875.339 58.4758 875.339 Q65.51 875.339 69.1066 879.445 Q72.7032 883.519 72.7032 891.508 L72.7032 899.593 L91.8003 899.593 L91.8003 906.022 L44.2803 906.022 Z" fill="#000000" fill-rule="evenodd" fill-opacity="1" /><polyline clip-path="url(#clip683)" style="stroke:#009af9; stroke-linecap:round; stroke-linejoin:round; stroke-width:4; stroke-opacity:1; fill:none" points="
  323.315,1116.34 484.025,665.023 805.445,722.197 1126.87,747.508 1448.29,766.761 1769.71,792.234 2091.13,839.263 2412.55,942.564 
  "/>
<circle clip-path="url(#clip683)" cx="323.315" cy="1116.34" r="14.4" fill="#009af9" fill-rule="evenodd" fill-opacity="1" stroke="#000000" stroke-opacity="1" stroke-width="3.84"/>
<circle clip-path="url(#clip683)" cx="484.025" cy="665.023" r="14.4" fill="#009af9" fill-rule="evenodd" fill-opacity="1" stroke="#000000" stroke-opacity="1" stroke-width="3.84"/>
<circle clip-path="url(#clip683)" cx="805.445" cy="722.197" r="14.4" fill="#009af9" fill-rule="evenodd" fill-opacity="1" stroke="#000000" stroke-opacity="1" stroke-width="3.84"/>
<circle clip-path="url(#clip683)" cx="1126.87" cy="747.508" r="14.4" fill="#009af9" fill-rule="evenodd" fill-opacity="1" stroke="#000000" stroke-opacity="1" stroke-width="3.84"/>
<circle clip-path="url(#clip683)" cx="1448.29" cy="766.761" r="14.4" fill="#009af9" fill-rule="evenodd" fill-opacity="1" stroke="#000000" stroke-opacity="1" stroke-width="3.84"/>
<circle clip-path="url(#clip683)" cx="1769.71" cy="792.234" r="14.4" fill="#009af9" fill-rule="evenodd" fill-opacity="1" stroke="#000000" stroke-opacity="1" stroke-width="3.84"/>
<circle clip-path="url(#clip683)" cx="2091.13" cy="839.263" r="14.4" fill="#009af9" fill-rule="evenodd" fill-opacity="1" stroke="#000000" stroke-opacity="1" stroke-width="3.84"/>
<circle clip-path="url(#clip683)" cx="2412.55" cy="942.564" r="14.4" fill="#009af9" fill-rule="evenodd" fill-opacity="1" stroke="#000000" stroke-opacity="1" stroke-width="3.84"/>
<path clip-path="url(#clip680)" d="
M2270.7 1101.29 L2561.26 1101.29 L2561.26 997.614 L2270.7 997.614  Z
  " fill="#ffffff" fill-rule="evenodd" fill-opacity="1"/>
<polyline clip-path="url(#clip680)" style="stroke:#000000; stroke-linecap:round; stroke-linejoin:round; stroke-width:4; stroke-opacity:1; fill:none" points="
  2270.7,1101.29 2561.26,1101.29 2561.26,997.614 2270.7,997.614 2270.7,1101.29 
  "/>
<polyline clip-path="url(#clip680)" style="stroke:#009af9; stroke-linecap:round; stroke-linejoin:round; stroke-width:4; stroke-opacity:1; fill:none" points="
  2297.2,1049.45 2456.2,1049.45 
  "/>
<circle clip-path="url(#clip680)" cx="2376.7" cy="1049.45" r="22.0828" fill="#009af9" fill-rule="evenodd" fill-opacity="1" stroke="#000000" stroke-opacity="1" stroke-width="6.144"/>
<path clip-path="url(#clip680)" d="M2496.54 1069.14 Q2494.74 1073.77 2493.02 1075.18 Q2491.31 1076.6 2488.44 1076.6 L2485.04 1076.6 L2485.04 1073.03 L2487.54 1073.03 Q2489.3 1073.03 2490.27 1072.2 Q2491.24 1071.36 2492.42 1068.26 L2493.18 1066.32 L2482.7 1040.81 L2487.21 1040.81 L2495.31 1061.09 L2503.42 1040.81 L2507.93 1040.81 L2496.54 1069.14 Z" fill="#000000" fill-rule="evenodd" fill-opacity="1" /><path clip-path="url(#clip680)" d="M2518.44 1062.8 L2534.76 1062.8 L2534.76 1066.73 L2512.81 1066.73 L2512.81 1062.8 Q2515.48 1060.04 2520.06 1055.41 Q2524.67 1050.76 2525.85 1049.42 Q2528.09 1046.9 2528.97 1045.16 Q2529.87 1043.4 2529.87 1041.71 Q2529.87 1038.96 2527.93 1037.22 Q2526.01 1035.48 2522.91 1035.48 Q2520.71 1035.48 2518.25 1036.25 Q2515.82 1037.01 2513.05 1038.56 L2513.05 1033.84 Q2515.87 1032.71 2518.32 1032.13 Q2520.78 1031.55 2522.81 1031.55 Q2528.18 1031.55 2531.38 1034.23 Q2534.57 1036.92 2534.57 1041.41 Q2534.57 1043.54 2533.76 1045.46 Q2532.98 1047.36 2530.87 1049.95 Q2530.29 1050.62 2527.19 1053.84 Q2524.09 1057.03 2518.44 1062.8 Z" fill="#000000" fill-rule="evenodd" fill-opacity="1" /><path clip-path="url(#clip680)" d="
M255.816 1734.12 L2640.76 1734.12 L2640.76 1282.8 L255.816 1282.8  Z
  " fill="#ffffff" fill-rule="evenodd" fill-opacity="1"/>
<defs>
  <clipPath id="clip684">
    <rect x="255" y="1282" width="2386" height="452"/>
  </clipPath>
</defs>
<polyline clip-path="url(#clip680)" style="stroke:#000000; stroke-linecap:round; stroke-linejoin:round; stroke-width:4; stroke-opacity:1; fill:none" points="
  255.816,1734.12 2640.76,1734.12 
  "/>
<polyline clip-path="url(#clip680)" style="stroke:#000000; stroke-linecap:round; stroke-linejoin:round; stroke-width:4; stroke-opacity:1; fill:none" points="
  323.315,1734.12 323.315,1715.22 
  "/>
<polyline clip-path="url(#clip680)" style="stroke:#000000; stroke-linecap:round; stroke-linejoin:round; stroke-width:4; stroke-opacity:1; fill:none" points="
  966.155,1734.12 966.155,1715.22 
  "/>
<polyline clip-path="url(#clip680)" style="stroke:#000000; stroke-linecap:round; stroke-linejoin:round; stroke-width:4; stroke-opacity:1; fill:none" points="
  1609,1734.12 1609,1715.22 
  "/>
<polyline clip-path="url(#clip680)" style="stroke:#000000; stroke-linecap:round; stroke-linejoin:round; stroke-width:4; stroke-opacity:1; fill:none" points="
  2251.84,1734.12 2251.84,1715.22 
  "/>
<path clip-path="url(#clip680)" d="M323.315 1767.34 Q319.704 1767.34 317.875 1770.9 Q316.069 1774.45 316.069 1781.58 Q316.069 1788.68 317.875 1792.25 Q319.704 1795.79 323.315 1795.79 Q326.949 1795.79 328.754 1792.25 Q330.583 1788.68 330.583 1781.58 Q330.583 1774.45 328.754 1770.9 Q326.949 1767.34 323.315 1767.34 M323.315 1763.64 Q329.125 1763.64 332.18 1768.24 Q335.259 1772.83 335.259 1781.58 Q335.259 1790.3 332.18 1794.91 Q329.125 1799.49 323.315 1799.49 Q317.504 1799.49 314.426 1794.91 Q311.37 1790.3 311.37 1781.58 Q311.37 1772.83 314.426 1768.24 Q317.504 1763.64 323.315 1763.64 Z" fill="#000000" fill-rule="evenodd" fill-opacity="1" /><path clip-path="url(#clip680)" d="M960.808 1794.89 L977.128 1794.89 L977.128 1798.82 L955.183 1798.82 L955.183 1794.89 Q957.845 1792.13 962.429 1787.5 Q967.035 1782.85 968.216 1781.51 Q970.461 1778.98 971.341 1777.25 Q972.243 1775.49 972.243 1773.8 Q972.243 1771.04 970.299 1769.31 Q968.378 1767.57 965.276 1767.57 Q963.077 1767.57 960.623 1768.34 Q958.193 1769.1 955.415 1770.65 L955.415 1765.93 Q958.239 1764.79 960.693 1764.21 Q963.146 1763.64 965.183 1763.64 Q970.554 1763.64 973.748 1766.32 Q976.942 1769.01 976.942 1773.5 Q976.942 1775.63 976.132 1777.55 Q975.345 1779.45 973.239 1782.04 Q972.66 1782.71 969.558 1785.93 Q966.456 1789.12 960.808 1794.89 Z" fill="#000000" fill-rule="evenodd" fill-opacity="1" /><path clip-path="url(#clip680)" d="M1612.01 1768.34 L1600.2 1786.78 L1612.01 1786.78 L1612.01 1768.34 M1610.78 1764.26 L1616.66 1764.26 L1616.66 1786.78 L1621.59 1786.78 L1621.59 1790.67 L1616.66 1790.67 L1616.66 1798.82 L1612.01 1798.82 L1612.01 1790.67 L1596.4 1790.67 L1596.4 1786.16 L1610.78 1764.26 Z" fill="#000000" fill-rule="evenodd" fill-opacity="1" /><path clip-path="url(#clip680)" d="M2252.24 1779.68 Q2249.09 1779.68 2247.24 1781.83 Q2245.41 1783.98 2245.41 1787.73 Q2245.41 1791.46 2247.24 1793.64 Q2249.09 1795.79 2252.24 1795.79 Q2255.39 1795.79 2257.22 1793.64 Q2259.07 1791.46 2259.07 1787.73 Q2259.07 1783.98 2257.22 1781.83 Q2255.39 1779.68 2252.24 1779.68 M2261.52 1765.02 L2261.52 1769.28 Q2259.77 1768.45 2257.96 1768.01 Q2256.18 1767.57 2254.42 1767.57 Q2249.79 1767.57 2247.33 1770.7 Q2244.9 1773.82 2244.56 1780.14 Q2245.92 1778.13 2247.98 1777.06 Q2250.04 1775.97 2252.52 1775.97 Q2257.73 1775.97 2260.74 1779.15 Q2263.77 1782.29 2263.77 1787.73 Q2263.77 1793.06 2260.62 1796.27 Q2257.47 1799.49 2252.24 1799.49 Q2246.25 1799.49 2243.08 1794.91 Q2239.9 1790.3 2239.9 1781.58 Q2239.9 1773.38 2243.79 1768.52 Q2247.68 1763.64 2254.23 1763.64 Q2255.99 1763.64 2257.77 1763.98 Q2259.58 1764.33 2261.52 1765.02 Z" fill="#000000" fill-rule="evenodd" fill-opacity="1" /><path clip-path="url(#clip680)" d="M1269.25 1837.34 L1269.25 1843.61 Q1265.59 1841.86 1262.34 1841 Q1259.1 1840.14 1256.07 1840.14 Q1250.82 1840.14 1247.96 1842.18 Q1245.12 1844.22 1245.12 1847.97 Q1245.12 1851.12 1247 1852.75 Q1248.91 1854.34 1254.2 1855.32 L1258.08 1856.12 Q1265.27 1857.49 1268.68 1860.96 Q1272.12 1864.39 1272.12 1870.19 Q1272.12 1877.09 1267.47 1880.66 Q1262.85 1884.22 1253.91 1884.22 Q1250.54 1884.22 1246.72 1883.46 Q1242.93 1882.7 1238.85 1881.2 L1238.85 1874.58 Q1242.77 1876.78 1246.53 1877.89 Q1250.28 1879 1253.91 1879 Q1259.42 1879 1262.41 1876.84 Q1265.4 1874.68 1265.4 1870.67 Q1265.4 1867.16 1263.24 1865.19 Q1261.1 1863.22 1256.2 1862.23 L1252.29 1861.47 Q1245.09 1860.03 1241.88 1856.98 Q1238.66 1853.92 1238.66 1848.48 Q1238.66 1842.18 1243.09 1838.55 Q1247.54 1834.92 1255.34 1834.92 Q1258.68 1834.92 1262.15 1835.53 Q1265.62 1836.13 1269.25 1837.34 Z" fill="#000000" fill-rule="evenodd" fill-opacity="1" /><path clip-path="url(#clip680)" d="M1287.68 1837.53 L1287.68 1847.65 L1299.74 1847.65 L1299.74 1852.2 L1287.68 1852.2 L1287.68 1871.56 Q1287.68 1875.92 1288.86 1877.16 Q1290.07 1878.4 1293.73 1878.4 L1299.74 1878.4 L1299.74 1883.3 L1293.73 1883.3 Q1286.95 1883.3 1284.37 1880.79 Q1281.79 1878.24 1281.79 1871.56 L1281.79 1852.2 L1277.49 1852.2 L1277.49 1847.65 L1281.79 1847.65 L1281.79 1837.53 L1287.68 1837.53 Z" fill="#000000" fill-rule="evenodd" fill-opacity="1" /><path clip-path="url(#clip680)" d="M1337.94 1864.01 L1337.94 1866.88 L1311.01 1866.88 Q1311.39 1872.92 1314.64 1876.11 Q1317.92 1879.26 1323.74 1879.26 Q1327.11 1879.26 1330.27 1878.43 Q1333.45 1877.6 1336.57 1875.95 L1336.57 1881.49 Q1333.42 1882.82 1330.11 1883.52 Q1326.8 1884.22 1323.39 1884.22 Q1314.86 1884.22 1309.86 1879.26 Q1304.9 1874.29 1304.9 1865.83 Q1304.9 1857.07 1309.61 1851.95 Q1314.35 1846.79 1322.37 1846.79 Q1329.57 1846.79 1333.74 1851.44 Q1337.94 1856.06 1337.94 1864.01 M1332.08 1862.29 Q1332.02 1857.49 1329.37 1854.62 Q1326.76 1851.76 1322.44 1851.76 Q1317.53 1851.76 1314.57 1854.53 Q1311.65 1857.3 1311.2 1862.33 L1332.08 1862.29 Z" fill="#000000" fill-rule="evenodd" fill-opacity="1" /><path clip-path="url(#clip680)" d="M1353.21 1877.95 L1353.21 1896.86 L1347.33 1896.86 L1347.33 1847.65 L1353.21 1847.65 L1353.21 1853.06 Q1355.06 1849.88 1357.86 1848.35 Q1360.69 1846.79 1364.61 1846.79 Q1371.1 1846.79 1375.14 1851.95 Q1379.22 1857.11 1379.22 1865.51 Q1379.22 1873.91 1375.14 1879.07 Q1371.1 1884.22 1364.61 1884.22 Q1360.69 1884.22 1357.86 1882.7 Q1355.06 1881.14 1353.21 1877.95 M1373.14 1865.51 Q1373.14 1859.05 1370.47 1855.39 Q1367.82 1851.7 1363.18 1851.7 Q1358.53 1851.7 1355.86 1855.39 Q1353.21 1859.05 1353.21 1865.51 Q1353.21 1871.97 1355.86 1875.66 Q1358.53 1879.32 1363.18 1879.32 Q1367.82 1879.32 1370.47 1875.66 Q1373.14 1871.97 1373.14 1865.51 Z" fill="#000000" fill-rule="evenodd" fill-opacity="1" /><path clip-path="url(#clip680)" d="M1439.28 1861.78 L1439.28 1883.3 L1433.42 1883.3 L1433.42 1861.98 Q1433.42 1856.92 1431.45 1854.4 Q1429.48 1851.89 1425.53 1851.89 Q1420.79 1851.89 1418.05 1854.91 Q1415.31 1857.93 1415.31 1863.15 L1415.31 1883.3 L1409.42 1883.3 L1409.42 1847.65 L1415.31 1847.65 L1415.31 1853.19 Q1417.41 1849.98 1420.25 1848.39 Q1423.11 1846.79 1426.83 1846.79 Q1432.98 1846.79 1436.13 1850.61 Q1439.28 1854.4 1439.28 1861.78 Z" fill="#000000" fill-rule="evenodd" fill-opacity="1" /><path clip-path="url(#clip680)" d="M1450.35 1869.23 L1450.35 1847.65 L1456.21 1847.65 L1456.21 1869.01 Q1456.21 1874.07 1458.18 1876.62 Q1460.16 1879.13 1464.1 1879.13 Q1468.85 1879.13 1471.58 1876.11 Q1474.35 1873.08 1474.35 1867.86 L1474.35 1847.65 L1480.21 1847.65 L1480.21 1883.3 L1474.35 1883.3 L1474.35 1877.83 Q1472.22 1881.07 1469.39 1882.66 Q1466.59 1884.22 1462.86 1884.22 Q1456.72 1884.22 1453.54 1880.4 Q1450.35 1876.59 1450.35 1869.23 M1465.09 1846.79 L1465.09 1846.79 Z" fill="#000000" fill-rule="evenodd" fill-opacity="1" /><path clip-path="url(#clip680)" d="M1520.03 1854.5 Q1522.22 1850.55 1525.28 1848.67 Q1528.33 1846.79 1532.47 1846.79 Q1538.04 1846.79 1541.07 1850.71 Q1544.09 1854.59 1544.09 1861.78 L1544.09 1883.3 L1538.2 1883.3 L1538.2 1861.98 Q1538.2 1856.85 1536.39 1854.37 Q1534.57 1851.89 1530.85 1851.89 Q1526.3 1851.89 1523.66 1854.91 Q1521.01 1857.93 1521.01 1863.15 L1521.01 1883.3 L1515.13 1883.3 L1515.13 1861.98 Q1515.13 1856.82 1513.31 1854.37 Q1511.5 1851.89 1507.71 1851.89 Q1503.22 1851.89 1500.58 1854.94 Q1497.94 1857.97 1497.94 1863.15 L1497.94 1883.3 L1492.05 1883.3 L1492.05 1847.65 L1497.94 1847.65 L1497.94 1853.19 Q1499.94 1849.91 1502.74 1848.35 Q1505.55 1846.79 1509.4 1846.79 Q1513.28 1846.79 1515.99 1848.77 Q1518.72 1850.74 1520.03 1854.5 Z" fill="#000000" fill-rule="evenodd" fill-opacity="1" /><path clip-path="url(#clip680)" d="M1581.36 1865.51 Q1581.36 1859.05 1578.69 1855.39 Q1576.05 1851.7 1571.4 1851.7 Q1566.75 1851.7 1564.08 1855.39 Q1561.44 1859.05 1561.44 1865.51 Q1561.44 1871.97 1564.08 1875.66 Q1566.75 1879.32 1571.4 1879.32 Q1576.05 1879.32 1578.69 1875.66 Q1581.36 1871.97 1581.36 1865.51 M1561.44 1853.06 Q1563.28 1849.88 1566.08 1848.35 Q1568.92 1846.79 1572.83 1846.79 Q1579.32 1846.79 1583.37 1851.95 Q1587.44 1857.11 1587.44 1865.51 Q1587.44 1873.91 1583.37 1879.07 Q1579.32 1884.22 1572.83 1884.22 Q1568.92 1884.22 1566.08 1882.7 Q1563.28 1881.14 1561.44 1877.95 L1561.44 1883.3 L1555.55 1883.3 L1555.55 1833.78 L1561.44 1833.78 L1561.44 1853.06 Z" fill="#000000" fill-rule="evenodd" fill-opacity="1" /><path clip-path="url(#clip680)" d="M1627.64 1864.01 L1627.64 1866.88 L1600.71 1866.88 Q1601.09 1872.92 1604.34 1876.11 Q1607.62 1879.26 1613.44 1879.26 Q1616.82 1879.26 1619.97 1878.43 Q1623.15 1877.6 1626.27 1875.95 L1626.27 1881.49 Q1623.12 1882.82 1619.81 1883.52 Q1616.5 1884.22 1613.09 1884.22 Q1604.56 1884.22 1599.57 1879.26 Q1594.6 1874.29 1594.6 1865.83 Q1594.6 1857.07 1599.31 1851.95 Q1604.05 1846.79 1612.08 1846.79 Q1619.27 1846.79 1623.44 1851.44 Q1627.64 1856.06 1627.64 1864.01 M1621.78 1862.29 Q1621.72 1857.49 1619.08 1854.62 Q1616.47 1851.76 1612.14 1851.76 Q1607.24 1851.76 1604.28 1854.53 Q1601.35 1857.3 1600.9 1862.33 L1621.78 1862.29 Z" fill="#000000" fill-rule="evenodd" fill-opacity="1" /><path clip-path="url(#clip680)" d="M1657.91 1853.13 Q1656.92 1852.55 1655.74 1852.3 Q1654.6 1852.01 1653.2 1852.01 Q1648.23 1852.01 1645.56 1855.26 Q1642.92 1858.47 1642.92 1864.52 L1642.92 1883.3 L1637.03 1883.3 L1637.03 1847.65 L1642.92 1847.65 L1642.92 1853.19 Q1644.76 1849.94 1647.72 1848.39 Q1650.68 1846.79 1654.92 1846.79 Q1655.52 1846.79 1656.25 1846.89 Q1656.99 1846.95 1657.88 1847.11 L1657.91 1853.13 Z" fill="#000000" fill-rule="evenodd" fill-opacity="1" /><polyline clip-path="url(#clip680)" style="stroke:#000000; stroke-linecap:round; stroke-linejoin:round; stroke-width:4; stroke-opacity:1; fill:none" points="
  255.816,1734.12 255.816,1282.8 
  "/>
<polyline clip-path="url(#clip680)" style="stroke:#000000; stroke-linecap:round; stroke-linejoin:round; stroke-width:4; stroke-opacity:1; fill:none" points="
  255.816,1721.34 274.714,1721.34 
  "/>
<polyline clip-path="url(#clip680)" style="stroke:#000000; stroke-linecap:round; stroke-linejoin:round; stroke-width:4; stroke-opacity:1; fill:none" points="
  255.816,1614.9 274.714,1614.9 
  "/>
<polyline clip-path="url(#clip680)" style="stroke:#000000; stroke-linecap:round; stroke-linejoin:round; stroke-width:4; stroke-opacity:1; fill:none" points="
  255.816,1508.46 274.714,1508.46 
  "/>
<polyline clip-path="url(#clip680)" style="stroke:#000000; stroke-linecap:round; stroke-linejoin:round; stroke-width:4; stroke-opacity:1; fill:none" points="
  255.816,1402.02 274.714,1402.02 
  "/>
<polyline clip-path="url(#clip680)" style="stroke:#000000; stroke-linecap:round; stroke-linejoin:round; stroke-width:4; stroke-opacity:1; fill:none" points="
  255.816,1295.58 274.714,1295.58 
  "/>
<path clip-path="url(#clip680)" d="M128.159 1707.14 Q124.548 1707.14 122.719 1710.71 Q120.913 1714.25 120.913 1721.38 Q120.913 1728.49 122.719 1732.05 Q124.548 1735.59 128.159 1735.59 Q131.793 1735.59 133.599 1732.05 Q135.427 1728.49 135.427 1721.38 Q135.427 1714.25 133.599 1710.71 Q131.793 1707.14 128.159 1707.14 M128.159 1703.44 Q133.969 1703.44 137.025 1708.05 Q140.103 1712.63 140.103 1721.38 Q140.103 1730.11 137.025 1734.71 Q133.969 1739.3 128.159 1739.3 Q122.349 1739.3 119.27 1734.71 Q116.214 1730.11 116.214 1721.38 Q116.214 1712.63 119.27 1708.05 Q122.349 1703.44 128.159 1703.44 Z" fill="#000000" fill-rule="evenodd" fill-opacity="1" /><path clip-path="url(#clip680)" d="M148.321 1732.74 L153.205 1732.74 L153.205 1738.62 L148.321 1738.62 L148.321 1732.74 Z" fill="#000000" fill-rule="evenodd" fill-opacity="1" /><path clip-path="url(#clip680)" d="M173.39 1707.14 Q169.779 1707.14 167.95 1710.71 Q166.145 1714.25 166.145 1721.38 Q166.145 1728.49 167.95 1732.05 Q169.779 1735.59 173.39 1735.59 Q177.024 1735.59 178.83 1732.05 Q180.659 1728.49 180.659 1721.38 Q180.659 1714.25 178.83 1710.71 Q177.024 1707.14 173.39 1707.14 M173.39 1703.44 Q179.2 1703.44 182.256 1708.05 Q185.334 1712.63 185.334 1721.38 Q185.334 1730.11 182.256 1734.71 Q179.2 1739.3 173.39 1739.3 Q167.58 1739.3 164.501 1734.71 Q161.446 1730.11 161.446 1721.38 Q161.446 1712.63 164.501 1708.05 Q167.58 1703.44 173.39 1703.44 Z" fill="#000000" fill-rule="evenodd" fill-opacity="1" /><path clip-path="url(#clip680)" d="M203.552 1707.14 Q199.941 1707.14 198.112 1710.71 Q196.307 1714.25 196.307 1721.38 Q196.307 1728.49 198.112 1732.05 Q199.941 1735.59 203.552 1735.59 Q207.186 1735.59 208.992 1732.05 Q210.82 1728.49 210.82 1721.38 Q210.82 1714.25 208.992 1710.71 Q207.186 1707.14 203.552 1707.14 M203.552 1703.44 Q209.362 1703.44 212.418 1708.05 Q215.496 1712.63 215.496 1721.38 Q215.496 1730.11 212.418 1734.71 Q209.362 1739.3 203.552 1739.3 Q197.742 1739.3 194.663 1734.71 Q191.608 1730.11 191.608 1721.38 Q191.608 1712.63 194.663 1708.05 Q197.742 1703.44 203.552 1703.44 Z" fill="#000000" fill-rule="evenodd" fill-opacity="1" /><path clip-path="url(#clip680)" d="M129.154 1600.7 Q125.543 1600.7 123.714 1604.27 Q121.909 1607.81 121.909 1614.94 Q121.909 1622.04 123.714 1625.61 Q125.543 1629.15 129.154 1629.15 Q132.788 1629.15 134.594 1625.61 Q136.423 1622.04 136.423 1614.94 Q136.423 1607.81 134.594 1604.27 Q132.788 1600.7 129.154 1600.7 M129.154 1597 Q134.964 1597 138.02 1601.6 Q141.099 1606.19 141.099 1614.94 Q141.099 1623.66 138.02 1628.27 Q134.964 1632.85 129.154 1632.85 Q123.344 1632.85 120.265 1628.27 Q117.21 1623.66 117.21 1614.94 Q117.21 1606.19 120.265 1601.6 Q123.344 1597 129.154 1597 Z" fill="#000000" fill-rule="evenodd" fill-opacity="1" /><path clip-path="url(#clip680)" d="M149.316 1626.3 L154.2 1626.3 L154.2 1632.18 L149.316 1632.18 L149.316 1626.3 Z" fill="#000000" fill-rule="evenodd" fill-opacity="1" /><path clip-path="url(#clip680)" d="M168.413 1628.25 L184.733 1628.25 L184.733 1632.18 L162.788 1632.18 L162.788 1628.25 Q165.45 1625.49 170.034 1620.86 Q174.64 1616.21 175.821 1614.87 Q178.066 1612.34 178.946 1610.61 Q179.848 1608.85 179.848 1607.16 Q179.848 1604.4 177.904 1602.67 Q175.983 1600.93 172.881 1600.93 Q170.682 1600.93 168.228 1601.7 Q165.798 1602.46 163.02 1604.01 L163.02 1599.29 Q165.844 1598.15 168.297 1597.58 Q170.751 1597 172.788 1597 Q178.159 1597 181.353 1599.68 Q184.547 1602.37 184.547 1606.86 Q184.547 1608.99 183.737 1610.91 Q182.95 1612.81 180.844 1615.4 Q180.265 1616.07 177.163 1619.29 Q174.061 1622.48 168.413 1628.25 Z" fill="#000000" fill-rule="evenodd" fill-opacity="1" /><path clip-path="url(#clip680)" d="M194.594 1597.62 L212.95 1597.62 L212.95 1601.56 L198.876 1601.56 L198.876 1610.03 Q199.895 1609.68 200.913 1609.52 Q201.932 1609.33 202.95 1609.33 Q208.737 1609.33 212.117 1612.51 Q215.496 1615.68 215.496 1621.09 Q215.496 1626.67 212.024 1629.77 Q208.552 1632.85 202.233 1632.85 Q200.057 1632.85 197.788 1632.48 Q195.543 1632.11 193.135 1631.37 L193.135 1626.67 Q195.219 1627.81 197.441 1628.36 Q199.663 1628.92 202.14 1628.92 Q206.145 1628.92 208.482 1626.81 Q210.82 1624.71 210.82 1621.09 Q210.82 1617.48 208.482 1615.38 Q206.145 1613.27 202.14 1613.27 Q200.265 1613.27 198.39 1613.69 Q196.538 1614.1 194.594 1614.98 L194.594 1597.62 Z" fill="#000000" fill-rule="evenodd" fill-opacity="1" /><path clip-path="url(#clip680)" d="M128.159 1494.26 Q124.548 1494.26 122.719 1497.82 Q120.913 1501.36 120.913 1508.49 Q120.913 1515.6 122.719 1519.17 Q124.548 1522.71 128.159 1522.71 Q131.793 1522.71 133.599 1519.17 Q135.427 1515.6 135.427 1508.49 Q135.427 1501.36 133.599 1497.82 Q131.793 1494.26 128.159 1494.26 M128.159 1490.55 Q133.969 1490.55 137.025 1495.16 Q140.103 1499.74 140.103 1508.49 Q140.103 1517.22 137.025 1521.83 Q133.969 1526.41 128.159 1526.41 Q122.349 1526.41 119.27 1521.83 Q116.214 1517.22 116.214 1508.49 Q116.214 1499.74 119.27 1495.16 Q122.349 1490.55 128.159 1490.55 Z" fill="#000000" fill-rule="evenodd" fill-opacity="1" /><path clip-path="url(#clip680)" d="M148.321 1519.86 L153.205 1519.86 L153.205 1525.74 L148.321 1525.74 L148.321 1519.86 Z" fill="#000000" fill-rule="evenodd" fill-opacity="1" /><path clip-path="url(#clip680)" d="M163.436 1491.18 L181.793 1491.18 L181.793 1495.11 L167.719 1495.11 L167.719 1503.59 Q168.737 1503.24 169.756 1503.08 Q170.774 1502.89 171.793 1502.89 Q177.58 1502.89 180.959 1506.06 Q184.339 1509.24 184.339 1514.65 Q184.339 1520.23 180.867 1523.33 Q177.395 1526.41 171.075 1526.41 Q168.899 1526.41 166.631 1526.04 Q164.385 1525.67 161.978 1524.93 L161.978 1520.23 Q164.061 1521.36 166.284 1521.92 Q168.506 1522.48 170.983 1522.48 Q174.987 1522.48 177.325 1520.37 Q179.663 1518.26 179.663 1514.65 Q179.663 1511.04 177.325 1508.93 Q174.987 1506.83 170.983 1506.83 Q169.108 1506.83 167.233 1507.24 Q165.381 1507.66 163.436 1508.54 L163.436 1491.18 Z" fill="#000000" fill-rule="evenodd" fill-opacity="1" /><path clip-path="url(#clip680)" d="M203.552 1494.26 Q199.941 1494.26 198.112 1497.82 Q196.307 1501.36 196.307 1508.49 Q196.307 1515.6 198.112 1519.17 Q199.941 1522.71 203.552 1522.71 Q207.186 1522.71 208.992 1519.17 Q210.82 1515.6 210.82 1508.49 Q210.82 1501.36 208.992 1497.82 Q207.186 1494.26 203.552 1494.26 M203.552 1490.55 Q209.362 1490.55 212.418 1495.16 Q215.496 1499.74 215.496 1508.49 Q215.496 1517.22 212.418 1521.83 Q209.362 1526.41 203.552 1526.41 Q197.742 1526.41 194.663 1521.83 Q191.608 1517.22 191.608 1508.49 Q191.608 1499.74 194.663 1495.16 Q197.742 1490.55 203.552 1490.55 Z" fill="#000000" fill-rule="evenodd" fill-opacity="1" /><path clip-path="url(#clip680)" d="M129.154 1387.82 Q125.543 1387.82 123.714 1391.38 Q121.909 1394.92 121.909 1402.05 Q121.909 1409.16 123.714 1412.72 Q125.543 1416.27 129.154 1416.27 Q132.788 1416.27 134.594 1412.72 Q136.423 1409.16 136.423 1402.05 Q136.423 1394.92 134.594 1391.38 Q132.788 1387.82 129.154 1387.82 M129.154 1384.11 Q134.964 1384.11 138.02 1388.72 Q141.099 1393.3 141.099 1402.05 Q141.099 1410.78 138.02 1415.39 Q134.964 1419.97 129.154 1419.97 Q123.344 1419.97 120.265 1415.39 Q117.21 1410.78 117.21 1402.05 Q117.21 1393.3 120.265 1388.72 Q123.344 1384.11 129.154 1384.11 Z" fill="#000000" fill-rule="evenodd" fill-opacity="1" /><path clip-path="url(#clip680)" d="M149.316 1413.42 L154.2 1413.42 L154.2 1419.3 L149.316 1419.3 L149.316 1413.42 Z" fill="#000000" fill-rule="evenodd" fill-opacity="1" /><path clip-path="url(#clip680)" d="M163.205 1384.74 L185.427 1384.74 L185.427 1386.73 L172.881 1419.3 L167.997 1419.3 L179.802 1388.67 L163.205 1388.67 L163.205 1384.74 Z" fill="#000000" fill-rule="evenodd" fill-opacity="1" /><path clip-path="url(#clip680)" d="M194.594 1384.74 L212.95 1384.74 L212.95 1388.67 L198.876 1388.67 L198.876 1397.15 Q199.895 1396.8 200.913 1396.64 Q201.932 1396.45 202.95 1396.45 Q208.737 1396.45 212.117 1399.62 Q215.496 1402.79 215.496 1408.21 Q215.496 1413.79 212.024 1416.89 Q208.552 1419.97 202.233 1419.97 Q200.057 1419.97 197.788 1419.6 Q195.543 1419.23 193.135 1418.49 L193.135 1413.79 Q195.219 1414.92 197.441 1415.48 Q199.663 1416.03 202.14 1416.03 Q206.145 1416.03 208.482 1413.93 Q210.82 1411.82 210.82 1408.21 Q210.82 1404.6 208.482 1402.49 Q206.145 1400.39 202.14 1400.39 Q200.265 1400.39 198.39 1400.8 Q196.538 1401.22 194.594 1402.1 L194.594 1384.74 Z" fill="#000000" fill-rule="evenodd" fill-opacity="1" /><path clip-path="url(#clip680)" d="M118.969 1308.92 L126.608 1308.92 L126.608 1282.55 L118.298 1284.22 L118.298 1279.96 L126.562 1278.3 L131.238 1278.3 L131.238 1308.92 L138.876 1308.92 L138.876 1312.86 L118.969 1312.86 L118.969 1308.92 Z" fill="#000000" fill-rule="evenodd" fill-opacity="1" /><path clip-path="url(#clip680)" d="M148.321 1306.98 L153.205 1306.98 L153.205 1312.86 L148.321 1312.86 L148.321 1306.98 Z" fill="#000000" fill-rule="evenodd" fill-opacity="1" /><path clip-path="url(#clip680)" d="M173.39 1281.37 Q169.779 1281.37 167.95 1284.94 Q166.145 1288.48 166.145 1295.61 Q166.145 1302.72 167.95 1306.28 Q169.779 1309.82 173.39 1309.82 Q177.024 1309.82 178.83 1306.28 Q180.659 1302.72 180.659 1295.61 Q180.659 1288.48 178.83 1284.94 Q177.024 1281.37 173.39 1281.37 M173.39 1277.67 Q179.2 1277.67 182.256 1282.28 Q185.334 1286.86 185.334 1295.61 Q185.334 1304.34 182.256 1308.94 Q179.2 1313.53 173.39 1313.53 Q167.58 1313.53 164.501 1308.94 Q161.446 1304.34 161.446 1295.61 Q161.446 1286.86 164.501 1282.28 Q167.58 1277.67 173.39 1277.67 Z" fill="#000000" fill-rule="evenodd" fill-opacity="1" /><path clip-path="url(#clip680)" d="M203.552 1281.37 Q199.941 1281.37 198.112 1284.94 Q196.307 1288.48 196.307 1295.61 Q196.307 1302.72 198.112 1306.28 Q199.941 1309.82 203.552 1309.82 Q207.186 1309.82 208.992 1306.28 Q210.82 1302.72 210.82 1295.61 Q210.82 1288.48 208.992 1284.94 Q207.186 1281.37 203.552 1281.37 M203.552 1277.67 Q209.362 1277.67 212.418 1282.28 Q215.496 1286.86 215.496 1295.61 Q215.496 1304.34 212.418 1308.94 Q209.362 1313.53 203.552 1313.53 Q197.742 1313.53 194.663 1308.94 Q191.608 1304.34 191.608 1295.61 Q191.608 1286.86 194.663 1282.28 Q197.742 1277.67 203.552 1277.67 Z" fill="#000000" fill-rule="evenodd" fill-opacity="1" /><path clip-path="url(#clip680)" d="M14.1184 1732.36 L14.1184 1692.16 L19.5293 1692.16 L19.5293 1709.03 L61.6384 1709.03 L61.6384 1715.49 L19.5293 1715.49 L19.5293 1732.36 L14.1184 1732.36 Z" fill="#000000" fill-rule="evenodd" fill-opacity="1" /><path clip-path="url(#clip680)" d="M42.3504 1666.79 L45.2149 1666.79 L45.2149 1693.72 Q51.2623 1693.34 54.4452 1690.09 Q57.5962 1686.81 57.5962 1680.99 Q57.5962 1677.61 56.7687 1674.46 Q55.9411 1671.28 54.2861 1668.16 L59.8242 1668.16 Q61.161 1671.31 61.8612 1674.62 Q62.5615 1677.93 62.5615 1681.34 Q62.5615 1689.87 57.5962 1694.86 Q52.631 1699.83 44.1646 1699.83 Q35.4117 1699.83 30.2873 1695.12 Q25.1311 1690.38 25.1311 1682.35 Q25.1311 1675.16 29.7781 1670.99 Q34.3932 1666.79 42.3504 1666.79 M40.6316 1672.65 Q35.8255 1672.71 32.9609 1675.35 Q30.0964 1677.96 30.0964 1682.29 Q30.0964 1687.19 32.8654 1690.15 Q35.6345 1693.08 40.6634 1693.53 L40.6316 1672.65 Z" fill="#000000" fill-rule="evenodd" fill-opacity="1" /><path clip-path="url(#clip680)" d="M31.465 1636.52 Q30.8921 1637.51 30.6375 1638.69 Q30.351 1639.83 30.351 1641.23 Q30.351 1646.2 33.5975 1648.87 Q36.8122 1651.51 42.8596 1651.51 L61.6384 1651.51 L61.6384 1657.4 L25.9905 1657.4 L25.9905 1651.51 L31.5287 1651.51 Q28.2821 1649.67 26.7225 1646.71 Q25.1311 1643.75 25.1311 1639.51 Q25.1311 1638.91 25.2266 1638.18 Q25.2903 1637.44 25.4494 1636.55 L31.465 1636.52 Z" fill="#000000" fill-rule="evenodd" fill-opacity="1" /><path clip-path="url(#clip680)" d="M31.465 1610.87 Q30.8921 1611.85 30.6375 1613.03 Q30.351 1614.18 30.351 1615.58 Q30.351 1620.54 33.5975 1623.22 Q36.8122 1625.86 42.8596 1625.86 L61.6384 1625.86 L61.6384 1631.75 L25.9905 1631.75 L25.9905 1625.86 L31.5287 1625.86 Q28.2821 1624.01 26.7225 1621.05 Q25.1311 1618.09 25.1311 1613.86 Q25.1311 1613.26 25.2266 1612.52 Q25.2903 1611.79 25.4494 1610.9 L31.465 1610.87 Z" fill="#000000" fill-rule="evenodd" fill-opacity="1" /><path clip-path="url(#clip680)" d="M43.719 1588.52 Q43.719 1595.62 45.3422 1598.36 Q46.9655 1601.1 50.8804 1601.1 Q53.9996 1601.1 55.8457 1599.06 Q57.6599 1596.99 57.6599 1593.46 Q57.6599 1588.59 54.2224 1585.66 Q50.7531 1582.7 45.0239 1582.7 L43.719 1582.7 L43.719 1588.52 M41.3 1576.84 L61.6384 1576.84 L61.6384 1582.7 L56.2276 1582.7 Q59.4741 1584.71 61.0337 1587.7 Q62.5615 1590.69 62.5615 1595.02 Q62.5615 1600.49 59.5059 1603.74 Q56.4186 1606.95 51.2623 1606.95 Q45.2467 1606.95 42.1912 1602.94 Q39.1357 1598.9 39.1357 1590.91 L39.1357 1582.7 L38.5628 1582.7 Q34.5205 1582.7 32.3244 1585.37 Q30.0964 1588.02 30.0964 1592.82 Q30.0964 1595.88 30.8284 1598.77 Q31.5605 1601.67 33.0246 1604.34 L27.6137 1604.34 Q26.3724 1601.13 25.7677 1598.1 Q25.1311 1595.08 25.1311 1592.22 Q25.1311 1584.48 29.1415 1580.66 Q33.1519 1576.84 41.3 1576.84 Z" fill="#000000" fill-rule="evenodd" fill-opacity="1" /><path clip-path="url(#clip680)" d="M25.9905 1564.78 L25.9905 1558.92 L61.6384 1558.92 L61.6384 1564.78 L25.9905 1564.78 M12.1132 1564.78 L12.1132 1558.92 L19.5293 1558.92 L19.5293 1564.78 L12.1132 1564.78 Z" fill="#000000" fill-rule="evenodd" fill-opacity="1" /><path clip-path="url(#clip680)" d="M40.1224 1517.04 L61.6384 1517.04 L61.6384 1522.89 L40.3133 1522.89 Q35.2526 1522.89 32.7381 1524.87 Q30.2237 1526.84 30.2237 1530.79 Q30.2237 1535.53 33.2474 1538.27 Q36.2711 1541 41.491 1541 L61.6384 1541 L61.6384 1546.89 L25.9905 1546.89 L25.9905 1541 L31.5287 1541 Q28.314 1538.9 26.7225 1536.07 Q25.1311 1533.21 25.1311 1529.48 Q25.1311 1523.34 28.9505 1520.19 Q32.7381 1517.04 40.1224 1517.04 Z" fill="#000000" fill-rule="evenodd" fill-opacity="1" /><path clip-path="url(#clip680)" d="M40.1224 1455 L61.6384 1455 L61.6384 1460.86 L40.3133 1460.86 Q35.2526 1460.86 32.7381 1462.83 Q30.2237 1464.81 30.2237 1468.75 Q30.2237 1473.5 33.2474 1476.23 Q36.2711 1478.97 41.491 1478.97 L61.6384 1478.97 L61.6384 1484.86 L12.1132 1484.86 L12.1132 1478.97 L31.5287 1478.97 Q28.314 1476.87 26.7225 1474.04 Q25.1311 1471.17 25.1311 1467.45 Q25.1311 1461.31 28.9505 1458.15 Q32.7381 1455 40.1224 1455 Z" fill="#000000" fill-rule="evenodd" fill-opacity="1" /><path clip-path="url(#clip680)" d="M42.3504 1412.83 L45.2149 1412.83 L45.2149 1439.76 Q51.2623 1439.38 54.4452 1436.13 Q57.5962 1432.85 57.5962 1427.03 Q57.5962 1423.65 56.7687 1420.5 Q55.9411 1417.32 54.2861 1414.2 L59.8242 1414.2 Q61.161 1417.35 61.8612 1420.66 Q62.5615 1423.97 62.5615 1427.38 Q62.5615 1435.91 57.5962 1440.9 Q52.631 1445.87 44.1646 1445.87 Q35.4117 1445.87 30.2873 1441.16 Q25.1311 1436.42 25.1311 1428.4 Q25.1311 1421.2 29.7781 1417.03 Q34.3932 1412.83 42.3504 1412.83 M40.6316 1418.69 Q35.8255 1418.75 32.9609 1421.39 Q30.0964 1424 30.0964 1428.33 Q30.0964 1433.23 32.8654 1436.19 Q35.6345 1439.12 40.6634 1439.57 L40.6316 1418.69 Z" fill="#000000" fill-rule="evenodd" fill-opacity="1" /><path clip-path="url(#clip680)" d="M25.9905 1403.22 L25.9905 1397.36 L61.6384 1397.36 L61.6384 1403.22 L25.9905 1403.22 M12.1132 1403.22 L12.1132 1397.36 L19.5293 1397.36 L19.5293 1403.22 L12.1132 1403.22 Z" fill="#000000" fill-rule="evenodd" fill-opacity="1" /><path clip-path="url(#clip680)" d="M43.4007 1361.65 Q37.035 1361.65 33.5338 1364.29 Q30.0327 1366.9 30.0327 1371.64 Q30.0327 1376.36 33.5338 1379 Q37.035 1381.61 43.4007 1381.61 Q49.7346 1381.61 53.2357 1379 Q56.7368 1376.36 56.7368 1371.64 Q56.7368 1366.9 53.2357 1364.29 Q49.7346 1361.65 43.4007 1361.65 M57.2143 1355.79 Q66.3172 1355.79 70.7414 1359.84 Q75.1974 1363.88 75.1974 1372.22 Q75.1974 1375.31 74.72 1378.04 Q74.2744 1380.78 73.3195 1383.36 L67.6222 1383.36 Q69.0227 1380.78 69.6911 1378.27 Q70.3595 1375.75 70.3595 1373.14 Q70.3595 1367.38 67.3358 1364.52 Q64.3439 1361.65 58.2646 1361.65 L55.3682 1361.65 Q58.5192 1363.46 60.0788 1366.3 Q61.6384 1369.13 61.6384 1373.08 Q61.6384 1379.63 56.6414 1383.64 Q51.6443 1387.65 43.4007 1387.65 Q35.1253 1387.65 30.1282 1383.64 Q25.1311 1379.63 25.1311 1373.08 Q25.1311 1369.13 26.6907 1366.3 Q28.2503 1363.46 31.4013 1361.65 L25.9905 1361.65 L25.9905 1355.79 L57.2143 1355.79 Z" fill="#000000" fill-rule="evenodd" fill-opacity="1" /><path clip-path="url(#clip680)" d="M40.1224 1314.1 L61.6384 1314.1 L61.6384 1319.96 L40.3133 1319.96 Q35.2526 1319.96 32.7381 1321.93 Q30.2237 1323.9 30.2237 1327.85 Q30.2237 1332.59 33.2474 1335.33 Q36.2711 1338.07 41.491 1338.07 L61.6384 1338.07 L61.6384 1343.95 L12.1132 1343.95 L12.1132 1338.07 L31.5287 1338.07 Q28.314 1335.97 26.7225 1333.13 Q25.1311 1330.27 25.1311 1326.54 Q25.1311 1320.4 28.9505 1317.25 Q32.7381 1314.1 40.1224 1314.1 Z" fill="#000000" fill-rule="evenodd" fill-opacity="1" /><path clip-path="url(#clip680)" d="M15.869 1296.62 L25.9905 1296.62 L25.9905 1284.56 L30.542 1284.56 L30.542 1296.62 L49.8937 1296.62 Q54.2542 1296.62 55.4955 1295.45 Q56.7368 1294.24 56.7368 1290.58 L56.7368 1284.56 L61.6384 1284.56 L61.6384 1290.58 Q61.6384 1297.36 59.124 1299.94 Q56.5777 1302.51 49.8937 1302.51 L30.542 1302.51 L30.542 1306.81 L25.9905 1306.81 L25.9905 1302.51 L15.869 1302.51 L15.869 1296.62 Z" fill="#000000" fill-rule="evenodd" fill-opacity="1" /><polyline clip-path="url(#clip684)" style="stroke:#009af9; stroke-linecap:round; stroke-linejoin:round; stroke-width:4; stroke-opacity:1; fill:none" points="
  323.315,1721.34 644.735,1721.34 966.155,1721.34 1287.58,1721.34 1609,1721.34 1930.42,1721.34 2251.84,1721.34 2573.26,1721.34 
  "/>
<circle clip-path="url(#clip684)" cx="323.315" cy="1721.34" r="14.4" fill="#009af9" fill-rule="evenodd" fill-opacity="1" stroke="#000000" stroke-opacity="1" stroke-width="3.84"/>
<circle clip-path="url(#clip684)" cx="644.735" cy="1721.34" r="14.4" fill="#009af9" fill-rule="evenodd" fill-opacity="1" stroke="#000000" stroke-opacity="1" stroke-width="3.84"/>
<circle clip-path="url(#clip684)" cx="966.155" cy="1721.34" r="14.4" fill="#009af9" fill-rule="evenodd" fill-opacity="1" stroke="#000000" stroke-opacity="1" stroke-width="3.84"/>
<circle clip-path="url(#clip684)" cx="1287.58" cy="1721.34" r="14.4" fill="#009af9" fill-rule="evenodd" fill-opacity="1" stroke="#000000" stroke-opacity="1" stroke-width="3.84"/>
<circle clip-path="url(#clip684)" cx="1609" cy="1721.34" r="14.4" fill="#009af9" fill-rule="evenodd" fill-opacity="1" stroke="#000000" stroke-opacity="1" stroke-width="3.84"/>
<circle clip-path="url(#clip684)" cx="1930.42" cy="1721.34" r="14.4" fill="#009af9" fill-rule="evenodd" fill-opacity="1" stroke="#000000" stroke-opacity="1" stroke-width="3.84"/>
<circle clip-path="url(#clip684)" cx="2251.84" cy="1721.34" r="14.4" fill="#009af9" fill-rule="evenodd" fill-opacity="1" stroke="#000000" stroke-opacity="1" stroke-width="3.84"/>
<circle clip-path="url(#clip684)" cx="2573.26" cy="1721.34" r="14.4" fill="#009af9" fill-rule="evenodd" fill-opacity="1" stroke="#000000" stroke-opacity="1" stroke-width="3.84"/>
<path clip-path="url(#clip680)" d="
M2269.75 1401.53 L2561.26 1401.53 L2561.26 1297.85 L2269.75 1297.85  Z
  " fill="#ffffff" fill-rule="evenodd" fill-opacity="1"/>
<polyline clip-path="url(#clip680)" style="stroke:#000000; stroke-linecap:round; stroke-linejoin:round; stroke-width:4; stroke-opacity:1; fill:none" points="
  2269.75,1401.53 2561.26,1401.53 2561.26,1297.85 2269.75,1297.85 2269.75,1401.53 
  "/>
<polyline clip-path="url(#clip680)" style="stroke:#009af9; stroke-linecap:round; stroke-linejoin:round; stroke-width:4; stroke-opacity:1; fill:none" points="
  2296.25,1349.69 2455.25,1349.69 
  "/>
<circle clip-path="url(#clip680)" cx="2375.75" cy="1349.69" r="22.0828" fill="#009af9" fill-rule="evenodd" fill-opacity="1" stroke="#000000" stroke-opacity="1" stroke-width="6.144"/>
<path clip-path="url(#clip680)" d="M2495.59 1369.37 Q2493.79 1374 2492.07 1375.42 Q2490.36 1376.83 2487.49 1376.83 L2484.09 1376.83 L2484.09 1373.26 L2486.59 1373.26 Q2488.35 1373.26 2489.32 1372.43 Q2490.29 1371.6 2491.47 1368.49 L2492.24 1366.55 L2481.75 1341.04 L2486.26 1341.04 L2494.37 1361.32 L2502.47 1341.04 L2506.98 1341.04 L2495.59 1369.37 Z" fill="#000000" fill-rule="evenodd" fill-opacity="1" /><path clip-path="url(#clip680)" d="M2527.63 1348.33 Q2530.99 1349.05 2532.86 1351.32 Q2534.76 1353.59 2534.76 1356.92 Q2534.76 1362.04 2531.24 1364.84 Q2527.72 1367.64 2521.24 1367.64 Q2519.06 1367.64 2516.75 1367.2 Q2514.46 1366.78 2512 1365.92 L2512 1361.41 Q2513.95 1362.55 2516.26 1363.12 Q2518.58 1363.7 2521.1 1363.7 Q2525.5 1363.7 2527.79 1361.97 Q2530.11 1360.23 2530.11 1356.92 Q2530.11 1353.86 2527.95 1352.15 Q2525.82 1350.42 2522 1350.42 L2517.98 1350.42 L2517.98 1346.57 L2522.19 1346.57 Q2525.64 1346.57 2527.47 1345.21 Q2529.3 1343.82 2529.3 1341.23 Q2529.3 1338.56 2527.4 1337.15 Q2525.52 1335.72 2522 1335.72 Q2520.08 1335.72 2517.88 1336.13 Q2515.68 1336.55 2513.05 1337.43 L2513.05 1333.26 Q2515.71 1332.52 2518.02 1332.15 Q2520.36 1331.78 2522.42 1331.78 Q2527.74 1331.78 2530.85 1334.21 Q2533.95 1336.62 2533.95 1340.74 Q2533.95 1343.61 2532.3 1345.6 Q2530.66 1347.57 2527.63 1348.33 Z" fill="#000000" fill-rule="evenodd" fill-opacity="1" /></svg>
