<svg class="main-svg" xmlns="http://www.w3.org/2000/svg" xmlns:xlink="http://www.w3.org/1999/xlink" width="700" height="500" style="" viewBox="0 0 700 500"><rect x="0" y="0" width="700" height="500" style="fill: rgb(255, 255, 255); fill-opacity: 1;"/><defs id="defs-6ec94e"><g class="clips"><clipPath id="clip6ec94exyplot" class="plotclip"><rect width="561.2235970503687" height="374.5745844269466"/></clipPath><clipPath class="axesclip" id="clip6ec94ex"><rect x="85.26121734783152" y="0" width="561.2235970503687" height="500"/></clipPath><clipPath class="axesclip" id="clip6ec94ey"><rect x="0" y="63.19881889763781" width="700" height="374.5745844269466"/></clipPath><clipPath class="axesclip" id="clip6ec94exy"><rect x="85.26121734783152" y="63.19881889763781" width="561.2235970503687" height="374.5745844269466"/></clipPath></g><g class="gradients"/></defs><g class="bglayer"/><g class="layer-below"><g class="imagelayer"/><g class="shapelayer"/></g><g class="cartesianlayer"><g class="subplot xy"><g class="layer-subplot"><g class="shapelayer"/><g class="imagelayer"/></g><g class="gridlayer"><g class="x"><path class="xgrid crisp" transform="translate(187.48121734783152,0)" d="M0,63.19881889763781v374.5745844269466" style="stroke: rgb(0, 0, 0); stroke-opacity: 0.1; stroke-width: 0.5px;"/><path class="xgrid crisp" transform="translate(365.87121734783153,0)" d="M0,63.19881889763781v374.5745844269466" style="stroke: rgb(0, 0, 0); stroke-opacity: 0.1; stroke-width: 0.5px;"/><path class="xgrid crisp" transform="translate(544.2612173478315,0)" d="M0,63.19881889763781v374.5745844269466" style="stroke: rgb(0, 0, 0); stroke-opacity: 0.1; stroke-width: 0.5px;"/></g><g class="y"><path class="ygrid crisp" transform="translate(0,427.16881889763783)" d="M85.26121734783152,0h561.2235970503687" style="stroke: rgb(0, 0, 0); stroke-opacity: 0.1; stroke-width: 0.5px;"/><path class="ygrid crisp" transform="translate(0,362.9988188976378)" d="M85.26121734783152,0h561.2235970503687" style="stroke: rgb(0, 0, 0); stroke-opacity: 0.1; stroke-width: 0.5px;"/><path class="ygrid crisp" transform="translate(0,298.8188188976378)" d="M85.26121734783152,0h561.2235970503687" style="stroke: rgb(0, 0, 0); stroke-opacity: 0.1; stroke-width: 0.5px;"/><path class="ygrid crisp" transform="translate(0,234.6388188976378)" d="M85.26121734783152,0h561.2235970503687" style="stroke: rgb(0, 0, 0); stroke-opacity: 0.1; stroke-width: 0.5px;"/><path class="ygrid crisp" transform="translate(0,170.4688188976378)" d="M85.26121734783152,0h561.2235970503687" style="stroke: rgb(0, 0, 0); stroke-opacity: 0.1; stroke-width: 0.5px;"/><path class="ygrid crisp" transform="translate(0,106.28881889763781)" d="M85.26121734783152,0h561.2235970503687" style="stroke: rgb(0, 0, 0); stroke-opacity: 0.1; stroke-width: 0.5px;"/></g></g><g class="zerolinelayer"/><path class="xlines-below"/><path class="ylines-below"/><g class="overlines-below"/><g class="xaxislayer-below"/><g class="yaxislayer-below"/><g class="overaxes-below"/><g class="plot" transform="translate(85.26121734783152,63.19881889763781)" clip-path="url('#clip6ec94exyplot')"><g class="scatterlayer mlayer"><g class="trace scatter trace59ccc7" style="stroke-miterlimit: 2;"><g class="fills"><g><path class="js-fill" d="M30.87,363.97L30.87,363.97L30.87,93.44L30.87,363.97L173.58,363.97L173.58,93.44L30.87,93.44L30.87,93.44" style="fill: rgb(0, 154, 250); fill-opacity: 1; stroke-width: 0;"/></g></g><g class="errorbars"/><g class="lines"><path class="js-line" d="M30.87,93.44L30.87,363.97L173.58,363.97L173.58,93.44L30.87,93.44L30.87,93.44" style="vector-effect: non-scaling-stroke; fill: none; stroke: rgb(0, 0, 0); stroke-opacity: 1; stroke-width: 1px; opacity: 1;"/></g><g class="points"/><g class="text"/></g><g class="trace scatter tracec8e3dc" style="stroke-miterlimit: 2;"><g class="fills"><g><path class="js-fill" d="M209.26,363.97L209.26,363.97L209.26,62.91L209.26,363.97L351.97,363.97L351.97,62.91L209.26,62.91L209.26,62.91" style="fill: rgb(0, 154, 250); fill-opacity: 1; stroke-width: 0;"/></g></g><g class="errorbars"/><g class="lines"><path class="js-line" d="M209.26,62.91L209.26,363.97L351.97,363.97L351.97,62.91L209.26,62.91L209.26,62.91" style="vector-effect: non-scaling-stroke; fill: none; stroke: rgb(0, 0, 0); stroke-opacity: 1; stroke-width: 1px; opacity: 1;"/></g><g class="points"/><g class="text"/></g><g class="trace scatter trace5eb23f" style="stroke-miterlimit: 2;"><g class="fills"><g><path class="js-fill" d="M387.64,363.97L387.64,363.97L387.64,10.6L387.64,363.97L530.36,363.97L530.36,10.6L387.64,10.6L387.64,10.6" style="fill: rgb(0, 154, 250); fill-opacity: 1; stroke-width: 0;"/></g></g><g class="errorbars"/><g class="lines"><path class="js-line" d="M387.64,10.6L387.64,363.97L530.36,363.97L530.36,10.6L387.64,10.6L387.64,10.6" style="vector-effect: non-scaling-stroke; fill: none; stroke: rgb(0, 0, 0); stroke-opacity: 1; stroke-width: 1px; opacity: 1;"/></g><g class="points"/><g class="text"/></g><g class="trace scatter trace54347f" style="stroke-miterlimit: 2; opacity: 1;"><g class="fills"/><g class="errorbars"/><g class="lines"/><g class="points"><path class="point" transform="translate(102.22,93.44)" d="M3,0A3,3 0 1,1 0,-3A3,3 0 0,1 3,0Z" style="opacity: 1; stroke-width: 1px; fill: rgb(0, 154, 250); fill-opacity: 0; stroke: rgb(0, 0, 0); stroke-opacity: 0;"/><path class="point" transform="translate(280.61,62.91)" d="M3,0A3,3 0 1,1 0,-3A3,3 0 0,1 3,0Z" style="opacity: 1; stroke-width: 1px; fill: rgb(0, 154, 250); fill-opacity: 0; stroke: rgb(0, 0, 0); stroke-opacity: 0;"/><path class="point" transform="translate(459,10.6)" d="M3,0A3,3 0 1,1 0,-3A3,3 0 0,1 3,0Z" style="opacity: 1; stroke-width: 1px; fill: rgb(0, 154, 250); fill-opacity: 0; stroke: rgb(0, 0, 0); stroke-opacity: 0;"/></g><g class="text"/></g></g></g><g class="overplot"/><path class="xlines-above crisp" d="M84.26121734783152,438.2734033245844H646.4848143982001" style="fill: none; stroke-width: 1px; stroke: rgb(0, 0, 0); stroke-opacity: 1;"/><path class="ylines-above crisp" d="M84.76121734783152,63.19881889763781V437.7734033245844" style="fill: none; stroke-width: 1px; stroke: rgb(0, 0, 0); stroke-opacity: 1;"/><g class="overlines-above"/><g class="xaxislayer-above"><path class="xtick ticks crisp" d="M0,437.7734033245844v-5" transform="translate(187.48121734783152,0)" style="stroke: rgb(0, 0, 0); stroke-opacity: 1; stroke-width: 1px;"/><path class="xtick ticks crisp" d="M0,437.7734033245844v-5" transform="translate(365.87121734783153,0)" style="stroke: rgb(0, 0, 0); stroke-opacity: 1; stroke-width: 1px;"/><path class="xtick ticks crisp" d="M0,437.7734033245844v-5" transform="translate(544.2612173478315,0)" style="stroke: rgb(0, 0, 0); stroke-opacity: 1; stroke-width: 1px;"/><g class="xtick"><text text-anchor="middle" x="0" y="451.9734033245844" transform="translate(187.48121734783152,0)" style="font-family: sans-serif; font-size: 11px; fill: rgb(0, 0, 0); fill-opacity: 1; white-space: pre;">Energy-Time</text></g><g class="xtick"><text text-anchor="middle" x="0" y="451.9734033245844" transform="translate(365.87121734783153,0)" style="font-family: sans-serif; font-size: 11px; fill: rgb(0, 0, 0); fill-opacity: 1; white-space: pre;">Steady min-COT</text></g><g class="xtick"><text text-anchor="middle" x="0" y="451.9734033245844" transform="translate(544.2612173478315,0)" style="font-family: sans-serif; font-size: 11px; fill: rgb(0, 0, 0); fill-opacity: 1; white-space: pre;">Steady accel</text></g></g><g class="yaxislayer-above"><path class="ytick ticks crisp" d="M85.26121734783152,0h5" transform="translate(0,427.16881889763783)" style="stroke: rgb(0, 0, 0); stroke-opacity: 1; stroke-width: 1px;"/><path class="ytick ticks crisp" d="M85.26121734783152,0h5" transform="translate(0,362.9988188976378)" style="stroke: rgb(0, 0, 0); stroke-opacity: 1; stroke-width: 1px;"/><path class="ytick ticks crisp" d="M85.26121734783152,0h5" transform="translate(0,298.8188188976378)" style="stroke: rgb(0, 0, 0); stroke-opacity: 1; stroke-width: 1px;"/><path class="ytick ticks crisp" d="M85.26121734783152,0h5" transform="translate(0,234.6388188976378)" style="stroke: rgb(0, 0, 0); stroke-opacity: 1; stroke-width: 1px;"/><path class="ytick ticks crisp" d="M85.26121734783152,0h5" transform="translate(0,170.4688188976378)" style="stroke: rgb(0, 0, 0); stroke-opacity: 1; stroke-width: 1px;"/><path class="ytick ticks crisp" d="M85.26121734783152,0h5" transform="translate(0,106.28881889763781)" style="stroke: rgb(0, 0, 0); stroke-opacity: 1; stroke-width: 1px;"/><g class="ytick"><text text-anchor="end" x="82.06121734783152" y="3.8499999999999996" transform="translate(0,427.16881889763783)" style="font-family: sans-serif; font-size: 11px; fill: rgb(0, 0, 0); fill-opacity: 1; white-space: pre;">0.00</text></g><g class="ytick"><text text-anchor="end" x="82.06121734783152" y="3.8499999999999996" transform="translate(0,362.9988188976378)" style="font-family: sans-serif; font-size: 11px; fill: rgb(0, 0, 0); fill-opacity: 1; white-space: pre;">0.05</text></g><g class="ytick"><text text-anchor="end" x="82.06121734783152" y="3.8499999999999996" transform="translate(0,298.8188188976378)" style="font-family: sans-serif; font-size: 11px; fill: rgb(0, 0, 0); fill-opacity: 1; white-space: pre;">0.10</text></g><g class="ytick"><text text-anchor="end" x="82.06121734783152" y="3.8499999999999996" transform="translate(0,234.6388188976378)" style="font-family: sans-serif; font-size: 11px; fill: rgb(0, 0, 0); fill-opacity: 1; white-space: pre;">0.15</text></g><g class="ytick"><text text-anchor="end" x="82.06121734783152" y="3.8499999999999996" transform="translate(0,170.4688188976378)" style="font-family: sans-serif; font-size: 11px; fill: rgb(0, 0, 0); fill-opacity: 1; white-space: pre;">0.20</text></g><g class="ytick"><text text-anchor="end" x="82.06121734783152" y="3.8499999999999996" transform="translate(0,106.28881889763781)" style="font-family: sans-serif; font-size: 11px; fill: rgb(0, 0, 0); fill-opacity: 1; white-space: pre;">0.25</text></g></g><g class="overaxes-above"/></g></g><g class="polarlayer"/><g class="ternarylayer"/><g class="geolayer"/><g class="funnelarealayer"/><g class="pielayer"/><g class="treemaplayer"/><g class="sunburstlayer"/><g class="glimages"/><defs id="topdefs-6ec94e"><g class="clips"/><clipPath id="legend6ec94e"><rect width="57" height="29" x="1" y="1"/></clipPath></defs><g class="layer-above"><g class="imagelayer"/><g class="shapelayer"/></g><g class="infolayer"><g class="legend" pointer-events="all" transform="translate(591,60)"><rect class="bg" shape-rendering="crispEdges" style="stroke: rgb(0, 0, 0); stroke-opacity: 1; fill: rgb(255, 255, 255); fill-opacity: 1; stroke-width: 1px;" width="58" height="30" x="0.5" y="0.5"/><g class="scrollbox" transform="" clip-path="url('#legend6ec94e')"><g class="groups"><g class="traces" transform="translate(1,15.5)" style="opacity: 1;"><text class="legendtext" text-anchor="start" x="40" y="4.29" style="font-family: sans-serif; font-size: 11px; fill: rgb(0, 0, 0); fill-opacity: 1; white-space: pre;">y1</text><g class="layers"><g class="legendfill"><path class="js-fill" d="M5,-2h30v6h-30z" style="stroke-width: 0; fill: rgb(0, 154, 250); fill-opacity: 1;"/></g><g class="legendlines"><path class="js-line" d="M5,-2h30" style="fill: none; stroke: rgb(0, 0, 0); stroke-opacity: 1; stroke-width: 1px;"/></g><g class="legendsymbols"><g class="legendpoints"/></g></g><rect class="legendtoggle" x="0" y="-9.5" width="51.625" height="19" style="fill: rgb(0, 0, 0); fill-opacity: 0;"/></g></g></g><rect class="scrollbar" rx="20" ry="3" width="0" height="0" style="fill: rgb(128, 139, 164); fill-opacity: 1;" x="0" y="0"/></g><g class="g-gtitle"/><g class="g-xtitle"/><g class="g-ytitle"/></g></svg>