<?xml version="1.0" encoding="utf-8"?>
<svg xmlns="http://www.w3.org/2000/svg" xmlns:xlink="http://www.w3.org/1999/xlink" width="672" height="480" viewBox="0 0 2688 1920">
<defs>
  <clipPath id="clip560">
    <rect x="0" y="0" width="2688" height="1920"/>
  </clipPath>
</defs>
<path clip-path="url(#clip560)" d="
M0 1920 L2688 1920 L2688 0 L0 0  Z
  " fill="#ffffff" fill-rule="evenodd" fill-opacity="1"/>
<defs>
  <clipPath id="clip561">
    <rect x="537" y="0" width="1883" height="1883"/>
  </clipPath>
</defs>
<path clip-path="url(#clip560)" d="
M217.233 1800.78 L2640.76 1800.78 L2640.76 47.2441 L217.233 47.2441  Z
  " fill="#ffffff" fill-rule="evenodd" fill-opacity="1"/>
<defs>
  <clipPath id="clip562">
    <rect x="217" y="47" width="2425" height="1755"/>
  </clipPath>
</defs>
<polyline clip-path="url(#clip562)" style="stroke:#000000; stroke-linecap:round; stroke-linejoin:round; stroke-width:2; stroke-opacity:0.1; fill:none" points="
  594.368,1800.78 594.368,47.2441 
  "/>
<polyline clip-path="url(#clip562)" style="stroke:#000000; stroke-linecap:round; stroke-linejoin:round; stroke-width:2; stroke-opacity:0.1; fill:none" points="
  1066.14,1800.78 1066.14,47.2441 
  "/>
<polyline clip-path="url(#clip562)" style="stroke:#000000; stroke-linecap:round; stroke-linejoin:round; stroke-width:2; stroke-opacity:0.1; fill:none" points="
  1537.92,1800.78 1537.92,47.2441 
  "/>
<polyline clip-path="url(#clip562)" style="stroke:#000000; stroke-linecap:round; stroke-linejoin:round; stroke-width:2; stroke-opacity:0.1; fill:none" points="
  2009.69,1800.78 2009.69,47.2441 
  "/>
<polyline clip-path="url(#clip562)" style="stroke:#000000; stroke-linecap:round; stroke-linejoin:round; stroke-width:2; stroke-opacity:0.1; fill:none" points="
  2481.47,1800.78 2481.47,47.2441 
  "/>
<polyline clip-path="url(#clip560)" style="stroke:#000000; stroke-linecap:round; stroke-linejoin:round; stroke-width:4; stroke-opacity:1; fill:none" points="
  217.233,1800.78 2640.76,1800.78 
  "/>
<polyline clip-path="url(#clip560)" style="stroke:#000000; stroke-linecap:round; stroke-linejoin:round; stroke-width:4; stroke-opacity:1; fill:none" points="
  594.368,1800.78 594.368,1781.88 
  "/>
<polyline clip-path="url(#clip560)" style="stroke:#000000; stroke-linecap:round; stroke-linejoin:round; stroke-width:4; stroke-opacity:1; fill:none" points="
  1066.14,1800.78 1066.14,1781.88 
  "/>
<polyline clip-path="url(#clip560)" style="stroke:#000000; stroke-linecap:round; stroke-linejoin:round; stroke-width:4; stroke-opacity:1; fill:none" points="
  1537.92,1800.78 1537.92,1781.88 
  "/>
<polyline clip-path="url(#clip560)" style="stroke:#000000; stroke-linecap:round; stroke-linejoin:round; stroke-width:4; stroke-opacity:1; fill:none" points="
  2009.69,1800.78 2009.69,1781.88 
  "/>
<polyline clip-path="url(#clip560)" style="stroke:#000000; stroke-linecap:round; stroke-linejoin:round; stroke-width:4; stroke-opacity:1; fill:none" points="
  2481.47,1800.78 2481.47,1781.88 
  "/>
<path clip-path="url(#clip560)" d="M584.646 1830.92 L603.003 1830.92 L603.003 1834.86 L588.929 1834.86 L588.929 1843.33 Q589.947 1842.98 590.966 1842.82 Q591.984 1842.64 593.003 1842.64 Q598.79 1842.64 602.169 1845.81 Q605.549 1848.98 605.549 1854.4 Q605.549 1859.97 602.077 1863.08 Q598.604 1866.15 592.285 1866.15 Q590.109 1866.15 587.841 1865.78 Q585.595 1865.41 583.188 1864.67 L583.188 1859.97 Q585.271 1861.11 587.493 1861.66 Q589.716 1862.22 592.192 1862.22 Q596.197 1862.22 598.535 1860.11 Q600.873 1858.01 600.873 1854.4 Q600.873 1850.78 598.535 1848.68 Q596.197 1846.57 592.192 1846.57 Q590.317 1846.57 588.442 1846.99 Q586.591 1847.4 584.646 1848.28 L584.646 1830.92 Z" fill="#000000" fill-rule="evenodd" fill-opacity="1" /><path clip-path="url(#clip560)" d="M1040.83 1861.55 L1048.47 1861.55 L1048.47 1835.18 L1040.16 1836.85 L1040.16 1832.59 L1048.42 1830.92 L1053.1 1830.92 L1053.1 1861.55 L1060.74 1861.55 L1060.74 1865.48 L1040.83 1865.48 L1040.83 1861.55 Z" fill="#000000" fill-rule="evenodd" fill-opacity="1" /><path clip-path="url(#clip560)" d="M1080.18 1834 Q1076.57 1834 1074.74 1837.57 Q1072.94 1841.11 1072.94 1848.24 Q1072.94 1855.34 1074.74 1858.91 Q1076.57 1862.45 1080.18 1862.45 Q1083.82 1862.45 1085.62 1858.91 Q1087.45 1855.34 1087.45 1848.24 Q1087.45 1841.11 1085.62 1837.57 Q1083.82 1834 1080.18 1834 M1080.18 1830.3 Q1085.99 1830.3 1089.05 1834.9 Q1092.13 1839.49 1092.13 1848.24 Q1092.13 1856.96 1089.05 1861.57 Q1085.99 1866.15 1080.18 1866.15 Q1074.37 1866.15 1071.29 1861.57 Q1068.24 1856.96 1068.24 1848.24 Q1068.24 1839.49 1071.29 1834.9 Q1074.37 1830.3 1080.18 1830.3 Z" fill="#000000" fill-rule="evenodd" fill-opacity="1" /><path clip-path="url(#clip560)" d="M1513.1 1861.55 L1520.74 1861.55 L1520.74 1835.18 L1512.43 1836.85 L1512.43 1832.59 L1520.7 1830.92 L1525.37 1830.92 L1525.37 1861.55 L1533.01 1861.55 L1533.01 1865.48 L1513.1 1865.48 L1513.1 1861.55 Z" fill="#000000" fill-rule="evenodd" fill-opacity="1" /><path clip-path="url(#clip560)" d="M1542.5 1830.92 L1560.86 1830.92 L1560.86 1834.86 L1546.78 1834.86 L1546.78 1843.33 Q1547.8 1842.98 1548.82 1842.82 Q1549.84 1842.64 1550.86 1842.64 Q1556.65 1842.64 1560.03 1845.81 Q1563.4 1848.98 1563.4 1854.4 Q1563.4 1859.97 1559.93 1863.08 Q1556.46 1866.15 1550.14 1866.15 Q1547.97 1866.15 1545.7 1865.78 Q1543.45 1865.41 1541.04 1864.67 L1541.04 1859.97 Q1543.13 1861.11 1545.35 1861.66 Q1547.57 1862.22 1550.05 1862.22 Q1554.05 1862.22 1556.39 1860.11 Q1558.73 1858.01 1558.73 1854.4 Q1558.73 1850.78 1556.39 1848.68 Q1554.05 1846.57 1550.05 1846.57 Q1548.17 1846.57 1546.3 1846.99 Q1544.45 1847.4 1542.5 1848.28 L1542.5 1830.92 Z" fill="#000000" fill-rule="evenodd" fill-opacity="1" /><path clip-path="url(#clip560)" d="M1988.47 1861.55 L2004.79 1861.55 L2004.79 1865.48 L1982.84 1865.48 L1982.84 1861.55 Q1985.5 1858.79 1990.09 1854.16 Q1994.69 1849.51 1995.87 1848.17 Q1998.12 1845.65 1999 1843.91 Q1999.9 1842.15 1999.9 1840.46 Q1999.9 1837.71 1997.96 1835.97 Q1996.04 1834.23 1992.93 1834.23 Q1990.74 1834.23 1988.28 1835 Q1985.85 1835.76 1983.07 1837.31 L1983.07 1832.59 Q1985.9 1831.46 1988.35 1830.88 Q1990.81 1830.3 1992.84 1830.3 Q1998.21 1830.3 2001.41 1832.98 Q2004.6 1835.67 2004.6 1840.16 Q2004.6 1842.29 2003.79 1844.21 Q2003 1846.11 2000.9 1848.7 Q2000.32 1849.37 1997.22 1852.59 Q1994.12 1855.78 1988.47 1861.55 Z" fill="#000000" fill-rule="evenodd" fill-opacity="1" /><path clip-path="url(#clip560)" d="M2024.6 1834 Q2020.99 1834 2019.16 1837.57 Q2017.36 1841.11 2017.36 1848.24 Q2017.36 1855.34 2019.16 1858.91 Q2020.99 1862.45 2024.6 1862.45 Q2028.24 1862.45 2030.04 1858.91 Q2031.87 1855.34 2031.87 1848.24 Q2031.87 1841.11 2030.04 1837.57 Q2028.24 1834 2024.6 1834 M2024.6 1830.3 Q2030.41 1830.3 2033.47 1834.9 Q2036.55 1839.49 2036.55 1848.24 Q2036.55 1856.96 2033.47 1861.57 Q2030.41 1866.15 2024.6 1866.15 Q2018.79 1866.15 2015.71 1861.57 Q2012.66 1856.96 2012.66 1848.24 Q2012.66 1839.49 2015.71 1834.9 Q2018.79 1830.3 2024.6 1830.3 Z" fill="#000000" fill-rule="evenodd" fill-opacity="1" /><path clip-path="url(#clip560)" d="M2460.74 1861.55 L2477.06 1861.55 L2477.06 1865.48 L2455.12 1865.48 L2455.12 1861.55 Q2457.78 1858.79 2462.36 1854.16 Q2466.97 1849.51 2468.15 1848.17 Q2470.39 1845.65 2471.27 1843.91 Q2472.18 1842.15 2472.18 1840.46 Q2472.18 1837.71 2470.23 1835.97 Q2468.31 1834.23 2465.21 1834.23 Q2463.01 1834.23 2460.56 1835 Q2458.12 1835.76 2455.35 1837.31 L2455.35 1832.59 Q2458.17 1831.46 2460.62 1830.88 Q2463.08 1830.3 2465.12 1830.3 Q2470.49 1830.3 2473.68 1832.98 Q2476.87 1835.67 2476.87 1840.16 Q2476.87 1842.29 2476.06 1844.21 Q2475.28 1846.11 2473.17 1848.7 Q2472.59 1849.37 2469.49 1852.59 Q2466.39 1855.78 2460.74 1861.55 Z" fill="#000000" fill-rule="evenodd" fill-opacity="1" /><path clip-path="url(#clip560)" d="M2486.92 1830.92 L2505.28 1830.92 L2505.28 1834.86 L2491.2 1834.86 L2491.2 1843.33 Q2492.22 1842.98 2493.24 1842.82 Q2494.26 1842.64 2495.28 1842.64 Q2501.06 1842.64 2504.44 1845.81 Q2507.82 1848.98 2507.82 1854.4 Q2507.82 1859.97 2504.35 1863.08 Q2500.88 1866.15 2494.56 1866.15 Q2492.38 1866.15 2490.12 1865.78 Q2487.87 1865.41 2485.46 1864.67 L2485.46 1859.97 Q2487.55 1861.11 2489.77 1861.66 Q2491.99 1862.22 2494.47 1862.22 Q2498.47 1862.22 2500.81 1860.11 Q2503.15 1858.01 2503.15 1854.4 Q2503.15 1850.78 2500.81 1848.68 Q2498.47 1846.57 2494.47 1846.57 Q2492.59 1846.57 2490.72 1846.99 Q2488.87 1847.4 2486.92 1848.28 L2486.92 1830.92 Z" fill="#000000" fill-rule="evenodd" fill-opacity="1" /><polyline clip-path="url(#clip562)" style="stroke:#000000; stroke-linecap:round; stroke-linejoin:round; stroke-width:2; stroke-opacity:0.1; fill:none" points="
  217.233,1536.44 2640.76,1536.44 
  "/>
<polyline clip-path="url(#clip562)" style="stroke:#000000; stroke-linecap:round; stroke-linejoin:round; stroke-width:2; stroke-opacity:0.1; fill:none" points="
  217.233,1243.49 2640.76,1243.49 
  "/>
<polyline clip-path="url(#clip562)" style="stroke:#000000; stroke-linecap:round; stroke-linejoin:round; stroke-width:2; stroke-opacity:0.1; fill:none" points="
  217.233,950.555 2640.76,950.555 
  "/>
<polyline clip-path="url(#clip562)" style="stroke:#000000; stroke-linecap:round; stroke-linejoin:round; stroke-width:2; stroke-opacity:0.1; fill:none" points="
  217.233,657.614 2640.76,657.614 
  "/>
<polyline clip-path="url(#clip562)" style="stroke:#000000; stroke-linecap:round; stroke-linejoin:round; stroke-width:2; stroke-opacity:0.1; fill:none" points="
  217.233,364.674 2640.76,364.674 
  "/>
<polyline clip-path="url(#clip562)" style="stroke:#000000; stroke-linecap:round; stroke-linejoin:round; stroke-width:2; stroke-opacity:0.1; fill:none" points="
  217.233,71.7336 2640.76,71.7336 
  "/>
<polyline clip-path="url(#clip560)" style="stroke:#000000; stroke-linecap:round; stroke-linejoin:round; stroke-width:4; stroke-opacity:1; fill:none" points="
  217.233,1800.78 217.233,47.2441 
  "/>
<polyline clip-path="url(#clip560)" style="stroke:#000000; stroke-linecap:round; stroke-linejoin:round; stroke-width:4; stroke-opacity:1; fill:none" points="
  217.233,1536.44 236.13,1536.44 
  "/>
<polyline clip-path="url(#clip560)" style="stroke:#000000; stroke-linecap:round; stroke-linejoin:round; stroke-width:4; stroke-opacity:1; fill:none" points="
  217.233,1243.49 236.13,1243.49 
  "/>
<polyline clip-path="url(#clip560)" style="stroke:#000000; stroke-linecap:round; stroke-linejoin:round; stroke-width:4; stroke-opacity:1; fill:none" points="
  217.233,950.555 236.13,950.555 
  "/>
<polyline clip-path="url(#clip560)" style="stroke:#000000; stroke-linecap:round; stroke-linejoin:round; stroke-width:4; stroke-opacity:1; fill:none" points="
  217.233,657.614 236.13,657.614 
  "/>
<polyline clip-path="url(#clip560)" style="stroke:#000000; stroke-linecap:round; stroke-linejoin:round; stroke-width:4; stroke-opacity:1; fill:none" points="
  217.233,364.674 236.13,364.674 
  "/>
<polyline clip-path="url(#clip560)" style="stroke:#000000; stroke-linecap:round; stroke-linejoin:round; stroke-width:4; stroke-opacity:1; fill:none" points="
  217.233,71.7336 236.13,71.7336 
  "/>
<path clip-path="url(#clip560)" d="M51.2188 1549.78 L58.8576 1549.78 L58.8576 1523.41 L50.5475 1525.08 L50.5475 1520.82 L58.8113 1519.16 L63.4872 1519.16 L63.4872 1549.78 L71.1261 1549.78 L71.1261 1553.72 L51.2188 1553.72 L51.2188 1549.78 Z" fill="#000000" fill-rule="evenodd" fill-opacity="1" /><path clip-path="url(#clip560)" d="M80.5705 1547.84 L85.4547 1547.84 L85.4547 1553.72 L80.5705 1553.72 L80.5705 1547.84 Z" fill="#000000" fill-rule="evenodd" fill-opacity="1" /><path clip-path="url(#clip560)" d="M106.218 1534.57 Q103.07 1534.57 101.219 1536.72 Q99.3898 1538.88 99.3898 1542.63 Q99.3898 1546.35 101.219 1548.53 Q103.07 1550.68 106.218 1550.68 Q109.367 1550.68 111.195 1548.53 Q113.047 1546.35 113.047 1542.63 Q113.047 1538.88 111.195 1536.72 Q109.367 1534.57 106.218 1534.57 M115.501 1519.92 L115.501 1524.18 Q113.742 1523.35 111.936 1522.91 Q110.154 1522.47 108.394 1522.47 Q103.765 1522.47 101.311 1525.59 Q98.8806 1528.72 98.5333 1535.03 Q99.8991 1533.02 101.959 1531.96 Q104.019 1530.87 106.496 1530.87 Q111.705 1530.87 114.714 1534.04 Q117.746 1537.19 117.746 1542.63 Q117.746 1547.95 114.598 1551.17 Q111.45 1554.39 106.218 1554.39 Q100.223 1554.39 97.0519 1549.8 Q93.8806 1545.2 93.8806 1536.47 Q93.8806 1528.28 97.7695 1523.41 Q101.658 1518.53 108.209 1518.53 Q109.968 1518.53 111.751 1518.88 Q113.556 1519.22 115.501 1519.92 Z" fill="#000000" fill-rule="evenodd" fill-opacity="1" /><path clip-path="url(#clip560)" d="M124.621 1519.16 L146.843 1519.16 L146.843 1521.15 L134.297 1553.72 L129.413 1553.72 L141.218 1523.09 L124.621 1523.09 L124.621 1519.16 Z" fill="#000000" fill-rule="evenodd" fill-opacity="1" /><path clip-path="url(#clip560)" d="M156.01 1519.16 L174.366 1519.16 L174.366 1523.09 L160.292 1523.09 L160.292 1531.56 Q161.311 1531.22 162.329 1531.05 Q163.348 1530.87 164.366 1530.87 Q170.153 1530.87 173.533 1534.04 Q176.913 1537.21 176.913 1542.63 Q176.913 1548.21 173.44 1551.31 Q169.968 1554.39 163.649 1554.39 Q161.473 1554.39 159.204 1554.02 Q156.959 1553.65 154.552 1552.91 L154.552 1548.21 Q156.635 1549.34 158.857 1549.9 Q161.079 1550.45 163.556 1550.45 Q167.561 1550.45 169.899 1548.34 Q172.237 1546.24 172.237 1542.63 Q172.237 1539.02 169.899 1536.91 Q167.561 1534.8 163.556 1534.8 Q161.681 1534.8 159.806 1535.22 Q157.954 1535.64 156.01 1536.52 L156.01 1519.16 Z" fill="#000000" fill-rule="evenodd" fill-opacity="1" /><path clip-path="url(#clip560)" d="M50.2234 1256.84 L57.8623 1256.84 L57.8623 1230.47 L49.5521 1232.14 L49.5521 1227.88 L57.816 1226.21 L62.4919 1226.21 L62.4919 1256.84 L70.1307 1256.84 L70.1307 1260.77 L50.2234 1260.77 L50.2234 1256.84 Z" fill="#000000" fill-rule="evenodd" fill-opacity="1" /><path clip-path="url(#clip560)" d="M79.5751 1254.9 L84.4593 1254.9 L84.4593 1260.77 L79.5751 1260.77 L79.5751 1254.9 Z" fill="#000000" fill-rule="evenodd" fill-opacity="1" /><path clip-path="url(#clip560)" d="M93.4639 1226.21 L115.686 1226.21 L115.686 1228.21 L103.14 1260.77 L98.2556 1260.77 L110.061 1230.15 L93.4639 1230.15 L93.4639 1226.21 Z" fill="#000000" fill-rule="evenodd" fill-opacity="1" /><path clip-path="url(#clip560)" d="M134.806 1229.29 Q131.195 1229.29 129.367 1232.86 Q127.561 1236.4 127.561 1243.53 Q127.561 1250.64 129.367 1254.2 Q131.195 1257.74 134.806 1257.74 Q138.441 1257.74 140.246 1254.2 Q142.075 1250.64 142.075 1243.53 Q142.075 1236.4 140.246 1232.86 Q138.441 1229.29 134.806 1229.29 M134.806 1225.59 Q140.616 1225.59 143.672 1230.2 Q146.751 1234.78 146.751 1243.53 Q146.751 1252.26 143.672 1256.86 Q140.616 1261.45 134.806 1261.45 Q128.996 1261.45 125.917 1256.86 Q122.862 1252.26 122.862 1243.53 Q122.862 1234.78 125.917 1230.2 Q128.996 1225.59 134.806 1225.59 Z" fill="#000000" fill-rule="evenodd" fill-opacity="1" /><path clip-path="url(#clip560)" d="M164.968 1229.29 Q161.357 1229.29 159.528 1232.86 Q157.723 1236.4 157.723 1243.53 Q157.723 1250.64 159.528 1254.2 Q161.357 1257.74 164.968 1257.74 Q168.602 1257.74 170.408 1254.2 Q172.237 1250.64 172.237 1243.53 Q172.237 1236.4 170.408 1232.86 Q168.602 1229.29 164.968 1229.29 M164.968 1225.59 Q170.778 1225.59 173.834 1230.2 Q176.913 1234.78 176.913 1243.53 Q176.913 1252.26 173.834 1256.86 Q170.778 1261.45 164.968 1261.45 Q159.158 1261.45 156.079 1256.86 Q153.024 1252.26 153.024 1243.53 Q153.024 1234.78 156.079 1230.2 Q159.158 1225.59 164.968 1225.59 Z" fill="#000000" fill-rule="evenodd" fill-opacity="1" /><path clip-path="url(#clip560)" d="M51.2188 963.899 L58.8576 963.899 L58.8576 937.534 L50.5475 939.201 L50.5475 934.941 L58.8113 933.275 L63.4872 933.275 L63.4872 963.899 L71.1261 963.899 L71.1261 967.835 L51.2188 967.835 L51.2188 963.899 Z" fill="#000000" fill-rule="evenodd" fill-opacity="1" /><path clip-path="url(#clip560)" d="M80.5705 961.955 L85.4547 961.955 L85.4547 967.835 L80.5705 967.835 L80.5705 961.955 Z" fill="#000000" fill-rule="evenodd" fill-opacity="1" /><path clip-path="url(#clip560)" d="M94.4593 933.275 L116.681 933.275 L116.681 935.265 L104.135 967.835 L99.2509 967.835 L111.056 937.21 L94.4593 937.21 L94.4593 933.275 Z" fill="#000000" fill-rule="evenodd" fill-opacity="1" /><path clip-path="url(#clip560)" d="M129.829 963.899 L146.149 963.899 L146.149 967.835 L124.205 967.835 L124.205 963.899 Q126.867 961.145 131.45 956.515 Q136.056 951.862 137.237 950.52 Q139.482 947.997 140.362 946.261 Q141.265 944.501 141.265 942.812 Q141.265 940.057 139.32 938.321 Q137.399 936.585 134.297 936.585 Q132.098 936.585 129.644 937.349 Q127.214 938.113 124.436 939.663 L124.436 934.941 Q127.26 933.807 129.714 933.228 Q132.167 932.65 134.204 932.65 Q139.575 932.65 142.769 935.335 Q145.964 938.02 145.964 942.511 Q145.964 944.64 145.153 946.562 Q144.366 948.46 142.26 951.052 Q141.681 951.724 138.579 954.941 Q135.478 958.136 129.829 963.899 Z" fill="#000000" fill-rule="evenodd" fill-opacity="1" /><path clip-path="url(#clip560)" d="M156.01 933.275 L174.366 933.275 L174.366 937.21 L160.292 937.21 L160.292 945.682 Q161.311 945.335 162.329 945.173 Q163.348 944.988 164.366 944.988 Q170.153 944.988 173.533 948.159 Q176.913 951.33 176.913 956.747 Q176.913 962.325 173.44 965.427 Q169.968 968.506 163.649 968.506 Q161.473 968.506 159.204 968.136 Q156.959 967.765 154.552 967.024 L154.552 962.325 Q156.635 963.46 158.857 964.015 Q161.079 964.571 163.556 964.571 Q167.561 964.571 169.899 962.464 Q172.237 960.358 172.237 956.747 Q172.237 953.136 169.899 951.029 Q167.561 948.923 163.556 948.923 Q161.681 948.923 159.806 949.339 Q157.954 949.756 156.01 950.636 L156.01 933.275 Z" fill="#000000" fill-rule="evenodd" fill-opacity="1" /><path clip-path="url(#clip560)" d="M50.2234 670.959 L57.8623 670.959 L57.8623 644.594 L49.5521 646.26 L49.5521 642.001 L57.816 640.334 L62.4919 640.334 L62.4919 670.959 L70.1307 670.959 L70.1307 674.894 L50.2234 674.894 L50.2234 670.959 Z" fill="#000000" fill-rule="evenodd" fill-opacity="1" /><path clip-path="url(#clip560)" d="M79.5751 669.015 L84.4593 669.015 L84.4593 674.894 L79.5751 674.894 L79.5751 669.015 Z" fill="#000000" fill-rule="evenodd" fill-opacity="1" /><path clip-path="url(#clip560)" d="M93.4639 640.334 L115.686 640.334 L115.686 642.325 L103.14 674.894 L98.2556 674.894 L110.061 644.269 L93.4639 644.269 L93.4639 640.334 Z" fill="#000000" fill-rule="evenodd" fill-opacity="1" /><path clip-path="url(#clip560)" d="M124.853 640.334 L143.209 640.334 L143.209 644.269 L129.135 644.269 L129.135 652.742 Q130.154 652.394 131.172 652.232 Q132.191 652.047 133.209 652.047 Q138.996 652.047 142.376 655.218 Q145.755 658.39 145.755 663.806 Q145.755 669.385 142.283 672.487 Q138.811 675.566 132.491 675.566 Q130.316 675.566 128.047 675.195 Q125.802 674.825 123.394 674.084 L123.394 669.385 Q125.478 670.519 127.7 671.075 Q129.922 671.63 132.399 671.63 Q136.404 671.63 138.741 669.524 Q141.079 667.417 141.079 663.806 Q141.079 660.195 138.741 658.089 Q136.404 655.982 132.399 655.982 Q130.524 655.982 128.649 656.399 Q126.797 656.816 124.853 657.695 L124.853 640.334 Z" fill="#000000" fill-rule="evenodd" fill-opacity="1" /><path clip-path="url(#clip560)" d="M164.968 643.413 Q161.357 643.413 159.528 646.978 Q157.723 650.519 157.723 657.649 Q157.723 664.755 159.528 668.32 Q161.357 671.862 164.968 671.862 Q168.602 671.862 170.408 668.32 Q172.237 664.755 172.237 657.649 Q172.237 650.519 170.408 646.978 Q168.602 643.413 164.968 643.413 M164.968 639.709 Q170.778 639.709 173.834 644.316 Q176.913 648.899 176.913 657.649 Q176.913 666.376 173.834 670.982 Q170.778 675.566 164.968 675.566 Q159.158 675.566 156.079 670.982 Q153.024 666.376 153.024 657.649 Q153.024 648.899 156.079 644.316 Q159.158 639.709 164.968 639.709 Z" fill="#000000" fill-rule="evenodd" fill-opacity="1" /><path clip-path="url(#clip560)" d="M51.2188 378.019 L58.8576 378.019 L58.8576 351.653 L50.5475 353.32 L50.5475 349.061 L58.8113 347.394 L63.4872 347.394 L63.4872 378.019 L71.1261 378.019 L71.1261 381.954 L51.2188 381.954 L51.2188 378.019 Z" fill="#000000" fill-rule="evenodd" fill-opacity="1" /><path clip-path="url(#clip560)" d="M80.5705 376.074 L85.4547 376.074 L85.4547 381.954 L80.5705 381.954 L80.5705 376.074 Z" fill="#000000" fill-rule="evenodd" fill-opacity="1" /><path clip-path="url(#clip560)" d="M94.4593 347.394 L116.681 347.394 L116.681 349.385 L104.135 381.954 L99.2509 381.954 L111.056 351.329 L94.4593 351.329 L94.4593 347.394 Z" fill="#000000" fill-rule="evenodd" fill-opacity="1" /><path clip-path="url(#clip560)" d="M124.621 347.394 L146.843 347.394 L146.843 349.385 L134.297 381.954 L129.413 381.954 L141.218 351.329 L124.621 351.329 L124.621 347.394 Z" fill="#000000" fill-rule="evenodd" fill-opacity="1" /><path clip-path="url(#clip560)" d="M156.01 347.394 L174.366 347.394 L174.366 351.329 L160.292 351.329 L160.292 359.801 Q161.311 359.454 162.329 359.292 Q163.348 359.107 164.366 359.107 Q170.153 359.107 173.533 362.278 Q176.913 365.449 176.913 370.866 Q176.913 376.445 173.44 379.547 Q169.968 382.625 163.649 382.625 Q161.473 382.625 159.204 382.255 Q156.959 381.885 154.552 381.144 L154.552 376.445 Q156.635 377.579 158.857 378.135 Q161.079 378.69 163.556 378.69 Q167.561 378.69 169.899 376.584 Q172.237 374.477 172.237 370.866 Q172.237 367.255 169.899 365.148 Q167.561 363.042 163.556 363.042 Q161.681 363.042 159.806 363.459 Q157.954 363.875 156.01 364.755 L156.01 347.394 Z" fill="#000000" fill-rule="evenodd" fill-opacity="1" /><path clip-path="url(#clip560)" d="M50.2234 85.0784 L57.8623 85.0784 L57.8623 58.7128 L49.5521 60.3795 L49.5521 56.1203 L57.816 54.4536 L62.4919 54.4536 L62.4919 85.0784 L70.1307 85.0784 L70.1307 89.0136 L50.2234 89.0136 L50.2234 85.0784 Z" fill="#000000" fill-rule="evenodd" fill-opacity="1" /><path clip-path="url(#clip560)" d="M79.5751 83.134 L84.4593 83.134 L84.4593 89.0136 L79.5751 89.0136 L79.5751 83.134 Z" fill="#000000" fill-rule="evenodd" fill-opacity="1" /><path clip-path="url(#clip560)" d="M104.644 72.6017 Q101.311 72.6017 99.3898 74.3841 Q97.4917 76.1665 97.4917 79.2914 Q97.4917 82.4164 99.3898 84.1988 Q101.311 85.9812 104.644 85.9812 Q107.978 85.9812 109.899 84.1988 Q111.82 82.3933 111.82 79.2914 Q111.82 76.1665 109.899 74.3841 Q108.001 72.6017 104.644 72.6017 M99.9685 70.6109 Q96.9593 69.8702 95.2695 67.81 Q93.6028 65.7498 93.6028 62.7869 Q93.6028 58.6434 96.5426 56.236 Q99.5056 53.8286 104.644 53.8286 Q109.806 53.8286 112.746 56.236 Q115.686 58.6434 115.686 62.7869 Q115.686 65.7498 113.996 67.81 Q112.33 69.8702 109.343 70.6109 Q112.723 71.398 114.598 73.6896 Q116.496 75.9813 116.496 79.2914 Q116.496 84.3146 113.418 86.9997 Q110.362 89.6849 104.644 89.6849 Q98.9269 89.6849 95.8482 86.9997 Q92.7926 84.3146 92.7926 79.2914 Q92.7926 75.9813 94.6908 73.6896 Q96.5889 71.398 99.9685 70.6109 M98.2556 63.2267 Q98.2556 65.9119 99.9222 67.4165 Q101.612 68.9211 104.644 68.9211 Q107.654 68.9211 109.343 67.4165 Q111.056 65.9119 111.056 63.2267 Q111.056 60.5415 109.343 59.0369 Q107.654 57.5323 104.644 57.5323 Q101.612 57.5323 99.9222 59.0369 Q98.2556 60.5415 98.2556 63.2267 Z" fill="#000000" fill-rule="evenodd" fill-opacity="1" /><path clip-path="url(#clip560)" d="M134.806 57.5323 Q131.195 57.5323 129.367 61.0971 Q127.561 64.6387 127.561 71.7683 Q127.561 78.8748 129.367 82.4396 Q131.195 85.9812 134.806 85.9812 Q138.441 85.9812 140.246 82.4396 Q142.075 78.8748 142.075 71.7683 Q142.075 64.6387 140.246 61.0971 Q138.441 57.5323 134.806 57.5323 M134.806 53.8286 Q140.616 53.8286 143.672 58.4351 Q146.751 63.0184 146.751 71.7683 Q146.751 80.4951 143.672 85.1016 Q140.616 89.6849 134.806 89.6849 Q128.996 89.6849 125.917 85.1016 Q122.862 80.4951 122.862 71.7683 Q122.862 63.0184 125.917 58.4351 Q128.996 53.8286 134.806 53.8286 Z" fill="#000000" fill-rule="evenodd" fill-opacity="1" /><path clip-path="url(#clip560)" d="M164.968 57.5323 Q161.357 57.5323 159.528 61.0971 Q157.723 64.6387 157.723 71.7683 Q157.723 78.8748 159.528 82.4396 Q161.357 85.9812 164.968 85.9812 Q168.602 85.9812 170.408 82.4396 Q172.237 78.8748 172.237 71.7683 Q172.237 64.6387 170.408 61.0971 Q168.602 57.5323 164.968 57.5323 M164.968 53.8286 Q170.778 53.8286 173.834 58.4351 Q176.913 63.0184 176.913 71.7683 Q176.913 80.4951 173.834 85.1016 Q170.778 89.6849 164.968 89.6849 Q159.158 89.6849 156.079 85.1016 Q153.024 80.4951 153.024 71.7683 Q153.024 63.0184 156.079 58.4351 Q159.158 53.8286 164.968 53.8286 Z" fill="#000000" fill-rule="evenodd" fill-opacity="1" /><polyline clip-path="url(#clip562)" style="stroke:#009af9; stroke-linecap:round; stroke-linejoin:round; stroke-width:4; stroke-opacity:1; fill:none" points="
  285.918,880.718 449.225,882.864 612.379,901.96 775.146,950.056 937.053,1056.8 1097.13,1284.48 1253.44,1751.15 1416.89,864.902 1586.53,96.8724 1752.73,523.638 
  1917.45,707.959 2081.49,790.925 2245.22,830.391 2408.78,852.73 2572.17,872.551 
  "/>
<polyline clip-path="url(#clip562)" style="stroke:#e26f46; stroke-linecap:round; stroke-linejoin:round; stroke-width:4; stroke-opacity:1; fill:none" points="
  285.823,892.522 449.009,897.894 612.175,900.521 775.301,905.34 938.299,921.356 1100.84,978.127 1261.79,1175.83 1427.54,579.136 1592.35,696.701 1755.97,843.862 
  1919.27,883.927 2082.48,894.804 2245.67,897.119 2408.88,895.239 2572.17,885.615 
  "/>
<path clip-path="url(#clip560)" d="
M2145.38 1742.33 L2559.97 1742.33 L2559.97 1586.81 L2145.38 1586.81  Z
  " fill="#ffffff" fill-rule="evenodd" fill-opacity="1"/>
<polyline clip-path="url(#clip560)" style="stroke:#000000; stroke-linecap:round; stroke-linejoin:round; stroke-width:4; stroke-opacity:1; fill:none" points="
  2145.38,1742.33 2559.97,1742.33 2559.97,1586.81 2145.38,1586.81 2145.38,1742.33 
  "/>
<polyline clip-path="url(#clip560)" style="stroke:#009af9; stroke-linecap:round; stroke-linejoin:round; stroke-width:4; stroke-opacity:1; fill:none" points="
  2172.3,1638.65 2333.87,1638.65 
  "/>
<path clip-path="url(#clip560)" d="M2382.51 1640.28 L2382.51 1655.93 L2378.25 1655.93 L2378.25 1640.42 Q2378.25 1636.74 2376.82 1634.91 Q2375.38 1633.08 2372.51 1633.08 Q2369.06 1633.08 2367.07 1635.28 Q2365.08 1637.48 2365.08 1641.28 L2365.08 1655.93 L2360.8 1655.93 L2360.8 1630 L2365.08 1630 L2365.08 1634.03 Q2366.61 1631.69 2368.67 1630.53 Q2370.75 1629.38 2373.46 1629.38 Q2377.93 1629.38 2380.22 1632.16 Q2382.51 1634.91 2382.51 1640.28 Z" fill="#000000" fill-rule="evenodd" fill-opacity="1" /><path clip-path="url(#clip560)" d="M2401.05 1632.99 Q2397.63 1632.99 2395.64 1635.67 Q2393.65 1638.34 2393.65 1642.99 Q2393.65 1647.64 2395.61 1650.33 Q2397.6 1652.99 2401.05 1652.99 Q2404.46 1652.99 2406.45 1650.3 Q2408.44 1647.62 2408.44 1642.99 Q2408.44 1638.38 2406.45 1635.7 Q2404.46 1632.99 2401.05 1632.99 M2401.05 1629.38 Q2406.61 1629.38 2409.78 1632.99 Q2412.95 1636.6 2412.95 1642.99 Q2412.95 1649.35 2409.78 1652.99 Q2406.61 1656.6 2401.05 1656.6 Q2395.48 1656.6 2392.3 1652.99 Q2389.16 1649.35 2389.16 1642.99 Q2389.16 1636.6 2392.3 1632.99 Q2395.48 1629.38 2401.05 1629.38 Z" fill="#000000" fill-rule="evenodd" fill-opacity="1" /><path clip-path="url(#clip560)" d="M2435.04 1633.98 Q2434.32 1633.57 2433.46 1633.38 Q2432.63 1633.17 2431.61 1633.17 Q2428 1633.17 2426.05 1635.53 Q2424.13 1637.87 2424.13 1642.27 L2424.13 1655.93 L2419.85 1655.93 L2419.85 1630 L2424.13 1630 L2424.13 1634.03 Q2425.47 1631.67 2427.63 1630.53 Q2429.78 1629.38 2432.86 1629.38 Q2433.3 1629.38 2433.83 1629.45 Q2434.36 1629.49 2435.01 1629.61 L2435.04 1633.98 Z" fill="#000000" fill-rule="evenodd" fill-opacity="1" /><path clip-path="url(#clip560)" d="M2458.85 1634.98 Q2460.45 1632.11 2462.67 1630.74 Q2464.9 1629.38 2467.91 1629.38 Q2471.96 1629.38 2474.16 1632.22 Q2476.35 1635.05 2476.35 1640.28 L2476.35 1655.93 L2472.07 1655.93 L2472.07 1640.42 Q2472.07 1636.69 2470.75 1634.89 Q2469.43 1633.08 2466.72 1633.08 Q2463.41 1633.08 2461.49 1635.28 Q2459.57 1637.48 2459.57 1641.28 L2459.57 1655.93 L2455.29 1655.93 L2455.29 1640.42 Q2455.29 1636.67 2453.97 1634.89 Q2452.65 1633.08 2449.9 1633.08 Q2446.63 1633.08 2444.71 1635.3 Q2442.79 1637.5 2442.79 1641.28 L2442.79 1655.93 L2438.51 1655.93 L2438.51 1630 L2442.79 1630 L2442.79 1634.03 Q2444.25 1631.65 2446.28 1630.51 Q2448.32 1629.38 2451.12 1629.38 Q2453.95 1629.38 2455.91 1630.81 Q2457.91 1632.25 2458.85 1634.98 Z" fill="#000000" fill-rule="evenodd" fill-opacity="1" /><path clip-path="url(#clip560)" d="M2496.63 1642.9 Q2491.47 1642.9 2489.48 1644.08 Q2487.49 1645.26 2487.49 1648.1 Q2487.49 1650.37 2488.97 1651.72 Q2490.47 1653.03 2493.04 1653.03 Q2496.59 1653.03 2498.72 1650.53 Q2500.87 1648.01 2500.87 1643.84 L2500.87 1642.9 L2496.63 1642.9 M2505.13 1641.14 L2505.13 1655.93 L2500.87 1655.93 L2500.87 1651.99 Q2499.41 1654.35 2497.23 1655.49 Q2495.06 1656.6 2491.91 1656.6 Q2487.93 1656.6 2485.57 1654.38 Q2483.23 1652.13 2483.23 1648.38 Q2483.23 1644.01 2486.15 1641.78 Q2489.09 1639.56 2494.9 1639.56 L2500.87 1639.56 L2500.87 1639.15 Q2500.87 1636.21 2498.92 1634.61 Q2497 1632.99 2493.51 1632.99 Q2491.28 1632.99 2489.18 1633.52 Q2487.07 1634.05 2485.13 1635.12 L2485.13 1631.18 Q2487.47 1630.28 2489.66 1629.84 Q2491.86 1629.38 2493.95 1629.38 Q2499.57 1629.38 2502.35 1632.29 Q2505.13 1635.21 2505.13 1641.14 Z" fill="#000000" fill-rule="evenodd" fill-opacity="1" /><path clip-path="url(#clip560)" d="M2513.9 1619.91 L2518.16 1619.91 L2518.16 1655.93 L2513.9 1655.93 L2513.9 1619.91 Z" fill="#000000" fill-rule="evenodd" fill-opacity="1" /><polyline clip-path="url(#clip560)" style="stroke:#e26f46; stroke-linecap:round; stroke-linejoin:round; stroke-width:4; stroke-opacity:1; fill:none" points="
  2172.3,1690.49 2333.87,1690.49 
  "/>
<path clip-path="url(#clip560)" d="M2360.8 1681.84 L2365.31 1681.84 L2373.41 1703.6 L2381.52 1681.84 L2386.03 1681.84 L2376.31 1707.77 L2370.52 1707.77 L2360.8 1681.84 Z" fill="#000000" fill-rule="evenodd" fill-opacity="1" /><path clip-path="url(#clip560)" d="M2403.69 1694.74 Q2398.53 1694.74 2396.54 1695.92 Q2394.55 1697.1 2394.55 1699.94 Q2394.55 1702.21 2396.03 1703.56 Q2397.54 1704.87 2400.1 1704.87 Q2403.65 1704.87 2405.78 1702.37 Q2407.93 1699.85 2407.93 1695.68 L2407.93 1694.74 L2403.69 1694.74 M2412.19 1692.98 L2412.19 1707.77 L2407.93 1707.77 L2407.93 1703.83 Q2406.47 1706.19 2404.29 1707.33 Q2402.12 1708.44 2398.97 1708.44 Q2394.99 1708.44 2392.63 1706.22 Q2390.29 1703.97 2390.29 1700.22 Q2390.29 1695.85 2393.21 1693.62 Q2396.15 1691.4 2401.96 1691.4 L2407.93 1691.4 L2407.93 1690.99 Q2407.93 1688.05 2405.98 1686.45 Q2404.06 1684.83 2400.57 1684.83 Q2398.35 1684.83 2396.24 1685.36 Q2394.13 1685.89 2392.19 1686.96 L2392.19 1683.02 Q2394.53 1682.12 2396.73 1681.68 Q2398.92 1681.22 2401.01 1681.22 Q2406.63 1681.22 2409.41 1684.13 Q2412.19 1687.05 2412.19 1692.98 Z" fill="#000000" fill-rule="evenodd" fill-opacity="1" /><path clip-path="url(#clip560)" d="M2435.98 1685.82 Q2435.27 1685.41 2434.41 1685.22 Q2433.58 1685.01 2432.56 1685.01 Q2428.95 1685.01 2427 1687.37 Q2425.08 1689.71 2425.08 1694.11 L2425.08 1707.77 L2420.8 1707.77 L2420.8 1681.84 L2425.08 1681.84 L2425.08 1685.87 Q2426.42 1683.51 2428.58 1682.37 Q2430.73 1681.22 2433.81 1681.22 Q2434.25 1681.22 2434.78 1681.29 Q2435.31 1681.33 2435.96 1681.45 L2435.98 1685.82 Z" fill="#000000" fill-rule="evenodd" fill-opacity="1" /><path clip-path="url(#clip560)" d="M2451.24 1710.18 Q2449.43 1714.81 2447.72 1716.22 Q2446.01 1717.63 2443.14 1717.63 L2439.73 1717.63 L2439.73 1714.06 L2442.23 1714.06 Q2443.99 1714.06 2444.97 1713.23 Q2445.94 1712.4 2447.12 1709.3 L2447.88 1707.35 L2437.4 1681.84 L2441.91 1681.84 L2450.01 1702.12 L2458.11 1681.84 L2462.63 1681.84 L2451.24 1710.18 Z" fill="#000000" fill-rule="evenodd" fill-opacity="1" /><path clip-path="url(#clip560)" d="M2468.51 1681.84 L2472.77 1681.84 L2472.77 1707.77 L2468.51 1707.77 L2468.51 1681.84 M2468.51 1671.75 L2472.77 1671.75 L2472.77 1677.14 L2468.51 1677.14 L2468.51 1671.75 Z" fill="#000000" fill-rule="evenodd" fill-opacity="1" /><path clip-path="url(#clip560)" d="M2503.23 1692.12 L2503.23 1707.77 L2498.97 1707.77 L2498.97 1692.26 Q2498.97 1688.58 2497.53 1686.75 Q2496.1 1684.92 2493.23 1684.92 Q2489.78 1684.92 2487.79 1687.12 Q2485.8 1689.32 2485.8 1693.12 L2485.8 1707.77 L2481.52 1707.77 L2481.52 1681.84 L2485.8 1681.84 L2485.8 1685.87 Q2487.33 1683.53 2489.39 1682.37 Q2491.47 1681.22 2494.18 1681.22 Q2498.65 1681.22 2500.94 1684 Q2503.23 1686.75 2503.23 1692.12 Z" fill="#000000" fill-rule="evenodd" fill-opacity="1" /><path clip-path="url(#clip560)" d="M2528.78 1694.5 Q2528.78 1689.87 2526.86 1687.33 Q2524.97 1684.78 2521.52 1684.78 Q2518.09 1684.78 2516.17 1687.33 Q2514.27 1689.87 2514.27 1694.5 Q2514.27 1699.11 2516.17 1701.66 Q2518.09 1704.2 2521.52 1704.2 Q2524.97 1704.2 2526.86 1701.66 Q2528.78 1699.11 2528.78 1694.5 M2533.04 1704.55 Q2533.04 1711.17 2530.1 1714.39 Q2527.16 1717.63 2521.1 1717.63 Q2518.85 1717.63 2516.86 1717.28 Q2514.87 1716.96 2513 1716.26 L2513 1712.12 Q2514.87 1713.14 2516.7 1713.62 Q2518.53 1714.11 2520.43 1714.11 Q2524.62 1714.11 2526.7 1711.91 Q2528.78 1709.74 2528.78 1705.31 L2528.78 1703.21 Q2527.47 1705.5 2525.4 1706.63 Q2523.34 1707.77 2520.47 1707.77 Q2515.71 1707.77 2512.79 1704.13 Q2509.87 1700.5 2509.87 1694.5 Q2509.87 1688.49 2512.79 1684.85 Q2515.71 1681.22 2520.47 1681.22 Q2523.34 1681.22 2525.4 1682.35 Q2527.47 1683.49 2528.78 1685.78 L2528.78 1681.84 L2533.04 1681.84 L2533.04 1704.55 Z" fill="#000000" fill-rule="evenodd" fill-opacity="1" /></svg>
