<?xml version="1.0" encoding="utf-8"?>
<svg xmlns="http://www.w3.org/2000/svg" xmlns:xlink="http://www.w3.org/1999/xlink" width="672" height="480" viewBox="0 0 2688 1920">
<defs>
  <clipPath id="clip480">
    <rect x="0" y="0" width="2688" height="1920"/>
  </clipPath>
</defs>
<path clip-path="url(#clip480)" d="
M0 1920 L2688 1920 L2688 0 L0 0  Z
  " fill="#ffffff" fill-rule="evenodd" fill-opacity="1"/>
<defs>
  <clipPath id="clip481">
    <rect x="537" y="0" width="1883" height="1883"/>
  </clipPath>
</defs>
<path clip-path="url(#clip480)" d="
M257.14 1800.78 L2640.76 1800.78 L2640.76 47.2441 L257.14 47.2441  Z
  " fill="#ffffff" fill-rule="evenodd" fill-opacity="1"/>
<defs>
  <clipPath id="clip482">
    <rect x="257" y="47" width="2385" height="1755"/>
  </clipPath>
</defs>
<polyline clip-path="url(#clip482)" style="stroke:#000000; stroke-linecap:round; stroke-linejoin:round; stroke-width:2; stroke-opacity:0.1; fill:none" points="
  324.601,1800.78 324.601,47.2441 
  "/>
<polyline clip-path="url(#clip482)" style="stroke:#000000; stroke-linecap:round; stroke-linejoin:round; stroke-width:2; stroke-opacity:0.1; fill:none" points="
  872.752,1800.78 872.752,47.2441 
  "/>
<polyline clip-path="url(#clip482)" style="stroke:#000000; stroke-linecap:round; stroke-linejoin:round; stroke-width:2; stroke-opacity:0.1; fill:none" points="
  1420.9,1800.78 1420.9,47.2441 
  "/>
<polyline clip-path="url(#clip482)" style="stroke:#000000; stroke-linecap:round; stroke-linejoin:round; stroke-width:2; stroke-opacity:0.1; fill:none" points="
  1969.05,1800.78 1969.05,47.2441 
  "/>
<polyline clip-path="url(#clip482)" style="stroke:#000000; stroke-linecap:round; stroke-linejoin:round; stroke-width:2; stroke-opacity:0.1; fill:none" points="
  2517.2,1800.78 2517.2,47.2441 
  "/>
<polyline clip-path="url(#clip480)" style="stroke:#000000; stroke-linecap:round; stroke-linejoin:round; stroke-width:4; stroke-opacity:1; fill:none" points="
  257.14,1800.78 2640.76,1800.78 
  "/>
<polyline clip-path="url(#clip480)" style="stroke:#000000; stroke-linecap:round; stroke-linejoin:round; stroke-width:4; stroke-opacity:1; fill:none" points="
  324.601,1800.78 324.601,1781.88 
  "/>
<polyline clip-path="url(#clip480)" style="stroke:#000000; stroke-linecap:round; stroke-linejoin:round; stroke-width:4; stroke-opacity:1; fill:none" points="
  872.752,1800.78 872.752,1781.88 
  "/>
<polyline clip-path="url(#clip480)" style="stroke:#000000; stroke-linecap:round; stroke-linejoin:round; stroke-width:4; stroke-opacity:1; fill:none" points="
  1420.9,1800.78 1420.9,1781.88 
  "/>
<polyline clip-path="url(#clip480)" style="stroke:#000000; stroke-linecap:round; stroke-linejoin:round; stroke-width:4; stroke-opacity:1; fill:none" points="
  1969.05,1800.78 1969.05,1781.88 
  "/>
<polyline clip-path="url(#clip480)" style="stroke:#000000; stroke-linecap:round; stroke-linejoin:round; stroke-width:4; stroke-opacity:1; fill:none" points="
  2517.2,1800.78 2517.2,1781.88 
  "/>
<path clip-path="url(#clip480)" d="M324.601 1834 Q320.989 1834 319.161 1837.57 Q317.355 1841.11 317.355 1848.24 Q317.355 1855.34 319.161 1858.91 Q320.989 1862.45 324.601 1862.45 Q328.235 1862.45 330.04 1858.91 Q331.869 1855.34 331.869 1848.24 Q331.869 1841.11 330.04 1837.57 Q328.235 1834 324.601 1834 M324.601 1830.3 Q330.411 1830.3 333.466 1834.9 Q336.545 1839.49 336.545 1848.24 Q336.545 1856.96 333.466 1861.57 Q330.411 1866.15 324.601 1866.15 Q318.79 1866.15 315.712 1861.57 Q312.656 1856.96 312.656 1848.24 Q312.656 1839.49 315.712 1834.9 Q318.79 1830.3 324.601 1830.3 Z" fill="#000000" fill-rule="evenodd" fill-opacity="1" /><path clip-path="url(#clip480)" d="M863.134 1861.55 L870.772 1861.55 L870.772 1835.18 L862.462 1836.85 L862.462 1832.59 L870.726 1830.92 L875.402 1830.92 L875.402 1861.55 L883.041 1861.55 L883.041 1865.48 L863.134 1865.48 L863.134 1861.55 Z" fill="#000000" fill-rule="evenodd" fill-opacity="1" /><path clip-path="url(#clip480)" d="M1415.56 1861.55 L1431.87 1861.55 L1431.87 1865.48 L1409.93 1865.48 L1409.93 1861.55 Q1412.59 1858.79 1417.18 1854.16 Q1421.78 1849.51 1422.96 1848.17 Q1425.21 1845.65 1426.09 1843.91 Q1426.99 1842.15 1426.99 1840.46 Q1426.99 1837.71 1425.05 1835.97 Q1423.12 1834.23 1420.02 1834.23 Q1417.82 1834.23 1415.37 1835 Q1412.94 1835.76 1410.16 1837.31 L1410.16 1832.59 Q1412.99 1831.46 1415.44 1830.88 Q1417.89 1830.3 1419.93 1830.3 Q1425.3 1830.3 1428.5 1832.98 Q1431.69 1835.67 1431.69 1840.16 Q1431.69 1842.29 1430.88 1844.21 Q1430.09 1846.11 1427.99 1848.7 Q1427.41 1849.37 1424.31 1852.59 Q1421.2 1855.78 1415.56 1861.55 Z" fill="#000000" fill-rule="evenodd" fill-opacity="1" /><path clip-path="url(#clip480)" d="M1973.3 1846.85 Q1976.66 1847.57 1978.53 1849.84 Q1980.43 1852.1 1980.43 1855.44 Q1980.43 1860.55 1976.91 1863.35 Q1973.39 1866.15 1966.91 1866.15 Q1964.74 1866.15 1962.42 1865.71 Q1960.13 1865.3 1957.68 1864.44 L1957.68 1859.93 Q1959.62 1861.06 1961.94 1861.64 Q1964.25 1862.22 1966.77 1862.22 Q1971.17 1862.22 1973.46 1860.48 Q1975.78 1858.75 1975.78 1855.44 Q1975.78 1852.38 1973.63 1850.67 Q1971.5 1848.93 1967.68 1848.93 L1963.65 1848.93 L1963.65 1845.09 L1967.86 1845.09 Q1971.31 1845.09 1973.14 1843.72 Q1974.97 1842.34 1974.97 1839.74 Q1974.97 1837.08 1973.07 1835.67 Q1971.19 1834.23 1967.68 1834.23 Q1965.76 1834.23 1963.56 1834.65 Q1961.36 1835.07 1958.72 1835.95 L1958.72 1831.78 Q1961.38 1831.04 1963.69 1830.67 Q1966.03 1830.3 1968.09 1830.3 Q1973.42 1830.3 1976.52 1832.73 Q1979.62 1835.14 1979.62 1839.26 Q1979.62 1842.13 1977.98 1844.12 Q1976.33 1846.09 1973.3 1846.85 Z" fill="#000000" fill-rule="evenodd" fill-opacity="1" /><path clip-path="url(#clip480)" d="M2520.21 1835 L2508.41 1853.45 L2520.21 1853.45 L2520.21 1835 M2518.99 1830.92 L2524.87 1830.92 L2524.87 1853.45 L2529.8 1853.45 L2529.8 1857.34 L2524.87 1857.34 L2524.87 1865.48 L2520.21 1865.48 L2520.21 1857.34 L2504.61 1857.34 L2504.61 1852.82 L2518.99 1830.92 Z" fill="#000000" fill-rule="evenodd" fill-opacity="1" /><polyline clip-path="url(#clip482)" style="stroke:#000000; stroke-linecap:round; stroke-linejoin:round; stroke-width:2; stroke-opacity:0.1; fill:none" points="
  257.14,1714.39 2640.76,1714.39 
  "/>
<polyline clip-path="url(#clip482)" style="stroke:#000000; stroke-linecap:round; stroke-linejoin:round; stroke-width:2; stroke-opacity:0.1; fill:none" points="
  257.14,1440.32 2640.76,1440.32 
  "/>
<polyline clip-path="url(#clip482)" style="stroke:#000000; stroke-linecap:round; stroke-linejoin:round; stroke-width:2; stroke-opacity:0.1; fill:none" points="
  257.14,1166.24 2640.76,1166.24 
  "/>
<polyline clip-path="url(#clip482)" style="stroke:#000000; stroke-linecap:round; stroke-linejoin:round; stroke-width:2; stroke-opacity:0.1; fill:none" points="
  257.14,892.167 2640.76,892.167 
  "/>
<polyline clip-path="url(#clip482)" style="stroke:#000000; stroke-linecap:round; stroke-linejoin:round; stroke-width:2; stroke-opacity:0.1; fill:none" points="
  257.14,618.091 2640.76,618.091 
  "/>
<polyline clip-path="url(#clip482)" style="stroke:#000000; stroke-linecap:round; stroke-linejoin:round; stroke-width:2; stroke-opacity:0.1; fill:none" points="
  257.14,344.016 2640.76,344.016 
  "/>
<polyline clip-path="url(#clip482)" style="stroke:#000000; stroke-linecap:round; stroke-linejoin:round; stroke-width:2; stroke-opacity:0.1; fill:none" points="
  257.14,69.9403 2640.76,69.9403 
  "/>
<polyline clip-path="url(#clip480)" style="stroke:#000000; stroke-linecap:round; stroke-linejoin:round; stroke-width:4; stroke-opacity:1; fill:none" points="
  257.14,1800.78 257.14,47.2441 
  "/>
<polyline clip-path="url(#clip480)" style="stroke:#000000; stroke-linecap:round; stroke-linejoin:round; stroke-width:4; stroke-opacity:1; fill:none" points="
  257.14,1714.39 276.037,1714.39 
  "/>
<polyline clip-path="url(#clip480)" style="stroke:#000000; stroke-linecap:round; stroke-linejoin:round; stroke-width:4; stroke-opacity:1; fill:none" points="
  257.14,1440.32 276.037,1440.32 
  "/>
<polyline clip-path="url(#clip480)" style="stroke:#000000; stroke-linecap:round; stroke-linejoin:round; stroke-width:4; stroke-opacity:1; fill:none" points="
  257.14,1166.24 276.037,1166.24 
  "/>
<polyline clip-path="url(#clip480)" style="stroke:#000000; stroke-linecap:round; stroke-linejoin:round; stroke-width:4; stroke-opacity:1; fill:none" points="
  257.14,892.167 276.037,892.167 
  "/>
<polyline clip-path="url(#clip480)" style="stroke:#000000; stroke-linecap:round; stroke-linejoin:round; stroke-width:4; stroke-opacity:1; fill:none" points="
  257.14,618.091 276.037,618.091 
  "/>
<polyline clip-path="url(#clip480)" style="stroke:#000000; stroke-linecap:round; stroke-linejoin:round; stroke-width:4; stroke-opacity:1; fill:none" points="
  257.14,344.016 276.037,344.016 
  "/>
<polyline clip-path="url(#clip480)" style="stroke:#000000; stroke-linecap:round; stroke-linejoin:round; stroke-width:4; stroke-opacity:1; fill:none" points="
  257.14,69.9403 276.037,69.9403 
  "/>
<path clip-path="url(#clip480)" d="M110.871 1714.84 L140.547 1714.84 L140.547 1718.78 L110.871 1718.78 L110.871 1714.84 Z" fill="#000000" fill-rule="evenodd" fill-opacity="1" /><path clip-path="url(#clip480)" d="M151.45 1727.74 L159.089 1727.74 L159.089 1701.37 L150.778 1703.04 L150.778 1698.78 L159.042 1697.11 L163.718 1697.11 L163.718 1727.74 L171.357 1727.74 L171.357 1731.67 L151.45 1731.67 L151.45 1727.74 Z" fill="#000000" fill-rule="evenodd" fill-opacity="1" /><path clip-path="url(#clip480)" d="M180.801 1725.79 L185.686 1725.79 L185.686 1731.67 L180.801 1731.67 L180.801 1725.79 Z" fill="#000000" fill-rule="evenodd" fill-opacity="1" /><path clip-path="url(#clip480)" d="M195.917 1697.11 L214.273 1697.11 L214.273 1701.05 L200.199 1701.05 L200.199 1709.52 Q201.218 1709.17 202.236 1709.01 Q203.255 1708.83 204.274 1708.83 Q210.061 1708.83 213.44 1712 Q216.82 1715.17 216.82 1720.59 Q216.82 1726.16 213.348 1729.27 Q209.875 1732.34 203.556 1732.34 Q201.38 1732.34 199.112 1731.97 Q196.866 1731.6 194.459 1730.86 L194.459 1726.16 Q196.542 1727.3 198.764 1727.85 Q200.986 1728.41 203.463 1728.41 Q207.468 1728.41 209.806 1726.3 Q212.144 1724.2 212.144 1720.59 Q212.144 1716.97 209.806 1714.87 Q207.468 1712.76 203.463 1712.76 Q201.588 1712.76 199.713 1713.18 Q197.862 1713.59 195.917 1714.47 L195.917 1697.11 Z" fill="#000000" fill-rule="evenodd" fill-opacity="1" /><path clip-path="url(#clip480)" d="M109.876 1440.77 L139.552 1440.77 L139.552 1444.7 L109.876 1444.7 L109.876 1440.77 Z" fill="#000000" fill-rule="evenodd" fill-opacity="1" /><path clip-path="url(#clip480)" d="M150.454 1453.66 L158.093 1453.66 L158.093 1427.3 L149.783 1428.96 L149.783 1424.7 L158.047 1423.04 L162.723 1423.04 L162.723 1453.66 L170.362 1453.66 L170.362 1457.6 L150.454 1457.6 L150.454 1453.66 Z" fill="#000000" fill-rule="evenodd" fill-opacity="1" /><path clip-path="url(#clip480)" d="M179.806 1451.72 L184.69 1451.72 L184.69 1457.6 L179.806 1457.6 L179.806 1451.72 Z" fill="#000000" fill-rule="evenodd" fill-opacity="1" /><path clip-path="url(#clip480)" d="M204.875 1426.12 Q201.264 1426.12 199.436 1429.68 Q197.63 1433.22 197.63 1440.35 Q197.63 1447.46 199.436 1451.02 Q201.264 1454.57 204.875 1454.57 Q208.51 1454.57 210.315 1451.02 Q212.144 1447.46 212.144 1440.35 Q212.144 1433.22 210.315 1429.68 Q208.51 1426.12 204.875 1426.12 M204.875 1422.41 Q210.686 1422.41 213.741 1427.02 Q216.82 1431.6 216.82 1440.35 Q216.82 1449.08 213.741 1453.69 Q210.686 1458.27 204.875 1458.27 Q199.065 1458.27 195.987 1453.69 Q192.931 1449.08 192.931 1440.35 Q192.931 1431.6 195.987 1427.02 Q199.065 1422.41 204.875 1422.41 Z" fill="#000000" fill-rule="evenodd" fill-opacity="1" /><path clip-path="url(#clip480)" d="M110.871 1166.69 L140.547 1166.69 L140.547 1170.63 L110.871 1170.63 L110.871 1166.69 Z" fill="#000000" fill-rule="evenodd" fill-opacity="1" /><path clip-path="url(#clip480)" d="M160.639 1152.04 Q157.028 1152.04 155.2 1155.61 Q153.394 1159.15 153.394 1166.28 Q153.394 1173.38 155.2 1176.95 Q157.028 1180.49 160.639 1180.49 Q164.274 1180.49 166.079 1176.95 Q167.908 1173.38 167.908 1166.28 Q167.908 1159.15 166.079 1155.61 Q164.274 1152.04 160.639 1152.04 M160.639 1148.34 Q166.45 1148.34 169.505 1152.94 Q172.584 1157.53 172.584 1166.28 Q172.584 1175 169.505 1179.61 Q166.45 1184.19 160.639 1184.19 Q154.829 1184.19 151.751 1179.61 Q148.695 1175 148.695 1166.28 Q148.695 1157.53 151.751 1152.94 Q154.829 1148.34 160.639 1148.34 Z" fill="#000000" fill-rule="evenodd" fill-opacity="1" /><path clip-path="url(#clip480)" d="M180.801 1177.64 L185.686 1177.64 L185.686 1183.52 L180.801 1183.52 L180.801 1177.64 Z" fill="#000000" fill-rule="evenodd" fill-opacity="1" /><path clip-path="url(#clip480)" d="M195.917 1148.96 L214.273 1148.96 L214.273 1152.9 L200.199 1152.9 L200.199 1161.37 Q201.218 1161.02 202.236 1160.86 Q203.255 1160.68 204.274 1160.68 Q210.061 1160.68 213.44 1163.85 Q216.82 1167.02 216.82 1172.43 Q216.82 1178.01 213.348 1181.11 Q209.875 1184.19 203.556 1184.19 Q201.38 1184.19 199.112 1183.82 Q196.866 1183.45 194.459 1182.71 L194.459 1178.01 Q196.542 1179.15 198.764 1179.7 Q200.986 1180.26 203.463 1180.26 Q207.468 1180.26 209.806 1178.15 Q212.144 1176.05 212.144 1172.43 Q212.144 1168.82 209.806 1166.72 Q207.468 1164.61 203.463 1164.61 Q201.588 1164.61 199.713 1165.03 Q197.862 1165.44 195.917 1166.32 L195.917 1148.96 Z" fill="#000000" fill-rule="evenodd" fill-opacity="1" /><path clip-path="url(#clip480)" d="M159.644 877.965 Q156.033 877.965 154.204 881.53 Q152.399 885.072 152.399 892.202 Q152.399 899.308 154.204 902.873 Q156.033 906.414 159.644 906.414 Q163.278 906.414 165.084 902.873 Q166.913 899.308 166.913 892.202 Q166.913 885.072 165.084 881.53 Q163.278 877.965 159.644 877.965 M159.644 874.262 Q165.454 874.262 168.51 878.868 Q171.589 883.452 171.589 892.202 Q171.589 900.928 168.51 905.535 Q165.454 910.118 159.644 910.118 Q153.834 910.118 150.755 905.535 Q147.7 900.928 147.7 892.202 Q147.7 883.452 150.755 878.868 Q153.834 874.262 159.644 874.262 Z" fill="#000000" fill-rule="evenodd" fill-opacity="1" /><path clip-path="url(#clip480)" d="M179.806 903.567 L184.69 903.567 L184.69 909.447 L179.806 909.447 L179.806 903.567 Z" fill="#000000" fill-rule="evenodd" fill-opacity="1" /><path clip-path="url(#clip480)" d="M204.875 877.965 Q201.264 877.965 199.436 881.53 Q197.63 885.072 197.63 892.202 Q197.63 899.308 199.436 902.873 Q201.264 906.414 204.875 906.414 Q208.51 906.414 210.315 902.873 Q212.144 899.308 212.144 892.202 Q212.144 885.072 210.315 881.53 Q208.51 877.965 204.875 877.965 M204.875 874.262 Q210.686 874.262 213.741 878.868 Q216.82 883.452 216.82 892.202 Q216.82 900.928 213.741 905.535 Q210.686 910.118 204.875 910.118 Q199.065 910.118 195.987 905.535 Q192.931 900.928 192.931 892.202 Q192.931 883.452 195.987 878.868 Q199.065 874.262 204.875 874.262 Z" fill="#000000" fill-rule="evenodd" fill-opacity="1" /><path clip-path="url(#clip480)" d="M160.639 603.89 Q157.028 603.89 155.2 607.455 Q153.394 610.996 153.394 618.126 Q153.394 625.232 155.2 628.797 Q157.028 632.339 160.639 632.339 Q164.274 632.339 166.079 628.797 Q167.908 625.232 167.908 618.126 Q167.908 610.996 166.079 607.455 Q164.274 603.89 160.639 603.89 M160.639 600.186 Q166.45 600.186 169.505 604.793 Q172.584 609.376 172.584 618.126 Q172.584 626.853 169.505 631.459 Q166.45 636.043 160.639 636.043 Q154.829 636.043 151.751 631.459 Q148.695 626.853 148.695 618.126 Q148.695 609.376 151.751 604.793 Q154.829 600.186 160.639 600.186 Z" fill="#000000" fill-rule="evenodd" fill-opacity="1" /><path clip-path="url(#clip480)" d="M180.801 629.492 L185.686 629.492 L185.686 635.371 L180.801 635.371 L180.801 629.492 Z" fill="#000000" fill-rule="evenodd" fill-opacity="1" /><path clip-path="url(#clip480)" d="M195.917 600.811 L214.273 600.811 L214.273 604.746 L200.199 604.746 L200.199 613.219 Q201.218 612.871 202.236 612.709 Q203.255 612.524 204.274 612.524 Q210.061 612.524 213.44 615.695 Q216.82 618.867 216.82 624.283 Q216.82 629.862 213.348 632.964 Q209.875 636.043 203.556 636.043 Q201.38 636.043 199.112 635.672 Q196.866 635.302 194.459 634.561 L194.459 629.862 Q196.542 630.996 198.764 631.552 Q200.986 632.107 203.463 632.107 Q207.468 632.107 209.806 630.001 Q212.144 627.894 212.144 624.283 Q212.144 620.672 209.806 618.566 Q207.468 616.459 203.463 616.459 Q201.588 616.459 199.713 616.876 Q197.862 617.293 195.917 618.172 L195.917 600.811 Z" fill="#000000" fill-rule="evenodd" fill-opacity="1" /><path clip-path="url(#clip480)" d="M150.454 357.361 L158.093 357.361 L158.093 330.995 L149.783 332.662 L149.783 328.402 L158.047 326.736 L162.723 326.736 L162.723 357.361 L170.362 357.361 L170.362 361.296 L150.454 361.296 L150.454 357.361 Z" fill="#000000" fill-rule="evenodd" fill-opacity="1" /><path clip-path="url(#clip480)" d="M179.806 355.416 L184.69 355.416 L184.69 361.296 L179.806 361.296 L179.806 355.416 Z" fill="#000000" fill-rule="evenodd" fill-opacity="1" /><path clip-path="url(#clip480)" d="M204.875 329.814 Q201.264 329.814 199.436 333.379 Q197.63 336.921 197.63 344.051 Q197.63 351.157 199.436 354.722 Q201.264 358.263 204.875 358.263 Q208.51 358.263 210.315 354.722 Q212.144 351.157 212.144 344.051 Q212.144 336.921 210.315 333.379 Q208.51 329.814 204.875 329.814 M204.875 326.111 Q210.686 326.111 213.741 330.717 Q216.82 335.301 216.82 344.051 Q216.82 352.777 213.741 357.384 Q210.686 361.967 204.875 361.967 Q199.065 361.967 195.987 357.384 Q192.931 352.777 192.931 344.051 Q192.931 335.301 195.987 330.717 Q199.065 326.111 204.875 326.111 Z" fill="#000000" fill-rule="evenodd" fill-opacity="1" /><path clip-path="url(#clip480)" d="M151.45 83.2851 L159.089 83.2851 L159.089 56.9195 L150.778 58.5862 L150.778 54.3269 L159.042 52.6603 L163.718 52.6603 L163.718 83.2851 L171.357 83.2851 L171.357 87.2203 L151.45 87.2203 L151.45 83.2851 Z" fill="#000000" fill-rule="evenodd" fill-opacity="1" /><path clip-path="url(#clip480)" d="M180.801 81.3407 L185.686 81.3407 L185.686 87.2203 L180.801 87.2203 L180.801 81.3407 Z" fill="#000000" fill-rule="evenodd" fill-opacity="1" /><path clip-path="url(#clip480)" d="M195.917 52.6603 L214.273 52.6603 L214.273 56.5954 L200.199 56.5954 L200.199 65.0676 Q201.218 64.7204 202.236 64.5584 Q203.255 64.3732 204.274 64.3732 Q210.061 64.3732 213.44 67.5444 Q216.82 70.7157 216.82 76.1324 Q216.82 81.711 213.348 84.8129 Q209.875 87.8916 203.556 87.8916 Q201.38 87.8916 199.112 87.5212 Q196.866 87.1508 194.459 86.4101 L194.459 81.711 Q196.542 82.8453 198.764 83.4008 Q200.986 83.9564 203.463 83.9564 Q207.468 83.9564 209.806 81.8499 Q212.144 79.7435 212.144 76.1324 Q212.144 72.5213 209.806 70.4148 Q207.468 68.3083 203.463 68.3083 Q201.588 68.3083 199.713 68.725 Q197.862 69.1417 195.917 70.0213 L195.917 52.6603 Z" fill="#000000" fill-rule="evenodd" fill-opacity="1" /><polyline clip-path="url(#clip482)" style="stroke:#009af9; stroke-linecap:round; stroke-linejoin:round; stroke-width:4; stroke-opacity:1; fill:none" points="
  324.601,892.167 697.218,941.881 1072.95,953.877 1448.86,955.87 1824.77,953.26 2200.47,940.256 2573.3,892.154 
  "/>
<path clip-path="url(#clip480)" d="
M2270.51 1742.33 L2561.3 1742.33 L2561.3 1638.65 L2270.51 1638.65  Z
  " fill="#ffffff" fill-rule="evenodd" fill-opacity="1"/>
<polyline clip-path="url(#clip480)" style="stroke:#000000; stroke-linecap:round; stroke-linejoin:round; stroke-width:4; stroke-opacity:1; fill:none" points="
  2270.51,1742.33 2561.3,1742.33 2561.3,1638.65 2270.51,1638.65 2270.51,1742.33 
  "/>
<polyline clip-path="url(#clip480)" style="stroke:#009af9; stroke-linecap:round; stroke-linejoin:round; stroke-width:4; stroke-opacity:1; fill:none" points="
  2296.99,1690.49 2455.9,1690.49 
  "/>
<path clip-path="url(#clip480)" d="M2496.23 1710.18 Q2494.42 1714.81 2492.71 1716.22 Q2491 1717.63 2488.13 1717.63 L2484.73 1717.63 L2484.73 1714.06 L2487.23 1714.06 Q2488.98 1714.06 2489.96 1713.23 Q2490.93 1712.4 2492.11 1709.3 L2492.87 1707.35 L2482.39 1681.84 L2486.9 1681.84 L2495 1702.12 L2503.1 1681.84 L2507.62 1681.84 L2496.23 1710.18 Z" fill="#000000" fill-rule="evenodd" fill-opacity="1" /><path clip-path="url(#clip480)" d="M2514.91 1703.83 L2522.55 1703.83 L2522.55 1677.47 L2514.24 1679.13 L2514.24 1674.87 L2522.5 1673.21 L2527.18 1673.21 L2527.18 1703.83 L2534.82 1703.83 L2534.82 1707.77 L2514.91 1707.77 L2514.91 1703.83 Z" fill="#000000" fill-rule="evenodd" fill-opacity="1" /></svg>
