<svg class="main-svg" xmlns="http://www.w3.org/2000/svg" xmlns:xlink="http://www.w3.org/1999/xlink" width="700" height="500" style="" viewBox="0 0 700 500"><rect x="0" y="0" width="700" height="500" style="fill: rgb(255, 255, 255); fill-opacity: 1;"/><defs id="defs-c82d9e"><g class="clips"><clipPath id="clipc82d9exyplot" class="plotclip"><rect width="555.5192319710036" height="151.36277887139107"/></clipPath><clipPath id="clipc82d9ex2y2plot" class="plotclip"><rect width="555.5192319710036" height="151.36277887139107"/></clipPath><clipPath class="axesclip" id="clipc82d9ex"><rect x="90.96558242719661" y="0" width="555.5192319710036" height="500"/></clipPath><clipPath class="axesclip" id="clipc82d9ey"><rect x="0" y="78.99743000874889" width="700" height="151.36277887139107"/></clipPath><clipPath class="axesclip" id="clipc82d9exy"><rect x="90.96558242719661" y="78.99743000874889" width="555.5192319710036" height="151.36277887139107"/></clipPath><clipPath class="axesclip" id="clipc82d9ey2"><rect x="0" y="273.9974300087489" width="700" height="151.36277887139107"/></clipPath><clipPath class="axesclip" id="clipc82d9exy2"><rect x="90.96558242719661" y="273.9974300087489" width="555.5192319710036" height="151.36277887139107"/></clipPath><clipPath class="axesclip" id="clipc82d9ex2"><rect x="90.96558242719661" y="0" width="555.5192319710036" height="500"/></clipPath><clipPath class="axesclip" id="clipc82d9ex2y"><rect x="90.96558242719661" y="78.99743000874889" width="555.5192319710036" height="151.36277887139107"/></clipPath><clipPath class="axesclip" id="clipc82d9ex2y2"><rect x="90.96558242719661" y="273.9974300087489" width="555.5192319710036" height="151.36277887139107"/></clipPath></g><g class="gradients"/></defs><g class="bglayer"/><g class="layer-below"><g class="imagelayer"/><g class="shapelayer"/></g><g class="cartesianlayer"><g class="subplot xy"><g class="layer-subplot"><g class="shapelayer"/><g class="imagelayer"/></g><g class="gridlayer"><g class="x"><path class="xgrid crisp" transform="translate(106.68558242719661,0)" d="M0,78.99743000874889v151.36277887139107" style="stroke: rgb(0, 0, 0); stroke-opacity: 0.1; stroke-width: 0.5px;"/><path class="xgrid crisp" transform="translate(202.67558242719662,0)" d="M0,78.99743000874889v151.36277887139107" style="stroke: rgb(0, 0, 0); stroke-opacity: 0.1; stroke-width: 0.5px;"/><path class="xgrid crisp" transform="translate(298.66558242719657,0)" d="M0,78.99743000874889v151.36277887139107" style="stroke: rgb(0, 0, 0); stroke-opacity: 0.1; stroke-width: 0.5px;"/><path class="xgrid crisp" transform="translate(394.6555824271966,0)" d="M0,78.99743000874889v151.36277887139107" style="stroke: rgb(0, 0, 0); stroke-opacity: 0.1; stroke-width: 0.5px;"/><path class="xgrid crisp" transform="translate(490.6355824271966,0)" d="M0,78.99743000874889v151.36277887139107" style="stroke: rgb(0, 0, 0); stroke-opacity: 0.1; stroke-width: 0.5px;"/><path class="xgrid crisp" transform="translate(586.6255824271966,0)" d="M0,78.99743000874889v151.36277887139107" style="stroke: rgb(0, 0, 0); stroke-opacity: 0.1; stroke-width: 0.5px;"/></g><g class="y"><path class="ygrid crisp" transform="translate(0,226.0774300087489)" d="M90.96558242719661,0h555.5192319710036" style="stroke: rgb(0, 0, 0); stroke-opacity: 0.1; stroke-width: 0.5px;"/><path class="ygrid crisp" transform="translate(0,194.4874300087489)" d="M90.96558242719661,0h555.5192319710036" style="stroke: rgb(0, 0, 0); stroke-opacity: 0.1; stroke-width: 0.5px;"/><path class="ygrid crisp" transform="translate(0,162.8974300087489)" d="M90.96558242719661,0h555.5192319710036" style="stroke: rgb(0, 0, 0); stroke-opacity: 0.1; stroke-width: 0.5px;"/><path class="ygrid crisp" transform="translate(0,131.3174300087489)" d="M90.96558242719661,0h555.5192319710036" style="stroke: rgb(0, 0, 0); stroke-opacity: 0.1; stroke-width: 0.5px;"/><path class="ygrid crisp" transform="translate(0,99.7274300087489)" d="M90.96558242719661,0h555.5192319710036" style="stroke: rgb(0, 0, 0); stroke-opacity: 0.1; stroke-width: 0.5px;"/></g></g><g class="zerolinelayer"/><path class="xlines-below"/><path class="ylines-below"/><g class="overlines-below"/><g class="xaxislayer-below"/><g class="yaxislayer-below"/><g class="overaxes-below"/><g class="plot" transform="translate(90.96558242719661,78.99743000874889)" clip-path="url('#clipc82d9exyplot')"><g class="scatterlayer mlayer"><g class="trace scatter trace956523" style="stroke-miterlimit: 2; opacity: 1;"><g class="fills"/><g class="errorbars"/><g class="lines"><path class="js-line" d="M15.72,147.08L98.47,58.24L126.05,41.45L181.22,25L208.8,21.56L263.97,17.16L291.55,17.15L319.13,17.14L346.72,18.41L401.88,22.99L429.47,28.72L484.63,42.08L512.21,74.56L539.8,147.08" style="vector-effect: non-scaling-stroke; fill: none; stroke: rgb(0, 154, 250); stroke-opacity: 1; stroke-width: 1px; opacity: 1;"/></g><g class="points"/><g class="text"/></g><g class="trace scatter trace6b3b06" style="stroke-miterlimit: 2; opacity: 1;"><g class="fills"/><g class="errorbars"/><g class="lines"><path class="js-line" d="M15.72,147.08L109.52,46.38L186,23.57L258.71,17.16L331.4,17.14L407.83,23.48L501.4,46.14L539.8,147.08" style="vector-effect: non-scaling-stroke; fill: none; stroke: rgb(227, 111, 71); stroke-opacity: 1; stroke-width: 1px; opacity: 1;"/></g><g class="points"/><g class="text"/></g><g class="trace scatter tracef347e5" style="stroke-miterlimit: 2; opacity: 1;"><g class="fills"/><g class="errorbars"/><g class="lines"/><g class="points"><path class="point" transform="translate(15.72,147.08)" d="M4,0A4,4 0 1,1 0,-4A4,4 0 0,1 4,0Z" style="opacity: 1; stroke-width: 1px; fill: rgb(62, 164, 78); fill-opacity: 0.1; stroke: rgb(0, 0, 0); stroke-opacity: 0.1;"/><path class="point" transform="translate(109.52,46.38)" d="M4,0A4,4 0 1,1 0,-4A4,4 0 0,1 4,0Z" style="opacity: 1; stroke-width: 1px; fill: rgb(62, 164, 78); fill-opacity: 0.1; stroke: rgb(0, 0, 0); stroke-opacity: 0.1;"/><path class="point" transform="translate(186,23.57)" d="M4,0A4,4 0 1,1 0,-4A4,4 0 0,1 4,0Z" style="opacity: 1; stroke-width: 1px; fill: rgb(62, 164, 78); fill-opacity: 0.1; stroke: rgb(0, 0, 0); stroke-opacity: 0.1;"/><path class="point" transform="translate(258.71,17.16)" d="M4,0A4,4 0 1,1 0,-4A4,4 0 0,1 4,0Z" style="opacity: 1; stroke-width: 1px; fill: rgb(62, 164, 78); fill-opacity: 0.1; stroke: rgb(0, 0, 0); stroke-opacity: 0.1;"/><path class="point" transform="translate(331.4,17.14)" d="M4,0A4,4 0 1,1 0,-4A4,4 0 0,1 4,0Z" style="opacity: 1; stroke-width: 1px; fill: rgb(62, 164, 78); fill-opacity: 0.1; stroke: rgb(0, 0, 0); stroke-opacity: 0.1;"/><path class="point" transform="translate(407.83,23.48)" d="M4,0A4,4 0 1,1 0,-4A4,4 0 0,1 4,0Z" style="opacity: 1; stroke-width: 1px; fill: rgb(62, 164, 78); fill-opacity: 0.1; stroke: rgb(0, 0, 0); stroke-opacity: 0.1;"/><path class="point" transform="translate(501.4,46.14)" d="M4,0A4,4 0 1,1 0,-4A4,4 0 0,1 4,0Z" style="opacity: 1; stroke-width: 1px; fill: rgb(62, 164, 78); fill-opacity: 0.1; stroke: rgb(0, 0, 0); stroke-opacity: 0.1;"/><path class="point" transform="translate(539.8,147.08)" d="M4,0A4,4 0 1,1 0,-4A4,4 0 0,1 4,0Z" style="opacity: 1; stroke-width: 1px; fill: rgb(62, 164, 78); fill-opacity: 0.1; stroke: rgb(0, 0, 0); stroke-opacity: 0.1;"/></g><g class="text"/></g><g class="trace scatter trace30c14f" style="stroke-miterlimit: 2; opacity: 1;"><g class="fills"/><g class="errorbars"/><g class="lines"><path class="js-line" d="M15.72,147.08L98.03,50.18L125.47,36.33L180.34,21.91L207.78,19.69L235.21,17.54L262.65,16.22L317.52,16.58L344.96,18.47L399.83,23.57L427.27,30.51L482.14,45.08L509.58,77.32L537.01,147.08" style="vector-effect: non-scaling-stroke; fill: none; stroke: rgb(195, 113, 210); stroke-opacity: 1; stroke-width: 1px; opacity: 1;"/></g><g class="points"/><g class="text"/></g><g class="trace scatter traced5272a" style="stroke-miterlimit: 2; opacity: 1;"><g class="fills"/><g class="errorbars"/><g class="lines"><path class="js-line" d="M15.72,147.08L105.3,41.63L180.7,21.81L252.85,16.16L325.26,16.63L401.86,23.76L498.62,49.46L537.01,147.08" style="vector-effect: non-scaling-stroke; fill: none; stroke: rgb(172, 142, 24); stroke-opacity: 1; stroke-width: 1px; opacity: 1;"/></g><g class="points"/><g class="text"/></g><g class="trace scatter tracec04a43" style="stroke-miterlimit: 2; opacity: 1;"><g class="fills"/><g class="errorbars"/><g class="lines"/><g class="points"><path class="point" transform="translate(15.72,147.08)" d="M4,0A4,4 0 1,1 0,-4A4,4 0 0,1 4,0Z" style="opacity: 1; stroke-width: 1px; fill: rgb(0, 170, 174); fill-opacity: 0.1; stroke: rgb(0, 0, 0); stroke-opacity: 0.1;"/><path class="point" transform="translate(105.3,41.63)" d="M4,0A4,4 0 1,1 0,-4A4,4 0 0,1 4,0Z" style="opacity: 1; stroke-width: 1px; fill: rgb(0, 170, 174); fill-opacity: 0.1; stroke: rgb(0, 0, 0); stroke-opacity: 0.1;"/><path class="point" transform="translate(180.7,21.81)" d="M4,0A4,4 0 1,1 0,-4A4,4 0 0,1 4,0Z" style="opacity: 1; stroke-width: 1px; fill: rgb(0, 170, 174); fill-opacity: 0.1; stroke: rgb(0, 0, 0); stroke-opacity: 0.1;"/><path class="point" transform="translate(252.85,16.16)" d="M4,0A4,4 0 1,1 0,-4A4,4 0 0,1 4,0Z" style="opacity: 1; stroke-width: 1px; fill: rgb(0, 170, 174); fill-opacity: 0.1; stroke: rgb(0, 0, 0); stroke-opacity: 0.1;"/><path class="point" transform="translate(325.26,16.63)" d="M4,0A4,4 0 1,1 0,-4A4,4 0 0,1 4,0Z" style="opacity: 1; stroke-width: 1px; fill: rgb(0, 170, 174); fill-opacity: 0.1; stroke: rgb(0, 0, 0); stroke-opacity: 0.1;"/><path class="point" transform="translate(401.86,23.76)" d="M4,0A4,4 0 1,1 0,-4A4,4 0 0,1 4,0Z" style="opacity: 1; stroke-width: 1px; fill: rgb(0, 170, 174); fill-opacity: 0.1; stroke: rgb(0, 0, 0); stroke-opacity: 0.1;"/><path class="point" transform="translate(498.62,49.46)" d="M4,0A4,4 0 1,1 0,-4A4,4 0 0,1 4,0Z" style="opacity: 1; stroke-width: 1px; fill: rgb(0, 170, 174); fill-opacity: 0.1; stroke: rgb(0, 0, 0); stroke-opacity: 0.1;"/><path class="point" transform="translate(537.01,147.08)" d="M4,0A4,4 0 1,1 0,-4A4,4 0 0,1 4,0Z" style="opacity: 1; stroke-width: 1px; fill: rgb(0, 170, 174); fill-opacity: 0.1; stroke: rgb(0, 0, 0); stroke-opacity: 0.1;"/></g><g class="text"/></g><g class="trace scatter tracec461f2" style="stroke-miterlimit: 2; opacity: 1;"><g class="fills"/><g class="errorbars"/><g class="lines"><path class="js-line" d="M15.72,147.08L96.79,39.89L123.81,29.92L177.85,18.2L204.87,16.35L231.89,14.5L258.92,13.85L312.96,14.64L339.98,17.23L394.02,23.36L421.05,31.26L475.09,47.06L502.11,79.91L529.13,147.08" style="vector-effect: non-scaling-stroke; fill: none; stroke: rgb(237, 94, 147); stroke-opacity: 1; stroke-width: 1px; opacity: 1;"/></g><g class="points"/><g class="text"/></g><g class="trace scatter tracea21ecd" style="stroke-miterlimit: 2; opacity: 1;"><g class="fills"/><g class="errorbars"/><g class="lines"><path class="js-line" d="M15.72,147.08L100.24,35.32L173.69,18.48L244.48,13.63L315.82,14.68L391.77,22.7L490.74,51.64L529.13,147.08" style="vector-effect: non-scaling-stroke; fill: none; stroke: rgb(198, 130, 37); stroke-opacity: 1; stroke-width: 1px; opacity: 1;"/></g><g class="points"/><g class="text"/></g><g class="trace scatter trace21d31f" style="stroke-miterlimit: 2; opacity: 1;"><g class="fills"/><g class="errorbars"/><g class="lines"/><g class="points"><path class="point" transform="translate(15.72,147.08)" d="M4,0A4,4 0 1,1 0,-4A4,4 0 0,1 4,0Z" style="opacity: 1; stroke-width: 1px; fill: rgb(0, 169, 141); fill-opacity: 0.1; stroke: rgb(0, 0, 0); stroke-opacity: 0.1;"/><path class="point" transform="translate(100.24,35.32)" d="M4,0A4,4 0 1,1 0,-4A4,4 0 0,1 4,0Z" style="opacity: 1; stroke-width: 1px; fill: rgb(0, 169, 141); fill-opacity: 0.1; stroke: rgb(0, 0, 0); stroke-opacity: 0.1;"/><path class="point" transform="translate(173.69,18.48)" d="M4,0A4,4 0 1,1 0,-4A4,4 0 0,1 4,0Z" style="opacity: 1; stroke-width: 1px; fill: rgb(0, 169, 141); fill-opacity: 0.1; stroke: rgb(0, 0, 0); stroke-opacity: 0.1;"/><path class="point" transform="translate(244.48,13.63)" d="M4,0A4,4 0 1,1 0,-4A4,4 0 0,1 4,0Z" style="opacity: 1; stroke-width: 1px; fill: rgb(0, 169, 141); fill-opacity: 0.1; stroke: rgb(0, 0, 0); stroke-opacity: 0.1;"/><path class="point" transform="translate(315.82,14.68)" d="M4,0A4,4 0 1,1 0,-4A4,4 0 0,1 4,0Z" style="opacity: 1; stroke-width: 1px; fill: rgb(0, 169, 141); fill-opacity: 0.1; stroke: rgb(0, 0, 0); stroke-opacity: 0.1;"/><path class="point" transform="translate(391.77,22.7)" d="M4,0A4,4 0 1,1 0,-4A4,4 0 0,1 4,0Z" style="opacity: 1; stroke-width: 1px; fill: rgb(0, 169, 141); fill-opacity: 0.1; stroke: rgb(0, 0, 0); stroke-opacity: 0.1;"/><path class="point" transform="translate(490.74,51.64)" d="M4,0A4,4 0 1,1 0,-4A4,4 0 0,1 4,0Z" style="opacity: 1; stroke-width: 1px; fill: rgb(0, 169, 141); fill-opacity: 0.1; stroke: rgb(0, 0, 0); stroke-opacity: 0.1;"/><path class="point" transform="translate(529.13,147.08)" d="M4,0A4,4 0 1,1 0,-4A4,4 0 0,1 4,0Z" style="opacity: 1; stroke-width: 1px; fill: rgb(0, 169, 141); fill-opacity: 0.1; stroke: rgb(0, 0, 0); stroke-opacity: 0.1;"/></g><g class="text"/></g><g class="trace scatter trace00cecb" style="stroke-miterlimit: 2; opacity: 1;"><g class="fills"/><g class="errorbars"/><g class="lines"><path class="js-line" d="M15.72,147.08L94.89,27.49L121.27,22.28L147.66,17.08L174.05,13.08L226.83,10.05L253.22,10.1L305.99,11.62L332.38,14.83L358.77,18.04L385.16,22.62L464.32,48.27L490.71,82.37L517.1,147.08" style="vector-effect: non-scaling-stroke; fill: none; stroke: rgb(142, 151, 30); stroke-opacity: 1; stroke-width: 1px; opacity: 1;"/></g><g class="points"/><g class="text"/></g><g class="trace scatter trace980cba" style="stroke-miterlimit: 2; opacity: 1;"><g class="fills"/><g class="errorbars"/><g class="lines"><path class="js-line" d="M15.72,147.08L94.73,27.52L165.48,13.57L234.2,9.63L303.8,11.35L378.38,20.43L478.7,52.93L517.1,147.08" style="vector-effect: non-scaling-stroke; fill: none; stroke: rgb(0, 169, 204); stroke-opacity: 1; stroke-width: 1px; opacity: 1;"/></g><g class="points"/><g class="text"/></g><g class="trace scatter tracebb0840" style="stroke-miterlimit: 2; opacity: 1;"><g class="fills"/><g class="errorbars"/><g class="lines"/><g class="points"><path class="point" transform="translate(15.72,147.08)" d="M4,0A4,4 0 1,1 0,-4A4,4 0 0,1 4,0Z" style="opacity: 1; stroke-width: 1px; fill: rgb(155, 127, 233); fill-opacity: 0.1; stroke: rgb(0, 0, 0); stroke-opacity: 0.1;"/><path class="point" transform="translate(94.73,27.52)" d="M4,0A4,4 0 1,1 0,-4A4,4 0 0,1 4,0Z" style="opacity: 1; stroke-width: 1px; fill: rgb(155, 127, 233); fill-opacity: 0.1; stroke: rgb(0, 0, 0); stroke-opacity: 0.1;"/><path class="point" transform="translate(165.48,13.57)" d="M4,0A4,4 0 1,1 0,-4A4,4 0 0,1 4,0Z" style="opacity: 1; stroke-width: 1px; fill: rgb(155, 127, 233); fill-opacity: 0.1; stroke: rgb(0, 0, 0); stroke-opacity: 0.1;"/><path class="point" transform="translate(234.2,9.63)" d="M4,0A4,4 0 1,1 0,-4A4,4 0 0,1 4,0Z" style="opacity: 1; stroke-width: 1px; fill: rgb(155, 127, 233); fill-opacity: 0.1; stroke: rgb(0, 0, 0); stroke-opacity: 0.1;"/><path class="point" transform="translate(303.8,11.35)" d="M4,0A4,4 0 1,1 0,-4A4,4 0 0,1 4,0Z" style="opacity: 1; stroke-width: 1px; fill: rgb(155, 127, 233); fill-opacity: 0.1; stroke: rgb(0, 0, 0); stroke-opacity: 0.1;"/><path class="point" transform="translate(378.38,20.43)" d="M4,0A4,4 0 1,1 0,-4A4,4 0 0,1 4,0Z" style="opacity: 1; stroke-width: 1px; fill: rgb(155, 127, 233); fill-opacity: 0.1; stroke: rgb(0, 0, 0); stroke-opacity: 0.1;"/><path class="point" transform="translate(478.7,52.93)" d="M4,0A4,4 0 1,1 0,-4A4,4 0 0,1 4,0Z" style="opacity: 1; stroke-width: 1px; fill: rgb(155, 127, 233); fill-opacity: 0.1; stroke: rgb(0, 0, 0); stroke-opacity: 0.1;"/><path class="point" transform="translate(517.1,147.08)" d="M4,0A4,4 0 1,1 0,-4A4,4 0 0,1 4,0Z" style="opacity: 1; stroke-width: 1px; fill: rgb(155, 127, 233); fill-opacity: 0.1; stroke: rgb(0, 0, 0); stroke-opacity: 0.1;"/></g><g class="text"/></g><g class="trace scatter trace640e3f" style="stroke-miterlimit: 2; opacity: 1;"><g class="fills"/><g class="errorbars"/><g class="lines"><path class="js-line" d="M15.72,147.08L66.94,57.49L92.55,17.98L143.76,9.41L169.37,6.68L220.59,4.39L246.2,5.15L271.8,6.1L297.41,7.81L348.63,15.07L374.24,21.18L451.06,48.91L476.67,84.69L502.28,147.08" style="vector-effect: non-scaling-stroke; fill: none; stroke: rgb(97, 141, 246); stroke-opacity: 1; stroke-width: 1px; opacity: 1;"/></g><g class="points"/><g class="text"/></g><g class="trace scatter trace0e6617" style="stroke-miterlimit: 2; opacity: 1;"><g class="fills"/><g class="errorbars"/><g class="lines"><path class="js-line" d="M15.72,147.08L89.21,18.54L156.76,7.24L222.9,4.28L290.24,6.79L362.9,17.09L463.88,53.54L502.28,147.08" style="vector-effect: non-scaling-stroke; fill: none; stroke: rgb(240, 96, 115); stroke-opacity: 1; stroke-width: 1px; opacity: 1;"/></g><g class="points"/><g class="text"/></g><g class="trace scatter trace984ae4" style="stroke-miterlimit: 2; opacity: 1;"><g class="fills"/><g class="errorbars"/><g class="lines"/><g class="points"><path class="point" transform="translate(15.72,147.08)" d="M4,0A4,4 0 1,1 0,-4A4,4 0 0,1 4,0Z" style="opacity: 1; stroke-width: 1px; fill: rgb(221, 101, 182); fill-opacity: 0.1; stroke: rgb(0, 0, 0); stroke-opacity: 0.1;"/><path class="point" transform="translate(89.21,18.54)" d="M4,0A4,4 0 1,1 0,-4A4,4 0 0,1 4,0Z" style="opacity: 1; stroke-width: 1px; fill: rgb(221, 101, 182); fill-opacity: 0.1; stroke: rgb(0, 0, 0); stroke-opacity: 0.1;"/><path class="point" transform="translate(156.76,7.24)" d="M4,0A4,4 0 1,1 0,-4A4,4 0 0,1 4,0Z" style="opacity: 1; stroke-width: 1px; fill: rgb(221, 101, 182); fill-opacity: 0.1; stroke: rgb(0, 0, 0); stroke-opacity: 0.1;"/><path class="point" transform="translate(222.9,4.28)" d="M4,0A4,4 0 1,1 0,-4A4,4 0 0,1 4,0Z" style="opacity: 1; stroke-width: 1px; fill: rgb(221, 101, 182); fill-opacity: 0.1; stroke: rgb(0, 0, 0); stroke-opacity: 0.1;"/><path class="point" transform="translate(290.24,6.79)" d="M4,0A4,4 0 1,1 0,-4A4,4 0 0,1 4,0Z" style="opacity: 1; stroke-width: 1px; fill: rgb(221, 101, 182); fill-opacity: 0.1; stroke: rgb(0, 0, 0); stroke-opacity: 0.1;"/><path class="point" transform="translate(362.9,17.09)" d="M4,0A4,4 0 1,1 0,-4A4,4 0 0,1 4,0Z" style="opacity: 1; stroke-width: 1px; fill: rgb(221, 101, 182); fill-opacity: 0.1; stroke: rgb(0, 0, 0); stroke-opacity: 0.1;"/><path class="point" transform="translate(463.88,53.54)" d="M4,0A4,4 0 1,1 0,-4A4,4 0 0,1 4,0Z" style="opacity: 1; stroke-width: 1px; fill: rgb(221, 101, 182); fill-opacity: 0.1; stroke: rgb(0, 0, 0); stroke-opacity: 0.1;"/><path class="point" transform="translate(502.28,147.08)" d="M4,0A4,4 0 1,1 0,-4A4,4 0 0,1 4,0Z" style="opacity: 1; stroke-width: 1px; fill: rgb(221, 101, 182); fill-opacity: 0.1; stroke: rgb(0, 0, 0); stroke-opacity: 0.1;"/></g><g class="text"/></g></g></g><g class="overplot"/><path class="xlines-above crisp" d="M89.96558242719661,230.86020888013996H646.4848143982002" style="fill: none; stroke-width: 1px; stroke: rgb(0, 0, 0); stroke-opacity: 1;"/><path class="ylines-above crisp" d="M90.46558242719661,78.99743000874889V230.36020888013996" style="fill: none; stroke-width: 1px; stroke: rgb(0, 0, 0); stroke-opacity: 1;"/><g class="overlines-above"/><g class="xaxislayer-above"><path class="xtick ticks crisp" d="M0,230.36020888013996v-5" transform="translate(106.68558242719661,0)" style="stroke: rgb(0, 0, 0); stroke-opacity: 1; stroke-width: 1px;"/><path class="xtick ticks crisp" d="M0,230.36020888013996v-5" transform="translate(202.67558242719662,0)" style="stroke: rgb(0, 0, 0); stroke-opacity: 1; stroke-width: 1px;"/><path class="xtick ticks crisp" d="M0,230.36020888013996v-5" transform="translate(298.66558242719657,0)" style="stroke: rgb(0, 0, 0); stroke-opacity: 1; stroke-width: 1px;"/><path class="xtick ticks crisp" d="M0,230.36020888013996v-5" transform="translate(394.6555824271966,0)" style="stroke: rgb(0, 0, 0); stroke-opacity: 1; stroke-width: 1px;"/><path class="xtick ticks crisp" d="M0,230.36020888013996v-5" transform="translate(490.6355824271966,0)" style="stroke: rgb(0, 0, 0); stroke-opacity: 1; stroke-width: 1px;"/><path class="xtick ticks crisp" d="M0,230.36020888013996v-5" transform="translate(586.6255824271966,0)" style="stroke: rgb(0, 0, 0); stroke-opacity: 1; stroke-width: 1px;"/><g class="xtick"><text text-anchor="middle" x="0" y="244.56020888013995" transform="translate(106.68558242719661,0)" style="font-family: sans-serif; font-size: 11px; fill: rgb(0, 0, 0); fill-opacity: 1; white-space: pre;">0.0</text></g><g class="xtick"><text text-anchor="middle" x="0" y="244.56020888013995" transform="translate(202.67558242719662,0)" style="font-family: sans-serif; font-size: 11px; fill: rgb(0, 0, 0); fill-opacity: 1; white-space: pre;">2.5</text></g><g class="xtick"><text text-anchor="middle" x="0" y="244.56020888013995" transform="translate(298.66558242719657,0)" style="font-family: sans-serif; font-size: 11px; fill: rgb(0, 0, 0); fill-opacity: 1; white-space: pre;">5.0</text></g><g class="xtick"><text text-anchor="middle" x="0" y="244.56020888013995" transform="translate(394.6555824271966,0)" style="font-family: sans-serif; font-size: 11px; fill: rgb(0, 0, 0); fill-opacity: 1; white-space: pre;">7.5</text></g><g class="xtick"><text text-anchor="middle" x="0" y="244.56020888013995" transform="translate(490.6355824271966,0)" style="font-family: sans-serif; font-size: 11px; fill: rgb(0, 0, 0); fill-opacity: 1; white-space: pre;">10.0</text></g><g class="xtick"><text text-anchor="middle" x="0" y="244.56020888013995" transform="translate(586.6255824271966,0)" style="font-family: sans-serif; font-size: 11px; fill: rgb(0, 0, 0); fill-opacity: 1; white-space: pre;">12.5</text></g></g><g class="yaxislayer-above"><path class="ytick ticks crisp" d="M90.96558242719661,0h5" transform="translate(0,226.0774300087489)" style="stroke: rgb(0, 0, 0); stroke-opacity: 1; stroke-width: 1px;"/><path class="ytick ticks crisp" d="M90.96558242719661,0h5" transform="translate(0,194.4874300087489)" style="stroke: rgb(0, 0, 0); stroke-opacity: 1; stroke-width: 1px;"/><path class="ytick ticks crisp" d="M90.96558242719661,0h5" transform="translate(0,162.8974300087489)" style="stroke: rgb(0, 0, 0); stroke-opacity: 1; stroke-width: 1px;"/><path class="ytick ticks crisp" d="M90.96558242719661,0h5" transform="translate(0,131.3174300087489)" style="stroke: rgb(0, 0, 0); stroke-opacity: 1; stroke-width: 1px;"/><path class="ytick ticks crisp" d="M90.96558242719661,0h5" transform="translate(0,99.7274300087489)" style="stroke: rgb(0, 0, 0); stroke-opacity: 1; stroke-width: 1px;"/><g class="ytick"><text text-anchor="end" x="87.7655824271966" y="3.8499999999999996" transform="translate(0,226.0774300087489)" style="font-family: sans-serif; font-size: 11px; fill: rgb(0, 0, 0); fill-opacity: 1; white-space: pre;">0.0</text></g><g class="ytick"><text text-anchor="end" x="87.7655824271966" y="3.8499999999999996" transform="translate(0,194.4874300087489)" style="font-family: sans-serif; font-size: 11px; fill: rgb(0, 0, 0); fill-opacity: 1; white-space: pre;">0.1</text></g><g class="ytick"><text text-anchor="end" x="87.7655824271966" y="3.8499999999999996" transform="translate(0,162.8974300087489)" style="font-family: sans-serif; font-size: 11px; fill: rgb(0, 0, 0); fill-opacity: 1; white-space: pre;">0.2</text></g><g class="ytick"><text text-anchor="end" x="87.7655824271966" y="3.8499999999999996" transform="translate(0,131.3174300087489)" style="font-family: sans-serif; font-size: 11px; fill: rgb(0, 0, 0); fill-opacity: 1; white-space: pre;">0.3</text></g><g class="ytick"><text text-anchor="end" x="87.7655824271966" y="3.8499999999999996" transform="translate(0,99.7274300087489)" style="font-family: sans-serif; font-size: 11px; fill: rgb(0, 0, 0); fill-opacity: 1; white-space: pre;">0.4</text></g></g><g class="overaxes-above"/></g><g class="subplot x2y2"><g class="layer-subplot"><g class="shapelayer"/><g class="imagelayer"/></g><g class="gridlayer"><g class="x2"><path class="x2grid crisp" transform="translate(106.68558242719661,0)" d="M0,273.9974300087489v151.36277887139107" style="stroke: rgb(0, 0, 0); stroke-opacity: 0.1; stroke-width: 0.5px;"/><path class="x2grid crisp" transform="translate(202.67558242719662,0)" d="M0,273.9974300087489v151.36277887139107" style="stroke: rgb(0, 0, 0); stroke-opacity: 0.1; stroke-width: 0.5px;"/><path class="x2grid crisp" transform="translate(298.66558242719657,0)" d="M0,273.9974300087489v151.36277887139107" style="stroke: rgb(0, 0, 0); stroke-opacity: 0.1; stroke-width: 0.5px;"/><path class="x2grid crisp" transform="translate(394.6555824271966,0)" d="M0,273.9974300087489v151.36277887139107" style="stroke: rgb(0, 0, 0); stroke-opacity: 0.1; stroke-width: 0.5px;"/><path class="x2grid crisp" transform="translate(490.6355824271966,0)" d="M0,273.9974300087489v151.36277887139107" style="stroke: rgb(0, 0, 0); stroke-opacity: 0.1; stroke-width: 0.5px;"/><path class="x2grid crisp" transform="translate(586.6255824271966,0)" d="M0,273.9974300087489v151.36277887139107" style="stroke: rgb(0, 0, 0); stroke-opacity: 0.1; stroke-width: 0.5px;"/></g><g class="y2"><path class="y2grid crisp" transform="translate(0,421.07743000874893)" d="M90.96558242719661,0h555.5192319710036" style="stroke: rgb(0, 0, 0); stroke-opacity: 0.1; stroke-width: 0.5px;"/><path class="y2grid crisp" transform="translate(0,389.5174300087489)" d="M90.96558242719661,0h555.5192319710036" style="stroke: rgb(0, 0, 0); stroke-opacity: 0.1; stroke-width: 0.5px;"/><path class="y2grid crisp" transform="translate(0,357.9574300087489)" d="M90.96558242719661,0h555.5192319710036" style="stroke: rgb(0, 0, 0); stroke-opacity: 0.1; stroke-width: 0.5px;"/><path class="y2grid crisp" transform="translate(0,326.39743000874887)" d="M90.96558242719661,0h555.5192319710036" style="stroke: rgb(0, 0, 0); stroke-opacity: 0.1; stroke-width: 0.5px;"/><path class="y2grid crisp" transform="translate(0,294.83743000874887)" d="M90.96558242719661,0h555.5192319710036" style="stroke: rgb(0, 0, 0); stroke-opacity: 0.1; stroke-width: 0.5px;"/></g></g><g class="zerolinelayer"/><path class="xlines-below"/><path class="ylines-below"/><g class="overlines-below"/><g class="xaxislayer-below"/><g class="yaxislayer-below"/><g class="overaxes-below"/><g class="plot" transform="translate(90.96558242719661,273.9974300087489)" clip-path="url('#clipc82d9ex2y2plot')"><g class="scatterlayer mlayer"><g class="trace scatter trace418c88" style="stroke-miterlimit: 2; opacity: 1;"><g class="fills"/><g class="errorbars"/><g class="lines"><path class="js-line" d="M15.72,147.08L98.47,58.32L126.05,41.54L181.22,25.1L208.8,21.67L263.97,17.27L291.55,17.26L319.13,17.25L346.72,18.52L401.88,23.1L429.47,28.82L484.63,42.17L512.21,74.63L539.8,147.08" style="vector-effect: non-scaling-stroke; fill: none; stroke: rgb(0, 154, 250); stroke-opacity: 1; stroke-width: 1px; opacity: 1;"/></g><g class="points"/><g class="text"/></g><g class="trace scatter trace61d4fb" style="stroke-miterlimit: 2; opacity: 1;"><g class="fills"/><g class="errorbars"/><g class="lines"><path class="js-line" d="M15.72,147.08L109.52,46.46L186,23.68L258.71,17.27L331.4,17.25L407.83,23.59L501.4,46.22L539.8,147.08" style="vector-effect: non-scaling-stroke; fill: none; stroke: rgb(227, 111, 71); stroke-opacity: 1; stroke-width: 1px; opacity: 1;"/></g><g class="points"/><g class="text"/></g><g class="trace scatter trace7fb7de" style="stroke-miterlimit: 2; opacity: 1;"><g class="fills"/><g class="errorbars"/><g class="lines"/><g class="points"><path class="point" transform="translate(15.72,147.08)" d="M4,0A4,4 0 1,1 0,-4A4,4 0 0,1 4,0Z" style="opacity: 1; stroke-width: 1px; fill: rgb(62, 164, 78); fill-opacity: 0.1; stroke: rgb(0, 0, 0); stroke-opacity: 0.1;"/><path class="point" transform="translate(109.52,46.46)" d="M4,0A4,4 0 1,1 0,-4A4,4 0 0,1 4,0Z" style="opacity: 1; stroke-width: 1px; fill: rgb(62, 164, 78); fill-opacity: 0.1; stroke: rgb(0, 0, 0); stroke-opacity: 0.1;"/><path class="point" transform="translate(186,23.68)" d="M4,0A4,4 0 1,1 0,-4A4,4 0 0,1 4,0Z" style="opacity: 1; stroke-width: 1px; fill: rgb(62, 164, 78); fill-opacity: 0.1; stroke: rgb(0, 0, 0); stroke-opacity: 0.1;"/><path class="point" transform="translate(258.71,17.27)" d="M4,0A4,4 0 1,1 0,-4A4,4 0 0,1 4,0Z" style="opacity: 1; stroke-width: 1px; fill: rgb(62, 164, 78); fill-opacity: 0.1; stroke: rgb(0, 0, 0); stroke-opacity: 0.1;"/><path class="point" transform="translate(331.4,17.25)" d="M4,0A4,4 0 1,1 0,-4A4,4 0 0,1 4,0Z" style="opacity: 1; stroke-width: 1px; fill: rgb(62, 164, 78); fill-opacity: 0.1; stroke: rgb(0, 0, 0); stroke-opacity: 0.1;"/><path class="point" transform="translate(407.83,23.59)" d="M4,0A4,4 0 1,1 0,-4A4,4 0 0,1 4,0Z" style="opacity: 1; stroke-width: 1px; fill: rgb(62, 164, 78); fill-opacity: 0.1; stroke: rgb(0, 0, 0); stroke-opacity: 0.1;"/><path class="point" transform="translate(501.4,46.22)" d="M4,0A4,4 0 1,1 0,-4A4,4 0 0,1 4,0Z" style="opacity: 1; stroke-width: 1px; fill: rgb(62, 164, 78); fill-opacity: 0.1; stroke: rgb(0, 0, 0); stroke-opacity: 0.1;"/><path class="point" transform="translate(539.8,147.08)" d="M4,0A4,4 0 1,1 0,-4A4,4 0 0,1 4,0Z" style="opacity: 1; stroke-width: 1px; fill: rgb(62, 164, 78); fill-opacity: 0.1; stroke: rgb(0, 0, 0); stroke-opacity: 0.1;"/></g><g class="text"/></g><g class="trace scatter tracedbc1ba" style="stroke-miterlimit: 2; opacity: 1;"><g class="fills"/><g class="errorbars"/><g class="lines"><path class="js-line" d="M15.72,147.08L98.05,64.56L125.49,45.52L180.38,27.02L207.82,22.15L262.71,16.77L290.15,16.57L317.59,16.37L345.03,17.07L399.92,21.14L427.36,25.81L482.25,37.88L509.69,71.62L537.13,147.08" style="vector-effect: non-scaling-stroke; fill: none; stroke: rgb(195, 113, 210); stroke-opacity: 1; stroke-width: 1px; opacity: 1;"/></g><g class="points"/><g class="text"/></g><g class="trace scatter tracef98b14" style="stroke-miterlimit: 2; opacity: 1;"><g class="fills"/><g class="errorbars"/><g class="lines"><path class="js-line" d="M15.72,147.08L112.75,49.82L189.42,23.97L261.85,16.78L333.99,16.25L409.34,21.84L498.74,41.5L537.13,147.08" style="vector-effect: non-scaling-stroke; fill: none; stroke: rgb(172, 142, 24); stroke-opacity: 1; stroke-width: 1px; opacity: 1;"/></g><g class="points"/><g class="text"/></g><g class="trace scatter tracecfdc2e" style="stroke-miterlimit: 2; opacity: 1;"><g class="fills"/><g class="errorbars"/><g class="lines"/><g class="points"><path class="point" transform="translate(15.72,147.08)" d="M4,0A4,4 0 1,1 0,-4A4,4 0 0,1 4,0Z" style="opacity: 1; stroke-width: 1px; fill: rgb(0, 170, 174); fill-opacity: 0.1; stroke: rgb(0, 0, 0); stroke-opacity: 0.1;"/><path class="point" transform="translate(112.75,49.82)" d="M4,0A4,4 0 1,1 0,-4A4,4 0 0,1 4,0Z" style="opacity: 1; stroke-width: 1px; fill: rgb(0, 170, 174); fill-opacity: 0.1; stroke: rgb(0, 0, 0); stroke-opacity: 0.1;"/><path class="point" transform="translate(189.42,23.97)" d="M4,0A4,4 0 1,1 0,-4A4,4 0 0,1 4,0Z" style="opacity: 1; stroke-width: 1px; fill: rgb(0, 170, 174); fill-opacity: 0.1; stroke: rgb(0, 0, 0); stroke-opacity: 0.1;"/><path class="point" transform="translate(261.85,16.78)" d="M4,0A4,4 0 1,1 0,-4A4,4 0 0,1 4,0Z" style="opacity: 1; stroke-width: 1px; fill: rgb(0, 170, 174); fill-opacity: 0.1; stroke: rgb(0, 0, 0); stroke-opacity: 0.1;"/><path class="point" transform="translate(333.99,16.25)" d="M4,0A4,4 0 1,1 0,-4A4,4 0 0,1 4,0Z" style="opacity: 1; stroke-width: 1px; fill: rgb(0, 170, 174); fill-opacity: 0.1; stroke: rgb(0, 0, 0); stroke-opacity: 0.1;"/><path class="point" transform="translate(409.34,21.84)" d="M4,0A4,4 0 1,1 0,-4A4,4 0 0,1 4,0Z" style="opacity: 1; stroke-width: 1px; fill: rgb(0, 170, 174); fill-opacity: 0.1; stroke: rgb(0, 0, 0); stroke-opacity: 0.1;"/><path class="point" transform="translate(498.74,41.5)" d="M4,0A4,4 0 1,1 0,-4A4,4 0 0,1 4,0Z" style="opacity: 1; stroke-width: 1px; fill: rgb(0, 170, 174); fill-opacity: 0.1; stroke: rgb(0, 0, 0); stroke-opacity: 0.1;"/><path class="point" transform="translate(537.13,147.08)" d="M4,0A4,4 0 1,1 0,-4A4,4 0 0,1 4,0Z" style="opacity: 1; stroke-width: 1px; fill: rgb(0, 170, 174); fill-opacity: 0.1; stroke: rgb(0, 0, 0); stroke-opacity: 0.1;"/></g><g class="text"/></g><g class="trace scatter trace8d82a9" style="stroke-miterlimit: 2; opacity: 1;"><g class="fills"/><g class="errorbars"/><g class="lines"><path class="js-line" d="M15.72,147.08L96.82,69.44L123.85,48.64L177.91,27.94L204.94,21.34L259,15.21L286.03,14.46L340.1,14.18L367.13,15.94L394.16,17.7L421.19,21.4L475.25,32.1L502.28,68.32L529.31,147.08" style="vector-effect: non-scaling-stroke; fill: none; stroke: rgb(237, 94, 147); stroke-opacity: 1; stroke-width: 1px; opacity: 1;"/></g><g class="points"/><g class="text"/></g><g class="trace scatter trace250cfa" style="stroke-miterlimit: 2; opacity: 1;"><g class="fills"/><g class="errorbars"/><g class="lines"><path class="js-line" d="M15.72,147.08L115.01,52.03L191.02,22.92L262.38,14.83L333.16,13.73L406.56,18.51L490.92,35.2L529.31,147.08" style="vector-effect: non-scaling-stroke; fill: none; stroke: rgb(198, 130, 37); stroke-opacity: 1; stroke-width: 1px; opacity: 1;"/></g><g class="points"/><g class="text"/></g><g class="trace scatter trace902240" style="stroke-miterlimit: 2; opacity: 1;"><g class="fills"/><g class="errorbars"/><g class="lines"/><g class="points"><path class="point" transform="translate(15.72,147.08)" d="M4,0A4,4 0 1,1 0,-4A4,4 0 0,1 4,0Z" style="opacity: 1; stroke-width: 1px; fill: rgb(0, 169, 141); fill-opacity: 0.1; stroke: rgb(0, 0, 0); stroke-opacity: 0.1;"/><path class="point" transform="translate(115.01,52.03)" d="M4,0A4,4 0 1,1 0,-4A4,4 0 0,1 4,0Z" style="opacity: 1; stroke-width: 1px; fill: rgb(0, 169, 141); fill-opacity: 0.1; stroke: rgb(0, 0, 0); stroke-opacity: 0.1;"/><path class="point" transform="translate(191.02,22.92)" d="M4,0A4,4 0 1,1 0,-4A4,4 0 0,1 4,0Z" style="opacity: 1; stroke-width: 1px; fill: rgb(0, 169, 141); fill-opacity: 0.1; stroke: rgb(0, 0, 0); stroke-opacity: 0.1;"/><path class="point" transform="translate(262.38,14.83)" d="M4,0A4,4 0 1,1 0,-4A4,4 0 0,1 4,0Z" style="opacity: 1; stroke-width: 1px; fill: rgb(0, 169, 141); fill-opacity: 0.1; stroke: rgb(0, 0, 0); stroke-opacity: 0.1;"/><path class="point" transform="translate(333.16,13.73)" d="M4,0A4,4 0 1,1 0,-4A4,4 0 0,1 4,0Z" style="opacity: 1; stroke-width: 1px; fill: rgb(0, 169, 141); fill-opacity: 0.1; stroke: rgb(0, 0, 0); stroke-opacity: 0.1;"/><path class="point" transform="translate(406.56,18.51)" d="M4,0A4,4 0 1,1 0,-4A4,4 0 0,1 4,0Z" style="opacity: 1; stroke-width: 1px; fill: rgb(0, 169, 141); fill-opacity: 0.1; stroke: rgb(0, 0, 0); stroke-opacity: 0.1;"/><path class="point" transform="translate(490.92,35.2)" d="M4,0A4,4 0 1,1 0,-4A4,4 0 0,1 4,0Z" style="opacity: 1; stroke-width: 1px; fill: rgb(0, 169, 141); fill-opacity: 0.1; stroke: rgb(0, 0, 0); stroke-opacity: 0.1;"/><path class="point" transform="translate(529.31,147.08)" d="M4,0A4,4 0 1,1 0,-4A4,4 0 0,1 4,0Z" style="opacity: 1; stroke-width: 1px; fill: rgb(0, 169, 141); fill-opacity: 0.1; stroke: rgb(0, 0, 0); stroke-opacity: 0.1;"/></g><g class="text"/></g><g class="trace scatter traced9086d" style="stroke-miterlimit: 2; opacity: 1;"><g class="fills"/><g class="errorbars"/><g class="lines"><path class="js-line" d="M15.72,147.08L94.91,73.34L121.31,51.19L174.1,28.06L200.5,19.4L253.29,12.45L279.69,10.98L332.48,9.87L358.88,11.31L385.27,12.76L411.67,15.6L464.46,24.85L490.86,64.78L517.25,147.08" style="vector-effect: non-scaling-stroke; fill: none; stroke: rgb(142, 151, 30); stroke-opacity: 1; stroke-width: 1px; opacity: 1;"/></g><g class="points"/><g class="text"/></g><g class="trace scatter tracea0f338" style="stroke-miterlimit: 2; opacity: 1;"><g class="fills"/><g class="errorbars"/><g class="lines"><path class="js-line" d="M15.72,147.08L116.4,53.34L191.04,20.64L260.64,11.48L329.34,9.69L400.02,13.56L478.86,27.37L517.25,147.08" style="vector-effect: non-scaling-stroke; fill: none; stroke: rgb(0, 169, 204); stroke-opacity: 1; stroke-width: 1px; opacity: 1;"/></g><g class="points"/><g class="text"/></g><g class="trace scatter tracedf02d7" style="stroke-miterlimit: 2; opacity: 1;"><g class="fills"/><g class="errorbars"/><g class="lines"/><g class="points"><path class="point" transform="translate(15.72,147.08)" d="M4,0A4,4 0 1,1 0,-4A4,4 0 0,1 4,0Z" style="opacity: 1; stroke-width: 1px; fill: rgb(155, 127, 233); fill-opacity: 0.1; stroke: rgb(0, 0, 0); stroke-opacity: 0.1;"/><path class="point" transform="translate(116.4,53.34)" d="M4,0A4,4 0 1,1 0,-4A4,4 0 0,1 4,0Z" style="opacity: 1; stroke-width: 1px; fill: rgb(155, 127, 233); fill-opacity: 0.1; stroke: rgb(0, 0, 0); stroke-opacity: 0.1;"/><path class="point" transform="translate(191.04,20.64)" d="M4,0A4,4 0 1,1 0,-4A4,4 0 0,1 4,0Z" style="opacity: 1; stroke-width: 1px; fill: rgb(155, 127, 233); fill-opacity: 0.1; stroke: rgb(0, 0, 0); stroke-opacity: 0.1;"/><path class="point" transform="translate(260.64,11.48)" d="M4,0A4,4 0 1,1 0,-4A4,4 0 0,1 4,0Z" style="opacity: 1; stroke-width: 1px; fill: rgb(155, 127, 233); fill-opacity: 0.1; stroke: rgb(0, 0, 0); stroke-opacity: 0.1;"/><path class="point" transform="translate(329.34,9.69)" d="M4,0A4,4 0 1,1 0,-4A4,4 0 0,1 4,0Z" style="opacity: 1; stroke-width: 1px; fill: rgb(155, 127, 233); fill-opacity: 0.1; stroke: rgb(0, 0, 0); stroke-opacity: 0.1;"/><path class="point" transform="translate(400.02,13.56)" d="M4,0A4,4 0 1,1 0,-4A4,4 0 0,1 4,0Z" style="opacity: 1; stroke-width: 1px; fill: rgb(155, 127, 233); fill-opacity: 0.1; stroke: rgb(0, 0, 0); stroke-opacity: 0.1;"/><path class="point" transform="translate(478.86,27.37)" d="M4,0A4,4 0 1,1 0,-4A4,4 0 0,1 4,0Z" style="opacity: 1; stroke-width: 1px; fill: rgb(155, 127, 233); fill-opacity: 0.1; stroke: rgb(0, 0, 0); stroke-opacity: 0.1;"/><path class="point" transform="translate(517.25,147.08)" d="M4,0A4,4 0 1,1 0,-4A4,4 0 0,1 4,0Z" style="opacity: 1; stroke-width: 1px; fill: rgb(155, 127, 233); fill-opacity: 0.1; stroke: rgb(0, 0, 0); stroke-opacity: 0.1;"/></g><g class="text"/></g><g class="trace scatter traceac6f49" style="stroke-miterlimit: 2; opacity: 1;"><g class="fills"/><g class="errorbars"/><g class="lines"><path class="js-line" d="M15.72,147.08L118.16,53.41L143.77,40.49L169.39,27.57L195,16.47L246.22,8.55L271.83,6.29L323.05,4.29L348.66,5.37L374.27,6.46L399.88,8.57L451.1,16.36L476.71,61.19L502.32,147.08" style="vector-effect: non-scaling-stroke; fill: none; stroke: rgb(97, 141, 246); stroke-opacity: 1; stroke-width: 1px; opacity: 1;"/></g><g class="points"/><g class="text"/></g><g class="trace scatter trace20d15e" style="stroke-miterlimit: 2; opacity: 1;"><g class="fills"/><g class="errorbars"/><g class="lines"><path class="js-line" d="M15.72,147.08L117.07,53.96L189.78,17.28L257.09,6.87L323.18,4.28L390.64,7.16L463.93,18.31L502.32,147.08" style="vector-effect: non-scaling-stroke; fill: none; stroke: rgb(240, 96, 115); stroke-opacity: 1; stroke-width: 1px; opacity: 1;"/></g><g class="points"/><g class="text"/></g><g class="trace scatter trace4216e3" style="stroke-miterlimit: 2; opacity: 1;"><g class="fills"/><g class="errorbars"/><g class="lines"/><g class="points"><path class="point" transform="translate(15.72,147.08)" d="M4,0A4,4 0 1,1 0,-4A4,4 0 0,1 4,0Z" style="opacity: 1; stroke-width: 1px; fill: rgb(221, 101, 182); fill-opacity: 0.1; stroke: rgb(0, 0, 0); stroke-opacity: 0.1;"/><path class="point" transform="translate(117.07,53.96)" d="M4,0A4,4 0 1,1 0,-4A4,4 0 0,1 4,0Z" style="opacity: 1; stroke-width: 1px; fill: rgb(221, 101, 182); fill-opacity: 0.1; stroke: rgb(0, 0, 0); stroke-opacity: 0.1;"/><path class="point" transform="translate(189.78,17.28)" d="M4,0A4,4 0 1,1 0,-4A4,4 0 0,1 4,0Z" style="opacity: 1; stroke-width: 1px; fill: rgb(221, 101, 182); fill-opacity: 0.1; stroke: rgb(0, 0, 0); stroke-opacity: 0.1;"/><path class="point" transform="translate(257.09,6.87)" d="M4,0A4,4 0 1,1 0,-4A4,4 0 0,1 4,0Z" style="opacity: 1; stroke-width: 1px; fill: rgb(221, 101, 182); fill-opacity: 0.1; stroke: rgb(0, 0, 0); stroke-opacity: 0.1;"/><path class="point" transform="translate(323.18,4.28)" d="M4,0A4,4 0 1,1 0,-4A4,4 0 0,1 4,0Z" style="opacity: 1; stroke-width: 1px; fill: rgb(221, 101, 182); fill-opacity: 0.1; stroke: rgb(0, 0, 0); stroke-opacity: 0.1;"/><path class="point" transform="translate(390.64,7.16)" d="M4,0A4,4 0 1,1 0,-4A4,4 0 0,1 4,0Z" style="opacity: 1; stroke-width: 1px; fill: rgb(221, 101, 182); fill-opacity: 0.1; stroke: rgb(0, 0, 0); stroke-opacity: 0.1;"/><path class="point" transform="translate(463.93,18.31)" d="M4,0A4,4 0 1,1 0,-4A4,4 0 0,1 4,0Z" style="opacity: 1; stroke-width: 1px; fill: rgb(221, 101, 182); fill-opacity: 0.1; stroke: rgb(0, 0, 0); stroke-opacity: 0.1;"/><path class="point" transform="translate(502.32,147.08)" d="M4,0A4,4 0 1,1 0,-4A4,4 0 0,1 4,0Z" style="opacity: 1; stroke-width: 1px; fill: rgb(221, 101, 182); fill-opacity: 0.1; stroke: rgb(0, 0, 0); stroke-opacity: 0.1;"/></g><g class="text"/></g></g></g><g class="overplot"/><path class="xlines-above crisp" d="M89.96558242719661,425.86020888013996H646.4848143982002" style="fill: none; stroke-width: 1px; stroke: rgb(0, 0, 0); stroke-opacity: 1;"/><path class="ylines-above crisp" d="M90.46558242719661,273.9974300087489V425.36020888013996" style="fill: none; stroke-width: 1px; stroke: rgb(0, 0, 0); stroke-opacity: 1;"/><g class="overlines-above"/><g class="xaxislayer-above"><path class="x2tick ticks crisp" d="M0,425.36020888013996v-5" transform="translate(106.68558242719661,0)" style="stroke: rgb(0, 0, 0); stroke-opacity: 1; stroke-width: 1px;"/><path class="x2tick ticks crisp" d="M0,425.36020888013996v-5" transform="translate(202.67558242719662,0)" style="stroke: rgb(0, 0, 0); stroke-opacity: 1; stroke-width: 1px;"/><path class="x2tick ticks crisp" d="M0,425.36020888013996v-5" transform="translate(298.66558242719657,0)" style="stroke: rgb(0, 0, 0); stroke-opacity: 1; stroke-width: 1px;"/><path class="x2tick ticks crisp" d="M0,425.36020888013996v-5" transform="translate(394.6555824271966,0)" style="stroke: rgb(0, 0, 0); stroke-opacity: 1; stroke-width: 1px;"/><path class="x2tick ticks crisp" d="M0,425.36020888013996v-5" transform="translate(490.6355824271966,0)" style="stroke: rgb(0, 0, 0); stroke-opacity: 1; stroke-width: 1px;"/><path class="x2tick ticks crisp" d="M0,425.36020888013996v-5" transform="translate(586.6255824271966,0)" style="stroke: rgb(0, 0, 0); stroke-opacity: 1; stroke-width: 1px;"/><g class="x2tick"><text text-anchor="middle" x="0" y="439.56020888013995" transform="translate(106.68558242719661,0)" style="font-family: sans-serif; font-size: 11px; fill: rgb(0, 0, 0); fill-opacity: 1; white-space: pre;">0.0</text></g><g class="x2tick"><text text-anchor="middle" x="0" y="439.56020888013995" transform="translate(202.67558242719662,0)" style="font-family: sans-serif; font-size: 11px; fill: rgb(0, 0, 0); fill-opacity: 1; white-space: pre;">2.5</text></g><g class="x2tick"><text text-anchor="middle" x="0" y="439.56020888013995" transform="translate(298.66558242719657,0)" style="font-family: sans-serif; font-size: 11px; fill: rgb(0, 0, 0); fill-opacity: 1; white-space: pre;">5.0</text></g><g class="x2tick"><text text-anchor="middle" x="0" y="439.56020888013995" transform="translate(394.6555824271966,0)" style="font-family: sans-serif; font-size: 11px; fill: rgb(0, 0, 0); fill-opacity: 1; white-space: pre;">7.5</text></g><g class="x2tick"><text text-anchor="middle" x="0" y="439.56020888013995" transform="translate(490.6355824271966,0)" style="font-family: sans-serif; font-size: 11px; fill: rgb(0, 0, 0); fill-opacity: 1; white-space: pre;">10.0</text></g><g class="x2tick"><text text-anchor="middle" x="0" y="439.56020888013995" transform="translate(586.6255824271966,0)" style="font-family: sans-serif; font-size: 11px; fill: rgb(0, 0, 0); fill-opacity: 1; white-space: pre;">12.5</text></g></g><g class="yaxislayer-above"><path class="y2tick ticks crisp" d="M90.96558242719661,0h5" transform="translate(0,421.07743000874893)" style="stroke: rgb(0, 0, 0); stroke-opacity: 1; stroke-width: 1px;"/><path class="y2tick ticks crisp" d="M90.96558242719661,0h5" transform="translate(0,389.5174300087489)" style="stroke: rgb(0, 0, 0); stroke-opacity: 1; stroke-width: 1px;"/><path class="y2tick ticks crisp" d="M90.96558242719661,0h5" transform="translate(0,357.9574300087489)" style="stroke: rgb(0, 0, 0); stroke-opacity: 1; stroke-width: 1px;"/><path class="y2tick ticks crisp" d="M90.96558242719661,0h5" transform="translate(0,326.39743000874887)" style="stroke: rgb(0, 0, 0); stroke-opacity: 1; stroke-width: 1px;"/><path class="y2tick ticks crisp" d="M90.96558242719661,0h5" transform="translate(0,294.83743000874887)" style="stroke: rgb(0, 0, 0); stroke-opacity: 1; stroke-width: 1px;"/><g class="y2tick"><text text-anchor="end" x="87.7655824271966" y="3.8499999999999996" transform="translate(0,421.07743000874893)" style="font-family: sans-serif; font-size: 11px; fill: rgb(0, 0, 0); fill-opacity: 1; white-space: pre;">0.0</text></g><g class="y2tick"><text text-anchor="end" x="87.7655824271966" y="3.8499999999999996" transform="translate(0,389.5174300087489)" style="font-family: sans-serif; font-size: 11px; fill: rgb(0, 0, 0); fill-opacity: 1; white-space: pre;">0.1</text></g><g class="y2tick"><text text-anchor="end" x="87.7655824271966" y="3.8499999999999996" transform="translate(0,357.9574300087489)" style="font-family: sans-serif; font-size: 11px; fill: rgb(0, 0, 0); fill-opacity: 1; white-space: pre;">0.2</text></g><g class="y2tick"><text text-anchor="end" x="87.7655824271966" y="3.8499999999999996" transform="translate(0,326.39743000874887)" style="font-family: sans-serif; font-size: 11px; fill: rgb(0, 0, 0); fill-opacity: 1; white-space: pre;">0.3</text></g><g class="y2tick"><text text-anchor="end" x="87.7655824271966" y="3.8499999999999996" transform="translate(0,294.83743000874887)" style="font-family: sans-serif; font-size: 11px; fill: rgb(0, 0, 0); fill-opacity: 1; white-space: pre;">0.4</text></g></g><g class="overaxes-above"/></g></g><g class="polarlayer"/><g class="ternarylayer"/><g class="geolayer"/><g class="funnelarealayer"/><g class="pielayer"/><g class="treemaplayer"/><g class="sunburstlayer"/><g class="glimages"/><defs id="topdefs-c82d9e"><g class="clips"/></defs><g class="layer-above"><g class="imagelayer"/><g class="shapelayer"/></g><g class="infolayer"><g class="g-gtitle"/><g class="g-xtitle"><text class="xtitle" x="368.72519841269843" y="272.0625" text-anchor="middle" style="font-family: sans-serif; font-size: 15px; fill: rgb(0, 0, 0); opacity: 1; font-weight: normal; white-space: pre;">time</text></g><g class="g-x2title"><text class="x2title" x="368.72519841269843" y="467.0625" text-anchor="middle" style="font-family: sans-serif; font-size: 15px; fill: rgb(0, 0, 0); opacity: 1; font-weight: normal; white-space: pre;">time</text></g><g class="g-ytitle"><text class="ytitle" transform="rotate(-90,46.96875,154.67881944444443)" x="46.96875" y="154.67881944444443" text-anchor="middle" style="font-family: sans-serif; font-size: 15px; fill: rgb(0, 0, 0); opacity: 1; font-weight: normal; white-space: pre;">speed</text></g><g class="g-y2title"><text class="y2title" transform="rotate(-90,46.96875,349.67881944444446)" x="46.96875" y="349.67881944444446" text-anchor="middle" style="font-family: sans-serif; font-size: 15px; fill: rgb(0, 0, 0); opacity: 1; font-weight: normal; white-space: pre;">speed</text></g><g class="annotation" data-index="0" style="opacity: 1;"><g class="annotation-text-g" transform="rotate(0,368.72519841269843,73)"><g class="cursor-pointer" transform="translate(354,60)"><rect class="bg" x="0.5" y="0.5" width="29" height="25" style="stroke-width: 1px; stroke: rgb(0, 0, 0); stroke-opacity: 0; fill: rgb(0, 0, 0); fill-opacity: 0;"/><text class="annotation-text" text-anchor="middle" x="14.796875" y="20" style="font-family: sans-serif; font-size: 20px; fill: rgb(0, 0, 0); fill-opacity: 1; white-space: pre;">Up</text></g></g></g><g class="annotation" data-index="1" style="opacity: 1;"><g class="annotation-text-g" transform="rotate(0,368.72519841269843,268)"><g class="cursor-pointer" transform="translate(341,255)"><rect class="bg" x="0.5" y="0.5" width="54" height="25" style="stroke-width: 1px; stroke: rgb(0, 0, 0); stroke-opacity: 0; fill: rgb(0, 0, 0); fill-opacity: 0;"/><text class="annotation-text" text-anchor="middle" x="27.578125" y="20" style="font-family: sans-serif; font-size: 20px; fill: rgb(0, 0, 0); fill-opacity: 1; white-space: pre;">Down</text></g></g></g></g></svg>