<?xml version="1.0" encoding="utf-8"?>
<svg xmlns="http://www.w3.org/2000/svg" xmlns:xlink="http://www.w3.org/1999/xlink" width="672" height="480" viewBox="0 0 2688 1920">
<defs>
  <clipPath id="clip440">
    <rect x="0" y="0" width="2688" height="1920"/>
  </clipPath>
</defs>
<path clip-path="url(#clip440)" d="
M0 1920 L2688 1920 L2688 0 L0 0  Z
  " fill="#ffffff" fill-rule="evenodd" fill-opacity="1"/>
<defs>
  <clipPath id="clip441">
    <rect x="537" y="0" width="1883" height="1883"/>
  </clipPath>
</defs>
<path clip-path="url(#clip440)" d="
M256.302 1734.12 L2640.76 1734.12 L2640.76 47.2441 L256.302 47.2441  Z
  " fill="#ffffff" fill-rule="evenodd" fill-opacity="1"/>
<defs>
  <clipPath id="clip442">
    <rect x="256" y="47" width="2385" height="1688"/>
  </clipPath>
</defs>
<polyline clip-path="url(#clip442)" style="stroke:#000000; stroke-linecap:round; stroke-linejoin:round; stroke-width:2; stroke-opacity:0.1; fill:none" points="
  548.735,1734.12 548.735,47.2441 
  "/>
<polyline clip-path="url(#clip442)" style="stroke:#000000; stroke-linecap:round; stroke-linejoin:round; stroke-width:2; stroke-opacity:0.1; fill:none" points="
  1223.58,1734.12 1223.58,47.2441 
  "/>
<polyline clip-path="url(#clip442)" style="stroke:#000000; stroke-linecap:round; stroke-linejoin:round; stroke-width:2; stroke-opacity:0.1; fill:none" points="
  1898.43,1734.12 1898.43,47.2441 
  "/>
<polyline clip-path="url(#clip442)" style="stroke:#000000; stroke-linecap:round; stroke-linejoin:round; stroke-width:2; stroke-opacity:0.1; fill:none" points="
  2573.27,1734.12 2573.27,47.2441 
  "/>
<polyline clip-path="url(#clip440)" style="stroke:#000000; stroke-linecap:round; stroke-linejoin:round; stroke-width:4; stroke-opacity:1; fill:none" points="
  256.302,1734.12 2640.76,1734.12 
  "/>
<polyline clip-path="url(#clip440)" style="stroke:#000000; stroke-linecap:round; stroke-linejoin:round; stroke-width:4; stroke-opacity:1; fill:none" points="
  548.735,1734.12 548.735,1715.22 
  "/>
<polyline clip-path="url(#clip440)" style="stroke:#000000; stroke-linecap:round; stroke-linejoin:round; stroke-width:4; stroke-opacity:1; fill:none" points="
  1223.58,1734.12 1223.58,1715.22 
  "/>
<polyline clip-path="url(#clip440)" style="stroke:#000000; stroke-linecap:round; stroke-linejoin:round; stroke-width:4; stroke-opacity:1; fill:none" points="
  1898.43,1734.12 1898.43,1715.22 
  "/>
<polyline clip-path="url(#clip440)" style="stroke:#000000; stroke-linecap:round; stroke-linejoin:round; stroke-width:4; stroke-opacity:1; fill:none" points="
  2573.27,1734.12 2573.27,1715.22 
  "/>
<path clip-path="url(#clip440)" d="M511.537 1767.34 Q507.925 1767.34 506.097 1770.9 Q504.291 1774.45 504.291 1781.58 Q504.291 1788.68 506.097 1792.25 Q507.925 1795.79 511.537 1795.79 Q515.171 1795.79 516.976 1792.25 Q518.805 1788.68 518.805 1781.58 Q518.805 1774.45 516.976 1770.9 Q515.171 1767.34 511.537 1767.34 M511.537 1763.64 Q517.347 1763.64 520.402 1768.24 Q523.481 1772.83 523.481 1781.58 Q523.481 1790.3 520.402 1794.91 Q517.347 1799.49 511.537 1799.49 Q505.726 1799.49 502.648 1794.91 Q499.592 1790.3 499.592 1781.58 Q499.592 1772.83 502.648 1768.24 Q505.726 1763.64 511.537 1763.64 Z" fill="#000000" fill-rule="evenodd" fill-opacity="1" /><path clip-path="url(#clip440)" d="M531.698 1792.94 L536.583 1792.94 L536.583 1798.82 L531.698 1798.82 L531.698 1792.94 Z" fill="#000000" fill-rule="evenodd" fill-opacity="1" /><path clip-path="url(#clip440)" d="M560.934 1780.19 Q564.291 1780.9 566.166 1783.17 Q568.064 1785.44 568.064 1788.77 Q568.064 1793.89 564.546 1796.69 Q561.027 1799.49 554.546 1799.49 Q552.37 1799.49 550.055 1799.05 Q547.763 1798.64 545.31 1797.78 L545.31 1793.27 Q547.254 1794.4 549.569 1794.98 Q551.884 1795.56 554.407 1795.56 Q558.805 1795.56 561.096 1793.82 Q563.411 1792.08 563.411 1788.77 Q563.411 1785.72 561.259 1784.01 Q559.129 1782.27 555.309 1782.27 L551.282 1782.27 L551.282 1778.43 L555.495 1778.43 Q558.944 1778.43 560.772 1777.06 Q562.601 1775.67 562.601 1773.08 Q562.601 1770.42 560.703 1769.01 Q558.828 1767.57 555.309 1767.57 Q553.388 1767.57 551.189 1767.99 Q548.99 1768.4 546.351 1769.28 L546.351 1765.12 Q549.013 1764.38 551.328 1764.01 Q553.666 1763.64 555.726 1763.64 Q561.05 1763.64 564.152 1766.07 Q567.254 1768.47 567.254 1772.59 Q567.254 1775.46 565.61 1777.46 Q563.967 1779.42 560.934 1780.19 Z" fill="#000000" fill-rule="evenodd" fill-opacity="1" /><path clip-path="url(#clip440)" d="M576.976 1764.26 L595.332 1764.26 L595.332 1768.2 L581.258 1768.2 L581.258 1776.67 Q582.277 1776.32 583.295 1776.16 Q584.314 1775.97 585.332 1775.97 Q591.119 1775.97 594.499 1779.15 Q597.879 1782.32 597.879 1787.73 Q597.879 1793.31 594.406 1796.41 Q590.934 1799.49 584.615 1799.49 Q582.439 1799.49 580.17 1799.12 Q577.925 1798.75 575.518 1798.01 L575.518 1793.31 Q577.601 1794.45 579.823 1795 Q582.045 1795.56 584.522 1795.56 Q588.527 1795.56 590.865 1793.45 Q593.203 1791.34 593.203 1787.73 Q593.203 1784.12 590.865 1782.02 Q588.527 1779.91 584.522 1779.91 Q582.647 1779.91 580.772 1780.33 Q578.92 1780.74 576.976 1781.62 L576.976 1764.26 Z" fill="#000000" fill-rule="evenodd" fill-opacity="1" /><path clip-path="url(#clip440)" d="M1185.88 1767.34 Q1182.27 1767.34 1180.44 1770.9 Q1178.64 1774.45 1178.64 1781.58 Q1178.64 1788.68 1180.44 1792.25 Q1182.27 1795.79 1185.88 1795.79 Q1189.52 1795.79 1191.32 1792.25 Q1193.15 1788.68 1193.15 1781.58 Q1193.15 1774.45 1191.32 1770.9 Q1189.52 1767.34 1185.88 1767.34 M1185.88 1763.64 Q1191.69 1763.64 1194.75 1768.24 Q1197.83 1772.83 1197.83 1781.58 Q1197.83 1790.3 1194.75 1794.91 Q1191.69 1799.49 1185.88 1799.49 Q1180.07 1799.49 1177 1794.91 Q1173.94 1790.3 1173.94 1781.58 Q1173.94 1772.83 1177 1768.24 Q1180.07 1763.64 1185.88 1763.64 Z" fill="#000000" fill-rule="evenodd" fill-opacity="1" /><path clip-path="url(#clip440)" d="M1206.05 1792.94 L1210.93 1792.94 L1210.93 1798.82 L1206.05 1798.82 L1206.05 1792.94 Z" fill="#000000" fill-rule="evenodd" fill-opacity="1" /><path clip-path="url(#clip440)" d="M1233.96 1768.34 L1222.16 1786.78 L1233.96 1786.78 L1233.96 1768.34 M1232.74 1764.26 L1238.62 1764.26 L1238.62 1786.78 L1243.55 1786.78 L1243.55 1790.67 L1238.62 1790.67 L1238.62 1798.82 L1233.96 1798.82 L1233.96 1790.67 L1218.36 1790.67 L1218.36 1786.16 L1232.74 1764.26 Z" fill="#000000" fill-rule="evenodd" fill-opacity="1" /><path clip-path="url(#clip440)" d="M1261.28 1767.34 Q1257.67 1767.34 1255.84 1770.9 Q1254.03 1774.45 1254.03 1781.58 Q1254.03 1788.68 1255.84 1792.25 Q1257.67 1795.79 1261.28 1795.79 Q1264.91 1795.79 1266.72 1792.25 Q1268.55 1788.68 1268.55 1781.58 Q1268.55 1774.45 1266.72 1770.9 Q1264.91 1767.34 1261.28 1767.34 M1261.28 1763.64 Q1267.09 1763.64 1270.14 1768.24 Q1273.22 1772.83 1273.22 1781.58 Q1273.22 1790.3 1270.14 1794.91 Q1267.09 1799.49 1261.28 1799.49 Q1255.47 1799.49 1252.39 1794.91 Q1249.33 1790.3 1249.33 1781.58 Q1249.33 1772.83 1252.39 1768.24 Q1255.47 1763.64 1261.28 1763.64 Z" fill="#000000" fill-rule="evenodd" fill-opacity="1" /><path clip-path="url(#clip440)" d="M1861.23 1767.34 Q1857.62 1767.34 1855.79 1770.9 Q1853.98 1774.45 1853.98 1781.58 Q1853.98 1788.68 1855.79 1792.25 Q1857.62 1795.79 1861.23 1795.79 Q1864.86 1795.79 1866.67 1792.25 Q1868.5 1788.68 1868.5 1781.58 Q1868.5 1774.45 1866.67 1770.9 Q1864.86 1767.34 1861.23 1767.34 M1861.23 1763.64 Q1867.04 1763.64 1870.09 1768.24 Q1873.17 1772.83 1873.17 1781.58 Q1873.17 1790.3 1870.09 1794.91 Q1867.04 1799.49 1861.23 1799.49 Q1855.42 1799.49 1852.34 1794.91 Q1849.28 1790.3 1849.28 1781.58 Q1849.28 1772.83 1852.34 1768.24 Q1855.42 1763.64 1861.23 1763.64 Z" fill="#000000" fill-rule="evenodd" fill-opacity="1" /><path clip-path="url(#clip440)" d="M1881.39 1792.94 L1886.27 1792.94 L1886.27 1798.82 L1881.39 1798.82 L1881.39 1792.94 Z" fill="#000000" fill-rule="evenodd" fill-opacity="1" /><path clip-path="url(#clip440)" d="M1909.31 1768.34 L1897.5 1786.78 L1909.31 1786.78 L1909.31 1768.34 M1908.08 1764.26 L1913.96 1764.26 L1913.96 1786.78 L1918.89 1786.78 L1918.89 1790.67 L1913.96 1790.67 L1913.96 1798.82 L1909.31 1798.82 L1909.31 1790.67 L1893.7 1790.67 L1893.7 1786.16 L1908.08 1764.26 Z" fill="#000000" fill-rule="evenodd" fill-opacity="1" /><path clip-path="url(#clip440)" d="M1926.67 1764.26 L1945.02 1764.26 L1945.02 1768.2 L1930.95 1768.2 L1930.95 1776.67 Q1931.97 1776.32 1932.99 1776.16 Q1934 1775.97 1935.02 1775.97 Q1940.81 1775.97 1944.19 1779.15 Q1947.57 1782.32 1947.57 1787.73 Q1947.57 1793.31 1944.1 1796.41 Q1940.62 1799.49 1934.31 1799.49 Q1932.13 1799.49 1929.86 1799.12 Q1927.62 1798.75 1925.21 1798.01 L1925.21 1793.31 Q1927.29 1794.45 1929.51 1795 Q1931.74 1795.56 1934.21 1795.56 Q1938.22 1795.56 1940.56 1793.45 Q1942.89 1791.34 1942.89 1787.73 Q1942.89 1784.12 1940.56 1782.02 Q1938.22 1779.91 1934.21 1779.91 Q1932.34 1779.91 1930.46 1780.33 Q1928.61 1780.74 1926.67 1781.62 L1926.67 1764.26 Z" fill="#000000" fill-rule="evenodd" fill-opacity="1" /><path clip-path="url(#clip440)" d="M2535.57 1767.34 Q2531.96 1767.34 2530.14 1770.9 Q2528.33 1774.45 2528.33 1781.58 Q2528.33 1788.68 2530.14 1792.25 Q2531.96 1795.79 2535.57 1795.79 Q2539.21 1795.79 2541.01 1792.25 Q2542.84 1788.68 2542.84 1781.58 Q2542.84 1774.45 2541.01 1770.9 Q2539.21 1767.34 2535.57 1767.34 M2535.57 1763.64 Q2541.39 1763.64 2544.44 1768.24 Q2547.52 1772.83 2547.52 1781.58 Q2547.52 1790.3 2544.44 1794.91 Q2541.39 1799.49 2535.57 1799.49 Q2529.76 1799.49 2526.69 1794.91 Q2523.63 1790.3 2523.63 1781.58 Q2523.63 1772.83 2526.69 1768.24 Q2529.76 1763.64 2535.57 1763.64 Z" fill="#000000" fill-rule="evenodd" fill-opacity="1" /><path clip-path="url(#clip440)" d="M2555.74 1792.94 L2560.62 1792.94 L2560.62 1798.82 L2555.74 1798.82 L2555.74 1792.94 Z" fill="#000000" fill-rule="evenodd" fill-opacity="1" /><path clip-path="url(#clip440)" d="M2570.85 1764.26 L2589.21 1764.26 L2589.21 1768.2 L2575.13 1768.2 L2575.13 1776.67 Q2576.15 1776.32 2577.17 1776.16 Q2578.19 1775.97 2579.21 1775.97 Q2585 1775.97 2588.38 1779.15 Q2591.76 1782.32 2591.76 1787.73 Q2591.76 1793.31 2588.28 1796.41 Q2584.81 1799.49 2578.49 1799.49 Q2576.32 1799.49 2574.05 1799.12 Q2571.8 1798.75 2569.39 1798.01 L2569.39 1793.31 Q2571.48 1794.45 2573.7 1795 Q2575.92 1795.56 2578.4 1795.56 Q2582.4 1795.56 2584.74 1793.45 Q2587.08 1791.34 2587.08 1787.73 Q2587.08 1784.12 2584.74 1782.02 Q2582.4 1779.91 2578.4 1779.91 Q2576.52 1779.91 2574.65 1780.33 Q2572.8 1780.74 2570.85 1781.62 L2570.85 1764.26 Z" fill="#000000" fill-rule="evenodd" fill-opacity="1" /><path clip-path="url(#clip440)" d="M2610.97 1767.34 Q2607.36 1767.34 2605.53 1770.9 Q2603.72 1774.45 2603.72 1781.58 Q2603.72 1788.68 2605.53 1792.25 Q2607.36 1795.79 2610.97 1795.79 Q2614.6 1795.79 2616.41 1792.25 Q2618.24 1788.68 2618.24 1781.58 Q2618.24 1774.45 2616.41 1770.9 Q2614.6 1767.34 2610.97 1767.34 M2610.97 1763.64 Q2616.78 1763.64 2619.83 1768.24 Q2622.91 1772.83 2622.91 1781.58 Q2622.91 1790.3 2619.83 1794.91 Q2616.78 1799.49 2610.97 1799.49 Q2605.16 1799.49 2602.08 1794.91 Q2599.02 1790.3 2599.02 1781.58 Q2599.02 1772.83 2602.08 1768.24 Q2605.16 1763.64 2610.97 1763.64 Z" fill="#000000" fill-rule="evenodd" fill-opacity="1" /><path clip-path="url(#clip440)" d="M1230.85 1842.11 L1222.13 1865.76 L1239.61 1865.76 L1230.85 1842.11 M1227.23 1835.78 L1234.51 1835.78 L1252.62 1883.3 L1245.94 1883.3 L1241.61 1871.11 L1220.19 1871.11 L1215.86 1883.3 L1209.08 1883.3 L1227.23 1835.78 Z" fill="#000000" fill-rule="evenodd" fill-opacity="1" /><path clip-path="url(#clip440)" d="M1251.29 1847.65 L1257.49 1847.65 L1268.63 1877.57 L1279.77 1847.65 L1285.98 1847.65 L1272.61 1883.3 L1264.66 1883.3 L1251.29 1847.65 Z" fill="#000000" fill-rule="evenodd" fill-opacity="1" /><path clip-path="url(#clip440)" d="M1324.56 1864.01 L1324.56 1866.88 L1297.63 1866.88 Q1298.01 1872.92 1301.26 1876.11 Q1304.54 1879.26 1310.36 1879.26 Q1313.74 1879.26 1316.89 1878.43 Q1320.07 1877.6 1323.19 1875.95 L1323.19 1881.49 Q1320.04 1882.82 1316.73 1883.52 Q1313.42 1884.22 1310.01 1884.22 Q1301.48 1884.22 1296.48 1879.26 Q1291.52 1874.29 1291.52 1865.83 Q1291.52 1857.07 1296.23 1851.95 Q1300.97 1846.79 1308.99 1846.79 Q1316.19 1846.79 1320.36 1851.44 Q1324.56 1856.06 1324.56 1864.01 M1318.7 1862.29 Q1318.64 1857.49 1316 1854.62 Q1313.39 1851.76 1309.06 1851.76 Q1304.15 1851.76 1301.19 1854.53 Q1298.27 1857.3 1297.82 1862.33 L1318.7 1862.29 Z" fill="#000000" fill-rule="evenodd" fill-opacity="1" /><path clip-path="url(#clip440)" d="M1354.83 1853.13 Q1353.84 1852.55 1352.66 1852.3 Q1351.52 1852.01 1350.12 1852.01 Q1345.15 1852.01 1342.48 1855.26 Q1339.83 1858.47 1339.83 1864.52 L1339.83 1883.3 L1333.95 1883.3 L1333.95 1847.65 L1339.83 1847.65 L1339.83 1853.19 Q1341.68 1849.94 1344.64 1848.39 Q1347.6 1846.79 1351.83 1846.79 Q1352.44 1846.79 1353.17 1846.89 Q1353.9 1846.95 1354.79 1847.11 L1354.83 1853.13 Z" fill="#000000" fill-rule="evenodd" fill-opacity="1" /><path clip-path="url(#clip440)" d="M1377.17 1865.38 Q1370.07 1865.38 1367.33 1867 Q1364.6 1868.63 1364.6 1872.54 Q1364.6 1875.66 1366.63 1877.51 Q1368.7 1879.32 1372.24 1879.32 Q1377.11 1879.32 1380.03 1875.88 Q1382.99 1872.42 1382.99 1866.69 L1382.99 1865.38 L1377.17 1865.38 M1388.85 1862.96 L1388.85 1883.3 L1382.99 1883.3 L1382.99 1877.89 Q1380.99 1881.14 1378 1882.7 Q1375.01 1884.22 1370.68 1884.22 Q1365.2 1884.22 1361.96 1881.17 Q1358.74 1878.08 1358.74 1872.92 Q1358.74 1866.91 1362.75 1863.85 Q1366.79 1860.8 1374.78 1860.8 L1382.99 1860.8 L1382.99 1860.23 Q1382.99 1856.18 1380.32 1853.99 Q1377.68 1851.76 1372.87 1851.76 Q1369.82 1851.76 1366.92 1852.49 Q1364.02 1853.22 1361.35 1854.69 L1361.35 1849.28 Q1364.57 1848.03 1367.59 1847.43 Q1370.61 1846.79 1373.48 1846.79 Q1381.21 1846.79 1385.03 1850.8 Q1388.85 1854.81 1388.85 1862.96 Z" fill="#000000" fill-rule="evenodd" fill-opacity="1" /><path clip-path="url(#clip440)" d="M1424.37 1865.06 Q1424.37 1858.7 1421.73 1855.2 Q1419.12 1851.7 1414.38 1851.7 Q1409.67 1851.7 1407.02 1855.2 Q1404.41 1858.7 1404.41 1865.06 Q1404.41 1871.4 1407.02 1874.9 Q1409.67 1878.4 1414.38 1878.4 Q1419.12 1878.4 1421.73 1874.9 Q1424.37 1871.4 1424.37 1865.06 M1430.23 1878.88 Q1430.23 1887.98 1426.19 1892.4 Q1422.14 1896.86 1413.8 1896.86 Q1410.72 1896.86 1407.98 1896.38 Q1405.24 1895.94 1402.66 1894.98 L1402.66 1889.28 Q1405.24 1890.69 1407.76 1891.35 Q1410.27 1892.02 1412.88 1892.02 Q1418.64 1892.02 1421.51 1889 Q1424.37 1886.01 1424.37 1879.93 L1424.37 1877.03 Q1422.56 1880.18 1419.72 1881.74 Q1416.89 1883.3 1412.94 1883.3 Q1406.39 1883.3 1402.38 1878.3 Q1398.37 1873.31 1398.37 1865.06 Q1398.37 1856.79 1402.38 1851.79 Q1406.39 1846.79 1412.94 1846.79 Q1416.89 1846.79 1419.72 1848.35 Q1422.56 1849.91 1424.37 1853.06 L1424.37 1847.65 L1430.23 1847.65 L1430.23 1878.88 Z" fill="#000000" fill-rule="evenodd" fill-opacity="1" /><path clip-path="url(#clip440)" d="M1472.78 1864.01 L1472.78 1866.88 L1445.86 1866.88 Q1446.24 1872.92 1449.48 1876.11 Q1452.76 1879.26 1458.59 1879.26 Q1461.96 1879.26 1465.11 1878.43 Q1468.29 1877.6 1471.41 1875.95 L1471.41 1881.49 Q1468.26 1882.82 1464.95 1883.52 Q1461.64 1884.22 1458.24 1884.22 Q1449.71 1884.22 1444.71 1879.26 Q1439.74 1874.29 1439.74 1865.83 Q1439.74 1857.07 1444.46 1851.95 Q1449.2 1846.79 1457.22 1846.79 Q1464.41 1846.79 1468.58 1851.44 Q1472.78 1856.06 1472.78 1864.01 M1466.93 1862.29 Q1466.86 1857.49 1464.22 1854.62 Q1461.61 1851.76 1457.28 1851.76 Q1452.38 1851.76 1449.42 1854.53 Q1446.49 1857.3 1446.05 1862.33 L1466.93 1862.29 Z" fill="#000000" fill-rule="evenodd" fill-opacity="1" /><path clip-path="url(#clip440)" d="M1525.84 1848.7 L1525.84 1854.24 Q1523.36 1852.97 1520.68 1852.33 Q1518.01 1851.7 1515.15 1851.7 Q1510.79 1851.7 1508.59 1853.03 Q1506.43 1854.37 1506.43 1857.04 Q1506.43 1859.08 1507.98 1860.26 Q1509.54 1861.4 1514.26 1862.45 L1516.26 1862.9 Q1522.5 1864.24 1525.11 1866.69 Q1527.75 1869.11 1527.75 1873.47 Q1527.75 1878.43 1523.8 1881.33 Q1519.89 1884.22 1513.01 1884.22 Q1510.15 1884.22 1507.03 1883.65 Q1503.94 1883.11 1500.51 1882 L1500.51 1875.95 Q1503.75 1877.64 1506.9 1878.49 Q1510.05 1879.32 1513.14 1879.32 Q1517.28 1879.32 1519.51 1877.92 Q1521.73 1876.49 1521.73 1873.91 Q1521.73 1871.52 1520.11 1870.25 Q1518.52 1868.98 1513.08 1867.8 L1511.04 1867.32 Q1505.6 1866.18 1503.18 1863.82 Q1500.76 1861.43 1500.76 1857.3 Q1500.76 1852.27 1504.32 1849.53 Q1507.89 1846.79 1514.45 1846.79 Q1517.69 1846.79 1520.56 1847.27 Q1523.42 1847.75 1525.84 1848.7 Z" fill="#000000" fill-rule="evenodd" fill-opacity="1" /><path clip-path="url(#clip440)" d="M1542.74 1877.95 L1542.74 1896.86 L1536.85 1896.86 L1536.85 1847.65 L1542.74 1847.65 L1542.74 1853.06 Q1544.59 1849.88 1547.39 1848.35 Q1550.22 1846.79 1554.14 1846.79 Q1560.63 1846.79 1564.67 1851.95 Q1568.75 1857.11 1568.75 1865.51 Q1568.75 1873.91 1564.67 1879.07 Q1560.63 1884.22 1554.14 1884.22 Q1550.22 1884.22 1547.39 1882.7 Q1544.59 1881.14 1542.74 1877.95 M1562.67 1865.51 Q1562.67 1859.05 1559.99 1855.39 Q1557.35 1851.7 1552.7 1851.7 Q1548.06 1851.7 1545.38 1855.39 Q1542.74 1859.05 1542.74 1865.51 Q1542.74 1871.97 1545.38 1875.66 Q1548.06 1879.32 1552.7 1879.32 Q1557.35 1879.32 1559.99 1875.66 Q1562.67 1871.97 1562.67 1865.51 Z" fill="#000000" fill-rule="evenodd" fill-opacity="1" /><path clip-path="url(#clip440)" d="M1608.94 1864.01 L1608.94 1866.88 L1582.02 1866.88 Q1582.4 1872.92 1585.65 1876.11 Q1588.92 1879.26 1594.75 1879.26 Q1598.12 1879.26 1601.27 1878.43 Q1604.46 1877.6 1607.58 1875.95 L1607.58 1881.49 Q1604.43 1882.82 1601.12 1883.52 Q1597.8 1884.22 1594.4 1884.22 Q1585.87 1884.22 1580.87 1879.26 Q1575.91 1874.29 1575.91 1865.83 Q1575.91 1857.07 1580.62 1851.95 Q1585.36 1846.79 1593.38 1846.79 Q1600.57 1846.79 1604.74 1851.44 Q1608.94 1856.06 1608.94 1864.01 M1603.09 1862.29 Q1603.02 1857.49 1600.38 1854.62 Q1597.77 1851.76 1593.44 1851.76 Q1588.54 1851.76 1585.58 1854.53 Q1582.65 1857.3 1582.21 1862.33 L1603.09 1862.29 Z" fill="#000000" fill-rule="evenodd" fill-opacity="1" /><path clip-path="url(#clip440)" d="M1649.05 1864.01 L1649.05 1866.88 L1622.12 1866.88 Q1622.5 1872.92 1625.75 1876.11 Q1629.03 1879.26 1634.85 1879.26 Q1638.23 1879.26 1641.38 1878.43 Q1644.56 1877.6 1647.68 1875.95 L1647.68 1881.49 Q1644.53 1882.82 1641.22 1883.52 Q1637.91 1884.22 1634.5 1884.22 Q1625.97 1884.22 1620.98 1879.26 Q1616.01 1874.29 1616.01 1865.83 Q1616.01 1857.07 1620.72 1851.95 Q1625.46 1846.79 1633.48 1846.79 Q1640.68 1846.79 1644.85 1851.44 Q1649.05 1856.06 1649.05 1864.01 M1643.19 1862.29 Q1643.13 1857.49 1640.49 1854.62 Q1637.88 1851.76 1633.55 1851.76 Q1628.65 1851.76 1625.69 1854.53 Q1622.76 1857.3 1622.31 1862.33 L1643.19 1862.29 Z" fill="#000000" fill-rule="evenodd" fill-opacity="1" /><path clip-path="url(#clip440)" d="M1682.12 1853.06 L1682.12 1833.78 L1687.98 1833.78 L1687.98 1883.3 L1682.12 1883.3 L1682.12 1877.95 Q1680.27 1881.14 1677.44 1882.7 Q1674.64 1884.22 1670.69 1884.22 Q1664.23 1884.22 1660.16 1879.07 Q1656.11 1873.91 1656.11 1865.51 Q1656.11 1857.11 1660.16 1851.95 Q1664.23 1846.79 1670.69 1846.79 Q1674.64 1846.79 1677.44 1848.35 Q1680.27 1849.88 1682.12 1853.06 M1662.16 1865.51 Q1662.16 1871.97 1664.8 1875.66 Q1667.48 1879.32 1672.12 1879.32 Q1676.77 1879.32 1679.45 1875.66 Q1682.12 1871.97 1682.12 1865.51 Q1682.12 1859.05 1679.45 1855.39 Q1676.77 1851.7 1672.12 1851.7 Q1667.48 1851.7 1664.8 1855.39 Q1662.16 1859.05 1662.16 1865.51 Z" fill="#000000" fill-rule="evenodd" fill-opacity="1" /><polyline clip-path="url(#clip442)" style="stroke:#000000; stroke-linecap:round; stroke-linejoin:round; stroke-width:2; stroke-opacity:0.1; fill:none" points="
  256.302,1542.62 2640.76,1542.62 
  "/>
<polyline clip-path="url(#clip442)" style="stroke:#000000; stroke-linecap:round; stroke-linejoin:round; stroke-width:2; stroke-opacity:0.1; fill:none" points="
  256.302,1262.47 2640.76,1262.47 
  "/>
<polyline clip-path="url(#clip442)" style="stroke:#000000; stroke-linecap:round; stroke-linejoin:round; stroke-width:2; stroke-opacity:0.1; fill:none" points="
  256.302,982.328 2640.76,982.328 
  "/>
<polyline clip-path="url(#clip442)" style="stroke:#000000; stroke-linecap:round; stroke-linejoin:round; stroke-width:2; stroke-opacity:0.1; fill:none" points="
  256.302,702.185 2640.76,702.185 
  "/>
<polyline clip-path="url(#clip442)" style="stroke:#000000; stroke-linecap:round; stroke-linejoin:round; stroke-width:2; stroke-opacity:0.1; fill:none" points="
  256.302,422.041 2640.76,422.041 
  "/>
<polyline clip-path="url(#clip442)" style="stroke:#000000; stroke-linecap:round; stroke-linejoin:round; stroke-width:2; stroke-opacity:0.1; fill:none" points="
  256.302,141.898 2640.76,141.898 
  "/>
<polyline clip-path="url(#clip440)" style="stroke:#000000; stroke-linecap:round; stroke-linejoin:round; stroke-width:4; stroke-opacity:1; fill:none" points="
  256.302,1734.12 256.302,47.2441 
  "/>
<polyline clip-path="url(#clip440)" style="stroke:#000000; stroke-linecap:round; stroke-linejoin:round; stroke-width:4; stroke-opacity:1; fill:none" points="
  256.302,1542.62 275.2,1542.62 
  "/>
<polyline clip-path="url(#clip440)" style="stroke:#000000; stroke-linecap:round; stroke-linejoin:round; stroke-width:4; stroke-opacity:1; fill:none" points="
  256.302,1262.47 275.2,1262.47 
  "/>
<polyline clip-path="url(#clip440)" style="stroke:#000000; stroke-linecap:round; stroke-linejoin:round; stroke-width:4; stroke-opacity:1; fill:none" points="
  256.302,982.328 275.2,982.328 
  "/>
<polyline clip-path="url(#clip440)" style="stroke:#000000; stroke-linecap:round; stroke-linejoin:round; stroke-width:4; stroke-opacity:1; fill:none" points="
  256.302,702.185 275.2,702.185 
  "/>
<polyline clip-path="url(#clip440)" style="stroke:#000000; stroke-linecap:round; stroke-linejoin:round; stroke-width:4; stroke-opacity:1; fill:none" points="
  256.302,422.041 275.2,422.041 
  "/>
<polyline clip-path="url(#clip440)" style="stroke:#000000; stroke-linecap:round; stroke-linejoin:round; stroke-width:4; stroke-opacity:1; fill:none" points="
  256.302,141.898 275.2,141.898 
  "/>
<path clip-path="url(#clip440)" d="M130.242 1528.41 Q126.631 1528.41 124.802 1531.98 Q122.997 1535.52 122.997 1542.65 Q122.997 1549.76 124.802 1553.32 Q126.631 1556.86 130.242 1556.86 Q133.876 1556.86 135.682 1553.32 Q137.511 1549.76 137.511 1542.65 Q137.511 1535.52 135.682 1531.98 Q133.876 1528.41 130.242 1528.41 M130.242 1524.71 Q136.052 1524.71 139.108 1529.32 Q142.187 1533.9 142.187 1542.65 Q142.187 1551.38 139.108 1555.98 Q136.052 1560.57 130.242 1560.57 Q124.432 1560.57 121.353 1555.98 Q118.298 1551.38 118.298 1542.65 Q118.298 1533.9 121.353 1529.32 Q124.432 1524.71 130.242 1524.71 Z" fill="#000000" fill-rule="evenodd" fill-opacity="1" /><path clip-path="url(#clip440)" d="M150.404 1554.02 L155.288 1554.02 L155.288 1559.9 L150.404 1559.9 L150.404 1554.02 Z" fill="#000000" fill-rule="evenodd" fill-opacity="1" /><path clip-path="url(#clip440)" d="M166.284 1555.96 L173.922 1555.96 L173.922 1529.59 L165.612 1531.26 L165.612 1527 L173.876 1525.34 L178.552 1525.34 L178.552 1555.96 L186.191 1555.96 L186.191 1559.9 L166.284 1559.9 L166.284 1555.96 Z" fill="#000000" fill-rule="evenodd" fill-opacity="1" /><path clip-path="url(#clip440)" d="M199.663 1555.96 L215.982 1555.96 L215.982 1559.9 L194.038 1559.9 L194.038 1555.96 Q196.7 1553.21 201.283 1548.58 Q205.89 1543.92 207.07 1542.58 Q209.316 1540.06 210.195 1538.32 Q211.098 1536.56 211.098 1534.87 Q211.098 1532.12 209.154 1530.38 Q207.232 1528.65 204.131 1528.65 Q201.932 1528.65 199.478 1529.41 Q197.047 1530.17 194.27 1531.72 L194.27 1527 Q197.094 1525.87 199.547 1525.29 Q202.001 1524.71 204.038 1524.71 Q209.408 1524.71 212.603 1527.4 Q215.797 1530.08 215.797 1534.57 Q215.797 1536.7 214.987 1538.62 Q214.2 1540.52 212.094 1543.11 Q211.515 1543.78 208.413 1547 Q205.311 1550.2 199.663 1555.96 Z" fill="#000000" fill-rule="evenodd" fill-opacity="1" /><path clip-path="url(#clip440)" d="M128.159 1248.27 Q124.548 1248.27 122.719 1251.84 Q120.913 1255.38 120.913 1262.51 Q120.913 1269.61 122.719 1273.18 Q124.548 1276.72 128.159 1276.72 Q131.793 1276.72 133.599 1273.18 Q135.427 1269.61 135.427 1262.51 Q135.427 1255.38 133.599 1251.84 Q131.793 1248.27 128.159 1248.27 M128.159 1244.57 Q133.969 1244.57 137.025 1249.17 Q140.103 1253.76 140.103 1262.51 Q140.103 1271.23 137.025 1275.84 Q133.969 1280.42 128.159 1280.42 Q122.349 1280.42 119.27 1275.84 Q116.214 1271.23 116.214 1262.51 Q116.214 1253.76 119.27 1249.17 Q122.349 1244.57 128.159 1244.57 Z" fill="#000000" fill-rule="evenodd" fill-opacity="1" /><path clip-path="url(#clip440)" d="M148.321 1273.87 L153.205 1273.87 L153.205 1279.75 L148.321 1279.75 L148.321 1273.87 Z" fill="#000000" fill-rule="evenodd" fill-opacity="1" /><path clip-path="url(#clip440)" d="M164.2 1275.82 L171.839 1275.82 L171.839 1249.45 L163.529 1251.12 L163.529 1246.86 L171.793 1245.19 L176.469 1245.19 L176.469 1275.82 L184.108 1275.82 L184.108 1279.75 L164.2 1279.75 L164.2 1275.82 Z" fill="#000000" fill-rule="evenodd" fill-opacity="1" /><path clip-path="url(#clip440)" d="M206.399 1249.27 L194.594 1267.71 L206.399 1267.71 L206.399 1249.27 M205.172 1245.19 L211.052 1245.19 L211.052 1267.71 L215.982 1267.71 L215.982 1271.6 L211.052 1271.6 L211.052 1279.75 L206.399 1279.75 L206.399 1271.6 L190.797 1271.6 L190.797 1267.09 L205.172 1245.19 Z" fill="#000000" fill-rule="evenodd" fill-opacity="1" /><path clip-path="url(#clip440)" d="M128.483 968.127 Q124.872 968.127 123.043 971.692 Q121.238 975.233 121.238 982.363 Q121.238 989.469 123.043 993.034 Q124.872 996.576 128.483 996.576 Q132.117 996.576 133.923 993.034 Q135.751 989.469 135.751 982.363 Q135.751 975.233 133.923 971.692 Q132.117 968.127 128.483 968.127 M128.483 964.423 Q134.293 964.423 137.349 969.03 Q140.427 973.613 140.427 982.363 Q140.427 991.09 137.349 995.696 Q134.293 1000.28 128.483 1000.28 Q122.673 1000.28 119.594 995.696 Q116.539 991.09 116.539 982.363 Q116.539 973.613 119.594 969.03 Q122.673 964.423 128.483 964.423 Z" fill="#000000" fill-rule="evenodd" fill-opacity="1" /><path clip-path="url(#clip440)" d="M148.645 993.729 L153.529 993.729 L153.529 999.608 L148.645 999.608 L148.645 993.729 Z" fill="#000000" fill-rule="evenodd" fill-opacity="1" /><path clip-path="url(#clip440)" d="M164.524 995.673 L172.163 995.673 L172.163 969.307 L163.853 970.974 L163.853 966.715 L172.117 965.048 L176.793 965.048 L176.793 995.673 L184.432 995.673 L184.432 999.608 L164.524 999.608 L164.524 995.673 Z" fill="#000000" fill-rule="evenodd" fill-opacity="1" /><path clip-path="url(#clip440)" d="M204.455 980.465 Q201.307 980.465 199.455 982.618 Q197.626 984.77 197.626 988.52 Q197.626 992.247 199.455 994.423 Q201.307 996.576 204.455 996.576 Q207.603 996.576 209.432 994.423 Q211.283 992.247 211.283 988.52 Q211.283 984.77 209.432 982.618 Q207.603 980.465 204.455 980.465 M213.737 965.812 L213.737 970.071 Q211.978 969.238 210.172 968.798 Q208.39 968.358 206.631 968.358 Q202.001 968.358 199.547 971.483 Q197.117 974.608 196.77 980.928 Q198.135 978.914 200.195 977.849 Q202.256 976.761 204.732 976.761 Q209.941 976.761 212.95 979.932 Q215.982 983.081 215.982 988.52 Q215.982 993.844 212.834 997.062 Q209.686 1000.28 204.455 1000.28 Q198.459 1000.28 195.288 995.696 Q192.117 991.09 192.117 982.363 Q192.117 974.169 196.006 969.307 Q199.895 964.423 206.445 964.423 Q208.205 964.423 209.987 964.77 Q211.793 965.118 213.737 965.812 Z" fill="#000000" fill-rule="evenodd" fill-opacity="1" /><path clip-path="url(#clip440)" d="M128.738 687.983 Q125.126 687.983 123.298 691.548 Q121.492 695.09 121.492 702.219 Q121.492 709.326 123.298 712.891 Q125.126 716.432 128.738 716.432 Q132.372 716.432 134.177 712.891 Q136.006 709.326 136.006 702.219 Q136.006 695.09 134.177 691.548 Q132.372 687.983 128.738 687.983 M128.738 684.28 Q134.548 684.28 137.603 688.886 Q140.682 693.47 140.682 702.219 Q140.682 710.946 137.603 715.553 Q134.548 720.136 128.738 720.136 Q122.927 720.136 119.849 715.553 Q116.793 710.946 116.793 702.219 Q116.793 693.47 119.849 688.886 Q122.927 684.28 128.738 684.28 Z" fill="#000000" fill-rule="evenodd" fill-opacity="1" /><path clip-path="url(#clip440)" d="M148.899 713.585 L153.784 713.585 L153.784 719.465 L148.899 719.465 L148.899 713.585 Z" fill="#000000" fill-rule="evenodd" fill-opacity="1" /><path clip-path="url(#clip440)" d="M164.779 715.53 L172.418 715.53 L172.418 689.164 L164.108 690.831 L164.108 686.571 L172.372 684.905 L177.047 684.905 L177.047 715.53 L184.686 715.53 L184.686 719.465 L164.779 719.465 L164.779 715.53 Z" fill="#000000" fill-rule="evenodd" fill-opacity="1" /><path clip-path="url(#clip440)" d="M204.131 703.053 Q200.797 703.053 198.876 704.835 Q196.978 706.618 196.978 709.743 Q196.978 712.868 198.876 714.65 Q200.797 716.432 204.131 716.432 Q207.464 716.432 209.385 714.65 Q211.307 712.844 211.307 709.743 Q211.307 706.618 209.385 704.835 Q207.487 703.053 204.131 703.053 M199.455 701.062 Q196.445 700.321 194.756 698.261 Q193.089 696.201 193.089 693.238 Q193.089 689.095 196.029 686.687 Q198.992 684.28 204.131 684.28 Q209.293 684.28 212.232 686.687 Q215.172 689.095 215.172 693.238 Q215.172 696.201 213.482 698.261 Q211.816 700.321 208.83 701.062 Q212.209 701.849 214.084 704.141 Q215.982 706.432 215.982 709.743 Q215.982 714.766 212.904 717.451 Q209.848 720.136 204.131 720.136 Q198.413 720.136 195.334 717.451 Q192.279 714.766 192.279 709.743 Q192.279 706.432 194.177 704.141 Q196.075 701.849 199.455 701.062 M197.742 693.678 Q197.742 696.363 199.408 697.868 Q201.098 699.372 204.131 699.372 Q207.14 699.372 208.83 697.868 Q210.543 696.363 210.543 693.678 Q210.543 690.993 208.83 689.488 Q207.14 687.983 204.131 687.983 Q201.098 687.983 199.408 689.488 Q197.742 690.993 197.742 693.678 Z" fill="#000000" fill-rule="evenodd" fill-opacity="1" /><path clip-path="url(#clip440)" d="M128.645 407.84 Q125.034 407.84 123.205 411.405 Q121.4 414.946 121.4 422.076 Q121.4 429.182 123.205 432.747 Q125.034 436.289 128.645 436.289 Q132.279 436.289 134.085 432.747 Q135.913 429.182 135.913 422.076 Q135.913 414.946 134.085 411.405 Q132.279 407.84 128.645 407.84 M128.645 404.136 Q134.455 404.136 137.511 408.743 Q140.589 413.326 140.589 422.076 Q140.589 430.803 137.511 435.409 Q134.455 439.993 128.645 439.993 Q122.835 439.993 119.756 435.409 Q116.701 430.803 116.701 422.076 Q116.701 413.326 119.756 408.743 Q122.835 404.136 128.645 404.136 Z" fill="#000000" fill-rule="evenodd" fill-opacity="1" /><path clip-path="url(#clip440)" d="M148.807 433.442 L153.691 433.442 L153.691 439.321 L148.807 439.321 L148.807 433.442 Z" fill="#000000" fill-rule="evenodd" fill-opacity="1" /><path clip-path="url(#clip440)" d="M167.904 435.386 L184.223 435.386 L184.223 439.321 L162.279 439.321 L162.279 435.386 Q164.941 432.632 169.524 428.002 Q174.131 423.349 175.311 422.007 Q177.557 419.483 178.436 417.747 Q179.339 415.988 179.339 414.298 Q179.339 411.544 177.395 409.808 Q175.473 408.071 172.372 408.071 Q170.172 408.071 167.719 408.835 Q165.288 409.599 162.51 411.15 L162.51 406.428 Q165.335 405.294 167.788 404.715 Q170.242 404.136 172.279 404.136 Q177.649 404.136 180.844 406.821 Q184.038 409.507 184.038 413.997 Q184.038 416.127 183.228 418.048 Q182.441 419.946 180.334 422.539 Q179.756 423.21 176.654 426.428 Q173.552 429.622 167.904 435.386 Z" fill="#000000" fill-rule="evenodd" fill-opacity="1" /><path clip-path="url(#clip440)" d="M204.038 407.84 Q200.427 407.84 198.598 411.405 Q196.793 414.946 196.793 422.076 Q196.793 429.182 198.598 432.747 Q200.427 436.289 204.038 436.289 Q207.672 436.289 209.478 432.747 Q211.307 429.182 211.307 422.076 Q211.307 414.946 209.478 411.405 Q207.672 407.84 204.038 407.84 M204.038 404.136 Q209.848 404.136 212.904 408.743 Q215.982 413.326 215.982 422.076 Q215.982 430.803 212.904 435.409 Q209.848 439.993 204.038 439.993 Q198.228 439.993 195.149 435.409 Q192.094 430.803 192.094 422.076 Q192.094 413.326 195.149 408.743 Q198.228 404.136 204.038 404.136 Z" fill="#000000" fill-rule="evenodd" fill-opacity="1" /><path clip-path="url(#clip440)" d="M130.242 127.697 Q126.631 127.697 124.802 131.261 Q122.997 134.803 122.997 141.933 Q122.997 149.039 124.802 152.604 Q126.631 156.145 130.242 156.145 Q133.876 156.145 135.682 152.604 Q137.511 149.039 137.511 141.933 Q137.511 134.803 135.682 131.261 Q133.876 127.697 130.242 127.697 M130.242 123.993 Q136.052 123.993 139.108 128.599 Q142.187 133.183 142.187 141.933 Q142.187 150.659 139.108 155.266 Q136.052 159.849 130.242 159.849 Q124.432 159.849 121.353 155.266 Q118.298 150.659 118.298 141.933 Q118.298 133.183 121.353 128.599 Q124.432 123.993 130.242 123.993 Z" fill="#000000" fill-rule="evenodd" fill-opacity="1" /><path clip-path="url(#clip440)" d="M150.404 153.298 L155.288 153.298 L155.288 159.178 L150.404 159.178 L150.404 153.298 Z" fill="#000000" fill-rule="evenodd" fill-opacity="1" /><path clip-path="url(#clip440)" d="M169.501 155.243 L185.821 155.243 L185.821 159.178 L163.876 159.178 L163.876 155.243 Q166.538 152.488 171.122 147.858 Q175.728 143.206 176.909 141.863 Q179.154 139.34 180.034 137.604 Q180.936 135.845 180.936 134.155 Q180.936 131.4 178.992 129.664 Q177.071 127.928 173.969 127.928 Q171.77 127.928 169.316 128.692 Q166.885 129.456 164.108 131.007 L164.108 126.285 Q166.932 125.15 169.385 124.572 Q171.839 123.993 173.876 123.993 Q179.247 123.993 182.441 126.678 Q185.635 129.363 185.635 133.854 Q185.635 135.984 184.825 137.905 Q184.038 139.803 181.932 142.396 Q181.353 143.067 178.251 146.284 Q175.149 149.479 169.501 155.243 Z" fill="#000000" fill-rule="evenodd" fill-opacity="1" /><path clip-path="url(#clip440)" d="M199.663 155.243 L215.982 155.243 L215.982 159.178 L194.038 159.178 L194.038 155.243 Q196.7 152.488 201.283 147.858 Q205.89 143.206 207.07 141.863 Q209.316 139.34 210.195 137.604 Q211.098 135.845 211.098 134.155 Q211.098 131.4 209.154 129.664 Q207.232 127.928 204.131 127.928 Q201.932 127.928 199.478 128.692 Q197.047 129.456 194.27 131.007 L194.27 126.285 Q197.094 125.15 199.547 124.572 Q202.001 123.993 204.038 123.993 Q209.408 123.993 212.603 126.678 Q215.797 129.363 215.797 133.854 Q215.797 135.984 214.987 137.905 Q214.2 139.803 212.094 142.396 Q211.515 143.067 208.413 146.284 Q205.311 149.479 199.663 155.243 Z" fill="#000000" fill-rule="evenodd" fill-opacity="1" /><path clip-path="url(#clip440)" d="M14.1184 1059.69 L14.1184 1019.49 L19.5293 1019.49 L19.5293 1036.36 L61.6384 1036.36 L61.6384 1042.82 L19.5293 1042.82 L19.5293 1059.69 L14.1184 1059.69 Z" fill="#000000" fill-rule="evenodd" fill-opacity="1" /><path clip-path="url(#clip440)" d="M30.0964 1010.8 Q30.0964 1015.51 33.7885 1018.25 Q37.4488 1020.99 43.8463 1020.99 Q50.2438 1020.99 53.9359 1018.28 Q57.5962 1015.54 57.5962 1010.8 Q57.5962 1006.12 53.9041 1003.39 Q50.212 1000.65 43.8463 1000.65 Q37.5124 1000.65 33.8203 1003.39 Q30.0964 1006.12 30.0964 1010.8 M25.1311 1010.8 Q25.1311 1003.16 30.0964 998.802 Q35.0616 994.442 43.8463 994.442 Q52.5991 994.442 57.5962 998.802 Q62.5615 1003.16 62.5615 1010.8 Q62.5615 1018.47 57.5962 1022.83 Q52.5991 1027.16 43.8463 1027.16 Q35.0616 1027.16 30.0964 1022.83 Q25.1311 1018.47 25.1311 1010.8 Z" fill="#000000" fill-rule="evenodd" fill-opacity="1" /><path clip-path="url(#clip440)" d="M15.869 978.941 L25.9905 978.941 L25.9905 966.878 L30.542 966.878 L30.542 978.941 L49.8937 978.941 Q54.2542 978.941 55.4955 977.763 Q56.7368 976.554 56.7368 972.894 L56.7368 966.878 L61.6384 966.878 L61.6384 972.894 Q61.6384 979.673 59.124 982.251 Q56.5777 984.829 49.8937 984.829 L30.542 984.829 L30.542 989.126 L25.9905 989.126 L25.9905 984.829 L15.869 984.829 L15.869 978.941 Z" fill="#000000" fill-rule="evenodd" fill-opacity="1" /><path clip-path="url(#clip440)" d="M43.719 942.975 Q43.719 950.073 45.3422 952.81 Q46.9655 955.547 50.8804 955.547 Q53.9996 955.547 55.8457 953.51 Q57.6599 951.441 57.6599 947.908 Q57.6599 943.038 54.2224 940.11 Q50.7531 937.15 45.0239 937.15 L43.719 937.15 L43.719 942.975 M41.3 931.294 L61.6384 931.294 L61.6384 937.15 L56.2276 937.15 Q59.4741 939.155 61.0337 942.147 Q62.5615 945.139 62.5615 949.468 Q62.5615 954.942 59.5059 958.189 Q56.4186 961.404 51.2623 961.404 Q45.2467 961.404 42.1912 957.393 Q39.1357 953.351 39.1357 945.362 L39.1357 937.15 L38.5628 937.15 Q34.5205 937.15 32.3244 939.824 Q30.0964 942.466 30.0964 947.272 Q30.0964 950.327 30.8284 953.224 Q31.5605 956.12 33.0246 958.794 L27.6137 958.794 Q26.3724 955.579 25.7677 952.555 Q25.1311 949.531 25.1311 946.667 Q25.1311 938.933 29.1415 935.113 Q33.1519 931.294 41.3 931.294 Z" fill="#000000" fill-rule="evenodd" fill-opacity="1" /><path clip-path="url(#clip440)" d="M12.1132 919.231 L12.1132 913.374 L61.6384 913.374 L61.6384 919.231 L12.1132 919.231 Z" fill="#000000" fill-rule="evenodd" fill-opacity="1" /><path clip-path="url(#clip440)" d="M14.1184 884.378 L14.1184 877.885 L54.2861 867.891 L14.1184 857.929 L14.1184 850.704 L54.2861 840.71 L14.1184 830.747 L14.1184 824.223 L61.6384 836.158 L61.6384 844.243 L20.3887 854.269 L61.6384 864.39 L61.6384 872.475 L14.1184 884.378 Z" fill="#000000" fill-rule="evenodd" fill-opacity="1" /><path clip-path="url(#clip440)" d="M30.0964 805.953 Q30.0964 810.664 33.7885 813.401 Q37.4488 816.138 43.8463 816.138 Q50.2438 816.138 53.9359 813.433 Q57.5962 810.695 57.5962 805.953 Q57.5962 801.274 53.9041 798.537 Q50.212 795.8 43.8463 795.8 Q37.5124 795.8 33.8203 798.537 Q30.0964 801.274 30.0964 805.953 M25.1311 805.953 Q25.1311 798.314 30.0964 793.954 Q35.0616 789.593 43.8463 789.593 Q52.5991 789.593 57.5962 793.954 Q62.5615 798.314 62.5615 805.953 Q62.5615 813.624 57.5962 817.984 Q52.5991 822.313 43.8463 822.313 Q35.0616 822.313 30.0964 817.984 Q25.1311 813.624 25.1311 805.953 Z" fill="#000000" fill-rule="evenodd" fill-opacity="1" /><path clip-path="url(#clip440)" d="M31.465 759.229 Q30.8921 760.215 30.6375 761.393 Q30.351 762.539 30.351 763.939 Q30.351 768.905 33.5975 771.578 Q36.8122 774.22 42.8596 774.22 L61.6384 774.22 L61.6384 780.108 L25.9905 780.108 L25.9905 774.22 L31.5287 774.22 Q28.2821 772.374 26.7225 769.414 Q25.1311 766.454 25.1311 762.221 Q25.1311 761.616 25.2266 760.884 Q25.2903 760.152 25.4494 759.261 L31.465 759.229 Z" fill="#000000" fill-rule="evenodd" fill-opacity="1" /><path clip-path="url(#clip440)" d="M12.1132 753.309 L12.1132 747.42 L41.3637 747.42 L25.9905 729.946 L25.9905 722.467 L42.6686 741.373 L61.6384 721.671 L61.6384 729.31 L44.2282 747.42 L61.6384 747.42 L61.6384 753.309 L12.1132 753.309 Z" fill="#000000" fill-rule="evenodd" fill-opacity="1" /><polyline clip-path="url(#clip442)" style="stroke:#009af9; stroke-linecap:round; stroke-linejoin:round; stroke-width:4; stroke-opacity:1; fill:none" points="
  2573.27,479.399 2176.3,769.136 1823.44,998.991 1507.73,1180.98 1223.58,1324.42 966.497,1436.67 732.784,1523.68 519.394,1590.28 323.787,1640.48 
  "/>
<polyline clip-path="url(#clip442)" style="stroke:#e26f46; stroke-linecap:round; stroke-linejoin:round; stroke-width:4; stroke-opacity:1; fill:none" points="
  2573.27,94.9858 2176.3,428.064 1823.44,705.791 1507.73,939.449 1223.58,1137.58 966.497,1306.74 732.784,1452.04 519.394,1577.52 323.787,1686.38 
  "/>
<path clip-path="url(#clip440)" d="
M335.784 258.993 L704.206 258.993 L704.206 103.473 L335.784 103.473  Z
  " fill="#ffffff" fill-rule="evenodd" fill-opacity="1"/>
<polyline clip-path="url(#clip440)" style="stroke:#000000; stroke-linecap:round; stroke-linejoin:round; stroke-width:4; stroke-opacity:1; fill:none" points="
  335.784,258.993 704.206,258.993 704.206,103.473 335.784,103.473 335.784,258.993 
  "/>
<polyline clip-path="url(#clip440)" style="stroke:#009af9; stroke-linecap:round; stroke-linejoin:round; stroke-width:4; stroke-opacity:1; fill:none" points="
  362.278,155.313 521.242,155.313 
  "/>
<path clip-path="url(#clip440)" d="M564.124 156.39 Q565.629 156.899 567.041 158.565 Q568.476 160.232 569.911 163.149 L574.657 172.593 L569.634 172.593 L565.212 163.727 Q563.499 160.255 561.879 159.121 Q560.282 157.987 557.504 157.987 L552.412 157.987 L552.412 172.593 L547.736 172.593 L547.736 138.033 L558.291 138.033 Q564.217 138.033 567.134 140.51 Q570.05 142.987 570.05 147.987 Q570.05 151.251 568.523 153.403 Q567.018 155.556 564.124 156.39 M552.412 141.876 L552.412 154.144 L558.291 154.144 Q561.671 154.144 563.384 152.593 Q565.12 151.019 565.12 147.987 Q565.12 144.954 563.384 143.427 Q561.671 141.876 558.291 141.876 L552.412 141.876 Z" fill="#000000" fill-rule="evenodd" fill-opacity="1" /><path clip-path="url(#clip440)" d="M591.231 159.561 Q586.069 159.561 584.078 160.741 Q582.087 161.922 582.087 164.769 Q582.087 167.038 583.569 168.38 Q585.073 169.7 587.643 169.7 Q591.184 169.7 593.314 167.2 Q595.467 164.677 595.467 160.51 L595.467 159.561 L591.231 159.561 M599.726 157.802 L599.726 172.593 L595.467 172.593 L595.467 168.658 Q594.009 171.019 591.833 172.153 Q589.657 173.264 586.509 173.264 Q582.527 173.264 580.166 171.042 Q577.828 168.797 577.828 165.047 Q577.828 160.672 580.745 158.45 Q583.685 156.228 589.495 156.228 L595.467 156.228 L595.467 155.811 Q595.467 152.871 593.522 151.274 Q591.601 149.653 588.106 149.653 Q585.884 149.653 583.777 150.186 Q581.671 150.718 579.726 151.783 L579.726 147.848 Q582.064 146.945 584.263 146.505 Q586.462 146.042 588.546 146.042 Q594.171 146.042 596.948 148.959 Q599.726 151.876 599.726 157.802 Z" fill="#000000" fill-rule="evenodd" fill-opacity="1" /><path clip-path="url(#clip440)" d="M628.684 151.644 Q630.281 148.774 632.504 147.408 Q634.726 146.042 637.735 146.042 Q641.786 146.042 643.985 148.89 Q646.184 151.714 646.184 156.945 L646.184 172.593 L641.902 172.593 L641.902 157.084 Q641.902 153.357 640.582 151.552 Q639.263 149.746 636.555 149.746 Q633.244 149.746 631.323 151.945 Q629.402 154.144 629.402 157.94 L629.402 172.593 L625.119 172.593 L625.119 157.084 Q625.119 153.334 623.8 151.552 Q622.481 149.746 619.726 149.746 Q616.462 149.746 614.541 151.968 Q612.62 154.167 612.62 157.94 L612.62 172.593 L608.337 172.593 L608.337 146.667 L612.62 146.667 L612.62 150.695 Q614.078 148.311 616.115 147.177 Q618.152 146.042 620.953 146.042 Q623.777 146.042 625.744 147.478 Q627.735 148.913 628.684 151.644 Z" fill="#000000" fill-rule="evenodd" fill-opacity="1" /><path clip-path="url(#clip440)" d="M658.8 168.704 L658.8 182.454 L654.517 182.454 L654.517 146.667 L658.8 146.667 L658.8 150.603 Q660.142 148.288 662.179 147.177 Q664.24 146.042 667.087 146.042 Q671.809 146.042 674.749 149.792 Q677.712 153.542 677.712 159.653 Q677.712 165.765 674.749 169.515 Q671.809 173.264 667.087 173.264 Q664.24 173.264 662.179 172.153 Q660.142 171.019 658.8 168.704 M673.291 159.653 Q673.291 154.954 671.346 152.292 Q669.425 149.607 666.045 149.607 Q662.666 149.607 660.721 152.292 Q658.8 154.954 658.8 159.653 Q658.8 164.352 660.721 167.038 Q662.666 169.7 666.045 169.7 Q669.425 169.7 671.346 167.038 Q673.291 164.352 673.291 159.653 Z" fill="#000000" fill-rule="evenodd" fill-opacity="1" /><polyline clip-path="url(#clip440)" style="stroke:#e26f46; stroke-linecap:round; stroke-linejoin:round; stroke-width:4; stroke-opacity:1; fill:none" points="
  362.278,207.153 521.242,207.153 
  "/>
<path clip-path="url(#clip440)" d="M547.736 189.873 L567.597 189.873 L567.597 193.808 L552.412 193.808 L552.412 203.993 L566.115 203.993 L566.115 207.929 L552.412 207.929 L552.412 224.433 L547.736 224.433 L547.736 189.873 Z" fill="#000000" fill-rule="evenodd" fill-opacity="1" /><path clip-path="url(#clip440)" d="M574.819 188.415 L579.078 188.415 L579.078 224.433 L574.819 224.433 L574.819 188.415 Z" fill="#000000" fill-rule="evenodd" fill-opacity="1" /><path clip-path="url(#clip440)" d="M599.772 211.401 Q594.61 211.401 592.62 212.581 Q590.629 213.762 590.629 216.609 Q590.629 218.878 592.11 220.22 Q593.615 221.54 596.184 221.54 Q599.726 221.54 601.856 219.04 Q604.008 216.517 604.008 212.35 L604.008 211.401 L599.772 211.401 M608.268 209.642 L608.268 224.433 L604.008 224.433 L604.008 220.498 Q602.55 222.859 600.374 223.993 Q598.198 225.104 595.05 225.104 Q591.069 225.104 588.708 222.882 Q586.37 220.637 586.37 216.887 Q586.37 212.512 589.286 210.29 Q592.226 208.068 598.036 208.068 L604.008 208.068 L604.008 207.651 Q604.008 204.711 602.064 203.114 Q600.143 201.493 596.647 201.493 Q594.425 201.493 592.319 202.026 Q590.212 202.558 588.268 203.623 L588.268 199.688 Q590.606 198.785 592.805 198.345 Q595.004 197.882 597.087 197.882 Q602.712 197.882 605.49 200.799 Q608.268 203.716 608.268 209.642 Z" fill="#000000" fill-rule="evenodd" fill-opacity="1" /><path clip-path="url(#clip440)" d="M621.254 191.146 L621.254 198.507 L630.027 198.507 L630.027 201.818 L621.254 201.818 L621.254 215.892 Q621.254 219.063 622.11 219.966 Q622.99 220.868 625.652 220.868 L630.027 220.868 L630.027 224.433 L625.652 224.433 Q620.721 224.433 618.846 222.604 Q616.971 220.753 616.971 215.892 L616.971 201.818 L613.846 201.818 L613.846 198.507 L616.971 198.507 L616.971 191.146 L621.254 191.146 Z" fill="#000000" fill-rule="evenodd" fill-opacity="1" /></svg>
