<?xml version="1.0" encoding="utf-8"?>
<svg xmlns="http://www.w3.org/2000/svg" xmlns:xlink="http://www.w3.org/1999/xlink" width="672" height="480" viewBox="0 0 2688 1920">
<defs>
  <clipPath id="clip240">
    <rect x="0" y="0" width="2688" height="1920"/>
  </clipPath>
</defs>
<path clip-path="url(#clip240)" d="M0 1920 L2688 1920 L2688 0 L0 0  Z" fill="#ffffff" fill-rule="evenodd" fill-opacity="1"/>
<defs>
  <clipPath id="clip241">
    <rect x="537" y="0" width="1883" height="1883"/>
  </clipPath>
</defs>
<path clip-path="url(#clip240)" d="M226.141 1734.12 L2640.76 1734.12 L2640.76 47.2441 L226.141 47.2441  Z" fill="#ffffff" fill-rule="evenodd" fill-opacity="1"/>
<defs>
  <clipPath id="clip242">
    <rect x="226" y="47" width="2416" height="1688"/>
  </clipPath>
</defs>
<polyline clip-path="url(#clip242)" style="stroke:#000000; stroke-linecap:round; stroke-linejoin:round; stroke-width:2; stroke-opacity:0.1; fill:none" points="294.479,1734.12 294.479,47.2441 "/>
<polyline clip-path="url(#clip242)" style="stroke:#000000; stroke-linecap:round; stroke-linejoin:round; stroke-width:2; stroke-opacity:0.1; fill:none" points="862.513,1734.12 862.513,47.2441 "/>
<polyline clip-path="url(#clip242)" style="stroke:#000000; stroke-linecap:round; stroke-linejoin:round; stroke-width:2; stroke-opacity:0.1; fill:none" points="1430.55,1734.12 1430.55,47.2441 "/>
<polyline clip-path="url(#clip242)" style="stroke:#000000; stroke-linecap:round; stroke-linejoin:round; stroke-width:2; stroke-opacity:0.1; fill:none" points="1998.58,1734.12 1998.58,47.2441 "/>
<polyline clip-path="url(#clip242)" style="stroke:#000000; stroke-linecap:round; stroke-linejoin:round; stroke-width:2; stroke-opacity:0.1; fill:none" points="2566.62,1734.12 2566.62,47.2441 "/>
<polyline clip-path="url(#clip240)" style="stroke:#000000; stroke-linecap:round; stroke-linejoin:round; stroke-width:4; stroke-opacity:1; fill:none" points="226.141,1734.12 2640.76,1734.12 "/>
<polyline clip-path="url(#clip240)" style="stroke:#000000; stroke-linecap:round; stroke-linejoin:round; stroke-width:4; stroke-opacity:1; fill:none" points="294.479,1734.12 294.479,1715.22 "/>
<polyline clip-path="url(#clip240)" style="stroke:#000000; stroke-linecap:round; stroke-linejoin:round; stroke-width:4; stroke-opacity:1; fill:none" points="862.513,1734.12 862.513,1715.22 "/>
<polyline clip-path="url(#clip240)" style="stroke:#000000; stroke-linecap:round; stroke-linejoin:round; stroke-width:4; stroke-opacity:1; fill:none" points="1430.55,1734.12 1430.55,1715.22 "/>
<polyline clip-path="url(#clip240)" style="stroke:#000000; stroke-linecap:round; stroke-linejoin:round; stroke-width:4; stroke-opacity:1; fill:none" points="1998.58,1734.12 1998.58,1715.22 "/>
<polyline clip-path="url(#clip240)" style="stroke:#000000; stroke-linecap:round; stroke-linejoin:round; stroke-width:4; stroke-opacity:1; fill:none" points="2566.62,1734.12 2566.62,1715.22 "/>
<path clip-path="url(#clip240)" d="M294.479 1767.34 Q290.868 1767.34 289.039 1770.9 Q287.233 1774.45 287.233 1781.58 Q287.233 1788.68 289.039 1792.25 Q290.868 1795.79 294.479 1795.79 Q298.113 1795.79 299.919 1792.25 Q301.747 1788.68 301.747 1781.58 Q301.747 1774.45 299.919 1770.9 Q298.113 1767.34 294.479 1767.34 M294.479 1763.64 Q300.289 1763.64 303.344 1768.24 Q306.423 1772.83 306.423 1781.58 Q306.423 1790.3 303.344 1794.91 Q300.289 1799.49 294.479 1799.49 Q288.669 1799.49 285.59 1794.91 Q282.534 1790.3 282.534 1781.58 Q282.534 1772.83 285.59 1768.24 Q288.669 1763.64 294.479 1763.64 Z" fill="#000000" fill-rule="evenodd" fill-opacity="1" /><path clip-path="url(#clip240)" d="M837.201 1794.89 L844.839 1794.89 L844.839 1768.52 L836.529 1770.19 L836.529 1765.93 L844.793 1764.26 L849.469 1764.26 L849.469 1794.89 L857.108 1794.89 L857.108 1798.82 L837.201 1798.82 L837.201 1794.89 Z" fill="#000000" fill-rule="evenodd" fill-opacity="1" /><path clip-path="url(#clip240)" d="M876.552 1767.34 Q872.941 1767.34 871.112 1770.9 Q869.307 1774.45 869.307 1781.58 Q869.307 1788.68 871.112 1792.25 Q872.941 1795.79 876.552 1795.79 Q880.186 1795.79 881.992 1792.25 Q883.821 1788.68 883.821 1781.58 Q883.821 1774.45 881.992 1770.9 Q880.186 1767.34 876.552 1767.34 M876.552 1763.64 Q882.362 1763.64 885.418 1768.24 Q888.497 1772.83 888.497 1781.58 Q888.497 1790.3 885.418 1794.91 Q882.362 1799.49 876.552 1799.49 Q870.742 1799.49 867.663 1794.91 Q864.608 1790.3 864.608 1781.58 Q864.608 1772.83 867.663 1768.24 Q870.742 1763.64 876.552 1763.64 Z" fill="#000000" fill-rule="evenodd" fill-opacity="1" /><path clip-path="url(#clip240)" d="M1409.32 1794.89 L1425.64 1794.89 L1425.64 1798.82 L1403.7 1798.82 L1403.7 1794.89 Q1406.36 1792.13 1410.94 1787.5 Q1415.55 1782.85 1416.73 1781.51 Q1418.97 1778.98 1419.85 1777.25 Q1420.76 1775.49 1420.76 1773.8 Q1420.76 1771.04 1418.81 1769.31 Q1416.89 1767.57 1413.79 1767.57 Q1411.59 1767.57 1409.14 1768.34 Q1406.7 1769.1 1403.93 1770.65 L1403.93 1765.93 Q1406.75 1764.79 1409.2 1764.21 Q1411.66 1763.64 1413.7 1763.64 Q1419.07 1763.64 1422.26 1766.32 Q1425.45 1769.01 1425.45 1773.5 Q1425.45 1775.63 1424.64 1777.55 Q1423.86 1779.45 1421.75 1782.04 Q1421.17 1782.71 1418.07 1785.93 Q1414.97 1789.12 1409.32 1794.89 Z" fill="#000000" fill-rule="evenodd" fill-opacity="1" /><path clip-path="url(#clip240)" d="M1445.45 1767.34 Q1441.84 1767.34 1440.01 1770.9 Q1438.21 1774.45 1438.21 1781.58 Q1438.21 1788.68 1440.01 1792.25 Q1441.84 1795.79 1445.45 1795.79 Q1449.09 1795.79 1450.89 1792.25 Q1452.72 1788.68 1452.72 1781.58 Q1452.72 1774.45 1450.89 1770.9 Q1449.09 1767.34 1445.45 1767.34 M1445.45 1763.64 Q1451.26 1763.64 1454.32 1768.24 Q1457.4 1772.83 1457.4 1781.58 Q1457.4 1790.3 1454.32 1794.91 Q1451.26 1799.49 1445.45 1799.49 Q1439.64 1799.49 1436.57 1794.91 Q1433.51 1790.3 1433.51 1781.58 Q1433.51 1772.83 1436.57 1768.24 Q1439.64 1763.64 1445.45 1763.64 Z" fill="#000000" fill-rule="evenodd" fill-opacity="1" /><path clip-path="url(#clip240)" d="M1987.42 1780.19 Q1990.78 1780.9 1992.66 1783.17 Q1994.55 1785.44 1994.55 1788.77 Q1994.55 1793.89 1991.04 1796.69 Q1987.52 1799.49 1981.04 1799.49 Q1978.86 1799.49 1976.54 1799.05 Q1974.25 1798.64 1971.8 1797.78 L1971.8 1793.27 Q1973.74 1794.4 1976.06 1794.98 Q1978.37 1795.56 1980.9 1795.56 Q1985.29 1795.56 1987.59 1793.82 Q1989.9 1792.08 1989.9 1788.77 Q1989.9 1785.72 1987.75 1784.01 Q1985.62 1782.27 1981.8 1782.27 L1977.77 1782.27 L1977.77 1778.43 L1981.98 1778.43 Q1985.43 1778.43 1987.26 1777.06 Q1989.09 1775.67 1989.09 1773.08 Q1989.09 1770.42 1987.19 1769.01 Q1985.32 1767.57 1981.8 1767.57 Q1979.88 1767.57 1977.68 1767.99 Q1975.48 1768.4 1972.84 1769.28 L1972.84 1765.12 Q1975.5 1764.38 1977.82 1764.01 Q1980.16 1763.64 1982.22 1763.64 Q1987.54 1763.64 1990.64 1766.07 Q1993.74 1768.47 1993.74 1772.59 Q1993.74 1775.46 1992.1 1777.46 Q1990.46 1779.42 1987.42 1780.19 Z" fill="#000000" fill-rule="evenodd" fill-opacity="1" /><path clip-path="url(#clip240)" d="M2013.42 1767.34 Q2009.81 1767.34 2007.98 1770.9 Q2006.17 1774.45 2006.17 1781.58 Q2006.17 1788.68 2007.98 1792.25 Q2009.81 1795.79 2013.42 1795.79 Q2017.05 1795.79 2018.86 1792.25 Q2020.69 1788.68 2020.69 1781.58 Q2020.69 1774.45 2018.86 1770.9 Q2017.05 1767.34 2013.42 1767.34 M2013.42 1763.64 Q2019.23 1763.64 2022.28 1768.24 Q2025.36 1772.83 2025.36 1781.58 Q2025.36 1790.3 2022.28 1794.91 Q2019.23 1799.49 2013.42 1799.49 Q2007.61 1799.49 2004.53 1794.91 Q2001.47 1790.3 2001.47 1781.58 Q2001.47 1772.83 2004.53 1768.24 Q2007.61 1763.64 2013.42 1763.64 Z" fill="#000000" fill-rule="evenodd" fill-opacity="1" /><path clip-path="url(#clip240)" d="M2554.79 1768.34 L2542.98 1786.78 L2554.79 1786.78 L2554.79 1768.34 M2553.56 1764.26 L2559.44 1764.26 L2559.44 1786.78 L2564.37 1786.78 L2564.37 1790.67 L2559.44 1790.67 L2559.44 1798.82 L2554.79 1798.82 L2554.79 1790.67 L2539.19 1790.67 L2539.19 1786.16 L2553.56 1764.26 Z" fill="#000000" fill-rule="evenodd" fill-opacity="1" /><path clip-path="url(#clip240)" d="M2582.1 1767.34 Q2578.49 1767.34 2576.66 1770.9 Q2574.86 1774.45 2574.86 1781.58 Q2574.86 1788.68 2576.66 1792.25 Q2578.49 1795.79 2582.1 1795.79 Q2585.74 1795.79 2587.54 1792.25 Q2589.37 1788.68 2589.37 1781.58 Q2589.37 1774.45 2587.54 1770.9 Q2585.74 1767.34 2582.1 1767.34 M2582.1 1763.64 Q2587.91 1763.64 2590.97 1768.24 Q2594.05 1772.83 2594.05 1781.58 Q2594.05 1790.3 2590.97 1794.91 Q2587.91 1799.49 2582.1 1799.49 Q2576.29 1799.49 2573.21 1794.91 Q2570.16 1790.3 2570.16 1781.58 Q2570.16 1772.83 2573.21 1768.24 Q2576.29 1763.64 2582.1 1763.64 Z" fill="#000000" fill-rule="evenodd" fill-opacity="1" /><path clip-path="url(#clip240)" d="M1372.61 1837.53 L1372.61 1847.65 L1384.67 1847.65 L1384.67 1852.2 L1372.61 1852.2 L1372.61 1871.56 Q1372.61 1875.92 1373.79 1877.16 Q1375 1878.4 1378.66 1878.4 L1384.67 1878.4 L1384.67 1883.3 L1378.66 1883.3 Q1371.88 1883.3 1369.3 1880.79 Q1366.72 1878.24 1366.72 1871.56 L1366.72 1852.2 L1362.42 1852.2 L1362.42 1847.65 L1366.72 1847.65 L1366.72 1837.53 L1372.61 1837.53 Z" fill="#000000" fill-rule="evenodd" fill-opacity="1" /><path clip-path="url(#clip240)" d="M1392.37 1847.65 L1398.23 1847.65 L1398.23 1883.3 L1392.37 1883.3 L1392.37 1847.65 M1392.37 1833.78 L1398.23 1833.78 L1398.23 1841.19 L1392.37 1841.19 L1392.37 1833.78 Z" fill="#000000" fill-rule="evenodd" fill-opacity="1" /><path clip-path="url(#clip240)" d="M1438.24 1854.5 Q1440.43 1850.55 1443.49 1848.67 Q1446.55 1846.79 1450.68 1846.79 Q1456.25 1846.79 1459.28 1850.71 Q1462.3 1854.59 1462.3 1861.78 L1462.3 1883.3 L1456.41 1883.3 L1456.41 1861.98 Q1456.41 1856.85 1454.6 1854.37 Q1452.78 1851.89 1449.06 1851.89 Q1444.51 1851.89 1441.87 1854.91 Q1439.23 1857.93 1439.23 1863.15 L1439.23 1883.3 L1433.34 1883.3 L1433.34 1861.98 Q1433.34 1856.82 1431.52 1854.37 Q1429.71 1851.89 1425.92 1851.89 Q1421.43 1851.89 1418.79 1854.94 Q1416.15 1857.97 1416.15 1863.15 L1416.15 1883.3 L1410.26 1883.3 L1410.26 1847.65 L1416.15 1847.65 L1416.15 1853.19 Q1418.15 1849.91 1420.96 1848.35 Q1423.76 1846.79 1427.61 1846.79 Q1431.49 1846.79 1434.2 1848.77 Q1436.93 1850.74 1438.24 1854.5 Z" fill="#000000" fill-rule="evenodd" fill-opacity="1" /><path clip-path="url(#clip240)" d="M1504.47 1864.01 L1504.47 1866.88 L1477.55 1866.88 Q1477.93 1872.92 1481.18 1876.11 Q1484.45 1879.26 1490.28 1879.26 Q1493.65 1879.26 1496.8 1878.43 Q1499.99 1877.6 1503.1 1875.95 L1503.1 1881.49 Q1499.95 1882.82 1496.64 1883.52 Q1493.33 1884.22 1489.93 1884.22 Q1481.4 1884.22 1476.4 1879.26 Q1471.44 1874.29 1471.44 1865.83 Q1471.44 1857.07 1476.15 1851.95 Q1480.89 1846.79 1488.91 1846.79 Q1496.1 1846.79 1500.27 1851.44 Q1504.47 1856.06 1504.47 1864.01 M1498.62 1862.29 Q1498.55 1857.49 1495.91 1854.62 Q1493.3 1851.76 1488.97 1851.76 Q1484.07 1851.76 1481.11 1854.53 Q1478.18 1857.3 1477.74 1862.33 L1498.62 1862.29 Z" fill="#000000" fill-rule="evenodd" fill-opacity="1" /><polyline clip-path="url(#clip242)" style="stroke:#000000; stroke-linecap:round; stroke-linejoin:round; stroke-width:2; stroke-opacity:0.1; fill:none" points="226.141,1686.38 2640.76,1686.38 "/>
<polyline clip-path="url(#clip242)" style="stroke:#000000; stroke-linecap:round; stroke-linejoin:round; stroke-width:2; stroke-opacity:0.1; fill:none" points="226.141,1309.72 2640.76,1309.72 "/>
<polyline clip-path="url(#clip242)" style="stroke:#000000; stroke-linecap:round; stroke-linejoin:round; stroke-width:2; stroke-opacity:0.1; fill:none" points="226.141,933.057 2640.76,933.057 "/>
<polyline clip-path="url(#clip242)" style="stroke:#000000; stroke-linecap:round; stroke-linejoin:round; stroke-width:2; stroke-opacity:0.1; fill:none" points="226.141,556.397 2640.76,556.397 "/>
<polyline clip-path="url(#clip242)" style="stroke:#000000; stroke-linecap:round; stroke-linejoin:round; stroke-width:2; stroke-opacity:0.1; fill:none" points="226.141,179.738 2640.76,179.738 "/>
<polyline clip-path="url(#clip240)" style="stroke:#000000; stroke-linecap:round; stroke-linejoin:round; stroke-width:4; stroke-opacity:1; fill:none" points="226.141,1734.12 226.141,47.2441 "/>
<polyline clip-path="url(#clip240)" style="stroke:#000000; stroke-linecap:round; stroke-linejoin:round; stroke-width:4; stroke-opacity:1; fill:none" points="226.141,1686.38 245.038,1686.38 "/>
<polyline clip-path="url(#clip240)" style="stroke:#000000; stroke-linecap:round; stroke-linejoin:round; stroke-width:4; stroke-opacity:1; fill:none" points="226.141,1309.72 245.038,1309.72 "/>
<polyline clip-path="url(#clip240)" style="stroke:#000000; stroke-linecap:round; stroke-linejoin:round; stroke-width:4; stroke-opacity:1; fill:none" points="226.141,933.057 245.038,933.057 "/>
<polyline clip-path="url(#clip240)" style="stroke:#000000; stroke-linecap:round; stroke-linejoin:round; stroke-width:4; stroke-opacity:1; fill:none" points="226.141,556.397 245.038,556.397 "/>
<polyline clip-path="url(#clip240)" style="stroke:#000000; stroke-linecap:round; stroke-linejoin:round; stroke-width:4; stroke-opacity:1; fill:none" points="226.141,179.738 245.038,179.738 "/>
<path clip-path="url(#clip240)" d="M128.645 1672.17 Q125.034 1672.17 123.205 1675.74 Q121.4 1679.28 121.4 1686.41 Q121.4 1693.52 123.205 1697.08 Q125.034 1700.62 128.645 1700.62 Q132.279 1700.62 134.085 1697.08 Q135.913 1693.52 135.913 1686.41 Q135.913 1679.28 134.085 1675.74 Q132.279 1672.17 128.645 1672.17 M128.645 1668.47 Q134.455 1668.47 137.511 1673.08 Q140.589 1677.66 140.589 1686.41 Q140.589 1695.14 137.511 1699.74 Q134.455 1704.33 128.645 1704.33 Q122.835 1704.33 119.756 1699.74 Q116.701 1695.14 116.701 1686.41 Q116.701 1677.66 119.756 1673.08 Q122.835 1668.47 128.645 1668.47 Z" fill="#000000" fill-rule="evenodd" fill-opacity="1" /><path clip-path="url(#clip240)" d="M148.807 1697.78 L153.691 1697.78 L153.691 1703.66 L148.807 1703.66 L148.807 1697.78 Z" fill="#000000" fill-rule="evenodd" fill-opacity="1" /><path clip-path="url(#clip240)" d="M173.876 1672.17 Q170.265 1672.17 168.436 1675.74 Q166.631 1679.28 166.631 1686.41 Q166.631 1693.52 168.436 1697.08 Q170.265 1700.62 173.876 1700.62 Q177.51 1700.62 179.316 1697.08 Q181.145 1693.52 181.145 1686.41 Q181.145 1679.28 179.316 1675.74 Q177.51 1672.17 173.876 1672.17 M173.876 1668.47 Q179.686 1668.47 182.742 1673.08 Q185.821 1677.66 185.821 1686.41 Q185.821 1695.14 182.742 1699.74 Q179.686 1704.33 173.876 1704.33 Q168.066 1704.33 164.987 1699.74 Q161.932 1695.14 161.932 1686.41 Q161.932 1677.66 164.987 1673.08 Q168.066 1668.47 173.876 1668.47 Z" fill="#000000" fill-rule="evenodd" fill-opacity="1" /><path clip-path="url(#clip240)" d="M129.872 1295.51 Q126.261 1295.51 124.432 1299.08 Q122.626 1302.62 122.626 1309.75 Q122.626 1316.86 124.432 1320.42 Q126.261 1323.96 129.872 1323.96 Q133.506 1323.96 135.312 1320.42 Q137.14 1316.86 137.14 1309.75 Q137.14 1302.62 135.312 1299.08 Q133.506 1295.51 129.872 1295.51 M129.872 1291.81 Q135.682 1291.81 138.737 1296.42 Q141.816 1301 141.816 1309.75 Q141.816 1318.48 138.737 1323.08 Q135.682 1327.67 129.872 1327.67 Q124.062 1327.67 120.983 1323.08 Q117.927 1318.48 117.927 1309.75 Q117.927 1301 120.983 1296.42 Q124.062 1291.81 129.872 1291.81 Z" fill="#000000" fill-rule="evenodd" fill-opacity="1" /><path clip-path="url(#clip240)" d="M150.034 1321.12 L154.918 1321.12 L154.918 1327 L150.034 1327 L150.034 1321.12 Z" fill="#000000" fill-rule="evenodd" fill-opacity="1" /><path clip-path="url(#clip240)" d="M165.913 1323.06 L173.552 1323.06 L173.552 1296.7 L165.242 1298.36 L165.242 1294.1 L173.506 1292.44 L178.182 1292.44 L178.182 1323.06 L185.821 1323.06 L185.821 1327 L165.913 1327 L165.913 1323.06 Z" fill="#000000" fill-rule="evenodd" fill-opacity="1" /><path clip-path="url(#clip240)" d="M130.242 918.855 Q126.631 918.855 124.802 922.42 Q122.997 925.962 122.997 933.091 Q122.997 940.198 124.802 943.763 Q126.631 947.304 130.242 947.304 Q133.876 947.304 135.682 943.763 Q137.511 940.198 137.511 933.091 Q137.511 925.962 135.682 922.42 Q133.876 918.855 130.242 918.855 M130.242 915.152 Q136.052 915.152 139.108 919.758 Q142.187 924.341 142.187 933.091 Q142.187 941.818 139.108 946.425 Q136.052 951.008 130.242 951.008 Q124.432 951.008 121.353 946.425 Q118.298 941.818 118.298 933.091 Q118.298 924.341 121.353 919.758 Q124.432 915.152 130.242 915.152 Z" fill="#000000" fill-rule="evenodd" fill-opacity="1" /><path clip-path="url(#clip240)" d="M150.404 944.457 L155.288 944.457 L155.288 950.337 L150.404 950.337 L150.404 944.457 Z" fill="#000000" fill-rule="evenodd" fill-opacity="1" /><path clip-path="url(#clip240)" d="M169.501 946.402 L185.821 946.402 L185.821 950.337 L163.876 950.337 L163.876 946.402 Q166.538 943.647 171.122 939.017 Q175.728 934.365 176.909 933.022 Q179.154 930.499 180.034 928.763 Q180.936 927.004 180.936 925.314 Q180.936 922.559 178.992 920.823 Q177.071 919.087 173.969 919.087 Q171.77 919.087 169.316 919.851 Q166.885 920.615 164.108 922.166 L164.108 917.443 Q166.932 916.309 169.385 915.73 Q171.839 915.152 173.876 915.152 Q179.247 915.152 182.441 917.837 Q185.635 920.522 185.635 925.013 Q185.635 927.142 184.825 929.064 Q184.038 930.962 181.932 933.554 Q181.353 934.226 178.251 937.443 Q175.149 940.638 169.501 946.402 Z" fill="#000000" fill-rule="evenodd" fill-opacity="1" /><path clip-path="url(#clip240)" d="M129.293 542.196 Q125.682 542.196 123.853 545.761 Q122.048 549.303 122.048 556.432 Q122.048 563.539 123.853 567.103 Q125.682 570.645 129.293 570.645 Q132.927 570.645 134.733 567.103 Q136.562 563.539 136.562 556.432 Q136.562 549.303 134.733 545.761 Q132.927 542.196 129.293 542.196 M129.293 538.492 Q135.103 538.492 138.159 543.099 Q141.237 547.682 141.237 556.432 Q141.237 565.159 138.159 569.765 Q135.103 574.349 129.293 574.349 Q123.483 574.349 120.404 569.765 Q117.349 565.159 117.349 556.432 Q117.349 547.682 120.404 543.099 Q123.483 538.492 129.293 538.492 Z" fill="#000000" fill-rule="evenodd" fill-opacity="1" /><path clip-path="url(#clip240)" d="M149.455 567.798 L154.339 567.798 L154.339 573.677 L149.455 573.677 L149.455 567.798 Z" fill="#000000" fill-rule="evenodd" fill-opacity="1" /><path clip-path="url(#clip240)" d="M178.691 555.043 Q182.047 555.761 183.922 558.029 Q185.821 560.298 185.821 563.631 Q185.821 568.747 182.302 571.548 Q178.784 574.349 172.302 574.349 Q170.126 574.349 167.811 573.909 Q165.52 573.492 163.066 572.636 L163.066 568.122 Q165.01 569.256 167.325 569.835 Q169.64 570.414 172.163 570.414 Q176.561 570.414 178.853 568.677 Q181.168 566.941 181.168 563.631 Q181.168 560.576 179.015 558.863 Q176.885 557.127 173.066 557.127 L169.038 557.127 L169.038 553.284 L173.251 553.284 Q176.7 553.284 178.529 551.918 Q180.358 550.529 180.358 547.937 Q180.358 545.275 178.459 543.863 Q176.584 542.428 173.066 542.428 Q171.145 542.428 168.946 542.844 Q166.747 543.261 164.108 544.141 L164.108 539.974 Q166.77 539.233 169.085 538.863 Q171.422 538.492 173.483 538.492 Q178.807 538.492 181.909 540.923 Q185.01 543.33 185.01 547.451 Q185.01 550.321 183.367 552.312 Q181.723 554.279 178.691 555.043 Z" fill="#000000" fill-rule="evenodd" fill-opacity="1" /><path clip-path="url(#clip240)" d="M128.159 165.537 Q124.548 165.537 122.719 169.102 Q120.913 172.643 120.913 179.773 Q120.913 186.879 122.719 190.444 Q124.548 193.986 128.159 193.986 Q131.793 193.986 133.599 190.444 Q135.427 186.879 135.427 179.773 Q135.427 172.643 133.599 169.102 Q131.793 165.537 128.159 165.537 M128.159 161.833 Q133.969 161.833 137.025 166.44 Q140.103 171.023 140.103 179.773 Q140.103 188.5 137.025 193.106 Q133.969 197.689 128.159 197.689 Q122.349 197.689 119.27 193.106 Q116.214 188.5 116.214 179.773 Q116.214 171.023 119.27 166.44 Q122.349 161.833 128.159 161.833 Z" fill="#000000" fill-rule="evenodd" fill-opacity="1" /><path clip-path="url(#clip240)" d="M148.321 191.139 L153.205 191.139 L153.205 197.018 L148.321 197.018 L148.321 191.139 Z" fill="#000000" fill-rule="evenodd" fill-opacity="1" /><path clip-path="url(#clip240)" d="M176.237 166.532 L164.432 184.981 L176.237 184.981 L176.237 166.532 M175.01 162.458 L180.89 162.458 L180.89 184.981 L185.821 184.981 L185.821 188.87 L180.89 188.87 L180.89 197.018 L176.237 197.018 L176.237 188.87 L160.636 188.87 L160.636 184.356 L175.01 162.458 Z" fill="#000000" fill-rule="evenodd" fill-opacity="1" /><path clip-path="url(#clip240)" d="M27.0408 959.08 L32.579 959.08 Q31.3059 961.563 30.6693 964.236 Q30.0327 966.91 30.0327 969.774 Q30.0327 974.135 31.3695 976.331 Q32.7063 978.495 35.3799 978.495 Q37.4169 978.495 38.5946 976.936 Q39.7404 975.376 40.7908 970.666 L41.2364 968.66 Q42.5732 962.422 45.0239 959.812 Q47.4429 957.17 51.8034 957.17 Q56.7687 957.17 59.6651 961.117 Q62.5615 965.032 62.5615 971.907 Q62.5615 974.772 61.9886 977.891 Q61.4475 980.978 60.3335 984.416 L54.2861 984.416 Q55.973 981.169 56.8323 978.018 Q57.6599 974.867 57.6599 971.78 Q57.6599 967.642 56.2594 965.414 Q54.8271 963.186 52.249 963.186 Q49.8619 963.186 48.5887 964.809 Q47.3156 966.401 46.1379 971.843 L45.6605 973.88 Q44.5147 979.323 42.1594 981.742 Q39.7722 984.161 35.6345 984.161 Q30.6056 984.161 27.8684 980.596 Q25.1311 977.031 25.1311 970.475 Q25.1311 967.228 25.6085 964.364 Q26.086 961.499 27.0408 959.08 Z" fill="#000000" fill-rule="evenodd" fill-opacity="1" /><path clip-path="url(#clip240)" d="M56.2912 942.179 L75.1974 942.179 L75.1974 948.067 L25.9905 948.067 L25.9905 942.179 L31.4013 942.179 Q28.2185 940.333 26.6907 937.532 Q25.1311 934.699 25.1311 930.784 Q25.1311 924.291 30.2873 920.249 Q35.4436 916.175 43.8463 916.175 Q52.249 916.175 57.4052 920.249 Q62.5615 924.291 62.5615 930.784 Q62.5615 934.699 61.0337 937.532 Q59.4741 940.333 56.2912 942.179 M43.8463 922.254 Q37.3851 922.254 33.7248 924.928 Q30.0327 927.57 30.0327 932.217 Q30.0327 936.864 33.7248 939.537 Q37.3851 942.179 43.8463 942.179 Q50.3075 942.179 53.9996 939.537 Q57.6599 936.864 57.6599 932.217 Q57.6599 927.57 53.9996 924.928 Q50.3075 922.254 43.8463 922.254 Z" fill="#000000" fill-rule="evenodd" fill-opacity="1" /><path clip-path="url(#clip240)" d="M42.3504 875.976 L45.2149 875.976 L45.2149 902.903 Q51.2623 902.521 54.4452 899.274 Q57.5962 895.996 57.5962 890.171 Q57.5962 886.797 56.7687 883.646 Q55.9411 880.464 54.2861 877.344 L59.8242 877.344 Q61.161 880.495 61.8612 883.806 Q62.5615 887.116 62.5615 890.521 Q62.5615 899.051 57.5962 904.049 Q52.631 909.014 44.1646 909.014 Q35.4117 909.014 30.2873 904.303 Q25.1311 899.561 25.1311 891.54 Q25.1311 884.347 29.7781 880.177 Q34.3932 875.976 42.3504 875.976 M40.6316 881.832 Q35.8255 881.896 32.9609 884.538 Q30.0964 887.148 30.0964 891.476 Q30.0964 896.378 32.8654 899.338 Q35.6345 902.266 40.6634 902.712 L40.6316 881.832 Z" fill="#000000" fill-rule="evenodd" fill-opacity="1" /><path clip-path="url(#clip240)" d="M42.3504 835.872 L45.2149 835.872 L45.2149 862.799 Q51.2623 862.417 54.4452 859.17 Q57.5962 855.892 57.5962 850.067 Q57.5962 846.694 56.7687 843.542 Q55.9411 840.36 54.2861 837.24 L59.8242 837.24 Q61.161 840.391 61.8612 843.702 Q62.5615 847.012 62.5615 850.417 Q62.5615 858.947 57.5962 863.945 Q52.631 868.91 44.1646 868.91 Q35.4117 868.91 30.2873 864.199 Q25.1311 859.457 25.1311 851.436 Q25.1311 844.243 29.7781 840.073 Q34.3932 835.872 42.3504 835.872 M40.6316 841.728 Q35.8255 841.792 32.9609 844.434 Q30.0964 847.044 30.0964 851.372 Q30.0964 856.274 32.8654 859.234 Q35.6345 862.162 40.6634 862.608 L40.6316 841.728 Z" fill="#000000" fill-rule="evenodd" fill-opacity="1" /><path clip-path="url(#clip240)" d="M31.4013 802.802 L12.1132 802.802 L12.1132 796.946 L61.6384 796.946 L61.6384 802.802 L56.2912 802.802 Q59.4741 804.648 61.0337 807.481 Q62.5615 810.282 62.5615 814.228 Q62.5615 820.69 57.4052 824.764 Q52.249 828.806 43.8463 828.806 Q35.4436 828.806 30.2873 824.764 Q25.1311 820.69 25.1311 814.228 Q25.1311 810.282 26.6907 807.481 Q28.2185 804.648 31.4013 802.802 M43.8463 822.758 Q50.3075 822.758 53.9996 820.117 Q57.6599 817.443 57.6599 812.796 Q57.6599 808.149 53.9996 805.476 Q50.3075 802.802 43.8463 802.802 Q37.3851 802.802 33.7248 805.476 Q30.0327 808.149 30.0327 812.796 Q30.0327 817.443 33.7248 820.117 Q37.3851 822.758 43.8463 822.758 Z" fill="#000000" fill-rule="evenodd" fill-opacity="1" /><polyline clip-path="url(#clip242)" style="stroke:#009af9; stroke-linecap:round; stroke-linejoin:round; stroke-width:4; stroke-opacity:1; fill:none" points="294.479,1686.38 393.885,1098.01 493.291,853.248 639.588,1098.01 768.816,1686.38 "/>
<circle clip-path="url(#clip242)" cx="294.479" cy="1686.38" r="7.2" fill="#009af9" fill-rule="evenodd" fill-opacity="0.2" stroke="#000000" stroke-opacity="0.2" stroke-width="3.84"/>
<circle clip-path="url(#clip242)" cx="393.885" cy="1098.01" r="7.2" fill="#009af9" fill-rule="evenodd" fill-opacity="0.2" stroke="#000000" stroke-opacity="0.2" stroke-width="3.84"/>
<circle clip-path="url(#clip242)" cx="493.291" cy="853.248" r="7.2" fill="#009af9" fill-rule="evenodd" fill-opacity="0.2" stroke="#000000" stroke-opacity="0.2" stroke-width="3.84"/>
<circle clip-path="url(#clip242)" cx="639.588" cy="1098.01" r="7.2" fill="#009af9" fill-rule="evenodd" fill-opacity="0.2" stroke="#000000" stroke-opacity="0.2" stroke-width="3.84"/>
<circle clip-path="url(#clip242)" cx="768.816" cy="1686.38" r="7.2" fill="#009af9" fill-rule="evenodd" fill-opacity="0.2" stroke="#000000" stroke-opacity="0.2" stroke-width="3.84"/>
<polyline clip-path="url(#clip242)" style="stroke:#e26f46; stroke-linecap:round; stroke-linejoin:round; stroke-width:4; stroke-opacity:1; fill:none" points="294.479,1686.38 393.885,1007.24 493.291,686.02 639.968,684.754 756.639,1007.24 885.866,1686.38 "/>
<circle clip-path="url(#clip242)" cx="294.479" cy="1686.38" r="7.2" fill="#e26f46" fill-rule="evenodd" fill-opacity="0.2" stroke="#000000" stroke-opacity="0.2" stroke-width="3.84"/>
<circle clip-path="url(#clip242)" cx="393.885" cy="1007.24" r="7.2" fill="#e26f46" fill-rule="evenodd" fill-opacity="0.2" stroke="#000000" stroke-opacity="0.2" stroke-width="3.84"/>
<circle clip-path="url(#clip242)" cx="493.291" cy="686.02" r="7.2" fill="#e26f46" fill-rule="evenodd" fill-opacity="0.2" stroke="#000000" stroke-opacity="0.2" stroke-width="3.84"/>
<circle clip-path="url(#clip242)" cx="639.968" cy="684.754" r="7.2" fill="#e26f46" fill-rule="evenodd" fill-opacity="0.2" stroke="#000000" stroke-opacity="0.2" stroke-width="3.84"/>
<circle clip-path="url(#clip242)" cx="756.639" cy="1007.24" r="7.2" fill="#e26f46" fill-rule="evenodd" fill-opacity="0.2" stroke="#000000" stroke-opacity="0.2" stroke-width="3.84"/>
<circle clip-path="url(#clip242)" cx="885.866" cy="1686.38" r="7.2" fill="#e26f46" fill-rule="evenodd" fill-opacity="0.2" stroke="#000000" stroke-opacity="0.2" stroke-width="3.84"/>
<polyline clip-path="url(#clip242)" style="stroke:#3da44d; stroke-linecap:round; stroke-linejoin:round; stroke-width:4; stroke-opacity:1; fill:none" points="294.479,1686.38 393.885,963.949 493.291,625.888 631.651,478.616 753.14,624.489 861.497,963.949 990.725,1686.38 "/>
<circle clip-path="url(#clip242)" cx="294.479" cy="1686.38" r="7.2" fill="#3da44d" fill-rule="evenodd" fill-opacity="0.2" stroke="#000000" stroke-opacity="0.2" stroke-width="3.84"/>
<circle clip-path="url(#clip242)" cx="393.885" cy="963.949" r="7.2" fill="#3da44d" fill-rule="evenodd" fill-opacity="0.2" stroke="#000000" stroke-opacity="0.2" stroke-width="3.84"/>
<circle clip-path="url(#clip242)" cx="493.291" cy="625.888" r="7.2" fill="#3da44d" fill-rule="evenodd" fill-opacity="0.2" stroke="#000000" stroke-opacity="0.2" stroke-width="3.84"/>
<circle clip-path="url(#clip242)" cx="631.651" cy="478.616" r="7.2" fill="#3da44d" fill-rule="evenodd" fill-opacity="0.2" stroke="#000000" stroke-opacity="0.2" stroke-width="3.84"/>
<circle clip-path="url(#clip242)" cx="753.14" cy="624.489" r="7.2" fill="#3da44d" fill-rule="evenodd" fill-opacity="0.2" stroke="#000000" stroke-opacity="0.2" stroke-width="3.84"/>
<circle clip-path="url(#clip242)" cx="861.497" cy="963.949" r="7.2" fill="#3da44d" fill-rule="evenodd" fill-opacity="0.2" stroke="#000000" stroke-opacity="0.2" stroke-width="3.84"/>
<circle clip-path="url(#clip242)" cx="990.725" cy="1686.38" r="7.2" fill="#3da44d" fill-rule="evenodd" fill-opacity="0.2" stroke="#000000" stroke-opacity="0.2" stroke-width="3.84"/>
<polyline clip-path="url(#clip242)" style="stroke:#c271d2; stroke-linecap:round; stroke-linejoin:round; stroke-width:4; stroke-opacity:1; fill:none" points="294.479,1686.38 393.885,941.112 493.291,596.424 627.911,400.469 742.017,400.031 856.084,594.991 960.706,941.112 1089.93,1686.38 "/>
<circle clip-path="url(#clip242)" cx="294.479" cy="1686.38" r="7.2" fill="#c271d2" fill-rule="evenodd" fill-opacity="0.2" stroke="#000000" stroke-opacity="0.2" stroke-width="3.84"/>
<circle clip-path="url(#clip242)" cx="393.885" cy="941.112" r="7.2" fill="#c271d2" fill-rule="evenodd" fill-opacity="0.2" stroke="#000000" stroke-opacity="0.2" stroke-width="3.84"/>
<circle clip-path="url(#clip242)" cx="493.291" cy="596.424" r="7.2" fill="#c271d2" fill-rule="evenodd" fill-opacity="0.2" stroke="#000000" stroke-opacity="0.2" stroke-width="3.84"/>
<circle clip-path="url(#clip242)" cx="627.911" cy="400.469" r="7.2" fill="#c271d2" fill-rule="evenodd" fill-opacity="0.2" stroke="#000000" stroke-opacity="0.2" stroke-width="3.84"/>
<circle clip-path="url(#clip242)" cx="742.017" cy="400.031" r="7.2" fill="#c271d2" fill-rule="evenodd" fill-opacity="0.2" stroke="#000000" stroke-opacity="0.2" stroke-width="3.84"/>
<circle clip-path="url(#clip242)" cx="856.084" cy="594.991" r="7.2" fill="#c271d2" fill-rule="evenodd" fill-opacity="0.2" stroke="#000000" stroke-opacity="0.2" stroke-width="3.84"/>
<circle clip-path="url(#clip242)" cx="960.706" cy="941.112" r="7.2" fill="#c271d2" fill-rule="evenodd" fill-opacity="0.2" stroke="#000000" stroke-opacity="0.2" stroke-width="3.84"/>
<circle clip-path="url(#clip242)" cx="1089.93" cy="1686.38" r="7.2" fill="#c271d2" fill-rule="evenodd" fill-opacity="0.2" stroke="#000000" stroke-opacity="0.2" stroke-width="3.84"/>
<polyline clip-path="url(#clip242)" style="stroke:#ac8d18; stroke-linecap:round; stroke-linejoin:round; stroke-width:4; stroke-opacity:1; fill:none" points="294.479,1686.38 393.885,928.611 493.291,580.784 626.007,362.229 736.817,309.948 843.419,361.588 954.176,579.34 1056.9,928.611 1186.13,1686.38 "/>
<circle clip-path="url(#clip242)" cx="294.479" cy="1686.38" r="7.2" fill="#ac8d18" fill-rule="evenodd" fill-opacity="0.2" stroke="#000000" stroke-opacity="0.2" stroke-width="3.84"/>
<circle clip-path="url(#clip242)" cx="393.885" cy="928.611" r="7.2" fill="#ac8d18" fill-rule="evenodd" fill-opacity="0.2" stroke="#000000" stroke-opacity="0.2" stroke-width="3.84"/>
<circle clip-path="url(#clip242)" cx="493.291" cy="580.784" r="7.2" fill="#ac8d18" fill-rule="evenodd" fill-opacity="0.2" stroke="#000000" stroke-opacity="0.2" stroke-width="3.84"/>
<circle clip-path="url(#clip242)" cx="626.007" cy="362.229" r="7.2" fill="#ac8d18" fill-rule="evenodd" fill-opacity="0.2" stroke="#000000" stroke-opacity="0.2" stroke-width="3.84"/>
<circle clip-path="url(#clip242)" cx="736.817" cy="309.948" r="7.2" fill="#ac8d18" fill-rule="evenodd" fill-opacity="0.2" stroke="#000000" stroke-opacity="0.2" stroke-width="3.84"/>
<circle clip-path="url(#clip242)" cx="843.419" cy="361.588" r="7.2" fill="#ac8d18" fill-rule="evenodd" fill-opacity="0.2" stroke="#000000" stroke-opacity="0.2" stroke-width="3.84"/>
<circle clip-path="url(#clip242)" cx="954.176" cy="579.34" r="7.2" fill="#ac8d18" fill-rule="evenodd" fill-opacity="0.2" stroke="#000000" stroke-opacity="0.2" stroke-width="3.84"/>
<circle clip-path="url(#clip242)" cx="1056.9" cy="928.611" r="7.2" fill="#ac8d18" fill-rule="evenodd" fill-opacity="0.2" stroke="#000000" stroke-opacity="0.2" stroke-width="3.84"/>
<circle clip-path="url(#clip242)" cx="1186.13" cy="1686.38" r="7.2" fill="#ac8d18" fill-rule="evenodd" fill-opacity="0.2" stroke="#000000" stroke-opacity="0.2" stroke-width="3.84"/>
<polyline clip-path="url(#clip242)" style="stroke:#00a9ad; stroke-linecap:round; stroke-linejoin:round; stroke-width:4; stroke-opacity:1; fill:none" points="294.479,1686.38 393.885,921.652 493.291,572.208 624.985,342.024 734.131,265.092 837.368,264.87 940.589,341.28 1049.67,570.76 1151.38,921.652 1280.6,1686.38 "/>
<circle clip-path="url(#clip242)" cx="294.479" cy="1686.38" r="7.2" fill="#00a9ad" fill-rule="evenodd" fill-opacity="0.2" stroke="#000000" stroke-opacity="0.2" stroke-width="3.84"/>
<circle clip-path="url(#clip242)" cx="393.885" cy="921.652" r="7.2" fill="#00a9ad" fill-rule="evenodd" fill-opacity="0.2" stroke="#000000" stroke-opacity="0.2" stroke-width="3.84"/>
<circle clip-path="url(#clip242)" cx="493.291" cy="572.208" r="7.2" fill="#00a9ad" fill-rule="evenodd" fill-opacity="0.2" stroke="#000000" stroke-opacity="0.2" stroke-width="3.84"/>
<circle clip-path="url(#clip242)" cx="624.985" cy="342.024" r="7.2" fill="#00a9ad" fill-rule="evenodd" fill-opacity="0.2" stroke="#000000" stroke-opacity="0.2" stroke-width="3.84"/>
<circle clip-path="url(#clip242)" cx="734.131" cy="265.092" r="7.2" fill="#00a9ad" fill-rule="evenodd" fill-opacity="0.2" stroke="#000000" stroke-opacity="0.2" stroke-width="3.84"/>
<circle clip-path="url(#clip242)" cx="837.368" cy="264.87" r="7.2" fill="#00a9ad" fill-rule="evenodd" fill-opacity="0.2" stroke="#000000" stroke-opacity="0.2" stroke-width="3.84"/>
<circle clip-path="url(#clip242)" cx="940.589" cy="341.28" r="7.2" fill="#00a9ad" fill-rule="evenodd" fill-opacity="0.2" stroke="#000000" stroke-opacity="0.2" stroke-width="3.84"/>
<circle clip-path="url(#clip242)" cx="1049.67" cy="570.76" r="7.2" fill="#00a9ad" fill-rule="evenodd" fill-opacity="0.2" stroke="#000000" stroke-opacity="0.2" stroke-width="3.84"/>
<circle clip-path="url(#clip242)" cx="1151.38" cy="921.652" r="7.2" fill="#00a9ad" fill-rule="evenodd" fill-opacity="0.2" stroke="#000000" stroke-opacity="0.2" stroke-width="3.84"/>
<circle clip-path="url(#clip242)" cx="1280.6" cy="1686.38" r="7.2" fill="#00a9ad" fill-rule="evenodd" fill-opacity="0.2" stroke="#000000" stroke-opacity="0.2" stroke-width="3.84"/>
<polyline clip-path="url(#clip242)" style="stroke:#ed5d92; stroke-linecap:round; stroke-linejoin:round; stroke-width:4; stroke-opacity:1; fill:none" points="294.479,1686.38 393.885,917.748 493.291,567.434 624.423,330.987 732.68,241.221 834.212,216.141 934.012,240.88 1035.52,330.188 1143.71,565.984 1244.85,917.748 1374.08,1686.38 "/>
<circle clip-path="url(#clip242)" cx="294.479" cy="1686.38" r="7.2" fill="#ed5d92" fill-rule="evenodd" fill-opacity="0.2" stroke="#000000" stroke-opacity="0.2" stroke-width="3.84"/>
<circle clip-path="url(#clip242)" cx="393.885" cy="917.748" r="7.2" fill="#ed5d92" fill-rule="evenodd" fill-opacity="0.2" stroke="#000000" stroke-opacity="0.2" stroke-width="3.84"/>
<circle clip-path="url(#clip242)" cx="493.291" cy="567.434" r="7.2" fill="#ed5d92" fill-rule="evenodd" fill-opacity="0.2" stroke="#000000" stroke-opacity="0.2" stroke-width="3.84"/>
<circle clip-path="url(#clip242)" cx="624.423" cy="330.987" r="7.2" fill="#ed5d92" fill-rule="evenodd" fill-opacity="0.2" stroke="#000000" stroke-opacity="0.2" stroke-width="3.84"/>
<circle clip-path="url(#clip242)" cx="732.68" cy="241.221" r="7.2" fill="#ed5d92" fill-rule="evenodd" fill-opacity="0.2" stroke="#000000" stroke-opacity="0.2" stroke-width="3.84"/>
<circle clip-path="url(#clip242)" cx="834.212" cy="216.141" r="7.2" fill="#ed5d92" fill-rule="evenodd" fill-opacity="0.2" stroke="#000000" stroke-opacity="0.2" stroke-width="3.84"/>
<circle clip-path="url(#clip242)" cx="934.012" cy="240.88" r="7.2" fill="#ed5d92" fill-rule="evenodd" fill-opacity="0.2" stroke="#000000" stroke-opacity="0.2" stroke-width="3.84"/>
<circle clip-path="url(#clip242)" cx="1035.52" cy="330.188" r="7.2" fill="#ed5d92" fill-rule="evenodd" fill-opacity="0.2" stroke="#000000" stroke-opacity="0.2" stroke-width="3.84"/>
<circle clip-path="url(#clip242)" cx="1143.71" cy="565.984" r="7.2" fill="#ed5d92" fill-rule="evenodd" fill-opacity="0.2" stroke="#000000" stroke-opacity="0.2" stroke-width="3.84"/>
<circle clip-path="url(#clip242)" cx="1244.85" cy="917.748" r="7.2" fill="#ed5d92" fill-rule="evenodd" fill-opacity="0.2" stroke="#000000" stroke-opacity="0.2" stroke-width="3.84"/>
<circle clip-path="url(#clip242)" cx="1374.08" cy="1686.38" r="7.2" fill="#ed5d92" fill-rule="evenodd" fill-opacity="0.2" stroke="#000000" stroke-opacity="0.2" stroke-width="3.84"/>
<polyline clip-path="url(#clip242)" style="stroke:#c68125; stroke-linecap:round; stroke-linejoin:round; stroke-width:4; stroke-opacity:1; fill:none" points="294.479,1686.38 393.885,913.605 493.291,562.398 623.836,319.496 731.182,216.784 831.026,167.756 927.646,147.542 1023,147.475 1118.34,167.53 1214.95,216.322 1314.76,318.64 1422.04,560.946 1522.6,913.605 1651.83,1686.38 "/>
<circle clip-path="url(#clip242)" cx="294.479" cy="1686.38" r="7.2" fill="#c68125" fill-rule="evenodd" fill-opacity="0.2" stroke="#000000" stroke-opacity="0.2" stroke-width="3.84"/>
<circle clip-path="url(#clip242)" cx="393.885" cy="913.605" r="7.2" fill="#c68125" fill-rule="evenodd" fill-opacity="0.2" stroke="#000000" stroke-opacity="0.2" stroke-width="3.84"/>
<circle clip-path="url(#clip242)" cx="493.291" cy="562.398" r="7.2" fill="#c68125" fill-rule="evenodd" fill-opacity="0.2" stroke="#000000" stroke-opacity="0.2" stroke-width="3.84"/>
<circle clip-path="url(#clip242)" cx="623.836" cy="319.496" r="7.2" fill="#c68125" fill-rule="evenodd" fill-opacity="0.2" stroke="#000000" stroke-opacity="0.2" stroke-width="3.84"/>
<circle clip-path="url(#clip242)" cx="731.182" cy="216.784" r="7.2" fill="#c68125" fill-rule="evenodd" fill-opacity="0.2" stroke="#000000" stroke-opacity="0.2" stroke-width="3.84"/>
<circle clip-path="url(#clip242)" cx="831.026" cy="167.756" r="7.2" fill="#c68125" fill-rule="evenodd" fill-opacity="0.2" stroke="#000000" stroke-opacity="0.2" stroke-width="3.84"/>
<circle clip-path="url(#clip242)" cx="927.646" cy="147.542" r="7.2" fill="#c68125" fill-rule="evenodd" fill-opacity="0.2" stroke="#000000" stroke-opacity="0.2" stroke-width="3.84"/>
<circle clip-path="url(#clip242)" cx="1023" cy="147.475" r="7.2" fill="#c68125" fill-rule="evenodd" fill-opacity="0.2" stroke="#000000" stroke-opacity="0.2" stroke-width="3.84"/>
<circle clip-path="url(#clip242)" cx="1118.34" cy="167.53" r="7.2" fill="#c68125" fill-rule="evenodd" fill-opacity="0.2" stroke="#000000" stroke-opacity="0.2" stroke-width="3.84"/>
<circle clip-path="url(#clip242)" cx="1214.95" cy="216.322" r="7.2" fill="#c68125" fill-rule="evenodd" fill-opacity="0.2" stroke="#000000" stroke-opacity="0.2" stroke-width="3.84"/>
<circle clip-path="url(#clip242)" cx="1314.76" cy="318.64" r="7.2" fill="#c68125" fill-rule="evenodd" fill-opacity="0.2" stroke="#000000" stroke-opacity="0.2" stroke-width="3.84"/>
<circle clip-path="url(#clip242)" cx="1422.04" cy="560.946" r="7.2" fill="#c68125" fill-rule="evenodd" fill-opacity="0.2" stroke="#000000" stroke-opacity="0.2" stroke-width="3.84"/>
<circle clip-path="url(#clip242)" cx="1522.6" cy="913.605" r="7.2" fill="#c68125" fill-rule="evenodd" fill-opacity="0.2" stroke="#000000" stroke-opacity="0.2" stroke-width="3.84"/>
<circle clip-path="url(#clip242)" cx="1651.83" cy="1686.38" r="7.2" fill="#c68125" fill-rule="evenodd" fill-opacity="0.2" stroke="#000000" stroke-opacity="0.2" stroke-width="3.84"/>
<polyline clip-path="url(#clip242)" style="stroke:#00a98d; stroke-linecap:round; stroke-linejoin:round; stroke-width:4; stroke-opacity:1; fill:none" points="294.479,1686.38 393.885,912.746 493.291,561.356 623.715,317.137 730.876,211.818 830.384,158.083 926.393,129.452 1020.64,114.273 1113.97,106.893 1206.87,104.681 1299.63,106.86 1392.53,114.195 1485.86,129.303 1580.09,157.812 1676.08,211.331 1775.56,316.27 1882.65,559.904 1983.09,912.746 2112.31,1686.38 "/>
<circle clip-path="url(#clip242)" cx="294.479" cy="1686.38" r="7.2" fill="#00a98d" fill-rule="evenodd" fill-opacity="0.2" stroke="#000000" stroke-opacity="0.2" stroke-width="3.84"/>
<circle clip-path="url(#clip242)" cx="393.885" cy="912.746" r="7.2" fill="#00a98d" fill-rule="evenodd" fill-opacity="0.2" stroke="#000000" stroke-opacity="0.2" stroke-width="3.84"/>
<circle clip-path="url(#clip242)" cx="493.291" cy="561.356" r="7.2" fill="#00a98d" fill-rule="evenodd" fill-opacity="0.2" stroke="#000000" stroke-opacity="0.2" stroke-width="3.84"/>
<circle clip-path="url(#clip242)" cx="623.715" cy="317.137" r="7.2" fill="#00a98d" fill-rule="evenodd" fill-opacity="0.2" stroke="#000000" stroke-opacity="0.2" stroke-width="3.84"/>
<circle clip-path="url(#clip242)" cx="730.876" cy="211.818" r="7.2" fill="#00a98d" fill-rule="evenodd" fill-opacity="0.2" stroke="#000000" stroke-opacity="0.2" stroke-width="3.84"/>
<circle clip-path="url(#clip242)" cx="830.384" cy="158.083" r="7.2" fill="#00a98d" fill-rule="evenodd" fill-opacity="0.2" stroke="#000000" stroke-opacity="0.2" stroke-width="3.84"/>
<circle clip-path="url(#clip242)" cx="926.393" cy="129.452" r="7.2" fill="#00a98d" fill-rule="evenodd" fill-opacity="0.2" stroke="#000000" stroke-opacity="0.2" stroke-width="3.84"/>
<circle clip-path="url(#clip242)" cx="1020.64" cy="114.273" r="7.2" fill="#00a98d" fill-rule="evenodd" fill-opacity="0.2" stroke="#000000" stroke-opacity="0.2" stroke-width="3.84"/>
<circle clip-path="url(#clip242)" cx="1113.97" cy="106.893" r="7.2" fill="#00a98d" fill-rule="evenodd" fill-opacity="0.2" stroke="#000000" stroke-opacity="0.2" stroke-width="3.84"/>
<circle clip-path="url(#clip242)" cx="1206.87" cy="104.681" r="7.2" fill="#00a98d" fill-rule="evenodd" fill-opacity="0.2" stroke="#000000" stroke-opacity="0.2" stroke-width="3.84"/>
<circle clip-path="url(#clip242)" cx="1299.63" cy="106.86" r="7.2" fill="#00a98d" fill-rule="evenodd" fill-opacity="0.2" stroke="#000000" stroke-opacity="0.2" stroke-width="3.84"/>
<circle clip-path="url(#clip242)" cx="1392.53" cy="114.195" r="7.2" fill="#00a98d" fill-rule="evenodd" fill-opacity="0.2" stroke="#000000" stroke-opacity="0.2" stroke-width="3.84"/>
<circle clip-path="url(#clip242)" cx="1485.86" cy="129.303" r="7.2" fill="#00a98d" fill-rule="evenodd" fill-opacity="0.2" stroke="#000000" stroke-opacity="0.2" stroke-width="3.84"/>
<circle clip-path="url(#clip242)" cx="1580.09" cy="157.812" r="7.2" fill="#00a98d" fill-rule="evenodd" fill-opacity="0.2" stroke="#000000" stroke-opacity="0.2" stroke-width="3.84"/>
<circle clip-path="url(#clip242)" cx="1676.08" cy="211.331" r="7.2" fill="#00a98d" fill-rule="evenodd" fill-opacity="0.2" stroke="#000000" stroke-opacity="0.2" stroke-width="3.84"/>
<circle clip-path="url(#clip242)" cx="1775.56" cy="316.27" r="7.2" fill="#00a98d" fill-rule="evenodd" fill-opacity="0.2" stroke="#000000" stroke-opacity="0.2" stroke-width="3.84"/>
<circle clip-path="url(#clip242)" cx="1882.65" cy="559.904" r="7.2" fill="#00a98d" fill-rule="evenodd" fill-opacity="0.2" stroke="#000000" stroke-opacity="0.2" stroke-width="3.84"/>
<circle clip-path="url(#clip242)" cx="1983.09" cy="912.746" r="7.2" fill="#00a98d" fill-rule="evenodd" fill-opacity="0.2" stroke="#000000" stroke-opacity="0.2" stroke-width="3.84"/>
<circle clip-path="url(#clip242)" cx="2112.31" cy="1686.38" r="7.2" fill="#00a98d" fill-rule="evenodd" fill-opacity="0.2" stroke="#000000" stroke-opacity="0.2" stroke-width="3.84"/>
<polyline clip-path="url(#clip242)" style="stroke:#8e971d; stroke-linecap:round; stroke-linejoin:round; stroke-width:4; stroke-opacity:1; fill:none" points="294.479,1686.38 393.885,912.696 493.291,561.295 623.708,317.001 730.859,211.532 830.347,157.527 926.321,128.417 1020.5,112.389 1113.72,103.507 1206.42,98.632 1298.84,96.0819 1391.1,94.9896 1483.3,94.9858 1575.51,96.0691 1667.77,98.6059 1760.18,103.459 1852.88,112.303 1946.1,128.263 2040.27,157.254 2136.22,211.044 2235.68,316.133 2342.76,559.844 2443.19,912.696 2572.42,1686.38 "/>
<circle clip-path="url(#clip242)" cx="294.479" cy="1686.38" r="7.2" fill="#8e971d" fill-rule="evenodd" fill-opacity="0.2" stroke="#000000" stroke-opacity="0.2" stroke-width="3.84"/>
<circle clip-path="url(#clip242)" cx="393.885" cy="912.696" r="7.2" fill="#8e971d" fill-rule="evenodd" fill-opacity="0.2" stroke="#000000" stroke-opacity="0.2" stroke-width="3.84"/>
<circle clip-path="url(#clip242)" cx="493.291" cy="561.295" r="7.2" fill="#8e971d" fill-rule="evenodd" fill-opacity="0.2" stroke="#000000" stroke-opacity="0.2" stroke-width="3.84"/>
<circle clip-path="url(#clip242)" cx="623.708" cy="317.001" r="7.2" fill="#8e971d" fill-rule="evenodd" fill-opacity="0.2" stroke="#000000" stroke-opacity="0.2" stroke-width="3.84"/>
<circle clip-path="url(#clip242)" cx="730.859" cy="211.532" r="7.2" fill="#8e971d" fill-rule="evenodd" fill-opacity="0.2" stroke="#000000" stroke-opacity="0.2" stroke-width="3.84"/>
<circle clip-path="url(#clip242)" cx="830.347" cy="157.527" r="7.2" fill="#8e971d" fill-rule="evenodd" fill-opacity="0.2" stroke="#000000" stroke-opacity="0.2" stroke-width="3.84"/>
<circle clip-path="url(#clip242)" cx="926.321" cy="128.417" r="7.2" fill="#8e971d" fill-rule="evenodd" fill-opacity="0.2" stroke="#000000" stroke-opacity="0.2" stroke-width="3.84"/>
<circle clip-path="url(#clip242)" cx="1020.5" cy="112.389" r="7.2" fill="#8e971d" fill-rule="evenodd" fill-opacity="0.2" stroke="#000000" stroke-opacity="0.2" stroke-width="3.84"/>
<circle clip-path="url(#clip242)" cx="1113.72" cy="103.507" r="7.2" fill="#8e971d" fill-rule="evenodd" fill-opacity="0.2" stroke="#000000" stroke-opacity="0.2" stroke-width="3.84"/>
<circle clip-path="url(#clip242)" cx="1206.42" cy="98.632" r="7.2" fill="#8e971d" fill-rule="evenodd" fill-opacity="0.2" stroke="#000000" stroke-opacity="0.2" stroke-width="3.84"/>
<circle clip-path="url(#clip242)" cx="1298.84" cy="96.0819" r="7.2" fill="#8e971d" fill-rule="evenodd" fill-opacity="0.2" stroke="#000000" stroke-opacity="0.2" stroke-width="3.84"/>
<circle clip-path="url(#clip242)" cx="1391.1" cy="94.9896" r="7.2" fill="#8e971d" fill-rule="evenodd" fill-opacity="0.2" stroke="#000000" stroke-opacity="0.2" stroke-width="3.84"/>
<circle clip-path="url(#clip242)" cx="1483.3" cy="94.9858" r="7.2" fill="#8e971d" fill-rule="evenodd" fill-opacity="0.2" stroke="#000000" stroke-opacity="0.2" stroke-width="3.84"/>
<circle clip-path="url(#clip242)" cx="1575.51" cy="96.0691" r="7.2" fill="#8e971d" fill-rule="evenodd" fill-opacity="0.2" stroke="#000000" stroke-opacity="0.2" stroke-width="3.84"/>
<circle clip-path="url(#clip242)" cx="1667.77" cy="98.6059" r="7.2" fill="#8e971d" fill-rule="evenodd" fill-opacity="0.2" stroke="#000000" stroke-opacity="0.2" stroke-width="3.84"/>
<circle clip-path="url(#clip242)" cx="1760.18" cy="103.459" r="7.2" fill="#8e971d" fill-rule="evenodd" fill-opacity="0.2" stroke="#000000" stroke-opacity="0.2" stroke-width="3.84"/>
<circle clip-path="url(#clip242)" cx="1852.88" cy="112.303" r="7.2" fill="#8e971d" fill-rule="evenodd" fill-opacity="0.2" stroke="#000000" stroke-opacity="0.2" stroke-width="3.84"/>
<circle clip-path="url(#clip242)" cx="1946.1" cy="128.263" r="7.2" fill="#8e971d" fill-rule="evenodd" fill-opacity="0.2" stroke="#000000" stroke-opacity="0.2" stroke-width="3.84"/>
<circle clip-path="url(#clip242)" cx="2040.27" cy="157.254" r="7.2" fill="#8e971d" fill-rule="evenodd" fill-opacity="0.2" stroke="#000000" stroke-opacity="0.2" stroke-width="3.84"/>
<circle clip-path="url(#clip242)" cx="2136.22" cy="211.044" r="7.2" fill="#8e971d" fill-rule="evenodd" fill-opacity="0.2" stroke="#000000" stroke-opacity="0.2" stroke-width="3.84"/>
<circle clip-path="url(#clip242)" cx="2235.68" cy="316.133" r="7.2" fill="#8e971d" fill-rule="evenodd" fill-opacity="0.2" stroke="#000000" stroke-opacity="0.2" stroke-width="3.84"/>
<circle clip-path="url(#clip242)" cx="2342.76" cy="559.844" r="7.2" fill="#8e971d" fill-rule="evenodd" fill-opacity="0.2" stroke="#000000" stroke-opacity="0.2" stroke-width="3.84"/>
<circle clip-path="url(#clip242)" cx="2443.19" cy="912.696" r="7.2" fill="#8e971d" fill-rule="evenodd" fill-opacity="0.2" stroke="#000000" stroke-opacity="0.2" stroke-width="3.84"/>
<circle clip-path="url(#clip242)" cx="2572.42" cy="1686.38" r="7.2" fill="#8e971d" fill-rule="evenodd" fill-opacity="0.2" stroke="#000000" stroke-opacity="0.2" stroke-width="3.84"/>
</svg>
