<?xml version="1.0" encoding="utf-8"?>
<svg xmlns="http://www.w3.org/2000/svg" xmlns:xlink="http://www.w3.org/1999/xlink" width="672" height="480" viewBox="0 0 2688 1920">
<defs>
  <clipPath id="clip300">
    <rect x="0" y="0" width="2688" height="1920"/>
  </clipPath>
</defs>
<path clip-path="url(#clip300)" d="M0 1920 L2688 1920 L2688 0 L0 0  Z" fill="#ffffff" fill-rule="evenodd" fill-opacity="1"/>
<defs>
  <clipPath id="clip301">
    <rect x="537" y="0" width="1883" height="1883"/>
  </clipPath>
</defs>
<path clip-path="url(#clip300)" d="M226.141 1734.12 L1281.67 1734.12 L1281.67 47.2441 L226.141 47.2441  Z" fill="#ffffff" fill-rule="evenodd" fill-opacity="1"/>
<defs>
  <clipPath id="clip302">
    <rect x="226" y="47" width="1057" height="1688"/>
  </clipPath>
</defs>
<polyline clip-path="url(#clip302)" style="stroke:#000000; stroke-linecap:round; stroke-linejoin:round; stroke-width:2; stroke-opacity:0.1; fill:none" points="256.014,1734.12 256.014,47.2441 "/>
<polyline clip-path="url(#clip302)" style="stroke:#000000; stroke-linecap:round; stroke-linejoin:round; stroke-width:2; stroke-opacity:0.1; fill:none" points="478.041,1734.12 478.041,47.2441 "/>
<polyline clip-path="url(#clip302)" style="stroke:#000000; stroke-linecap:round; stroke-linejoin:round; stroke-width:2; stroke-opacity:0.1; fill:none" points="700.068,1734.12 700.068,47.2441 "/>
<polyline clip-path="url(#clip302)" style="stroke:#000000; stroke-linecap:round; stroke-linejoin:round; stroke-width:2; stroke-opacity:0.1; fill:none" points="922.094,1734.12 922.094,47.2441 "/>
<polyline clip-path="url(#clip302)" style="stroke:#000000; stroke-linecap:round; stroke-linejoin:round; stroke-width:2; stroke-opacity:0.1; fill:none" points="1144.12,1734.12 1144.12,47.2441 "/>
<polyline clip-path="url(#clip300)" style="stroke:#000000; stroke-linecap:round; stroke-linejoin:round; stroke-width:4; stroke-opacity:1; fill:none" points="226.141,1734.12 1281.67,1734.12 "/>
<polyline clip-path="url(#clip300)" style="stroke:#000000; stroke-linecap:round; stroke-linejoin:round; stroke-width:4; stroke-opacity:1; fill:none" points="256.014,1734.12 256.014,1715.22 "/>
<polyline clip-path="url(#clip300)" style="stroke:#000000; stroke-linecap:round; stroke-linejoin:round; stroke-width:4; stroke-opacity:1; fill:none" points="478.041,1734.12 478.041,1715.22 "/>
<polyline clip-path="url(#clip300)" style="stroke:#000000; stroke-linecap:round; stroke-linejoin:round; stroke-width:4; stroke-opacity:1; fill:none" points="700.068,1734.12 700.068,1715.22 "/>
<polyline clip-path="url(#clip300)" style="stroke:#000000; stroke-linecap:round; stroke-linejoin:round; stroke-width:4; stroke-opacity:1; fill:none" points="922.094,1734.12 922.094,1715.22 "/>
<polyline clip-path="url(#clip300)" style="stroke:#000000; stroke-linecap:round; stroke-linejoin:round; stroke-width:4; stroke-opacity:1; fill:none" points="1144.12,1734.12 1144.12,1715.22 "/>
<path clip-path="url(#clip300)" d="M256.014 1767.34 Q252.403 1767.34 250.574 1770.9 Q248.769 1774.45 248.769 1781.58 Q248.769 1788.68 250.574 1792.25 Q252.403 1795.79 256.014 1795.79 Q259.648 1795.79 261.454 1792.25 Q263.283 1788.68 263.283 1781.58 Q263.283 1774.45 261.454 1770.9 Q259.648 1767.34 256.014 1767.34 M256.014 1763.64 Q261.824 1763.64 264.88 1768.24 Q267.959 1772.83 267.959 1781.58 Q267.959 1790.3 264.88 1794.91 Q261.824 1799.49 256.014 1799.49 Q250.204 1799.49 247.125 1794.91 Q244.07 1790.3 244.07 1781.58 Q244.07 1772.83 247.125 1768.24 Q250.204 1763.64 256.014 1763.64 Z" fill="#000000" fill-rule="evenodd" fill-opacity="1" /><path clip-path="url(#clip300)" d="M468.319 1764.26 L486.675 1764.26 L486.675 1768.2 L472.601 1768.2 L472.601 1776.67 Q473.62 1776.32 474.638 1776.16 Q475.657 1775.97 476.675 1775.97 Q482.462 1775.97 485.842 1779.15 Q489.221 1782.32 489.221 1787.73 Q489.221 1793.31 485.749 1796.41 Q482.277 1799.49 475.958 1799.49 Q473.782 1799.49 471.513 1799.12 Q469.268 1798.75 466.86 1798.01 L466.86 1793.31 Q468.944 1794.45 471.166 1795 Q473.388 1795.56 475.865 1795.56 Q479.87 1795.56 482.208 1793.45 Q484.546 1791.34 484.546 1787.73 Q484.546 1784.12 482.208 1782.02 Q479.87 1779.91 475.865 1779.91 Q473.99 1779.91 472.115 1780.33 Q470.263 1780.74 468.319 1781.62 L468.319 1764.26 Z" fill="#000000" fill-rule="evenodd" fill-opacity="1" /><path clip-path="url(#clip300)" d="M674.755 1794.89 L682.394 1794.89 L682.394 1768.52 L674.084 1770.19 L674.084 1765.93 L682.348 1764.26 L687.024 1764.26 L687.024 1794.89 L694.663 1794.89 L694.663 1798.82 L674.755 1798.82 L674.755 1794.89 Z" fill="#000000" fill-rule="evenodd" fill-opacity="1" /><path clip-path="url(#clip300)" d="M714.107 1767.34 Q710.496 1767.34 708.667 1770.9 Q706.862 1774.45 706.862 1781.58 Q706.862 1788.68 708.667 1792.25 Q710.496 1795.79 714.107 1795.79 Q717.741 1795.79 719.547 1792.25 Q721.375 1788.68 721.375 1781.58 Q721.375 1774.45 719.547 1770.9 Q717.741 1767.34 714.107 1767.34 M714.107 1763.64 Q719.917 1763.64 722.973 1768.24 Q726.051 1772.83 726.051 1781.58 Q726.051 1790.3 722.973 1794.91 Q719.917 1799.49 714.107 1799.49 Q708.297 1799.49 705.218 1794.91 Q702.163 1790.3 702.163 1781.58 Q702.163 1772.83 705.218 1768.24 Q708.297 1763.64 714.107 1763.64 Z" fill="#000000" fill-rule="evenodd" fill-opacity="1" /><path clip-path="url(#clip300)" d="M897.28 1794.89 L904.919 1794.89 L904.919 1768.52 L896.609 1770.19 L896.609 1765.93 L904.872 1764.26 L909.548 1764.26 L909.548 1794.89 L917.187 1794.89 L917.187 1798.82 L897.28 1798.82 L897.28 1794.89 Z" fill="#000000" fill-rule="evenodd" fill-opacity="1" /><path clip-path="url(#clip300)" d="M926.678 1764.26 L945.034 1764.26 L945.034 1768.2 L930.96 1768.2 L930.96 1776.67 Q931.979 1776.32 932.997 1776.16 Q934.016 1775.97 935.034 1775.97 Q940.821 1775.97 944.201 1779.15 Q947.58 1782.32 947.58 1787.73 Q947.58 1793.31 944.108 1796.41 Q940.636 1799.49 934.317 1799.49 Q932.141 1799.49 929.872 1799.12 Q927.627 1798.75 925.219 1798.01 L925.219 1793.31 Q927.303 1794.45 929.525 1795 Q931.747 1795.56 934.224 1795.56 Q938.229 1795.56 940.567 1793.45 Q942.905 1791.34 942.905 1787.73 Q942.905 1784.12 940.567 1782.02 Q938.229 1779.91 934.224 1779.91 Q932.349 1779.91 930.474 1780.33 Q928.622 1780.74 926.678 1781.62 L926.678 1764.26 Z" fill="#000000" fill-rule="evenodd" fill-opacity="1" /><path clip-path="url(#clip300)" d="M1122.89 1794.89 L1139.21 1794.89 L1139.21 1798.82 L1117.27 1798.82 L1117.27 1794.89 Q1119.93 1792.13 1124.51 1787.5 Q1129.12 1782.85 1130.3 1781.51 Q1132.55 1778.98 1133.43 1777.25 Q1134.33 1775.49 1134.33 1773.8 Q1134.33 1771.04 1132.39 1769.31 Q1130.46 1767.57 1127.36 1767.57 Q1125.16 1767.57 1122.71 1768.34 Q1120.28 1769.1 1117.5 1770.65 L1117.5 1765.93 Q1120.33 1764.79 1122.78 1764.21 Q1125.23 1763.64 1127.27 1763.64 Q1132.64 1763.64 1135.83 1766.32 Q1139.03 1769.01 1139.03 1773.5 Q1139.03 1775.63 1138.22 1777.55 Q1137.43 1779.45 1135.33 1782.04 Q1134.75 1782.71 1131.64 1785.93 Q1128.54 1789.12 1122.89 1794.89 Z" fill="#000000" fill-rule="evenodd" fill-opacity="1" /><path clip-path="url(#clip300)" d="M1159.03 1767.34 Q1155.42 1767.34 1153.59 1770.9 Q1151.78 1774.45 1151.78 1781.58 Q1151.78 1788.68 1153.59 1792.25 Q1155.42 1795.79 1159.03 1795.79 Q1162.66 1795.79 1164.47 1792.25 Q1166.3 1788.68 1166.3 1781.58 Q1166.3 1774.45 1164.47 1770.9 Q1162.66 1767.34 1159.03 1767.34 M1159.03 1763.64 Q1164.84 1763.64 1167.89 1768.24 Q1170.97 1772.83 1170.97 1781.58 Q1170.97 1790.3 1167.89 1794.91 Q1164.84 1799.49 1159.03 1799.49 Q1153.22 1799.49 1150.14 1794.91 Q1147.08 1790.3 1147.08 1781.58 Q1147.08 1772.83 1150.14 1768.24 Q1153.22 1763.64 1159.03 1763.64 Z" fill="#000000" fill-rule="evenodd" fill-opacity="1" /><path clip-path="url(#clip300)" d="M693.068 1837.53 L693.068 1847.65 L705.131 1847.65 L705.131 1852.2 L693.068 1852.2 L693.068 1871.56 Q693.068 1875.92 694.245 1877.16 Q695.455 1878.4 699.115 1878.4 L705.131 1878.4 L705.131 1883.3 L699.115 1883.3 Q692.335 1883.3 689.757 1880.79 Q687.179 1878.24 687.179 1871.56 L687.179 1852.2 L682.882 1852.2 L682.882 1847.65 L687.179 1847.65 L687.179 1837.53 L693.068 1837.53 Z" fill="#000000" fill-rule="evenodd" fill-opacity="1" /><path clip-path="url(#clip300)" d="M712.833 1847.65 L718.689 1847.65 L718.689 1883.3 L712.833 1883.3 L712.833 1847.65 M712.833 1833.78 L718.689 1833.78 L718.689 1841.19 L712.833 1841.19 L712.833 1833.78 Z" fill="#000000" fill-rule="evenodd" fill-opacity="1" /><path clip-path="url(#clip300)" d="M758.698 1854.5 Q760.894 1850.55 763.95 1848.67 Q767.005 1846.79 771.143 1846.79 Q776.713 1846.79 779.737 1850.71 Q782.76 1854.59 782.76 1861.78 L782.76 1883.3 L776.872 1883.3 L776.872 1861.98 Q776.872 1856.85 775.058 1854.37 Q773.244 1851.89 769.52 1851.89 Q764.968 1851.89 762.326 1854.91 Q759.685 1857.93 759.685 1863.15 L759.685 1883.3 L753.796 1883.3 L753.796 1861.98 Q753.796 1856.82 751.982 1854.37 Q750.168 1851.89 746.38 1851.89 Q741.892 1851.89 739.251 1854.94 Q736.609 1857.97 736.609 1863.15 L736.609 1883.3 L730.721 1883.3 L730.721 1847.65 L736.609 1847.65 L736.609 1853.19 Q738.614 1849.91 741.415 1848.35 Q744.216 1846.79 748.067 1846.79 Q751.95 1846.79 754.656 1848.77 Q757.393 1850.74 758.698 1854.5 Z" fill="#000000" fill-rule="evenodd" fill-opacity="1" /><path clip-path="url(#clip300)" d="M824.933 1864.01 L824.933 1866.88 L798.006 1866.88 Q798.388 1872.92 801.635 1876.11 Q804.913 1879.26 810.738 1879.26 Q814.111 1879.26 817.262 1878.43 Q820.445 1877.6 823.565 1875.95 L823.565 1881.49 Q820.413 1882.82 817.103 1883.52 Q813.793 1884.22 810.387 1884.22 Q801.857 1884.22 796.86 1879.26 Q791.895 1874.29 791.895 1865.83 Q791.895 1857.07 796.606 1851.95 Q801.348 1846.79 809.369 1846.79 Q816.562 1846.79 820.732 1851.44 Q824.933 1856.06 824.933 1864.01 M819.077 1862.29 Q819.013 1857.49 816.371 1854.62 Q813.761 1851.76 809.433 1851.76 Q804.531 1851.76 801.571 1854.53 Q798.643 1857.3 798.197 1862.33 L819.077 1862.29 Z" fill="#000000" fill-rule="evenodd" fill-opacity="1" /><polyline clip-path="url(#clip302)" style="stroke:#000000; stroke-linecap:round; stroke-linejoin:round; stroke-width:2; stroke-opacity:0.1; fill:none" points="226.141,1686.38 1281.67,1686.38 "/>
<polyline clip-path="url(#clip302)" style="stroke:#000000; stroke-linecap:round; stroke-linejoin:round; stroke-width:2; stroke-opacity:0.1; fill:none" points="226.141,1432.88 1281.67,1432.88 "/>
<polyline clip-path="url(#clip302)" style="stroke:#000000; stroke-linecap:round; stroke-linejoin:round; stroke-width:2; stroke-opacity:0.1; fill:none" points="226.141,1179.39 1281.67,1179.39 "/>
<polyline clip-path="url(#clip302)" style="stroke:#000000; stroke-linecap:round; stroke-linejoin:round; stroke-width:2; stroke-opacity:0.1; fill:none" points="226.141,925.894 1281.67,925.894 "/>
<polyline clip-path="url(#clip302)" style="stroke:#000000; stroke-linecap:round; stroke-linejoin:round; stroke-width:2; stroke-opacity:0.1; fill:none" points="226.141,672.4 1281.67,672.4 "/>
<polyline clip-path="url(#clip302)" style="stroke:#000000; stroke-linecap:round; stroke-linejoin:round; stroke-width:2; stroke-opacity:0.1; fill:none" points="226.141,418.906 1281.67,418.906 "/>
<polyline clip-path="url(#clip302)" style="stroke:#000000; stroke-linecap:round; stroke-linejoin:round; stroke-width:2; stroke-opacity:0.1; fill:none" points="226.141,165.412 1281.67,165.412 "/>
<polyline clip-path="url(#clip300)" style="stroke:#000000; stroke-linecap:round; stroke-linejoin:round; stroke-width:4; stroke-opacity:1; fill:none" points="226.141,1734.12 226.141,47.2441 "/>
<polyline clip-path="url(#clip300)" style="stroke:#000000; stroke-linecap:round; stroke-linejoin:round; stroke-width:4; stroke-opacity:1; fill:none" points="226.141,1686.38 245.038,1686.38 "/>
<polyline clip-path="url(#clip300)" style="stroke:#000000; stroke-linecap:round; stroke-linejoin:round; stroke-width:4; stroke-opacity:1; fill:none" points="226.141,1432.88 245.038,1432.88 "/>
<polyline clip-path="url(#clip300)" style="stroke:#000000; stroke-linecap:round; stroke-linejoin:round; stroke-width:4; stroke-opacity:1; fill:none" points="226.141,1179.39 245.038,1179.39 "/>
<polyline clip-path="url(#clip300)" style="stroke:#000000; stroke-linecap:round; stroke-linejoin:round; stroke-width:4; stroke-opacity:1; fill:none" points="226.141,925.894 245.038,925.894 "/>
<polyline clip-path="url(#clip300)" style="stroke:#000000; stroke-linecap:round; stroke-linejoin:round; stroke-width:4; stroke-opacity:1; fill:none" points="226.141,672.4 245.038,672.4 "/>
<polyline clip-path="url(#clip300)" style="stroke:#000000; stroke-linecap:round; stroke-linejoin:round; stroke-width:4; stroke-opacity:1; fill:none" points="226.141,418.906 245.038,418.906 "/>
<polyline clip-path="url(#clip300)" style="stroke:#000000; stroke-linecap:round; stroke-linejoin:round; stroke-width:4; stroke-opacity:1; fill:none" points="226.141,165.412 245.038,165.412 "/>
<path clip-path="url(#clip300)" d="M128.645 1672.17 Q125.034 1672.17 123.205 1675.74 Q121.4 1679.28 121.4 1686.41 Q121.4 1693.52 123.205 1697.08 Q125.034 1700.62 128.645 1700.62 Q132.279 1700.62 134.085 1697.08 Q135.913 1693.52 135.913 1686.41 Q135.913 1679.28 134.085 1675.74 Q132.279 1672.17 128.645 1672.17 M128.645 1668.47 Q134.455 1668.47 137.511 1673.08 Q140.589 1677.66 140.589 1686.41 Q140.589 1695.14 137.511 1699.74 Q134.455 1704.33 128.645 1704.33 Q122.835 1704.33 119.756 1699.74 Q116.701 1695.14 116.701 1686.41 Q116.701 1677.66 119.756 1673.08 Q122.835 1668.47 128.645 1668.47 Z" fill="#000000" fill-rule="evenodd" fill-opacity="1" /><path clip-path="url(#clip300)" d="M148.807 1697.78 L153.691 1697.78 L153.691 1703.66 L148.807 1703.66 L148.807 1697.78 Z" fill="#000000" fill-rule="evenodd" fill-opacity="1" /><path clip-path="url(#clip300)" d="M173.876 1672.17 Q170.265 1672.17 168.436 1675.74 Q166.631 1679.28 166.631 1686.41 Q166.631 1693.52 168.436 1697.08 Q170.265 1700.62 173.876 1700.62 Q177.51 1700.62 179.316 1697.08 Q181.145 1693.52 181.145 1686.41 Q181.145 1679.28 179.316 1675.74 Q177.51 1672.17 173.876 1672.17 M173.876 1668.47 Q179.686 1668.47 182.742 1673.08 Q185.821 1677.66 185.821 1686.41 Q185.821 1695.14 182.742 1699.74 Q179.686 1704.33 173.876 1704.33 Q168.066 1704.33 164.987 1699.74 Q161.932 1695.14 161.932 1686.41 Q161.932 1677.66 164.987 1673.08 Q168.066 1668.47 173.876 1668.47 Z" fill="#000000" fill-rule="evenodd" fill-opacity="1" /><path clip-path="url(#clip300)" d="M129.872 1418.68 Q126.261 1418.68 124.432 1422.24 Q122.626 1425.79 122.626 1432.92 Q122.626 1440.02 124.432 1443.59 Q126.261 1447.13 129.872 1447.13 Q133.506 1447.13 135.312 1443.59 Q137.14 1440.02 137.14 1432.92 Q137.14 1425.79 135.312 1422.24 Q133.506 1418.68 129.872 1418.68 M129.872 1414.98 Q135.682 1414.98 138.737 1419.58 Q141.816 1424.17 141.816 1432.92 Q141.816 1441.64 138.737 1446.25 Q135.682 1450.83 129.872 1450.83 Q124.062 1450.83 120.983 1446.25 Q117.927 1441.64 117.927 1432.92 Q117.927 1424.17 120.983 1419.58 Q124.062 1414.98 129.872 1414.98 Z" fill="#000000" fill-rule="evenodd" fill-opacity="1" /><path clip-path="url(#clip300)" d="M150.034 1444.28 L154.918 1444.28 L154.918 1450.16 L150.034 1450.16 L150.034 1444.28 Z" fill="#000000" fill-rule="evenodd" fill-opacity="1" /><path clip-path="url(#clip300)" d="M165.913 1446.23 L173.552 1446.23 L173.552 1419.86 L165.242 1421.53 L165.242 1417.27 L173.506 1415.6 L178.182 1415.6 L178.182 1446.23 L185.821 1446.23 L185.821 1450.16 L165.913 1450.16 L165.913 1446.23 Z" fill="#000000" fill-rule="evenodd" fill-opacity="1" /><path clip-path="url(#clip300)" d="M130.242 1165.19 Q126.631 1165.19 124.802 1168.75 Q122.997 1172.29 122.997 1179.42 Q122.997 1186.53 124.802 1190.09 Q126.631 1193.64 130.242 1193.64 Q133.876 1193.64 135.682 1190.09 Q137.511 1186.53 137.511 1179.42 Q137.511 1172.29 135.682 1168.75 Q133.876 1165.19 130.242 1165.19 M130.242 1161.48 Q136.052 1161.48 139.108 1166.09 Q142.187 1170.67 142.187 1179.42 Q142.187 1188.15 139.108 1192.76 Q136.052 1197.34 130.242 1197.34 Q124.432 1197.34 121.353 1192.76 Q118.298 1188.15 118.298 1179.42 Q118.298 1170.67 121.353 1166.09 Q124.432 1161.48 130.242 1161.48 Z" fill="#000000" fill-rule="evenodd" fill-opacity="1" /><path clip-path="url(#clip300)" d="M150.404 1190.79 L155.288 1190.79 L155.288 1196.67 L150.404 1196.67 L150.404 1190.79 Z" fill="#000000" fill-rule="evenodd" fill-opacity="1" /><path clip-path="url(#clip300)" d="M169.501 1192.73 L185.821 1192.73 L185.821 1196.67 L163.876 1196.67 L163.876 1192.73 Q166.538 1189.98 171.122 1185.35 Q175.728 1180.7 176.909 1179.35 Q179.154 1176.83 180.034 1175.09 Q180.936 1173.33 180.936 1171.64 Q180.936 1168.89 178.992 1167.15 Q177.071 1165.42 173.969 1165.42 Q171.77 1165.42 169.316 1166.18 Q166.885 1166.95 164.108 1168.5 L164.108 1163.77 Q166.932 1162.64 169.385 1162.06 Q171.839 1161.48 173.876 1161.48 Q179.247 1161.48 182.441 1164.17 Q185.635 1166.85 185.635 1171.34 Q185.635 1173.47 184.825 1175.39 Q184.038 1177.29 181.932 1179.89 Q181.353 1180.56 178.251 1183.77 Q175.149 1186.97 169.501 1192.73 Z" fill="#000000" fill-rule="evenodd" fill-opacity="1" /><path clip-path="url(#clip300)" d="M129.293 911.692 Q125.682 911.692 123.853 915.257 Q122.048 918.799 122.048 925.928 Q122.048 933.035 123.853 936.6 Q125.682 940.141 129.293 940.141 Q132.927 940.141 134.733 936.6 Q136.562 933.035 136.562 925.928 Q136.562 918.799 134.733 915.257 Q132.927 911.692 129.293 911.692 M129.293 907.989 Q135.103 907.989 138.159 912.595 Q141.237 917.178 141.237 925.928 Q141.237 934.655 138.159 939.262 Q135.103 943.845 129.293 943.845 Q123.483 943.845 120.404 939.262 Q117.349 934.655 117.349 925.928 Q117.349 917.178 120.404 912.595 Q123.483 907.989 129.293 907.989 Z" fill="#000000" fill-rule="evenodd" fill-opacity="1" /><path clip-path="url(#clip300)" d="M149.455 937.294 L154.339 937.294 L154.339 943.174 L149.455 943.174 L149.455 937.294 Z" fill="#000000" fill-rule="evenodd" fill-opacity="1" /><path clip-path="url(#clip300)" d="M178.691 924.54 Q182.047 925.257 183.922 927.526 Q185.821 929.794 185.821 933.127 Q185.821 938.243 182.302 941.044 Q178.784 943.845 172.302 943.845 Q170.126 943.845 167.811 943.405 Q165.52 942.989 163.066 942.132 L163.066 937.618 Q165.01 938.752 167.325 939.331 Q169.64 939.91 172.163 939.91 Q176.561 939.91 178.853 938.174 Q181.168 936.438 181.168 933.127 Q181.168 930.072 179.015 928.359 Q176.885 926.623 173.066 926.623 L169.038 926.623 L169.038 922.78 L173.251 922.78 Q176.7 922.78 178.529 921.415 Q180.358 920.026 180.358 917.433 Q180.358 914.771 178.459 913.359 Q176.584 911.924 173.066 911.924 Q171.145 911.924 168.946 912.341 Q166.747 912.757 164.108 913.637 L164.108 909.47 Q166.77 908.729 169.085 908.359 Q171.422 907.989 173.483 907.989 Q178.807 907.989 181.909 910.419 Q185.01 912.827 185.01 916.947 Q185.01 919.817 183.367 921.808 Q181.723 923.776 178.691 924.54 Z" fill="#000000" fill-rule="evenodd" fill-opacity="1" /><path clip-path="url(#clip300)" d="M128.159 658.199 Q124.548 658.199 122.719 661.763 Q120.913 665.305 120.913 672.435 Q120.913 679.541 122.719 683.106 Q124.548 686.647 128.159 686.647 Q131.793 686.647 133.599 683.106 Q135.427 679.541 135.427 672.435 Q135.427 665.305 133.599 661.763 Q131.793 658.199 128.159 658.199 M128.159 654.495 Q133.969 654.495 137.025 659.101 Q140.103 663.685 140.103 672.435 Q140.103 681.161 137.025 685.768 Q133.969 690.351 128.159 690.351 Q122.349 690.351 119.27 685.768 Q116.214 681.161 116.214 672.435 Q116.214 663.685 119.27 659.101 Q122.349 654.495 128.159 654.495 Z" fill="#000000" fill-rule="evenodd" fill-opacity="1" /><path clip-path="url(#clip300)" d="M148.321 683.8 L153.205 683.8 L153.205 689.68 L148.321 689.68 L148.321 683.8 Z" fill="#000000" fill-rule="evenodd" fill-opacity="1" /><path clip-path="url(#clip300)" d="M176.237 659.194 L164.432 677.643 L176.237 677.643 L176.237 659.194 M175.01 655.12 L180.89 655.12 L180.89 677.643 L185.821 677.643 L185.821 681.532 L180.89 681.532 L180.89 689.68 L176.237 689.68 L176.237 681.532 L160.636 681.532 L160.636 677.018 L175.01 655.12 Z" fill="#000000" fill-rule="evenodd" fill-opacity="1" /><path clip-path="url(#clip300)" d="M129.64 404.705 Q126.029 404.705 124.201 408.269 Q122.395 411.811 122.395 418.941 Q122.395 426.047 124.201 429.612 Q126.029 433.154 129.64 433.154 Q133.275 433.154 135.08 429.612 Q136.909 426.047 136.909 418.941 Q136.909 411.811 135.08 408.269 Q133.275 404.705 129.64 404.705 M129.64 401.001 Q135.45 401.001 138.506 405.607 Q141.585 410.191 141.585 418.941 Q141.585 427.667 138.506 432.274 Q135.45 436.857 129.64 436.857 Q123.83 436.857 120.751 432.274 Q117.696 427.667 117.696 418.941 Q117.696 410.191 120.751 405.607 Q123.83 401.001 129.64 401.001 Z" fill="#000000" fill-rule="evenodd" fill-opacity="1" /><path clip-path="url(#clip300)" d="M149.802 430.306 L154.686 430.306 L154.686 436.186 L149.802 436.186 L149.802 430.306 Z" fill="#000000" fill-rule="evenodd" fill-opacity="1" /><path clip-path="url(#clip300)" d="M164.918 401.626 L183.274 401.626 L183.274 405.561 L169.2 405.561 L169.2 414.033 Q170.219 413.686 171.237 413.524 Q172.256 413.339 173.274 413.339 Q179.061 413.339 182.441 416.51 Q185.821 419.681 185.821 425.098 Q185.821 430.677 182.348 433.779 Q178.876 436.857 172.557 436.857 Q170.381 436.857 168.112 436.487 Q165.867 436.117 163.46 435.376 L163.46 430.677 Q165.543 431.811 167.765 432.367 Q169.987 432.922 172.464 432.922 Q176.469 432.922 178.807 430.816 Q181.145 428.709 181.145 425.098 Q181.145 421.487 178.807 419.381 Q176.469 417.274 172.464 417.274 Q170.589 417.274 168.714 417.691 Q166.862 418.107 164.918 418.987 L164.918 401.626 Z" fill="#000000" fill-rule="evenodd" fill-opacity="1" /><path clip-path="url(#clip300)" d="M128.483 151.211 Q124.872 151.211 123.043 154.776 Q121.238 158.317 121.238 165.447 Q121.238 172.553 123.043 176.118 Q124.872 179.66 128.483 179.66 Q132.117 179.66 133.923 176.118 Q135.751 172.553 135.751 165.447 Q135.751 158.317 133.923 154.776 Q132.117 151.211 128.483 151.211 M128.483 147.507 Q134.293 147.507 137.349 152.114 Q140.427 156.697 140.427 165.447 Q140.427 174.174 137.349 178.78 Q134.293 183.363 128.483 183.363 Q122.673 183.363 119.594 178.78 Q116.539 174.174 116.539 165.447 Q116.539 156.697 119.594 152.114 Q122.673 147.507 128.483 147.507 Z" fill="#000000" fill-rule="evenodd" fill-opacity="1" /><path clip-path="url(#clip300)" d="M148.645 176.813 L153.529 176.813 L153.529 182.692 L148.645 182.692 L148.645 176.813 Z" fill="#000000" fill-rule="evenodd" fill-opacity="1" /><path clip-path="url(#clip300)" d="M174.293 163.549 Q171.145 163.549 169.293 165.701 Q167.464 167.854 167.464 171.604 Q167.464 175.331 169.293 177.507 Q171.145 179.66 174.293 179.66 Q177.441 179.66 179.27 177.507 Q181.122 175.331 181.122 171.604 Q181.122 167.854 179.27 165.701 Q177.441 163.549 174.293 163.549 M183.575 148.896 L183.575 153.155 Q181.816 152.322 180.01 151.882 Q178.228 151.442 176.469 151.442 Q171.839 151.442 169.385 154.567 Q166.955 157.692 166.608 164.012 Q167.973 161.998 170.034 160.933 Q172.094 159.845 174.571 159.845 Q179.779 159.845 182.788 163.016 Q185.821 166.164 185.821 171.604 Q185.821 176.928 182.672 180.146 Q179.524 183.363 174.293 183.363 Q168.297 183.363 165.126 178.78 Q161.955 174.174 161.955 165.447 Q161.955 157.252 165.844 152.391 Q169.733 147.507 176.284 147.507 Q178.043 147.507 179.825 147.854 Q181.631 148.202 183.575 148.896 Z" fill="#000000" fill-rule="evenodd" fill-opacity="1" /><path clip-path="url(#clip300)" d="M27.0408 959.08 L32.579 959.08 Q31.3059 961.563 30.6693 964.236 Q30.0327 966.91 30.0327 969.774 Q30.0327 974.135 31.3695 976.331 Q32.7063 978.495 35.3799 978.495 Q37.4169 978.495 38.5946 976.936 Q39.7404 975.376 40.7908 970.666 L41.2364 968.66 Q42.5732 962.422 45.0239 959.812 Q47.4429 957.17 51.8034 957.17 Q56.7687 957.17 59.6651 961.117 Q62.5615 965.032 62.5615 971.907 Q62.5615 974.772 61.9886 977.891 Q61.4475 980.978 60.3335 984.416 L54.2861 984.416 Q55.973 981.169 56.8323 978.018 Q57.6599 974.867 57.6599 971.78 Q57.6599 967.642 56.2594 965.414 Q54.8271 963.186 52.249 963.186 Q49.8619 963.186 48.5887 964.809 Q47.3156 966.401 46.1379 971.843 L45.6605 973.88 Q44.5147 979.323 42.1594 981.742 Q39.7722 984.161 35.6345 984.161 Q30.6056 984.161 27.8684 980.596 Q25.1311 977.031 25.1311 970.475 Q25.1311 967.228 25.6085 964.364 Q26.086 961.499 27.0408 959.08 Z" fill="#000000" fill-rule="evenodd" fill-opacity="1" /><path clip-path="url(#clip300)" d="M56.2912 942.179 L75.1974 942.179 L75.1974 948.067 L25.9905 948.067 L25.9905 942.179 L31.4013 942.179 Q28.2185 940.333 26.6907 937.532 Q25.1311 934.699 25.1311 930.784 Q25.1311 924.291 30.2873 920.249 Q35.4436 916.175 43.8463 916.175 Q52.249 916.175 57.4052 920.249 Q62.5615 924.291 62.5615 930.784 Q62.5615 934.699 61.0337 937.532 Q59.4741 940.333 56.2912 942.179 M43.8463 922.254 Q37.3851 922.254 33.7248 924.928 Q30.0327 927.57 30.0327 932.217 Q30.0327 936.864 33.7248 939.537 Q37.3851 942.179 43.8463 942.179 Q50.3075 942.179 53.9996 939.537 Q57.6599 936.864 57.6599 932.217 Q57.6599 927.57 53.9996 924.928 Q50.3075 922.254 43.8463 922.254 Z" fill="#000000" fill-rule="evenodd" fill-opacity="1" /><path clip-path="url(#clip300)" d="M42.3504 875.976 L45.2149 875.976 L45.2149 902.903 Q51.2623 902.521 54.4452 899.274 Q57.5962 895.996 57.5962 890.171 Q57.5962 886.797 56.7687 883.646 Q55.9411 880.464 54.2861 877.344 L59.8242 877.344 Q61.161 880.495 61.8612 883.806 Q62.5615 887.116 62.5615 890.521 Q62.5615 899.051 57.5962 904.049 Q52.631 909.014 44.1646 909.014 Q35.4117 909.014 30.2873 904.303 Q25.1311 899.561 25.1311 891.54 Q25.1311 884.347 29.7781 880.177 Q34.3932 875.976 42.3504 875.976 M40.6316 881.832 Q35.8255 881.896 32.9609 884.538 Q30.0964 887.148 30.0964 891.476 Q30.0964 896.378 32.8654 899.338 Q35.6345 902.266 40.6634 902.712 L40.6316 881.832 Z" fill="#000000" fill-rule="evenodd" fill-opacity="1" /><path clip-path="url(#clip300)" d="M42.3504 835.872 L45.2149 835.872 L45.2149 862.799 Q51.2623 862.417 54.4452 859.17 Q57.5962 855.892 57.5962 850.067 Q57.5962 846.694 56.7687 843.542 Q55.9411 840.36 54.2861 837.24 L59.8242 837.24 Q61.161 840.391 61.8612 843.702 Q62.5615 847.012 62.5615 850.417 Q62.5615 858.947 57.5962 863.945 Q52.631 868.91 44.1646 868.91 Q35.4117 868.91 30.2873 864.199 Q25.1311 859.457 25.1311 851.436 Q25.1311 844.243 29.7781 840.073 Q34.3932 835.872 42.3504 835.872 M40.6316 841.728 Q35.8255 841.792 32.9609 844.434 Q30.0964 847.044 30.0964 851.372 Q30.0964 856.274 32.8654 859.234 Q35.6345 862.162 40.6634 862.608 L40.6316 841.728 Z" fill="#000000" fill-rule="evenodd" fill-opacity="1" /><path clip-path="url(#clip300)" d="M31.4013 802.802 L12.1132 802.802 L12.1132 796.946 L61.6384 796.946 L61.6384 802.802 L56.2912 802.802 Q59.4741 804.648 61.0337 807.481 Q62.5615 810.282 62.5615 814.228 Q62.5615 820.69 57.4052 824.764 Q52.249 828.806 43.8463 828.806 Q35.4436 828.806 30.2873 824.764 Q25.1311 820.69 25.1311 814.228 Q25.1311 810.282 26.6907 807.481 Q28.2185 804.648 31.4013 802.802 M43.8463 822.758 Q50.3075 822.758 53.9996 820.117 Q57.6599 817.443 57.6599 812.796 Q57.6599 808.149 53.9996 805.476 Q50.3075 802.802 43.8463 802.802 Q37.3851 802.802 33.7248 805.476 Q30.0327 808.149 30.0327 812.796 Q30.0327 817.443 33.7248 820.117 Q37.3851 822.758 43.8463 822.758 Z" fill="#000000" fill-rule="evenodd" fill-opacity="1" /><polyline clip-path="url(#clip302)" style="stroke:#009af9; stroke-linecap:round; stroke-linejoin:round; stroke-width:4; stroke-opacity:1; fill:none" points="256.014,1686.38 333.724,1089.93 411.433,860.81 504.94,690.315 582.442,614.838 654.485,578.08 724.138,562.755 792.842,562.714 861.542,577.941 931.187,614.558 1003.21,689.813 1080.67,860.022 1150.78,1089.93 1251.8,1686.38 "/>
<circle clip-path="url(#clip302)" cx="256.014" cy="1686.38" r="14.4" fill="#009af9" fill-rule="evenodd" fill-opacity="0.2" stroke="#000000" stroke-opacity="0.2" stroke-width="3.84"/>
<circle clip-path="url(#clip302)" cx="333.724" cy="1089.93" r="14.4" fill="#009af9" fill-rule="evenodd" fill-opacity="0.2" stroke="#000000" stroke-opacity="0.2" stroke-width="3.84"/>
<circle clip-path="url(#clip302)" cx="411.433" cy="860.81" r="14.4" fill="#009af9" fill-rule="evenodd" fill-opacity="0.2" stroke="#000000" stroke-opacity="0.2" stroke-width="3.84"/>
<circle clip-path="url(#clip302)" cx="504.94" cy="690.315" r="14.4" fill="#009af9" fill-rule="evenodd" fill-opacity="0.2" stroke="#000000" stroke-opacity="0.2" stroke-width="3.84"/>
<circle clip-path="url(#clip302)" cx="582.442" cy="614.838" r="14.4" fill="#009af9" fill-rule="evenodd" fill-opacity="0.2" stroke="#000000" stroke-opacity="0.2" stroke-width="3.84"/>
<circle clip-path="url(#clip302)" cx="654.485" cy="578.08" r="14.4" fill="#009af9" fill-rule="evenodd" fill-opacity="0.2" stroke="#000000" stroke-opacity="0.2" stroke-width="3.84"/>
<circle clip-path="url(#clip302)" cx="724.138" cy="562.755" r="14.4" fill="#009af9" fill-rule="evenodd" fill-opacity="0.2" stroke="#000000" stroke-opacity="0.2" stroke-width="3.84"/>
<circle clip-path="url(#clip302)" cx="792.842" cy="562.714" r="14.4" fill="#009af9" fill-rule="evenodd" fill-opacity="0.2" stroke="#000000" stroke-opacity="0.2" stroke-width="3.84"/>
<circle clip-path="url(#clip302)" cx="861.542" cy="577.941" r="14.4" fill="#009af9" fill-rule="evenodd" fill-opacity="0.2" stroke="#000000" stroke-opacity="0.2" stroke-width="3.84"/>
<circle clip-path="url(#clip302)" cx="931.187" cy="614.558" r="14.4" fill="#009af9" fill-rule="evenodd" fill-opacity="0.2" stroke="#000000" stroke-opacity="0.2" stroke-width="3.84"/>
<circle clip-path="url(#clip302)" cx="1003.21" cy="689.813" r="14.4" fill="#009af9" fill-rule="evenodd" fill-opacity="0.2" stroke="#000000" stroke-opacity="0.2" stroke-width="3.84"/>
<circle clip-path="url(#clip302)" cx="1080.67" cy="860.022" r="14.4" fill="#009af9" fill-rule="evenodd" fill-opacity="0.2" stroke="#000000" stroke-opacity="0.2" stroke-width="3.84"/>
<circle clip-path="url(#clip302)" cx="1150.78" cy="1089.93" r="14.4" fill="#009af9" fill-rule="evenodd" fill-opacity="0.2" stroke="#000000" stroke-opacity="0.2" stroke-width="3.84"/>
<circle clip-path="url(#clip302)" cx="1251.8" cy="1686.38" r="14.4" fill="#009af9" fill-rule="evenodd" fill-opacity="0.2" stroke="#000000" stroke-opacity="0.2" stroke-width="3.84"/>
<polyline clip-path="url(#clip302)" style="stroke:#e26f46; stroke-linecap:round; stroke-linejoin:round; stroke-width:4; stroke-opacity:1; fill:none" points="256.014,1686.38 333.724,765.886 411.433,672.4 487.565,672.4 563.698,672.4 639.83,672.4 715.963,672.4 792.095,672.4 868.228,672.4 944.36,672.4 1020.49,672.4 1096.63,672.4 1149.45,765.886 1250.47,1686.38 "/>
<circle clip-path="url(#clip302)" cx="256.014" cy="1686.38" r="14.4" fill="#e26f46" fill-rule="evenodd" fill-opacity="0.2" stroke="#000000" stroke-opacity="0.2" stroke-width="3.84"/>
<circle clip-path="url(#clip302)" cx="333.724" cy="765.886" r="14.4" fill="#e26f46" fill-rule="evenodd" fill-opacity="0.2" stroke="#000000" stroke-opacity="0.2" stroke-width="3.84"/>
<circle clip-path="url(#clip302)" cx="411.433" cy="672.4" r="14.4" fill="#e26f46" fill-rule="evenodd" fill-opacity="0.2" stroke="#000000" stroke-opacity="0.2" stroke-width="3.84"/>
<circle clip-path="url(#clip302)" cx="487.565" cy="672.4" r="14.4" fill="#e26f46" fill-rule="evenodd" fill-opacity="0.2" stroke="#000000" stroke-opacity="0.2" stroke-width="3.84"/>
<circle clip-path="url(#clip302)" cx="563.698" cy="672.4" r="14.4" fill="#e26f46" fill-rule="evenodd" fill-opacity="0.2" stroke="#000000" stroke-opacity="0.2" stroke-width="3.84"/>
<circle clip-path="url(#clip302)" cx="639.83" cy="672.4" r="14.4" fill="#e26f46" fill-rule="evenodd" fill-opacity="0.2" stroke="#000000" stroke-opacity="0.2" stroke-width="3.84"/>
<circle clip-path="url(#clip302)" cx="715.963" cy="672.4" r="14.4" fill="#e26f46" fill-rule="evenodd" fill-opacity="0.2" stroke="#000000" stroke-opacity="0.2" stroke-width="3.84"/>
<circle clip-path="url(#clip302)" cx="792.095" cy="672.4" r="14.4" fill="#e26f46" fill-rule="evenodd" fill-opacity="0.2" stroke="#000000" stroke-opacity="0.2" stroke-width="3.84"/>
<circle clip-path="url(#clip302)" cx="868.228" cy="672.4" r="14.4" fill="#e26f46" fill-rule="evenodd" fill-opacity="0.2" stroke="#000000" stroke-opacity="0.2" stroke-width="3.84"/>
<circle clip-path="url(#clip302)" cx="944.36" cy="672.4" r="14.4" fill="#e26f46" fill-rule="evenodd" fill-opacity="0.2" stroke="#000000" stroke-opacity="0.2" stroke-width="3.84"/>
<circle clip-path="url(#clip302)" cx="1020.49" cy="672.4" r="14.4" fill="#e26f46" fill-rule="evenodd" fill-opacity="0.2" stroke="#000000" stroke-opacity="0.2" stroke-width="3.84"/>
<circle clip-path="url(#clip302)" cx="1096.63" cy="672.4" r="14.4" fill="#e26f46" fill-rule="evenodd" fill-opacity="0.2" stroke="#000000" stroke-opacity="0.2" stroke-width="3.84"/>
<circle clip-path="url(#clip302)" cx="1149.45" cy="765.886" r="14.4" fill="#e26f46" fill-rule="evenodd" fill-opacity="0.2" stroke="#000000" stroke-opacity="0.2" stroke-width="3.84"/>
<circle clip-path="url(#clip302)" cx="1250.47" cy="1686.38" r="14.4" fill="#e26f46" fill-rule="evenodd" fill-opacity="0.2" stroke="#000000" stroke-opacity="0.2" stroke-width="3.84"/>
<polyline clip-path="url(#clip302)" style="stroke:#3da44d; stroke-linecap:round; stroke-linejoin:round; stroke-width:4; stroke-opacity:1; fill:none" points="256.014,1686.38 333.724,1407.53 411.433,1086.04 540.021,719.542 619.866,475.849 683.637,273.107 738.26,94.9858 786.769,99.2074 835.407,285.623 890.517,499.997 955.586,764.431 1039.32,1107.86 1149.45,1407.53 1250.47,1686.38 "/>
<circle clip-path="url(#clip302)" cx="256.014" cy="1686.38" r="14.4" fill="#3da44d" fill-rule="evenodd" fill-opacity="0.2" stroke="#000000" stroke-opacity="0.2" stroke-width="3.84"/>
<circle clip-path="url(#clip302)" cx="333.724" cy="1407.53" r="14.4" fill="#3da44d" fill-rule="evenodd" fill-opacity="0.2" stroke="#000000" stroke-opacity="0.2" stroke-width="3.84"/>
<circle clip-path="url(#clip302)" cx="411.433" cy="1086.04" r="14.4" fill="#3da44d" fill-rule="evenodd" fill-opacity="0.2" stroke="#000000" stroke-opacity="0.2" stroke-width="3.84"/>
<circle clip-path="url(#clip302)" cx="540.021" cy="719.542" r="14.4" fill="#3da44d" fill-rule="evenodd" fill-opacity="0.2" stroke="#000000" stroke-opacity="0.2" stroke-width="3.84"/>
<circle clip-path="url(#clip302)" cx="619.866" cy="475.849" r="14.4" fill="#3da44d" fill-rule="evenodd" fill-opacity="0.2" stroke="#000000" stroke-opacity="0.2" stroke-width="3.84"/>
<circle clip-path="url(#clip302)" cx="683.637" cy="273.107" r="14.4" fill="#3da44d" fill-rule="evenodd" fill-opacity="0.2" stroke="#000000" stroke-opacity="0.2" stroke-width="3.84"/>
<circle clip-path="url(#clip302)" cx="738.26" cy="94.9858" r="14.4" fill="#3da44d" fill-rule="evenodd" fill-opacity="0.2" stroke="#000000" stroke-opacity="0.2" stroke-width="3.84"/>
<circle clip-path="url(#clip302)" cx="786.769" cy="99.2074" r="14.4" fill="#3da44d" fill-rule="evenodd" fill-opacity="0.2" stroke="#000000" stroke-opacity="0.2" stroke-width="3.84"/>
<circle clip-path="url(#clip302)" cx="835.407" cy="285.623" r="14.4" fill="#3da44d" fill-rule="evenodd" fill-opacity="0.2" stroke="#000000" stroke-opacity="0.2" stroke-width="3.84"/>
<circle clip-path="url(#clip302)" cx="890.517" cy="499.997" r="14.4" fill="#3da44d" fill-rule="evenodd" fill-opacity="0.2" stroke="#000000" stroke-opacity="0.2" stroke-width="3.84"/>
<circle clip-path="url(#clip302)" cx="955.586" cy="764.431" r="14.4" fill="#3da44d" fill-rule="evenodd" fill-opacity="0.2" stroke="#000000" stroke-opacity="0.2" stroke-width="3.84"/>
<circle clip-path="url(#clip302)" cx="1039.32" cy="1107.86" r="14.4" fill="#3da44d" fill-rule="evenodd" fill-opacity="0.2" stroke="#000000" stroke-opacity="0.2" stroke-width="3.84"/>
<circle clip-path="url(#clip302)" cx="1149.45" cy="1407.53" r="14.4" fill="#3da44d" fill-rule="evenodd" fill-opacity="0.2" stroke="#000000" stroke-opacity="0.2" stroke-width="3.84"/>
<circle clip-path="url(#clip302)" cx="1250.47" cy="1686.38" r="14.4" fill="#3da44d" fill-rule="evenodd" fill-opacity="0.2" stroke="#000000" stroke-opacity="0.2" stroke-width="3.84"/>
<path clip-path="url(#clip300)" d="M1585.22 1734.12 L2640.76 1734.12 L2640.76 47.2441 L1585.22 47.2441  Z" fill="#ffffff" fill-rule="evenodd" fill-opacity="1"/>
<defs>
  <clipPath id="clip303">
    <rect x="1585" y="47" width="1057" height="1688"/>
  </clipPath>
</defs>
<polyline clip-path="url(#clip303)" style="stroke:#000000; stroke-linecap:round; stroke-linejoin:round; stroke-width:2; stroke-opacity:0.1; fill:none" points="1615.1,1734.12 1615.1,47.2441 "/>
<polyline clip-path="url(#clip303)" style="stroke:#000000; stroke-linecap:round; stroke-linejoin:round; stroke-width:2; stroke-opacity:0.1; fill:none" points="1705.62,1734.12 1705.62,47.2441 "/>
<polyline clip-path="url(#clip303)" style="stroke:#000000; stroke-linecap:round; stroke-linejoin:round; stroke-width:2; stroke-opacity:0.1; fill:none" points="1796.15,1734.12 1796.15,47.2441 "/>
<polyline clip-path="url(#clip303)" style="stroke:#000000; stroke-linecap:round; stroke-linejoin:round; stroke-width:2; stroke-opacity:0.1; fill:none" points="1886.67,1734.12 1886.67,47.2441 "/>
<polyline clip-path="url(#clip303)" style="stroke:#000000; stroke-linecap:round; stroke-linejoin:round; stroke-width:2; stroke-opacity:0.1; fill:none" points="1977.2,1734.12 1977.2,47.2441 "/>
<polyline clip-path="url(#clip303)" style="stroke:#000000; stroke-linecap:round; stroke-linejoin:round; stroke-width:2; stroke-opacity:0.1; fill:none" points="2067.73,1734.12 2067.73,47.2441 "/>
<polyline clip-path="url(#clip303)" style="stroke:#000000; stroke-linecap:round; stroke-linejoin:round; stroke-width:2; stroke-opacity:0.1; fill:none" points="2158.25,1734.12 2158.25,47.2441 "/>
<polyline clip-path="url(#clip303)" style="stroke:#000000; stroke-linecap:round; stroke-linejoin:round; stroke-width:2; stroke-opacity:0.1; fill:none" points="2248.78,1734.12 2248.78,47.2441 "/>
<polyline clip-path="url(#clip303)" style="stroke:#000000; stroke-linecap:round; stroke-linejoin:round; stroke-width:2; stroke-opacity:0.1; fill:none" points="2339.3,1734.12 2339.3,47.2441 "/>
<polyline clip-path="url(#clip303)" style="stroke:#000000; stroke-linecap:round; stroke-linejoin:round; stroke-width:2; stroke-opacity:0.1; fill:none" points="2429.83,1734.12 2429.83,47.2441 "/>
<polyline clip-path="url(#clip303)" style="stroke:#000000; stroke-linecap:round; stroke-linejoin:round; stroke-width:2; stroke-opacity:0.1; fill:none" points="2520.36,1734.12 2520.36,47.2441 "/>
<polyline clip-path="url(#clip303)" style="stroke:#000000; stroke-linecap:round; stroke-linejoin:round; stroke-width:2; stroke-opacity:0.1; fill:none" points="2610.88,1734.12 2610.88,47.2441 "/>
<polyline clip-path="url(#clip300)" style="stroke:#000000; stroke-linecap:round; stroke-linejoin:round; stroke-width:4; stroke-opacity:1; fill:none" points="1585.22,1734.12 2640.76,1734.12 "/>
<polyline clip-path="url(#clip300)" style="stroke:#000000; stroke-linecap:round; stroke-linejoin:round; stroke-width:4; stroke-opacity:1; fill:none" points="1615.1,1734.12 1615.1,1715.22 "/>
<polyline clip-path="url(#clip300)" style="stroke:#000000; stroke-linecap:round; stroke-linejoin:round; stroke-width:4; stroke-opacity:1; fill:none" points="1705.62,1734.12 1705.62,1715.22 "/>
<polyline clip-path="url(#clip300)" style="stroke:#000000; stroke-linecap:round; stroke-linejoin:round; stroke-width:4; stroke-opacity:1; fill:none" points="1796.15,1734.12 1796.15,1715.22 "/>
<polyline clip-path="url(#clip300)" style="stroke:#000000; stroke-linecap:round; stroke-linejoin:round; stroke-width:4; stroke-opacity:1; fill:none" points="1886.67,1734.12 1886.67,1715.22 "/>
<polyline clip-path="url(#clip300)" style="stroke:#000000; stroke-linecap:round; stroke-linejoin:round; stroke-width:4; stroke-opacity:1; fill:none" points="1977.2,1734.12 1977.2,1715.22 "/>
<polyline clip-path="url(#clip300)" style="stroke:#000000; stroke-linecap:round; stroke-linejoin:round; stroke-width:4; stroke-opacity:1; fill:none" points="2067.73,1734.12 2067.73,1715.22 "/>
<polyline clip-path="url(#clip300)" style="stroke:#000000; stroke-linecap:round; stroke-linejoin:round; stroke-width:4; stroke-opacity:1; fill:none" points="2158.25,1734.12 2158.25,1715.22 "/>
<polyline clip-path="url(#clip300)" style="stroke:#000000; stroke-linecap:round; stroke-linejoin:round; stroke-width:4; stroke-opacity:1; fill:none" points="2248.78,1734.12 2248.78,1715.22 "/>
<polyline clip-path="url(#clip300)" style="stroke:#000000; stroke-linecap:round; stroke-linejoin:round; stroke-width:4; stroke-opacity:1; fill:none" points="2339.3,1734.12 2339.3,1715.22 "/>
<polyline clip-path="url(#clip300)" style="stroke:#000000; stroke-linecap:round; stroke-linejoin:round; stroke-width:4; stroke-opacity:1; fill:none" points="2429.83,1734.12 2429.83,1715.22 "/>
<polyline clip-path="url(#clip300)" style="stroke:#000000; stroke-linecap:round; stroke-linejoin:round; stroke-width:4; stroke-opacity:1; fill:none" points="2520.36,1734.12 2520.36,1715.22 "/>
<polyline clip-path="url(#clip300)" style="stroke:#000000; stroke-linecap:round; stroke-linejoin:round; stroke-width:4; stroke-opacity:1; fill:none" points="2610.88,1734.12 2610.88,1715.22 "/>
<path clip-path="url(#clip300)" d="M1615.1 1767.34 Q1611.48 1767.34 1609.66 1770.9 Q1607.85 1774.45 1607.85 1781.58 Q1607.85 1788.68 1609.66 1792.25 Q1611.48 1795.79 1615.1 1795.79 Q1618.73 1795.79 1620.53 1792.25 Q1622.36 1788.68 1622.36 1781.58 Q1622.36 1774.45 1620.53 1770.9 Q1618.73 1767.34 1615.1 1767.34 M1615.1 1763.64 Q1620.91 1763.64 1623.96 1768.24 Q1627.04 1772.83 1627.04 1781.58 Q1627.04 1790.3 1623.96 1794.91 Q1620.91 1799.49 1615.1 1799.49 Q1609.28 1799.49 1606.21 1794.91 Q1603.15 1790.3 1603.15 1781.58 Q1603.15 1772.83 1606.21 1768.24 Q1609.28 1763.64 1615.1 1763.64 Z" fill="#000000" fill-rule="evenodd" fill-opacity="1" /><path clip-path="url(#clip300)" d="M1696 1794.89 L1703.64 1794.89 L1703.64 1768.52 L1695.33 1770.19 L1695.33 1765.93 L1703.6 1764.26 L1708.27 1764.26 L1708.27 1794.89 L1715.91 1794.89 L1715.91 1798.82 L1696 1798.82 L1696 1794.89 Z" fill="#000000" fill-rule="evenodd" fill-opacity="1" /><path clip-path="url(#clip300)" d="M1790.8 1794.89 L1807.12 1794.89 L1807.12 1798.82 L1785.18 1798.82 L1785.18 1794.89 Q1787.84 1792.13 1792.42 1787.5 Q1797.03 1782.85 1798.21 1781.51 Q1800.45 1778.98 1801.33 1777.25 Q1802.24 1775.49 1802.24 1773.8 Q1802.24 1771.04 1800.29 1769.31 Q1798.37 1767.57 1795.27 1767.57 Q1793.07 1767.57 1790.61 1768.34 Q1788.18 1769.1 1785.41 1770.65 L1785.41 1765.93 Q1788.23 1764.79 1790.68 1764.21 Q1793.14 1763.64 1795.18 1763.64 Q1800.55 1763.64 1803.74 1766.32 Q1806.93 1769.01 1806.93 1773.5 Q1806.93 1775.63 1806.12 1777.55 Q1805.34 1779.45 1803.23 1782.04 Q1802.65 1782.71 1799.55 1785.93 Q1796.45 1789.12 1790.8 1794.89 Z" fill="#000000" fill-rule="evenodd" fill-opacity="1" /><path clip-path="url(#clip300)" d="M1890.92 1780.19 Q1894.28 1780.9 1896.15 1783.17 Q1898.05 1785.44 1898.05 1788.77 Q1898.05 1793.89 1894.53 1796.69 Q1891.01 1799.49 1884.53 1799.49 Q1882.36 1799.49 1880.04 1799.05 Q1877.75 1798.64 1875.3 1797.78 L1875.3 1793.27 Q1877.24 1794.4 1879.56 1794.98 Q1881.87 1795.56 1884.39 1795.56 Q1888.79 1795.56 1891.08 1793.82 Q1893.4 1792.08 1893.4 1788.77 Q1893.4 1785.72 1891.25 1784.01 Q1889.12 1782.27 1885.3 1782.27 L1881.27 1782.27 L1881.27 1778.43 L1885.48 1778.43 Q1888.93 1778.43 1890.76 1777.06 Q1892.59 1775.67 1892.59 1773.08 Q1892.59 1770.42 1890.69 1769.01 Q1888.81 1767.57 1885.3 1767.57 Q1883.37 1767.57 1881.18 1767.99 Q1878.98 1768.4 1876.34 1769.28 L1876.34 1765.12 Q1879 1764.38 1881.31 1764.01 Q1883.65 1763.64 1885.71 1763.64 Q1891.04 1763.64 1894.14 1766.07 Q1897.24 1768.47 1897.24 1772.59 Q1897.24 1775.46 1895.6 1777.46 Q1893.95 1779.42 1890.92 1780.19 Z" fill="#000000" fill-rule="evenodd" fill-opacity="1" /><path clip-path="url(#clip300)" d="M1980.21 1768.34 L1968.4 1786.78 L1980.21 1786.78 L1980.21 1768.34 M1978.98 1764.26 L1984.86 1764.26 L1984.86 1786.78 L1989.79 1786.78 L1989.79 1790.67 L1984.86 1790.67 L1984.86 1798.82 L1980.21 1798.82 L1980.21 1790.67 L1964.61 1790.67 L1964.61 1786.16 L1978.98 1764.26 Z" fill="#000000" fill-rule="evenodd" fill-opacity="1" /><path clip-path="url(#clip300)" d="M2058 1764.26 L2076.36 1764.26 L2076.36 1768.2 L2062.29 1768.2 L2062.29 1776.67 Q2063.3 1776.32 2064.32 1776.16 Q2065.34 1775.97 2066.36 1775.97 Q2072.15 1775.97 2075.53 1779.15 Q2078.91 1782.32 2078.91 1787.73 Q2078.91 1793.31 2075.43 1796.41 Q2071.96 1799.49 2065.64 1799.49 Q2063.47 1799.49 2061.2 1799.12 Q2058.95 1798.75 2056.55 1798.01 L2056.55 1793.31 Q2058.63 1794.45 2060.85 1795 Q2063.07 1795.56 2065.55 1795.56 Q2069.55 1795.56 2071.89 1793.45 Q2074.23 1791.34 2074.23 1787.73 Q2074.23 1784.12 2071.89 1782.02 Q2069.55 1779.91 2065.55 1779.91 Q2063.67 1779.91 2061.8 1780.33 Q2059.95 1780.74 2058 1781.62 L2058 1764.26 Z" fill="#000000" fill-rule="evenodd" fill-opacity="1" /><path clip-path="url(#clip300)" d="M2158.66 1779.68 Q2155.51 1779.68 2153.66 1781.83 Q2151.83 1783.98 2151.83 1787.73 Q2151.83 1791.46 2153.66 1793.64 Q2155.51 1795.79 2158.66 1795.79 Q2161.8 1795.79 2163.63 1793.64 Q2165.49 1791.46 2165.49 1787.73 Q2165.49 1783.98 2163.63 1781.83 Q2161.8 1779.68 2158.66 1779.68 M2167.94 1765.02 L2167.94 1769.28 Q2166.18 1768.45 2164.37 1768.01 Q2162.59 1767.57 2160.83 1767.57 Q2156.2 1767.57 2153.75 1770.7 Q2151.32 1773.82 2150.97 1780.14 Q2152.34 1778.13 2154.4 1777.06 Q2156.46 1775.97 2158.93 1775.97 Q2164.14 1775.97 2167.15 1779.15 Q2170.18 1782.29 2170.18 1787.73 Q2170.18 1793.06 2167.04 1796.27 Q2163.89 1799.49 2158.66 1799.49 Q2152.66 1799.49 2149.49 1794.91 Q2146.32 1790.3 2146.32 1781.58 Q2146.32 1773.38 2150.21 1768.52 Q2154.1 1763.64 2160.65 1763.64 Q2162.41 1763.64 2164.19 1763.98 Q2165.99 1764.33 2167.94 1765.02 Z" fill="#000000" fill-rule="evenodd" fill-opacity="1" /><path clip-path="url(#clip300)" d="M2237.67 1764.26 L2259.89 1764.26 L2259.89 1766.25 L2247.34 1798.82 L2242.46 1798.82 L2254.26 1768.2 L2237.67 1768.2 L2237.67 1764.26 Z" fill="#000000" fill-rule="evenodd" fill-opacity="1" /><path clip-path="url(#clip300)" d="M2339.3 1782.41 Q2335.97 1782.41 2334.05 1784.19 Q2332.15 1785.97 2332.15 1789.1 Q2332.15 1792.22 2334.05 1794.01 Q2335.97 1795.79 2339.3 1795.79 Q2342.64 1795.79 2344.56 1794.01 Q2346.48 1792.2 2346.48 1789.1 Q2346.48 1785.97 2344.56 1784.19 Q2342.66 1782.41 2339.3 1782.41 M2334.63 1780.42 Q2331.62 1779.68 2329.93 1777.62 Q2328.26 1775.56 2328.26 1772.59 Q2328.26 1768.45 2331.2 1766.04 Q2334.17 1763.64 2339.3 1763.64 Q2344.47 1763.64 2347.41 1766.04 Q2350.35 1768.45 2350.35 1772.59 Q2350.35 1775.56 2348.66 1777.62 Q2346.99 1779.68 2344 1780.42 Q2347.38 1781.21 2349.26 1783.5 Q2351.16 1785.79 2351.16 1789.1 Q2351.16 1794.12 2348.08 1796.81 Q2345.02 1799.49 2339.3 1799.49 Q2333.59 1799.49 2330.51 1796.81 Q2327.45 1794.12 2327.45 1789.1 Q2327.45 1785.79 2329.35 1783.5 Q2331.25 1781.21 2334.63 1780.42 M2332.92 1773.03 Q2332.92 1775.72 2334.58 1777.22 Q2336.27 1778.73 2339.3 1778.73 Q2342.31 1778.73 2344 1777.22 Q2345.72 1775.72 2345.72 1773.03 Q2345.72 1770.35 2344 1768.84 Q2342.31 1767.34 2339.3 1767.34 Q2336.27 1767.34 2334.58 1768.84 Q2332.92 1770.35 2332.92 1773.03 Z" fill="#000000" fill-rule="evenodd" fill-opacity="1" /><path clip-path="url(#clip300)" d="M2420.13 1798.1 L2420.13 1793.84 Q2421.89 1794.68 2423.7 1795.12 Q2425.5 1795.56 2427.24 1795.56 Q2431.87 1795.56 2434.3 1792.46 Q2436.75 1789.33 2437.1 1782.99 Q2435.76 1784.98 2433.7 1786.04 Q2431.64 1787.11 2429.14 1787.11 Q2423.95 1787.11 2420.92 1783.98 Q2417.91 1780.83 2417.91 1775.4 Q2417.91 1770.07 2421.06 1766.85 Q2424.21 1763.64 2429.44 1763.64 Q2435.43 1763.64 2438.58 1768.24 Q2441.75 1772.83 2441.75 1781.58 Q2441.75 1789.75 2437.86 1794.63 Q2434 1799.49 2427.45 1799.49 Q2425.69 1799.49 2423.88 1799.15 Q2422.08 1798.8 2420.13 1798.1 M2429.44 1783.45 Q2432.58 1783.45 2434.41 1781.3 Q2436.27 1779.15 2436.27 1775.4 Q2436.27 1771.67 2434.41 1769.52 Q2432.58 1767.34 2429.44 1767.34 Q2426.29 1767.34 2424.44 1769.52 Q2422.61 1771.67 2422.61 1775.4 Q2422.61 1779.15 2424.44 1781.3 Q2426.29 1783.45 2429.44 1783.45 Z" fill="#000000" fill-rule="evenodd" fill-opacity="1" /><path clip-path="url(#clip300)" d="M2495.04 1794.89 L2502.68 1794.89 L2502.68 1768.52 L2494.37 1770.19 L2494.37 1765.93 L2502.64 1764.26 L2507.31 1764.26 L2507.31 1794.89 L2514.95 1794.89 L2514.95 1798.82 L2495.04 1798.82 L2495.04 1794.89 Z" fill="#000000" fill-rule="evenodd" fill-opacity="1" /><path clip-path="url(#clip300)" d="M2534.4 1767.34 Q2530.78 1767.34 2528.96 1770.9 Q2527.15 1774.45 2527.15 1781.58 Q2527.15 1788.68 2528.96 1792.25 Q2530.78 1795.79 2534.4 1795.79 Q2538.03 1795.79 2539.84 1792.25 Q2541.66 1788.68 2541.66 1781.58 Q2541.66 1774.45 2539.84 1770.9 Q2538.03 1767.34 2534.4 1767.34 M2534.4 1763.64 Q2540.21 1763.64 2543.26 1768.24 Q2546.34 1772.83 2546.34 1781.58 Q2546.34 1790.3 2543.26 1794.91 Q2540.21 1799.49 2534.4 1799.49 Q2528.59 1799.49 2525.51 1794.91 Q2522.45 1790.3 2522.45 1781.58 Q2522.45 1772.83 2525.51 1768.24 Q2528.59 1763.64 2534.4 1763.64 Z" fill="#000000" fill-rule="evenodd" fill-opacity="1" /><path clip-path="url(#clip300)" d="M2586.18 1794.89 L2593.82 1794.89 L2593.82 1768.52 L2585.51 1770.19 L2585.51 1765.93 L2593.78 1764.26 L2598.45 1764.26 L2598.45 1794.89 L2606.09 1794.89 L2606.09 1798.82 L2586.18 1798.82 L2586.18 1794.89 Z" fill="#000000" fill-rule="evenodd" fill-opacity="1" /><path clip-path="url(#clip300)" d="M2616.35 1794.89 L2623.98 1794.89 L2623.98 1768.52 L2615.67 1770.19 L2615.67 1765.93 L2623.94 1764.26 L2628.61 1764.26 L2628.61 1794.89 L2636.25 1794.89 L2636.25 1798.82 L2616.35 1798.82 L2616.35 1794.89 Z" fill="#000000" fill-rule="evenodd" fill-opacity="1" /><path clip-path="url(#clip300)" d="M2071.37 1848.7 L2071.37 1854.24 Q2068.89 1852.97 2066.22 1852.33 Q2063.54 1851.7 2060.68 1851.7 Q2056.32 1851.7 2054.12 1853.03 Q2051.96 1854.37 2051.96 1857.04 Q2051.96 1859.08 2053.52 1860.26 Q2055.08 1861.4 2059.79 1862.45 L2061.79 1862.9 Q2068.03 1864.24 2070.64 1866.69 Q2073.28 1869.11 2073.28 1873.47 Q2073.28 1878.43 2069.34 1881.33 Q2065.42 1884.22 2058.55 1884.22 Q2055.68 1884.22 2052.56 1883.65 Q2049.47 1883.11 2046.04 1882 L2046.04 1875.95 Q2049.28 1877.64 2052.43 1878.49 Q2055.59 1879.32 2058.67 1879.32 Q2062.81 1879.32 2065.04 1877.92 Q2067.27 1876.49 2067.27 1873.91 Q2067.27 1871.52 2065.64 1870.25 Q2064.05 1868.98 2058.61 1867.8 L2056.57 1867.32 Q2051.13 1866.18 2048.71 1863.82 Q2046.29 1861.43 2046.29 1857.3 Q2046.29 1852.27 2049.86 1849.53 Q2053.42 1846.79 2059.98 1846.79 Q2063.22 1846.79 2066.09 1847.27 Q2068.95 1847.75 2071.37 1848.7 Z" fill="#000000" fill-rule="evenodd" fill-opacity="1" /><path clip-path="url(#clip300)" d="M2088.4 1837.53 L2088.4 1847.65 L2100.46 1847.65 L2100.46 1852.2 L2088.4 1852.2 L2088.4 1871.56 Q2088.4 1875.92 2089.58 1877.16 Q2090.79 1878.4 2094.45 1878.4 L2100.46 1878.4 L2100.46 1883.3 L2094.45 1883.3 Q2087.67 1883.3 2085.09 1880.79 Q2082.51 1878.24 2082.51 1871.56 L2082.51 1852.2 L2078.22 1852.2 L2078.22 1847.65 L2082.51 1847.65 L2082.51 1837.53 L2088.4 1837.53 Z" fill="#000000" fill-rule="evenodd" fill-opacity="1" /><path clip-path="url(#clip300)" d="M2138.66 1864.01 L2138.66 1866.88 L2111.73 1866.88 Q2112.11 1872.92 2115.36 1876.11 Q2118.64 1879.26 2124.46 1879.26 Q2127.84 1879.26 2130.99 1878.43 Q2134.17 1877.6 2137.29 1875.95 L2137.29 1881.49 Q2134.14 1882.82 2130.83 1883.52 Q2127.52 1884.22 2124.11 1884.22 Q2115.58 1884.22 2110.59 1879.26 Q2105.62 1874.29 2105.62 1865.83 Q2105.62 1857.07 2110.33 1851.95 Q2115.07 1846.79 2123.09 1846.79 Q2130.29 1846.79 2134.46 1851.44 Q2138.66 1856.06 2138.66 1864.01 M2132.8 1862.29 Q2132.74 1857.49 2130.1 1854.62 Q2127.49 1851.76 2123.16 1851.76 Q2118.26 1851.76 2115.3 1854.53 Q2112.37 1857.3 2111.92 1862.33 L2132.8 1862.29 Z" fill="#000000" fill-rule="evenodd" fill-opacity="1" /><path clip-path="url(#clip300)" d="M2153.94 1877.95 L2153.94 1896.86 L2148.05 1896.86 L2148.05 1847.65 L2153.94 1847.65 L2153.94 1853.06 Q2155.78 1849.88 2158.58 1848.35 Q2161.42 1846.79 2165.33 1846.79 Q2171.82 1846.79 2175.87 1851.95 Q2179.94 1857.11 2179.94 1865.51 Q2179.94 1873.91 2175.87 1879.07 Q2171.82 1884.22 2165.33 1884.22 Q2161.42 1884.22 2158.58 1882.7 Q2155.78 1881.14 2153.94 1877.95 M2173.86 1865.51 Q2173.86 1859.05 2171.19 1855.39 Q2168.55 1851.7 2163.9 1851.7 Q2159.25 1851.7 2156.58 1855.39 Q2153.94 1859.05 2153.94 1865.51 Q2153.94 1871.97 2156.58 1875.66 Q2159.25 1879.32 2163.9 1879.32 Q2168.55 1879.32 2171.19 1875.66 Q2173.86 1871.97 2173.86 1865.51 Z" fill="#000000" fill-rule="evenodd" fill-opacity="1" /><polyline clip-path="url(#clip303)" style="stroke:#000000; stroke-linecap:round; stroke-linejoin:round; stroke-width:2; stroke-opacity:0.1; fill:none" points="1585.22,1710.45 2640.76,1710.45 "/>
<polyline clip-path="url(#clip303)" style="stroke:#000000; stroke-linecap:round; stroke-linejoin:round; stroke-width:2; stroke-opacity:0.1; fill:none" points="1585.22,1465.42 2640.76,1465.42 "/>
<polyline clip-path="url(#clip303)" style="stroke:#000000; stroke-linecap:round; stroke-linejoin:round; stroke-width:2; stroke-opacity:0.1; fill:none" points="1585.22,1220.39 2640.76,1220.39 "/>
<polyline clip-path="url(#clip303)" style="stroke:#000000; stroke-linecap:round; stroke-linejoin:round; stroke-width:2; stroke-opacity:0.1; fill:none" points="1585.22,975.353 2640.76,975.353 "/>
<polyline clip-path="url(#clip303)" style="stroke:#000000; stroke-linecap:round; stroke-linejoin:round; stroke-width:2; stroke-opacity:0.1; fill:none" points="1585.22,730.319 2640.76,730.319 "/>
<polyline clip-path="url(#clip303)" style="stroke:#000000; stroke-linecap:round; stroke-linejoin:round; stroke-width:2; stroke-opacity:0.1; fill:none" points="1585.22,485.285 2640.76,485.285 "/>
<polyline clip-path="url(#clip303)" style="stroke:#000000; stroke-linecap:round; stroke-linejoin:round; stroke-width:2; stroke-opacity:0.1; fill:none" points="1585.22,240.251 2640.76,240.251 "/>
<polyline clip-path="url(#clip300)" style="stroke:#000000; stroke-linecap:round; stroke-linejoin:round; stroke-width:4; stroke-opacity:1; fill:none" points="1585.22,1734.12 1585.22,47.2441 "/>
<polyline clip-path="url(#clip300)" style="stroke:#000000; stroke-linecap:round; stroke-linejoin:round; stroke-width:4; stroke-opacity:1; fill:none" points="1585.22,1710.45 1604.12,1710.45 "/>
<polyline clip-path="url(#clip300)" style="stroke:#000000; stroke-linecap:round; stroke-linejoin:round; stroke-width:4; stroke-opacity:1; fill:none" points="1585.22,1465.42 1604.12,1465.42 "/>
<polyline clip-path="url(#clip300)" style="stroke:#000000; stroke-linecap:round; stroke-linejoin:round; stroke-width:4; stroke-opacity:1; fill:none" points="1585.22,1220.39 1604.12,1220.39 "/>
<polyline clip-path="url(#clip300)" style="stroke:#000000; stroke-linecap:round; stroke-linejoin:round; stroke-width:4; stroke-opacity:1; fill:none" points="1585.22,975.353 1604.12,975.353 "/>
<polyline clip-path="url(#clip300)" style="stroke:#000000; stroke-linecap:round; stroke-linejoin:round; stroke-width:4; stroke-opacity:1; fill:none" points="1585.22,730.319 1604.12,730.319 "/>
<polyline clip-path="url(#clip300)" style="stroke:#000000; stroke-linecap:round; stroke-linejoin:round; stroke-width:4; stroke-opacity:1; fill:none" points="1585.22,485.285 1604.12,485.285 "/>
<polyline clip-path="url(#clip300)" style="stroke:#000000; stroke-linecap:round; stroke-linejoin:round; stroke-width:4; stroke-opacity:1; fill:none" points="1585.22,240.251 1604.12,240.251 "/>
<path clip-path="url(#clip300)" d="M1457.56 1696.25 Q1453.95 1696.25 1452.12 1699.82 Q1450.32 1703.36 1450.32 1710.49 Q1450.32 1717.6 1452.12 1721.16 Q1453.95 1724.7 1457.56 1724.7 Q1461.2 1724.7 1463 1721.16 Q1464.83 1717.6 1464.83 1710.49 Q1464.83 1703.36 1463 1699.82 Q1461.2 1696.25 1457.56 1696.25 M1457.56 1692.55 Q1463.37 1692.55 1466.43 1697.16 Q1469.51 1701.74 1469.51 1710.49 Q1469.51 1719.22 1466.43 1723.82 Q1463.37 1728.41 1457.56 1728.41 Q1451.75 1728.41 1448.68 1723.82 Q1445.62 1719.22 1445.62 1710.49 Q1445.62 1701.74 1448.68 1697.16 Q1451.75 1692.55 1457.56 1692.55 Z" fill="#000000" fill-rule="evenodd" fill-opacity="1" /><path clip-path="url(#clip300)" d="M1477.73 1721.85 L1482.61 1721.85 L1482.61 1727.73 L1477.73 1727.73 L1477.73 1721.85 Z" fill="#000000" fill-rule="evenodd" fill-opacity="1" /><path clip-path="url(#clip300)" d="M1502.8 1696.25 Q1499.18 1696.25 1497.36 1699.82 Q1495.55 1703.36 1495.55 1710.49 Q1495.55 1717.6 1497.36 1721.16 Q1499.18 1724.7 1502.8 1724.7 Q1506.43 1724.7 1508.24 1721.16 Q1510.06 1717.6 1510.06 1710.49 Q1510.06 1703.36 1508.24 1699.82 Q1506.43 1696.25 1502.8 1696.25 M1502.8 1692.55 Q1508.61 1692.55 1511.66 1697.16 Q1514.74 1701.74 1514.74 1710.49 Q1514.74 1719.22 1511.66 1723.82 Q1508.61 1728.41 1502.8 1728.41 Q1496.99 1728.41 1493.91 1723.82 Q1490.85 1719.22 1490.85 1710.49 Q1490.85 1701.74 1493.91 1697.16 Q1496.99 1692.55 1502.8 1692.55 Z" fill="#000000" fill-rule="evenodd" fill-opacity="1" /><path clip-path="url(#clip300)" d="M1532.96 1696.25 Q1529.35 1696.25 1527.52 1699.82 Q1525.71 1703.36 1525.71 1710.49 Q1525.71 1717.6 1527.52 1721.16 Q1529.35 1724.7 1532.96 1724.7 Q1536.59 1724.7 1538.4 1721.16 Q1540.23 1717.6 1540.23 1710.49 Q1540.23 1703.36 1538.4 1699.82 Q1536.59 1696.25 1532.96 1696.25 M1532.96 1692.55 Q1538.77 1692.55 1541.82 1697.16 Q1544.9 1701.74 1544.9 1710.49 Q1544.9 1719.22 1541.82 1723.82 Q1538.77 1728.41 1532.96 1728.41 Q1527.15 1728.41 1524.07 1723.82 Q1521.01 1719.22 1521.01 1710.49 Q1521.01 1701.74 1524.07 1697.16 Q1527.15 1692.55 1532.96 1692.55 Z" fill="#000000" fill-rule="evenodd" fill-opacity="1" /><path clip-path="url(#clip300)" d="M1458.79 1451.22 Q1455.18 1451.22 1453.35 1454.78 Q1451.55 1458.33 1451.55 1465.45 Q1451.55 1472.56 1453.35 1476.13 Q1455.18 1479.67 1458.79 1479.67 Q1462.43 1479.67 1464.23 1476.13 Q1466.06 1472.56 1466.06 1465.45 Q1466.06 1458.33 1464.23 1454.78 Q1462.43 1451.22 1458.79 1451.22 M1458.79 1447.52 Q1464.6 1447.52 1467.66 1452.12 Q1470.74 1456.71 1470.74 1465.45 Q1470.74 1474.18 1467.66 1478.79 Q1464.6 1483.37 1458.79 1483.37 Q1452.98 1483.37 1449.9 1478.79 Q1446.85 1474.18 1446.85 1465.45 Q1446.85 1456.71 1449.9 1452.12 Q1452.98 1447.52 1458.79 1447.52 Z" fill="#000000" fill-rule="evenodd" fill-opacity="1" /><path clip-path="url(#clip300)" d="M1478.95 1476.82 L1483.84 1476.82 L1483.84 1482.7 L1478.95 1482.7 L1478.95 1476.82 Z" fill="#000000" fill-rule="evenodd" fill-opacity="1" /><path clip-path="url(#clip300)" d="M1504.02 1451.22 Q1500.41 1451.22 1498.58 1454.78 Q1496.78 1458.33 1496.78 1465.45 Q1496.78 1472.56 1498.58 1476.13 Q1500.41 1479.67 1504.02 1479.67 Q1507.66 1479.67 1509.46 1476.13 Q1511.29 1472.56 1511.29 1465.45 Q1511.29 1458.33 1509.46 1454.78 Q1507.66 1451.22 1504.02 1451.22 M1504.02 1447.52 Q1509.83 1447.52 1512.89 1452.12 Q1515.97 1456.71 1515.97 1465.45 Q1515.97 1474.18 1512.89 1478.79 Q1509.83 1483.37 1504.02 1483.37 Q1498.21 1483.37 1495.13 1478.79 Q1492.08 1474.18 1492.08 1465.45 Q1492.08 1456.71 1495.13 1452.12 Q1498.21 1447.52 1504.02 1447.52 Z" fill="#000000" fill-rule="evenodd" fill-opacity="1" /><path clip-path="url(#clip300)" d="M1524.99 1478.77 L1532.63 1478.77 L1532.63 1452.4 L1524.32 1454.07 L1524.32 1449.81 L1532.59 1448.14 L1537.26 1448.14 L1537.26 1478.77 L1544.9 1478.77 L1544.9 1482.7 L1524.99 1482.7 L1524.99 1478.77 Z" fill="#000000" fill-rule="evenodd" fill-opacity="1" /><path clip-path="url(#clip300)" d="M1459.16 1206.19 Q1455.55 1206.19 1453.72 1209.75 Q1451.92 1213.29 1451.92 1220.42 Q1451.92 1227.53 1453.72 1231.09 Q1455.55 1234.63 1459.16 1234.63 Q1462.8 1234.63 1464.6 1231.09 Q1466.43 1227.53 1466.43 1220.42 Q1466.43 1213.29 1464.6 1209.75 Q1462.8 1206.19 1459.16 1206.19 M1459.16 1202.48 Q1464.97 1202.48 1468.03 1207.09 Q1471.11 1211.67 1471.11 1220.42 Q1471.11 1229.15 1468.03 1233.75 Q1464.97 1238.34 1459.16 1238.34 Q1453.35 1238.34 1450.27 1233.75 Q1447.22 1229.15 1447.22 1220.42 Q1447.22 1211.67 1450.27 1207.09 Q1453.35 1202.48 1459.16 1202.48 Z" fill="#000000" fill-rule="evenodd" fill-opacity="1" /><path clip-path="url(#clip300)" d="M1479.32 1231.79 L1484.21 1231.79 L1484.21 1237.67 L1479.32 1237.67 L1479.32 1231.79 Z" fill="#000000" fill-rule="evenodd" fill-opacity="1" /><path clip-path="url(#clip300)" d="M1504.39 1206.19 Q1500.78 1206.19 1498.95 1209.75 Q1497.15 1213.29 1497.15 1220.42 Q1497.15 1227.53 1498.95 1231.09 Q1500.78 1234.63 1504.39 1234.63 Q1508.03 1234.63 1509.83 1231.09 Q1511.66 1227.53 1511.66 1220.42 Q1511.66 1213.29 1509.83 1209.75 Q1508.03 1206.19 1504.39 1206.19 M1504.39 1202.48 Q1510.2 1202.48 1513.26 1207.09 Q1516.34 1211.67 1516.34 1220.42 Q1516.34 1229.15 1513.26 1233.75 Q1510.2 1238.34 1504.39 1238.34 Q1498.58 1238.34 1495.5 1233.75 Q1492.45 1229.15 1492.45 1220.42 Q1492.45 1211.67 1495.5 1207.09 Q1498.58 1202.48 1504.39 1202.48 Z" fill="#000000" fill-rule="evenodd" fill-opacity="1" /><path clip-path="url(#clip300)" d="M1528.58 1233.73 L1544.9 1233.73 L1544.9 1237.67 L1522.96 1237.67 L1522.96 1233.73 Q1525.62 1230.98 1530.2 1226.35 Q1534.81 1221.69 1535.99 1220.35 Q1538.23 1217.83 1539.11 1216.09 Q1540.02 1214.33 1540.02 1212.64 Q1540.02 1209.89 1538.07 1208.15 Q1536.15 1206.42 1533.05 1206.42 Q1530.85 1206.42 1528.4 1207.18 Q1525.97 1207.94 1523.19 1209.5 L1523.19 1204.77 Q1526.01 1203.64 1528.47 1203.06 Q1530.92 1202.48 1532.96 1202.48 Q1538.33 1202.48 1541.52 1205.17 Q1544.72 1207.85 1544.72 1212.34 Q1544.72 1214.47 1543.91 1216.39 Q1543.12 1218.29 1541.01 1220.88 Q1540.43 1221.56 1537.33 1224.77 Q1534.23 1227.97 1528.58 1233.73 Z" fill="#000000" fill-rule="evenodd" fill-opacity="1" /><path clip-path="url(#clip300)" d="M1458.21 961.151 Q1454.6 961.151 1452.77 964.716 Q1450.97 968.258 1450.97 975.387 Q1450.97 982.494 1452.77 986.059 Q1454.6 989.6 1458.21 989.6 Q1461.85 989.6 1463.65 986.059 Q1465.48 982.494 1465.48 975.387 Q1465.48 968.258 1463.65 964.716 Q1461.85 961.151 1458.21 961.151 M1458.21 957.448 Q1464.02 957.448 1467.08 962.054 Q1470.16 966.637 1470.16 975.387 Q1470.16 984.114 1467.08 988.721 Q1464.02 993.304 1458.21 993.304 Q1452.4 993.304 1449.32 988.721 Q1446.27 984.114 1446.27 975.387 Q1446.27 966.637 1449.32 962.054 Q1452.4 957.448 1458.21 957.448 Z" fill="#000000" fill-rule="evenodd" fill-opacity="1" /><path clip-path="url(#clip300)" d="M1478.37 986.753 L1483.26 986.753 L1483.26 992.633 L1478.37 992.633 L1478.37 986.753 Z" fill="#000000" fill-rule="evenodd" fill-opacity="1" /><path clip-path="url(#clip300)" d="M1503.44 961.151 Q1499.83 961.151 1498 964.716 Q1496.2 968.258 1496.2 975.387 Q1496.2 982.494 1498 986.059 Q1499.83 989.6 1503.44 989.6 Q1507.08 989.6 1508.88 986.059 Q1510.71 982.494 1510.71 975.387 Q1510.71 968.258 1508.88 964.716 Q1507.08 961.151 1503.44 961.151 M1503.44 957.448 Q1509.25 957.448 1512.31 962.054 Q1515.39 966.637 1515.39 975.387 Q1515.39 984.114 1512.31 988.721 Q1509.25 993.304 1503.44 993.304 Q1497.63 993.304 1494.55 988.721 Q1491.5 984.114 1491.5 975.387 Q1491.5 966.637 1494.55 962.054 Q1497.63 957.448 1503.44 957.448 Z" fill="#000000" fill-rule="evenodd" fill-opacity="1" /><path clip-path="url(#clip300)" d="M1537.77 973.999 Q1541.13 974.716 1543 976.985 Q1544.9 979.253 1544.9 982.586 Q1544.9 987.702 1541.38 990.503 Q1537.86 993.304 1531.38 993.304 Q1529.21 993.304 1526.89 992.864 Q1524.6 992.448 1522.15 991.591 L1522.15 987.077 Q1524.09 988.211 1526.41 988.79 Q1528.72 989.369 1531.24 989.369 Q1535.64 989.369 1537.93 987.633 Q1540.25 985.897 1540.25 982.586 Q1540.25 979.531 1538.1 977.818 Q1535.97 976.082 1532.15 976.082 L1528.12 976.082 L1528.12 972.239 L1532.33 972.239 Q1535.78 972.239 1537.61 970.874 Q1539.44 969.485 1539.44 966.892 Q1539.44 964.23 1537.54 962.818 Q1535.67 961.383 1532.15 961.383 Q1530.23 961.383 1528.03 961.8 Q1525.83 962.216 1523.19 963.096 L1523.19 958.929 Q1525.85 958.188 1528.17 957.818 Q1530.5 957.448 1532.56 957.448 Q1537.89 957.448 1540.99 959.878 Q1544.09 962.286 1544.09 966.406 Q1544.09 969.276 1542.45 971.267 Q1540.8 973.235 1537.77 973.999 Z" fill="#000000" fill-rule="evenodd" fill-opacity="1" /><path clip-path="url(#clip300)" d="M1457.08 716.118 Q1453.47 716.118 1451.64 719.682 Q1449.83 723.224 1449.83 730.354 Q1449.83 737.46 1451.64 741.025 Q1453.47 744.567 1457.08 744.567 Q1460.71 744.567 1462.52 741.025 Q1464.35 737.46 1464.35 730.354 Q1464.35 723.224 1462.52 719.682 Q1460.71 716.118 1457.08 716.118 M1457.08 712.414 Q1462.89 712.414 1465.94 717.02 Q1469.02 721.604 1469.02 730.354 Q1469.02 739.08 1465.94 743.687 Q1462.89 748.27 1457.08 748.27 Q1451.27 748.27 1448.19 743.687 Q1445.13 739.08 1445.13 730.354 Q1445.13 721.604 1448.19 717.02 Q1451.27 712.414 1457.08 712.414 Z" fill="#000000" fill-rule="evenodd" fill-opacity="1" /><path clip-path="url(#clip300)" d="M1477.24 741.719 L1482.12 741.719 L1482.12 747.599 L1477.24 747.599 L1477.24 741.719 Z" fill="#000000" fill-rule="evenodd" fill-opacity="1" /><path clip-path="url(#clip300)" d="M1502.31 716.118 Q1498.7 716.118 1496.87 719.682 Q1495.06 723.224 1495.06 730.354 Q1495.06 737.46 1496.87 741.025 Q1498.7 744.567 1502.31 744.567 Q1505.94 744.567 1507.75 741.025 Q1509.58 737.46 1509.58 730.354 Q1509.58 723.224 1507.75 719.682 Q1505.94 716.118 1502.31 716.118 M1502.31 712.414 Q1508.12 712.414 1511.17 717.02 Q1514.25 721.604 1514.25 730.354 Q1514.25 739.08 1511.17 743.687 Q1508.12 748.27 1502.31 748.27 Q1496.5 748.27 1493.42 743.687 Q1490.36 739.08 1490.36 730.354 Q1490.36 721.604 1493.42 717.02 Q1496.5 712.414 1502.31 712.414 Z" fill="#000000" fill-rule="evenodd" fill-opacity="1" /><path clip-path="url(#clip300)" d="M1535.32 717.113 L1523.51 735.562 L1535.32 735.562 L1535.32 717.113 M1534.09 713.039 L1539.97 713.039 L1539.97 735.562 L1544.9 735.562 L1544.9 739.451 L1539.97 739.451 L1539.97 747.599 L1535.32 747.599 L1535.32 739.451 L1519.72 739.451 L1519.72 734.937 L1534.09 713.039 Z" fill="#000000" fill-rule="evenodd" fill-opacity="1" /><path clip-path="url(#clip300)" d="M1458.56 471.084 Q1454.95 471.084 1453.12 474.649 Q1451.31 478.19 1451.31 485.32 Q1451.31 492.426 1453.12 495.991 Q1454.95 499.533 1458.56 499.533 Q1462.19 499.533 1464 495.991 Q1465.83 492.426 1465.83 485.32 Q1465.83 478.19 1464 474.649 Q1462.19 471.084 1458.56 471.084 M1458.56 467.38 Q1464.37 467.38 1467.43 471.987 Q1470.5 476.57 1470.5 485.32 Q1470.5 494.047 1467.43 498.653 Q1464.37 503.236 1458.56 503.236 Q1452.75 503.236 1449.67 498.653 Q1446.61 494.047 1446.61 485.32 Q1446.61 476.57 1449.67 471.987 Q1452.75 467.38 1458.56 467.38 Z" fill="#000000" fill-rule="evenodd" fill-opacity="1" /><path clip-path="url(#clip300)" d="M1478.72 496.686 L1483.61 496.686 L1483.61 502.565 L1478.72 502.565 L1478.72 496.686 Z" fill="#000000" fill-rule="evenodd" fill-opacity="1" /><path clip-path="url(#clip300)" d="M1503.79 471.084 Q1500.18 471.084 1498.35 474.649 Q1496.55 478.19 1496.55 485.32 Q1496.55 492.426 1498.35 495.991 Q1500.18 499.533 1503.79 499.533 Q1507.42 499.533 1509.23 495.991 Q1511.06 492.426 1511.06 485.32 Q1511.06 478.19 1509.23 474.649 Q1507.42 471.084 1503.79 471.084 M1503.79 467.38 Q1509.6 467.38 1512.66 471.987 Q1515.73 476.57 1515.73 485.32 Q1515.73 494.047 1512.66 498.653 Q1509.6 503.236 1503.79 503.236 Q1497.98 503.236 1494.9 498.653 Q1491.85 494.047 1491.85 485.32 Q1491.85 476.57 1494.9 471.987 Q1497.98 467.38 1503.79 467.38 Z" fill="#000000" fill-rule="evenodd" fill-opacity="1" /><path clip-path="url(#clip300)" d="M1524 468.005 L1542.36 468.005 L1542.36 471.94 L1528.28 471.94 L1528.28 480.413 Q1529.3 480.065 1530.32 479.903 Q1531.34 479.718 1532.36 479.718 Q1538.14 479.718 1541.52 482.889 Q1544.9 486.061 1544.9 491.477 Q1544.9 497.056 1541.43 500.158 Q1537.96 503.236 1531.64 503.236 Q1529.46 503.236 1527.19 502.866 Q1524.95 502.496 1522.54 501.755 L1522.54 497.056 Q1524.62 498.19 1526.85 498.746 Q1529.07 499.301 1531.55 499.301 Q1535.55 499.301 1537.89 497.195 Q1540.23 495.088 1540.23 491.477 Q1540.23 487.866 1537.89 485.76 Q1535.55 483.653 1531.55 483.653 Q1529.67 483.653 1527.8 484.07 Q1525.94 484.487 1524 485.366 L1524 468.005 Z" fill="#000000" fill-rule="evenodd" fill-opacity="1" /><path clip-path="url(#clip300)" d="M1457.4 226.05 Q1453.79 226.05 1451.96 229.615 Q1450.16 233.157 1450.16 240.286 Q1450.16 247.393 1451.96 250.957 Q1453.79 254.499 1457.4 254.499 Q1461.04 254.499 1462.84 250.957 Q1464.67 247.393 1464.67 240.286 Q1464.67 233.157 1462.84 229.615 Q1461.04 226.05 1457.4 226.05 M1457.4 222.346 Q1463.21 222.346 1466.27 226.953 Q1469.35 231.536 1469.35 240.286 Q1469.35 249.013 1466.27 253.619 Q1463.21 258.203 1457.4 258.203 Q1451.59 258.203 1448.51 253.619 Q1445.46 249.013 1445.46 240.286 Q1445.46 231.536 1448.51 226.953 Q1451.59 222.346 1457.4 222.346 Z" fill="#000000" fill-rule="evenodd" fill-opacity="1" /><path clip-path="url(#clip300)" d="M1477.56 251.652 L1482.45 251.652 L1482.45 257.531 L1477.56 257.531 L1477.56 251.652 Z" fill="#000000" fill-rule="evenodd" fill-opacity="1" /><path clip-path="url(#clip300)" d="M1502.63 226.05 Q1499.02 226.05 1497.19 229.615 Q1495.39 233.157 1495.39 240.286 Q1495.39 247.393 1497.19 250.957 Q1499.02 254.499 1502.63 254.499 Q1506.27 254.499 1508.07 250.957 Q1509.9 247.393 1509.9 240.286 Q1509.9 233.157 1508.07 229.615 Q1506.27 226.05 1502.63 226.05 M1502.63 222.346 Q1508.44 222.346 1511.5 226.953 Q1514.58 231.536 1514.58 240.286 Q1514.58 249.013 1511.5 253.619 Q1508.44 258.203 1502.63 258.203 Q1496.82 258.203 1493.74 253.619 Q1490.69 249.013 1490.69 240.286 Q1490.69 231.536 1493.74 226.953 Q1496.82 222.346 1502.63 222.346 Z" fill="#000000" fill-rule="evenodd" fill-opacity="1" /><path clip-path="url(#clip300)" d="M1533.37 238.388 Q1530.23 238.388 1528.37 240.541 Q1526.55 242.694 1526.55 246.444 Q1526.55 250.17 1528.37 252.346 Q1530.23 254.499 1533.37 254.499 Q1536.52 254.499 1538.35 252.346 Q1540.2 250.17 1540.2 246.444 Q1540.2 242.694 1538.35 240.541 Q1536.52 238.388 1533.37 238.388 M1542.66 223.735 L1542.66 227.995 Q1540.9 227.161 1539.09 226.721 Q1537.31 226.282 1535.55 226.282 Q1530.92 226.282 1528.47 229.407 Q1526.04 232.532 1525.69 238.851 Q1527.05 236.837 1529.11 235.772 Q1531.17 234.684 1533.65 234.684 Q1538.86 234.684 1541.87 237.856 Q1544.9 241.004 1544.9 246.444 Q1544.9 251.768 1541.75 254.985 Q1538.61 258.203 1533.37 258.203 Q1527.38 258.203 1524.21 253.619 Q1521.04 249.013 1521.04 240.286 Q1521.04 232.092 1524.92 227.231 Q1528.81 222.346 1535.36 222.346 Q1537.12 222.346 1538.91 222.694 Q1540.71 223.041 1542.66 223.735 Z" fill="#000000" fill-rule="evenodd" fill-opacity="1" /><path clip-path="url(#clip300)" d="M1385.21 1105.2 L1404.12 1105.2 L1404.12 1111.09 L1354.91 1111.09 L1354.91 1105.2 L1360.32 1105.2 Q1357.14 1103.36 1355.61 1100.56 Q1354.05 1097.73 1354.05 1093.81 Q1354.05 1087.32 1359.21 1083.27 Q1364.36 1079.2 1372.77 1079.2 Q1381.17 1079.2 1386.32 1083.27 Q1391.48 1087.32 1391.48 1093.81 Q1391.48 1097.73 1389.95 1100.56 Q1388.39 1103.36 1385.21 1105.2 M1372.77 1085.28 Q1366.3 1085.28 1362.64 1087.95 Q1358.95 1090.6 1358.95 1095.24 Q1358.95 1099.89 1362.64 1102.56 Q1366.3 1105.2 1372.77 1105.2 Q1379.23 1105.2 1382.92 1102.56 Q1386.58 1099.89 1386.58 1095.24 Q1386.58 1090.6 1382.92 1087.95 Q1379.23 1085.28 1372.77 1085.28 Z" fill="#000000" fill-rule="evenodd" fill-opacity="1" /><path clip-path="url(#clip300)" d="M1376.49 1070.1 L1354.91 1070.1 L1354.91 1064.24 L1376.27 1064.24 Q1381.33 1064.24 1383.87 1062.27 Q1386.39 1060.29 1386.39 1056.35 Q1386.39 1051.61 1383.36 1048.87 Q1380.34 1046.1 1375.12 1046.1 L1354.91 1046.1 L1354.91 1040.24 L1390.56 1040.24 L1390.56 1046.1 L1385.08 1046.1 Q1388.33 1048.23 1389.92 1051.06 Q1391.48 1053.87 1391.48 1057.59 Q1391.48 1063.73 1387.66 1066.92 Q1383.84 1070.1 1376.49 1070.1 M1354.05 1055.36 L1354.05 1055.36 Z" fill="#000000" fill-rule="evenodd" fill-opacity="1" /><path clip-path="url(#clip300)" d="M1355.96 1005.45 L1361.5 1005.45 Q1360.22 1007.94 1359.59 1010.61 Q1358.95 1013.28 1358.95 1016.15 Q1358.95 1020.51 1360.29 1022.71 Q1361.63 1024.87 1364.3 1024.87 Q1366.34 1024.87 1367.51 1023.31 Q1368.66 1021.75 1369.71 1017.04 L1370.16 1015.03 Q1371.49 1008.8 1373.94 1006.19 Q1376.36 1003.54 1380.72 1003.54 Q1385.69 1003.54 1388.58 1007.49 Q1391.48 1011.41 1391.48 1018.28 Q1391.48 1021.15 1390.91 1024.26 Q1390.37 1027.35 1389.25 1030.79 L1383.21 1030.79 Q1384.89 1027.54 1385.75 1024.39 Q1386.58 1021.24 1386.58 1018.15 Q1386.58 1014.02 1385.18 1011.79 Q1383.75 1009.56 1381.17 1009.56 Q1378.78 1009.56 1377.51 1011.18 Q1376.23 1012.77 1375.06 1018.22 L1374.58 1020.25 Q1373.43 1025.7 1371.08 1028.12 Q1368.69 1030.54 1364.55 1030.54 Q1359.52 1030.54 1356.79 1026.97 Q1354.05 1023.41 1354.05 1016.85 Q1354.05 1013.6 1354.53 1010.74 Q1355.01 1007.87 1355.96 1005.45 Z" fill="#000000" fill-rule="evenodd" fill-opacity="1" /><path clip-path="url(#clip300)" d="M1369.04 964.586 L1390.56 964.586 L1390.56 970.443 L1369.23 970.443 Q1364.17 970.443 1361.66 972.416 Q1359.14 974.39 1359.14 978.336 Q1359.14 983.079 1362.17 985.816 Q1365.19 988.553 1370.41 988.553 L1390.56 988.553 L1390.56 994.442 L1341.03 994.442 L1341.03 988.553 L1360.45 988.553 Q1357.23 986.453 1355.64 983.62 Q1354.05 980.755 1354.05 977.031 Q1354.05 970.888 1357.87 967.737 Q1361.66 964.586 1369.04 964.586 Z" fill="#000000" fill-rule="evenodd" fill-opacity="1" /><path clip-path="url(#clip300)" d="M1370.09 955.865 L1370.09 938.71 L1375.31 938.71 L1375.31 955.865 L1370.09 955.865 Z" fill="#000000" fill-rule="evenodd" fill-opacity="1" /><path clip-path="url(#clip300)" d="M1359.02 914.361 Q1359.02 919.072 1362.71 921.809 Q1366.37 924.546 1372.77 924.546 Q1379.16 924.546 1382.86 921.841 Q1386.52 919.103 1386.52 914.361 Q1386.52 909.682 1382.82 906.945 Q1379.13 904.208 1372.77 904.208 Q1366.43 904.208 1362.74 906.945 Q1359.02 909.682 1359.02 914.361 M1354.05 914.361 Q1354.05 906.722 1359.02 902.362 Q1363.98 898.001 1372.77 898.001 Q1381.52 898.001 1386.52 902.362 Q1391.48 906.722 1391.48 914.361 Q1391.48 922.032 1386.52 926.392 Q1381.52 930.721 1372.77 930.721 Q1363.98 930.721 1359.02 926.392 Q1354.05 922.032 1354.05 914.361 Z" fill="#000000" fill-rule="evenodd" fill-opacity="1" /><path clip-path="url(#clip300)" d="M1341.03 870.247 L1345.9 870.247 L1345.9 875.848 Q1345.9 878.999 1347.18 880.241 Q1348.45 881.45 1351.76 881.45 L1354.91 881.45 L1354.91 871.806 L1359.46 871.806 L1359.46 881.45 L1390.56 881.45 L1390.56 887.339 L1359.46 887.339 L1359.46 892.94 L1354.91 892.94 L1354.91 887.339 L1352.43 887.339 Q1346.47 887.339 1343.77 884.569 Q1341.03 881.8 1341.03 875.785 L1341.03 870.247 Z" fill="#000000" fill-rule="evenodd" fill-opacity="1" /><path clip-path="url(#clip300)" d="M1341.03 847.298 L1345.9 847.298 L1345.9 852.9 Q1345.9 856.051 1347.18 857.292 Q1348.45 858.502 1351.76 858.502 L1354.91 858.502 L1354.91 848.858 L1359.46 848.858 L1359.46 858.502 L1390.56 858.502 L1390.56 864.39 L1359.46 864.39 L1359.46 869.992 L1354.91 869.992 L1354.91 864.39 L1352.43 864.39 Q1346.47 864.39 1343.77 861.621 Q1341.03 858.852 1341.03 852.836 L1341.03 847.298 Z" fill="#000000" fill-rule="evenodd" fill-opacity="1" /><path clip-path="url(#clip300)" d="M1354.91 825.082 L1354.91 819.225 L1382.73 811.905 L1354.91 804.616 L1354.91 797.709 L1382.73 790.389 L1354.91 783.1 L1354.91 777.244 L1390.56 786.569 L1390.56 793.476 L1361.34 801.147 L1390.56 808.849 L1390.56 815.756 L1354.91 825.082 Z" fill="#000000" fill-rule="evenodd" fill-opacity="1" /><path clip-path="url(#clip300)" d="M1359.02 754.55 Q1359.02 759.261 1362.71 761.998 Q1366.37 764.735 1372.77 764.735 Q1379.16 764.735 1382.86 762.03 Q1386.52 759.292 1386.52 754.55 Q1386.52 749.871 1382.82 747.134 Q1379.13 744.397 1372.77 744.397 Q1366.43 744.397 1362.74 747.134 Q1359.02 749.871 1359.02 754.55 M1354.05 754.55 Q1354.05 746.911 1359.02 742.551 Q1363.98 738.19 1372.77 738.19 Q1381.52 738.19 1386.52 742.551 Q1391.48 746.911 1391.48 754.55 Q1391.48 762.221 1386.52 766.581 Q1381.52 770.91 1372.77 770.91 Q1363.98 770.91 1359.02 766.581 Q1354.05 762.221 1354.05 754.55 Z" fill="#000000" fill-rule="evenodd" fill-opacity="1" /><path clip-path="url(#clip300)" d="M1360.38 707.826 Q1359.81 708.812 1359.56 709.99 Q1359.27 711.136 1359.27 712.536 Q1359.27 717.501 1362.52 720.175 Q1365.73 722.817 1371.78 722.817 L1390.56 722.817 L1390.56 728.705 L1354.91 728.705 L1354.91 722.817 L1360.45 722.817 Q1357.2 720.971 1355.64 718.011 Q1354.05 715.051 1354.05 710.817 Q1354.05 710.213 1354.15 709.481 Q1354.21 708.749 1354.37 707.857 L1360.38 707.826 Z" fill="#000000" fill-rule="evenodd" fill-opacity="1" /><path clip-path="url(#clip300)" d="M1341.03 701.906 L1341.03 696.017 L1370.28 696.017 L1354.91 678.543 L1354.91 671.064 L1371.59 689.97 L1390.56 670.268 L1390.56 677.907 L1373.15 696.017 L1390.56 696.017 L1390.56 701.906 L1341.03 701.906 Z" fill="#000000" fill-rule="evenodd" fill-opacity="1" /><polyline clip-path="url(#clip303)" style="stroke:#009af9; stroke-linecap:round; stroke-linejoin:round; stroke-width:4; stroke-opacity:1; fill:none" points="1615.1,1032.18 1705.62,941.633 1796.15,1094.12 1886.67,1157.62 1977.2,1193.5 2067.73,1221.24 2158.25,1251.56 2248.78,1294.23 2339.3,1361.68 2429.83,1470.66 2520.36,1631.89 "/>
<circle clip-path="url(#clip303)" cx="1615.1" cy="1032.18" r="14.4" fill="#009af9" fill-rule="evenodd" fill-opacity="1" stroke="#000000" stroke-opacity="1" stroke-width="3.84"/>
<circle clip-path="url(#clip303)" cx="1705.62" cy="941.633" r="14.4" fill="#009af9" fill-rule="evenodd" fill-opacity="1" stroke="#000000" stroke-opacity="1" stroke-width="3.84"/>
<circle clip-path="url(#clip303)" cx="1796.15" cy="1094.12" r="14.4" fill="#009af9" fill-rule="evenodd" fill-opacity="1" stroke="#000000" stroke-opacity="1" stroke-width="3.84"/>
<circle clip-path="url(#clip303)" cx="1886.67" cy="1157.62" r="14.4" fill="#009af9" fill-rule="evenodd" fill-opacity="1" stroke="#000000" stroke-opacity="1" stroke-width="3.84"/>
<circle clip-path="url(#clip303)" cx="1977.2" cy="1193.5" r="14.4" fill="#009af9" fill-rule="evenodd" fill-opacity="1" stroke="#000000" stroke-opacity="1" stroke-width="3.84"/>
<circle clip-path="url(#clip303)" cx="2067.73" cy="1221.24" r="14.4" fill="#009af9" fill-rule="evenodd" fill-opacity="1" stroke="#000000" stroke-opacity="1" stroke-width="3.84"/>
<circle clip-path="url(#clip303)" cx="2158.25" cy="1251.56" r="14.4" fill="#009af9" fill-rule="evenodd" fill-opacity="1" stroke="#000000" stroke-opacity="1" stroke-width="3.84"/>
<circle clip-path="url(#clip303)" cx="2248.78" cy="1294.23" r="14.4" fill="#009af9" fill-rule="evenodd" fill-opacity="1" stroke="#000000" stroke-opacity="1" stroke-width="3.84"/>
<circle clip-path="url(#clip303)" cx="2339.3" cy="1361.68" r="14.4" fill="#009af9" fill-rule="evenodd" fill-opacity="1" stroke="#000000" stroke-opacity="1" stroke-width="3.84"/>
<circle clip-path="url(#clip303)" cx="2429.83" cy="1470.66" r="14.4" fill="#009af9" fill-rule="evenodd" fill-opacity="1" stroke="#000000" stroke-opacity="1" stroke-width="3.84"/>
<circle clip-path="url(#clip303)" cx="2520.36" cy="1631.89" r="14.4" fill="#009af9" fill-rule="evenodd" fill-opacity="1" stroke="#000000" stroke-opacity="1" stroke-width="3.84"/>
<polyline clip-path="url(#clip303)" style="stroke:#e26f46; stroke-linecap:round; stroke-linejoin:round; stroke-width:4; stroke-opacity:1; fill:none" points="1615.1,94.9858 1705.62,1297.28 1796.15,1297.23 1886.67,1297.28 1977.2,1297.23 2067.73,1297.28 2158.25,1297.23 2248.78,1297.28 2339.3,1297.24 2429.83,1297.28 2520.36,1297.24 "/>
<circle clip-path="url(#clip303)" cx="1615.1" cy="94.9858" r="14.4" fill="#e26f46" fill-rule="evenodd" fill-opacity="1" stroke="#000000" stroke-opacity="1" stroke-width="3.84"/>
<circle clip-path="url(#clip303)" cx="1705.62" cy="1297.28" r="14.4" fill="#e26f46" fill-rule="evenodd" fill-opacity="1" stroke="#000000" stroke-opacity="1" stroke-width="3.84"/>
<circle clip-path="url(#clip303)" cx="1796.15" cy="1297.23" r="14.4" fill="#e26f46" fill-rule="evenodd" fill-opacity="1" stroke="#000000" stroke-opacity="1" stroke-width="3.84"/>
<circle clip-path="url(#clip303)" cx="1886.67" cy="1297.28" r="14.4" fill="#e26f46" fill-rule="evenodd" fill-opacity="1" stroke="#000000" stroke-opacity="1" stroke-width="3.84"/>
<circle clip-path="url(#clip303)" cx="1977.2" cy="1297.23" r="14.4" fill="#e26f46" fill-rule="evenodd" fill-opacity="1" stroke="#000000" stroke-opacity="1" stroke-width="3.84"/>
<circle clip-path="url(#clip303)" cx="2067.73" cy="1297.28" r="14.4" fill="#e26f46" fill-rule="evenodd" fill-opacity="1" stroke="#000000" stroke-opacity="1" stroke-width="3.84"/>
<circle clip-path="url(#clip303)" cx="2158.25" cy="1297.23" r="14.4" fill="#e26f46" fill-rule="evenodd" fill-opacity="1" stroke="#000000" stroke-opacity="1" stroke-width="3.84"/>
<circle clip-path="url(#clip303)" cx="2248.78" cy="1297.28" r="14.4" fill="#e26f46" fill-rule="evenodd" fill-opacity="1" stroke="#000000" stroke-opacity="1" stroke-width="3.84"/>
<circle clip-path="url(#clip303)" cx="2339.3" cy="1297.24" r="14.4" fill="#e26f46" fill-rule="evenodd" fill-opacity="1" stroke="#000000" stroke-opacity="1" stroke-width="3.84"/>
<circle clip-path="url(#clip303)" cx="2429.83" cy="1297.28" r="14.4" fill="#e26f46" fill-rule="evenodd" fill-opacity="1" stroke="#000000" stroke-opacity="1" stroke-width="3.84"/>
<circle clip-path="url(#clip303)" cx="2520.36" cy="1297.24" r="14.4" fill="#e26f46" fill-rule="evenodd" fill-opacity="1" stroke="#000000" stroke-opacity="1" stroke-width="3.84"/>
<polyline clip-path="url(#clip303)" style="stroke:#3da44d; stroke-linecap:round; stroke-linejoin:round; stroke-width:4; stroke-opacity:1; fill:none" points="1615.1,1562.21 1705.62,806.437 1796.15,671.067 1886.67,546.628 1977.2,419.379 2067.73,288.188 2158.25,1357.41 2248.78,1478.07 2339.3,1585.08 2429.83,1668.02 2520.36,1686.38 "/>
<circle clip-path="url(#clip303)" cx="1615.1" cy="1562.21" r="14.4" fill="#3da44d" fill-rule="evenodd" fill-opacity="1" stroke="#000000" stroke-opacity="1" stroke-width="3.84"/>
<circle clip-path="url(#clip303)" cx="1705.62" cy="806.437" r="14.4" fill="#3da44d" fill-rule="evenodd" fill-opacity="1" stroke="#000000" stroke-opacity="1" stroke-width="3.84"/>
<circle clip-path="url(#clip303)" cx="1796.15" cy="671.067" r="14.4" fill="#3da44d" fill-rule="evenodd" fill-opacity="1" stroke="#000000" stroke-opacity="1" stroke-width="3.84"/>
<circle clip-path="url(#clip303)" cx="1886.67" cy="546.628" r="14.4" fill="#3da44d" fill-rule="evenodd" fill-opacity="1" stroke="#000000" stroke-opacity="1" stroke-width="3.84"/>
<circle clip-path="url(#clip303)" cx="1977.2" cy="419.379" r="14.4" fill="#3da44d" fill-rule="evenodd" fill-opacity="1" stroke="#000000" stroke-opacity="1" stroke-width="3.84"/>
<circle clip-path="url(#clip303)" cx="2067.73" cy="288.188" r="14.4" fill="#3da44d" fill-rule="evenodd" fill-opacity="1" stroke="#000000" stroke-opacity="1" stroke-width="3.84"/>
<circle clip-path="url(#clip303)" cx="2158.25" cy="1357.41" r="14.4" fill="#3da44d" fill-rule="evenodd" fill-opacity="1" stroke="#000000" stroke-opacity="1" stroke-width="3.84"/>
<circle clip-path="url(#clip303)" cx="2248.78" cy="1478.07" r="14.4" fill="#3da44d" fill-rule="evenodd" fill-opacity="1" stroke="#000000" stroke-opacity="1" stroke-width="3.84"/>
<circle clip-path="url(#clip303)" cx="2339.3" cy="1585.08" r="14.4" fill="#3da44d" fill-rule="evenodd" fill-opacity="1" stroke="#000000" stroke-opacity="1" stroke-width="3.84"/>
<circle clip-path="url(#clip303)" cx="2429.83" cy="1668.02" r="14.4" fill="#3da44d" fill-rule="evenodd" fill-opacity="1" stroke="#000000" stroke-opacity="1" stroke-width="3.84"/>
<circle clip-path="url(#clip303)" cx="2520.36" cy="1686.38" r="14.4" fill="#3da44d" fill-rule="evenodd" fill-opacity="1" stroke="#000000" stroke-opacity="1" stroke-width="3.84"/>
</svg>
