<?xml version="1.0" encoding="utf-8"?>
<svg xmlns="http://www.w3.org/2000/svg" xmlns:xlink="http://www.w3.org/1999/xlink" width="672" height="480" viewBox="0 0 2688 1920">
<defs>
  <clipPath id="clip440">
    <rect x="0" y="0" width="2688" height="1920"/>
  </clipPath>
</defs>
<path clip-path="url(#clip440)" d="M0 1920 L2688 1920 L2688 0 L0 0  Z" fill="#ffffff" fill-rule="evenodd" fill-opacity="1"/>
<defs>
  <clipPath id="clip441">
    <rect x="537" y="0" width="1883" height="1883"/>
  </clipPath>
</defs>
<path clip-path="url(#clip440)" d="M255.469 1734.12 L2640.76 1734.12 L2640.76 47.2441 L255.469 47.2441  Z" fill="#ffffff" fill-rule="evenodd" fill-opacity="1"/>
<defs>
  <clipPath id="clip442">
    <rect x="255" y="47" width="2386" height="1688"/>
  </clipPath>
</defs>
<polyline clip-path="url(#clip442)" style="stroke:#000000; stroke-linecap:round; stroke-linejoin:round; stroke-width:2; stroke-opacity:0.1; fill:none" points="489.664,1734.12 489.664,47.2441 "/>
<polyline clip-path="url(#clip442)" style="stroke:#000000; stroke-linecap:round; stroke-linejoin:round; stroke-width:2; stroke-opacity:0.1; fill:none" points="906.381,1734.12 906.381,47.2441 "/>
<polyline clip-path="url(#clip442)" style="stroke:#000000; stroke-linecap:round; stroke-linejoin:round; stroke-width:2; stroke-opacity:0.1; fill:none" points="1323.1,1734.12 1323.1,47.2441 "/>
<polyline clip-path="url(#clip442)" style="stroke:#000000; stroke-linecap:round; stroke-linejoin:round; stroke-width:2; stroke-opacity:0.1; fill:none" points="1739.81,1734.12 1739.81,47.2441 "/>
<polyline clip-path="url(#clip442)" style="stroke:#000000; stroke-linecap:round; stroke-linejoin:round; stroke-width:2; stroke-opacity:0.1; fill:none" points="2156.53,1734.12 2156.53,47.2441 "/>
<polyline clip-path="url(#clip442)" style="stroke:#000000; stroke-linecap:round; stroke-linejoin:round; stroke-width:2; stroke-opacity:0.1; fill:none" points="2573.25,1734.12 2573.25,47.2441 "/>
<polyline clip-path="url(#clip440)" style="stroke:#000000; stroke-linecap:round; stroke-linejoin:round; stroke-width:4; stroke-opacity:1; fill:none" points="255.469,1734.12 2640.76,1734.12 "/>
<polyline clip-path="url(#clip440)" style="stroke:#000000; stroke-linecap:round; stroke-linejoin:round; stroke-width:4; stroke-opacity:1; fill:none" points="489.664,1734.12 489.664,1715.22 "/>
<polyline clip-path="url(#clip440)" style="stroke:#000000; stroke-linecap:round; stroke-linejoin:round; stroke-width:4; stroke-opacity:1; fill:none" points="906.381,1734.12 906.381,1715.22 "/>
<polyline clip-path="url(#clip440)" style="stroke:#000000; stroke-linecap:round; stroke-linejoin:round; stroke-width:4; stroke-opacity:1; fill:none" points="1323.1,1734.12 1323.1,1715.22 "/>
<polyline clip-path="url(#clip440)" style="stroke:#000000; stroke-linecap:round; stroke-linejoin:round; stroke-width:4; stroke-opacity:1; fill:none" points="1739.81,1734.12 1739.81,1715.22 "/>
<polyline clip-path="url(#clip440)" style="stroke:#000000; stroke-linecap:round; stroke-linejoin:round; stroke-width:4; stroke-opacity:1; fill:none" points="2156.53,1734.12 2156.53,1715.22 "/>
<polyline clip-path="url(#clip440)" style="stroke:#000000; stroke-linecap:round; stroke-linejoin:round; stroke-width:4; stroke-opacity:1; fill:none" points="2573.25,1734.12 2573.25,1715.22 "/>
<path clip-path="url(#clip440)" d="M452.581 1767.34 Q448.97 1767.34 447.141 1770.9 Q445.335 1774.45 445.335 1781.58 Q445.335 1788.68 447.141 1792.25 Q448.97 1795.79 452.581 1795.79 Q456.215 1795.79 458.021 1792.25 Q459.849 1788.68 459.849 1781.58 Q459.849 1774.45 458.021 1770.9 Q456.215 1767.34 452.581 1767.34 M452.581 1763.64 Q458.391 1763.64 461.446 1768.24 Q464.525 1772.83 464.525 1781.58 Q464.525 1790.3 461.446 1794.91 Q458.391 1799.49 452.581 1799.49 Q446.771 1799.49 443.692 1794.91 Q440.636 1790.3 440.636 1781.58 Q440.636 1772.83 443.692 1768.24 Q446.771 1763.64 452.581 1763.64 Z" fill="#000000" fill-rule="evenodd" fill-opacity="1" /><path clip-path="url(#clip440)" d="M472.743 1792.94 L477.627 1792.94 L477.627 1798.82 L472.743 1798.82 L472.743 1792.94 Z" fill="#000000" fill-rule="evenodd" fill-opacity="1" /><path clip-path="url(#clip440)" d="M497.812 1767.34 Q494.201 1767.34 492.372 1770.9 Q490.567 1774.45 490.567 1781.58 Q490.567 1788.68 492.372 1792.25 Q494.201 1795.79 497.812 1795.79 Q501.446 1795.79 503.252 1792.25 Q505.081 1788.68 505.081 1781.58 Q505.081 1774.45 503.252 1770.9 Q501.446 1767.34 497.812 1767.34 M497.812 1763.64 Q503.622 1763.64 506.678 1768.24 Q509.756 1772.83 509.756 1781.58 Q509.756 1790.3 506.678 1794.91 Q503.622 1799.49 497.812 1799.49 Q492.002 1799.49 488.923 1794.91 Q485.868 1790.3 485.868 1781.58 Q485.868 1772.83 488.923 1768.24 Q492.002 1763.64 497.812 1763.64 Z" fill="#000000" fill-rule="evenodd" fill-opacity="1" /><path clip-path="url(#clip440)" d="M518.784 1794.89 L526.423 1794.89 L526.423 1768.52 L518.113 1770.19 L518.113 1765.93 L526.377 1764.26 L531.053 1764.26 L531.053 1794.89 L538.691 1794.89 L538.691 1798.82 L518.784 1798.82 L518.784 1794.89 Z" fill="#000000" fill-rule="evenodd" fill-opacity="1" /><path clip-path="url(#clip440)" d="M869.483 1767.34 Q865.872 1767.34 864.043 1770.9 Q862.237 1774.45 862.237 1781.58 Q862.237 1788.68 864.043 1792.25 Q865.872 1795.79 869.483 1795.79 Q873.117 1795.79 874.923 1792.25 Q876.751 1788.68 876.751 1781.58 Q876.751 1774.45 874.923 1770.9 Q873.117 1767.34 869.483 1767.34 M869.483 1763.64 Q875.293 1763.64 878.348 1768.24 Q881.427 1772.83 881.427 1781.58 Q881.427 1790.3 878.348 1794.91 Q875.293 1799.49 869.483 1799.49 Q863.673 1799.49 860.594 1794.91 Q857.538 1790.3 857.538 1781.58 Q857.538 1772.83 860.594 1768.24 Q863.673 1763.64 869.483 1763.64 Z" fill="#000000" fill-rule="evenodd" fill-opacity="1" /><path clip-path="url(#clip440)" d="M889.645 1792.94 L894.529 1792.94 L894.529 1798.82 L889.645 1798.82 L889.645 1792.94 Z" fill="#000000" fill-rule="evenodd" fill-opacity="1" /><path clip-path="url(#clip440)" d="M914.714 1767.34 Q911.103 1767.34 909.274 1770.9 Q907.469 1774.45 907.469 1781.58 Q907.469 1788.68 909.274 1792.25 Q911.103 1795.79 914.714 1795.79 Q918.348 1795.79 920.154 1792.25 Q921.982 1788.68 921.982 1781.58 Q921.982 1774.45 920.154 1770.9 Q918.348 1767.34 914.714 1767.34 M914.714 1763.64 Q920.524 1763.64 923.58 1768.24 Q926.658 1772.83 926.658 1781.58 Q926.658 1790.3 923.58 1794.91 Q920.524 1799.49 914.714 1799.49 Q908.904 1799.49 905.825 1794.91 Q902.77 1790.3 902.77 1781.58 Q902.77 1772.83 905.825 1768.24 Q908.904 1763.64 914.714 1763.64 Z" fill="#000000" fill-rule="evenodd" fill-opacity="1" /><path clip-path="url(#clip440)" d="M938.904 1794.89 L955.223 1794.89 L955.223 1798.82 L933.279 1798.82 L933.279 1794.89 Q935.941 1792.13 940.524 1787.5 Q945.13 1782.85 946.311 1781.51 Q948.556 1778.98 949.436 1777.25 Q950.339 1775.49 950.339 1773.8 Q950.339 1771.04 948.394 1769.31 Q946.473 1767.57 943.371 1767.57 Q941.172 1767.57 938.718 1768.34 Q936.288 1769.1 933.51 1770.65 L933.51 1765.93 Q936.334 1764.79 938.788 1764.21 Q941.242 1763.64 943.279 1763.64 Q948.649 1763.64 951.843 1766.32 Q955.038 1769.01 955.038 1773.5 Q955.038 1775.63 954.228 1777.55 Q953.441 1779.45 951.334 1782.04 Q950.755 1782.71 947.654 1785.93 Q944.552 1789.12 938.904 1794.89 Z" fill="#000000" fill-rule="evenodd" fill-opacity="1" /><path clip-path="url(#clip440)" d="M1285.72 1767.34 Q1282.11 1767.34 1280.29 1770.9 Q1278.48 1774.45 1278.48 1781.58 Q1278.48 1788.68 1280.29 1792.25 Q1282.11 1795.79 1285.72 1795.79 Q1289.36 1795.79 1291.16 1792.25 Q1292.99 1788.68 1292.99 1781.58 Q1292.99 1774.45 1291.16 1770.9 Q1289.36 1767.34 1285.72 1767.34 M1285.72 1763.64 Q1291.54 1763.64 1294.59 1768.24 Q1297.67 1772.83 1297.67 1781.58 Q1297.67 1790.3 1294.59 1794.91 Q1291.54 1799.49 1285.72 1799.49 Q1279.91 1799.49 1276.84 1794.91 Q1273.78 1790.3 1273.78 1781.58 Q1273.78 1772.83 1276.84 1768.24 Q1279.91 1763.64 1285.72 1763.64 Z" fill="#000000" fill-rule="evenodd" fill-opacity="1" /><path clip-path="url(#clip440)" d="M1305.89 1792.94 L1310.77 1792.94 L1310.77 1798.82 L1305.89 1798.82 L1305.89 1792.94 Z" fill="#000000" fill-rule="evenodd" fill-opacity="1" /><path clip-path="url(#clip440)" d="M1330.96 1767.34 Q1327.35 1767.34 1325.52 1770.9 Q1323.71 1774.45 1323.71 1781.58 Q1323.71 1788.68 1325.52 1792.25 Q1327.35 1795.79 1330.96 1795.79 Q1334.59 1795.79 1336.4 1792.25 Q1338.22 1788.68 1338.22 1781.58 Q1338.22 1774.45 1336.4 1770.9 Q1334.59 1767.34 1330.96 1767.34 M1330.96 1763.64 Q1336.77 1763.64 1339.82 1768.24 Q1342.9 1772.83 1342.9 1781.58 Q1342.9 1790.3 1339.82 1794.91 Q1336.77 1799.49 1330.96 1799.49 Q1325.15 1799.49 1322.07 1794.91 Q1319.01 1790.3 1319.01 1781.58 Q1319.01 1772.83 1322.07 1768.24 Q1325.15 1763.64 1330.96 1763.64 Z" fill="#000000" fill-rule="evenodd" fill-opacity="1" /><path clip-path="url(#clip440)" d="M1365.28 1780.19 Q1368.64 1780.9 1370.52 1783.17 Q1372.41 1785.44 1372.41 1788.77 Q1372.41 1793.89 1368.9 1796.69 Q1365.38 1799.49 1358.9 1799.49 Q1356.72 1799.49 1354.41 1799.05 Q1352.11 1798.64 1349.66 1797.78 L1349.66 1793.27 Q1351.6 1794.4 1353.92 1794.98 Q1356.23 1795.56 1358.76 1795.56 Q1363.16 1795.56 1365.45 1793.82 Q1367.76 1792.08 1367.76 1788.77 Q1367.76 1785.72 1365.61 1784.01 Q1363.48 1782.27 1359.66 1782.27 L1355.63 1782.27 L1355.63 1778.43 L1359.84 1778.43 Q1363.29 1778.43 1365.12 1777.06 Q1366.95 1775.67 1366.95 1773.08 Q1366.95 1770.42 1365.05 1769.01 Q1363.18 1767.57 1359.66 1767.57 Q1357.74 1767.57 1355.54 1767.99 Q1353.34 1768.4 1350.7 1769.28 L1350.7 1765.12 Q1353.36 1764.38 1355.68 1764.01 Q1358.02 1763.64 1360.08 1763.64 Q1365.4 1763.64 1368.5 1766.07 Q1371.6 1768.47 1371.6 1772.59 Q1371.6 1775.46 1369.96 1777.46 Q1368.32 1779.42 1365.28 1780.19 Z" fill="#000000" fill-rule="evenodd" fill-opacity="1" /><path clip-path="url(#clip440)" d="M1701.87 1767.34 Q1698.26 1767.34 1696.43 1770.9 Q1694.63 1774.45 1694.63 1781.58 Q1694.63 1788.68 1696.43 1792.25 Q1698.26 1795.79 1701.87 1795.79 Q1705.51 1795.79 1707.31 1792.25 Q1709.14 1788.68 1709.14 1781.58 Q1709.14 1774.45 1707.31 1770.9 Q1705.51 1767.34 1701.87 1767.34 M1701.87 1763.64 Q1707.68 1763.64 1710.74 1768.24 Q1713.82 1772.83 1713.82 1781.58 Q1713.82 1790.3 1710.74 1794.91 Q1707.68 1799.49 1701.87 1799.49 Q1696.06 1799.49 1692.99 1794.91 Q1689.93 1790.3 1689.93 1781.58 Q1689.93 1772.83 1692.99 1768.24 Q1696.06 1763.64 1701.87 1763.64 Z" fill="#000000" fill-rule="evenodd" fill-opacity="1" /><path clip-path="url(#clip440)" d="M1722.04 1792.94 L1726.92 1792.94 L1726.92 1798.82 L1722.04 1798.82 L1722.04 1792.94 Z" fill="#000000" fill-rule="evenodd" fill-opacity="1" /><path clip-path="url(#clip440)" d="M1747.11 1767.34 Q1743.49 1767.34 1741.67 1770.9 Q1739.86 1774.45 1739.86 1781.58 Q1739.86 1788.68 1741.67 1792.25 Q1743.49 1795.79 1747.11 1795.79 Q1750.74 1795.79 1752.55 1792.25 Q1754.37 1788.68 1754.37 1781.58 Q1754.37 1774.45 1752.55 1770.9 Q1750.74 1767.34 1747.11 1767.34 M1747.11 1763.64 Q1752.92 1763.64 1755.97 1768.24 Q1759.05 1772.83 1759.05 1781.58 Q1759.05 1790.3 1755.97 1794.91 Q1752.92 1799.49 1747.11 1799.49 Q1741.3 1799.49 1738.22 1794.91 Q1735.16 1790.3 1735.16 1781.58 Q1735.16 1772.83 1738.22 1768.24 Q1741.3 1763.64 1747.11 1763.64 Z" fill="#000000" fill-rule="evenodd" fill-opacity="1" /><path clip-path="url(#clip440)" d="M1780.11 1768.34 L1768.31 1786.78 L1780.11 1786.78 L1780.11 1768.34 M1778.89 1764.26 L1784.77 1764.26 L1784.77 1786.78 L1789.7 1786.78 L1789.7 1790.67 L1784.77 1790.67 L1784.77 1798.82 L1780.11 1798.82 L1780.11 1790.67 L1764.51 1790.67 L1764.51 1786.16 L1778.89 1764.26 Z" fill="#000000" fill-rule="evenodd" fill-opacity="1" /><path clip-path="url(#clip440)" d="M2119.33 1767.34 Q2115.72 1767.34 2113.89 1770.9 Q2112.09 1774.45 2112.09 1781.58 Q2112.09 1788.68 2113.89 1792.25 Q2115.72 1795.79 2119.33 1795.79 Q2122.97 1795.79 2124.77 1792.25 Q2126.6 1788.68 2126.6 1781.58 Q2126.6 1774.45 2124.77 1770.9 Q2122.97 1767.34 2119.33 1767.34 M2119.33 1763.64 Q2125.14 1763.64 2128.2 1768.24 Q2131.28 1772.83 2131.28 1781.58 Q2131.28 1790.3 2128.2 1794.91 Q2125.14 1799.49 2119.33 1799.49 Q2113.52 1799.49 2110.44 1794.91 Q2107.39 1790.3 2107.39 1781.58 Q2107.39 1772.83 2110.44 1768.24 Q2113.52 1763.64 2119.33 1763.64 Z" fill="#000000" fill-rule="evenodd" fill-opacity="1" /><path clip-path="url(#clip440)" d="M2139.49 1792.94 L2144.38 1792.94 L2144.38 1798.82 L2139.49 1798.82 L2139.49 1792.94 Z" fill="#000000" fill-rule="evenodd" fill-opacity="1" /><path clip-path="url(#clip440)" d="M2164.56 1767.34 Q2160.95 1767.34 2159.12 1770.9 Q2157.32 1774.45 2157.32 1781.58 Q2157.32 1788.68 2159.12 1792.25 Q2160.95 1795.79 2164.56 1795.79 Q2168.2 1795.79 2170 1792.25 Q2171.83 1788.68 2171.83 1781.58 Q2171.83 1774.45 2170 1770.9 Q2168.2 1767.34 2164.56 1767.34 M2164.56 1763.64 Q2170.37 1763.64 2173.43 1768.24 Q2176.51 1772.83 2176.51 1781.58 Q2176.51 1790.3 2173.43 1794.91 Q2170.37 1799.49 2164.56 1799.49 Q2158.75 1799.49 2155.67 1794.91 Q2152.62 1790.3 2152.62 1781.58 Q2152.62 1772.83 2155.67 1768.24 Q2158.75 1763.64 2164.56 1763.64 Z" fill="#000000" fill-rule="evenodd" fill-opacity="1" /><path clip-path="url(#clip440)" d="M2184.77 1764.26 L2203.13 1764.26 L2203.13 1768.2 L2189.05 1768.2 L2189.05 1776.67 Q2190.07 1776.32 2191.09 1776.16 Q2192.11 1775.97 2193.13 1775.97 Q2198.92 1775.97 2202.29 1779.15 Q2205.67 1782.32 2205.67 1787.73 Q2205.67 1793.31 2202.2 1796.41 Q2198.73 1799.49 2192.41 1799.49 Q2190.23 1799.49 2187.97 1799.12 Q2185.72 1798.75 2183.31 1798.01 L2183.31 1793.31 Q2185.4 1794.45 2187.62 1795 Q2189.84 1795.56 2192.32 1795.56 Q2196.32 1795.56 2198.66 1793.45 Q2201 1791.34 2201 1787.73 Q2201 1784.12 2198.66 1782.02 Q2196.32 1779.91 2192.32 1779.91 Q2190.44 1779.91 2188.57 1780.33 Q2186.72 1780.74 2184.77 1781.62 L2184.77 1764.26 Z" fill="#000000" fill-rule="evenodd" fill-opacity="1" /><path clip-path="url(#clip440)" d="M2535.47 1767.34 Q2531.86 1767.34 2530.03 1770.9 Q2528.22 1774.45 2528.22 1781.58 Q2528.22 1788.68 2530.03 1792.25 Q2531.86 1795.79 2535.47 1795.79 Q2539.1 1795.79 2540.91 1792.25 Q2542.74 1788.68 2542.74 1781.58 Q2542.74 1774.45 2540.91 1770.9 Q2539.1 1767.34 2535.47 1767.34 M2535.47 1763.64 Q2541.28 1763.64 2544.34 1768.24 Q2547.41 1772.83 2547.41 1781.58 Q2547.41 1790.3 2544.34 1794.91 Q2541.28 1799.49 2535.47 1799.49 Q2529.66 1799.49 2526.58 1794.91 Q2523.53 1790.3 2523.53 1781.58 Q2523.53 1772.83 2526.58 1768.24 Q2529.66 1763.64 2535.47 1763.64 Z" fill="#000000" fill-rule="evenodd" fill-opacity="1" /><path clip-path="url(#clip440)" d="M2555.63 1792.94 L2560.52 1792.94 L2560.52 1798.82 L2555.63 1798.82 L2555.63 1792.94 Z" fill="#000000" fill-rule="evenodd" fill-opacity="1" /><path clip-path="url(#clip440)" d="M2580.7 1767.34 Q2577.09 1767.34 2575.26 1770.9 Q2573.46 1774.45 2573.46 1781.58 Q2573.46 1788.68 2575.26 1792.25 Q2577.09 1795.79 2580.7 1795.79 Q2584.34 1795.79 2586.14 1792.25 Q2587.97 1788.68 2587.97 1781.58 Q2587.97 1774.45 2586.14 1770.9 Q2584.34 1767.34 2580.7 1767.34 M2580.7 1763.64 Q2586.51 1763.64 2589.57 1768.24 Q2592.65 1772.83 2592.65 1781.58 Q2592.65 1790.3 2589.57 1794.91 Q2586.51 1799.49 2580.7 1799.49 Q2574.89 1799.49 2571.81 1794.91 Q2568.76 1790.3 2568.76 1781.58 Q2568.76 1772.83 2571.81 1768.24 Q2574.89 1763.64 2580.7 1763.64 Z" fill="#000000" fill-rule="evenodd" fill-opacity="1" /><path clip-path="url(#clip440)" d="M2611.44 1779.68 Q2608.29 1779.68 2606.44 1781.83 Q2604.61 1783.98 2604.61 1787.73 Q2604.61 1791.46 2606.44 1793.64 Q2608.29 1795.79 2611.44 1795.79 Q2614.59 1795.79 2616.42 1793.64 Q2618.27 1791.46 2618.27 1787.73 Q2618.27 1783.98 2616.42 1781.83 Q2614.59 1779.68 2611.44 1779.68 M2620.72 1765.02 L2620.72 1769.28 Q2618.97 1768.45 2617.16 1768.01 Q2615.38 1767.57 2613.62 1767.57 Q2608.99 1767.57 2606.53 1770.7 Q2604.1 1773.82 2603.76 1780.14 Q2605.12 1778.13 2607.18 1777.06 Q2609.24 1775.97 2611.72 1775.97 Q2616.93 1775.97 2619.94 1779.15 Q2622.97 1782.29 2622.97 1787.73 Q2622.97 1793.06 2619.82 1796.27 Q2616.67 1799.49 2611.44 1799.49 Q2605.45 1799.49 2602.28 1794.91 Q2599.1 1790.3 2599.1 1781.58 Q2599.1 1773.38 2602.99 1768.52 Q2606.88 1763.64 2613.43 1763.64 Q2615.19 1763.64 2616.97 1763.98 Q2618.78 1764.33 2620.72 1765.02 Z" fill="#000000" fill-rule="evenodd" fill-opacity="1" /><path clip-path="url(#clip440)" d="M1115.36 1847.65 L1121.57 1847.65 L1132.71 1877.57 L1143.85 1847.65 L1150.05 1847.65 L1136.69 1883.3 L1128.73 1883.3 L1115.36 1847.65 Z" fill="#000000" fill-rule="evenodd" fill-opacity="1" /><path clip-path="url(#clip440)" d="M1174.34 1865.38 Q1167.24 1865.38 1164.5 1867 Q1161.77 1868.63 1161.77 1872.54 Q1161.77 1875.66 1163.8 1877.51 Q1165.87 1879.32 1169.41 1879.32 Q1174.28 1879.32 1177.2 1875.88 Q1180.16 1872.42 1180.16 1866.69 L1180.16 1865.38 L1174.34 1865.38 M1186.02 1862.96 L1186.02 1883.3 L1180.16 1883.3 L1180.16 1877.89 Q1178.16 1881.14 1175.17 1882.7 Q1172.18 1884.22 1167.85 1884.22 Q1162.37 1884.22 1159.13 1881.17 Q1155.91 1878.08 1155.91 1872.92 Q1155.91 1866.91 1159.92 1863.85 Q1163.96 1860.8 1171.95 1860.8 L1180.16 1860.8 L1180.16 1860.23 Q1180.16 1856.18 1177.49 1853.99 Q1174.85 1851.76 1170.04 1851.76 Q1166.99 1851.76 1164.09 1852.49 Q1161.19 1853.22 1158.52 1854.69 L1158.52 1849.28 Q1161.74 1848.03 1164.76 1847.43 Q1167.78 1846.79 1170.65 1846.79 Q1178.38 1846.79 1182.2 1850.8 Q1186.02 1854.81 1186.02 1862.96 Z" fill="#000000" fill-rule="evenodd" fill-opacity="1" /><path clip-path="url(#clip440)" d="M1198.08 1833.78 L1203.94 1833.78 L1203.94 1883.3 L1198.08 1883.3 L1198.08 1833.78 Z" fill="#000000" fill-rule="evenodd" fill-opacity="1" /><path clip-path="url(#clip440)" d="M1215.59 1869.23 L1215.59 1847.65 L1221.45 1847.65 L1221.45 1869.01 Q1221.45 1874.07 1223.42 1876.62 Q1225.39 1879.13 1229.34 1879.13 Q1234.08 1879.13 1236.82 1876.11 Q1239.59 1873.08 1239.59 1867.86 L1239.59 1847.65 L1245.44 1847.65 L1245.44 1883.3 L1239.59 1883.3 L1239.59 1877.83 Q1237.46 1881.07 1234.62 1882.66 Q1231.82 1884.22 1228.1 1884.22 Q1221.95 1884.22 1218.77 1880.4 Q1215.59 1876.59 1215.59 1869.23 M1230.33 1846.79 L1230.33 1846.79 Z" fill="#000000" fill-rule="evenodd" fill-opacity="1" /><path clip-path="url(#clip440)" d="M1273.71 1865.38 Q1266.61 1865.38 1263.87 1867 Q1261.14 1868.63 1261.14 1872.54 Q1261.14 1875.66 1263.17 1877.51 Q1265.24 1879.32 1268.77 1879.32 Q1273.64 1879.32 1276.57 1875.88 Q1279.53 1872.42 1279.53 1866.69 L1279.53 1865.38 L1273.71 1865.38 M1285.39 1862.96 L1285.39 1883.3 L1279.53 1883.3 L1279.53 1877.89 Q1277.53 1881.14 1274.54 1882.7 Q1271.54 1884.22 1267.22 1884.22 Q1261.74 1884.22 1258.49 1881.17 Q1255.28 1878.08 1255.28 1872.92 Q1255.28 1866.91 1259.29 1863.85 Q1263.33 1860.8 1271.32 1860.8 L1279.53 1860.8 L1279.53 1860.23 Q1279.53 1856.18 1276.86 1853.99 Q1274.22 1851.76 1269.41 1851.76 Q1266.36 1851.76 1263.46 1852.49 Q1260.56 1853.22 1257.89 1854.69 L1257.89 1849.28 Q1261.1 1848.03 1264.13 1847.43 Q1267.15 1846.79 1270.02 1846.79 Q1277.75 1846.79 1281.57 1850.8 Q1285.39 1854.81 1285.39 1862.96 Z" fill="#000000" fill-rule="evenodd" fill-opacity="1" /><path clip-path="url(#clip440)" d="M1303.24 1837.53 L1303.24 1847.65 L1315.31 1847.65 L1315.31 1852.2 L1303.24 1852.2 L1303.24 1871.56 Q1303.24 1875.92 1304.42 1877.16 Q1305.63 1878.4 1309.29 1878.4 L1315.31 1878.4 L1315.31 1883.3 L1309.29 1883.3 Q1302.51 1883.3 1299.93 1880.79 Q1297.36 1878.24 1297.36 1871.56 L1297.36 1852.2 L1293.06 1852.2 L1293.06 1847.65 L1297.36 1847.65 L1297.36 1837.53 L1303.24 1837.53 Z" fill="#000000" fill-rule="evenodd" fill-opacity="1" /><path clip-path="url(#clip440)" d="M1323.01 1847.65 L1328.87 1847.65 L1328.87 1883.3 L1323.01 1883.3 L1323.01 1847.65 M1323.01 1833.78 L1328.87 1833.78 L1328.87 1841.19 L1323.01 1841.19 L1323.01 1833.78 Z" fill="#000000" fill-rule="evenodd" fill-opacity="1" /><path clip-path="url(#clip440)" d="M1354.93 1851.76 Q1350.22 1851.76 1347.49 1855.45 Q1344.75 1859.11 1344.75 1865.51 Q1344.75 1871.91 1347.45 1875.6 Q1350.19 1879.26 1354.93 1879.26 Q1359.61 1879.26 1362.35 1875.57 Q1365.09 1871.87 1365.09 1865.51 Q1365.09 1859.17 1362.35 1855.48 Q1359.61 1851.76 1354.93 1851.76 M1354.93 1846.79 Q1362.57 1846.79 1366.93 1851.76 Q1371.29 1856.72 1371.29 1865.51 Q1371.29 1874.26 1366.93 1879.26 Q1362.57 1884.22 1354.93 1884.22 Q1347.26 1884.22 1342.9 1879.26 Q1338.57 1874.26 1338.57 1865.51 Q1338.57 1856.72 1342.9 1851.76 Q1347.26 1846.79 1354.93 1846.79 Z" fill="#000000" fill-rule="evenodd" fill-opacity="1" /><path clip-path="url(#clip440)" d="M1410.63 1861.78 L1410.63 1883.3 L1404.78 1883.3 L1404.78 1861.98 Q1404.78 1856.92 1402.8 1854.4 Q1400.83 1851.89 1396.88 1851.89 Q1392.14 1851.89 1389.4 1854.91 Q1386.67 1857.93 1386.67 1863.15 L1386.67 1883.3 L1380.78 1883.3 L1380.78 1847.65 L1386.67 1847.65 L1386.67 1853.19 Q1388.77 1849.98 1391.6 1848.39 Q1394.47 1846.79 1398.19 1846.79 Q1404.33 1846.79 1407.48 1850.61 Q1410.63 1854.4 1410.63 1861.78 Z" fill="#000000" fill-rule="evenodd" fill-opacity="1" /><path clip-path="url(#clip440)" d="M1456.85 1851.76 Q1452.14 1851.76 1449.4 1855.45 Q1446.66 1859.11 1446.66 1865.51 Q1446.66 1871.91 1449.37 1875.6 Q1452.11 1879.26 1456.85 1879.26 Q1461.53 1879.26 1464.27 1875.57 Q1467 1871.87 1467 1865.51 Q1467 1859.17 1464.27 1855.48 Q1461.53 1851.76 1456.85 1851.76 M1456.85 1846.79 Q1464.49 1846.79 1468.85 1851.76 Q1473.21 1856.72 1473.21 1865.51 Q1473.21 1874.26 1468.85 1879.26 Q1464.49 1884.22 1456.85 1884.22 Q1449.18 1884.22 1444.82 1879.26 Q1440.49 1874.26 1440.49 1865.51 Q1440.49 1856.72 1444.82 1851.76 Q1449.18 1846.79 1456.85 1846.79 Z" fill="#000000" fill-rule="evenodd" fill-opacity="1" /><path clip-path="url(#clip440)" d="M1500.96 1833.78 L1500.96 1838.65 L1495.36 1838.65 Q1492.21 1838.65 1490.97 1839.92 Q1489.76 1841.19 1489.76 1844.5 L1489.76 1847.65 L1499.4 1847.65 L1499.4 1852.2 L1489.76 1852.2 L1489.76 1883.3 L1483.87 1883.3 L1483.87 1852.2 L1478.27 1852.2 L1478.27 1847.65 L1483.87 1847.65 L1483.87 1845.17 Q1483.87 1839.22 1486.64 1836.51 Q1489.41 1833.78 1495.43 1833.78 L1500.96 1833.78 Z" fill="#000000" fill-rule="evenodd" fill-opacity="1" /><path clip-path="url(#clip440)" d="M1532.38 1837.53 L1532.38 1847.65 L1544.44 1847.65 L1544.44 1852.2 L1532.38 1852.2 L1532.38 1871.56 Q1532.38 1875.92 1533.56 1877.16 Q1534.77 1878.4 1538.43 1878.4 L1544.44 1878.4 L1544.44 1883.3 L1538.43 1883.3 Q1531.65 1883.3 1529.07 1880.79 Q1526.49 1878.24 1526.49 1871.56 L1526.49 1852.2 L1522.19 1852.2 L1522.19 1847.65 L1526.49 1847.65 L1526.49 1837.53 L1532.38 1837.53 Z" fill="#000000" fill-rule="evenodd" fill-opacity="1" /><path clip-path="url(#clip440)" d="M1552.14 1847.65 L1558 1847.65 L1558 1883.3 L1552.14 1883.3 L1552.14 1847.65 M1552.14 1833.78 L1558 1833.78 L1558 1841.19 L1552.14 1841.19 L1552.14 1833.78 Z" fill="#000000" fill-rule="evenodd" fill-opacity="1" /><path clip-path="url(#clip440)" d="M1598.01 1854.5 Q1600.21 1850.55 1603.26 1848.67 Q1606.32 1846.79 1610.45 1846.79 Q1616.02 1846.79 1619.05 1850.71 Q1622.07 1854.59 1622.07 1861.78 L1622.07 1883.3 L1616.18 1883.3 L1616.18 1861.98 Q1616.18 1856.85 1614.37 1854.37 Q1612.55 1851.89 1608.83 1851.89 Q1604.28 1851.89 1601.64 1854.91 Q1599 1857.93 1599 1863.15 L1599 1883.3 L1593.11 1883.3 L1593.11 1861.98 Q1593.11 1856.82 1591.29 1854.37 Q1589.48 1851.89 1585.69 1851.89 Q1581.2 1851.89 1578.56 1854.94 Q1575.92 1857.97 1575.92 1863.15 L1575.92 1883.3 L1570.03 1883.3 L1570.03 1847.65 L1575.92 1847.65 L1575.92 1853.19 Q1577.93 1849.91 1580.73 1848.35 Q1583.53 1846.79 1587.38 1846.79 Q1591.26 1846.79 1593.97 1848.77 Q1596.7 1850.74 1598.01 1854.5 Z" fill="#000000" fill-rule="evenodd" fill-opacity="1" /><path clip-path="url(#clip440)" d="M1664.24 1864.01 L1664.24 1866.88 L1637.32 1866.88 Q1637.7 1872.92 1640.95 1876.11 Q1644.22 1879.26 1650.05 1879.26 Q1653.42 1879.26 1656.57 1878.43 Q1659.76 1877.6 1662.88 1875.95 L1662.88 1881.49 Q1659.72 1882.82 1656.41 1883.52 Q1653.1 1884.22 1649.7 1884.22 Q1641.17 1884.22 1636.17 1879.26 Q1631.21 1874.29 1631.21 1865.83 Q1631.21 1857.07 1635.92 1851.95 Q1640.66 1846.79 1648.68 1846.79 Q1655.87 1846.79 1660.04 1851.44 Q1664.24 1856.06 1664.24 1864.01 M1658.39 1862.29 Q1658.32 1857.49 1655.68 1854.62 Q1653.07 1851.76 1648.74 1851.76 Q1643.84 1851.76 1640.88 1854.53 Q1637.95 1857.3 1637.51 1862.33 L1658.39 1862.29 Z" fill="#000000" fill-rule="evenodd" fill-opacity="1" /><path clip-path="url(#clip440)" d="M1720.23 1849.02 L1720.23 1854.5 Q1717.75 1853.13 1715.23 1852.46 Q1712.75 1851.76 1710.2 1851.76 Q1704.51 1851.76 1701.36 1855.39 Q1698.21 1858.98 1698.21 1865.51 Q1698.21 1872.03 1701.36 1875.66 Q1704.51 1879.26 1710.2 1879.26 Q1712.75 1879.26 1715.23 1878.59 Q1717.75 1877.89 1720.23 1876.52 L1720.23 1881.93 Q1717.78 1883.08 1715.14 1883.65 Q1712.53 1884.22 1709.57 1884.22 Q1701.52 1884.22 1696.77 1879.16 Q1692.03 1874.1 1692.03 1865.51 Q1692.03 1856.79 1696.8 1851.79 Q1701.61 1846.79 1709.95 1846.79 Q1712.66 1846.79 1715.23 1847.37 Q1717.81 1847.91 1720.23 1849.02 Z" fill="#000000" fill-rule="evenodd" fill-opacity="1" /><path clip-path="url(#clip440)" d="M1757.5 1894.12 L1757.5 1898.67 L1723.64 1898.67 L1723.64 1894.12 L1757.5 1894.12 Z" fill="#000000" fill-rule="evenodd" fill-opacity="1" /><path clip-path="url(#clip440)" d="M1768.8 1837.53 L1768.8 1847.65 L1780.86 1847.65 L1780.86 1852.2 L1768.8 1852.2 L1768.8 1871.56 Q1768.8 1875.92 1769.98 1877.16 Q1771.19 1878.4 1774.85 1878.4 L1780.86 1878.4 L1780.86 1883.3 L1774.85 1883.3 Q1768.07 1883.3 1765.49 1880.79 Q1762.91 1878.24 1762.91 1871.56 L1762.91 1852.2 L1758.62 1852.2 L1758.62 1847.65 L1762.91 1847.65 L1762.91 1837.53 L1768.8 1837.53 Z" fill="#000000" fill-rule="evenodd" fill-opacity="1" /><polyline clip-path="url(#clip442)" style="stroke:#000000; stroke-linecap:round; stroke-linejoin:round; stroke-width:2; stroke-opacity:0.1; fill:none" points="255.469,1477.55 2640.76,1477.55 "/>
<polyline clip-path="url(#clip442)" style="stroke:#000000; stroke-linecap:round; stroke-linejoin:round; stroke-width:2; stroke-opacity:0.1; fill:none" points="255.469,1218.22 2640.76,1218.22 "/>
<polyline clip-path="url(#clip442)" style="stroke:#000000; stroke-linecap:round; stroke-linejoin:round; stroke-width:2; stroke-opacity:0.1; fill:none" points="255.469,958.879 2640.76,958.879 "/>
<polyline clip-path="url(#clip442)" style="stroke:#000000; stroke-linecap:round; stroke-linejoin:round; stroke-width:2; stroke-opacity:0.1; fill:none" points="255.469,699.542 2640.76,699.542 "/>
<polyline clip-path="url(#clip442)" style="stroke:#000000; stroke-linecap:round; stroke-linejoin:round; stroke-width:2; stroke-opacity:0.1; fill:none" points="255.469,440.205 2640.76,440.205 "/>
<polyline clip-path="url(#clip442)" style="stroke:#000000; stroke-linecap:round; stroke-linejoin:round; stroke-width:2; stroke-opacity:0.1; fill:none" points="255.469,180.868 2640.76,180.868 "/>
<polyline clip-path="url(#clip440)" style="stroke:#000000; stroke-linecap:round; stroke-linejoin:round; stroke-width:4; stroke-opacity:1; fill:none" points="255.469,1734.12 255.469,47.2441 "/>
<polyline clip-path="url(#clip440)" style="stroke:#000000; stroke-linecap:round; stroke-linejoin:round; stroke-width:4; stroke-opacity:1; fill:none" points="255.469,1477.55 274.367,1477.55 "/>
<polyline clip-path="url(#clip440)" style="stroke:#000000; stroke-linecap:round; stroke-linejoin:round; stroke-width:4; stroke-opacity:1; fill:none" points="255.469,1218.22 274.367,1218.22 "/>
<polyline clip-path="url(#clip440)" style="stroke:#000000; stroke-linecap:round; stroke-linejoin:round; stroke-width:4; stroke-opacity:1; fill:none" points="255.469,958.879 274.367,958.879 "/>
<polyline clip-path="url(#clip440)" style="stroke:#000000; stroke-linecap:round; stroke-linejoin:round; stroke-width:4; stroke-opacity:1; fill:none" points="255.469,699.542 274.367,699.542 "/>
<polyline clip-path="url(#clip440)" style="stroke:#000000; stroke-linecap:round; stroke-linejoin:round; stroke-width:4; stroke-opacity:1; fill:none" points="255.469,440.205 274.367,440.205 "/>
<polyline clip-path="url(#clip440)" style="stroke:#000000; stroke-linecap:round; stroke-linejoin:round; stroke-width:4; stroke-opacity:1; fill:none" points="255.469,180.868 274.367,180.868 "/>
<path clip-path="url(#clip440)" d="M128.807 1463.35 Q125.196 1463.35 123.367 1466.92 Q121.562 1470.46 121.562 1477.59 Q121.562 1484.69 123.367 1488.26 Q125.196 1491.8 128.807 1491.8 Q132.441 1491.8 134.247 1488.26 Q136.075 1484.69 136.075 1477.59 Q136.075 1470.46 134.247 1466.92 Q132.441 1463.35 128.807 1463.35 M128.807 1459.65 Q134.617 1459.65 137.673 1464.25 Q140.751 1468.84 140.751 1477.59 Q140.751 1486.32 137.673 1490.92 Q134.617 1495.5 128.807 1495.5 Q122.997 1495.5 119.918 1490.92 Q116.863 1486.32 116.863 1477.59 Q116.863 1468.84 119.918 1464.25 Q122.997 1459.65 128.807 1459.65 Z" fill="#000000" fill-rule="evenodd" fill-opacity="1" /><path clip-path="url(#clip440)" d="M148.969 1488.95 L153.853 1488.95 L153.853 1494.83 L148.969 1494.83 L148.969 1488.95 Z" fill="#000000" fill-rule="evenodd" fill-opacity="1" /><path clip-path="url(#clip440)" d="M162.858 1460.27 L185.08 1460.27 L185.08 1462.26 L172.534 1494.83 L167.649 1494.83 L179.455 1464.21 L162.858 1464.21 L162.858 1460.27 Z" fill="#000000" fill-rule="evenodd" fill-opacity="1" /><path clip-path="url(#clip440)" d="M194.246 1460.27 L212.603 1460.27 L212.603 1464.21 L198.529 1464.21 L198.529 1472.68 Q199.547 1472.33 200.566 1472.17 Q201.584 1471.99 202.603 1471.99 Q208.39 1471.99 211.769 1475.16 Q215.149 1478.33 215.149 1483.75 Q215.149 1489.32 211.677 1492.43 Q208.205 1495.5 201.885 1495.5 Q199.709 1495.5 197.441 1495.13 Q195.196 1494.76 192.788 1494.02 L192.788 1489.32 Q194.871 1490.46 197.094 1491.01 Q199.316 1491.57 201.793 1491.57 Q205.797 1491.57 208.135 1489.46 Q210.473 1487.36 210.473 1483.75 Q210.473 1480.13 208.135 1478.03 Q205.797 1475.92 201.793 1475.92 Q199.918 1475.92 198.043 1476.34 Q196.191 1476.75 194.246 1477.63 L194.246 1460.27 Z" fill="#000000" fill-rule="evenodd" fill-opacity="1" /><path clip-path="url(#clip440)" d="M118.622 1231.56 L126.261 1231.56 L126.261 1205.2 L117.951 1206.86 L117.951 1202.6 L126.214 1200.94 L130.89 1200.94 L130.89 1231.56 L138.529 1231.56 L138.529 1235.5 L118.622 1235.5 L118.622 1231.56 Z" fill="#000000" fill-rule="evenodd" fill-opacity="1" /><path clip-path="url(#clip440)" d="M147.974 1229.62 L152.858 1229.62 L152.858 1235.5 L147.974 1235.5 L147.974 1229.62 Z" fill="#000000" fill-rule="evenodd" fill-opacity="1" /><path clip-path="url(#clip440)" d="M173.043 1204.02 Q169.432 1204.02 167.603 1207.58 Q165.798 1211.12 165.798 1218.25 Q165.798 1225.36 167.603 1228.92 Q169.432 1232.46 173.043 1232.46 Q176.677 1232.46 178.483 1228.92 Q180.311 1225.36 180.311 1218.25 Q180.311 1211.12 178.483 1207.58 Q176.677 1204.02 173.043 1204.02 M173.043 1200.31 Q178.853 1200.31 181.909 1204.92 Q184.987 1209.5 184.987 1218.25 Q184.987 1226.98 181.909 1231.58 Q178.853 1236.17 173.043 1236.17 Q167.233 1236.17 164.154 1231.58 Q161.098 1226.98 161.098 1218.25 Q161.098 1209.5 164.154 1204.92 Q167.233 1200.31 173.043 1200.31 Z" fill="#000000" fill-rule="evenodd" fill-opacity="1" /><path clip-path="url(#clip440)" d="M203.205 1204.02 Q199.594 1204.02 197.765 1207.58 Q195.959 1211.12 195.959 1218.25 Q195.959 1225.36 197.765 1228.92 Q199.594 1232.46 203.205 1232.46 Q206.839 1232.46 208.645 1228.92 Q210.473 1225.36 210.473 1218.25 Q210.473 1211.12 208.645 1207.58 Q206.839 1204.02 203.205 1204.02 M203.205 1200.31 Q209.015 1200.31 212.07 1204.92 Q215.149 1209.5 215.149 1218.25 Q215.149 1226.98 212.07 1231.58 Q209.015 1236.17 203.205 1236.17 Q197.395 1236.17 194.316 1231.58 Q191.26 1226.98 191.26 1218.25 Q191.26 1209.5 194.316 1204.92 Q197.395 1200.31 203.205 1200.31 Z" fill="#000000" fill-rule="evenodd" fill-opacity="1" /><path clip-path="url(#clip440)" d="M119.617 972.224 L127.256 972.224 L127.256 945.858 L118.946 947.525 L118.946 943.266 L127.21 941.599 L131.886 941.599 L131.886 972.224 L139.525 972.224 L139.525 976.159 L119.617 976.159 L119.617 972.224 Z" fill="#000000" fill-rule="evenodd" fill-opacity="1" /><path clip-path="url(#clip440)" d="M148.969 970.28 L153.853 970.28 L153.853 976.159 L148.969 976.159 L148.969 970.28 Z" fill="#000000" fill-rule="evenodd" fill-opacity="1" /><path clip-path="url(#clip440)" d="M168.066 972.224 L184.385 972.224 L184.385 976.159 L162.441 976.159 L162.441 972.224 Q165.103 969.469 169.686 964.84 Q174.293 960.187 175.473 958.845 Q177.719 956.321 178.598 954.585 Q179.501 952.826 179.501 951.136 Q179.501 948.382 177.557 946.646 Q175.635 944.909 172.534 944.909 Q170.335 944.909 167.881 945.673 Q165.45 946.437 162.673 947.988 L162.673 943.266 Q165.497 942.132 167.95 941.553 Q170.404 940.974 172.441 940.974 Q177.811 940.974 181.006 943.659 Q184.2 946.345 184.2 950.835 Q184.2 952.965 183.39 954.886 Q182.603 956.784 180.497 959.377 Q179.918 960.048 176.816 963.266 Q173.714 966.46 168.066 972.224 Z" fill="#000000" fill-rule="evenodd" fill-opacity="1" /><path clip-path="url(#clip440)" d="M194.246 941.599 L212.603 941.599 L212.603 945.534 L198.529 945.534 L198.529 954.007 Q199.547 953.659 200.566 953.497 Q201.584 953.312 202.603 953.312 Q208.39 953.312 211.769 956.483 Q215.149 959.655 215.149 965.071 Q215.149 970.65 211.677 973.752 Q208.205 976.831 201.885 976.831 Q199.709 976.831 197.441 976.46 Q195.196 976.09 192.788 975.349 L192.788 970.65 Q194.871 971.784 197.094 972.34 Q199.316 972.895 201.793 972.895 Q205.797 972.895 208.135 970.789 Q210.473 968.682 210.473 965.071 Q210.473 961.46 208.135 959.354 Q205.797 957.247 201.793 957.247 Q199.918 957.247 198.043 957.664 Q196.191 958.081 194.246 958.96 L194.246 941.599 Z" fill="#000000" fill-rule="evenodd" fill-opacity="1" /><path clip-path="url(#clip440)" d="M118.622 712.887 L126.261 712.887 L126.261 686.521 L117.951 688.188 L117.951 683.929 L126.214 682.262 L130.89 682.262 L130.89 712.887 L138.529 712.887 L138.529 716.822 L118.622 716.822 L118.622 712.887 Z" fill="#000000" fill-rule="evenodd" fill-opacity="1" /><path clip-path="url(#clip440)" d="M147.974 710.943 L152.858 710.943 L152.858 716.822 L147.974 716.822 L147.974 710.943 Z" fill="#000000" fill-rule="evenodd" fill-opacity="1" /><path clip-path="url(#clip440)" d="M163.089 682.262 L181.446 682.262 L181.446 686.197 L167.372 686.197 L167.372 694.669 Q168.39 694.322 169.409 694.16 Q170.427 693.975 171.446 693.975 Q177.233 693.975 180.612 697.146 Q183.992 700.318 183.992 705.734 Q183.992 711.313 180.52 714.415 Q177.047 717.493 170.728 717.493 Q168.552 717.493 166.284 717.123 Q164.038 716.753 161.631 716.012 L161.631 711.313 Q163.714 712.447 165.936 713.003 Q168.159 713.558 170.635 713.558 Q174.64 713.558 176.978 711.452 Q179.316 709.345 179.316 705.734 Q179.316 702.123 176.978 700.017 Q174.64 697.91 170.635 697.91 Q168.76 697.91 166.885 698.327 Q165.034 698.743 163.089 699.623 L163.089 682.262 Z" fill="#000000" fill-rule="evenodd" fill-opacity="1" /><path clip-path="url(#clip440)" d="M203.205 685.341 Q199.594 685.341 197.765 688.906 Q195.959 692.447 195.959 699.577 Q195.959 706.683 197.765 710.248 Q199.594 713.79 203.205 713.79 Q206.839 713.79 208.645 710.248 Q210.473 706.683 210.473 699.577 Q210.473 692.447 208.645 688.906 Q206.839 685.341 203.205 685.341 M203.205 681.637 Q209.015 681.637 212.07 686.244 Q215.149 690.827 215.149 699.577 Q215.149 708.304 212.07 712.91 Q209.015 717.493 203.205 717.493 Q197.395 717.493 194.316 712.91 Q191.26 708.304 191.26 699.577 Q191.26 690.827 194.316 686.244 Q197.395 681.637 203.205 681.637 Z" fill="#000000" fill-rule="evenodd" fill-opacity="1" /><path clip-path="url(#clip440)" d="M119.617 453.55 L127.256 453.55 L127.256 427.184 L118.946 428.851 L118.946 424.592 L127.21 422.925 L131.886 422.925 L131.886 453.55 L139.525 453.55 L139.525 457.485 L119.617 457.485 L119.617 453.55 Z" fill="#000000" fill-rule="evenodd" fill-opacity="1" /><path clip-path="url(#clip440)" d="M148.969 451.605 L153.853 451.605 L153.853 457.485 L148.969 457.485 L148.969 451.605 Z" fill="#000000" fill-rule="evenodd" fill-opacity="1" /><path clip-path="url(#clip440)" d="M162.858 422.925 L185.08 422.925 L185.08 424.916 L172.534 457.485 L167.649 457.485 L179.455 426.86 L162.858 426.86 L162.858 422.925 Z" fill="#000000" fill-rule="evenodd" fill-opacity="1" /><path clip-path="url(#clip440)" d="M194.246 422.925 L212.603 422.925 L212.603 426.86 L198.529 426.86 L198.529 435.332 Q199.547 434.985 200.566 434.823 Q201.584 434.638 202.603 434.638 Q208.39 434.638 211.769 437.809 Q215.149 440.98 215.149 446.397 Q215.149 451.976 211.677 455.078 Q208.205 458.156 201.885 458.156 Q199.709 458.156 197.441 457.786 Q195.196 457.416 192.788 456.675 L192.788 451.976 Q194.871 453.11 197.094 453.666 Q199.316 454.221 201.793 454.221 Q205.797 454.221 208.135 452.115 Q210.473 450.008 210.473 446.397 Q210.473 442.786 208.135 440.679 Q205.797 438.573 201.793 438.573 Q199.918 438.573 198.043 438.99 Q196.191 439.406 194.246 440.286 L194.246 422.925 Z" fill="#000000" fill-rule="evenodd" fill-opacity="1" /><path clip-path="url(#clip440)" d="M121.839 194.213 L138.159 194.213 L138.159 198.148 L116.214 198.148 L116.214 194.213 Q118.876 191.458 123.46 186.828 Q128.066 182.176 129.247 180.833 Q131.492 178.31 132.372 176.574 Q133.275 174.815 133.275 173.125 Q133.275 170.37 131.33 168.634 Q129.409 166.898 126.307 166.898 Q124.108 166.898 121.654 167.662 Q119.224 168.426 116.446 169.977 L116.446 165.254 Q119.27 164.12 121.724 163.542 Q124.177 162.963 126.214 162.963 Q131.585 162.963 134.779 165.648 Q137.974 168.333 137.974 172.824 Q137.974 174.954 137.163 176.875 Q136.376 178.773 134.27 181.366 Q133.691 182.037 130.589 185.254 Q127.488 188.449 121.839 194.213 Z" fill="#000000" fill-rule="evenodd" fill-opacity="1" /><path clip-path="url(#clip440)" d="M147.974 192.268 L152.858 192.268 L152.858 198.148 L147.974 198.148 L147.974 192.268 Z" fill="#000000" fill-rule="evenodd" fill-opacity="1" /><path clip-path="url(#clip440)" d="M173.043 166.667 Q169.432 166.667 167.603 170.231 Q165.798 173.773 165.798 180.903 Q165.798 188.009 167.603 191.574 Q169.432 195.115 173.043 195.115 Q176.677 195.115 178.483 191.574 Q180.311 188.009 180.311 180.903 Q180.311 173.773 178.483 170.231 Q176.677 166.667 173.043 166.667 M173.043 162.963 Q178.853 162.963 181.909 167.569 Q184.987 172.153 184.987 180.903 Q184.987 189.629 181.909 194.236 Q178.853 198.819 173.043 198.819 Q167.233 198.819 164.154 194.236 Q161.098 189.629 161.098 180.903 Q161.098 172.153 164.154 167.569 Q167.233 162.963 173.043 162.963 Z" fill="#000000" fill-rule="evenodd" fill-opacity="1" /><path clip-path="url(#clip440)" d="M203.205 166.667 Q199.594 166.667 197.765 170.231 Q195.959 173.773 195.959 180.903 Q195.959 188.009 197.765 191.574 Q199.594 195.115 203.205 195.115 Q206.839 195.115 208.645 191.574 Q210.473 188.009 210.473 180.903 Q210.473 173.773 208.645 170.231 Q206.839 166.667 203.205 166.667 M203.205 162.963 Q209.015 162.963 212.07 167.569 Q215.149 172.153 215.149 180.903 Q215.149 189.629 212.07 194.236 Q209.015 198.819 203.205 198.819 Q197.395 198.819 194.316 194.236 Q191.26 189.629 191.26 180.903 Q191.26 172.153 194.316 167.569 Q197.395 162.963 203.205 162.963 Z" fill="#000000" fill-rule="evenodd" fill-opacity="1" /><path clip-path="url(#clip440)" d="M56.2912 1067.28 L75.1974 1067.28 L75.1974 1073.17 L25.9905 1073.17 L25.9905 1067.28 L31.4013 1067.28 Q28.2185 1065.44 26.6907 1062.63 Q25.1311 1059.8 25.1311 1055.89 Q25.1311 1049.39 30.2873 1045.35 Q35.4436 1041.28 43.8463 1041.28 Q52.249 1041.28 57.4052 1045.35 Q62.5615 1049.39 62.5615 1055.89 Q62.5615 1059.8 61.0337 1062.63 Q59.4741 1065.44 56.2912 1067.28 M43.8463 1047.36 Q37.3851 1047.36 33.7248 1050.03 Q30.0327 1052.67 30.0327 1057.32 Q30.0327 1061.97 33.7248 1064.64 Q37.3851 1067.28 43.8463 1067.28 Q50.3075 1067.28 53.9996 1064.64 Q57.6599 1061.97 57.6599 1057.32 Q57.6599 1052.67 53.9996 1050.03 Q50.3075 1047.36 43.8463 1047.36 Z" fill="#000000" fill-rule="evenodd" fill-opacity="1" /><path clip-path="url(#clip440)" d="M42.3504 1001.08 L45.2149 1001.08 L45.2149 1028 Q51.2623 1027.62 54.4452 1024.38 Q57.5962 1021.1 57.5962 1015.27 Q57.5962 1011.9 56.7687 1008.75 Q55.9411 1005.57 54.2861 1002.45 L59.8242 1002.45 Q61.161 1005.6 61.8612 1008.91 Q62.5615 1012.22 62.5615 1015.62 Q62.5615 1024.15 57.5962 1029.15 Q52.631 1034.12 44.1646 1034.12 Q35.4117 1034.12 30.2873 1029.41 Q25.1311 1024.66 25.1311 1016.64 Q25.1311 1009.45 29.7781 1005.28 Q34.3932 1001.08 42.3504 1001.08 M40.6316 1006.93 Q35.8255 1007 32.9609 1009.64 Q30.0964 1012.25 30.0964 1016.58 Q30.0964 1021.48 32.8654 1024.44 Q35.6345 1027.37 40.6634 1027.81 L40.6316 1006.93 Z" fill="#000000" fill-rule="evenodd" fill-opacity="1" /><path clip-path="url(#clip440)" d="M43.719 975.265 Q43.719 982.363 45.3422 985.1 Q46.9655 987.837 50.8804 987.837 Q53.9996 987.837 55.8457 985.8 Q57.6599 983.731 57.6599 980.198 Q57.6599 975.329 54.2224 972.4 Q50.7531 969.44 45.0239 969.44 L43.719 969.44 L43.719 975.265 M41.3 963.584 L61.6384 963.584 L61.6384 969.44 L56.2276 969.44 Q59.4741 971.445 61.0337 974.437 Q62.5615 977.429 62.5615 981.758 Q62.5615 987.232 59.5059 990.479 Q56.4186 993.694 51.2623 993.694 Q45.2467 993.694 42.1912 989.683 Q39.1357 985.641 39.1357 977.652 L39.1357 969.44 L38.5628 969.44 Q34.5205 969.44 32.3244 972.114 Q30.0964 974.756 30.0964 979.562 Q30.0964 982.617 30.8284 985.514 Q31.5605 988.41 33.0246 991.084 L27.6137 991.084 Q26.3724 987.869 25.7677 984.845 Q25.1311 981.822 25.1311 978.957 Q25.1311 971.223 29.1415 967.403 Q33.1519 963.584 41.3 963.584 Z" fill="#000000" fill-rule="evenodd" fill-opacity="1" /><path clip-path="url(#clip440)" d="M12.1132 951.744 L12.1132 945.855 L41.3637 945.855 L25.9905 928.381 L25.9905 920.902 L42.6686 939.808 L61.6384 920.106 L61.6384 927.745 L44.2282 945.855 L61.6384 945.855 L61.6384 951.744 L12.1132 951.744 Z" fill="#000000" fill-rule="evenodd" fill-opacity="1" /><path clip-path="url(#clip440)" d="M27.0408 870.326 L32.579 870.326 Q31.3059 872.809 30.6693 875.482 Q30.0327 878.156 30.0327 881.021 Q30.0327 885.381 31.3695 887.577 Q32.7063 889.742 35.3799 889.742 Q37.4169 889.742 38.5946 888.182 Q39.7404 886.622 40.7908 881.912 L41.2364 879.907 Q42.5732 873.668 45.0239 871.058 Q47.4429 868.416 51.8034 868.416 Q56.7687 868.416 59.6651 872.363 Q62.5615 876.278 62.5615 883.153 Q62.5615 886.018 61.9886 889.137 Q61.4475 892.224 60.3335 895.662 L54.2861 895.662 Q55.973 892.415 56.8323 889.264 Q57.6599 886.113 57.6599 883.026 Q57.6599 878.888 56.2594 876.66 Q54.8271 874.432 52.249 874.432 Q49.8619 874.432 48.5887 876.055 Q47.3156 877.647 46.1379 883.089 L45.6605 885.126 Q44.5147 890.569 42.1594 892.988 Q39.7722 895.407 35.6345 895.407 Q30.6056 895.407 27.8684 891.842 Q25.1311 888.277 25.1311 881.721 Q25.1311 878.474 25.6085 875.61 Q26.086 872.745 27.0408 870.326 Z" fill="#000000" fill-rule="evenodd" fill-opacity="1" /><path clip-path="url(#clip440)" d="M56.2912 853.425 L75.1974 853.425 L75.1974 859.314 L25.9905 859.314 L25.9905 853.425 L31.4013 853.425 Q28.2185 851.579 26.6907 848.778 Q25.1311 845.946 25.1311 842.031 Q25.1311 835.538 30.2873 831.495 Q35.4436 827.421 43.8463 827.421 Q52.249 827.421 57.4052 831.495 Q62.5615 835.538 62.5615 842.031 Q62.5615 845.946 61.0337 848.778 Q59.4741 851.579 56.2912 853.425 M43.8463 833.501 Q37.3851 833.501 33.7248 836.174 Q30.0327 838.816 30.0327 843.463 Q30.0327 848.11 33.7248 850.783 Q37.3851 853.425 43.8463 853.425 Q50.3075 853.425 53.9996 850.783 Q57.6599 848.11 57.6599 843.463 Q57.6599 838.816 53.9996 836.174 Q50.3075 833.501 43.8463 833.501 Z" fill="#000000" fill-rule="evenodd" fill-opacity="1" /><path clip-path="url(#clip440)" d="M42.3504 787.222 L45.2149 787.222 L45.2149 814.149 Q51.2623 813.767 54.4452 810.52 Q57.5962 807.242 57.5962 801.417 Q57.5962 798.044 56.7687 794.893 Q55.9411 791.71 54.2861 788.591 L59.8242 788.591 Q61.161 791.742 61.8612 795.052 Q62.5615 798.362 62.5615 801.768 Q62.5615 810.298 57.5962 815.295 Q52.631 820.26 44.1646 820.26 Q35.4117 820.26 30.2873 815.549 Q25.1311 810.807 25.1311 802.786 Q25.1311 795.593 29.7781 791.423 Q34.3932 787.222 42.3504 787.222 M40.6316 793.078 Q35.8255 793.142 32.9609 795.784 Q30.0964 798.394 30.0964 802.722 Q30.0964 807.624 32.8654 810.584 Q35.6345 813.512 40.6634 813.958 L40.6316 793.078 Z" fill="#000000" fill-rule="evenodd" fill-opacity="1" /><path clip-path="url(#clip440)" d="M42.3504 747.118 L45.2149 747.118 L45.2149 774.045 Q51.2623 773.663 54.4452 770.416 Q57.5962 767.138 57.5962 761.313 Q57.5962 757.94 56.7687 754.789 Q55.9411 751.606 54.2861 748.487 L59.8242 748.487 Q61.161 751.638 61.8612 754.948 Q62.5615 758.258 62.5615 761.664 Q62.5615 770.194 57.5962 775.191 Q52.631 780.156 44.1646 780.156 Q35.4117 780.156 30.2873 775.445 Q25.1311 770.703 25.1311 762.682 Q25.1311 755.489 29.7781 751.319 Q34.3932 747.118 42.3504 747.118 M40.6316 752.974 Q35.8255 753.038 32.9609 755.68 Q30.0964 758.29 30.0964 762.618 Q30.0964 767.52 32.8654 770.48 Q35.6345 773.408 40.6634 773.854 L40.6316 752.974 Z" fill="#000000" fill-rule="evenodd" fill-opacity="1" /><path clip-path="url(#clip440)" d="M31.4013 714.048 L12.1132 714.048 L12.1132 708.192 L61.6384 708.192 L61.6384 714.048 L56.2912 714.048 Q59.4741 715.894 61.0337 718.727 Q62.5615 721.528 62.5615 725.475 Q62.5615 731.936 57.4052 736.01 Q52.249 740.052 43.8463 740.052 Q35.4436 740.052 30.2873 736.01 Q25.1311 731.936 25.1311 725.475 Q25.1311 721.528 26.6907 718.727 Q28.2185 715.894 31.4013 714.048 M43.8463 734.005 Q50.3075 734.005 53.9996 731.363 Q57.6599 728.689 57.6599 724.042 Q57.6599 719.395 53.9996 716.722 Q50.3075 714.048 43.8463 714.048 Q37.3851 714.048 33.7248 716.722 Q30.0327 719.395 30.0327 724.042 Q30.0327 728.689 33.7248 731.363 Q37.3851 734.005 43.8463 734.005 Z" fill="#000000" fill-rule="evenodd" fill-opacity="1" /><polyline clip-path="url(#clip442)" style="stroke:#009af9; stroke-linecap:round; stroke-linejoin:round; stroke-width:0.8; stroke-opacity:1; fill:none" points="322.977,1686.38 472.995,1616.7 623.013,1561.28 773.031,1514.21 923.049,1472.8 1073.07,1435.54 1223.09,1401.5 1373.1,1370.03 1523.12,1340.69 1673.14,1313.14 1823.16,1287.12 1973.18,1262.44 2123.19,1238.94 2273.21,1216.47 2423.23,1194.94 2573.25,1174.24 "/>
<polyline clip-path="url(#clip442)" style="stroke:#e26f46; stroke-linecap:round; stroke-linejoin:round; stroke-width:0.8; stroke-opacity:1; fill:none" points="322.977,1578.91 472.995,1492.02 623.013,1422.31 773.031,1362.9 923.049,1310.56 1073.07,1263.47 1223.09,1220.45 1373.1,1180.72 1523.12,1143.71 1673.14,1108.99 1823.16,1076.23 1973.18,1045.19 2123.19,1015.65 2273.21,987.441 2423.23,960.423 2573.25,934.478 "/>
<polyline clip-path="url(#clip442)" style="stroke:#3da44d; stroke-linecap:round; stroke-linejoin:round; stroke-width:0.8; stroke-opacity:1; fill:none" points="322.977,1430.36 472.995,1329.62 623.013,1249.2 773.031,1180.7 923.049,1120.32 1073.07,1065.95 1223.09,1016.26 1373.1,970.328 1523.12,927.513 1673.14,887.329 1823.16,849.402 1973.18,813.438 2123.19,779.2 2273.21,746.494 2423.23,715.159 2573.25,685.059 "/>
<polyline clip-path="url(#clip442)" style="stroke:#c271d2; stroke-linecap:round; stroke-linejoin:round; stroke-width:0.8; stroke-opacity:1; fill:none" points="322.977,1384.29 472.995,1273.15 623.013,1184.8 773.031,1109.79 923.049,1043.82 1073.07,984.522 1223.09,930.395 1373.1,880.426 1523.12,833.891 1673.14,790.252 1823.16,749.092 1973.18,710.087 2123.19,672.973 2273.21,637.536 2423.23,603.598 2573.25,571.01 "/>
<polyline clip-path="url(#clip442)" style="stroke:#ac8d18; stroke-linecap:round; stroke-linejoin:round; stroke-width:0.8; stroke-opacity:1; fill:none" points="322.977,1330.69 472.995,1207.67 623.013,1110.7 773.031,1028.81 923.049,957.051 1073.07,892.707 1223.09,834.083 1373.1,780.037 1523.12,729.761 1673.14,682.652 1823.16,638.251 1973.18,596.197 2123.19,556.201 2273.21,518.028 2423.23,481.483 2573.25,446.401 "/>
<polyline clip-path="url(#clip442)" style="stroke:#00a9ad; stroke-linecap:round; stroke-linejoin:round; stroke-width:0.8; stroke-opacity:1; fill:none" points="322.977,1306.55 472.995,1176.35 623.013,1074.06 773.031,987.881 923.049,912.5 1073.07,844.997 1223.09,783.559 1373.1,726.967 1523.12,674.357 1673.14,625.088 1823.16,578.673 1973.18,534.729 2123.19,492.951 2273.21,453.087 2423.23,414.933 2573.25,378.316 "/>
<polyline clip-path="url(#clip442)" style="stroke:#ed5d92; stroke-linecap:round; stroke-linejoin:round; stroke-width:0.8; stroke-opacity:1; fill:none" points="322.977,1280.61 472.995,1142.51 623.013,1034.44 773.031,943.662 923.049,864.431 1073.07,793.596 1223.09,729.203 1373.1,669.946 1523.12,614.899 1673.14,563.381 1823.16,514.872 1973.18,468.964 2123.19,425.334 2273.21,383.718 2423.23,343.896 2573.25,305.687 "/>
<polyline clip-path="url(#clip442)" style="stroke:#c68125; stroke-linecap:round; stroke-linejoin:round; stroke-width:0.8; stroke-opacity:1; fill:none" points="322.977,1248.18 472.995,1097.14 623.013,979.321 773.031,880.697 923.049,794.87 1073.07,718.315 1223.09,648.85 1373.1,585.022 1523.12,525.802 1673.14,470.434 1823.16,418.346 1973.18,369.087 2123.19,322.303 2273.21,277.702 2423.23,235.045 2573.25,194.134 "/>
<polyline clip-path="url(#clip442)" style="stroke:#00a98d; stroke-linecap:round; stroke-linejoin:round; stroke-width:0.8; stroke-opacity:1; fill:none" points="322.977,1231.1 472.995,1070.75 623.013,945.568 773.031,840.889 923.049,749.913 1073.07,668.868 1223.09,595.412 1373.1,527.981 1523.12,465.47 1673.14,407.069 1823.16,352.161 1973.18,300.265 2123.19,251 2273.21,204.054 2423.23,159.173 2573.25,116.142 "/>
<polyline clip-path="url(#clip442)" style="stroke:#8e971d; stroke-linecap:round; stroke-linejoin:round; stroke-width:0.8; stroke-opacity:1; fill:none" points="322.977,1228.13 472.995,1065.37 623.013,938.128 773.031,831.667 923.049,739.136 1073.07,656.712 1223.09,582.017 1373.1,513.459 1523.12,449.914 1673.14,390.555 1823.16,334.755 1973.18,282.023 2123.19,231.97 2273.21,184.279 2423.23,138.69 2573.25,94.9858 "/>
<polyline clip-path="url(#clip442)" style="stroke:#00a8cb; stroke-linecap:round; stroke-linejoin:round; stroke-width:4; stroke-opacity:1; fill:none" points="322.977,1402.32 472.995,1297.88 623.013,1214.79 773.031,1144.24 923.049,1082.17 1073.07,1026.31 1223.09,975.278 1373.1,928.104 1523.12,884.119 1673.14,842.821 1823.16,803.824 1973.18,766.829 2123.19,731.592 2273.21,697.916 2423.23,665.636 2573.25,634.614 "/>
<polyline clip-path="url(#clip442)" style="stroke:#9b7fe8; stroke-linecap:round; stroke-linejoin:round; stroke-width:4; stroke-opacity:1; fill:none" points="322.977,1425.33 472.995,1318.7 623.013,1233.17 773.031,1160.28 923.049,1096.07 1073.07,1038.28 1223.09,985.497 1373.1,936.748 1523.12,891.334 1673.14,848.734 1823.16,808.547 1973.18,770.458 2123.19,734.211 2273.21,699.598 2423.23,666.448 2573.25,634.614 "/>
<polyline clip-path="url(#clip442)" style="stroke:#608cf6; stroke-linecap:round; stroke-linejoin:round; stroke-width:4; stroke-opacity:1; fill:none" points="322.977,1403.85 472.995,1299.88 623.013,1216.87 773.031,1146.17 923.049,1083.86 1073.07,1027.74 1223.09,976.452 1373.1,929.046 1523.12,884.856 1673.14,843.381 1823.16,804.236 1973.18,767.117 2123.19,731.779 2273.21,698.023 2423.23,665.681 2573.25,634.614 "/>
<polyline clip-path="url(#clip442)" style="stroke:#f05f73; stroke-linecap:round; stroke-linejoin:round; stroke-width:4; stroke-opacity:1; fill:none" points="322.977,1417.19 472.995,1310.24 623.013,1225.23 773.031,1153.05 923.049,1089.57 1073.07,1032.51 1223.09,980.43 1373.1,932.347 1523.12,887.57 1673.14,845.578 1823.16,805.973 1973.18,768.44 2123.19,732.727 2273.21,698.628 2423.23,665.972 2573.25,634.614 "/>
<polyline clip-path="url(#clip442)" style="stroke:#dd64b5; stroke-linecap:round; stroke-linejoin:round; stroke-width:4; stroke-opacity:1; fill:none" points="322.977,1426.91 472.995,1316.68 623.013,1229.81 773.031,1156.43 923.049,1092.14 1073.07,1034.49 1223.09,981.965 1373.1,933.542 1523.12,888.496 1673.14,846.287 1823.16,806.506 1973.18,768.827 2123.19,732.992 2273.21,698.79 2423.23,666.047 2573.25,634.614 "/>
<polyline clip-path="url(#clip442)" style="stroke:#6b9e32; stroke-linecap:round; stroke-linejoin:round; stroke-width:4; stroke-opacity:1; fill:none" points="322.977,1436.12 472.995,1323.7 623.013,1235.37 773.031,1160.96 923.049,1095.87 1073.07,1037.58 1223.09,984.531 1373.1,935.665 1523.12,890.237 1673.14,847.695 1823.16,807.617 1973.18,769.673 2123.19,733.599 2273.21,699.178 2423.23,666.233 2573.25,634.614 "/>
<polyline clip-path="url(#clip442)" style="stroke:#009af9; stroke-linecap:round; stroke-linejoin:round; stroke-width:4; stroke-opacity:1; fill:none" points="322.977,1445.07 472.995,1330.28 623.013,1240.44 773.031,1164.97 923.049,1099.1 1073.07,1040.22 1223.09,986.687 1373.1,937.426 1523.12,891.665 1673.14,848.838 1823.16,808.512 1973.18,770.349 2123.19,734.079 2273.21,699.482 2423.23,666.378 2573.25,634.614 "/>
<polyline clip-path="url(#clip442)" style="stroke:#e26f46; stroke-linecap:round; stroke-linejoin:round; stroke-width:4; stroke-opacity:1; fill:none" points="322.977,1463.43 472.995,1344.67 623.013,1252.02 773.031,1174.47 923.049,1106.99 1073.07,1046.79 1223.09,992.168 1373.1,941.978 1523.12,895.412 1673.14,851.876 1823.16,810.917 1973.18,772.184 2123.19,735.396 2273.21,700.326 2423.23,666.784 2573.25,634.614 "/>
<polyline clip-path="url(#clip442)" style="stroke:#3da44d; stroke-linecap:round; stroke-linejoin:round; stroke-width:4; stroke-opacity:1; fill:none" points="322.977,1479.37 472.995,1357.88 623.013,1263.04 773.031,1183.72 923.049,1114.8 1073.07,1053.39 1223.09,997.737 1373.1,946.647 1523.12,899.286 1673.14,855.038 1823.16,813.436 1973.18,774.117 2123.19,736.79 2273.21,701.222 2423.23,667.217 2573.25,634.614 "/>
<polyline clip-path="url(#clip442)" style="stroke:#c271d2; stroke-linecap:round; stroke-linejoin:round; stroke-width:4; stroke-opacity:1; fill:none" points="322.977,1484.74 472.995,1362.64 623.013,1267.17 773.031,1187.3 923.049,1117.88 1073.07,1056.04 1223.09,1000 1373.1,948.569 1523.12,900.895 1673.14,856.362 1823.16,814.498 1973.18,774.937 2123.19,737.385 2273.21,701.606 2423.23,667.403 2573.25,634.614 "/>
</svg>
