<?xml version="1.0" encoding="utf-8"?>
<svg xmlns="http://www.w3.org/2000/svg" xmlns:xlink="http://www.w3.org/1999/xlink" width="672" height="480" viewBox="0 0 2688 1920">
<defs>
  <clipPath id="clip490">
    <rect x="0" y="0" width="2688" height="1920"/>
  </clipPath>
</defs>
<path clip-path="url(#clip490)" d="M0 1920 L2688 1920 L2688 0 L0 0  Z" fill="#ffffff" fill-rule="evenodd" fill-opacity="1"/>
<defs>
  <clipPath id="clip491">
    <rect x="537" y="0" width="1883" height="1883"/>
  </clipPath>
</defs>
<path clip-path="url(#clip490)" d="M255.816 498.559 L2640.76 498.559 L2640.76 47.2441 L255.816 47.2441  Z" fill="#ffffff" fill-rule="evenodd" fill-opacity="1"/>
<defs>
  <clipPath id="clip492">
    <rect x="255" y="47" width="2386" height="452"/>
  </clipPath>
</defs>
<polyline clip-path="url(#clip490)" style="stroke:#000000; stroke-linecap:round; stroke-linejoin:round; stroke-width:4; stroke-opacity:1; fill:none" points="255.816,498.559 2640.76,498.559 "/>
<polyline clip-path="url(#clip490)" style="stroke:#000000; stroke-linecap:round; stroke-linejoin:round; stroke-width:4; stroke-opacity:1; fill:none" points="323.315,498.559 323.315,479.661 "/>
<polyline clip-path="url(#clip490)" style="stroke:#000000; stroke-linecap:round; stroke-linejoin:round; stroke-width:4; stroke-opacity:1; fill:none" points="885.8,498.559 885.8,479.661 "/>
<polyline clip-path="url(#clip490)" style="stroke:#000000; stroke-linecap:round; stroke-linejoin:round; stroke-width:4; stroke-opacity:1; fill:none" points="1448.29,498.559 1448.29,479.661 "/>
<polyline clip-path="url(#clip490)" style="stroke:#000000; stroke-linecap:round; stroke-linejoin:round; stroke-width:4; stroke-opacity:1; fill:none" points="2010.77,498.559 2010.77,479.661 "/>
<polyline clip-path="url(#clip490)" style="stroke:#000000; stroke-linecap:round; stroke-linejoin:round; stroke-width:4; stroke-opacity:1; fill:none" points="2573.26,498.559 2573.26,479.661 "/>
<path clip-path="url(#clip490)" d="M300.699 531.781 Q297.088 531.781 295.259 535.346 Q293.454 538.888 293.454 546.017 Q293.454 553.124 295.259 556.688 Q297.088 560.23 300.699 560.23 Q304.333 560.23 306.139 556.688 Q307.967 553.124 307.967 546.017 Q307.967 538.888 306.139 535.346 Q304.333 531.781 300.699 531.781 M300.699 528.078 Q306.509 528.078 309.565 532.684 Q312.643 537.267 312.643 546.017 Q312.643 554.744 309.565 559.351 Q306.509 563.934 300.699 563.934 Q294.889 563.934 291.81 559.351 Q288.755 554.744 288.755 546.017 Q288.755 537.267 291.81 532.684 Q294.889 528.078 300.699 528.078 Z" fill="#000000" fill-rule="evenodd" fill-opacity="1" /><path clip-path="url(#clip490)" d="M320.861 557.383 L325.745 557.383 L325.745 563.263 L320.861 563.263 L320.861 557.383 Z" fill="#000000" fill-rule="evenodd" fill-opacity="1" /><path clip-path="url(#clip490)" d="M345.93 531.781 Q342.319 531.781 340.49 535.346 Q338.685 538.888 338.685 546.017 Q338.685 553.124 340.49 556.688 Q342.319 560.23 345.93 560.23 Q349.564 560.23 351.37 556.688 Q353.199 553.124 353.199 546.017 Q353.199 538.888 351.37 535.346 Q349.564 531.781 345.93 531.781 M345.93 528.078 Q351.74 528.078 354.796 532.684 Q357.875 537.267 357.875 546.017 Q357.875 554.744 354.796 559.351 Q351.74 563.934 345.93 563.934 Q340.12 563.934 337.041 559.351 Q333.986 554.744 333.986 546.017 Q333.986 537.267 337.041 532.684 Q340.12 528.078 345.93 528.078 Z" fill="#000000" fill-rule="evenodd" fill-opacity="1" /><path clip-path="url(#clip490)" d="M857.537 559.327 L873.856 559.327 L873.856 563.263 L851.912 563.263 L851.912 559.327 Q854.574 556.573 859.157 551.943 Q863.763 547.29 864.944 545.948 Q867.189 543.425 868.069 541.689 Q868.972 539.929 868.972 538.24 Q868.972 535.485 867.027 533.749 Q865.106 532.013 862.004 532.013 Q859.805 532.013 857.351 532.777 Q854.921 533.54 852.143 535.091 L852.143 530.369 Q854.967 529.235 857.421 528.656 Q859.875 528.078 861.912 528.078 Q867.282 528.078 870.476 530.763 Q873.671 533.448 873.671 537.939 Q873.671 540.068 872.861 541.989 Q872.074 543.888 869.967 546.48 Q869.388 547.152 866.287 550.369 Q863.185 553.564 857.537 559.327 Z" fill="#000000" fill-rule="evenodd" fill-opacity="1" /><path clip-path="url(#clip490)" d="M883.671 557.383 L888.555 557.383 L888.555 563.263 L883.671 563.263 L883.671 557.383 Z" fill="#000000" fill-rule="evenodd" fill-opacity="1" /><path clip-path="url(#clip490)" d="M898.786 528.703 L917.143 528.703 L917.143 532.638 L903.069 532.638 L903.069 541.11 Q904.087 540.763 905.106 540.601 Q906.124 540.415 907.143 540.415 Q912.93 540.415 916.309 543.587 Q919.689 546.758 919.689 552.175 Q919.689 557.753 916.217 560.855 Q912.745 563.934 906.425 563.934 Q904.249 563.934 901.981 563.563 Q899.735 563.193 897.328 562.452 L897.328 557.753 Q899.411 558.888 901.634 559.443 Q903.856 559.999 906.333 559.999 Q910.337 559.999 912.675 557.892 Q915.013 555.786 915.013 552.175 Q915.013 548.564 912.675 546.457 Q910.337 544.351 906.333 544.351 Q904.458 544.351 902.583 544.767 Q900.731 545.184 898.786 546.064 L898.786 528.703 Z" fill="#000000" fill-rule="evenodd" fill-opacity="1" /><path clip-path="url(#clip490)" d="M1415.45 528.703 L1433.81 528.703 L1433.81 532.638 L1419.73 532.638 L1419.73 541.11 Q1420.75 540.763 1421.77 540.601 Q1422.79 540.415 1423.81 540.415 Q1429.59 540.415 1432.97 543.587 Q1436.35 546.758 1436.35 552.175 Q1436.35 557.753 1432.88 560.855 Q1429.41 563.934 1423.09 563.934 Q1420.91 563.934 1418.65 563.563 Q1416.4 563.193 1413.99 562.452 L1413.99 557.753 Q1416.08 558.888 1418.3 559.443 Q1420.52 559.999 1423 559.999 Q1427 559.999 1429.34 557.892 Q1431.68 555.786 1431.68 552.175 Q1431.68 548.564 1429.34 546.457 Q1427 544.351 1423 544.351 Q1421.12 544.351 1419.25 544.767 Q1417.4 545.184 1415.45 546.064 L1415.45 528.703 Z" fill="#000000" fill-rule="evenodd" fill-opacity="1" /><path clip-path="url(#clip490)" d="M1445.57 557.383 L1450.45 557.383 L1450.45 563.263 L1445.57 563.263 L1445.57 557.383 Z" fill="#000000" fill-rule="evenodd" fill-opacity="1" /><path clip-path="url(#clip490)" d="M1470.64 531.781 Q1467.02 531.781 1465.2 535.346 Q1463.39 538.888 1463.39 546.017 Q1463.39 553.124 1465.2 556.688 Q1467.02 560.23 1470.64 560.23 Q1474.27 560.23 1476.08 556.688 Q1477.9 553.124 1477.9 546.017 Q1477.9 538.888 1476.08 535.346 Q1474.27 531.781 1470.64 531.781 M1470.64 528.078 Q1476.45 528.078 1479.5 532.684 Q1482.58 537.267 1482.58 546.017 Q1482.58 554.744 1479.5 559.351 Q1476.45 563.934 1470.64 563.934 Q1464.83 563.934 1461.75 559.351 Q1458.69 554.744 1458.69 546.017 Q1458.69 537.267 1461.75 532.684 Q1464.83 528.078 1470.64 528.078 Z" fill="#000000" fill-rule="evenodd" fill-opacity="1" /><path clip-path="url(#clip490)" d="M1977.09 528.703 L1999.31 528.703 L1999.31 530.693 L1986.77 563.263 L1981.88 563.263 L1993.69 532.638 L1977.09 532.638 L1977.09 528.703 Z" fill="#000000" fill-rule="evenodd" fill-opacity="1" /><path clip-path="url(#clip490)" d="M2008.43 557.383 L2013.32 557.383 L2013.32 563.263 L2008.43 563.263 L2008.43 557.383 Z" fill="#000000" fill-rule="evenodd" fill-opacity="1" /><path clip-path="url(#clip490)" d="M2023.55 528.703 L2041.91 528.703 L2041.91 532.638 L2027.83 532.638 L2027.83 541.11 Q2028.85 540.763 2029.87 540.601 Q2030.89 540.415 2031.91 540.415 Q2037.69 540.415 2041.07 543.587 Q2044.45 546.758 2044.45 552.175 Q2044.45 557.753 2040.98 560.855 Q2037.51 563.934 2031.19 563.934 Q2029.01 563.934 2026.74 563.563 Q2024.5 563.193 2022.09 562.452 L2022.09 557.753 Q2024.17 558.888 2026.4 559.443 Q2028.62 559.999 2031.1 559.999 Q2035.1 559.999 2037.44 557.892 Q2039.78 555.786 2039.78 552.175 Q2039.78 548.564 2037.44 546.457 Q2035.1 544.351 2031.1 544.351 Q2029.22 544.351 2027.35 544.767 Q2025.49 545.184 2023.55 546.064 L2023.55 528.703 Z" fill="#000000" fill-rule="evenodd" fill-opacity="1" /><path clip-path="url(#clip490)" d="M2525.33 559.327 L2532.97 559.327 L2532.97 532.962 L2524.66 534.628 L2524.66 530.369 L2532.92 528.703 L2537.6 528.703 L2537.6 559.327 L2545.24 559.327 L2545.24 563.263 L2525.33 563.263 L2525.33 559.327 Z" fill="#000000" fill-rule="evenodd" fill-opacity="1" /><path clip-path="url(#clip490)" d="M2564.68 531.781 Q2561.07 531.781 2559.24 535.346 Q2557.44 538.888 2557.44 546.017 Q2557.44 553.124 2559.24 556.688 Q2561.07 560.23 2564.68 560.23 Q2568.32 560.23 2570.12 556.688 Q2571.95 553.124 2571.95 546.017 Q2571.95 538.888 2570.12 535.346 Q2568.32 531.781 2564.68 531.781 M2564.68 528.078 Q2570.49 528.078 2573.55 532.684 Q2576.63 537.267 2576.63 546.017 Q2576.63 554.744 2573.55 559.351 Q2570.49 563.934 2564.68 563.934 Q2558.87 563.934 2555.79 559.351 Q2552.74 554.744 2552.74 546.017 Q2552.74 537.267 2555.79 532.684 Q2558.87 528.078 2564.68 528.078 Z" fill="#000000" fill-rule="evenodd" fill-opacity="1" /><path clip-path="url(#clip490)" d="M2584.84 557.383 L2589.73 557.383 L2589.73 563.263 L2584.84 563.263 L2584.84 557.383 Z" fill="#000000" fill-rule="evenodd" fill-opacity="1" /><path clip-path="url(#clip490)" d="M2609.91 531.781 Q2606.3 531.781 2604.47 535.346 Q2602.67 538.888 2602.67 546.017 Q2602.67 553.124 2604.47 556.688 Q2606.3 560.23 2609.91 560.23 Q2613.55 560.23 2615.35 556.688 Q2617.18 553.124 2617.18 546.017 Q2617.18 538.888 2615.35 535.346 Q2613.55 531.781 2609.91 531.781 M2609.91 528.078 Q2615.72 528.078 2618.78 532.684 Q2621.86 537.267 2621.86 546.017 Q2621.86 554.744 2618.78 559.351 Q2615.72 563.934 2609.91 563.934 Q2604.1 563.934 2601.02 559.351 Q2597.97 554.744 2597.97 546.017 Q2597.97 537.267 2601.02 532.684 Q2604.1 528.078 2609.91 528.078 Z" fill="#000000" fill-rule="evenodd" fill-opacity="1" /><polyline clip-path="url(#clip490)" style="stroke:#000000; stroke-linecap:round; stroke-linejoin:round; stroke-width:4; stroke-opacity:1; fill:none" points="255.816,498.559 255.816,47.2441 "/>
<polyline clip-path="url(#clip490)" style="stroke:#000000; stroke-linecap:round; stroke-linejoin:round; stroke-width:4; stroke-opacity:1; fill:none" points="255.816,498.559 274.714,498.559 "/>
<polyline clip-path="url(#clip490)" style="stroke:#000000; stroke-linecap:round; stroke-linejoin:round; stroke-width:4; stroke-opacity:1; fill:none" points="255.816,377.883 274.714,377.883 "/>
<polyline clip-path="url(#clip490)" style="stroke:#000000; stroke-linecap:round; stroke-linejoin:round; stroke-width:4; stroke-opacity:1; fill:none" points="255.816,257.207 274.714,257.207 "/>
<polyline clip-path="url(#clip490)" style="stroke:#000000; stroke-linecap:round; stroke-linejoin:round; stroke-width:4; stroke-opacity:1; fill:none" points="255.816,136.532 274.714,136.532 "/>
<path clip-path="url(#clip490)" d="M158.321 484.357 Q154.71 484.357 152.881 487.922 Q151.075 491.464 151.075 498.593 Q151.075 505.7 152.881 509.264 Q154.71 512.806 158.321 512.806 Q161.955 512.806 163.76 509.264 Q165.589 505.7 165.589 498.593 Q165.589 491.464 163.76 487.922 Q161.955 484.357 158.321 484.357 M158.321 480.654 Q164.131 480.654 167.186 485.26 Q170.265 489.843 170.265 498.593 Q170.265 507.32 167.186 511.927 Q164.131 516.51 158.321 516.51 Q152.511 516.51 149.432 511.927 Q146.376 507.32 146.376 498.593 Q146.376 489.843 149.432 485.26 Q152.511 480.654 158.321 480.654 Z" fill="#000000" fill-rule="evenodd" fill-opacity="1" /><path clip-path="url(#clip490)" d="M178.483 509.959 L183.367 509.959 L183.367 515.839 L178.483 515.839 L178.483 509.959 Z" fill="#000000" fill-rule="evenodd" fill-opacity="1" /><path clip-path="url(#clip490)" d="M203.552 484.357 Q199.941 484.357 198.112 487.922 Q196.307 491.464 196.307 498.593 Q196.307 505.7 198.112 509.264 Q199.941 512.806 203.552 512.806 Q207.186 512.806 208.992 509.264 Q210.82 505.7 210.82 498.593 Q210.82 491.464 208.992 487.922 Q207.186 484.357 203.552 484.357 M203.552 480.654 Q209.362 480.654 212.418 485.26 Q215.496 489.843 215.496 498.593 Q215.496 507.32 212.418 511.927 Q209.362 516.51 203.552 516.51 Q197.742 516.51 194.663 511.927 Q191.608 507.32 191.608 498.593 Q191.608 489.843 194.663 485.26 Q197.742 480.654 203.552 480.654 Z" fill="#000000" fill-rule="evenodd" fill-opacity="1" /><path clip-path="url(#clip490)" d="M159.548 363.682 Q155.936 363.682 154.108 367.246 Q152.302 370.788 152.302 377.918 Q152.302 385.024 154.108 388.589 Q155.936 392.131 159.548 392.131 Q163.182 392.131 164.987 388.589 Q166.816 385.024 166.816 377.918 Q166.816 370.788 164.987 367.246 Q163.182 363.682 159.548 363.682 M159.548 359.978 Q165.358 359.978 168.413 364.584 Q171.492 369.168 171.492 377.918 Q171.492 386.644 168.413 391.251 Q165.358 395.834 159.548 395.834 Q153.737 395.834 150.659 391.251 Q147.603 386.644 147.603 377.918 Q147.603 369.168 150.659 364.584 Q153.737 359.978 159.548 359.978 Z" fill="#000000" fill-rule="evenodd" fill-opacity="1" /><path clip-path="url(#clip490)" d="M179.709 389.283 L184.594 389.283 L184.594 395.163 L179.709 395.163 L179.709 389.283 Z" fill="#000000" fill-rule="evenodd" fill-opacity="1" /><path clip-path="url(#clip490)" d="M195.589 391.228 L203.228 391.228 L203.228 364.862 L194.918 366.529 L194.918 362.27 L203.182 360.603 L207.857 360.603 L207.857 391.228 L215.496 391.228 L215.496 395.163 L195.589 395.163 L195.589 391.228 Z" fill="#000000" fill-rule="evenodd" fill-opacity="1" /><path clip-path="url(#clip490)" d="M159.918 243.006 Q156.307 243.006 154.478 246.571 Q152.673 250.112 152.673 257.242 Q152.673 264.348 154.478 267.913 Q156.307 271.455 159.918 271.455 Q163.552 271.455 165.358 267.913 Q167.186 264.348 167.186 257.242 Q167.186 250.112 165.358 246.571 Q163.552 243.006 159.918 243.006 M159.918 239.302 Q165.728 239.302 168.784 243.909 Q171.862 248.492 171.862 257.242 Q171.862 265.969 168.784 270.575 Q165.728 275.159 159.918 275.159 Q154.108 275.159 151.029 270.575 Q147.974 265.969 147.974 257.242 Q147.974 248.492 151.029 243.909 Q154.108 239.302 159.918 239.302 Z" fill="#000000" fill-rule="evenodd" fill-opacity="1" /><path clip-path="url(#clip490)" d="M180.08 268.608 L184.964 268.608 L184.964 274.487 L180.08 274.487 L180.08 268.608 Z" fill="#000000" fill-rule="evenodd" fill-opacity="1" /><path clip-path="url(#clip490)" d="M199.177 270.552 L215.496 270.552 L215.496 274.487 L193.552 274.487 L193.552 270.552 Q196.214 267.798 200.797 263.168 Q205.404 258.515 206.584 257.173 Q208.83 254.649 209.709 252.913 Q210.612 251.154 210.612 249.464 Q210.612 246.71 208.668 244.974 Q206.746 243.237 203.645 243.237 Q201.445 243.237 198.992 244.001 Q196.561 244.765 193.783 246.316 L193.783 241.594 Q196.608 240.46 199.061 239.881 Q201.515 239.302 203.552 239.302 Q208.922 239.302 212.117 241.987 Q215.311 244.673 215.311 249.163 Q215.311 251.293 214.501 253.214 Q213.714 255.112 211.607 257.705 Q211.029 258.376 207.927 261.594 Q204.825 264.788 199.177 270.552 Z" fill="#000000" fill-rule="evenodd" fill-opacity="1" /><path clip-path="url(#clip490)" d="M158.969 122.33 Q155.358 122.33 153.529 125.895 Q151.724 129.437 151.724 136.566 Q151.724 143.673 153.529 147.238 Q155.358 150.779 158.969 150.779 Q162.603 150.779 164.409 147.238 Q166.237 143.673 166.237 136.566 Q166.237 129.437 164.409 125.895 Q162.603 122.33 158.969 122.33 M158.969 118.627 Q164.779 118.627 167.835 123.233 Q170.913 127.816 170.913 136.566 Q170.913 145.293 167.835 149.9 Q164.779 154.483 158.969 154.483 Q153.159 154.483 150.08 149.9 Q147.024 145.293 147.024 136.566 Q147.024 127.816 150.08 123.233 Q153.159 118.627 158.969 118.627 Z" fill="#000000" fill-rule="evenodd" fill-opacity="1" /><path clip-path="url(#clip490)" d="M179.131 147.932 L184.015 147.932 L184.015 153.812 L179.131 153.812 L179.131 147.932 Z" fill="#000000" fill-rule="evenodd" fill-opacity="1" /><path clip-path="url(#clip490)" d="M208.367 135.178 Q211.723 135.895 213.598 138.164 Q215.496 140.432 215.496 143.765 Q215.496 148.881 211.978 151.682 Q208.459 154.483 201.978 154.483 Q199.802 154.483 197.487 154.043 Q195.196 153.626 192.742 152.77 L192.742 148.256 Q194.686 149.39 197.001 149.969 Q199.316 150.548 201.839 150.548 Q206.237 150.548 208.529 148.812 Q210.844 147.076 210.844 143.765 Q210.844 140.71 208.691 138.997 Q206.561 137.261 202.742 137.261 L198.714 137.261 L198.714 133.418 L202.927 133.418 Q206.376 133.418 208.205 132.053 Q210.033 130.664 210.033 128.071 Q210.033 125.409 208.135 123.997 Q206.26 122.562 202.742 122.562 Q200.82 122.562 198.621 122.979 Q196.422 123.395 193.783 124.275 L193.783 120.108 Q196.445 119.367 198.76 118.997 Q201.098 118.627 203.158 118.627 Q208.482 118.627 211.584 121.057 Q214.686 123.465 214.686 127.585 Q214.686 130.455 213.043 132.446 Q211.399 134.414 208.367 135.178 Z" fill="#000000" fill-rule="evenodd" fill-opacity="1" /><path clip-path="url(#clip490)" d="M91.8003 455.279 L44.2803 473.421 L44.2803 466.705 L84.2888 451.65 L44.2803 436.564 L44.2803 429.88 L91.8003 447.99 L91.8003 455.279 Z" fill="#000000" fill-rule="evenodd" fill-opacity="1" /><path clip-path="url(#clip490)" d="M62.9955 374.721 Q59.0488 372.525 57.1709 369.469 Q55.293 366.414 55.293 362.276 Q55.293 356.706 59.2079 353.682 Q63.091 350.658 70.2842 350.658 L91.8003 350.658 L91.8003 356.547 L70.4752 356.547 Q65.3508 356.547 62.8682 358.361 Q60.3856 360.175 60.3856 363.899 Q60.3856 368.451 63.4093 371.092 Q66.433 373.734 71.6529 373.734 L91.8003 373.734 L91.8003 379.622 L70.4752 379.622 Q65.319 379.622 62.8682 381.437 Q60.3856 383.251 60.3856 387.038 Q60.3856 391.526 63.4411 394.168 Q66.4648 396.81 71.6529 396.81 L91.8003 396.81 L91.8003 402.698 L56.1524 402.698 L56.1524 396.81 L61.6905 396.81 Q58.4122 394.805 56.8526 392.004 Q55.293 389.203 55.293 385.352 Q55.293 381.468 57.2664 378.763 Q59.2397 376.026 62.9955 374.721 Z" fill="#000000" fill-rule="evenodd" fill-opacity="1" /><path clip-path="url(#clip490)" d="M56.1524 338.977 L56.1524 333.121 L91.8003 333.121 L91.8003 338.977 L56.1524 338.977 M42.2751 338.977 L42.2751 333.121 L49.6912 333.121 L49.6912 338.977 L42.2751 338.977 Z" fill="#000000" fill-rule="evenodd" fill-opacity="1" /><path clip-path="url(#clip490)" d="M61.5632 297.409 L42.2751 297.409 L42.2751 291.553 L91.8003 291.553 L91.8003 297.409 L86.4531 297.409 Q89.636 299.255 91.1956 302.088 Q92.7233 304.889 92.7233 308.836 Q92.7233 315.297 87.5671 319.371 Q82.4109 323.413 74.0082 323.413 Q65.6054 323.413 60.4492 319.371 Q55.293 315.297 55.293 308.836 Q55.293 304.889 56.8526 302.088 Q58.3804 299.255 61.5632 297.409 M74.0082 317.366 Q80.4694 317.366 84.1615 314.724 Q87.8218 312.05 87.8218 307.403 Q87.8218 302.756 84.1615 300.083 Q80.4694 297.409 74.0082 297.409 Q67.547 297.409 63.8867 300.083 Q60.1946 302.756 60.1946 307.403 Q60.1946 312.05 63.8867 314.724 Q67.547 317.366 74.0082 317.366 Z" fill="#000000" fill-rule="evenodd" fill-opacity="1" /><path clip-path="url(#clip490)" d="M57.2027 256.764 L62.7409 256.764 Q61.4677 259.247 60.8312 261.92 Q60.1946 264.594 60.1946 267.459 Q60.1946 271.819 61.5314 274.015 Q62.8682 276.18 65.5418 276.18 Q67.5788 276.18 68.7565 274.62 Q69.9023 273.06 70.9526 268.35 L71.3982 266.345 Q72.735 260.106 75.1858 257.496 Q77.6048 254.855 81.9653 254.855 Q86.9306 254.855 89.8269 258.801 Q92.7233 262.716 92.7233 269.591 Q92.7233 272.456 92.1504 275.575 Q91.6093 278.662 90.4953 282.1 L84.4479 282.1 Q86.1348 278.853 86.9942 275.702 Q87.8218 272.551 87.8218 269.464 Q87.8218 265.326 86.4213 263.098 Q84.989 260.87 82.4109 260.87 Q80.0238 260.87 78.7506 262.493 Q77.4775 264.085 76.2998 269.527 L75.8224 271.565 Q74.6766 277.007 72.3213 279.426 Q69.9341 281.845 65.7964 281.845 Q60.7675 281.845 58.0302 278.28 Q55.293 274.716 55.293 268.159 Q55.293 264.912 55.7704 262.048 Q56.2478 259.183 57.2027 256.764 Z" fill="#000000" fill-rule="evenodd" fill-opacity="1" /><path clip-path="url(#clip490)" d="M46.0309 239.736 L56.1524 239.736 L56.1524 227.673 L60.7038 227.673 L60.7038 239.736 L80.0556 239.736 Q84.4161 239.736 85.6574 238.558 Q86.8987 237.349 86.8987 233.689 L86.8987 227.673 L91.8003 227.673 L91.8003 233.689 Q91.8003 240.468 89.2859 243.046 Q86.7396 245.624 80.0556 245.624 L60.7038 245.624 L60.7038 249.921 L56.1524 249.921 L56.1524 245.624 L46.0309 245.624 L46.0309 239.736 Z" fill="#000000" fill-rule="evenodd" fill-opacity="1" /><path clip-path="url(#clip490)" d="M73.8809 203.77 Q73.8809 210.868 75.5041 213.605 Q77.1274 216.342 81.0423 216.342 Q84.1615 216.342 86.0075 214.305 Q87.8218 212.236 87.8218 208.703 Q87.8218 203.833 84.3843 200.905 Q80.915 197.945 75.1858 197.945 L73.8809 197.945 L73.8809 203.77 M71.4619 192.089 L91.8003 192.089 L91.8003 197.945 L86.3895 197.945 Q89.636 199.95 91.1956 202.942 Q92.7233 205.934 92.7233 210.263 Q92.7233 215.737 89.6678 218.984 Q86.5804 222.198 81.4242 222.198 Q75.4086 222.198 72.3531 218.188 Q69.2975 214.146 69.2975 206.157 L69.2975 197.945 L68.7246 197.945 Q64.6824 197.945 62.4862 200.619 Q60.2582 203.26 60.2582 208.067 Q60.2582 211.122 60.9903 214.019 Q61.7224 216.915 63.1865 219.589 L57.7756 219.589 Q56.5343 216.374 55.9296 213.35 Q55.293 210.326 55.293 207.462 Q55.293 199.728 59.3034 195.908 Q63.3138 192.089 71.4619 192.089 Z" fill="#000000" fill-rule="evenodd" fill-opacity="1" /><path clip-path="url(#clip490)" d="M70.2842 150.393 L91.8003 150.393 L91.8003 156.25 L70.4752 156.25 Q65.4145 156.25 62.9 158.223 Q60.3856 160.196 60.3856 164.143 Q60.3856 168.886 63.4093 171.623 Q66.433 174.36 71.6529 174.36 L91.8003 174.36 L91.8003 180.248 L56.1524 180.248 L56.1524 174.36 L61.6905 174.36 Q58.4758 172.259 56.8844 169.427 Q55.293 166.562 55.293 162.838 Q55.293 156.695 59.1124 153.544 Q62.9 150.393 70.2842 150.393 Z" fill="#000000" fill-rule="evenodd" fill-opacity="1" /><path clip-path="url(#clip490)" d="M57.521 113.058 L62.9955 113.058 Q61.6269 115.541 60.9585 118.055 Q60.2582 120.538 60.2582 123.084 Q60.2582 128.782 63.8867 131.933 Q67.4833 135.084 74.0082 135.084 Q80.533 135.084 84.1615 131.933 Q87.7581 128.782 87.7581 123.084 Q87.7581 120.538 87.0897 118.055 Q86.3895 115.541 85.0208 113.058 L90.4317 113.058 Q91.5775 115.509 92.1504 118.151 Q92.7233 120.761 92.7233 123.721 Q92.7233 131.774 87.6626 136.516 Q82.6019 141.258 74.0082 141.258 Q65.2872 141.258 60.2901 136.484 Q55.293 131.678 55.293 123.339 Q55.293 120.634 55.8659 118.055 Q56.407 115.477 57.521 113.058 Z" fill="#000000" fill-rule="evenodd" fill-opacity="1" /><path clip-path="url(#clip490)" d="M72.5122 72.3816 L75.3768 72.3816 L75.3768 99.3085 Q81.4242 98.9266 84.6071 95.68 Q87.7581 92.4017 87.7581 86.5771 Q87.7581 83.2033 86.9306 80.0522 Q86.103 76.8694 84.4479 73.7502 L89.9861 73.7502 Q91.3229 76.9012 92.0231 80.2114 Q92.7233 83.5215 92.7233 86.9272 Q92.7233 95.4572 87.7581 100.454 Q82.7928 105.42 74.3265 105.42 Q65.5736 105.42 60.4492 100.709 Q55.293 95.9665 55.293 87.9457 Q55.293 80.7525 59.94 76.5829 Q64.5551 72.3816 72.5122 72.3816 M70.7935 78.238 Q65.9874 78.3017 63.1228 80.9434 Q60.2582 83.5534 60.2582 87.882 Q60.2582 92.7836 63.0273 95.7437 Q65.7964 98.6719 70.8253 99.1175 L70.7935 78.238 Z" fill="#000000" fill-rule="evenodd" fill-opacity="1" /><polyline clip-path="url(#clip492)" style="stroke:#009af9; stroke-linecap:round; stroke-linejoin:round; stroke-width:4; stroke-opacity:1; fill:none" points="323.315,498.559 323.315,250.975 548.309,133.987 773.303,85.2721 998.298,61.6048 1223.29,50.526 1448.29,47.2441 1673.28,50.4415 1898.27,61.4014 2123.27,84.8565 2348.26,133.108 2573.26,248.486 2573.26,498.559 "/>
<circle clip-path="url(#clip492)" cx="323.315" cy="498.559" r="14.4" fill="#009af9" fill-rule="evenodd" fill-opacity="1" stroke="#000000" stroke-opacity="1" stroke-width="3.84"/>
<circle clip-path="url(#clip492)" cx="323.315" cy="250.975" r="14.4" fill="#009af9" fill-rule="evenodd" fill-opacity="1" stroke="#000000" stroke-opacity="1" stroke-width="3.84"/>
<circle clip-path="url(#clip492)" cx="548.309" cy="133.987" r="14.4" fill="#009af9" fill-rule="evenodd" fill-opacity="1" stroke="#000000" stroke-opacity="1" stroke-width="3.84"/>
<circle clip-path="url(#clip492)" cx="773.303" cy="85.2721" r="14.4" fill="#009af9" fill-rule="evenodd" fill-opacity="1" stroke="#000000" stroke-opacity="1" stroke-width="3.84"/>
<circle clip-path="url(#clip492)" cx="998.298" cy="61.6048" r="14.4" fill="#009af9" fill-rule="evenodd" fill-opacity="1" stroke="#000000" stroke-opacity="1" stroke-width="3.84"/>
<circle clip-path="url(#clip492)" cx="1223.29" cy="50.526" r="14.4" fill="#009af9" fill-rule="evenodd" fill-opacity="1" stroke="#000000" stroke-opacity="1" stroke-width="3.84"/>
<circle clip-path="url(#clip492)" cx="1448.29" cy="47.2441" r="14.4" fill="#009af9" fill-rule="evenodd" fill-opacity="1" stroke="#000000" stroke-opacity="1" stroke-width="3.84"/>
<circle clip-path="url(#clip492)" cx="1673.28" cy="50.4415" r="14.4" fill="#009af9" fill-rule="evenodd" fill-opacity="1" stroke="#000000" stroke-opacity="1" stroke-width="3.84"/>
<circle clip-path="url(#clip492)" cx="1898.27" cy="61.4014" r="14.4" fill="#009af9" fill-rule="evenodd" fill-opacity="1" stroke="#000000" stroke-opacity="1" stroke-width="3.84"/>
<circle clip-path="url(#clip492)" cx="2123.27" cy="84.8565" r="14.4" fill="#009af9" fill-rule="evenodd" fill-opacity="1" stroke="#000000" stroke-opacity="1" stroke-width="3.84"/>
<circle clip-path="url(#clip492)" cx="2348.26" cy="133.108" r="14.4" fill="#009af9" fill-rule="evenodd" fill-opacity="1" stroke="#000000" stroke-opacity="1" stroke-width="3.84"/>
<circle clip-path="url(#clip492)" cx="2573.26" cy="248.486" r="14.4" fill="#009af9" fill-rule="evenodd" fill-opacity="1" stroke="#000000" stroke-opacity="1" stroke-width="3.84"/>
<circle clip-path="url(#clip492)" cx="2573.26" cy="498.559" r="14.4" fill="#009af9" fill-rule="evenodd" fill-opacity="1" stroke="#000000" stroke-opacity="1" stroke-width="3.84"/>
<path clip-path="url(#clip490)" d="M335.314 165.968 L626.239 165.968 L626.239 62.2879 L335.314 62.2879  Z" fill="#ffffff" fill-rule="evenodd" fill-opacity="1"/>
<polyline clip-path="url(#clip490)" style="stroke:#000000; stroke-linecap:round; stroke-linejoin:round; stroke-width:4; stroke-opacity:1; fill:none" points="335.314,165.968 626.239,165.968 626.239,62.2879 335.314,62.2879 335.314,165.968 "/>
<polyline clip-path="url(#clip490)" style="stroke:#009af9; stroke-linecap:round; stroke-linejoin:round; stroke-width:4; stroke-opacity:1; fill:none" points="361.814,114.128 520.81,114.128 "/>
<circle clip-path="url(#clip490)" cx="441.312" cy="114.128" r="22.0828" fill="#009af9" fill-rule="evenodd" fill-opacity="1" stroke="#000000" stroke-opacity="1" stroke-width="6.144"/>
<path clip-path="url(#clip490)" d="M561.151 133.815 Q559.346 138.445 557.633 139.857 Q555.92 141.269 553.05 141.269 L549.647 141.269 L549.647 137.704 L552.147 137.704 Q553.906 137.704 554.878 136.871 Q555.851 136.038 557.031 132.936 L557.795 130.991 L547.309 105.482 L551.823 105.482 L559.925 125.76 L568.026 105.482 L572.54 105.482 L561.151 133.815 Z" fill="#000000" fill-rule="evenodd" fill-opacity="1" /><path clip-path="url(#clip490)" d="M579.832 127.473 L587.471 127.473 L587.471 101.107 L579.161 102.774 L579.161 98.5146 L587.424 96.8479 L592.1 96.8479 L592.1 127.473 L599.739 127.473 L599.739 131.408 L579.832 131.408 L579.832 127.473 Z" fill="#000000" fill-rule="evenodd" fill-opacity="1" /><path clip-path="url(#clip490)" d="M255.816 1116.34 L2640.76 1116.34 L2640.76 665.023 L255.816 665.023  Z" fill="#ffffff" fill-rule="evenodd" fill-opacity="1"/>
<defs>
  <clipPath id="clip493">
    <rect x="255" y="665" width="2386" height="452"/>
  </clipPath>
</defs>
<polyline clip-path="url(#clip490)" style="stroke:#000000; stroke-linecap:round; stroke-linejoin:round; stroke-width:4; stroke-opacity:1; fill:none" points="255.816,1116.34 2640.76,1116.34 "/>
<polyline clip-path="url(#clip490)" style="stroke:#000000; stroke-linecap:round; stroke-linejoin:round; stroke-width:4; stroke-opacity:1; fill:none" points="660.806,1116.34 660.806,1097.44 "/>
<polyline clip-path="url(#clip490)" style="stroke:#000000; stroke-linecap:round; stroke-linejoin:round; stroke-width:4; stroke-opacity:1; fill:none" points="1110.79,1116.34 1110.79,1097.44 "/>
<polyline clip-path="url(#clip490)" style="stroke:#000000; stroke-linecap:round; stroke-linejoin:round; stroke-width:4; stroke-opacity:1; fill:none" points="1560.78,1116.34 1560.78,1097.44 "/>
<polyline clip-path="url(#clip490)" style="stroke:#000000; stroke-linecap:round; stroke-linejoin:round; stroke-width:4; stroke-opacity:1; fill:none" points="2010.77,1116.34 2010.77,1097.44 "/>
<polyline clip-path="url(#clip490)" style="stroke:#000000; stroke-linecap:round; stroke-linejoin:round; stroke-width:4; stroke-opacity:1; fill:none" points="2460.76,1116.34 2460.76,1097.44 "/>
<path clip-path="url(#clip490)" d="M655.459 1177.11 L671.778 1177.11 L671.778 1181.04 L649.834 1181.04 L649.834 1177.11 Q652.496 1174.35 657.079 1169.72 Q661.686 1165.07 662.866 1163.73 Q665.112 1161.2 665.991 1159.47 Q666.894 1157.71 666.894 1156.02 Q666.894 1153.26 664.95 1151.53 Q663.028 1149.79 659.926 1149.79 Q657.727 1149.79 655.274 1150.56 Q652.843 1151.32 650.065 1152.87 L650.065 1148.15 Q652.889 1147.01 655.343 1146.44 Q657.797 1145.86 659.834 1145.86 Q665.204 1145.86 668.399 1148.54 Q671.593 1151.23 671.593 1155.72 Q671.593 1157.85 670.783 1159.77 Q669.996 1161.67 667.889 1164.26 Q667.311 1164.93 664.209 1168.15 Q661.107 1171.34 655.459 1177.11 Z" fill="#000000" fill-rule="evenodd" fill-opacity="1" /><path clip-path="url(#clip490)" d="M1113.8 1150.56 L1102 1169 L1113.8 1169 L1113.8 1150.56 M1112.58 1146.48 L1118.46 1146.48 L1118.46 1169 L1123.39 1169 L1123.39 1172.89 L1118.46 1172.89 L1118.46 1181.04 L1113.8 1181.04 L1113.8 1172.89 L1098.2 1172.89 L1098.2 1168.38 L1112.58 1146.48 Z" fill="#000000" fill-rule="evenodd" fill-opacity="1" /><path clip-path="url(#clip490)" d="M1561.19 1161.9 Q1558.04 1161.9 1556.19 1164.05 Q1554.36 1166.2 1554.36 1169.95 Q1554.36 1173.68 1556.19 1175.86 Q1558.04 1178.01 1561.19 1178.01 Q1564.34 1178.01 1566.17 1175.86 Q1568.02 1173.68 1568.02 1169.95 Q1568.02 1166.2 1566.17 1164.05 Q1564.34 1161.9 1561.19 1161.9 M1570.47 1147.25 L1570.47 1151.5 Q1568.71 1150.67 1566.91 1150.23 Q1565.12 1149.79 1563.36 1149.79 Q1558.73 1149.79 1556.28 1152.92 Q1553.85 1156.04 1553.5 1162.36 Q1554.87 1160.35 1556.93 1159.28 Q1558.99 1158.19 1561.47 1158.19 Q1566.67 1158.19 1569.68 1161.37 Q1572.72 1164.51 1572.72 1169.95 Q1572.72 1175.28 1569.57 1178.5 Q1566.42 1181.71 1561.19 1181.71 Q1555.19 1181.71 1552.02 1177.13 Q1548.85 1172.52 1548.85 1163.8 Q1548.85 1155.6 1552.74 1150.74 Q1556.63 1145.86 1563.18 1145.86 Q1564.94 1145.86 1566.72 1146.2 Q1568.53 1146.55 1570.47 1147.25 Z" fill="#000000" fill-rule="evenodd" fill-opacity="1" /><path clip-path="url(#clip490)" d="M2010.77 1164.63 Q2007.44 1164.63 2005.52 1166.41 Q2003.62 1168.19 2003.62 1171.32 Q2003.62 1174.44 2005.52 1176.23 Q2007.44 1178.01 2010.77 1178.01 Q2014.11 1178.01 2016.03 1176.23 Q2017.95 1174.42 2017.95 1171.32 Q2017.95 1168.19 2016.03 1166.41 Q2014.13 1164.63 2010.77 1164.63 M2006.1 1162.64 Q2003.09 1161.9 2001.4 1159.84 Q1999.73 1157.78 1999.73 1154.82 Q1999.73 1150.67 2002.67 1148.26 Q2005.63 1145.86 2010.77 1145.86 Q2015.93 1145.86 2018.87 1148.26 Q2021.81 1150.67 2021.81 1154.82 Q2021.81 1157.78 2020.12 1159.84 Q2018.46 1161.9 2015.47 1162.64 Q2018.85 1163.43 2020.73 1165.72 Q2022.62 1168.01 2022.62 1171.32 Q2022.62 1176.34 2019.54 1179.03 Q2016.49 1181.71 2010.77 1181.71 Q2005.05 1181.71 2001.98 1179.03 Q1998.92 1176.34 1998.92 1171.32 Q1998.92 1168.01 2000.82 1165.72 Q2002.72 1163.43 2006.1 1162.64 M2004.38 1155.25 Q2004.38 1157.94 2006.05 1159.44 Q2007.74 1160.95 2010.77 1160.95 Q2013.78 1160.95 2015.47 1159.44 Q2017.18 1157.94 2017.18 1155.25 Q2017.18 1152.57 2015.47 1151.07 Q2013.78 1149.56 2010.77 1149.56 Q2007.74 1149.56 2006.05 1151.07 Q2004.38 1152.57 2004.38 1155.25 Z" fill="#000000" fill-rule="evenodd" fill-opacity="1" /><path clip-path="url(#clip490)" d="M2435.45 1177.11 L2443.09 1177.11 L2443.09 1150.74 L2434.78 1152.41 L2434.78 1148.15 L2443.04 1146.48 L2447.72 1146.48 L2447.72 1177.11 L2455.36 1177.11 L2455.36 1181.04 L2435.45 1181.04 L2435.45 1177.11 Z" fill="#000000" fill-rule="evenodd" fill-opacity="1" /><path clip-path="url(#clip490)" d="M2474.8 1149.56 Q2471.19 1149.56 2469.36 1153.13 Q2467.55 1156.67 2467.55 1163.8 Q2467.55 1170.9 2469.36 1174.47 Q2471.19 1178.01 2474.8 1178.01 Q2478.43 1178.01 2480.24 1174.47 Q2482.07 1170.9 2482.07 1163.8 Q2482.07 1156.67 2480.24 1153.13 Q2478.43 1149.56 2474.8 1149.56 M2474.8 1145.86 Q2480.61 1145.86 2483.67 1150.46 Q2486.74 1155.05 2486.74 1163.8 Q2486.74 1172.52 2483.67 1177.13 Q2480.61 1181.71 2474.8 1181.71 Q2468.99 1181.71 2465.91 1177.13 Q2462.86 1172.52 2462.86 1163.8 Q2462.86 1155.05 2465.91 1150.46 Q2468.99 1145.86 2474.8 1145.86 Z" fill="#000000" fill-rule="evenodd" fill-opacity="1" /><polyline clip-path="url(#clip490)" style="stroke:#000000; stroke-linecap:round; stroke-linejoin:round; stroke-width:4; stroke-opacity:1; fill:none" points="255.816,1116.34 255.816,665.023 "/>
<polyline clip-path="url(#clip490)" style="stroke:#000000; stroke-linecap:round; stroke-linejoin:round; stroke-width:4; stroke-opacity:1; fill:none" points="255.816,1116.34 274.714,1116.34 "/>
<polyline clip-path="url(#clip490)" style="stroke:#000000; stroke-linecap:round; stroke-linejoin:round; stroke-width:4; stroke-opacity:1; fill:none" points="255.816,1020.62 274.714,1020.62 "/>
<polyline clip-path="url(#clip490)" style="stroke:#000000; stroke-linecap:round; stroke-linejoin:round; stroke-width:4; stroke-opacity:1; fill:none" points="255.816,924.911 274.714,924.911 "/>
<polyline clip-path="url(#clip490)" style="stroke:#000000; stroke-linecap:round; stroke-linejoin:round; stroke-width:4; stroke-opacity:1; fill:none" points="255.816,829.198 274.714,829.198 "/>
<polyline clip-path="url(#clip490)" style="stroke:#000000; stroke-linecap:round; stroke-linejoin:round; stroke-width:4; stroke-opacity:1; fill:none" points="255.816,733.485 274.714,733.485 "/>
<path clip-path="url(#clip490)" d="M128.159 1102.14 Q124.548 1102.14 122.719 1105.7 Q120.913 1109.24 120.913 1116.37 Q120.913 1123.48 122.719 1127.04 Q124.548 1130.59 128.159 1130.59 Q131.793 1130.59 133.599 1127.04 Q135.427 1123.48 135.427 1116.37 Q135.427 1109.24 133.599 1105.7 Q131.793 1102.14 128.159 1102.14 M128.159 1098.43 Q133.969 1098.43 137.025 1103.04 Q140.103 1107.62 140.103 1116.37 Q140.103 1125.1 137.025 1129.71 Q133.969 1134.29 128.159 1134.29 Q122.349 1134.29 119.27 1129.71 Q116.214 1125.1 116.214 1116.37 Q116.214 1107.62 119.27 1103.04 Q122.349 1098.43 128.159 1098.43 Z" fill="#000000" fill-rule="evenodd" fill-opacity="1" /><path clip-path="url(#clip490)" d="M148.321 1127.74 L153.205 1127.74 L153.205 1133.62 L148.321 1133.62 L148.321 1127.74 Z" fill="#000000" fill-rule="evenodd" fill-opacity="1" /><path clip-path="url(#clip490)" d="M173.39 1102.14 Q169.779 1102.14 167.95 1105.7 Q166.145 1109.24 166.145 1116.37 Q166.145 1123.48 167.95 1127.04 Q169.779 1130.59 173.39 1130.59 Q177.024 1130.59 178.83 1127.04 Q180.659 1123.48 180.659 1116.37 Q180.659 1109.24 178.83 1105.7 Q177.024 1102.14 173.39 1102.14 M173.39 1098.43 Q179.2 1098.43 182.256 1103.04 Q185.334 1107.62 185.334 1116.37 Q185.334 1125.1 182.256 1129.71 Q179.2 1134.29 173.39 1134.29 Q167.58 1134.29 164.501 1129.71 Q161.446 1125.1 161.446 1116.37 Q161.446 1107.62 164.501 1103.04 Q167.58 1098.43 173.39 1098.43 Z" fill="#000000" fill-rule="evenodd" fill-opacity="1" /><path clip-path="url(#clip490)" d="M203.552 1102.14 Q199.941 1102.14 198.112 1105.7 Q196.307 1109.24 196.307 1116.37 Q196.307 1123.48 198.112 1127.04 Q199.941 1130.59 203.552 1130.59 Q207.186 1130.59 208.992 1127.04 Q210.82 1123.48 210.82 1116.37 Q210.82 1109.24 208.992 1105.7 Q207.186 1102.14 203.552 1102.14 M203.552 1098.43 Q209.362 1098.43 212.418 1103.04 Q215.496 1107.62 215.496 1116.37 Q215.496 1125.1 212.418 1129.71 Q209.362 1134.29 203.552 1134.29 Q197.742 1134.29 194.663 1129.71 Q191.608 1125.1 191.608 1116.37 Q191.608 1107.62 194.663 1103.04 Q197.742 1098.43 203.552 1098.43 Z" fill="#000000" fill-rule="evenodd" fill-opacity="1" /><path clip-path="url(#clip490)" d="M129.154 1006.42 Q125.543 1006.42 123.714 1009.99 Q121.909 1013.53 121.909 1020.66 Q121.909 1027.77 123.714 1031.33 Q125.543 1034.87 129.154 1034.87 Q132.788 1034.87 134.594 1031.33 Q136.423 1027.77 136.423 1020.66 Q136.423 1013.53 134.594 1009.99 Q132.788 1006.42 129.154 1006.42 M129.154 1002.72 Q134.964 1002.72 138.02 1007.33 Q141.099 1011.91 141.099 1020.66 Q141.099 1029.39 138.02 1033.99 Q134.964 1038.58 129.154 1038.58 Q123.344 1038.58 120.265 1033.99 Q117.21 1029.39 117.21 1020.66 Q117.21 1011.91 120.265 1007.33 Q123.344 1002.72 129.154 1002.72 Z" fill="#000000" fill-rule="evenodd" fill-opacity="1" /><path clip-path="url(#clip490)" d="M149.316 1032.03 L154.2 1032.03 L154.2 1037.9 L149.316 1037.9 L149.316 1032.03 Z" fill="#000000" fill-rule="evenodd" fill-opacity="1" /><path clip-path="url(#clip490)" d="M174.385 1006.42 Q170.774 1006.42 168.946 1009.99 Q167.14 1013.53 167.14 1020.66 Q167.14 1027.77 168.946 1031.33 Q170.774 1034.87 174.385 1034.87 Q178.02 1034.87 179.825 1031.33 Q181.654 1027.77 181.654 1020.66 Q181.654 1013.53 179.825 1009.99 Q178.02 1006.42 174.385 1006.42 M174.385 1002.72 Q180.196 1002.72 183.251 1007.33 Q186.33 1011.91 186.33 1020.66 Q186.33 1029.39 183.251 1033.99 Q180.196 1038.58 174.385 1038.58 Q168.575 1038.58 165.497 1033.99 Q162.441 1029.39 162.441 1020.66 Q162.441 1011.91 165.497 1007.33 Q168.575 1002.72 174.385 1002.72 Z" fill="#000000" fill-rule="evenodd" fill-opacity="1" /><path clip-path="url(#clip490)" d="M194.594 1003.34 L212.95 1003.34 L212.95 1007.28 L198.876 1007.28 L198.876 1015.75 Q199.895 1015.4 200.913 1015.24 Q201.932 1015.06 202.95 1015.06 Q208.737 1015.06 212.117 1018.23 Q215.496 1021.4 215.496 1026.82 Q215.496 1032.4 212.024 1035.5 Q208.552 1038.58 202.233 1038.58 Q200.057 1038.58 197.788 1038.21 Q195.543 1037.84 193.135 1037.09 L193.135 1032.4 Q195.219 1033.53 197.441 1034.09 Q199.663 1034.64 202.14 1034.64 Q206.145 1034.64 208.482 1032.53 Q210.82 1030.43 210.82 1026.82 Q210.82 1023.21 208.482 1021.1 Q206.145 1018.99 202.14 1018.99 Q200.265 1018.99 198.39 1019.41 Q196.538 1019.83 194.594 1020.71 L194.594 1003.34 Z" fill="#000000" fill-rule="evenodd" fill-opacity="1" /><path clip-path="url(#clip490)" d="M128.159 910.71 Q124.548 910.71 122.719 914.275 Q120.913 917.817 120.913 924.946 Q120.913 932.053 122.719 935.617 Q124.548 939.159 128.159 939.159 Q131.793 939.159 133.599 935.617 Q135.427 932.053 135.427 924.946 Q135.427 917.817 133.599 914.275 Q131.793 910.71 128.159 910.71 M128.159 907.006 Q133.969 907.006 137.025 911.613 Q140.103 916.196 140.103 924.946 Q140.103 933.673 137.025 938.279 Q133.969 942.863 128.159 942.863 Q122.349 942.863 119.27 938.279 Q116.214 933.673 116.214 924.946 Q116.214 916.196 119.27 911.613 Q122.349 907.006 128.159 907.006 Z" fill="#000000" fill-rule="evenodd" fill-opacity="1" /><path clip-path="url(#clip490)" d="M148.321 936.312 L153.205 936.312 L153.205 942.191 L148.321 942.191 L148.321 936.312 Z" fill="#000000" fill-rule="evenodd" fill-opacity="1" /><path clip-path="url(#clip490)" d="M164.2 938.256 L171.839 938.256 L171.839 911.891 L163.529 913.557 L163.529 909.298 L171.793 907.631 L176.469 907.631 L176.469 938.256 L184.108 938.256 L184.108 942.191 L164.2 942.191 L164.2 938.256 Z" fill="#000000" fill-rule="evenodd" fill-opacity="1" /><path clip-path="url(#clip490)" d="M203.552 910.71 Q199.941 910.71 198.112 914.275 Q196.307 917.817 196.307 924.946 Q196.307 932.053 198.112 935.617 Q199.941 939.159 203.552 939.159 Q207.186 939.159 208.992 935.617 Q210.82 932.053 210.82 924.946 Q210.82 917.817 208.992 914.275 Q207.186 910.71 203.552 910.71 M203.552 907.006 Q209.362 907.006 212.418 911.613 Q215.496 916.196 215.496 924.946 Q215.496 933.673 212.418 938.279 Q209.362 942.863 203.552 942.863 Q197.742 942.863 194.663 938.279 Q191.608 933.673 191.608 924.946 Q191.608 916.196 194.663 911.613 Q197.742 907.006 203.552 907.006 Z" fill="#000000" fill-rule="evenodd" fill-opacity="1" /><path clip-path="url(#clip490)" d="M129.154 814.997 Q125.543 814.997 123.714 818.562 Q121.909 822.103 121.909 829.233 Q121.909 836.339 123.714 839.904 Q125.543 843.446 129.154 843.446 Q132.788 843.446 134.594 839.904 Q136.423 836.339 136.423 829.233 Q136.423 822.103 134.594 818.562 Q132.788 814.997 129.154 814.997 M129.154 811.293 Q134.964 811.293 138.02 815.9 Q141.099 820.483 141.099 829.233 Q141.099 837.96 138.02 842.566 Q134.964 847.15 129.154 847.15 Q123.344 847.15 120.265 842.566 Q117.21 837.96 117.21 829.233 Q117.21 820.483 120.265 815.9 Q123.344 811.293 129.154 811.293 Z" fill="#000000" fill-rule="evenodd" fill-opacity="1" /><path clip-path="url(#clip490)" d="M149.316 840.599 L154.2 840.599 L154.2 846.478 L149.316 846.478 L149.316 840.599 Z" fill="#000000" fill-rule="evenodd" fill-opacity="1" /><path clip-path="url(#clip490)" d="M165.196 842.543 L172.835 842.543 L172.835 816.178 L164.524 817.844 L164.524 813.585 L172.788 811.918 L177.464 811.918 L177.464 842.543 L185.103 842.543 L185.103 846.478 L165.196 846.478 L165.196 842.543 Z" fill="#000000" fill-rule="evenodd" fill-opacity="1" /><path clip-path="url(#clip490)" d="M194.594 811.918 L212.95 811.918 L212.95 815.853 L198.876 815.853 L198.876 824.326 Q199.895 823.978 200.913 823.816 Q201.932 823.631 202.95 823.631 Q208.737 823.631 212.117 826.803 Q215.496 829.974 215.496 835.39 Q215.496 840.969 212.024 844.071 Q208.552 847.15 202.233 847.15 Q200.057 847.15 197.788 846.779 Q195.543 846.409 193.135 845.668 L193.135 840.969 Q195.219 842.103 197.441 842.659 Q199.663 843.214 202.14 843.214 Q206.145 843.214 208.482 841.108 Q210.82 839.002 210.82 835.39 Q210.82 831.779 208.482 829.673 Q206.145 827.566 202.14 827.566 Q200.265 827.566 198.39 827.983 Q196.538 828.4 194.594 829.279 L194.594 811.918 Z" fill="#000000" fill-rule="evenodd" fill-opacity="1" /><path clip-path="url(#clip490)" d="M128.159 719.284 Q124.548 719.284 122.719 722.849 Q120.913 726.39 120.913 733.52 Q120.913 740.626 122.719 744.191 Q124.548 747.733 128.159 747.733 Q131.793 747.733 133.599 744.191 Q135.427 740.626 135.427 733.52 Q135.427 726.39 133.599 722.849 Q131.793 719.284 128.159 719.284 M128.159 715.58 Q133.969 715.58 137.025 720.187 Q140.103 724.77 140.103 733.52 Q140.103 742.247 137.025 746.853 Q133.969 751.436 128.159 751.436 Q122.349 751.436 119.27 746.853 Q116.214 742.247 116.214 733.52 Q116.214 724.77 119.27 720.187 Q122.349 715.58 128.159 715.58 Z" fill="#000000" fill-rule="evenodd" fill-opacity="1" /><path clip-path="url(#clip490)" d="M148.321 744.886 L153.205 744.886 L153.205 750.765 L148.321 750.765 L148.321 744.886 Z" fill="#000000" fill-rule="evenodd" fill-opacity="1" /><path clip-path="url(#clip490)" d="M167.418 746.83 L183.737 746.83 L183.737 750.765 L161.793 750.765 L161.793 746.83 Q164.455 744.075 169.038 739.446 Q173.645 734.793 174.825 733.45 Q177.071 730.927 177.95 729.191 Q178.853 727.432 178.853 725.742 Q178.853 722.988 176.909 721.251 Q174.987 719.515 171.885 719.515 Q169.686 719.515 167.233 720.279 Q164.802 721.043 162.024 722.594 L162.024 717.872 Q164.848 716.738 167.302 716.159 Q169.756 715.58 171.793 715.58 Q177.163 715.58 180.358 718.265 Q183.552 720.951 183.552 725.441 Q183.552 727.571 182.742 729.492 Q181.955 731.39 179.848 733.983 Q179.27 734.654 176.168 737.872 Q173.066 741.066 167.418 746.83 Z" fill="#000000" fill-rule="evenodd" fill-opacity="1" /><path clip-path="url(#clip490)" d="M203.552 719.284 Q199.941 719.284 198.112 722.849 Q196.307 726.39 196.307 733.52 Q196.307 740.626 198.112 744.191 Q199.941 747.733 203.552 747.733 Q207.186 747.733 208.992 744.191 Q210.82 740.626 210.82 733.52 Q210.82 726.39 208.992 722.849 Q207.186 719.284 203.552 719.284 M203.552 715.58 Q209.362 715.58 212.418 720.187 Q215.496 724.77 215.496 733.52 Q215.496 742.247 212.418 746.853 Q209.362 751.436 203.552 751.436 Q197.742 751.436 194.663 746.853 Q191.608 742.247 191.608 733.52 Q191.608 724.77 194.663 720.187 Q197.742 715.58 203.552 715.58 Z" fill="#000000" fill-rule="evenodd" fill-opacity="1" /><path clip-path="url(#clip490)" d="M19.402 899.593 L37.2578 899.593 L37.2578 891.508 Q37.2578 887.02 34.9343 884.569 Q32.6108 882.119 28.314 882.119 Q24.0489 882.119 21.7255 884.569 Q19.402 887.02 19.402 891.508 L19.402 899.593 M14.1184 906.022 L14.1184 891.508 Q14.1184 883.519 17.7469 879.445 Q21.3435 875.339 28.314 875.339 Q35.3481 875.339 38.9447 879.445 Q42.5413 883.519 42.5413 891.508 L42.5413 899.593 L61.6384 899.593 L61.6384 906.022 L14.1184 906.022 Z" fill="#000000" fill-rule="evenodd" fill-opacity="1" /><polyline clip-path="url(#clip493)" style="stroke:#009af9; stroke-linecap:round; stroke-linejoin:round; stroke-width:4; stroke-opacity:1; fill:none" points="323.315,723.6 435.812,665.023 660.806,712.767 885.8,733.613 1110.79,745.529 1335.79,754.754 1560.78,765.022 1785.78,780.194 2010.77,806.311 2235.77,855.625 2460.76,961.07 "/>
<circle clip-path="url(#clip493)" cx="323.315" cy="723.6" r="14.4" fill="#009af9" fill-rule="evenodd" fill-opacity="1" stroke="#000000" stroke-opacity="1" stroke-width="3.84"/>
<circle clip-path="url(#clip493)" cx="435.812" cy="665.023" r="14.4" fill="#009af9" fill-rule="evenodd" fill-opacity="1" stroke="#000000" stroke-opacity="1" stroke-width="3.84"/>
<circle clip-path="url(#clip493)" cx="660.806" cy="712.767" r="14.4" fill="#009af9" fill-rule="evenodd" fill-opacity="1" stroke="#000000" stroke-opacity="1" stroke-width="3.84"/>
<circle clip-path="url(#clip493)" cx="885.8" cy="733.613" r="14.4" fill="#009af9" fill-rule="evenodd" fill-opacity="1" stroke="#000000" stroke-opacity="1" stroke-width="3.84"/>
<circle clip-path="url(#clip493)" cx="1110.79" cy="745.529" r="14.4" fill="#009af9" fill-rule="evenodd" fill-opacity="1" stroke="#000000" stroke-opacity="1" stroke-width="3.84"/>
<circle clip-path="url(#clip493)" cx="1335.79" cy="754.754" r="14.4" fill="#009af9" fill-rule="evenodd" fill-opacity="1" stroke="#000000" stroke-opacity="1" stroke-width="3.84"/>
<circle clip-path="url(#clip493)" cx="1560.78" cy="765.022" r="14.4" fill="#009af9" fill-rule="evenodd" fill-opacity="1" stroke="#000000" stroke-opacity="1" stroke-width="3.84"/>
<circle clip-path="url(#clip493)" cx="1785.78" cy="780.194" r="14.4" fill="#009af9" fill-rule="evenodd" fill-opacity="1" stroke="#000000" stroke-opacity="1" stroke-width="3.84"/>
<circle clip-path="url(#clip493)" cx="2010.77" cy="806.311" r="14.4" fill="#009af9" fill-rule="evenodd" fill-opacity="1" stroke="#000000" stroke-opacity="1" stroke-width="3.84"/>
<circle clip-path="url(#clip493)" cx="2235.77" cy="855.625" r="14.4" fill="#009af9" fill-rule="evenodd" fill-opacity="1" stroke="#000000" stroke-opacity="1" stroke-width="3.84"/>
<circle clip-path="url(#clip493)" cx="2460.76" cy="961.07" r="14.4" fill="#009af9" fill-rule="evenodd" fill-opacity="1" stroke="#000000" stroke-opacity="1" stroke-width="3.84"/>
<path clip-path="url(#clip490)" d="M335.314 1101.29 L625.868 1101.29 L625.868 997.614 L335.314 997.614  Z" fill="#ffffff" fill-rule="evenodd" fill-opacity="1"/>
<polyline clip-path="url(#clip490)" style="stroke:#000000; stroke-linecap:round; stroke-linejoin:round; stroke-width:4; stroke-opacity:1; fill:none" points="335.314,1101.29 625.868,1101.29 625.868,997.614 335.314,997.614 335.314,1101.29 "/>
<polyline clip-path="url(#clip490)" style="stroke:#009af9; stroke-linecap:round; stroke-linejoin:round; stroke-width:4; stroke-opacity:1; fill:none" points="361.814,1049.45 520.81,1049.45 "/>
<circle clip-path="url(#clip490)" cx="441.312" cy="1049.45" r="22.0828" fill="#009af9" fill-rule="evenodd" fill-opacity="1" stroke="#000000" stroke-opacity="1" stroke-width="6.144"/>
<path clip-path="url(#clip490)" d="M561.151 1069.14 Q559.346 1073.77 557.633 1075.18 Q555.92 1076.6 553.05 1076.6 L549.647 1076.6 L549.647 1073.03 L552.147 1073.03 Q553.906 1073.03 554.878 1072.2 Q555.851 1071.36 557.031 1068.26 L557.795 1066.32 L547.309 1040.81 L551.823 1040.81 L559.925 1061.09 L568.026 1040.81 L572.54 1040.81 L561.151 1069.14 Z" fill="#000000" fill-rule="evenodd" fill-opacity="1" /><path clip-path="url(#clip490)" d="M583.049 1062.8 L599.369 1062.8 L599.369 1066.73 L577.425 1066.73 L577.425 1062.8 Q580.087 1060.04 584.67 1055.41 Q589.276 1050.76 590.457 1049.42 Q592.702 1046.9 593.582 1045.16 Q594.485 1043.4 594.485 1041.71 Q594.485 1038.96 592.54 1037.22 Q590.619 1035.48 587.517 1035.48 Q585.318 1035.48 582.864 1036.25 Q580.434 1037.01 577.656 1038.56 L577.656 1033.84 Q580.48 1032.71 582.934 1032.13 Q585.387 1031.55 587.424 1031.55 Q592.795 1031.55 595.989 1034.23 Q599.184 1036.92 599.184 1041.41 Q599.184 1043.54 598.373 1045.46 Q597.586 1047.36 595.48 1049.95 Q594.901 1050.62 591.799 1053.84 Q588.698 1057.03 583.049 1062.8 Z" fill="#000000" fill-rule="evenodd" fill-opacity="1" /><path clip-path="url(#clip490)" d="M255.816 1734.12 L2640.76 1734.12 L2640.76 1282.8 L255.816 1282.8  Z" fill="#ffffff" fill-rule="evenodd" fill-opacity="1"/>
<defs>
  <clipPath id="clip494">
    <rect x="255" y="1282" width="2386" height="452"/>
  </clipPath>
</defs>
<polyline clip-path="url(#clip490)" style="stroke:#000000; stroke-linecap:round; stroke-linejoin:round; stroke-width:4; stroke-opacity:1; fill:none" points="255.816,1734.12 2640.76,1734.12 "/>
<polyline clip-path="url(#clip490)" style="stroke:#000000; stroke-linecap:round; stroke-linejoin:round; stroke-width:4; stroke-opacity:1; fill:none" points="323.315,1734.12 323.315,1715.22 "/>
<polyline clip-path="url(#clip490)" style="stroke:#000000; stroke-linecap:round; stroke-linejoin:round; stroke-width:4; stroke-opacity:1; fill:none" points="885.8,1734.12 885.8,1715.22 "/>
<polyline clip-path="url(#clip490)" style="stroke:#000000; stroke-linecap:round; stroke-linejoin:round; stroke-width:4; stroke-opacity:1; fill:none" points="1448.29,1734.12 1448.29,1715.22 "/>
<polyline clip-path="url(#clip490)" style="stroke:#000000; stroke-linecap:round; stroke-linejoin:round; stroke-width:4; stroke-opacity:1; fill:none" points="2010.77,1734.12 2010.77,1715.22 "/>
<polyline clip-path="url(#clip490)" style="stroke:#000000; stroke-linecap:round; stroke-linejoin:round; stroke-width:4; stroke-opacity:1; fill:none" points="2573.26,1734.12 2573.26,1715.22 "/>
<path clip-path="url(#clip490)" d="M300.699 1767.34 Q297.088 1767.34 295.259 1770.9 Q293.454 1774.45 293.454 1781.58 Q293.454 1788.68 295.259 1792.25 Q297.088 1795.79 300.699 1795.79 Q304.333 1795.79 306.139 1792.25 Q307.967 1788.68 307.967 1781.58 Q307.967 1774.45 306.139 1770.9 Q304.333 1767.34 300.699 1767.34 M300.699 1763.64 Q306.509 1763.64 309.565 1768.24 Q312.643 1772.83 312.643 1781.58 Q312.643 1790.3 309.565 1794.91 Q306.509 1799.49 300.699 1799.49 Q294.889 1799.49 291.81 1794.91 Q288.755 1790.3 288.755 1781.58 Q288.755 1772.83 291.81 1768.24 Q294.889 1763.64 300.699 1763.64 Z" fill="#000000" fill-rule="evenodd" fill-opacity="1" /><path clip-path="url(#clip490)" d="M320.861 1792.94 L325.745 1792.94 L325.745 1798.82 L320.861 1798.82 L320.861 1792.94 Z" fill="#000000" fill-rule="evenodd" fill-opacity="1" /><path clip-path="url(#clip490)" d="M345.93 1767.34 Q342.319 1767.34 340.49 1770.9 Q338.685 1774.45 338.685 1781.58 Q338.685 1788.68 340.49 1792.25 Q342.319 1795.79 345.93 1795.79 Q349.564 1795.79 351.37 1792.25 Q353.199 1788.68 353.199 1781.58 Q353.199 1774.45 351.37 1770.9 Q349.564 1767.34 345.93 1767.34 M345.93 1763.64 Q351.74 1763.64 354.796 1768.24 Q357.875 1772.83 357.875 1781.58 Q357.875 1790.3 354.796 1794.91 Q351.74 1799.49 345.93 1799.49 Q340.12 1799.49 337.041 1794.91 Q333.986 1790.3 333.986 1781.58 Q333.986 1772.83 337.041 1768.24 Q340.12 1763.64 345.93 1763.64 Z" fill="#000000" fill-rule="evenodd" fill-opacity="1" /><path clip-path="url(#clip490)" d="M857.537 1794.89 L873.856 1794.89 L873.856 1798.82 L851.912 1798.82 L851.912 1794.89 Q854.574 1792.13 859.157 1787.5 Q863.763 1782.85 864.944 1781.51 Q867.189 1778.98 868.069 1777.25 Q868.972 1775.49 868.972 1773.8 Q868.972 1771.04 867.027 1769.31 Q865.106 1767.57 862.004 1767.57 Q859.805 1767.57 857.351 1768.34 Q854.921 1769.1 852.143 1770.65 L852.143 1765.93 Q854.967 1764.79 857.421 1764.21 Q859.875 1763.64 861.912 1763.64 Q867.282 1763.64 870.476 1766.32 Q873.671 1769.01 873.671 1773.5 Q873.671 1775.63 872.861 1777.55 Q872.074 1779.45 869.967 1782.04 Q869.388 1782.71 866.287 1785.93 Q863.185 1789.12 857.537 1794.89 Z" fill="#000000" fill-rule="evenodd" fill-opacity="1" /><path clip-path="url(#clip490)" d="M883.671 1792.94 L888.555 1792.94 L888.555 1798.82 L883.671 1798.82 L883.671 1792.94 Z" fill="#000000" fill-rule="evenodd" fill-opacity="1" /><path clip-path="url(#clip490)" d="M898.786 1764.26 L917.143 1764.26 L917.143 1768.2 L903.069 1768.2 L903.069 1776.67 Q904.087 1776.32 905.106 1776.16 Q906.124 1775.97 907.143 1775.97 Q912.93 1775.97 916.309 1779.15 Q919.689 1782.32 919.689 1787.73 Q919.689 1793.31 916.217 1796.41 Q912.745 1799.49 906.425 1799.49 Q904.249 1799.49 901.981 1799.12 Q899.735 1798.75 897.328 1798.01 L897.328 1793.31 Q899.411 1794.45 901.634 1795 Q903.856 1795.56 906.333 1795.56 Q910.337 1795.56 912.675 1793.45 Q915.013 1791.34 915.013 1787.73 Q915.013 1784.12 912.675 1782.02 Q910.337 1779.91 906.333 1779.91 Q904.458 1779.91 902.583 1780.33 Q900.731 1780.74 898.786 1781.62 L898.786 1764.26 Z" fill="#000000" fill-rule="evenodd" fill-opacity="1" /><path clip-path="url(#clip490)" d="M1415.45 1764.26 L1433.81 1764.26 L1433.81 1768.2 L1419.73 1768.2 L1419.73 1776.67 Q1420.75 1776.32 1421.77 1776.16 Q1422.79 1775.97 1423.81 1775.97 Q1429.59 1775.97 1432.97 1779.15 Q1436.35 1782.32 1436.35 1787.73 Q1436.35 1793.31 1432.88 1796.41 Q1429.41 1799.49 1423.09 1799.49 Q1420.91 1799.49 1418.65 1799.12 Q1416.4 1798.75 1413.99 1798.01 L1413.99 1793.31 Q1416.08 1794.45 1418.3 1795 Q1420.52 1795.56 1423 1795.56 Q1427 1795.56 1429.34 1793.45 Q1431.68 1791.34 1431.68 1787.73 Q1431.68 1784.12 1429.34 1782.02 Q1427 1779.91 1423 1779.91 Q1421.12 1779.91 1419.25 1780.33 Q1417.4 1780.74 1415.45 1781.62 L1415.45 1764.26 Z" fill="#000000" fill-rule="evenodd" fill-opacity="1" /><path clip-path="url(#clip490)" d="M1445.57 1792.94 L1450.45 1792.94 L1450.45 1798.82 L1445.57 1798.82 L1445.57 1792.94 Z" fill="#000000" fill-rule="evenodd" fill-opacity="1" /><path clip-path="url(#clip490)" d="M1470.64 1767.34 Q1467.02 1767.34 1465.2 1770.9 Q1463.39 1774.45 1463.39 1781.58 Q1463.39 1788.68 1465.2 1792.25 Q1467.02 1795.79 1470.64 1795.79 Q1474.27 1795.79 1476.08 1792.25 Q1477.9 1788.68 1477.9 1781.58 Q1477.9 1774.45 1476.08 1770.9 Q1474.27 1767.34 1470.64 1767.34 M1470.64 1763.64 Q1476.45 1763.64 1479.5 1768.24 Q1482.58 1772.83 1482.58 1781.58 Q1482.58 1790.3 1479.5 1794.91 Q1476.45 1799.49 1470.64 1799.49 Q1464.83 1799.49 1461.75 1794.91 Q1458.69 1790.3 1458.69 1781.58 Q1458.69 1772.83 1461.75 1768.24 Q1464.83 1763.64 1470.64 1763.64 Z" fill="#000000" fill-rule="evenodd" fill-opacity="1" /><path clip-path="url(#clip490)" d="M1977.09 1764.26 L1999.31 1764.26 L1999.31 1766.25 L1986.77 1798.82 L1981.88 1798.82 L1993.69 1768.2 L1977.09 1768.2 L1977.09 1764.26 Z" fill="#000000" fill-rule="evenodd" fill-opacity="1" /><path clip-path="url(#clip490)" d="M2008.43 1792.94 L2013.32 1792.94 L2013.32 1798.82 L2008.43 1798.82 L2008.43 1792.94 Z" fill="#000000" fill-rule="evenodd" fill-opacity="1" /><path clip-path="url(#clip490)" d="M2023.55 1764.26 L2041.91 1764.26 L2041.91 1768.2 L2027.83 1768.2 L2027.83 1776.67 Q2028.85 1776.32 2029.87 1776.16 Q2030.89 1775.97 2031.91 1775.97 Q2037.69 1775.97 2041.07 1779.15 Q2044.45 1782.32 2044.45 1787.73 Q2044.45 1793.31 2040.98 1796.41 Q2037.51 1799.49 2031.19 1799.49 Q2029.01 1799.49 2026.74 1799.12 Q2024.5 1798.75 2022.09 1798.01 L2022.09 1793.31 Q2024.17 1794.45 2026.4 1795 Q2028.62 1795.56 2031.1 1795.56 Q2035.1 1795.56 2037.44 1793.45 Q2039.78 1791.34 2039.78 1787.73 Q2039.78 1784.12 2037.44 1782.02 Q2035.1 1779.91 2031.1 1779.91 Q2029.22 1779.91 2027.35 1780.33 Q2025.49 1780.74 2023.55 1781.62 L2023.55 1764.26 Z" fill="#000000" fill-rule="evenodd" fill-opacity="1" /><path clip-path="url(#clip490)" d="M2525.33 1794.89 L2532.97 1794.89 L2532.97 1768.52 L2524.66 1770.19 L2524.66 1765.93 L2532.92 1764.26 L2537.6 1764.26 L2537.6 1794.89 L2545.24 1794.89 L2545.24 1798.82 L2525.33 1798.82 L2525.33 1794.89 Z" fill="#000000" fill-rule="evenodd" fill-opacity="1" /><path clip-path="url(#clip490)" d="M2564.68 1767.34 Q2561.07 1767.34 2559.24 1770.9 Q2557.44 1774.45 2557.44 1781.58 Q2557.44 1788.68 2559.24 1792.25 Q2561.07 1795.79 2564.68 1795.79 Q2568.32 1795.79 2570.12 1792.25 Q2571.95 1788.68 2571.95 1781.58 Q2571.95 1774.45 2570.12 1770.9 Q2568.32 1767.34 2564.68 1767.34 M2564.68 1763.64 Q2570.49 1763.64 2573.55 1768.24 Q2576.63 1772.83 2576.63 1781.58 Q2576.63 1790.3 2573.55 1794.91 Q2570.49 1799.49 2564.68 1799.49 Q2558.87 1799.49 2555.79 1794.91 Q2552.74 1790.3 2552.74 1781.58 Q2552.74 1772.83 2555.79 1768.24 Q2558.87 1763.64 2564.68 1763.64 Z" fill="#000000" fill-rule="evenodd" fill-opacity="1" /><path clip-path="url(#clip490)" d="M2584.84 1792.94 L2589.73 1792.94 L2589.73 1798.82 L2584.84 1798.82 L2584.84 1792.94 Z" fill="#000000" fill-rule="evenodd" fill-opacity="1" /><path clip-path="url(#clip490)" d="M2609.91 1767.34 Q2606.3 1767.34 2604.47 1770.9 Q2602.67 1774.45 2602.67 1781.58 Q2602.67 1788.68 2604.47 1792.25 Q2606.3 1795.79 2609.91 1795.79 Q2613.55 1795.79 2615.35 1792.25 Q2617.18 1788.68 2617.18 1781.58 Q2617.18 1774.45 2615.35 1770.9 Q2613.55 1767.34 2609.91 1767.34 M2609.91 1763.64 Q2615.72 1763.64 2618.78 1768.24 Q2621.86 1772.83 2621.86 1781.58 Q2621.86 1790.3 2618.78 1794.91 Q2615.72 1799.49 2609.91 1799.49 Q2604.1 1799.49 2601.02 1794.91 Q2597.97 1790.3 2597.97 1781.58 Q2597.97 1772.83 2601.02 1768.24 Q2604.1 1763.64 2609.91 1763.64 Z" fill="#000000" fill-rule="evenodd" fill-opacity="1" /><path clip-path="url(#clip490)" d="M1269.25 1837.34 L1269.25 1843.61 Q1265.59 1841.86 1262.34 1841 Q1259.1 1840.14 1256.07 1840.14 Q1250.82 1840.14 1247.96 1842.18 Q1245.12 1844.22 1245.12 1847.97 Q1245.12 1851.12 1247 1852.75 Q1248.91 1854.34 1254.2 1855.32 L1258.08 1856.12 Q1265.27 1857.49 1268.68 1860.96 Q1272.12 1864.39 1272.12 1870.19 Q1272.12 1877.09 1267.47 1880.66 Q1262.85 1884.22 1253.91 1884.22 Q1250.54 1884.22 1246.72 1883.46 Q1242.93 1882.7 1238.85 1881.2 L1238.85 1874.58 Q1242.77 1876.78 1246.53 1877.89 Q1250.28 1879 1253.91 1879 Q1259.42 1879 1262.41 1876.84 Q1265.4 1874.68 1265.4 1870.67 Q1265.4 1867.16 1263.24 1865.19 Q1261.1 1863.22 1256.2 1862.23 L1252.29 1861.47 Q1245.09 1860.03 1241.88 1856.98 Q1238.66 1853.92 1238.66 1848.48 Q1238.66 1842.18 1243.09 1838.55 Q1247.54 1834.92 1255.34 1834.92 Q1258.68 1834.92 1262.15 1835.53 Q1265.62 1836.13 1269.25 1837.34 Z" fill="#000000" fill-rule="evenodd" fill-opacity="1" /><path clip-path="url(#clip490)" d="M1287.68 1837.53 L1287.68 1847.65 L1299.74 1847.65 L1299.74 1852.2 L1287.68 1852.2 L1287.68 1871.56 Q1287.68 1875.92 1288.86 1877.16 Q1290.07 1878.4 1293.73 1878.4 L1299.74 1878.4 L1299.74 1883.3 L1293.73 1883.3 Q1286.95 1883.3 1284.37 1880.79 Q1281.79 1878.24 1281.79 1871.56 L1281.79 1852.2 L1277.49 1852.2 L1277.49 1847.65 L1281.79 1847.65 L1281.79 1837.53 L1287.68 1837.53 Z" fill="#000000" fill-rule="evenodd" fill-opacity="1" /><path clip-path="url(#clip490)" d="M1337.94 1864.01 L1337.94 1866.88 L1311.01 1866.88 Q1311.39 1872.92 1314.64 1876.11 Q1317.92 1879.26 1323.74 1879.26 Q1327.11 1879.26 1330.27 1878.43 Q1333.45 1877.6 1336.57 1875.95 L1336.57 1881.49 Q1333.42 1882.82 1330.11 1883.52 Q1326.8 1884.22 1323.39 1884.22 Q1314.86 1884.22 1309.86 1879.26 Q1304.9 1874.29 1304.9 1865.83 Q1304.9 1857.07 1309.61 1851.95 Q1314.35 1846.79 1322.37 1846.79 Q1329.57 1846.79 1333.74 1851.44 Q1337.94 1856.06 1337.94 1864.01 M1332.08 1862.29 Q1332.02 1857.49 1329.37 1854.62 Q1326.76 1851.76 1322.44 1851.76 Q1317.53 1851.76 1314.57 1854.53 Q1311.65 1857.3 1311.2 1862.33 L1332.08 1862.29 Z" fill="#000000" fill-rule="evenodd" fill-opacity="1" /><path clip-path="url(#clip490)" d="M1353.21 1877.95 L1353.21 1896.86 L1347.33 1896.86 L1347.33 1847.65 L1353.21 1847.65 L1353.21 1853.06 Q1355.06 1849.88 1357.86 1848.35 Q1360.69 1846.79 1364.61 1846.79 Q1371.1 1846.79 1375.14 1851.95 Q1379.22 1857.11 1379.22 1865.51 Q1379.22 1873.91 1375.14 1879.07 Q1371.1 1884.22 1364.61 1884.22 Q1360.69 1884.22 1357.86 1882.7 Q1355.06 1881.14 1353.21 1877.95 M1373.14 1865.51 Q1373.14 1859.05 1370.47 1855.39 Q1367.82 1851.7 1363.18 1851.7 Q1358.53 1851.7 1355.86 1855.39 Q1353.21 1859.05 1353.21 1865.51 Q1353.21 1871.97 1355.86 1875.66 Q1358.53 1879.32 1363.18 1879.32 Q1367.82 1879.32 1370.47 1875.66 Q1373.14 1871.97 1373.14 1865.51 Z" fill="#000000" fill-rule="evenodd" fill-opacity="1" /><path clip-path="url(#clip490)" d="M1439.28 1861.78 L1439.28 1883.3 L1433.42 1883.3 L1433.42 1861.98 Q1433.42 1856.92 1431.45 1854.4 Q1429.48 1851.89 1425.53 1851.89 Q1420.79 1851.89 1418.05 1854.91 Q1415.31 1857.93 1415.31 1863.15 L1415.31 1883.3 L1409.42 1883.3 L1409.42 1847.65 L1415.31 1847.65 L1415.31 1853.19 Q1417.41 1849.98 1420.25 1848.39 Q1423.11 1846.79 1426.83 1846.79 Q1432.98 1846.79 1436.13 1850.61 Q1439.28 1854.4 1439.28 1861.78 Z" fill="#000000" fill-rule="evenodd" fill-opacity="1" /><path clip-path="url(#clip490)" d="M1450.35 1869.23 L1450.35 1847.65 L1456.21 1847.65 L1456.21 1869.01 Q1456.21 1874.07 1458.18 1876.62 Q1460.16 1879.13 1464.1 1879.13 Q1468.85 1879.13 1471.58 1876.11 Q1474.35 1873.08 1474.35 1867.86 L1474.35 1847.65 L1480.21 1847.65 L1480.21 1883.3 L1474.35 1883.3 L1474.35 1877.83 Q1472.22 1881.07 1469.39 1882.66 Q1466.59 1884.22 1462.86 1884.22 Q1456.72 1884.22 1453.54 1880.4 Q1450.35 1876.59 1450.35 1869.23 M1465.09 1846.79 L1465.09 1846.79 Z" fill="#000000" fill-rule="evenodd" fill-opacity="1" /><path clip-path="url(#clip490)" d="M1520.03 1854.5 Q1522.22 1850.55 1525.28 1848.67 Q1528.33 1846.79 1532.47 1846.79 Q1538.04 1846.79 1541.07 1850.71 Q1544.09 1854.59 1544.09 1861.78 L1544.09 1883.3 L1538.2 1883.3 L1538.2 1861.98 Q1538.2 1856.85 1536.39 1854.37 Q1534.57 1851.89 1530.85 1851.89 Q1526.3 1851.89 1523.66 1854.91 Q1521.01 1857.93 1521.01 1863.15 L1521.01 1883.3 L1515.13 1883.3 L1515.13 1861.98 Q1515.13 1856.82 1513.31 1854.37 Q1511.5 1851.89 1507.71 1851.89 Q1503.22 1851.89 1500.58 1854.94 Q1497.94 1857.97 1497.94 1863.15 L1497.94 1883.3 L1492.05 1883.3 L1492.05 1847.65 L1497.94 1847.65 L1497.94 1853.19 Q1499.94 1849.91 1502.74 1848.35 Q1505.55 1846.79 1509.4 1846.79 Q1513.28 1846.79 1515.99 1848.77 Q1518.72 1850.74 1520.03 1854.5 Z" fill="#000000" fill-rule="evenodd" fill-opacity="1" /><path clip-path="url(#clip490)" d="M1581.36 1865.51 Q1581.36 1859.05 1578.69 1855.39 Q1576.05 1851.7 1571.4 1851.7 Q1566.75 1851.7 1564.08 1855.39 Q1561.44 1859.05 1561.44 1865.51 Q1561.44 1871.97 1564.08 1875.66 Q1566.75 1879.32 1571.4 1879.32 Q1576.05 1879.32 1578.69 1875.66 Q1581.36 1871.97 1581.36 1865.51 M1561.44 1853.06 Q1563.28 1849.88 1566.08 1848.35 Q1568.92 1846.79 1572.83 1846.79 Q1579.32 1846.79 1583.37 1851.95 Q1587.44 1857.11 1587.44 1865.51 Q1587.44 1873.91 1583.37 1879.07 Q1579.32 1884.22 1572.83 1884.22 Q1568.92 1884.22 1566.08 1882.7 Q1563.28 1881.14 1561.44 1877.95 L1561.44 1883.3 L1555.55 1883.3 L1555.55 1833.78 L1561.44 1833.78 L1561.44 1853.06 Z" fill="#000000" fill-rule="evenodd" fill-opacity="1" /><path clip-path="url(#clip490)" d="M1627.64 1864.01 L1627.64 1866.88 L1600.71 1866.88 Q1601.09 1872.92 1604.34 1876.11 Q1607.62 1879.26 1613.44 1879.26 Q1616.82 1879.26 1619.97 1878.43 Q1623.15 1877.6 1626.27 1875.95 L1626.27 1881.49 Q1623.12 1882.82 1619.81 1883.52 Q1616.5 1884.22 1613.09 1884.22 Q1604.56 1884.22 1599.57 1879.26 Q1594.6 1874.29 1594.6 1865.83 Q1594.6 1857.07 1599.31 1851.95 Q1604.05 1846.79 1612.08 1846.79 Q1619.27 1846.79 1623.44 1851.44 Q1627.64 1856.06 1627.64 1864.01 M1621.78 1862.29 Q1621.72 1857.49 1619.08 1854.62 Q1616.47 1851.76 1612.14 1851.76 Q1607.24 1851.76 1604.28 1854.53 Q1601.35 1857.3 1600.9 1862.33 L1621.78 1862.29 Z" fill="#000000" fill-rule="evenodd" fill-opacity="1" /><path clip-path="url(#clip490)" d="M1657.91 1853.13 Q1656.92 1852.55 1655.74 1852.3 Q1654.6 1852.01 1653.2 1852.01 Q1648.23 1852.01 1645.56 1855.26 Q1642.92 1858.47 1642.92 1864.52 L1642.92 1883.3 L1637.03 1883.3 L1637.03 1847.65 L1642.92 1847.65 L1642.92 1853.19 Q1644.76 1849.94 1647.72 1848.39 Q1650.68 1846.79 1654.92 1846.79 Q1655.52 1846.79 1656.25 1846.89 Q1656.99 1846.95 1657.88 1847.11 L1657.91 1853.13 Z" fill="#000000" fill-rule="evenodd" fill-opacity="1" /><polyline clip-path="url(#clip490)" style="stroke:#000000; stroke-linecap:round; stroke-linejoin:round; stroke-width:4; stroke-opacity:1; fill:none" points="255.816,1734.12 255.816,1282.8 "/>
<polyline clip-path="url(#clip490)" style="stroke:#000000; stroke-linecap:round; stroke-linejoin:round; stroke-width:4; stroke-opacity:1; fill:none" points="255.816,1721.34 274.714,1721.34 "/>
<polyline clip-path="url(#clip490)" style="stroke:#000000; stroke-linecap:round; stroke-linejoin:round; stroke-width:4; stroke-opacity:1; fill:none" points="255.816,1614.9 274.714,1614.9 "/>
<polyline clip-path="url(#clip490)" style="stroke:#000000; stroke-linecap:round; stroke-linejoin:round; stroke-width:4; stroke-opacity:1; fill:none" points="255.816,1508.46 274.714,1508.46 "/>
<polyline clip-path="url(#clip490)" style="stroke:#000000; stroke-linecap:round; stroke-linejoin:round; stroke-width:4; stroke-opacity:1; fill:none" points="255.816,1402.02 274.714,1402.02 "/>
<polyline clip-path="url(#clip490)" style="stroke:#000000; stroke-linecap:round; stroke-linejoin:round; stroke-width:4; stroke-opacity:1; fill:none" points="255.816,1295.58 274.714,1295.58 "/>
<path clip-path="url(#clip490)" d="M128.159 1707.14 Q124.548 1707.14 122.719 1710.71 Q120.913 1714.25 120.913 1721.38 Q120.913 1728.49 122.719 1732.05 Q124.548 1735.59 128.159 1735.59 Q131.793 1735.59 133.599 1732.05 Q135.427 1728.49 135.427 1721.38 Q135.427 1714.25 133.599 1710.71 Q131.793 1707.14 128.159 1707.14 M128.159 1703.44 Q133.969 1703.44 137.025 1708.05 Q140.103 1712.63 140.103 1721.38 Q140.103 1730.11 137.025 1734.71 Q133.969 1739.3 128.159 1739.3 Q122.349 1739.3 119.27 1734.71 Q116.214 1730.11 116.214 1721.38 Q116.214 1712.63 119.27 1708.05 Q122.349 1703.44 128.159 1703.44 Z" fill="#000000" fill-rule="evenodd" fill-opacity="1" /><path clip-path="url(#clip490)" d="M148.321 1732.74 L153.205 1732.74 L153.205 1738.62 L148.321 1738.62 L148.321 1732.74 Z" fill="#000000" fill-rule="evenodd" fill-opacity="1" /><path clip-path="url(#clip490)" d="M173.39 1707.14 Q169.779 1707.14 167.95 1710.71 Q166.145 1714.25 166.145 1721.38 Q166.145 1728.49 167.95 1732.05 Q169.779 1735.59 173.39 1735.59 Q177.024 1735.59 178.83 1732.05 Q180.659 1728.49 180.659 1721.38 Q180.659 1714.25 178.83 1710.71 Q177.024 1707.14 173.39 1707.14 M173.39 1703.44 Q179.2 1703.44 182.256 1708.05 Q185.334 1712.63 185.334 1721.38 Q185.334 1730.11 182.256 1734.71 Q179.2 1739.3 173.39 1739.3 Q167.58 1739.3 164.501 1734.71 Q161.446 1730.11 161.446 1721.38 Q161.446 1712.63 164.501 1708.05 Q167.58 1703.44 173.39 1703.44 Z" fill="#000000" fill-rule="evenodd" fill-opacity="1" /><path clip-path="url(#clip490)" d="M203.552 1707.14 Q199.941 1707.14 198.112 1710.71 Q196.307 1714.25 196.307 1721.38 Q196.307 1728.49 198.112 1732.05 Q199.941 1735.59 203.552 1735.59 Q207.186 1735.59 208.992 1732.05 Q210.82 1728.49 210.82 1721.38 Q210.82 1714.25 208.992 1710.71 Q207.186 1707.14 203.552 1707.14 M203.552 1703.44 Q209.362 1703.44 212.418 1708.05 Q215.496 1712.63 215.496 1721.38 Q215.496 1730.11 212.418 1734.71 Q209.362 1739.3 203.552 1739.3 Q197.742 1739.3 194.663 1734.71 Q191.608 1730.11 191.608 1721.38 Q191.608 1712.63 194.663 1708.05 Q197.742 1703.44 203.552 1703.44 Z" fill="#000000" fill-rule="evenodd" fill-opacity="1" /><path clip-path="url(#clip490)" d="M129.154 1600.7 Q125.543 1600.7 123.714 1604.27 Q121.909 1607.81 121.909 1614.94 Q121.909 1622.04 123.714 1625.61 Q125.543 1629.15 129.154 1629.15 Q132.788 1629.15 134.594 1625.61 Q136.423 1622.04 136.423 1614.94 Q136.423 1607.81 134.594 1604.27 Q132.788 1600.7 129.154 1600.7 M129.154 1597 Q134.964 1597 138.02 1601.6 Q141.099 1606.19 141.099 1614.94 Q141.099 1623.66 138.02 1628.27 Q134.964 1632.85 129.154 1632.85 Q123.344 1632.85 120.265 1628.27 Q117.21 1623.66 117.21 1614.94 Q117.21 1606.19 120.265 1601.6 Q123.344 1597 129.154 1597 Z" fill="#000000" fill-rule="evenodd" fill-opacity="1" /><path clip-path="url(#clip490)" d="M149.316 1626.3 L154.2 1626.3 L154.2 1632.18 L149.316 1632.18 L149.316 1626.3 Z" fill="#000000" fill-rule="evenodd" fill-opacity="1" /><path clip-path="url(#clip490)" d="M168.413 1628.25 L184.733 1628.25 L184.733 1632.18 L162.788 1632.18 L162.788 1628.25 Q165.45 1625.49 170.034 1620.86 Q174.64 1616.21 175.821 1614.87 Q178.066 1612.34 178.946 1610.61 Q179.848 1608.85 179.848 1607.16 Q179.848 1604.4 177.904 1602.67 Q175.983 1600.93 172.881 1600.93 Q170.682 1600.93 168.228 1601.7 Q165.798 1602.46 163.02 1604.01 L163.02 1599.29 Q165.844 1598.15 168.297 1597.58 Q170.751 1597 172.788 1597 Q178.159 1597 181.353 1599.68 Q184.547 1602.37 184.547 1606.86 Q184.547 1608.99 183.737 1610.91 Q182.95 1612.81 180.844 1615.4 Q180.265 1616.07 177.163 1619.29 Q174.061 1622.48 168.413 1628.25 Z" fill="#000000" fill-rule="evenodd" fill-opacity="1" /><path clip-path="url(#clip490)" d="M194.594 1597.62 L212.95 1597.62 L212.95 1601.56 L198.876 1601.56 L198.876 1610.03 Q199.895 1609.68 200.913 1609.52 Q201.932 1609.33 202.95 1609.33 Q208.737 1609.33 212.117 1612.51 Q215.496 1615.68 215.496 1621.09 Q215.496 1626.67 212.024 1629.77 Q208.552 1632.85 202.233 1632.85 Q200.057 1632.85 197.788 1632.48 Q195.543 1632.11 193.135 1631.37 L193.135 1626.67 Q195.219 1627.81 197.441 1628.36 Q199.663 1628.92 202.14 1628.92 Q206.145 1628.92 208.482 1626.81 Q210.82 1624.71 210.82 1621.09 Q210.82 1617.48 208.482 1615.38 Q206.145 1613.27 202.14 1613.27 Q200.265 1613.27 198.39 1613.69 Q196.538 1614.1 194.594 1614.98 L194.594 1597.62 Z" fill="#000000" fill-rule="evenodd" fill-opacity="1" /><path clip-path="url(#clip490)" d="M128.159 1494.26 Q124.548 1494.26 122.719 1497.82 Q120.913 1501.36 120.913 1508.49 Q120.913 1515.6 122.719 1519.17 Q124.548 1522.71 128.159 1522.71 Q131.793 1522.71 133.599 1519.17 Q135.427 1515.6 135.427 1508.49 Q135.427 1501.36 133.599 1497.82 Q131.793 1494.26 128.159 1494.26 M128.159 1490.55 Q133.969 1490.55 137.025 1495.16 Q140.103 1499.74 140.103 1508.49 Q140.103 1517.22 137.025 1521.83 Q133.969 1526.41 128.159 1526.41 Q122.349 1526.41 119.27 1521.83 Q116.214 1517.22 116.214 1508.49 Q116.214 1499.74 119.27 1495.16 Q122.349 1490.55 128.159 1490.55 Z" fill="#000000" fill-rule="evenodd" fill-opacity="1" /><path clip-path="url(#clip490)" d="M148.321 1519.86 L153.205 1519.86 L153.205 1525.74 L148.321 1525.74 L148.321 1519.86 Z" fill="#000000" fill-rule="evenodd" fill-opacity="1" /><path clip-path="url(#clip490)" d="M163.436 1491.18 L181.793 1491.18 L181.793 1495.11 L167.719 1495.11 L167.719 1503.59 Q168.737 1503.24 169.756 1503.08 Q170.774 1502.89 171.793 1502.89 Q177.58 1502.89 180.959 1506.06 Q184.339 1509.24 184.339 1514.65 Q184.339 1520.23 180.867 1523.33 Q177.395 1526.41 171.075 1526.41 Q168.899 1526.41 166.631 1526.04 Q164.385 1525.67 161.978 1524.93 L161.978 1520.23 Q164.061 1521.36 166.284 1521.92 Q168.506 1522.48 170.983 1522.48 Q174.987 1522.48 177.325 1520.37 Q179.663 1518.26 179.663 1514.65 Q179.663 1511.04 177.325 1508.93 Q174.987 1506.83 170.983 1506.83 Q169.108 1506.83 167.233 1507.24 Q165.381 1507.66 163.436 1508.54 L163.436 1491.18 Z" fill="#000000" fill-rule="evenodd" fill-opacity="1" /><path clip-path="url(#clip490)" d="M203.552 1494.26 Q199.941 1494.26 198.112 1497.82 Q196.307 1501.36 196.307 1508.49 Q196.307 1515.6 198.112 1519.17 Q199.941 1522.71 203.552 1522.71 Q207.186 1522.71 208.992 1519.17 Q210.82 1515.6 210.82 1508.49 Q210.82 1501.36 208.992 1497.82 Q207.186 1494.26 203.552 1494.26 M203.552 1490.55 Q209.362 1490.55 212.418 1495.16 Q215.496 1499.74 215.496 1508.49 Q215.496 1517.22 212.418 1521.83 Q209.362 1526.41 203.552 1526.41 Q197.742 1526.41 194.663 1521.83 Q191.608 1517.22 191.608 1508.49 Q191.608 1499.74 194.663 1495.16 Q197.742 1490.55 203.552 1490.55 Z" fill="#000000" fill-rule="evenodd" fill-opacity="1" /><path clip-path="url(#clip490)" d="M129.154 1387.82 Q125.543 1387.82 123.714 1391.38 Q121.909 1394.92 121.909 1402.05 Q121.909 1409.16 123.714 1412.72 Q125.543 1416.27 129.154 1416.27 Q132.788 1416.27 134.594 1412.72 Q136.423 1409.16 136.423 1402.05 Q136.423 1394.92 134.594 1391.38 Q132.788 1387.82 129.154 1387.82 M129.154 1384.11 Q134.964 1384.11 138.02 1388.72 Q141.099 1393.3 141.099 1402.05 Q141.099 1410.78 138.02 1415.39 Q134.964 1419.97 129.154 1419.97 Q123.344 1419.97 120.265 1415.39 Q117.21 1410.78 117.21 1402.05 Q117.21 1393.3 120.265 1388.72 Q123.344 1384.11 129.154 1384.11 Z" fill="#000000" fill-rule="evenodd" fill-opacity="1" /><path clip-path="url(#clip490)" d="M149.316 1413.42 L154.2 1413.42 L154.2 1419.3 L149.316 1419.3 L149.316 1413.42 Z" fill="#000000" fill-rule="evenodd" fill-opacity="1" /><path clip-path="url(#clip490)" d="M163.205 1384.74 L185.427 1384.74 L185.427 1386.73 L172.881 1419.3 L167.997 1419.3 L179.802 1388.67 L163.205 1388.67 L163.205 1384.74 Z" fill="#000000" fill-rule="evenodd" fill-opacity="1" /><path clip-path="url(#clip490)" d="M194.594 1384.74 L212.95 1384.74 L212.95 1388.67 L198.876 1388.67 L198.876 1397.15 Q199.895 1396.8 200.913 1396.64 Q201.932 1396.45 202.95 1396.45 Q208.737 1396.45 212.117 1399.62 Q215.496 1402.79 215.496 1408.21 Q215.496 1413.79 212.024 1416.89 Q208.552 1419.97 202.233 1419.97 Q200.057 1419.97 197.788 1419.6 Q195.543 1419.23 193.135 1418.49 L193.135 1413.79 Q195.219 1414.92 197.441 1415.48 Q199.663 1416.03 202.14 1416.03 Q206.145 1416.03 208.482 1413.93 Q210.82 1411.82 210.82 1408.21 Q210.82 1404.6 208.482 1402.49 Q206.145 1400.39 202.14 1400.39 Q200.265 1400.39 198.39 1400.8 Q196.538 1401.22 194.594 1402.1 L194.594 1384.74 Z" fill="#000000" fill-rule="evenodd" fill-opacity="1" /><path clip-path="url(#clip490)" d="M118.969 1308.92 L126.608 1308.92 L126.608 1282.55 L118.298 1284.22 L118.298 1279.96 L126.562 1278.3 L131.238 1278.3 L131.238 1308.92 L138.876 1308.92 L138.876 1312.86 L118.969 1312.86 L118.969 1308.92 Z" fill="#000000" fill-rule="evenodd" fill-opacity="1" /><path clip-path="url(#clip490)" d="M148.321 1306.98 L153.205 1306.98 L153.205 1312.86 L148.321 1312.86 L148.321 1306.98 Z" fill="#000000" fill-rule="evenodd" fill-opacity="1" /><path clip-path="url(#clip490)" d="M173.39 1281.37 Q169.779 1281.37 167.95 1284.94 Q166.145 1288.48 166.145 1295.61 Q166.145 1302.72 167.95 1306.28 Q169.779 1309.82 173.39 1309.82 Q177.024 1309.82 178.83 1306.28 Q180.659 1302.72 180.659 1295.61 Q180.659 1288.48 178.83 1284.94 Q177.024 1281.37 173.39 1281.37 M173.39 1277.67 Q179.2 1277.67 182.256 1282.28 Q185.334 1286.86 185.334 1295.61 Q185.334 1304.34 182.256 1308.94 Q179.2 1313.53 173.39 1313.53 Q167.58 1313.53 164.501 1308.94 Q161.446 1304.34 161.446 1295.61 Q161.446 1286.86 164.501 1282.28 Q167.58 1277.67 173.39 1277.67 Z" fill="#000000" fill-rule="evenodd" fill-opacity="1" /><path clip-path="url(#clip490)" d="M203.552 1281.37 Q199.941 1281.37 198.112 1284.94 Q196.307 1288.48 196.307 1295.61 Q196.307 1302.72 198.112 1306.28 Q199.941 1309.82 203.552 1309.82 Q207.186 1309.82 208.992 1306.28 Q210.82 1302.72 210.82 1295.61 Q210.82 1288.48 208.992 1284.94 Q207.186 1281.37 203.552 1281.37 M203.552 1277.67 Q209.362 1277.67 212.418 1282.28 Q215.496 1286.86 215.496 1295.61 Q215.496 1304.34 212.418 1308.94 Q209.362 1313.53 203.552 1313.53 Q197.742 1313.53 194.663 1308.94 Q191.608 1304.34 191.608 1295.61 Q191.608 1286.86 194.663 1282.28 Q197.742 1277.67 203.552 1277.67 Z" fill="#000000" fill-rule="evenodd" fill-opacity="1" /><path clip-path="url(#clip490)" d="M14.1184 1732.36 L14.1184 1692.16 L19.5293 1692.16 L19.5293 1709.03 L61.6384 1709.03 L61.6384 1715.49 L19.5293 1715.49 L19.5293 1732.36 L14.1184 1732.36 Z" fill="#000000" fill-rule="evenodd" fill-opacity="1" /><path clip-path="url(#clip490)" d="M42.3504 1666.79 L45.2149 1666.79 L45.2149 1693.72 Q51.2623 1693.34 54.4452 1690.09 Q57.5962 1686.81 57.5962 1680.99 Q57.5962 1677.61 56.7687 1674.46 Q55.9411 1671.28 54.2861 1668.16 L59.8242 1668.16 Q61.161 1671.31 61.8612 1674.62 Q62.5615 1677.93 62.5615 1681.34 Q62.5615 1689.87 57.5962 1694.86 Q52.631 1699.83 44.1646 1699.83 Q35.4117 1699.83 30.2873 1695.12 Q25.1311 1690.38 25.1311 1682.35 Q25.1311 1675.16 29.7781 1670.99 Q34.3932 1666.79 42.3504 1666.79 M40.6316 1672.65 Q35.8255 1672.71 32.9609 1675.35 Q30.0964 1677.96 30.0964 1682.29 Q30.0964 1687.19 32.8654 1690.15 Q35.6345 1693.08 40.6634 1693.53 L40.6316 1672.65 Z" fill="#000000" fill-rule="evenodd" fill-opacity="1" /><path clip-path="url(#clip490)" d="M31.465 1636.52 Q30.8921 1637.51 30.6375 1638.69 Q30.351 1639.83 30.351 1641.23 Q30.351 1646.2 33.5975 1648.87 Q36.8122 1651.51 42.8596 1651.51 L61.6384 1651.51 L61.6384 1657.4 L25.9905 1657.4 L25.9905 1651.51 L31.5287 1651.51 Q28.2821 1649.67 26.7225 1646.71 Q25.1311 1643.75 25.1311 1639.51 Q25.1311 1638.91 25.2266 1638.18 Q25.2903 1637.44 25.4494 1636.55 L31.465 1636.52 Z" fill="#000000" fill-rule="evenodd" fill-opacity="1" /><path clip-path="url(#clip490)" d="M31.465 1610.87 Q30.8921 1611.85 30.6375 1613.03 Q30.351 1614.18 30.351 1615.58 Q30.351 1620.54 33.5975 1623.22 Q36.8122 1625.86 42.8596 1625.86 L61.6384 1625.86 L61.6384 1631.75 L25.9905 1631.75 L25.9905 1625.86 L31.5287 1625.86 Q28.2821 1624.01 26.7225 1621.05 Q25.1311 1618.09 25.1311 1613.86 Q25.1311 1613.26 25.2266 1612.52 Q25.2903 1611.79 25.4494 1610.9 L31.465 1610.87 Z" fill="#000000" fill-rule="evenodd" fill-opacity="1" /><path clip-path="url(#clip490)" d="M43.719 1588.52 Q43.719 1595.62 45.3422 1598.36 Q46.9655 1601.1 50.8804 1601.1 Q53.9996 1601.1 55.8457 1599.06 Q57.6599 1596.99 57.6599 1593.46 Q57.6599 1588.59 54.2224 1585.66 Q50.7531 1582.7 45.0239 1582.7 L43.719 1582.7 L43.719 1588.52 M41.3 1576.84 L61.6384 1576.84 L61.6384 1582.7 L56.2276 1582.7 Q59.4741 1584.71 61.0337 1587.7 Q62.5615 1590.69 62.5615 1595.02 Q62.5615 1600.49 59.5059 1603.74 Q56.4186 1606.95 51.2623 1606.95 Q45.2467 1606.95 42.1912 1602.94 Q39.1357 1598.9 39.1357 1590.91 L39.1357 1582.7 L38.5628 1582.7 Q34.5205 1582.7 32.3244 1585.37 Q30.0964 1588.02 30.0964 1592.82 Q30.0964 1595.88 30.8284 1598.77 Q31.5605 1601.67 33.0246 1604.34 L27.6137 1604.34 Q26.3724 1601.13 25.7677 1598.1 Q25.1311 1595.08 25.1311 1592.22 Q25.1311 1584.48 29.1415 1580.66 Q33.1519 1576.84 41.3 1576.84 Z" fill="#000000" fill-rule="evenodd" fill-opacity="1" /><path clip-path="url(#clip490)" d="M25.9905 1564.78 L25.9905 1558.92 L61.6384 1558.92 L61.6384 1564.78 L25.9905 1564.78 M12.1132 1564.78 L12.1132 1558.92 L19.5293 1558.92 L19.5293 1564.78 L12.1132 1564.78 Z" fill="#000000" fill-rule="evenodd" fill-opacity="1" /><path clip-path="url(#clip490)" d="M40.1224 1517.04 L61.6384 1517.04 L61.6384 1522.89 L40.3133 1522.89 Q35.2526 1522.89 32.7381 1524.87 Q30.2237 1526.84 30.2237 1530.79 Q30.2237 1535.53 33.2474 1538.27 Q36.2711 1541 41.491 1541 L61.6384 1541 L61.6384 1546.89 L25.9905 1546.89 L25.9905 1541 L31.5287 1541 Q28.314 1538.9 26.7225 1536.07 Q25.1311 1533.21 25.1311 1529.48 Q25.1311 1523.34 28.9505 1520.19 Q32.7381 1517.04 40.1224 1517.04 Z" fill="#000000" fill-rule="evenodd" fill-opacity="1" /><path clip-path="url(#clip490)" d="M40.1224 1455 L61.6384 1455 L61.6384 1460.86 L40.3133 1460.86 Q35.2526 1460.86 32.7381 1462.83 Q30.2237 1464.81 30.2237 1468.75 Q30.2237 1473.5 33.2474 1476.23 Q36.2711 1478.97 41.491 1478.97 L61.6384 1478.97 L61.6384 1484.86 L12.1132 1484.86 L12.1132 1478.97 L31.5287 1478.97 Q28.314 1476.87 26.7225 1474.04 Q25.1311 1471.17 25.1311 1467.45 Q25.1311 1461.31 28.9505 1458.15 Q32.7381 1455 40.1224 1455 Z" fill="#000000" fill-rule="evenodd" fill-opacity="1" /><path clip-path="url(#clip490)" d="M42.3504 1412.83 L45.2149 1412.83 L45.2149 1439.76 Q51.2623 1439.38 54.4452 1436.13 Q57.5962 1432.85 57.5962 1427.03 Q57.5962 1423.65 56.7687 1420.5 Q55.9411 1417.32 54.2861 1414.2 L59.8242 1414.2 Q61.161 1417.35 61.8612 1420.66 Q62.5615 1423.97 62.5615 1427.38 Q62.5615 1435.91 57.5962 1440.9 Q52.631 1445.87 44.1646 1445.87 Q35.4117 1445.87 30.2873 1441.16 Q25.1311 1436.42 25.1311 1428.4 Q25.1311 1421.2 29.7781 1417.03 Q34.3932 1412.83 42.3504 1412.83 M40.6316 1418.69 Q35.8255 1418.75 32.9609 1421.39 Q30.0964 1424 30.0964 1428.33 Q30.0964 1433.23 32.8654 1436.19 Q35.6345 1439.12 40.6634 1439.57 L40.6316 1418.69 Z" fill="#000000" fill-rule="evenodd" fill-opacity="1" /><path clip-path="url(#clip490)" d="M25.9905 1403.22 L25.9905 1397.36 L61.6384 1397.36 L61.6384 1403.22 L25.9905 1403.22 M12.1132 1403.22 L12.1132 1397.36 L19.5293 1397.36 L19.5293 1403.22 L12.1132 1403.22 Z" fill="#000000" fill-rule="evenodd" fill-opacity="1" /><path clip-path="url(#clip490)" d="M43.4007 1361.65 Q37.035 1361.65 33.5338 1364.29 Q30.0327 1366.9 30.0327 1371.64 Q30.0327 1376.36 33.5338 1379 Q37.035 1381.61 43.4007 1381.61 Q49.7346 1381.61 53.2357 1379 Q56.7368 1376.36 56.7368 1371.64 Q56.7368 1366.9 53.2357 1364.29 Q49.7346 1361.65 43.4007 1361.65 M57.2143 1355.79 Q66.3172 1355.79 70.7414 1359.84 Q75.1974 1363.88 75.1974 1372.22 Q75.1974 1375.31 74.72 1378.04 Q74.2744 1380.78 73.3195 1383.36 L67.6222 1383.36 Q69.0227 1380.78 69.6911 1378.27 Q70.3595 1375.75 70.3595 1373.14 Q70.3595 1367.38 67.3358 1364.52 Q64.3439 1361.65 58.2646 1361.65 L55.3682 1361.65 Q58.5192 1363.46 60.0788 1366.3 Q61.6384 1369.13 61.6384 1373.08 Q61.6384 1379.63 56.6414 1383.64 Q51.6443 1387.65 43.4007 1387.65 Q35.1253 1387.65 30.1282 1383.64 Q25.1311 1379.63 25.1311 1373.08 Q25.1311 1369.13 26.6907 1366.3 Q28.2503 1363.46 31.4013 1361.65 L25.9905 1361.65 L25.9905 1355.79 L57.2143 1355.79 Z" fill="#000000" fill-rule="evenodd" fill-opacity="1" /><path clip-path="url(#clip490)" d="M40.1224 1314.1 L61.6384 1314.1 L61.6384 1319.96 L40.3133 1319.96 Q35.2526 1319.96 32.7381 1321.93 Q30.2237 1323.9 30.2237 1327.85 Q30.2237 1332.59 33.2474 1335.33 Q36.2711 1338.07 41.491 1338.07 L61.6384 1338.07 L61.6384 1343.95 L12.1132 1343.95 L12.1132 1338.07 L31.5287 1338.07 Q28.314 1335.97 26.7225 1333.13 Q25.1311 1330.27 25.1311 1326.54 Q25.1311 1320.4 28.9505 1317.25 Q32.7381 1314.1 40.1224 1314.1 Z" fill="#000000" fill-rule="evenodd" fill-opacity="1" /><path clip-path="url(#clip490)" d="M15.869 1296.62 L25.9905 1296.62 L25.9905 1284.56 L30.542 1284.56 L30.542 1296.62 L49.8937 1296.62 Q54.2542 1296.62 55.4955 1295.45 Q56.7368 1294.24 56.7368 1290.58 L56.7368 1284.56 L61.6384 1284.56 L61.6384 1290.58 Q61.6384 1297.36 59.124 1299.94 Q56.5777 1302.51 49.8937 1302.51 L30.542 1302.51 L30.542 1306.81 L25.9905 1306.81 L25.9905 1302.51 L15.869 1302.51 L15.869 1296.62 Z" fill="#000000" fill-rule="evenodd" fill-opacity="1" /><polyline clip-path="url(#clip494)" style="stroke:#009af9; stroke-linecap:round; stroke-linejoin:round; stroke-width:4; stroke-opacity:1; fill:none" points="323.315,1721.34 548.309,1721.34 773.303,1721.34 998.298,1721.34 1223.29,1721.34 1448.29,1721.34 1673.28,1721.34 1898.27,1721.34 2123.27,1721.34 2348.26,1721.34 2573.26,1721.34 "/>
<circle clip-path="url(#clip494)" cx="323.315" cy="1721.34" r="14.4" fill="#009af9" fill-rule="evenodd" fill-opacity="1" stroke="#000000" stroke-opacity="1" stroke-width="3.84"/>
<circle clip-path="url(#clip494)" cx="548.309" cy="1721.34" r="14.4" fill="#009af9" fill-rule="evenodd" fill-opacity="1" stroke="#000000" stroke-opacity="1" stroke-width="3.84"/>
<circle clip-path="url(#clip494)" cx="773.303" cy="1721.34" r="14.4" fill="#009af9" fill-rule="evenodd" fill-opacity="1" stroke="#000000" stroke-opacity="1" stroke-width="3.84"/>
<circle clip-path="url(#clip494)" cx="998.298" cy="1721.34" r="14.4" fill="#009af9" fill-rule="evenodd" fill-opacity="1" stroke="#000000" stroke-opacity="1" stroke-width="3.84"/>
<circle clip-path="url(#clip494)" cx="1223.29" cy="1721.34" r="14.4" fill="#009af9" fill-rule="evenodd" fill-opacity="1" stroke="#000000" stroke-opacity="1" stroke-width="3.84"/>
<circle clip-path="url(#clip494)" cx="1448.29" cy="1721.34" r="14.4" fill="#009af9" fill-rule="evenodd" fill-opacity="1" stroke="#000000" stroke-opacity="1" stroke-width="3.84"/>
<circle clip-path="url(#clip494)" cx="1673.28" cy="1721.34" r="14.4" fill="#009af9" fill-rule="evenodd" fill-opacity="1" stroke="#000000" stroke-opacity="1" stroke-width="3.84"/>
<circle clip-path="url(#clip494)" cx="1898.27" cy="1721.34" r="14.4" fill="#009af9" fill-rule="evenodd" fill-opacity="1" stroke="#000000" stroke-opacity="1" stroke-width="3.84"/>
<circle clip-path="url(#clip494)" cx="2123.27" cy="1721.34" r="14.4" fill="#009af9" fill-rule="evenodd" fill-opacity="1" stroke="#000000" stroke-opacity="1" stroke-width="3.84"/>
<circle clip-path="url(#clip494)" cx="2348.26" cy="1721.34" r="14.4" fill="#009af9" fill-rule="evenodd" fill-opacity="1" stroke="#000000" stroke-opacity="1" stroke-width="3.84"/>
<circle clip-path="url(#clip494)" cx="2573.26" cy="1721.34" r="14.4" fill="#009af9" fill-rule="evenodd" fill-opacity="1" stroke="#000000" stroke-opacity="1" stroke-width="3.84"/>
<path clip-path="url(#clip490)" d="M2269.75 1401.53 L2561.26 1401.53 L2561.26 1297.85 L2269.75 1297.85  Z" fill="#ffffff" fill-rule="evenodd" fill-opacity="1"/>
<polyline clip-path="url(#clip490)" style="stroke:#000000; stroke-linecap:round; stroke-linejoin:round; stroke-width:4; stroke-opacity:1; fill:none" points="2269.75,1401.53 2561.26,1401.53 2561.26,1297.85 2269.75,1297.85 2269.75,1401.53 "/>
<polyline clip-path="url(#clip490)" style="stroke:#009af9; stroke-linecap:round; stroke-linejoin:round; stroke-width:4; stroke-opacity:1; fill:none" points="2296.25,1349.69 2455.25,1349.69 "/>
<circle clip-path="url(#clip490)" cx="2375.75" cy="1349.69" r="22.0828" fill="#009af9" fill-rule="evenodd" fill-opacity="1" stroke="#000000" stroke-opacity="1" stroke-width="6.144"/>
<path clip-path="url(#clip490)" d="M2495.59 1369.37 Q2493.79 1374 2492.07 1375.42 Q2490.36 1376.83 2487.49 1376.83 L2484.09 1376.83 L2484.09 1373.26 L2486.59 1373.26 Q2488.35 1373.26 2489.32 1372.43 Q2490.29 1371.6 2491.47 1368.49 L2492.24 1366.55 L2481.75 1341.04 L2486.26 1341.04 L2494.37 1361.32 L2502.47 1341.04 L2506.98 1341.04 L2495.59 1369.37 Z" fill="#000000" fill-rule="evenodd" fill-opacity="1" /><path clip-path="url(#clip490)" d="M2527.63 1348.33 Q2530.99 1349.05 2532.86 1351.32 Q2534.76 1353.59 2534.76 1356.92 Q2534.76 1362.04 2531.24 1364.84 Q2527.72 1367.64 2521.24 1367.64 Q2519.06 1367.64 2516.75 1367.2 Q2514.46 1366.78 2512 1365.92 L2512 1361.41 Q2513.95 1362.55 2516.26 1363.12 Q2518.58 1363.7 2521.1 1363.7 Q2525.5 1363.7 2527.79 1361.97 Q2530.11 1360.23 2530.11 1356.92 Q2530.11 1353.86 2527.95 1352.15 Q2525.82 1350.42 2522 1350.42 L2517.98 1350.42 L2517.98 1346.57 L2522.19 1346.57 Q2525.64 1346.57 2527.47 1345.21 Q2529.3 1343.82 2529.3 1341.23 Q2529.3 1338.56 2527.4 1337.15 Q2525.52 1335.72 2522 1335.72 Q2520.08 1335.72 2517.88 1336.13 Q2515.68 1336.55 2513.05 1337.43 L2513.05 1333.26 Q2515.71 1332.52 2518.02 1332.15 Q2520.36 1331.78 2522.42 1331.78 Q2527.74 1331.78 2530.85 1334.21 Q2533.95 1336.62 2533.95 1340.74 Q2533.95 1343.61 2532.3 1345.6 Q2530.66 1347.57 2527.63 1348.33 Z" fill="#000000" fill-rule="evenodd" fill-opacity="1" /></svg>
