<?xml version="1.0" encoding="utf-8"?>
<svg xmlns="http://www.w3.org/2000/svg" xmlns:xlink="http://www.w3.org/1999/xlink" width="672" height="480" viewBox="0 0 2688 1920">
<defs>
  <clipPath id="clip200">
    <rect x="0" y="0" width="2688" height="1920"/>
  </clipPath>
</defs>
<path clip-path="url(#clip200)" d="M0 1920 L2688 1920 L2688 0 L0 0  Z" fill="#ffffff" fill-rule="evenodd" fill-opacity="1"/>
<defs>
  <clipPath id="clip201">
    <rect x="537" y="0" width="1883" height="1883"/>
  </clipPath>
</defs>
<path clip-path="url(#clip200)" d="M226.141 1734.12 L1281.67 1734.12 L1281.67 47.2441 L226.141 47.2441  Z" fill="#ffffff" fill-rule="evenodd" fill-opacity="1"/>
<defs>
  <clipPath id="clip202">
    <rect x="226" y="47" width="1057" height="1688"/>
  </clipPath>
</defs>
<polyline clip-path="url(#clip202)" style="stroke:#000000; stroke-linecap:round; stroke-linejoin:round; stroke-width:2; stroke-opacity:0.1; fill:none" points="256.014,1734.12 256.014,47.2441 "/>
<polyline clip-path="url(#clip202)" style="stroke:#000000; stroke-linecap:round; stroke-linejoin:round; stroke-width:2; stroke-opacity:0.1; fill:none" points="478.041,1734.12 478.041,47.2441 "/>
<polyline clip-path="url(#clip202)" style="stroke:#000000; stroke-linecap:round; stroke-linejoin:round; stroke-width:2; stroke-opacity:0.1; fill:none" points="700.068,1734.12 700.068,47.2441 "/>
<polyline clip-path="url(#clip202)" style="stroke:#000000; stroke-linecap:round; stroke-linejoin:round; stroke-width:2; stroke-opacity:0.1; fill:none" points="922.094,1734.12 922.094,47.2441 "/>
<polyline clip-path="url(#clip202)" style="stroke:#000000; stroke-linecap:round; stroke-linejoin:round; stroke-width:2; stroke-opacity:0.1; fill:none" points="1144.12,1734.12 1144.12,47.2441 "/>
<polyline clip-path="url(#clip200)" style="stroke:#000000; stroke-linecap:round; stroke-linejoin:round; stroke-width:4; stroke-opacity:1; fill:none" points="226.141,1734.12 1281.67,1734.12 "/>
<polyline clip-path="url(#clip200)" style="stroke:#000000; stroke-linecap:round; stroke-linejoin:round; stroke-width:4; stroke-opacity:1; fill:none" points="256.014,1734.12 256.014,1715.22 "/>
<polyline clip-path="url(#clip200)" style="stroke:#000000; stroke-linecap:round; stroke-linejoin:round; stroke-width:4; stroke-opacity:1; fill:none" points="478.041,1734.12 478.041,1715.22 "/>
<polyline clip-path="url(#clip200)" style="stroke:#000000; stroke-linecap:round; stroke-linejoin:round; stroke-width:4; stroke-opacity:1; fill:none" points="700.068,1734.12 700.068,1715.22 "/>
<polyline clip-path="url(#clip200)" style="stroke:#000000; stroke-linecap:round; stroke-linejoin:round; stroke-width:4; stroke-opacity:1; fill:none" points="922.094,1734.12 922.094,1715.22 "/>
<polyline clip-path="url(#clip200)" style="stroke:#000000; stroke-linecap:round; stroke-linejoin:round; stroke-width:4; stroke-opacity:1; fill:none" points="1144.12,1734.12 1144.12,1715.22 "/>
<path clip-path="url(#clip200)" d="M256.014 1767.34 Q252.403 1767.34 250.574 1770.9 Q248.769 1774.45 248.769 1781.58 Q248.769 1788.68 250.574 1792.25 Q252.403 1795.79 256.014 1795.79 Q259.648 1795.79 261.454 1792.25 Q263.283 1788.68 263.283 1781.58 Q263.283 1774.45 261.454 1770.9 Q259.648 1767.34 256.014 1767.34 M256.014 1763.64 Q261.824 1763.64 264.88 1768.24 Q267.959 1772.83 267.959 1781.58 Q267.959 1790.3 264.88 1794.91 Q261.824 1799.49 256.014 1799.49 Q250.204 1799.49 247.125 1794.91 Q244.07 1790.3 244.07 1781.58 Q244.07 1772.83 247.125 1768.24 Q250.204 1763.64 256.014 1763.64 Z" fill="#000000" fill-rule="evenodd" fill-opacity="1" /><path clip-path="url(#clip200)" d="M468.319 1764.26 L486.675 1764.26 L486.675 1768.2 L472.601 1768.2 L472.601 1776.67 Q473.62 1776.32 474.638 1776.16 Q475.657 1775.97 476.675 1775.97 Q482.462 1775.97 485.842 1779.15 Q489.221 1782.32 489.221 1787.73 Q489.221 1793.31 485.749 1796.41 Q482.277 1799.49 475.958 1799.49 Q473.782 1799.49 471.513 1799.12 Q469.268 1798.75 466.86 1798.01 L466.86 1793.31 Q468.944 1794.45 471.166 1795 Q473.388 1795.56 475.865 1795.56 Q479.87 1795.56 482.208 1793.45 Q484.546 1791.34 484.546 1787.73 Q484.546 1784.12 482.208 1782.02 Q479.87 1779.91 475.865 1779.91 Q473.99 1779.91 472.115 1780.33 Q470.263 1780.74 468.319 1781.62 L468.319 1764.26 Z" fill="#000000" fill-rule="evenodd" fill-opacity="1" /><path clip-path="url(#clip200)" d="M674.755 1794.89 L682.394 1794.89 L682.394 1768.52 L674.084 1770.19 L674.084 1765.93 L682.348 1764.26 L687.024 1764.26 L687.024 1794.89 L694.663 1794.89 L694.663 1798.82 L674.755 1798.82 L674.755 1794.89 Z" fill="#000000" fill-rule="evenodd" fill-opacity="1" /><path clip-path="url(#clip200)" d="M714.107 1767.34 Q710.496 1767.34 708.667 1770.9 Q706.862 1774.45 706.862 1781.58 Q706.862 1788.68 708.667 1792.25 Q710.496 1795.79 714.107 1795.79 Q717.741 1795.79 719.547 1792.25 Q721.375 1788.68 721.375 1781.58 Q721.375 1774.45 719.547 1770.9 Q717.741 1767.34 714.107 1767.34 M714.107 1763.64 Q719.917 1763.64 722.973 1768.24 Q726.051 1772.83 726.051 1781.58 Q726.051 1790.3 722.973 1794.91 Q719.917 1799.49 714.107 1799.49 Q708.297 1799.49 705.218 1794.91 Q702.163 1790.3 702.163 1781.58 Q702.163 1772.83 705.218 1768.24 Q708.297 1763.64 714.107 1763.64 Z" fill="#000000" fill-rule="evenodd" fill-opacity="1" /><path clip-path="url(#clip200)" d="M897.28 1794.89 L904.919 1794.89 L904.919 1768.52 L896.609 1770.19 L896.609 1765.93 L904.872 1764.26 L909.548 1764.26 L909.548 1794.89 L917.187 1794.89 L917.187 1798.82 L897.28 1798.82 L897.28 1794.89 Z" fill="#000000" fill-rule="evenodd" fill-opacity="1" /><path clip-path="url(#clip200)" d="M926.678 1764.26 L945.034 1764.26 L945.034 1768.2 L930.96 1768.2 L930.96 1776.67 Q931.979 1776.32 932.997 1776.16 Q934.016 1775.97 935.034 1775.97 Q940.821 1775.97 944.201 1779.15 Q947.58 1782.32 947.58 1787.73 Q947.58 1793.31 944.108 1796.41 Q940.636 1799.49 934.317 1799.49 Q932.141 1799.49 929.872 1799.12 Q927.627 1798.75 925.219 1798.01 L925.219 1793.31 Q927.303 1794.45 929.525 1795 Q931.747 1795.56 934.224 1795.56 Q938.229 1795.56 940.567 1793.45 Q942.905 1791.34 942.905 1787.73 Q942.905 1784.12 940.567 1782.02 Q938.229 1779.91 934.224 1779.91 Q932.349 1779.91 930.474 1780.33 Q928.622 1780.74 926.678 1781.62 L926.678 1764.26 Z" fill="#000000" fill-rule="evenodd" fill-opacity="1" /><path clip-path="url(#clip200)" d="M1122.89 1794.89 L1139.21 1794.89 L1139.21 1798.82 L1117.27 1798.82 L1117.27 1794.89 Q1119.93 1792.13 1124.51 1787.5 Q1129.12 1782.85 1130.3 1781.51 Q1132.55 1778.98 1133.43 1777.25 Q1134.33 1775.49 1134.33 1773.8 Q1134.33 1771.04 1132.39 1769.31 Q1130.46 1767.57 1127.36 1767.57 Q1125.16 1767.57 1122.71 1768.34 Q1120.28 1769.1 1117.5 1770.65 L1117.5 1765.93 Q1120.33 1764.79 1122.78 1764.21 Q1125.23 1763.64 1127.27 1763.64 Q1132.64 1763.64 1135.83 1766.32 Q1139.03 1769.01 1139.03 1773.5 Q1139.03 1775.63 1138.22 1777.55 Q1137.43 1779.45 1135.33 1782.04 Q1134.75 1782.71 1131.64 1785.93 Q1128.54 1789.12 1122.89 1794.89 Z" fill="#000000" fill-rule="evenodd" fill-opacity="1" /><path clip-path="url(#clip200)" d="M1159.03 1767.34 Q1155.42 1767.34 1153.59 1770.9 Q1151.78 1774.45 1151.78 1781.58 Q1151.78 1788.68 1153.59 1792.25 Q1155.42 1795.79 1159.03 1795.79 Q1162.66 1795.79 1164.47 1792.25 Q1166.3 1788.68 1166.3 1781.58 Q1166.3 1774.45 1164.47 1770.9 Q1162.66 1767.34 1159.03 1767.34 M1159.03 1763.64 Q1164.84 1763.64 1167.89 1768.24 Q1170.97 1772.83 1170.97 1781.58 Q1170.97 1790.3 1167.89 1794.91 Q1164.84 1799.49 1159.03 1799.49 Q1153.22 1799.49 1150.14 1794.91 Q1147.08 1790.3 1147.08 1781.58 Q1147.08 1772.83 1150.14 1768.24 Q1153.22 1763.64 1159.03 1763.64 Z" fill="#000000" fill-rule="evenodd" fill-opacity="1" /><path clip-path="url(#clip200)" d="M693.068 1837.53 L693.068 1847.65 L705.131 1847.65 L705.131 1852.2 L693.068 1852.2 L693.068 1871.56 Q693.068 1875.92 694.245 1877.16 Q695.455 1878.4 699.115 1878.4 L705.131 1878.4 L705.131 1883.3 L699.115 1883.3 Q692.335 1883.3 689.757 1880.79 Q687.179 1878.24 687.179 1871.56 L687.179 1852.2 L682.882 1852.2 L682.882 1847.65 L687.179 1847.65 L687.179 1837.53 L693.068 1837.53 Z" fill="#000000" fill-rule="evenodd" fill-opacity="1" /><path clip-path="url(#clip200)" d="M712.833 1847.65 L718.689 1847.65 L718.689 1883.3 L712.833 1883.3 L712.833 1847.65 M712.833 1833.78 L718.689 1833.78 L718.689 1841.19 L712.833 1841.19 L712.833 1833.78 Z" fill="#000000" fill-rule="evenodd" fill-opacity="1" /><path clip-path="url(#clip200)" d="M758.698 1854.5 Q760.894 1850.55 763.95 1848.67 Q767.005 1846.79 771.143 1846.79 Q776.713 1846.79 779.737 1850.71 Q782.76 1854.59 782.76 1861.78 L782.76 1883.3 L776.872 1883.3 L776.872 1861.98 Q776.872 1856.85 775.058 1854.37 Q773.244 1851.89 769.52 1851.89 Q764.968 1851.89 762.326 1854.91 Q759.685 1857.93 759.685 1863.15 L759.685 1883.3 L753.796 1883.3 L753.796 1861.98 Q753.796 1856.82 751.982 1854.37 Q750.168 1851.89 746.38 1851.89 Q741.892 1851.89 739.251 1854.94 Q736.609 1857.97 736.609 1863.15 L736.609 1883.3 L730.721 1883.3 L730.721 1847.65 L736.609 1847.65 L736.609 1853.19 Q738.614 1849.91 741.415 1848.35 Q744.216 1846.79 748.067 1846.79 Q751.95 1846.79 754.656 1848.77 Q757.393 1850.74 758.698 1854.5 Z" fill="#000000" fill-rule="evenodd" fill-opacity="1" /><path clip-path="url(#clip200)" d="M824.933 1864.01 L824.933 1866.88 L798.006 1866.88 Q798.388 1872.92 801.635 1876.11 Q804.913 1879.26 810.738 1879.26 Q814.111 1879.26 817.262 1878.43 Q820.445 1877.6 823.565 1875.95 L823.565 1881.49 Q820.413 1882.82 817.103 1883.52 Q813.793 1884.22 810.387 1884.22 Q801.857 1884.22 796.86 1879.26 Q791.895 1874.29 791.895 1865.83 Q791.895 1857.07 796.606 1851.95 Q801.348 1846.79 809.369 1846.79 Q816.562 1846.79 820.732 1851.44 Q824.933 1856.06 824.933 1864.01 M819.077 1862.29 Q819.013 1857.49 816.371 1854.62 Q813.761 1851.76 809.433 1851.76 Q804.531 1851.76 801.571 1854.53 Q798.643 1857.3 798.197 1862.33 L819.077 1862.29 Z" fill="#000000" fill-rule="evenodd" fill-opacity="1" /><polyline clip-path="url(#clip202)" style="stroke:#000000; stroke-linecap:round; stroke-linejoin:round; stroke-width:2; stroke-opacity:0.1; fill:none" points="226.141,1686.38 1281.67,1686.38 "/>
<polyline clip-path="url(#clip202)" style="stroke:#000000; stroke-linecap:round; stroke-linejoin:round; stroke-width:2; stroke-opacity:0.1; fill:none" points="226.141,1432.84 1281.67,1432.84 "/>
<polyline clip-path="url(#clip202)" style="stroke:#000000; stroke-linecap:round; stroke-linejoin:round; stroke-width:2; stroke-opacity:0.1; fill:none" points="226.141,1179.31 1281.67,1179.31 "/>
<polyline clip-path="url(#clip202)" style="stroke:#000000; stroke-linecap:round; stroke-linejoin:round; stroke-width:2; stroke-opacity:0.1; fill:none" points="226.141,925.77 1281.67,925.77 "/>
<polyline clip-path="url(#clip202)" style="stroke:#000000; stroke-linecap:round; stroke-linejoin:round; stroke-width:2; stroke-opacity:0.1; fill:none" points="226.141,672.236 1281.67,672.236 "/>
<polyline clip-path="url(#clip202)" style="stroke:#000000; stroke-linecap:round; stroke-linejoin:round; stroke-width:2; stroke-opacity:0.1; fill:none" points="226.141,418.701 1281.67,418.701 "/>
<polyline clip-path="url(#clip202)" style="stroke:#000000; stroke-linecap:round; stroke-linejoin:round; stroke-width:2; stroke-opacity:0.1; fill:none" points="226.141,165.166 1281.67,165.166 "/>
<polyline clip-path="url(#clip200)" style="stroke:#000000; stroke-linecap:round; stroke-linejoin:round; stroke-width:4; stroke-opacity:1; fill:none" points="226.141,1734.12 226.141,47.2441 "/>
<polyline clip-path="url(#clip200)" style="stroke:#000000; stroke-linecap:round; stroke-linejoin:round; stroke-width:4; stroke-opacity:1; fill:none" points="226.141,1686.38 245.038,1686.38 "/>
<polyline clip-path="url(#clip200)" style="stroke:#000000; stroke-linecap:round; stroke-linejoin:round; stroke-width:4; stroke-opacity:1; fill:none" points="226.141,1432.84 245.038,1432.84 "/>
<polyline clip-path="url(#clip200)" style="stroke:#000000; stroke-linecap:round; stroke-linejoin:round; stroke-width:4; stroke-opacity:1; fill:none" points="226.141,1179.31 245.038,1179.31 "/>
<polyline clip-path="url(#clip200)" style="stroke:#000000; stroke-linecap:round; stroke-linejoin:round; stroke-width:4; stroke-opacity:1; fill:none" points="226.141,925.77 245.038,925.77 "/>
<polyline clip-path="url(#clip200)" style="stroke:#000000; stroke-linecap:round; stroke-linejoin:round; stroke-width:4; stroke-opacity:1; fill:none" points="226.141,672.236 245.038,672.236 "/>
<polyline clip-path="url(#clip200)" style="stroke:#000000; stroke-linecap:round; stroke-linejoin:round; stroke-width:4; stroke-opacity:1; fill:none" points="226.141,418.701 245.038,418.701 "/>
<polyline clip-path="url(#clip200)" style="stroke:#000000; stroke-linecap:round; stroke-linejoin:round; stroke-width:4; stroke-opacity:1; fill:none" points="226.141,165.166 245.038,165.166 "/>
<path clip-path="url(#clip200)" d="M128.645 1672.17 Q125.034 1672.17 123.205 1675.74 Q121.4 1679.28 121.4 1686.41 Q121.4 1693.52 123.205 1697.08 Q125.034 1700.62 128.645 1700.62 Q132.279 1700.62 134.085 1697.08 Q135.913 1693.52 135.913 1686.41 Q135.913 1679.28 134.085 1675.74 Q132.279 1672.17 128.645 1672.17 M128.645 1668.47 Q134.455 1668.47 137.511 1673.08 Q140.589 1677.66 140.589 1686.41 Q140.589 1695.14 137.511 1699.74 Q134.455 1704.33 128.645 1704.33 Q122.835 1704.33 119.756 1699.74 Q116.701 1695.14 116.701 1686.41 Q116.701 1677.66 119.756 1673.08 Q122.835 1668.47 128.645 1668.47 Z" fill="#000000" fill-rule="evenodd" fill-opacity="1" /><path clip-path="url(#clip200)" d="M148.807 1697.78 L153.691 1697.78 L153.691 1703.66 L148.807 1703.66 L148.807 1697.78 Z" fill="#000000" fill-rule="evenodd" fill-opacity="1" /><path clip-path="url(#clip200)" d="M173.876 1672.17 Q170.265 1672.17 168.436 1675.74 Q166.631 1679.28 166.631 1686.41 Q166.631 1693.52 168.436 1697.08 Q170.265 1700.62 173.876 1700.62 Q177.51 1700.62 179.316 1697.08 Q181.145 1693.52 181.145 1686.41 Q181.145 1679.28 179.316 1675.74 Q177.51 1672.17 173.876 1672.17 M173.876 1668.47 Q179.686 1668.47 182.742 1673.08 Q185.821 1677.66 185.821 1686.41 Q185.821 1695.14 182.742 1699.74 Q179.686 1704.33 173.876 1704.33 Q168.066 1704.33 164.987 1699.74 Q161.932 1695.14 161.932 1686.41 Q161.932 1677.66 164.987 1673.08 Q168.066 1668.47 173.876 1668.47 Z" fill="#000000" fill-rule="evenodd" fill-opacity="1" /><path clip-path="url(#clip200)" d="M129.872 1418.64 Q126.261 1418.64 124.432 1422.2 Q122.626 1425.75 122.626 1432.88 Q122.626 1439.98 124.432 1443.55 Q126.261 1447.09 129.872 1447.09 Q133.506 1447.09 135.312 1443.55 Q137.14 1439.98 137.14 1432.88 Q137.14 1425.75 135.312 1422.2 Q133.506 1418.64 129.872 1418.64 M129.872 1414.94 Q135.682 1414.94 138.737 1419.54 Q141.816 1424.13 141.816 1432.88 Q141.816 1441.6 138.737 1446.21 Q135.682 1450.79 129.872 1450.79 Q124.062 1450.79 120.983 1446.21 Q117.927 1441.6 117.927 1432.88 Q117.927 1424.13 120.983 1419.54 Q124.062 1414.94 129.872 1414.94 Z" fill="#000000" fill-rule="evenodd" fill-opacity="1" /><path clip-path="url(#clip200)" d="M150.034 1444.24 L154.918 1444.24 L154.918 1450.12 L150.034 1450.12 L150.034 1444.24 Z" fill="#000000" fill-rule="evenodd" fill-opacity="1" /><path clip-path="url(#clip200)" d="M165.913 1446.19 L173.552 1446.19 L173.552 1419.82 L165.242 1421.49 L165.242 1417.23 L173.506 1415.56 L178.182 1415.56 L178.182 1446.19 L185.821 1446.19 L185.821 1450.12 L165.913 1450.12 L165.913 1446.19 Z" fill="#000000" fill-rule="evenodd" fill-opacity="1" /><path clip-path="url(#clip200)" d="M130.242 1165.1 Q126.631 1165.1 124.802 1168.67 Q122.997 1172.21 122.997 1179.34 Q122.997 1186.45 124.802 1190.01 Q126.631 1193.55 130.242 1193.55 Q133.876 1193.55 135.682 1190.01 Q137.511 1186.45 137.511 1179.34 Q137.511 1172.21 135.682 1168.67 Q133.876 1165.1 130.242 1165.1 M130.242 1161.4 Q136.052 1161.4 139.108 1166.01 Q142.187 1170.59 142.187 1179.34 Q142.187 1188.07 139.108 1192.67 Q136.052 1197.26 130.242 1197.26 Q124.432 1197.26 121.353 1192.67 Q118.298 1188.07 118.298 1179.34 Q118.298 1170.59 121.353 1166.01 Q124.432 1161.4 130.242 1161.4 Z" fill="#000000" fill-rule="evenodd" fill-opacity="1" /><path clip-path="url(#clip200)" d="M150.404 1190.71 L155.288 1190.71 L155.288 1196.59 L150.404 1196.59 L150.404 1190.71 Z" fill="#000000" fill-rule="evenodd" fill-opacity="1" /><path clip-path="url(#clip200)" d="M169.501 1192.65 L185.821 1192.65 L185.821 1196.59 L163.876 1196.59 L163.876 1192.65 Q166.538 1189.9 171.122 1185.27 Q175.728 1180.61 176.909 1179.27 Q179.154 1176.75 180.034 1175.01 Q180.936 1173.25 180.936 1171.56 Q180.936 1168.81 178.992 1167.07 Q177.071 1165.34 173.969 1165.34 Q171.77 1165.34 169.316 1166.1 Q166.885 1166.86 164.108 1168.41 L164.108 1163.69 Q166.932 1162.56 169.385 1161.98 Q171.839 1161.4 173.876 1161.4 Q179.247 1161.4 182.441 1164.09 Q185.635 1166.77 185.635 1171.26 Q185.635 1173.39 184.825 1175.31 Q184.038 1177.21 181.932 1179.8 Q181.353 1180.47 178.251 1183.69 Q175.149 1186.89 169.501 1192.65 Z" fill="#000000" fill-rule="evenodd" fill-opacity="1" /><path clip-path="url(#clip200)" d="M129.293 911.569 Q125.682 911.569 123.853 915.134 Q122.048 918.676 122.048 925.805 Q122.048 932.912 123.853 936.476 Q125.682 940.018 129.293 940.018 Q132.927 940.018 134.733 936.476 Q136.562 932.912 136.562 925.805 Q136.562 918.676 134.733 915.134 Q132.927 911.569 129.293 911.569 M129.293 907.865 Q135.103 907.865 138.159 912.472 Q141.237 917.055 141.237 925.805 Q141.237 934.532 138.159 939.138 Q135.103 943.722 129.293 943.722 Q123.483 943.722 120.404 939.138 Q117.349 934.532 117.349 925.805 Q117.349 917.055 120.404 912.472 Q123.483 907.865 129.293 907.865 Z" fill="#000000" fill-rule="evenodd" fill-opacity="1" /><path clip-path="url(#clip200)" d="M149.455 937.171 L154.339 937.171 L154.339 943.05 L149.455 943.05 L149.455 937.171 Z" fill="#000000" fill-rule="evenodd" fill-opacity="1" /><path clip-path="url(#clip200)" d="M178.691 924.416 Q182.047 925.134 183.922 927.402 Q185.821 929.671 185.821 933.004 Q185.821 938.12 182.302 940.921 Q178.784 943.722 172.302 943.722 Q170.126 943.722 167.811 943.282 Q165.52 942.865 163.066 942.009 L163.066 937.495 Q165.01 938.629 167.325 939.208 Q169.64 939.787 172.163 939.787 Q176.561 939.787 178.853 938.051 Q181.168 936.314 181.168 933.004 Q181.168 929.949 179.015 928.236 Q176.885 926.5 173.066 926.5 L169.038 926.5 L169.038 922.657 L173.251 922.657 Q176.7 922.657 178.529 921.291 Q180.358 919.902 180.358 917.31 Q180.358 914.648 178.459 913.236 Q176.584 911.801 173.066 911.801 Q171.145 911.801 168.946 912.217 Q166.747 912.634 164.108 913.514 L164.108 909.347 Q166.77 908.606 169.085 908.236 Q171.422 907.865 173.483 907.865 Q178.807 907.865 181.909 910.296 Q185.01 912.703 185.01 916.824 Q185.01 919.694 183.367 921.685 Q181.723 923.652 178.691 924.416 Z" fill="#000000" fill-rule="evenodd" fill-opacity="1" /><path clip-path="url(#clip200)" d="M128.159 658.034 Q124.548 658.034 122.719 661.599 Q120.913 665.141 120.913 672.27 Q120.913 679.377 122.719 682.941 Q124.548 686.483 128.159 686.483 Q131.793 686.483 133.599 682.941 Q135.427 679.377 135.427 672.27 Q135.427 665.141 133.599 661.599 Q131.793 658.034 128.159 658.034 M128.159 654.331 Q133.969 654.331 137.025 658.937 Q140.103 663.52 140.103 672.27 Q140.103 680.997 137.025 685.604 Q133.969 690.187 128.159 690.187 Q122.349 690.187 119.27 685.604 Q116.214 680.997 116.214 672.27 Q116.214 663.52 119.27 658.937 Q122.349 654.331 128.159 654.331 Z" fill="#000000" fill-rule="evenodd" fill-opacity="1" /><path clip-path="url(#clip200)" d="M148.321 683.636 L153.205 683.636 L153.205 689.516 L148.321 689.516 L148.321 683.636 Z" fill="#000000" fill-rule="evenodd" fill-opacity="1" /><path clip-path="url(#clip200)" d="M176.237 659.03 L164.432 677.479 L176.237 677.479 L176.237 659.03 M175.01 654.956 L180.89 654.956 L180.89 677.479 L185.821 677.479 L185.821 681.367 L180.89 681.367 L180.89 689.516 L176.237 689.516 L176.237 681.367 L160.636 681.367 L160.636 676.854 L175.01 654.956 Z" fill="#000000" fill-rule="evenodd" fill-opacity="1" /><path clip-path="url(#clip200)" d="M129.64 404.499 Q126.029 404.499 124.201 408.064 Q122.395 411.606 122.395 418.735 Q122.395 425.842 124.201 429.407 Q126.029 432.948 129.64 432.948 Q133.275 432.948 135.08 429.407 Q136.909 425.842 136.909 418.735 Q136.909 411.606 135.08 408.064 Q133.275 404.499 129.64 404.499 M129.64 400.796 Q135.45 400.796 138.506 405.402 Q141.585 409.985 141.585 418.735 Q141.585 427.462 138.506 432.069 Q135.45 436.652 129.64 436.652 Q123.83 436.652 120.751 432.069 Q117.696 427.462 117.696 418.735 Q117.696 409.985 120.751 405.402 Q123.83 400.796 129.64 400.796 Z" fill="#000000" fill-rule="evenodd" fill-opacity="1" /><path clip-path="url(#clip200)" d="M149.802 430.101 L154.686 430.101 L154.686 435.981 L149.802 435.981 L149.802 430.101 Z" fill="#000000" fill-rule="evenodd" fill-opacity="1" /><path clip-path="url(#clip200)" d="M164.918 401.421 L183.274 401.421 L183.274 405.356 L169.2 405.356 L169.2 413.828 Q170.219 413.481 171.237 413.319 Q172.256 413.133 173.274 413.133 Q179.061 413.133 182.441 416.305 Q185.821 419.476 185.821 424.893 Q185.821 430.471 182.348 433.573 Q178.876 436.652 172.557 436.652 Q170.381 436.652 168.112 436.282 Q165.867 435.911 163.46 435.17 L163.46 430.471 Q165.543 431.606 167.765 432.161 Q169.987 432.717 172.464 432.717 Q176.469 432.717 178.807 430.61 Q181.145 428.504 181.145 424.893 Q181.145 421.282 178.807 419.175 Q176.469 417.069 172.464 417.069 Q170.589 417.069 168.714 417.485 Q166.862 417.902 164.918 418.782 L164.918 401.421 Z" fill="#000000" fill-rule="evenodd" fill-opacity="1" /><path clip-path="url(#clip200)" d="M128.483 150.964 Q124.872 150.964 123.043 154.529 Q121.238 158.071 121.238 165.2 Q121.238 172.307 123.043 175.872 Q124.872 179.413 128.483 179.413 Q132.117 179.413 133.923 175.872 Q135.751 172.307 135.751 165.2 Q135.751 158.071 133.923 154.529 Q132.117 150.964 128.483 150.964 M128.483 147.261 Q134.293 147.261 137.349 151.867 Q140.427 156.45 140.427 165.2 Q140.427 173.927 137.349 178.534 Q134.293 183.117 128.483 183.117 Q122.673 183.117 119.594 178.534 Q116.539 173.927 116.539 165.2 Q116.539 156.45 119.594 151.867 Q122.673 147.261 128.483 147.261 Z" fill="#000000" fill-rule="evenodd" fill-opacity="1" /><path clip-path="url(#clip200)" d="M148.645 176.566 L153.529 176.566 L153.529 182.446 L148.645 182.446 L148.645 176.566 Z" fill="#000000" fill-rule="evenodd" fill-opacity="1" /><path clip-path="url(#clip200)" d="M174.293 163.302 Q171.145 163.302 169.293 165.455 Q167.464 167.608 167.464 171.358 Q167.464 175.085 169.293 177.26 Q171.145 179.413 174.293 179.413 Q177.441 179.413 179.27 177.26 Q181.122 175.085 181.122 171.358 Q181.122 167.608 179.27 165.455 Q177.441 163.302 174.293 163.302 M183.575 148.65 L183.575 152.909 Q181.816 152.075 180.01 151.636 Q178.228 151.196 176.469 151.196 Q171.839 151.196 169.385 154.321 Q166.955 157.446 166.608 163.765 Q167.973 161.751 170.034 160.687 Q172.094 159.599 174.571 159.599 Q179.779 159.599 182.788 162.77 Q185.821 165.918 185.821 171.358 Q185.821 176.682 182.672 179.899 Q179.524 183.117 174.293 183.117 Q168.297 183.117 165.126 178.534 Q161.955 173.927 161.955 165.2 Q161.955 157.006 165.844 152.145 Q169.733 147.261 176.284 147.261 Q178.043 147.261 179.825 147.608 Q181.631 147.955 183.575 148.65 Z" fill="#000000" fill-rule="evenodd" fill-opacity="1" /><path clip-path="url(#clip200)" d="M27.0408 959.08 L32.579 959.08 Q31.3059 961.563 30.6693 964.236 Q30.0327 966.91 30.0327 969.774 Q30.0327 974.135 31.3695 976.331 Q32.7063 978.495 35.3799 978.495 Q37.4169 978.495 38.5946 976.936 Q39.7404 975.376 40.7908 970.666 L41.2364 968.66 Q42.5732 962.422 45.0239 959.812 Q47.4429 957.17 51.8034 957.17 Q56.7687 957.17 59.6651 961.117 Q62.5615 965.032 62.5615 971.907 Q62.5615 974.772 61.9886 977.891 Q61.4475 980.978 60.3335 984.416 L54.2861 984.416 Q55.973 981.169 56.8323 978.018 Q57.6599 974.867 57.6599 971.78 Q57.6599 967.642 56.2594 965.414 Q54.8271 963.186 52.249 963.186 Q49.8619 963.186 48.5887 964.809 Q47.3156 966.401 46.1379 971.843 L45.6605 973.88 Q44.5147 979.323 42.1594 981.742 Q39.7722 984.161 35.6345 984.161 Q30.6056 984.161 27.8684 980.596 Q25.1311 977.031 25.1311 970.475 Q25.1311 967.228 25.6085 964.364 Q26.086 961.499 27.0408 959.08 Z" fill="#000000" fill-rule="evenodd" fill-opacity="1" /><path clip-path="url(#clip200)" d="M56.2912 942.179 L75.1974 942.179 L75.1974 948.067 L25.9905 948.067 L25.9905 942.179 L31.4013 942.179 Q28.2185 940.333 26.6907 937.532 Q25.1311 934.699 25.1311 930.784 Q25.1311 924.291 30.2873 920.249 Q35.4436 916.175 43.8463 916.175 Q52.249 916.175 57.4052 920.249 Q62.5615 924.291 62.5615 930.784 Q62.5615 934.699 61.0337 937.532 Q59.4741 940.333 56.2912 942.179 M43.8463 922.254 Q37.3851 922.254 33.7248 924.928 Q30.0327 927.57 30.0327 932.217 Q30.0327 936.864 33.7248 939.537 Q37.3851 942.179 43.8463 942.179 Q50.3075 942.179 53.9996 939.537 Q57.6599 936.864 57.6599 932.217 Q57.6599 927.57 53.9996 924.928 Q50.3075 922.254 43.8463 922.254 Z" fill="#000000" fill-rule="evenodd" fill-opacity="1" /><path clip-path="url(#clip200)" d="M42.3504 875.976 L45.2149 875.976 L45.2149 902.903 Q51.2623 902.521 54.4452 899.274 Q57.5962 895.996 57.5962 890.171 Q57.5962 886.797 56.7687 883.646 Q55.9411 880.464 54.2861 877.344 L59.8242 877.344 Q61.161 880.495 61.8612 883.806 Q62.5615 887.116 62.5615 890.521 Q62.5615 899.051 57.5962 904.049 Q52.631 909.014 44.1646 909.014 Q35.4117 909.014 30.2873 904.303 Q25.1311 899.561 25.1311 891.54 Q25.1311 884.347 29.7781 880.177 Q34.3932 875.976 42.3504 875.976 M40.6316 881.832 Q35.8255 881.896 32.9609 884.538 Q30.0964 887.148 30.0964 891.476 Q30.0964 896.378 32.8654 899.338 Q35.6345 902.266 40.6634 902.712 L40.6316 881.832 Z" fill="#000000" fill-rule="evenodd" fill-opacity="1" /><path clip-path="url(#clip200)" d="M42.3504 835.872 L45.2149 835.872 L45.2149 862.799 Q51.2623 862.417 54.4452 859.17 Q57.5962 855.892 57.5962 850.067 Q57.5962 846.694 56.7687 843.542 Q55.9411 840.36 54.2861 837.24 L59.8242 837.24 Q61.161 840.391 61.8612 843.702 Q62.5615 847.012 62.5615 850.417 Q62.5615 858.947 57.5962 863.945 Q52.631 868.91 44.1646 868.91 Q35.4117 868.91 30.2873 864.199 Q25.1311 859.457 25.1311 851.436 Q25.1311 844.243 29.7781 840.073 Q34.3932 835.872 42.3504 835.872 M40.6316 841.728 Q35.8255 841.792 32.9609 844.434 Q30.0964 847.044 30.0964 851.372 Q30.0964 856.274 32.8654 859.234 Q35.6345 862.162 40.6634 862.608 L40.6316 841.728 Z" fill="#000000" fill-rule="evenodd" fill-opacity="1" /><path clip-path="url(#clip200)" d="M31.4013 802.802 L12.1132 802.802 L12.1132 796.946 L61.6384 796.946 L61.6384 802.802 L56.2912 802.802 Q59.4741 804.648 61.0337 807.481 Q62.5615 810.282 62.5615 814.228 Q62.5615 820.69 57.4052 824.764 Q52.249 828.806 43.8463 828.806 Q35.4436 828.806 30.2873 824.764 Q25.1311 820.69 25.1311 814.228 Q25.1311 810.282 26.6907 807.481 Q28.2185 804.648 31.4013 802.802 M43.8463 822.758 Q50.3075 822.758 53.9996 820.117 Q57.6599 817.443 57.6599 812.796 Q57.6599 808.149 53.9996 805.476 Q50.3075 802.802 43.8463 802.802 Q37.3851 802.802 33.7248 805.476 Q30.0327 808.149 30.0327 812.796 Q30.0327 817.443 33.7248 820.117 Q37.3851 822.758 43.8463 822.758 Z" fill="#000000" fill-rule="evenodd" fill-opacity="1" /><polyline clip-path="url(#clip202)" style="stroke:#009af9; stroke-linecap:round; stroke-linejoin:round; stroke-width:4; stroke-opacity:1; fill:none" points="256.014,1686.38 333.724,1089.83 411.433,860.676 504.94,690.154 582.442,614.664 654.485,577.9 724.138,562.573 792.842,562.531 861.542,577.761 931.187,614.385 1003.21,689.651 1080.67,859.889 1150.78,1089.83 1251.8,1686.38 "/>
<circle clip-path="url(#clip202)" cx="256.014" cy="1686.38" r="14.4" fill="#009af9" fill-rule="evenodd" fill-opacity="0.2" stroke="#000000" stroke-opacity="0.2" stroke-width="3.84"/>
<circle clip-path="url(#clip202)" cx="333.724" cy="1089.83" r="14.4" fill="#009af9" fill-rule="evenodd" fill-opacity="0.2" stroke="#000000" stroke-opacity="0.2" stroke-width="3.84"/>
<circle clip-path="url(#clip202)" cx="411.433" cy="860.676" r="14.4" fill="#009af9" fill-rule="evenodd" fill-opacity="0.2" stroke="#000000" stroke-opacity="0.2" stroke-width="3.84"/>
<circle clip-path="url(#clip202)" cx="504.94" cy="690.154" r="14.4" fill="#009af9" fill-rule="evenodd" fill-opacity="0.2" stroke="#000000" stroke-opacity="0.2" stroke-width="3.84"/>
<circle clip-path="url(#clip202)" cx="582.442" cy="614.664" r="14.4" fill="#009af9" fill-rule="evenodd" fill-opacity="0.2" stroke="#000000" stroke-opacity="0.2" stroke-width="3.84"/>
<circle clip-path="url(#clip202)" cx="654.485" cy="577.9" r="14.4" fill="#009af9" fill-rule="evenodd" fill-opacity="0.2" stroke="#000000" stroke-opacity="0.2" stroke-width="3.84"/>
<circle clip-path="url(#clip202)" cx="724.138" cy="562.573" r="14.4" fill="#009af9" fill-rule="evenodd" fill-opacity="0.2" stroke="#000000" stroke-opacity="0.2" stroke-width="3.84"/>
<circle clip-path="url(#clip202)" cx="792.842" cy="562.531" r="14.4" fill="#009af9" fill-rule="evenodd" fill-opacity="0.2" stroke="#000000" stroke-opacity="0.2" stroke-width="3.84"/>
<circle clip-path="url(#clip202)" cx="861.542" cy="577.761" r="14.4" fill="#009af9" fill-rule="evenodd" fill-opacity="0.2" stroke="#000000" stroke-opacity="0.2" stroke-width="3.84"/>
<circle clip-path="url(#clip202)" cx="931.187" cy="614.385" r="14.4" fill="#009af9" fill-rule="evenodd" fill-opacity="0.2" stroke="#000000" stroke-opacity="0.2" stroke-width="3.84"/>
<circle clip-path="url(#clip202)" cx="1003.21" cy="689.651" r="14.4" fill="#009af9" fill-rule="evenodd" fill-opacity="0.2" stroke="#000000" stroke-opacity="0.2" stroke-width="3.84"/>
<circle clip-path="url(#clip202)" cx="1080.67" cy="859.889" r="14.4" fill="#009af9" fill-rule="evenodd" fill-opacity="0.2" stroke="#000000" stroke-opacity="0.2" stroke-width="3.84"/>
<circle clip-path="url(#clip202)" cx="1150.78" cy="1089.83" r="14.4" fill="#009af9" fill-rule="evenodd" fill-opacity="0.2" stroke="#000000" stroke-opacity="0.2" stroke-width="3.84"/>
<circle clip-path="url(#clip202)" cx="1251.8" cy="1686.38" r="14.4" fill="#009af9" fill-rule="evenodd" fill-opacity="0.2" stroke="#000000" stroke-opacity="0.2" stroke-width="3.84"/>
<polyline clip-path="url(#clip202)" style="stroke:#e26f46; stroke-linecap:round; stroke-linejoin:round; stroke-width:4; stroke-opacity:1; fill:none" points="256.014,1686.38 333.724,765.737 411.433,672.236 487.565,672.236 563.698,672.236 639.83,672.236 715.963,672.236 792.095,672.236 868.228,672.236 944.36,672.236 1020.49,672.236 1096.63,672.236 1149.45,765.737 1250.47,1686.38 "/>
<circle clip-path="url(#clip202)" cx="256.014" cy="1686.38" r="14.4" fill="#e26f46" fill-rule="evenodd" fill-opacity="0.2" stroke="#000000" stroke-opacity="0.2" stroke-width="3.84"/>
<circle clip-path="url(#clip202)" cx="333.724" cy="765.737" r="14.4" fill="#e26f46" fill-rule="evenodd" fill-opacity="0.2" stroke="#000000" stroke-opacity="0.2" stroke-width="3.84"/>
<circle clip-path="url(#clip202)" cx="411.433" cy="672.236" r="14.4" fill="#e26f46" fill-rule="evenodd" fill-opacity="0.2" stroke="#000000" stroke-opacity="0.2" stroke-width="3.84"/>
<circle clip-path="url(#clip202)" cx="487.565" cy="672.236" r="14.4" fill="#e26f46" fill-rule="evenodd" fill-opacity="0.2" stroke="#000000" stroke-opacity="0.2" stroke-width="3.84"/>
<circle clip-path="url(#clip202)" cx="563.698" cy="672.236" r="14.4" fill="#e26f46" fill-rule="evenodd" fill-opacity="0.2" stroke="#000000" stroke-opacity="0.2" stroke-width="3.84"/>
<circle clip-path="url(#clip202)" cx="639.83" cy="672.236" r="14.4" fill="#e26f46" fill-rule="evenodd" fill-opacity="0.2" stroke="#000000" stroke-opacity="0.2" stroke-width="3.84"/>
<circle clip-path="url(#clip202)" cx="715.963" cy="672.236" r="14.4" fill="#e26f46" fill-rule="evenodd" fill-opacity="0.2" stroke="#000000" stroke-opacity="0.2" stroke-width="3.84"/>
<circle clip-path="url(#clip202)" cx="792.095" cy="672.236" r="14.4" fill="#e26f46" fill-rule="evenodd" fill-opacity="0.2" stroke="#000000" stroke-opacity="0.2" stroke-width="3.84"/>
<circle clip-path="url(#clip202)" cx="868.228" cy="672.236" r="14.4" fill="#e26f46" fill-rule="evenodd" fill-opacity="0.2" stroke="#000000" stroke-opacity="0.2" stroke-width="3.84"/>
<circle clip-path="url(#clip202)" cx="944.36" cy="672.236" r="14.4" fill="#e26f46" fill-rule="evenodd" fill-opacity="0.2" stroke="#000000" stroke-opacity="0.2" stroke-width="3.84"/>
<circle clip-path="url(#clip202)" cx="1020.49" cy="672.236" r="14.4" fill="#e26f46" fill-rule="evenodd" fill-opacity="0.2" stroke="#000000" stroke-opacity="0.2" stroke-width="3.84"/>
<circle clip-path="url(#clip202)" cx="1096.63" cy="672.236" r="14.4" fill="#e26f46" fill-rule="evenodd" fill-opacity="0.2" stroke="#000000" stroke-opacity="0.2" stroke-width="3.84"/>
<circle clip-path="url(#clip202)" cx="1149.45" cy="765.737" r="14.4" fill="#e26f46" fill-rule="evenodd" fill-opacity="0.2" stroke="#000000" stroke-opacity="0.2" stroke-width="3.84"/>
<circle clip-path="url(#clip202)" cx="1250.47" cy="1686.38" r="14.4" fill="#e26f46" fill-rule="evenodd" fill-opacity="0.2" stroke="#000000" stroke-opacity="0.2" stroke-width="3.84"/>
<polyline clip-path="url(#clip202)" style="stroke:#3da44d; stroke-linecap:round; stroke-linejoin:round; stroke-width:4; stroke-opacity:1; fill:none" points="256.014,1686.38 333.724,1407.49 411.433,1085.96 540.026,719.487 619.879,475.816 683.658,273.091 738.289,94.9858 786.806,99.1753 835.451,285.508 890.566,499.768 955.633,764.005 1039.34,1107.67 1149.45,1407.49 1250.47,1686.38 "/>
<circle clip-path="url(#clip202)" cx="256.014" cy="1686.38" r="14.4" fill="#3da44d" fill-rule="evenodd" fill-opacity="0.2" stroke="#000000" stroke-opacity="0.2" stroke-width="3.84"/>
<circle clip-path="url(#clip202)" cx="333.724" cy="1407.49" r="14.4" fill="#3da44d" fill-rule="evenodd" fill-opacity="0.2" stroke="#000000" stroke-opacity="0.2" stroke-width="3.84"/>
<circle clip-path="url(#clip202)" cx="411.433" cy="1085.96" r="14.4" fill="#3da44d" fill-rule="evenodd" fill-opacity="0.2" stroke="#000000" stroke-opacity="0.2" stroke-width="3.84"/>
<circle clip-path="url(#clip202)" cx="540.026" cy="719.487" r="14.4" fill="#3da44d" fill-rule="evenodd" fill-opacity="0.2" stroke="#000000" stroke-opacity="0.2" stroke-width="3.84"/>
<circle clip-path="url(#clip202)" cx="619.879" cy="475.816" r="14.4" fill="#3da44d" fill-rule="evenodd" fill-opacity="0.2" stroke="#000000" stroke-opacity="0.2" stroke-width="3.84"/>
<circle clip-path="url(#clip202)" cx="683.658" cy="273.091" r="14.4" fill="#3da44d" fill-rule="evenodd" fill-opacity="0.2" stroke="#000000" stroke-opacity="0.2" stroke-width="3.84"/>
<circle clip-path="url(#clip202)" cx="738.289" cy="94.9858" r="14.4" fill="#3da44d" fill-rule="evenodd" fill-opacity="0.2" stroke="#000000" stroke-opacity="0.2" stroke-width="3.84"/>
<circle clip-path="url(#clip202)" cx="786.806" cy="99.1753" r="14.4" fill="#3da44d" fill-rule="evenodd" fill-opacity="0.2" stroke="#000000" stroke-opacity="0.2" stroke-width="3.84"/>
<circle clip-path="url(#clip202)" cx="835.451" cy="285.508" r="14.4" fill="#3da44d" fill-rule="evenodd" fill-opacity="0.2" stroke="#000000" stroke-opacity="0.2" stroke-width="3.84"/>
<circle clip-path="url(#clip202)" cx="890.566" cy="499.768" r="14.4" fill="#3da44d" fill-rule="evenodd" fill-opacity="0.2" stroke="#000000" stroke-opacity="0.2" stroke-width="3.84"/>
<circle clip-path="url(#clip202)" cx="955.633" cy="764.005" r="14.4" fill="#3da44d" fill-rule="evenodd" fill-opacity="0.2" stroke="#000000" stroke-opacity="0.2" stroke-width="3.84"/>
<circle clip-path="url(#clip202)" cx="1039.34" cy="1107.67" r="14.4" fill="#3da44d" fill-rule="evenodd" fill-opacity="0.2" stroke="#000000" stroke-opacity="0.2" stroke-width="3.84"/>
<circle clip-path="url(#clip202)" cx="1149.45" cy="1407.49" r="14.4" fill="#3da44d" fill-rule="evenodd" fill-opacity="0.2" stroke="#000000" stroke-opacity="0.2" stroke-width="3.84"/>
<circle clip-path="url(#clip202)" cx="1250.47" cy="1686.38" r="14.4" fill="#3da44d" fill-rule="evenodd" fill-opacity="0.2" stroke="#000000" stroke-opacity="0.2" stroke-width="3.84"/>
<path clip-path="url(#clip200)" d="M1585.22 1734.12 L2640.76 1734.12 L2640.76 47.2441 L1585.22 47.2441  Z" fill="#ffffff" fill-rule="evenodd" fill-opacity="1"/>
<defs>
  <clipPath id="clip203">
    <rect x="1585" y="47" width="1057" height="1688"/>
  </clipPath>
</defs>
<polyline clip-path="url(#clip203)" style="stroke:#000000; stroke-linecap:round; stroke-linejoin:round; stroke-width:2; stroke-opacity:0.1; fill:none" points="1615.1,1734.12 1615.1,47.2441 "/>
<polyline clip-path="url(#clip203)" style="stroke:#000000; stroke-linecap:round; stroke-linejoin:round; stroke-width:2; stroke-opacity:0.1; fill:none" points="1705.62,1734.12 1705.62,47.2441 "/>
<polyline clip-path="url(#clip203)" style="stroke:#000000; stroke-linecap:round; stroke-linejoin:round; stroke-width:2; stroke-opacity:0.1; fill:none" points="1796.15,1734.12 1796.15,47.2441 "/>
<polyline clip-path="url(#clip203)" style="stroke:#000000; stroke-linecap:round; stroke-linejoin:round; stroke-width:2; stroke-opacity:0.1; fill:none" points="1886.67,1734.12 1886.67,47.2441 "/>
<polyline clip-path="url(#clip203)" style="stroke:#000000; stroke-linecap:round; stroke-linejoin:round; stroke-width:2; stroke-opacity:0.1; fill:none" points="1977.2,1734.12 1977.2,47.2441 "/>
<polyline clip-path="url(#clip203)" style="stroke:#000000; stroke-linecap:round; stroke-linejoin:round; stroke-width:2; stroke-opacity:0.1; fill:none" points="2067.73,1734.12 2067.73,47.2441 "/>
<polyline clip-path="url(#clip203)" style="stroke:#000000; stroke-linecap:round; stroke-linejoin:round; stroke-width:2; stroke-opacity:0.1; fill:none" points="2158.25,1734.12 2158.25,47.2441 "/>
<polyline clip-path="url(#clip203)" style="stroke:#000000; stroke-linecap:round; stroke-linejoin:round; stroke-width:2; stroke-opacity:0.1; fill:none" points="2248.78,1734.12 2248.78,47.2441 "/>
<polyline clip-path="url(#clip203)" style="stroke:#000000; stroke-linecap:round; stroke-linejoin:round; stroke-width:2; stroke-opacity:0.1; fill:none" points="2339.3,1734.12 2339.3,47.2441 "/>
<polyline clip-path="url(#clip203)" style="stroke:#000000; stroke-linecap:round; stroke-linejoin:round; stroke-width:2; stroke-opacity:0.1; fill:none" points="2429.83,1734.12 2429.83,47.2441 "/>
<polyline clip-path="url(#clip203)" style="stroke:#000000; stroke-linecap:round; stroke-linejoin:round; stroke-width:2; stroke-opacity:0.1; fill:none" points="2520.36,1734.12 2520.36,47.2441 "/>
<polyline clip-path="url(#clip203)" style="stroke:#000000; stroke-linecap:round; stroke-linejoin:round; stroke-width:2; stroke-opacity:0.1; fill:none" points="2610.88,1734.12 2610.88,47.2441 "/>
<polyline clip-path="url(#clip200)" style="stroke:#000000; stroke-linecap:round; stroke-linejoin:round; stroke-width:4; stroke-opacity:1; fill:none" points="1585.22,1734.12 2640.76,1734.12 "/>
<polyline clip-path="url(#clip200)" style="stroke:#000000; stroke-linecap:round; stroke-linejoin:round; stroke-width:4; stroke-opacity:1; fill:none" points="1615.1,1734.12 1615.1,1715.22 "/>
<polyline clip-path="url(#clip200)" style="stroke:#000000; stroke-linecap:round; stroke-linejoin:round; stroke-width:4; stroke-opacity:1; fill:none" points="1705.62,1734.12 1705.62,1715.22 "/>
<polyline clip-path="url(#clip200)" style="stroke:#000000; stroke-linecap:round; stroke-linejoin:round; stroke-width:4; stroke-opacity:1; fill:none" points="1796.15,1734.12 1796.15,1715.22 "/>
<polyline clip-path="url(#clip200)" style="stroke:#000000; stroke-linecap:round; stroke-linejoin:round; stroke-width:4; stroke-opacity:1; fill:none" points="1886.67,1734.12 1886.67,1715.22 "/>
<polyline clip-path="url(#clip200)" style="stroke:#000000; stroke-linecap:round; stroke-linejoin:round; stroke-width:4; stroke-opacity:1; fill:none" points="1977.2,1734.12 1977.2,1715.22 "/>
<polyline clip-path="url(#clip200)" style="stroke:#000000; stroke-linecap:round; stroke-linejoin:round; stroke-width:4; stroke-opacity:1; fill:none" points="2067.73,1734.12 2067.73,1715.22 "/>
<polyline clip-path="url(#clip200)" style="stroke:#000000; stroke-linecap:round; stroke-linejoin:round; stroke-width:4; stroke-opacity:1; fill:none" points="2158.25,1734.12 2158.25,1715.22 "/>
<polyline clip-path="url(#clip200)" style="stroke:#000000; stroke-linecap:round; stroke-linejoin:round; stroke-width:4; stroke-opacity:1; fill:none" points="2248.78,1734.12 2248.78,1715.22 "/>
<polyline clip-path="url(#clip200)" style="stroke:#000000; stroke-linecap:round; stroke-linejoin:round; stroke-width:4; stroke-opacity:1; fill:none" points="2339.3,1734.12 2339.3,1715.22 "/>
<polyline clip-path="url(#clip200)" style="stroke:#000000; stroke-linecap:round; stroke-linejoin:round; stroke-width:4; stroke-opacity:1; fill:none" points="2429.83,1734.12 2429.83,1715.22 "/>
<polyline clip-path="url(#clip200)" style="stroke:#000000; stroke-linecap:round; stroke-linejoin:round; stroke-width:4; stroke-opacity:1; fill:none" points="2520.36,1734.12 2520.36,1715.22 "/>
<polyline clip-path="url(#clip200)" style="stroke:#000000; stroke-linecap:round; stroke-linejoin:round; stroke-width:4; stroke-opacity:1; fill:none" points="2610.88,1734.12 2610.88,1715.22 "/>
<path clip-path="url(#clip200)" d="M1615.1 1767.34 Q1611.48 1767.34 1609.66 1770.9 Q1607.85 1774.45 1607.85 1781.58 Q1607.85 1788.68 1609.66 1792.25 Q1611.48 1795.79 1615.1 1795.79 Q1618.73 1795.79 1620.53 1792.25 Q1622.36 1788.68 1622.36 1781.58 Q1622.36 1774.45 1620.53 1770.9 Q1618.73 1767.34 1615.1 1767.34 M1615.1 1763.64 Q1620.91 1763.64 1623.96 1768.24 Q1627.04 1772.83 1627.04 1781.58 Q1627.04 1790.3 1623.96 1794.91 Q1620.91 1799.49 1615.1 1799.49 Q1609.28 1799.49 1606.21 1794.91 Q1603.15 1790.3 1603.15 1781.58 Q1603.15 1772.83 1606.21 1768.24 Q1609.28 1763.64 1615.1 1763.64 Z" fill="#000000" fill-rule="evenodd" fill-opacity="1" /><path clip-path="url(#clip200)" d="M1696 1794.89 L1703.64 1794.89 L1703.64 1768.52 L1695.33 1770.19 L1695.33 1765.93 L1703.6 1764.26 L1708.27 1764.26 L1708.27 1794.89 L1715.91 1794.89 L1715.91 1798.82 L1696 1798.82 L1696 1794.89 Z" fill="#000000" fill-rule="evenodd" fill-opacity="1" /><path clip-path="url(#clip200)" d="M1790.8 1794.89 L1807.12 1794.89 L1807.12 1798.82 L1785.18 1798.82 L1785.18 1794.89 Q1787.84 1792.13 1792.42 1787.5 Q1797.03 1782.85 1798.21 1781.51 Q1800.45 1778.98 1801.33 1777.25 Q1802.24 1775.49 1802.24 1773.8 Q1802.24 1771.04 1800.29 1769.31 Q1798.37 1767.57 1795.27 1767.57 Q1793.07 1767.57 1790.61 1768.34 Q1788.18 1769.1 1785.41 1770.65 L1785.41 1765.93 Q1788.23 1764.79 1790.68 1764.21 Q1793.14 1763.64 1795.18 1763.64 Q1800.55 1763.64 1803.74 1766.32 Q1806.93 1769.01 1806.93 1773.5 Q1806.93 1775.63 1806.12 1777.55 Q1805.34 1779.45 1803.23 1782.04 Q1802.65 1782.71 1799.55 1785.93 Q1796.45 1789.12 1790.8 1794.89 Z" fill="#000000" fill-rule="evenodd" fill-opacity="1" /><path clip-path="url(#clip200)" d="M1890.92 1780.19 Q1894.28 1780.9 1896.15 1783.17 Q1898.05 1785.44 1898.05 1788.77 Q1898.05 1793.89 1894.53 1796.69 Q1891.01 1799.49 1884.53 1799.49 Q1882.36 1799.49 1880.04 1799.05 Q1877.75 1798.64 1875.3 1797.78 L1875.3 1793.27 Q1877.24 1794.4 1879.56 1794.98 Q1881.87 1795.56 1884.39 1795.56 Q1888.79 1795.56 1891.08 1793.82 Q1893.4 1792.08 1893.4 1788.77 Q1893.4 1785.72 1891.25 1784.01 Q1889.12 1782.27 1885.3 1782.27 L1881.27 1782.27 L1881.27 1778.43 L1885.48 1778.43 Q1888.93 1778.43 1890.76 1777.06 Q1892.59 1775.67 1892.59 1773.08 Q1892.59 1770.42 1890.69 1769.01 Q1888.81 1767.57 1885.3 1767.57 Q1883.37 1767.57 1881.18 1767.99 Q1878.98 1768.4 1876.34 1769.28 L1876.34 1765.12 Q1879 1764.38 1881.31 1764.01 Q1883.65 1763.64 1885.71 1763.64 Q1891.04 1763.64 1894.14 1766.07 Q1897.24 1768.47 1897.24 1772.59 Q1897.24 1775.46 1895.6 1777.46 Q1893.95 1779.42 1890.92 1780.19 Z" fill="#000000" fill-rule="evenodd" fill-opacity="1" /><path clip-path="url(#clip200)" d="M1980.21 1768.34 L1968.4 1786.78 L1980.21 1786.78 L1980.21 1768.34 M1978.98 1764.26 L1984.86 1764.26 L1984.86 1786.78 L1989.79 1786.78 L1989.79 1790.67 L1984.86 1790.67 L1984.86 1798.82 L1980.21 1798.82 L1980.21 1790.67 L1964.61 1790.67 L1964.61 1786.16 L1978.98 1764.26 Z" fill="#000000" fill-rule="evenodd" fill-opacity="1" /><path clip-path="url(#clip200)" d="M2058 1764.26 L2076.36 1764.26 L2076.36 1768.2 L2062.29 1768.2 L2062.29 1776.67 Q2063.3 1776.32 2064.32 1776.16 Q2065.34 1775.97 2066.36 1775.97 Q2072.15 1775.97 2075.53 1779.15 Q2078.91 1782.32 2078.91 1787.73 Q2078.91 1793.31 2075.43 1796.41 Q2071.96 1799.49 2065.64 1799.49 Q2063.47 1799.49 2061.2 1799.12 Q2058.95 1798.75 2056.55 1798.01 L2056.55 1793.31 Q2058.63 1794.45 2060.85 1795 Q2063.07 1795.56 2065.55 1795.56 Q2069.55 1795.56 2071.89 1793.45 Q2074.23 1791.34 2074.23 1787.73 Q2074.23 1784.12 2071.89 1782.02 Q2069.55 1779.91 2065.55 1779.91 Q2063.67 1779.91 2061.8 1780.33 Q2059.95 1780.74 2058 1781.62 L2058 1764.26 Z" fill="#000000" fill-rule="evenodd" fill-opacity="1" /><path clip-path="url(#clip200)" d="M2158.66 1779.68 Q2155.51 1779.68 2153.66 1781.83 Q2151.83 1783.98 2151.83 1787.73 Q2151.83 1791.46 2153.66 1793.64 Q2155.51 1795.79 2158.66 1795.79 Q2161.8 1795.79 2163.63 1793.64 Q2165.49 1791.46 2165.49 1787.73 Q2165.49 1783.98 2163.63 1781.83 Q2161.8 1779.68 2158.66 1779.68 M2167.94 1765.02 L2167.94 1769.28 Q2166.18 1768.45 2164.37 1768.01 Q2162.59 1767.57 2160.83 1767.57 Q2156.2 1767.57 2153.75 1770.7 Q2151.32 1773.82 2150.97 1780.14 Q2152.34 1778.13 2154.4 1777.06 Q2156.46 1775.97 2158.93 1775.97 Q2164.14 1775.97 2167.15 1779.15 Q2170.18 1782.29 2170.18 1787.73 Q2170.18 1793.06 2167.04 1796.27 Q2163.89 1799.49 2158.66 1799.49 Q2152.66 1799.49 2149.49 1794.91 Q2146.32 1790.3 2146.32 1781.58 Q2146.32 1773.38 2150.21 1768.52 Q2154.1 1763.64 2160.65 1763.64 Q2162.41 1763.64 2164.19 1763.98 Q2165.99 1764.33 2167.94 1765.02 Z" fill="#000000" fill-rule="evenodd" fill-opacity="1" /><path clip-path="url(#clip200)" d="M2237.67 1764.26 L2259.89 1764.26 L2259.89 1766.25 L2247.34 1798.82 L2242.46 1798.82 L2254.26 1768.2 L2237.67 1768.2 L2237.67 1764.26 Z" fill="#000000" fill-rule="evenodd" fill-opacity="1" /><path clip-path="url(#clip200)" d="M2339.3 1782.41 Q2335.97 1782.41 2334.05 1784.19 Q2332.15 1785.97 2332.15 1789.1 Q2332.15 1792.22 2334.05 1794.01 Q2335.97 1795.79 2339.3 1795.79 Q2342.64 1795.79 2344.56 1794.01 Q2346.48 1792.2 2346.48 1789.1 Q2346.48 1785.97 2344.56 1784.19 Q2342.66 1782.41 2339.3 1782.41 M2334.63 1780.42 Q2331.62 1779.68 2329.93 1777.62 Q2328.26 1775.56 2328.26 1772.59 Q2328.26 1768.45 2331.2 1766.04 Q2334.17 1763.64 2339.3 1763.64 Q2344.47 1763.64 2347.41 1766.04 Q2350.35 1768.45 2350.35 1772.59 Q2350.35 1775.56 2348.66 1777.62 Q2346.99 1779.68 2344 1780.42 Q2347.38 1781.21 2349.26 1783.5 Q2351.16 1785.79 2351.16 1789.1 Q2351.16 1794.12 2348.08 1796.81 Q2345.02 1799.49 2339.3 1799.49 Q2333.59 1799.49 2330.51 1796.81 Q2327.45 1794.12 2327.45 1789.1 Q2327.45 1785.79 2329.35 1783.5 Q2331.25 1781.21 2334.63 1780.42 M2332.92 1773.03 Q2332.92 1775.72 2334.58 1777.22 Q2336.27 1778.73 2339.3 1778.73 Q2342.31 1778.73 2344 1777.22 Q2345.72 1775.72 2345.72 1773.03 Q2345.72 1770.35 2344 1768.84 Q2342.31 1767.34 2339.3 1767.34 Q2336.27 1767.34 2334.58 1768.84 Q2332.92 1770.35 2332.92 1773.03 Z" fill="#000000" fill-rule="evenodd" fill-opacity="1" /><path clip-path="url(#clip200)" d="M2420.13 1798.1 L2420.13 1793.84 Q2421.89 1794.68 2423.7 1795.12 Q2425.5 1795.56 2427.24 1795.56 Q2431.87 1795.56 2434.3 1792.46 Q2436.75 1789.33 2437.1 1782.99 Q2435.76 1784.98 2433.7 1786.04 Q2431.64 1787.11 2429.14 1787.11 Q2423.95 1787.11 2420.92 1783.98 Q2417.91 1780.83 2417.91 1775.4 Q2417.91 1770.07 2421.06 1766.85 Q2424.21 1763.64 2429.44 1763.64 Q2435.43 1763.64 2438.58 1768.24 Q2441.75 1772.83 2441.75 1781.58 Q2441.75 1789.75 2437.86 1794.63 Q2434 1799.49 2427.45 1799.49 Q2425.69 1799.49 2423.88 1799.15 Q2422.08 1798.8 2420.13 1798.1 M2429.44 1783.45 Q2432.58 1783.45 2434.41 1781.3 Q2436.27 1779.15 2436.27 1775.4 Q2436.27 1771.67 2434.41 1769.52 Q2432.58 1767.34 2429.44 1767.34 Q2426.29 1767.34 2424.44 1769.52 Q2422.61 1771.67 2422.61 1775.4 Q2422.61 1779.15 2424.44 1781.3 Q2426.29 1783.45 2429.44 1783.45 Z" fill="#000000" fill-rule="evenodd" fill-opacity="1" /><path clip-path="url(#clip200)" d="M2495.04 1794.89 L2502.68 1794.89 L2502.68 1768.52 L2494.37 1770.19 L2494.37 1765.93 L2502.64 1764.26 L2507.31 1764.26 L2507.31 1794.89 L2514.95 1794.89 L2514.95 1798.82 L2495.04 1798.82 L2495.04 1794.89 Z" fill="#000000" fill-rule="evenodd" fill-opacity="1" /><path clip-path="url(#clip200)" d="M2534.4 1767.34 Q2530.78 1767.34 2528.96 1770.9 Q2527.15 1774.45 2527.15 1781.58 Q2527.15 1788.68 2528.96 1792.25 Q2530.78 1795.79 2534.4 1795.79 Q2538.03 1795.79 2539.84 1792.25 Q2541.66 1788.68 2541.66 1781.58 Q2541.66 1774.45 2539.84 1770.9 Q2538.03 1767.34 2534.4 1767.34 M2534.4 1763.64 Q2540.21 1763.64 2543.26 1768.24 Q2546.34 1772.83 2546.34 1781.58 Q2546.34 1790.3 2543.26 1794.91 Q2540.21 1799.49 2534.4 1799.49 Q2528.59 1799.49 2525.51 1794.91 Q2522.45 1790.3 2522.45 1781.58 Q2522.45 1772.83 2525.51 1768.24 Q2528.59 1763.64 2534.4 1763.64 Z" fill="#000000" fill-rule="evenodd" fill-opacity="1" /><path clip-path="url(#clip200)" d="M2586.18 1794.89 L2593.82 1794.89 L2593.82 1768.52 L2585.51 1770.19 L2585.51 1765.93 L2593.78 1764.26 L2598.45 1764.26 L2598.45 1794.89 L2606.09 1794.89 L2606.09 1798.82 L2586.18 1798.82 L2586.18 1794.89 Z" fill="#000000" fill-rule="evenodd" fill-opacity="1" /><path clip-path="url(#clip200)" d="M2616.35 1794.89 L2623.98 1794.89 L2623.98 1768.52 L2615.67 1770.19 L2615.67 1765.93 L2623.94 1764.26 L2628.61 1764.26 L2628.61 1794.89 L2636.25 1794.89 L2636.25 1798.82 L2616.35 1798.82 L2616.35 1794.89 Z" fill="#000000" fill-rule="evenodd" fill-opacity="1" /><path clip-path="url(#clip200)" d="M2071.37 1848.7 L2071.37 1854.24 Q2068.89 1852.97 2066.22 1852.33 Q2063.54 1851.7 2060.68 1851.7 Q2056.32 1851.7 2054.12 1853.03 Q2051.96 1854.37 2051.96 1857.04 Q2051.96 1859.08 2053.52 1860.26 Q2055.08 1861.4 2059.79 1862.45 L2061.79 1862.9 Q2068.03 1864.24 2070.64 1866.69 Q2073.28 1869.11 2073.28 1873.47 Q2073.28 1878.43 2069.34 1881.33 Q2065.42 1884.22 2058.55 1884.22 Q2055.68 1884.22 2052.56 1883.65 Q2049.47 1883.11 2046.04 1882 L2046.04 1875.95 Q2049.28 1877.64 2052.43 1878.49 Q2055.59 1879.32 2058.67 1879.32 Q2062.81 1879.32 2065.04 1877.92 Q2067.27 1876.49 2067.27 1873.91 Q2067.27 1871.52 2065.64 1870.25 Q2064.05 1868.98 2058.61 1867.8 L2056.57 1867.32 Q2051.13 1866.18 2048.71 1863.82 Q2046.29 1861.43 2046.29 1857.3 Q2046.29 1852.27 2049.86 1849.53 Q2053.42 1846.79 2059.98 1846.79 Q2063.22 1846.79 2066.09 1847.27 Q2068.95 1847.75 2071.37 1848.7 Z" fill="#000000" fill-rule="evenodd" fill-opacity="1" /><path clip-path="url(#clip200)" d="M2088.4 1837.53 L2088.4 1847.65 L2100.46 1847.65 L2100.46 1852.2 L2088.4 1852.2 L2088.4 1871.56 Q2088.4 1875.92 2089.58 1877.16 Q2090.79 1878.4 2094.45 1878.4 L2100.46 1878.4 L2100.46 1883.3 L2094.45 1883.3 Q2087.67 1883.3 2085.09 1880.79 Q2082.51 1878.24 2082.51 1871.56 L2082.51 1852.2 L2078.22 1852.2 L2078.22 1847.65 L2082.51 1847.65 L2082.51 1837.53 L2088.4 1837.53 Z" fill="#000000" fill-rule="evenodd" fill-opacity="1" /><path clip-path="url(#clip200)" d="M2138.66 1864.01 L2138.66 1866.88 L2111.73 1866.88 Q2112.11 1872.92 2115.36 1876.11 Q2118.64 1879.26 2124.46 1879.26 Q2127.84 1879.26 2130.99 1878.43 Q2134.17 1877.6 2137.29 1875.95 L2137.29 1881.49 Q2134.14 1882.82 2130.83 1883.52 Q2127.52 1884.22 2124.11 1884.22 Q2115.58 1884.22 2110.59 1879.26 Q2105.62 1874.29 2105.62 1865.83 Q2105.62 1857.07 2110.33 1851.95 Q2115.07 1846.79 2123.09 1846.79 Q2130.29 1846.79 2134.46 1851.44 Q2138.66 1856.06 2138.66 1864.01 M2132.8 1862.29 Q2132.74 1857.49 2130.1 1854.62 Q2127.49 1851.76 2123.16 1851.76 Q2118.26 1851.76 2115.3 1854.53 Q2112.37 1857.3 2111.92 1862.33 L2132.8 1862.29 Z" fill="#000000" fill-rule="evenodd" fill-opacity="1" /><path clip-path="url(#clip200)" d="M2153.94 1877.95 L2153.94 1896.86 L2148.05 1896.86 L2148.05 1847.65 L2153.94 1847.65 L2153.94 1853.06 Q2155.78 1849.88 2158.58 1848.35 Q2161.42 1846.79 2165.33 1846.79 Q2171.82 1846.79 2175.87 1851.95 Q2179.94 1857.11 2179.94 1865.51 Q2179.94 1873.91 2175.87 1879.07 Q2171.82 1884.22 2165.33 1884.22 Q2161.42 1884.22 2158.58 1882.7 Q2155.78 1881.14 2153.94 1877.95 M2173.86 1865.51 Q2173.86 1859.05 2171.19 1855.39 Q2168.55 1851.7 2163.9 1851.7 Q2159.25 1851.7 2156.58 1855.39 Q2153.94 1859.05 2153.94 1865.51 Q2153.94 1871.97 2156.58 1875.66 Q2159.25 1879.32 2163.9 1879.32 Q2168.55 1879.32 2171.19 1875.66 Q2173.86 1871.97 2173.86 1865.51 Z" fill="#000000" fill-rule="evenodd" fill-opacity="1" /><polyline clip-path="url(#clip203)" style="stroke:#000000; stroke-linecap:round; stroke-linejoin:round; stroke-width:2; stroke-opacity:0.1; fill:none" points="1585.22,1710.32 2640.76,1710.32 "/>
<polyline clip-path="url(#clip203)" style="stroke:#000000; stroke-linecap:round; stroke-linejoin:round; stroke-width:2; stroke-opacity:0.1; fill:none" points="1585.22,1465.31 2640.76,1465.31 "/>
<polyline clip-path="url(#clip203)" style="stroke:#000000; stroke-linecap:round; stroke-linejoin:round; stroke-width:2; stroke-opacity:0.1; fill:none" points="1585.22,1220.3 2640.76,1220.3 "/>
<polyline clip-path="url(#clip203)" style="stroke:#000000; stroke-linecap:round; stroke-linejoin:round; stroke-width:2; stroke-opacity:0.1; fill:none" points="1585.22,975.282 2640.76,975.282 "/>
<polyline clip-path="url(#clip203)" style="stroke:#000000; stroke-linecap:round; stroke-linejoin:round; stroke-width:2; stroke-opacity:0.1; fill:none" points="1585.22,730.268 2640.76,730.268 "/>
<polyline clip-path="url(#clip203)" style="stroke:#000000; stroke-linecap:round; stroke-linejoin:round; stroke-width:2; stroke-opacity:0.1; fill:none" points="1585.22,485.254 2640.76,485.254 "/>
<polyline clip-path="url(#clip203)" style="stroke:#000000; stroke-linecap:round; stroke-linejoin:round; stroke-width:2; stroke-opacity:0.1; fill:none" points="1585.22,240.24 2640.76,240.24 "/>
<polyline clip-path="url(#clip200)" style="stroke:#000000; stroke-linecap:round; stroke-linejoin:round; stroke-width:4; stroke-opacity:1; fill:none" points="1585.22,1734.12 1585.22,47.2441 "/>
<polyline clip-path="url(#clip200)" style="stroke:#000000; stroke-linecap:round; stroke-linejoin:round; stroke-width:4; stroke-opacity:1; fill:none" points="1585.22,1710.32 1604.12,1710.32 "/>
<polyline clip-path="url(#clip200)" style="stroke:#000000; stroke-linecap:round; stroke-linejoin:round; stroke-width:4; stroke-opacity:1; fill:none" points="1585.22,1465.31 1604.12,1465.31 "/>
<polyline clip-path="url(#clip200)" style="stroke:#000000; stroke-linecap:round; stroke-linejoin:round; stroke-width:4; stroke-opacity:1; fill:none" points="1585.22,1220.3 1604.12,1220.3 "/>
<polyline clip-path="url(#clip200)" style="stroke:#000000; stroke-linecap:round; stroke-linejoin:round; stroke-width:4; stroke-opacity:1; fill:none" points="1585.22,975.282 1604.12,975.282 "/>
<polyline clip-path="url(#clip200)" style="stroke:#000000; stroke-linecap:round; stroke-linejoin:round; stroke-width:4; stroke-opacity:1; fill:none" points="1585.22,730.268 1604.12,730.268 "/>
<polyline clip-path="url(#clip200)" style="stroke:#000000; stroke-linecap:round; stroke-linejoin:round; stroke-width:4; stroke-opacity:1; fill:none" points="1585.22,485.254 1604.12,485.254 "/>
<polyline clip-path="url(#clip200)" style="stroke:#000000; stroke-linecap:round; stroke-linejoin:round; stroke-width:4; stroke-opacity:1; fill:none" points="1585.22,240.24 1604.12,240.24 "/>
<path clip-path="url(#clip200)" d="M1457.56 1696.12 Q1453.95 1696.12 1452.12 1699.69 Q1450.32 1703.23 1450.32 1710.36 Q1450.32 1717.46 1452.12 1721.03 Q1453.95 1724.57 1457.56 1724.57 Q1461.2 1724.57 1463 1721.03 Q1464.83 1717.46 1464.83 1710.36 Q1464.83 1703.23 1463 1699.69 Q1461.2 1696.12 1457.56 1696.12 M1457.56 1692.42 Q1463.37 1692.42 1466.43 1697.02 Q1469.51 1701.61 1469.51 1710.36 Q1469.51 1719.09 1466.43 1723.69 Q1463.37 1728.27 1457.56 1728.27 Q1451.75 1728.27 1448.68 1723.69 Q1445.62 1719.09 1445.62 1710.36 Q1445.62 1701.61 1448.68 1697.02 Q1451.75 1692.42 1457.56 1692.42 Z" fill="#000000" fill-rule="evenodd" fill-opacity="1" /><path clip-path="url(#clip200)" d="M1477.73 1721.72 L1482.61 1721.72 L1482.61 1727.6 L1477.73 1727.6 L1477.73 1721.72 Z" fill="#000000" fill-rule="evenodd" fill-opacity="1" /><path clip-path="url(#clip200)" d="M1502.8 1696.12 Q1499.18 1696.12 1497.36 1699.69 Q1495.55 1703.23 1495.55 1710.36 Q1495.55 1717.46 1497.36 1721.03 Q1499.18 1724.57 1502.8 1724.57 Q1506.43 1724.57 1508.24 1721.03 Q1510.06 1717.46 1510.06 1710.36 Q1510.06 1703.23 1508.24 1699.69 Q1506.43 1696.12 1502.8 1696.12 M1502.8 1692.42 Q1508.61 1692.42 1511.66 1697.02 Q1514.74 1701.61 1514.74 1710.36 Q1514.74 1719.09 1511.66 1723.69 Q1508.61 1728.27 1502.8 1728.27 Q1496.99 1728.27 1493.91 1723.69 Q1490.85 1719.09 1490.85 1710.36 Q1490.85 1701.61 1493.91 1697.02 Q1496.99 1692.42 1502.8 1692.42 Z" fill="#000000" fill-rule="evenodd" fill-opacity="1" /><path clip-path="url(#clip200)" d="M1532.96 1696.12 Q1529.35 1696.12 1527.52 1699.69 Q1525.71 1703.23 1525.71 1710.36 Q1525.71 1717.46 1527.52 1721.03 Q1529.35 1724.57 1532.96 1724.57 Q1536.59 1724.57 1538.4 1721.03 Q1540.23 1717.46 1540.23 1710.36 Q1540.23 1703.23 1538.4 1699.69 Q1536.59 1696.12 1532.96 1696.12 M1532.96 1692.42 Q1538.77 1692.42 1541.82 1697.02 Q1544.9 1701.61 1544.9 1710.36 Q1544.9 1719.09 1541.82 1723.69 Q1538.77 1728.27 1532.96 1728.27 Q1527.15 1728.27 1524.07 1723.69 Q1521.01 1719.09 1521.01 1710.36 Q1521.01 1701.61 1524.07 1697.02 Q1527.15 1692.42 1532.96 1692.42 Z" fill="#000000" fill-rule="evenodd" fill-opacity="1" /><path clip-path="url(#clip200)" d="M1458.79 1451.11 Q1455.18 1451.11 1453.35 1454.67 Q1451.55 1458.21 1451.55 1465.34 Q1451.55 1472.45 1453.35 1476.02 Q1455.18 1479.56 1458.79 1479.56 Q1462.43 1479.56 1464.23 1476.02 Q1466.06 1472.45 1466.06 1465.34 Q1466.06 1458.21 1464.23 1454.67 Q1462.43 1451.11 1458.79 1451.11 M1458.79 1447.4 Q1464.6 1447.4 1467.66 1452.01 Q1470.74 1456.59 1470.74 1465.34 Q1470.74 1474.07 1467.66 1478.68 Q1464.6 1483.26 1458.79 1483.26 Q1452.98 1483.26 1449.9 1478.68 Q1446.85 1474.07 1446.85 1465.34 Q1446.85 1456.59 1449.9 1452.01 Q1452.98 1447.4 1458.79 1447.4 Z" fill="#000000" fill-rule="evenodd" fill-opacity="1" /><path clip-path="url(#clip200)" d="M1478.95 1476.71 L1483.84 1476.71 L1483.84 1482.59 L1478.95 1482.59 L1478.95 1476.71 Z" fill="#000000" fill-rule="evenodd" fill-opacity="1" /><path clip-path="url(#clip200)" d="M1504.02 1451.11 Q1500.41 1451.11 1498.58 1454.67 Q1496.78 1458.21 1496.78 1465.34 Q1496.78 1472.45 1498.58 1476.02 Q1500.41 1479.56 1504.02 1479.56 Q1507.66 1479.56 1509.46 1476.02 Q1511.29 1472.45 1511.29 1465.34 Q1511.29 1458.21 1509.46 1454.67 Q1507.66 1451.11 1504.02 1451.11 M1504.02 1447.4 Q1509.83 1447.4 1512.89 1452.01 Q1515.97 1456.59 1515.97 1465.34 Q1515.97 1474.07 1512.89 1478.68 Q1509.83 1483.26 1504.02 1483.26 Q1498.21 1483.26 1495.13 1478.68 Q1492.08 1474.07 1492.08 1465.34 Q1492.08 1456.59 1495.13 1452.01 Q1498.21 1447.4 1504.02 1447.4 Z" fill="#000000" fill-rule="evenodd" fill-opacity="1" /><path clip-path="url(#clip200)" d="M1524.99 1478.65 L1532.63 1478.65 L1532.63 1452.29 L1524.32 1453.96 L1524.32 1449.7 L1532.59 1448.03 L1537.26 1448.03 L1537.26 1478.65 L1544.9 1478.65 L1544.9 1482.59 L1524.99 1482.59 L1524.99 1478.65 Z" fill="#000000" fill-rule="evenodd" fill-opacity="1" /><path clip-path="url(#clip200)" d="M1459.16 1206.09 Q1455.55 1206.09 1453.72 1209.66 Q1451.92 1213.2 1451.92 1220.33 Q1451.92 1227.44 1453.72 1231 Q1455.55 1234.54 1459.16 1234.54 Q1462.8 1234.54 1464.6 1231 Q1466.43 1227.44 1466.43 1220.33 Q1466.43 1213.2 1464.6 1209.66 Q1462.8 1206.09 1459.16 1206.09 M1459.16 1202.39 Q1464.97 1202.39 1468.03 1207 Q1471.11 1211.58 1471.11 1220.33 Q1471.11 1229.06 1468.03 1233.66 Q1464.97 1238.25 1459.16 1238.25 Q1453.35 1238.25 1450.27 1233.66 Q1447.22 1229.06 1447.22 1220.33 Q1447.22 1211.58 1450.27 1207 Q1453.35 1202.39 1459.16 1202.39 Z" fill="#000000" fill-rule="evenodd" fill-opacity="1" /><path clip-path="url(#clip200)" d="M1479.32 1231.7 L1484.21 1231.7 L1484.21 1237.58 L1479.32 1237.58 L1479.32 1231.7 Z" fill="#000000" fill-rule="evenodd" fill-opacity="1" /><path clip-path="url(#clip200)" d="M1504.39 1206.09 Q1500.78 1206.09 1498.95 1209.66 Q1497.15 1213.2 1497.15 1220.33 Q1497.15 1227.44 1498.95 1231 Q1500.78 1234.54 1504.39 1234.54 Q1508.03 1234.54 1509.83 1231 Q1511.66 1227.44 1511.66 1220.33 Q1511.66 1213.2 1509.83 1209.66 Q1508.03 1206.09 1504.39 1206.09 M1504.39 1202.39 Q1510.2 1202.39 1513.26 1207 Q1516.34 1211.58 1516.34 1220.33 Q1516.34 1229.06 1513.26 1233.66 Q1510.2 1238.25 1504.39 1238.25 Q1498.58 1238.25 1495.5 1233.66 Q1492.45 1229.06 1492.45 1220.33 Q1492.45 1211.58 1495.5 1207 Q1498.58 1202.39 1504.39 1202.39 Z" fill="#000000" fill-rule="evenodd" fill-opacity="1" /><path clip-path="url(#clip200)" d="M1528.58 1233.64 L1544.9 1233.64 L1544.9 1237.58 L1522.96 1237.58 L1522.96 1233.64 Q1525.62 1230.89 1530.2 1226.26 Q1534.81 1221.6 1535.99 1220.26 Q1538.23 1217.74 1539.11 1216 Q1540.02 1214.24 1540.02 1212.55 Q1540.02 1209.8 1538.07 1208.06 Q1536.15 1206.33 1533.05 1206.33 Q1530.85 1206.33 1528.4 1207.09 Q1525.97 1207.85 1523.19 1209.4 L1523.19 1204.68 Q1526.01 1203.55 1528.47 1202.97 Q1530.92 1202.39 1532.96 1202.39 Q1538.33 1202.39 1541.52 1205.08 Q1544.72 1207.76 1544.72 1212.25 Q1544.72 1214.38 1543.91 1216.3 Q1543.12 1218.2 1541.01 1220.79 Q1540.43 1221.46 1537.33 1224.68 Q1534.23 1227.88 1528.58 1233.64 Z" fill="#000000" fill-rule="evenodd" fill-opacity="1" /><path clip-path="url(#clip200)" d="M1458.21 961.08 Q1454.6 961.08 1452.77 964.645 Q1450.97 968.187 1450.97 975.316 Q1450.97 982.423 1452.77 985.988 Q1454.6 989.529 1458.21 989.529 Q1461.85 989.529 1463.65 985.988 Q1465.48 982.423 1465.48 975.316 Q1465.48 968.187 1463.65 964.645 Q1461.85 961.08 1458.21 961.08 M1458.21 957.377 Q1464.02 957.377 1467.08 961.983 Q1470.16 966.566 1470.16 975.316 Q1470.16 984.043 1467.08 988.65 Q1464.02 993.233 1458.21 993.233 Q1452.4 993.233 1449.32 988.65 Q1446.27 984.043 1446.27 975.316 Q1446.27 966.566 1449.32 961.983 Q1452.4 957.377 1458.21 957.377 Z" fill="#000000" fill-rule="evenodd" fill-opacity="1" /><path clip-path="url(#clip200)" d="M1478.37 986.682 L1483.26 986.682 L1483.26 992.562 L1478.37 992.562 L1478.37 986.682 Z" fill="#000000" fill-rule="evenodd" fill-opacity="1" /><path clip-path="url(#clip200)" d="M1503.44 961.08 Q1499.83 961.08 1498 964.645 Q1496.2 968.187 1496.2 975.316 Q1496.2 982.423 1498 985.988 Q1499.83 989.529 1503.44 989.529 Q1507.08 989.529 1508.88 985.988 Q1510.71 982.423 1510.71 975.316 Q1510.71 968.187 1508.88 964.645 Q1507.08 961.08 1503.44 961.08 M1503.44 957.377 Q1509.25 957.377 1512.31 961.983 Q1515.39 966.566 1515.39 975.316 Q1515.39 984.043 1512.31 988.65 Q1509.25 993.233 1503.44 993.233 Q1497.63 993.233 1494.55 988.65 Q1491.5 984.043 1491.5 975.316 Q1491.5 966.566 1494.55 961.983 Q1497.63 957.377 1503.44 957.377 Z" fill="#000000" fill-rule="evenodd" fill-opacity="1" /><path clip-path="url(#clip200)" d="M1537.77 973.927 Q1541.13 974.645 1543 976.914 Q1544.9 979.182 1544.9 982.515 Q1544.9 987.631 1541.38 990.432 Q1537.86 993.233 1531.38 993.233 Q1529.21 993.233 1526.89 992.793 Q1524.6 992.376 1522.15 991.52 L1522.15 987.006 Q1524.09 988.14 1526.41 988.719 Q1528.72 989.298 1531.24 989.298 Q1535.64 989.298 1537.93 987.562 Q1540.25 985.826 1540.25 982.515 Q1540.25 979.46 1538.1 977.747 Q1535.97 976.011 1532.15 976.011 L1528.12 976.011 L1528.12 972.168 L1532.33 972.168 Q1535.78 972.168 1537.61 970.802 Q1539.44 969.414 1539.44 966.821 Q1539.44 964.159 1537.54 962.747 Q1535.67 961.312 1532.15 961.312 Q1530.23 961.312 1528.03 961.728 Q1525.83 962.145 1523.19 963.025 L1523.19 958.858 Q1525.85 958.117 1528.17 957.747 Q1530.5 957.377 1532.56 957.377 Q1537.89 957.377 1540.99 959.807 Q1544.09 962.215 1544.09 966.335 Q1544.09 969.205 1542.45 971.196 Q1540.8 973.164 1537.77 973.927 Z" fill="#000000" fill-rule="evenodd" fill-opacity="1" /><path clip-path="url(#clip200)" d="M1457.08 716.066 Q1453.47 716.066 1451.64 719.631 Q1449.83 723.173 1449.83 730.302 Q1449.83 737.409 1451.64 740.974 Q1453.47 744.515 1457.08 744.515 Q1460.71 744.515 1462.52 740.974 Q1464.35 737.409 1464.35 730.302 Q1464.35 723.173 1462.52 719.631 Q1460.71 716.066 1457.08 716.066 M1457.08 712.363 Q1462.89 712.363 1465.94 716.969 Q1469.02 721.552 1469.02 730.302 Q1469.02 739.029 1465.94 743.636 Q1462.89 748.219 1457.08 748.219 Q1451.27 748.219 1448.19 743.636 Q1445.13 739.029 1445.13 730.302 Q1445.13 721.552 1448.19 716.969 Q1451.27 712.363 1457.08 712.363 Z" fill="#000000" fill-rule="evenodd" fill-opacity="1" /><path clip-path="url(#clip200)" d="M1477.24 741.668 L1482.12 741.668 L1482.12 747.548 L1477.24 747.548 L1477.24 741.668 Z" fill="#000000" fill-rule="evenodd" fill-opacity="1" /><path clip-path="url(#clip200)" d="M1502.31 716.066 Q1498.7 716.066 1496.87 719.631 Q1495.06 723.173 1495.06 730.302 Q1495.06 737.409 1496.87 740.974 Q1498.7 744.515 1502.31 744.515 Q1505.94 744.515 1507.75 740.974 Q1509.58 737.409 1509.58 730.302 Q1509.58 723.173 1507.75 719.631 Q1505.94 716.066 1502.31 716.066 M1502.31 712.363 Q1508.12 712.363 1511.17 716.969 Q1514.25 721.552 1514.25 730.302 Q1514.25 739.029 1511.17 743.636 Q1508.12 748.219 1502.31 748.219 Q1496.5 748.219 1493.42 743.636 Q1490.36 739.029 1490.36 730.302 Q1490.36 721.552 1493.42 716.969 Q1496.5 712.363 1502.31 712.363 Z" fill="#000000" fill-rule="evenodd" fill-opacity="1" /><path clip-path="url(#clip200)" d="M1535.32 717.062 L1523.51 735.511 L1535.32 735.511 L1535.32 717.062 M1534.09 712.988 L1539.97 712.988 L1539.97 735.511 L1544.9 735.511 L1544.9 739.4 L1539.97 739.4 L1539.97 747.548 L1535.32 747.548 L1535.32 739.4 L1519.72 739.4 L1519.72 734.886 L1534.09 712.988 Z" fill="#000000" fill-rule="evenodd" fill-opacity="1" /><path clip-path="url(#clip200)" d="M1458.56 471.052 Q1454.95 471.052 1453.12 474.617 Q1451.31 478.159 1451.31 485.288 Q1451.31 492.395 1453.12 495.96 Q1454.95 499.501 1458.56 499.501 Q1462.19 499.501 1464 495.96 Q1465.83 492.395 1465.83 485.288 Q1465.83 478.159 1464 474.617 Q1462.19 471.052 1458.56 471.052 M1458.56 467.349 Q1464.37 467.349 1467.43 471.955 Q1470.5 476.538 1470.5 485.288 Q1470.5 494.015 1467.43 498.622 Q1464.37 503.205 1458.56 503.205 Q1452.75 503.205 1449.67 498.622 Q1446.61 494.015 1446.61 485.288 Q1446.61 476.538 1449.67 471.955 Q1452.75 467.349 1458.56 467.349 Z" fill="#000000" fill-rule="evenodd" fill-opacity="1" /><path clip-path="url(#clip200)" d="M1478.72 496.654 L1483.61 496.654 L1483.61 502.534 L1478.72 502.534 L1478.72 496.654 Z" fill="#000000" fill-rule="evenodd" fill-opacity="1" /><path clip-path="url(#clip200)" d="M1503.79 471.052 Q1500.18 471.052 1498.35 474.617 Q1496.55 478.159 1496.55 485.288 Q1496.55 492.395 1498.35 495.96 Q1500.18 499.501 1503.79 499.501 Q1507.42 499.501 1509.23 495.96 Q1511.06 492.395 1511.06 485.288 Q1511.06 478.159 1509.23 474.617 Q1507.42 471.052 1503.79 471.052 M1503.79 467.349 Q1509.6 467.349 1512.66 471.955 Q1515.73 476.538 1515.73 485.288 Q1515.73 494.015 1512.66 498.622 Q1509.6 503.205 1503.79 503.205 Q1497.98 503.205 1494.9 498.622 Q1491.85 494.015 1491.85 485.288 Q1491.85 476.538 1494.9 471.955 Q1497.98 467.349 1503.79 467.349 Z" fill="#000000" fill-rule="evenodd" fill-opacity="1" /><path clip-path="url(#clip200)" d="M1524 467.974 L1542.36 467.974 L1542.36 471.909 L1528.28 471.909 L1528.28 480.381 Q1529.3 480.034 1530.32 479.872 Q1531.34 479.687 1532.36 479.687 Q1538.14 479.687 1541.52 482.858 Q1544.9 486.029 1544.9 491.446 Q1544.9 497.024 1541.43 500.126 Q1537.96 503.205 1531.64 503.205 Q1529.46 503.205 1527.19 502.835 Q1524.95 502.464 1522.54 501.723 L1522.54 497.024 Q1524.62 498.159 1526.85 498.714 Q1529.07 499.27 1531.55 499.27 Q1535.55 499.27 1537.89 497.163 Q1540.23 495.057 1540.23 491.446 Q1540.23 487.835 1537.89 485.728 Q1535.55 483.622 1531.55 483.622 Q1529.67 483.622 1527.8 484.038 Q1525.94 484.455 1524 485.335 L1524 467.974 Z" fill="#000000" fill-rule="evenodd" fill-opacity="1" /><path clip-path="url(#clip200)" d="M1457.4 226.038 Q1453.79 226.038 1451.96 229.603 Q1450.16 233.145 1450.16 240.274 Q1450.16 247.381 1451.96 250.946 Q1453.79 254.487 1457.4 254.487 Q1461.04 254.487 1462.84 250.946 Q1464.67 247.381 1464.67 240.274 Q1464.67 233.145 1462.84 229.603 Q1461.04 226.038 1457.4 226.038 M1457.4 222.335 Q1463.21 222.335 1466.27 226.941 Q1469.35 231.524 1469.35 240.274 Q1469.35 249.001 1466.27 253.608 Q1463.21 258.191 1457.4 258.191 Q1451.59 258.191 1448.51 253.608 Q1445.46 249.001 1445.46 240.274 Q1445.46 231.524 1448.51 226.941 Q1451.59 222.335 1457.4 222.335 Z" fill="#000000" fill-rule="evenodd" fill-opacity="1" /><path clip-path="url(#clip200)" d="M1477.56 251.64 L1482.45 251.64 L1482.45 257.52 L1477.56 257.52 L1477.56 251.64 Z" fill="#000000" fill-rule="evenodd" fill-opacity="1" /><path clip-path="url(#clip200)" d="M1502.63 226.038 Q1499.02 226.038 1497.19 229.603 Q1495.39 233.145 1495.39 240.274 Q1495.39 247.381 1497.19 250.946 Q1499.02 254.487 1502.63 254.487 Q1506.27 254.487 1508.07 250.946 Q1509.9 247.381 1509.9 240.274 Q1509.9 233.145 1508.07 229.603 Q1506.27 226.038 1502.63 226.038 M1502.63 222.335 Q1508.44 222.335 1511.5 226.941 Q1514.58 231.524 1514.58 240.274 Q1514.58 249.001 1511.5 253.608 Q1508.44 258.191 1502.63 258.191 Q1496.82 258.191 1493.74 253.608 Q1490.69 249.001 1490.69 240.274 Q1490.69 231.524 1493.74 226.941 Q1496.82 222.335 1502.63 222.335 Z" fill="#000000" fill-rule="evenodd" fill-opacity="1" /><path clip-path="url(#clip200)" d="M1533.37 238.376 Q1530.23 238.376 1528.37 240.529 Q1526.55 242.682 1526.55 246.432 Q1526.55 250.159 1528.37 252.335 Q1530.23 254.487 1533.37 254.487 Q1536.52 254.487 1538.35 252.335 Q1540.2 250.159 1540.2 246.432 Q1540.2 242.682 1538.35 240.529 Q1536.52 238.376 1533.37 238.376 M1542.66 223.724 L1542.66 227.983 Q1540.9 227.149 1539.09 226.71 Q1537.31 226.27 1535.55 226.27 Q1530.92 226.27 1528.47 229.395 Q1526.04 232.52 1525.69 238.839 Q1527.05 236.825 1529.11 235.761 Q1531.17 234.673 1533.65 234.673 Q1538.86 234.673 1541.87 237.844 Q1544.9 240.992 1544.9 246.432 Q1544.9 251.756 1541.75 254.973 Q1538.61 258.191 1533.37 258.191 Q1527.38 258.191 1524.21 253.608 Q1521.04 249.001 1521.04 240.274 Q1521.04 232.08 1524.92 227.219 Q1528.81 222.335 1535.36 222.335 Q1537.12 222.335 1538.91 222.682 Q1540.71 223.029 1542.66 223.724 Z" fill="#000000" fill-rule="evenodd" fill-opacity="1" /><path clip-path="url(#clip200)" d="M1385.21 1105.2 L1404.12 1105.2 L1404.12 1111.09 L1354.91 1111.09 L1354.91 1105.2 L1360.32 1105.2 Q1357.14 1103.36 1355.61 1100.56 Q1354.05 1097.73 1354.05 1093.81 Q1354.05 1087.32 1359.21 1083.27 Q1364.36 1079.2 1372.77 1079.2 Q1381.17 1079.2 1386.32 1083.27 Q1391.48 1087.32 1391.48 1093.81 Q1391.48 1097.73 1389.95 1100.56 Q1388.39 1103.36 1385.21 1105.2 M1372.77 1085.28 Q1366.3 1085.28 1362.64 1087.95 Q1358.95 1090.6 1358.95 1095.24 Q1358.95 1099.89 1362.64 1102.56 Q1366.3 1105.2 1372.77 1105.2 Q1379.23 1105.2 1382.92 1102.56 Q1386.58 1099.89 1386.58 1095.24 Q1386.58 1090.6 1382.92 1087.95 Q1379.23 1085.28 1372.77 1085.28 Z" fill="#000000" fill-rule="evenodd" fill-opacity="1" /><path clip-path="url(#clip200)" d="M1376.49 1070.1 L1354.91 1070.1 L1354.91 1064.24 L1376.27 1064.24 Q1381.33 1064.24 1383.87 1062.27 Q1386.39 1060.29 1386.39 1056.35 Q1386.39 1051.61 1383.36 1048.87 Q1380.34 1046.1 1375.12 1046.1 L1354.91 1046.1 L1354.91 1040.24 L1390.56 1040.24 L1390.56 1046.1 L1385.08 1046.1 Q1388.33 1048.23 1389.92 1051.06 Q1391.48 1053.87 1391.48 1057.59 Q1391.48 1063.73 1387.66 1066.92 Q1383.84 1070.1 1376.49 1070.1 M1354.05 1055.36 L1354.05 1055.36 Z" fill="#000000" fill-rule="evenodd" fill-opacity="1" /><path clip-path="url(#clip200)" d="M1355.96 1005.45 L1361.5 1005.45 Q1360.22 1007.94 1359.59 1010.61 Q1358.95 1013.28 1358.95 1016.15 Q1358.95 1020.51 1360.29 1022.71 Q1361.63 1024.87 1364.3 1024.87 Q1366.34 1024.87 1367.51 1023.31 Q1368.66 1021.75 1369.71 1017.04 L1370.16 1015.03 Q1371.49 1008.8 1373.94 1006.19 Q1376.36 1003.54 1380.72 1003.54 Q1385.69 1003.54 1388.58 1007.49 Q1391.48 1011.41 1391.48 1018.28 Q1391.48 1021.15 1390.91 1024.26 Q1390.37 1027.35 1389.25 1030.79 L1383.21 1030.79 Q1384.89 1027.54 1385.75 1024.39 Q1386.58 1021.24 1386.58 1018.15 Q1386.58 1014.02 1385.18 1011.79 Q1383.75 1009.56 1381.17 1009.56 Q1378.78 1009.56 1377.51 1011.18 Q1376.23 1012.77 1375.06 1018.22 L1374.58 1020.25 Q1373.43 1025.7 1371.08 1028.12 Q1368.69 1030.54 1364.55 1030.54 Q1359.52 1030.54 1356.79 1026.97 Q1354.05 1023.41 1354.05 1016.85 Q1354.05 1013.6 1354.53 1010.74 Q1355.01 1007.87 1355.96 1005.45 Z" fill="#000000" fill-rule="evenodd" fill-opacity="1" /><path clip-path="url(#clip200)" d="M1369.04 964.586 L1390.56 964.586 L1390.56 970.443 L1369.23 970.443 Q1364.17 970.443 1361.66 972.416 Q1359.14 974.39 1359.14 978.336 Q1359.14 983.079 1362.17 985.816 Q1365.19 988.553 1370.41 988.553 L1390.56 988.553 L1390.56 994.442 L1341.03 994.442 L1341.03 988.553 L1360.45 988.553 Q1357.23 986.453 1355.64 983.62 Q1354.05 980.755 1354.05 977.031 Q1354.05 970.888 1357.87 967.737 Q1361.66 964.586 1369.04 964.586 Z" fill="#000000" fill-rule="evenodd" fill-opacity="1" /><path clip-path="url(#clip200)" d="M1370.09 955.865 L1370.09 938.71 L1375.31 938.71 L1375.31 955.865 L1370.09 955.865 Z" fill="#000000" fill-rule="evenodd" fill-opacity="1" /><path clip-path="url(#clip200)" d="M1359.02 914.361 Q1359.02 919.072 1362.71 921.809 Q1366.37 924.546 1372.77 924.546 Q1379.16 924.546 1382.86 921.841 Q1386.52 919.103 1386.52 914.361 Q1386.52 909.682 1382.82 906.945 Q1379.13 904.208 1372.77 904.208 Q1366.43 904.208 1362.74 906.945 Q1359.02 909.682 1359.02 914.361 M1354.05 914.361 Q1354.05 906.722 1359.02 902.362 Q1363.98 898.001 1372.77 898.001 Q1381.52 898.001 1386.52 902.362 Q1391.48 906.722 1391.48 914.361 Q1391.48 922.032 1386.52 926.392 Q1381.52 930.721 1372.77 930.721 Q1363.98 930.721 1359.02 926.392 Q1354.05 922.032 1354.05 914.361 Z" fill="#000000" fill-rule="evenodd" fill-opacity="1" /><path clip-path="url(#clip200)" d="M1341.03 870.247 L1345.9 870.247 L1345.9 875.848 Q1345.9 878.999 1347.18 880.241 Q1348.45 881.45 1351.76 881.45 L1354.91 881.45 L1354.91 871.806 L1359.46 871.806 L1359.46 881.45 L1390.56 881.45 L1390.56 887.339 L1359.46 887.339 L1359.46 892.94 L1354.91 892.94 L1354.91 887.339 L1352.43 887.339 Q1346.47 887.339 1343.77 884.569 Q1341.03 881.8 1341.03 875.785 L1341.03 870.247 Z" fill="#000000" fill-rule="evenodd" fill-opacity="1" /><path clip-path="url(#clip200)" d="M1341.03 847.298 L1345.9 847.298 L1345.9 852.9 Q1345.9 856.051 1347.18 857.292 Q1348.45 858.502 1351.76 858.502 L1354.91 858.502 L1354.91 848.858 L1359.46 848.858 L1359.46 858.502 L1390.56 858.502 L1390.56 864.39 L1359.46 864.39 L1359.46 869.992 L1354.91 869.992 L1354.91 864.39 L1352.43 864.39 Q1346.47 864.39 1343.77 861.621 Q1341.03 858.852 1341.03 852.836 L1341.03 847.298 Z" fill="#000000" fill-rule="evenodd" fill-opacity="1" /><path clip-path="url(#clip200)" d="M1354.91 825.082 L1354.91 819.225 L1382.73 811.905 L1354.91 804.616 L1354.91 797.709 L1382.73 790.389 L1354.91 783.1 L1354.91 777.244 L1390.56 786.569 L1390.56 793.476 L1361.34 801.147 L1390.56 808.849 L1390.56 815.756 L1354.91 825.082 Z" fill="#000000" fill-rule="evenodd" fill-opacity="1" /><path clip-path="url(#clip200)" d="M1359.02 754.55 Q1359.02 759.261 1362.71 761.998 Q1366.37 764.735 1372.77 764.735 Q1379.16 764.735 1382.86 762.03 Q1386.52 759.292 1386.52 754.55 Q1386.52 749.871 1382.82 747.134 Q1379.13 744.397 1372.77 744.397 Q1366.43 744.397 1362.74 747.134 Q1359.02 749.871 1359.02 754.55 M1354.05 754.55 Q1354.05 746.911 1359.02 742.551 Q1363.98 738.19 1372.77 738.19 Q1381.52 738.19 1386.52 742.551 Q1391.48 746.911 1391.48 754.55 Q1391.48 762.221 1386.52 766.581 Q1381.52 770.91 1372.77 770.91 Q1363.98 770.91 1359.02 766.581 Q1354.05 762.221 1354.05 754.55 Z" fill="#000000" fill-rule="evenodd" fill-opacity="1" /><path clip-path="url(#clip200)" d="M1360.38 707.826 Q1359.81 708.812 1359.56 709.99 Q1359.27 711.136 1359.27 712.536 Q1359.27 717.501 1362.52 720.175 Q1365.73 722.817 1371.78 722.817 L1390.56 722.817 L1390.56 728.705 L1354.91 728.705 L1354.91 722.817 L1360.45 722.817 Q1357.2 720.971 1355.64 718.011 Q1354.05 715.051 1354.05 710.817 Q1354.05 710.213 1354.15 709.481 Q1354.21 708.749 1354.37 707.857 L1360.38 707.826 Z" fill="#000000" fill-rule="evenodd" fill-opacity="1" /><path clip-path="url(#clip200)" d="M1341.03 701.906 L1341.03 696.017 L1370.28 696.017 L1354.91 678.543 L1354.91 671.064 L1371.59 689.97 L1390.56 670.268 L1390.56 677.907 L1373.15 696.017 L1390.56 696.017 L1390.56 701.906 L1341.03 701.906 Z" fill="#000000" fill-rule="evenodd" fill-opacity="1" /><polyline clip-path="url(#clip203)" style="stroke:#009af9; stroke-linecap:round; stroke-linejoin:round; stroke-width:4; stroke-opacity:1; fill:none" points="1615.1,1032.11 1705.62,941.565 1796.15,1094.04 1886.67,1157.54 1977.2,1193.41 2067.73,1221.15 2158.25,1251.47 2248.78,1294.13 2339.3,1361.58 2429.83,1470.55 2520.36,1631.77 "/>
<circle clip-path="url(#clip203)" cx="1615.1" cy="1032.11" r="14.4" fill="#009af9" fill-rule="evenodd" fill-opacity="1" stroke="#000000" stroke-opacity="1" stroke-width="3.84"/>
<circle clip-path="url(#clip203)" cx="1705.62" cy="941.565" r="14.4" fill="#009af9" fill-rule="evenodd" fill-opacity="1" stroke="#000000" stroke-opacity="1" stroke-width="3.84"/>
<circle clip-path="url(#clip203)" cx="1796.15" cy="1094.04" r="14.4" fill="#009af9" fill-rule="evenodd" fill-opacity="1" stroke="#000000" stroke-opacity="1" stroke-width="3.84"/>
<circle clip-path="url(#clip203)" cx="1886.67" cy="1157.54" r="14.4" fill="#009af9" fill-rule="evenodd" fill-opacity="1" stroke="#000000" stroke-opacity="1" stroke-width="3.84"/>
<circle clip-path="url(#clip203)" cx="1977.2" cy="1193.41" r="14.4" fill="#009af9" fill-rule="evenodd" fill-opacity="1" stroke="#000000" stroke-opacity="1" stroke-width="3.84"/>
<circle clip-path="url(#clip203)" cx="2067.73" cy="1221.15" r="14.4" fill="#009af9" fill-rule="evenodd" fill-opacity="1" stroke="#000000" stroke-opacity="1" stroke-width="3.84"/>
<circle clip-path="url(#clip203)" cx="2158.25" cy="1251.47" r="14.4" fill="#009af9" fill-rule="evenodd" fill-opacity="1" stroke="#000000" stroke-opacity="1" stroke-width="3.84"/>
<circle clip-path="url(#clip203)" cx="2248.78" cy="1294.13" r="14.4" fill="#009af9" fill-rule="evenodd" fill-opacity="1" stroke="#000000" stroke-opacity="1" stroke-width="3.84"/>
<circle clip-path="url(#clip203)" cx="2339.3" cy="1361.58" r="14.4" fill="#009af9" fill-rule="evenodd" fill-opacity="1" stroke="#000000" stroke-opacity="1" stroke-width="3.84"/>
<circle clip-path="url(#clip203)" cx="2429.83" cy="1470.55" r="14.4" fill="#009af9" fill-rule="evenodd" fill-opacity="1" stroke="#000000" stroke-opacity="1" stroke-width="3.84"/>
<circle clip-path="url(#clip203)" cx="2520.36" cy="1631.77" r="14.4" fill="#009af9" fill-rule="evenodd" fill-opacity="1" stroke="#000000" stroke-opacity="1" stroke-width="3.84"/>
<polyline clip-path="url(#clip203)" style="stroke:#e26f46; stroke-linecap:round; stroke-linejoin:round; stroke-width:4; stroke-opacity:1; fill:none" points="1615.1,94.9858 1705.62,1297.18 1796.15,1297.14 1886.67,1297.18 1977.2,1297.14 2067.73,1297.18 2158.25,1297.14 2248.78,1297.18 2339.3,1297.14 2429.83,1297.18 2520.36,1297.14 "/>
<circle clip-path="url(#clip203)" cx="1615.1" cy="94.9858" r="14.4" fill="#e26f46" fill-rule="evenodd" fill-opacity="1" stroke="#000000" stroke-opacity="1" stroke-width="3.84"/>
<circle clip-path="url(#clip203)" cx="1705.62" cy="1297.18" r="14.4" fill="#e26f46" fill-rule="evenodd" fill-opacity="1" stroke="#000000" stroke-opacity="1" stroke-width="3.84"/>
<circle clip-path="url(#clip203)" cx="1796.15" cy="1297.14" r="14.4" fill="#e26f46" fill-rule="evenodd" fill-opacity="1" stroke="#000000" stroke-opacity="1" stroke-width="3.84"/>
<circle clip-path="url(#clip203)" cx="1886.67" cy="1297.18" r="14.4" fill="#e26f46" fill-rule="evenodd" fill-opacity="1" stroke="#000000" stroke-opacity="1" stroke-width="3.84"/>
<circle clip-path="url(#clip203)" cx="1977.2" cy="1297.14" r="14.4" fill="#e26f46" fill-rule="evenodd" fill-opacity="1" stroke="#000000" stroke-opacity="1" stroke-width="3.84"/>
<circle clip-path="url(#clip203)" cx="2067.73" cy="1297.18" r="14.4" fill="#e26f46" fill-rule="evenodd" fill-opacity="1" stroke="#000000" stroke-opacity="1" stroke-width="3.84"/>
<circle clip-path="url(#clip203)" cx="2158.25" cy="1297.14" r="14.4" fill="#e26f46" fill-rule="evenodd" fill-opacity="1" stroke="#000000" stroke-opacity="1" stroke-width="3.84"/>
<circle clip-path="url(#clip203)" cx="2248.78" cy="1297.18" r="14.4" fill="#e26f46" fill-rule="evenodd" fill-opacity="1" stroke="#000000" stroke-opacity="1" stroke-width="3.84"/>
<circle clip-path="url(#clip203)" cx="2339.3" cy="1297.14" r="14.4" fill="#e26f46" fill-rule="evenodd" fill-opacity="1" stroke="#000000" stroke-opacity="1" stroke-width="3.84"/>
<circle clip-path="url(#clip203)" cx="2429.83" cy="1297.18" r="14.4" fill="#e26f46" fill-rule="evenodd" fill-opacity="1" stroke="#000000" stroke-opacity="1" stroke-width="3.84"/>
<circle clip-path="url(#clip203)" cx="2520.36" cy="1297.14" r="14.4" fill="#e26f46" fill-rule="evenodd" fill-opacity="1" stroke="#000000" stroke-opacity="1" stroke-width="3.84"/>
<polyline clip-path="url(#clip203)" style="stroke:#3da44d; stroke-linecap:round; stroke-linejoin:round; stroke-width:4; stroke-opacity:1; fill:none" points="1615.1,1562.09 1705.62,806.609 1796.15,671.344 1886.67,546.967 1977.2,419.781 2067.73,288.655 2158.25,1357.22 2248.78,1477.8 2339.3,1584.77 2429.83,1667.72 2520.36,1686.38 "/>
<circle clip-path="url(#clip203)" cx="1615.1" cy="1562.09" r="14.4" fill="#3da44d" fill-rule="evenodd" fill-opacity="1" stroke="#000000" stroke-opacity="1" stroke-width="3.84"/>
<circle clip-path="url(#clip203)" cx="1705.62" cy="806.609" r="14.4" fill="#3da44d" fill-rule="evenodd" fill-opacity="1" stroke="#000000" stroke-opacity="1" stroke-width="3.84"/>
<circle clip-path="url(#clip203)" cx="1796.15" cy="671.344" r="14.4" fill="#3da44d" fill-rule="evenodd" fill-opacity="1" stroke="#000000" stroke-opacity="1" stroke-width="3.84"/>
<circle clip-path="url(#clip203)" cx="1886.67" cy="546.967" r="14.4" fill="#3da44d" fill-rule="evenodd" fill-opacity="1" stroke="#000000" stroke-opacity="1" stroke-width="3.84"/>
<circle clip-path="url(#clip203)" cx="1977.2" cy="419.781" r="14.4" fill="#3da44d" fill-rule="evenodd" fill-opacity="1" stroke="#000000" stroke-opacity="1" stroke-width="3.84"/>
<circle clip-path="url(#clip203)" cx="2067.73" cy="288.655" r="14.4" fill="#3da44d" fill-rule="evenodd" fill-opacity="1" stroke="#000000" stroke-opacity="1" stroke-width="3.84"/>
<circle clip-path="url(#clip203)" cx="2158.25" cy="1357.22" r="14.4" fill="#3da44d" fill-rule="evenodd" fill-opacity="1" stroke="#000000" stroke-opacity="1" stroke-width="3.84"/>
<circle clip-path="url(#clip203)" cx="2248.78" cy="1477.8" r="14.4" fill="#3da44d" fill-rule="evenodd" fill-opacity="1" stroke="#000000" stroke-opacity="1" stroke-width="3.84"/>
<circle clip-path="url(#clip203)" cx="2339.3" cy="1584.77" r="14.4" fill="#3da44d" fill-rule="evenodd" fill-opacity="1" stroke="#000000" stroke-opacity="1" stroke-width="3.84"/>
<circle clip-path="url(#clip203)" cx="2429.83" cy="1667.72" r="14.4" fill="#3da44d" fill-rule="evenodd" fill-opacity="1" stroke="#000000" stroke-opacity="1" stroke-width="3.84"/>
<circle clip-path="url(#clip203)" cx="2520.36" cy="1686.38" r="14.4" fill="#3da44d" fill-rule="evenodd" fill-opacity="1" stroke="#000000" stroke-opacity="1" stroke-width="3.84"/>
</svg>
