<?xml version="1.0" encoding="utf-8"?>
<svg xmlns="http://www.w3.org/2000/svg" xmlns:xlink="http://www.w3.org/1999/xlink" width="672" height="480" viewBox="0 0 2688 1920">
<defs>
  <clipPath id="clip120">
    <rect x="0" y="0" width="2688" height="1920"/>
  </clipPath>
</defs>
<path clip-path="url(#clip120)" d="M0 1920 L2688 1920 L2688 0 L0 0  Z" fill="#ffffff" fill-rule="evenodd" fill-opacity="1"/>
<defs>
  <clipPath id="clip121">
    <rect x="537" y="0" width="1883" height="1883"/>
  </clipPath>
</defs>
<path clip-path="url(#clip120)" d="M211.395 1734.12 L2640.76 1734.12 L2640.76 47.2441 L211.395 47.2441  Z" fill="#ffffff" fill-rule="evenodd" fill-opacity="1"/>
<defs>
  <clipPath id="clip122">
    <rect x="211" y="47" width="2430" height="1688"/>
  </clipPath>
</defs>
<polyline clip-path="url(#clip122)" style="stroke:#000000; stroke-linecap:round; stroke-linejoin:round; stroke-width:2; stroke-opacity:0.1; fill:none" points="663.585,1734.12 663.585,47.2441 "/>
<polyline clip-path="url(#clip122)" style="stroke:#000000; stroke-linecap:round; stroke-linejoin:round; stroke-width:2; stroke-opacity:0.1; fill:none" points="1118.81,1734.12 1118.81,47.2441 "/>
<polyline clip-path="url(#clip122)" style="stroke:#000000; stroke-linecap:round; stroke-linejoin:round; stroke-width:2; stroke-opacity:0.1; fill:none" points="1574.04,1734.12 1574.04,47.2441 "/>
<polyline clip-path="url(#clip122)" style="stroke:#000000; stroke-linecap:round; stroke-linejoin:round; stroke-width:2; stroke-opacity:0.1; fill:none" points="2029.26,1734.12 2029.26,47.2441 "/>
<polyline clip-path="url(#clip122)" style="stroke:#000000; stroke-linecap:round; stroke-linejoin:round; stroke-width:2; stroke-opacity:0.1; fill:none" points="2484.49,1734.12 2484.49,47.2441 "/>
<polyline clip-path="url(#clip120)" style="stroke:#000000; stroke-linecap:round; stroke-linejoin:round; stroke-width:4; stroke-opacity:1; fill:none" points="211.395,1734.12 2640.76,1734.12 "/>
<polyline clip-path="url(#clip120)" style="stroke:#000000; stroke-linecap:round; stroke-linejoin:round; stroke-width:4; stroke-opacity:1; fill:none" points="663.585,1734.12 663.585,1715.22 "/>
<polyline clip-path="url(#clip120)" style="stroke:#000000; stroke-linecap:round; stroke-linejoin:round; stroke-width:4; stroke-opacity:1; fill:none" points="1118.81,1734.12 1118.81,1715.22 "/>
<polyline clip-path="url(#clip120)" style="stroke:#000000; stroke-linecap:round; stroke-linejoin:round; stroke-width:4; stroke-opacity:1; fill:none" points="1574.04,1734.12 1574.04,1715.22 "/>
<polyline clip-path="url(#clip120)" style="stroke:#000000; stroke-linecap:round; stroke-linejoin:round; stroke-width:4; stroke-opacity:1; fill:none" points="2029.26,1734.12 2029.26,1715.22 "/>
<polyline clip-path="url(#clip120)" style="stroke:#000000; stroke-linecap:round; stroke-linejoin:round; stroke-width:4; stroke-opacity:1; fill:none" points="2484.49,1734.12 2484.49,1715.22 "/>
<path clip-path="url(#clip120)" d="M667.833 1780.19 Q671.189 1780.9 673.064 1783.17 Q674.962 1785.44 674.962 1788.77 Q674.962 1793.89 671.444 1796.69 Q667.925 1799.49 661.444 1799.49 Q659.268 1799.49 656.953 1799.05 Q654.661 1798.64 652.208 1797.78 L652.208 1793.27 Q654.152 1794.4 656.467 1794.98 Q658.782 1795.56 661.305 1795.56 Q665.703 1795.56 667.995 1793.82 Q670.309 1792.08 670.309 1788.77 Q670.309 1785.72 668.157 1784.01 Q666.027 1782.27 662.208 1782.27 L658.18 1782.27 L658.18 1778.43 L662.393 1778.43 Q665.842 1778.43 667.671 1777.06 Q669.499 1775.67 669.499 1773.08 Q669.499 1770.42 667.601 1769.01 Q665.726 1767.57 662.208 1767.57 Q660.286 1767.57 658.087 1767.99 Q655.888 1768.4 653.249 1769.28 L653.249 1765.12 Q655.911 1764.38 658.226 1764.01 Q660.564 1763.64 662.624 1763.64 Q667.948 1763.64 671.05 1766.07 Q674.152 1768.47 674.152 1772.59 Q674.152 1775.46 672.508 1777.46 Q670.865 1779.42 667.833 1780.19 Z" fill="#000000" fill-rule="evenodd" fill-opacity="1" /><path clip-path="url(#clip120)" d="M1119.22 1779.68 Q1116.07 1779.68 1114.22 1781.83 Q1112.39 1783.98 1112.39 1787.73 Q1112.39 1791.46 1114.22 1793.64 Q1116.07 1795.79 1119.22 1795.79 Q1122.36 1795.79 1124.19 1793.64 Q1126.04 1791.46 1126.04 1787.73 Q1126.04 1783.98 1124.19 1781.83 Q1122.36 1779.68 1119.22 1779.68 M1128.5 1765.02 L1128.5 1769.28 Q1126.74 1768.45 1124.93 1768.01 Q1123.15 1767.57 1121.39 1767.57 Q1116.76 1767.57 1114.31 1770.7 Q1111.88 1773.82 1111.53 1780.14 Q1112.9 1778.13 1114.96 1777.06 Q1117.02 1775.97 1119.49 1775.97 Q1124.7 1775.97 1127.71 1779.15 Q1130.74 1782.29 1130.74 1787.73 Q1130.74 1793.06 1127.59 1796.27 Q1124.45 1799.49 1119.22 1799.49 Q1113.22 1799.49 1110.05 1794.91 Q1106.88 1790.3 1106.88 1781.58 Q1106.88 1773.38 1110.77 1768.52 Q1114.66 1763.64 1121.21 1763.64 Q1122.97 1763.64 1124.75 1763.98 Q1126.55 1764.33 1128.5 1765.02 Z" fill="#000000" fill-rule="evenodd" fill-opacity="1" /><path clip-path="url(#clip120)" d="M1564.34 1798.1 L1564.34 1793.84 Q1566.1 1794.68 1567.9 1795.12 Q1569.71 1795.56 1571.44 1795.56 Q1576.07 1795.56 1578.5 1792.46 Q1580.96 1789.33 1581.3 1782.99 Q1579.96 1784.98 1577.9 1786.04 Q1575.84 1787.11 1573.34 1787.11 Q1568.16 1787.11 1565.12 1783.98 Q1562.11 1780.83 1562.11 1775.4 Q1562.11 1770.07 1565.26 1766.85 Q1568.41 1763.64 1573.64 1763.64 Q1579.64 1763.64 1582.79 1768.24 Q1585.96 1772.83 1585.96 1781.58 Q1585.96 1789.75 1582.07 1794.63 Q1578.2 1799.49 1571.65 1799.49 Q1569.89 1799.49 1568.09 1799.15 Q1566.28 1798.8 1564.34 1798.1 M1573.64 1783.45 Q1576.79 1783.45 1578.62 1781.3 Q1580.47 1779.15 1580.47 1775.4 Q1580.47 1771.67 1578.62 1769.52 Q1576.79 1767.34 1573.64 1767.34 Q1570.49 1767.34 1568.64 1769.52 Q1566.81 1771.67 1566.81 1775.4 Q1566.81 1779.15 1568.64 1781.3 Q1570.49 1783.45 1573.64 1783.45 Z" fill="#000000" fill-rule="evenodd" fill-opacity="1" /><path clip-path="url(#clip120)" d="M2004.75 1794.89 L2012.39 1794.89 L2012.39 1768.52 L2004.08 1770.19 L2004.08 1765.93 L2012.34 1764.26 L2017.02 1764.26 L2017.02 1794.89 L2024.65 1794.89 L2024.65 1798.82 L2004.75 1798.82 L2004.75 1794.89 Z" fill="#000000" fill-rule="evenodd" fill-opacity="1" /><path clip-path="url(#clip120)" d="M2038.13 1794.89 L2054.45 1794.89 L2054.45 1798.82 L2032.5 1798.82 L2032.5 1794.89 Q2035.16 1792.13 2039.75 1787.5 Q2044.35 1782.85 2045.53 1781.51 Q2047.78 1778.98 2048.66 1777.25 Q2049.56 1775.49 2049.56 1773.8 Q2049.56 1771.04 2047.62 1769.31 Q2045.7 1767.57 2042.59 1767.57 Q2040.39 1767.57 2037.94 1768.34 Q2035.51 1769.1 2032.73 1770.65 L2032.73 1765.93 Q2035.56 1764.79 2038.01 1764.21 Q2040.46 1763.64 2042.5 1763.64 Q2047.87 1763.64 2051.07 1766.32 Q2054.26 1769.01 2054.26 1773.5 Q2054.26 1775.63 2053.45 1777.55 Q2052.66 1779.45 2050.56 1782.04 Q2049.98 1782.71 2046.88 1785.93 Q2043.77 1789.12 2038.13 1794.89 Z" fill="#000000" fill-rule="evenodd" fill-opacity="1" /><path clip-path="url(#clip120)" d="M2459.67 1794.89 L2467.31 1794.89 L2467.31 1768.52 L2459 1770.19 L2459 1765.93 L2467.26 1764.26 L2471.94 1764.26 L2471.94 1794.89 L2479.58 1794.89 L2479.58 1798.82 L2459.67 1798.82 L2459.67 1794.89 Z" fill="#000000" fill-rule="evenodd" fill-opacity="1" /><path clip-path="url(#clip120)" d="M2489.07 1764.26 L2507.43 1764.26 L2507.43 1768.2 L2493.35 1768.2 L2493.35 1776.67 Q2494.37 1776.32 2495.39 1776.16 Q2496.41 1775.97 2497.43 1775.97 Q2503.21 1775.97 2506.59 1779.15 Q2509.97 1782.32 2509.97 1787.73 Q2509.97 1793.31 2506.5 1796.41 Q2503.03 1799.49 2496.71 1799.49 Q2494.53 1799.49 2492.26 1799.12 Q2490.02 1798.75 2487.61 1798.01 L2487.61 1793.31 Q2489.69 1794.45 2491.92 1795 Q2494.14 1795.56 2496.62 1795.56 Q2500.62 1795.56 2502.96 1793.45 Q2505.3 1791.34 2505.3 1787.73 Q2505.3 1784.12 2502.96 1782.02 Q2500.62 1779.91 2496.62 1779.91 Q2494.74 1779.91 2492.87 1780.33 Q2491.01 1780.74 2489.07 1781.62 L2489.07 1764.26 Z" fill="#000000" fill-rule="evenodd" fill-opacity="1" /><path clip-path="url(#clip120)" d="M1294.93 1841.06 L1294.93 1878.02 L1302.69 1878.02 Q1312.53 1878.02 1317.08 1873.56 Q1321.66 1869.11 1321.66 1859.49 Q1321.66 1849.94 1317.08 1845.52 Q1312.53 1841.06 1302.69 1841.06 L1294.93 1841.06 M1288.5 1835.78 L1301.71 1835.78 Q1315.52 1835.78 1321.98 1841.54 Q1328.44 1847.27 1328.44 1859.49 Q1328.44 1871.78 1321.95 1877.54 Q1315.46 1883.3 1301.71 1883.3 L1288.5 1883.3 L1288.5 1835.78 Z" fill="#000000" fill-rule="evenodd" fill-opacity="1" /><path clip-path="url(#clip120)" d="M1338.44 1847.65 L1344.29 1847.65 L1344.29 1883.3 L1338.44 1883.3 L1338.44 1847.65 M1338.44 1833.78 L1344.29 1833.78 L1344.29 1841.19 L1338.44 1841.19 L1338.44 1833.78 Z" fill="#000000" fill-rule="evenodd" fill-opacity="1" /><path clip-path="url(#clip120)" d="M1379.27 1848.7 L1379.27 1854.24 Q1376.79 1852.97 1374.12 1852.33 Q1371.44 1851.7 1368.58 1851.7 Q1364.22 1851.7 1362.02 1853.03 Q1359.86 1854.37 1359.86 1857.04 Q1359.86 1859.08 1361.42 1860.26 Q1362.98 1861.4 1367.69 1862.45 L1369.69 1862.9 Q1375.93 1864.24 1378.54 1866.69 Q1381.18 1869.11 1381.18 1873.47 Q1381.18 1878.43 1377.23 1881.33 Q1373.32 1884.22 1366.44 1884.22 Q1363.58 1884.22 1360.46 1883.65 Q1357.37 1883.11 1353.94 1882 L1353.94 1875.95 Q1357.18 1877.64 1360.33 1878.49 Q1363.48 1879.32 1366.57 1879.32 Q1370.71 1879.32 1372.94 1877.92 Q1375.17 1876.49 1375.17 1873.91 Q1375.17 1871.52 1373.54 1870.25 Q1371.95 1868.98 1366.51 1867.8 L1364.47 1867.32 Q1359.03 1866.18 1356.61 1863.82 Q1354.19 1861.43 1354.19 1857.3 Q1354.19 1852.27 1357.76 1849.53 Q1361.32 1846.79 1367.88 1846.79 Q1371.12 1846.79 1373.99 1847.27 Q1376.85 1847.75 1379.27 1848.7 Z" fill="#000000" fill-rule="evenodd" fill-opacity="1" /><path clip-path="url(#clip120)" d="M1396.3 1837.53 L1396.3 1847.65 L1408.36 1847.65 L1408.36 1852.2 L1396.3 1852.2 L1396.3 1871.56 Q1396.3 1875.92 1397.48 1877.16 Q1398.69 1878.4 1402.35 1878.4 L1408.36 1878.4 L1408.36 1883.3 L1402.35 1883.3 Q1395.57 1883.3 1392.99 1880.79 Q1390.41 1878.24 1390.41 1871.56 L1390.41 1852.2 L1386.11 1852.2 L1386.11 1847.65 L1390.41 1847.65 L1390.41 1837.53 L1396.3 1837.53 Z" fill="#000000" fill-rule="evenodd" fill-opacity="1" /><path clip-path="url(#clip120)" d="M1432.27 1865.38 Q1425.17 1865.38 1422.43 1867 Q1419.69 1868.63 1419.69 1872.54 Q1419.69 1875.66 1421.73 1877.51 Q1423.8 1879.32 1427.33 1879.32 Q1432.2 1879.32 1435.13 1875.88 Q1438.09 1872.42 1438.09 1866.69 L1438.09 1865.38 L1432.27 1865.38 M1443.95 1862.96 L1443.95 1883.3 L1438.09 1883.3 L1438.09 1877.89 Q1436.09 1881.14 1433.09 1882.7 Q1430.1 1884.22 1425.77 1884.22 Q1420.3 1884.22 1417.05 1881.17 Q1413.84 1878.08 1413.84 1872.92 Q1413.84 1866.91 1417.85 1863.85 Q1421.89 1860.8 1429.88 1860.8 L1438.09 1860.8 L1438.09 1860.23 Q1438.09 1856.18 1435.42 1853.99 Q1432.78 1851.76 1427.97 1851.76 Q1424.91 1851.76 1422.02 1852.49 Q1419.12 1853.22 1416.45 1854.69 L1416.45 1849.28 Q1419.66 1848.03 1422.69 1847.43 Q1425.71 1846.79 1428.57 1846.79 Q1436.31 1846.79 1440.13 1850.8 Q1443.95 1854.81 1443.95 1862.96 Z" fill="#000000" fill-rule="evenodd" fill-opacity="1" /><path clip-path="url(#clip120)" d="M1485.64 1861.78 L1485.64 1883.3 L1479.79 1883.3 L1479.79 1861.98 Q1479.79 1856.92 1477.81 1854.4 Q1475.84 1851.89 1471.89 1851.89 Q1467.15 1851.89 1464.41 1854.91 Q1461.68 1857.93 1461.68 1863.15 L1461.68 1883.3 L1455.79 1883.3 L1455.79 1847.65 L1461.68 1847.65 L1461.68 1853.19 Q1463.78 1849.98 1466.61 1848.39 Q1469.47 1846.79 1473.2 1846.79 Q1479.34 1846.79 1482.49 1850.61 Q1485.64 1854.4 1485.64 1861.78 Z" fill="#000000" fill-rule="evenodd" fill-opacity="1" /><path clip-path="url(#clip120)" d="M1522.98 1849.02 L1522.98 1854.5 Q1520.49 1853.13 1517.98 1852.46 Q1515.5 1851.76 1512.95 1851.76 Q1507.25 1851.76 1504.1 1855.39 Q1500.95 1858.98 1500.95 1865.51 Q1500.95 1872.03 1504.1 1875.66 Q1507.25 1879.26 1512.95 1879.26 Q1515.5 1879.26 1517.98 1878.59 Q1520.49 1877.89 1522.98 1876.52 L1522.98 1881.93 Q1520.53 1883.08 1517.88 1883.65 Q1515.28 1884.22 1512.31 1884.22 Q1504.26 1884.22 1499.52 1879.16 Q1494.78 1874.1 1494.78 1865.51 Q1494.78 1856.79 1499.55 1851.79 Q1504.36 1846.79 1512.7 1846.79 Q1515.4 1846.79 1517.98 1847.37 Q1520.56 1847.91 1522.98 1849.02 Z" fill="#000000" fill-rule="evenodd" fill-opacity="1" /><path clip-path="url(#clip120)" d="M1563.65 1864.01 L1563.65 1866.88 L1536.73 1866.88 Q1537.11 1872.92 1540.36 1876.11 Q1543.63 1879.26 1549.46 1879.26 Q1552.83 1879.26 1555.98 1878.43 Q1559.17 1877.6 1562.29 1875.95 L1562.29 1881.49 Q1559.13 1882.82 1555.82 1883.52 Q1552.51 1884.22 1549.11 1884.22 Q1540.58 1884.22 1535.58 1879.26 Q1530.62 1874.29 1530.62 1865.83 Q1530.62 1857.07 1535.33 1851.95 Q1540.07 1846.79 1548.09 1846.79 Q1555.28 1846.79 1559.45 1851.44 Q1563.65 1856.06 1563.65 1864.01 M1557.8 1862.29 Q1557.73 1857.49 1555.09 1854.62 Q1552.48 1851.76 1548.15 1851.76 Q1543.25 1851.76 1540.29 1854.53 Q1537.36 1857.3 1536.92 1862.33 L1557.8 1862.29 Z" fill="#000000" fill-rule="evenodd" fill-opacity="1" /><polyline clip-path="url(#clip122)" style="stroke:#000000; stroke-linecap:round; stroke-linejoin:round; stroke-width:2; stroke-opacity:0.1; fill:none" points="211.395,1399.92 2640.76,1399.92 "/>
<polyline clip-path="url(#clip122)" style="stroke:#000000; stroke-linecap:round; stroke-linejoin:round; stroke-width:2; stroke-opacity:0.1; fill:none" points="211.395,1039.11 2640.76,1039.11 "/>
<polyline clip-path="url(#clip122)" style="stroke:#000000; stroke-linecap:round; stroke-linejoin:round; stroke-width:2; stroke-opacity:0.1; fill:none" points="211.395,678.3 2640.76,678.3 "/>
<polyline clip-path="url(#clip122)" style="stroke:#000000; stroke-linecap:round; stroke-linejoin:round; stroke-width:2; stroke-opacity:0.1; fill:none" points="211.395,317.492 2640.76,317.492 "/>
<polyline clip-path="url(#clip120)" style="stroke:#000000; stroke-linecap:round; stroke-linejoin:round; stroke-width:4; stroke-opacity:1; fill:none" points="211.395,1734.12 211.395,47.2441 "/>
<polyline clip-path="url(#clip120)" style="stroke:#000000; stroke-linecap:round; stroke-linejoin:round; stroke-width:4; stroke-opacity:1; fill:none" points="211.395,1399.92 230.293,1399.92 "/>
<polyline clip-path="url(#clip120)" style="stroke:#000000; stroke-linecap:round; stroke-linejoin:round; stroke-width:4; stroke-opacity:1; fill:none" points="211.395,1039.11 230.293,1039.11 "/>
<polyline clip-path="url(#clip120)" style="stroke:#000000; stroke-linecap:round; stroke-linejoin:round; stroke-width:4; stroke-opacity:1; fill:none" points="211.395,678.3 230.293,678.3 "/>
<polyline clip-path="url(#clip120)" style="stroke:#000000; stroke-linecap:round; stroke-linejoin:round; stroke-width:4; stroke-opacity:1; fill:none" points="211.395,317.492 230.293,317.492 "/>
<path clip-path="url(#clip120)" d="M119.779 1413.26 L127.418 1413.26 L127.418 1386.9 L119.108 1388.56 L119.108 1384.3 L127.372 1382.64 L132.048 1382.64 L132.048 1413.26 L139.687 1413.26 L139.687 1417.2 L119.779 1417.2 L119.779 1413.26 Z" fill="#000000" fill-rule="evenodd" fill-opacity="1" /><path clip-path="url(#clip120)" d="M159.131 1385.71 Q155.52 1385.71 153.691 1389.28 Q151.886 1392.82 151.886 1399.95 Q151.886 1407.06 153.691 1410.62 Q155.52 1414.16 159.131 1414.16 Q162.765 1414.16 164.571 1410.62 Q166.399 1407.06 166.399 1399.95 Q166.399 1392.82 164.571 1389.28 Q162.765 1385.71 159.131 1385.71 M159.131 1382.01 Q164.941 1382.01 167.997 1386.62 Q171.075 1391.2 171.075 1399.95 Q171.075 1408.68 167.997 1413.28 Q164.941 1417.87 159.131 1417.87 Q153.321 1417.87 150.242 1413.28 Q147.186 1408.68 147.186 1399.95 Q147.186 1391.2 150.242 1386.62 Q153.321 1382.01 159.131 1382.01 Z" fill="#000000" fill-rule="evenodd" fill-opacity="1" /><path clip-path="url(#clip120)" d="M122.997 1052.45 L139.316 1052.45 L139.316 1056.39 L117.372 1056.39 L117.372 1052.45 Q120.034 1049.7 124.617 1045.07 Q129.224 1040.42 130.404 1039.07 Q132.65 1036.55 133.529 1034.81 Q134.432 1033.05 134.432 1031.36 Q134.432 1028.61 132.488 1026.87 Q130.566 1025.14 127.464 1025.14 Q125.265 1025.14 122.812 1025.9 Q120.381 1026.67 117.603 1028.22 L117.603 1023.49 Q120.427 1022.36 122.881 1021.78 Q125.335 1021.2 127.372 1021.2 Q132.742 1021.2 135.937 1023.89 Q139.131 1026.57 139.131 1031.06 Q139.131 1033.19 138.321 1035.11 Q137.534 1037.01 135.427 1039.61 Q134.849 1040.28 131.747 1043.49 Q128.645 1046.69 122.997 1052.45 Z" fill="#000000" fill-rule="evenodd" fill-opacity="1" /><path clip-path="url(#clip120)" d="M159.131 1024.91 Q155.52 1024.91 153.691 1028.47 Q151.886 1032.01 151.886 1039.14 Q151.886 1046.25 153.691 1049.81 Q155.52 1053.36 159.131 1053.36 Q162.765 1053.36 164.571 1049.81 Q166.399 1046.25 166.399 1039.14 Q166.399 1032.01 164.571 1028.47 Q162.765 1024.91 159.131 1024.91 M159.131 1021.2 Q164.941 1021.2 167.997 1025.81 Q171.075 1030.39 171.075 1039.14 Q171.075 1047.87 167.997 1052.48 Q164.941 1057.06 159.131 1057.06 Q153.321 1057.06 150.242 1052.48 Q147.186 1047.87 147.186 1039.14 Q147.186 1030.39 150.242 1025.81 Q153.321 1021.2 159.131 1021.2 Z" fill="#000000" fill-rule="evenodd" fill-opacity="1" /><path clip-path="url(#clip120)" d="M133.136 676.946 Q136.492 677.663 138.367 679.932 Q140.265 682.2 140.265 685.534 Q140.265 690.649 136.747 693.45 Q133.228 696.251 126.747 696.251 Q124.571 696.251 122.256 695.811 Q119.964 695.395 117.511 694.538 L117.511 690.024 Q119.455 691.158 121.77 691.737 Q124.085 692.316 126.608 692.316 Q131.006 692.316 133.298 690.58 Q135.612 688.844 135.612 685.534 Q135.612 682.478 133.46 680.765 Q131.33 679.029 127.511 679.029 L123.483 679.029 L123.483 675.186 L127.696 675.186 Q131.145 675.186 132.974 673.821 Q134.802 672.432 134.802 669.839 Q134.802 667.177 132.904 665.765 Q131.029 664.33 127.511 664.33 Q125.589 664.33 123.39 664.747 Q121.191 665.163 118.552 666.043 L118.552 661.876 Q121.214 661.136 123.529 660.765 Q125.867 660.395 127.927 660.395 Q133.251 660.395 136.353 662.825 Q139.455 665.233 139.455 669.353 Q139.455 672.223 137.812 674.214 Q136.168 676.182 133.136 676.946 Z" fill="#000000" fill-rule="evenodd" fill-opacity="1" /><path clip-path="url(#clip120)" d="M159.131 664.098 Q155.52 664.098 153.691 667.663 Q151.886 671.205 151.886 678.334 Q151.886 685.441 153.691 689.006 Q155.52 692.547 159.131 692.547 Q162.765 692.547 164.571 689.006 Q166.399 685.441 166.399 678.334 Q166.399 671.205 164.571 667.663 Q162.765 664.098 159.131 664.098 M159.131 660.395 Q164.941 660.395 167.997 665.001 Q171.075 669.585 171.075 678.334 Q171.075 687.061 167.997 691.668 Q164.941 696.251 159.131 696.251 Q153.321 696.251 150.242 691.668 Q147.186 687.061 147.186 678.334 Q147.186 669.585 150.242 665.001 Q153.321 660.395 159.131 660.395 Z" fill="#000000" fill-rule="evenodd" fill-opacity="1" /><path clip-path="url(#clip120)" d="M131.816 304.286 L120.011 322.735 L131.816 322.735 L131.816 304.286 M130.589 300.212 L136.469 300.212 L136.469 322.735 L141.399 322.735 L141.399 326.623 L136.469 326.623 L136.469 334.772 L131.816 334.772 L131.816 326.623 L116.214 326.623 L116.214 322.11 L130.589 300.212 Z" fill="#000000" fill-rule="evenodd" fill-opacity="1" /><path clip-path="url(#clip120)" d="M159.131 303.29 Q155.52 303.29 153.691 306.855 Q151.886 310.397 151.886 317.526 Q151.886 324.633 153.691 328.198 Q155.52 331.739 159.131 331.739 Q162.765 331.739 164.571 328.198 Q166.399 324.633 166.399 317.526 Q166.399 310.397 164.571 306.855 Q162.765 303.29 159.131 303.29 M159.131 299.587 Q164.941 299.587 167.997 304.193 Q171.075 308.776 171.075 317.526 Q171.075 326.253 167.997 330.86 Q164.941 335.443 159.131 335.443 Q153.321 335.443 150.242 330.86 Q147.186 326.253 147.186 317.526 Q147.186 308.776 150.242 304.193 Q153.321 299.587 159.131 299.587 Z" fill="#000000" fill-rule="evenodd" fill-opacity="1" /><path clip-path="url(#clip120)" d="M19.402 1019.84 L56.3549 1019.84 L56.3549 1012.07 Q56.3549 1002.24 51.8989 997.688 Q47.4429 993.105 37.8307 993.105 Q28.2821 993.105 23.858 997.688 Q19.402 1002.24 19.402 1012.07 L19.402 1019.84 M14.1184 1026.27 L14.1184 1013.06 Q14.1184 999.248 19.8794 992.786 Q25.6085 986.325 37.8307 986.325 Q50.1165 986.325 55.8775 992.818 Q61.6384 999.311 61.6384 1013.06 L61.6384 1026.27 L14.1184 1026.27 Z" fill="#000000" fill-rule="evenodd" fill-opacity="1" /><path clip-path="url(#clip120)" d="M47.5702 976.936 L25.9905 976.936 L25.9905 971.079 L47.3474 971.079 Q52.4082 971.079 54.9545 969.106 Q57.4689 967.133 57.4689 963.186 Q57.4689 958.443 54.4452 955.706 Q51.4215 952.937 46.2016 952.937 L25.9905 952.937 L25.9905 947.081 L61.6384 947.081 L61.6384 952.937 L56.1639 952.937 Q59.4104 955.07 61.0019 957.902 Q62.5615 960.703 62.5615 964.427 Q62.5615 970.57 58.742 973.753 Q54.9226 976.936 47.5702 976.936 M25.1311 962.199 L25.1311 962.199 Z" fill="#000000" fill-rule="evenodd" fill-opacity="1" /><path clip-path="url(#clip120)" d="M31.465 914.361 Q30.8921 915.348 30.6375 916.525 Q30.351 917.671 30.351 919.072 Q30.351 924.037 33.5975 926.71 Q36.8122 929.352 42.8596 929.352 L61.6384 929.352 L61.6384 935.24 L25.9905 935.24 L25.9905 929.352 L31.5287 929.352 Q28.2821 927.506 26.7225 924.546 Q25.1311 921.586 25.1311 917.353 Q25.1311 916.748 25.2266 916.016 Q25.2903 915.284 25.4494 914.393 L31.465 914.361 Z" fill="#000000" fill-rule="evenodd" fill-opacity="1" /><path clip-path="url(#clip120)" d="M43.719 892.017 Q43.719 899.115 45.3422 901.852 Q46.9655 904.59 50.8804 904.59 Q53.9996 904.59 55.8457 902.553 Q57.6599 900.484 57.6599 896.951 Q57.6599 892.081 54.2224 889.153 Q50.7531 886.193 45.0239 886.193 L43.719 886.193 L43.719 892.017 M41.3 880.336 L61.6384 880.336 L61.6384 886.193 L56.2276 886.193 Q59.4741 888.198 61.0337 891.19 Q62.5615 894.182 62.5615 898.51 Q62.5615 903.985 59.5059 907.231 Q56.4186 910.446 51.2623 910.446 Q45.2467 910.446 42.1912 906.436 Q39.1357 902.393 39.1357 894.404 L39.1357 886.193 L38.5628 886.193 Q34.5205 886.193 32.3244 888.866 Q30.0964 891.508 30.0964 896.314 Q30.0964 899.37 30.8284 902.266 Q31.5605 905.163 33.0246 907.836 L27.6137 907.836 Q26.3724 904.621 25.7677 901.598 Q25.1311 898.574 25.1311 895.709 Q25.1311 887.975 29.1415 884.156 Q33.1519 880.336 41.3 880.336 Z" fill="#000000" fill-rule="evenodd" fill-opacity="1" /><path clip-path="url(#clip120)" d="M15.869 862.48 L25.9905 862.48 L25.9905 850.417 L30.542 850.417 L30.542 862.48 L49.8937 862.48 Q54.2542 862.48 55.4955 861.303 Q56.7368 860.093 56.7368 856.433 L56.7368 850.417 L61.6384 850.417 L61.6384 856.433 Q61.6384 863.213 59.124 865.791 Q56.5777 868.369 49.8937 868.369 L30.542 868.369 L30.542 872.666 L25.9905 872.666 L25.9905 868.369 L15.869 868.369 L15.869 862.48 Z" fill="#000000" fill-rule="evenodd" fill-opacity="1" /><path clip-path="url(#clip120)" d="M25.9905 842.715 L25.9905 836.858 L61.6384 836.858 L61.6384 842.715 L25.9905 842.715 M12.1132 842.715 L12.1132 836.858 L19.5293 836.858 L19.5293 842.715 L12.1132 842.715 Z" fill="#000000" fill-rule="evenodd" fill-opacity="1" /><path clip-path="url(#clip120)" d="M30.0964 810.791 Q30.0964 815.502 33.7885 818.239 Q37.4488 820.976 43.8463 820.976 Q50.2438 820.976 53.9359 818.271 Q57.5962 815.533 57.5962 810.791 Q57.5962 806.112 53.9041 803.375 Q50.212 800.638 43.8463 800.638 Q37.5124 800.638 33.8203 803.375 Q30.0964 806.112 30.0964 810.791 M25.1311 810.791 Q25.1311 803.152 30.0964 798.792 Q35.0616 794.431 43.8463 794.431 Q52.5991 794.431 57.5962 798.792 Q62.5615 803.152 62.5615 810.791 Q62.5615 818.462 57.5962 822.822 Q52.5991 827.151 43.8463 827.151 Q35.0616 827.151 30.0964 822.822 Q25.1311 818.462 25.1311 810.791 Z" fill="#000000" fill-rule="evenodd" fill-opacity="1" /><path clip-path="url(#clip120)" d="M40.1224 755.091 L61.6384 755.091 L61.6384 760.947 L40.3133 760.947 Q35.2526 760.947 32.7381 762.921 Q30.2237 764.894 30.2237 768.841 Q30.2237 773.583 33.2474 776.321 Q36.2711 779.058 41.491 779.058 L61.6384 779.058 L61.6384 784.946 L25.9905 784.946 L25.9905 779.058 L31.5287 779.058 Q28.314 776.957 26.7225 774.124 Q25.1311 771.26 25.1311 767.536 Q25.1311 761.393 28.9505 758.242 Q32.7381 755.091 40.1224 755.091 Z" fill="#000000" fill-rule="evenodd" fill-opacity="1" /><polyline clip-path="url(#clip122)" style="stroke:#009af9; stroke-linecap:round; stroke-linejoin:round; stroke-width:0.8; stroke-opacity:1; fill:none" points="312.424,1619.48 416.487,1522.71 520.551,1435.26 624.615,1352.12 728.679,1271.21 832.743,1191.51 936.806,1112.49 1249,877.07 1769.32,485.953 2289.64,94.9858 "/>
<polyline clip-path="url(#clip122)" style="stroke:#e26f46; stroke-linecap:round; stroke-linejoin:round; stroke-width:0.8; stroke-opacity:1; fill:none" points="312.424,1648.86 416.487,1574.51 520.551,1507.9 624.615,1444.89 728.679,1383.79 832.743,1323.77 936.806,1264.4 1249,1087.98 1769.32,795.482 2289.64,503.23 "/>
<polyline clip-path="url(#clip122)" style="stroke:#3da44d; stroke-linecap:round; stroke-linejoin:round; stroke-width:0.8; stroke-opacity:1; fill:none" points="312.424,1666.59 416.487,1605.34 520.551,1550.6 624.615,1498.84 728.679,1448.68 832.743,1399.41 936.806,1350.69 1249,1206.01 1769.32,966.268 2289.64,726.776 "/>
<polyline clip-path="url(#clip122)" style="stroke:#c271d2; stroke-linecap:round; stroke-linejoin:round; stroke-width:0.8; stroke-opacity:1; fill:none" points="312.424,1675.42 416.487,1620.46 520.551,1571.36 624.615,1524.93 728.679,1479.92 832.743,1435.73 936.806,1392.02 1249,1262.22 1769.32,1047.18 2289.64,832.375 "/>
<polyline clip-path="url(#clip122)" style="stroke:#ac8d18; stroke-linecap:round; stroke-linejoin:round; stroke-width:0.8; stroke-opacity:1; fill:none" points="312.424,1681.64 416.487,1631.02 520.551,1585.8 624.615,1543.03 728.679,1501.56 832.743,1460.84 936.806,1420.56 1249,1300.96 1769.32,1102.83 2289.64,904.926 "/>
<polyline clip-path="url(#clip122)" style="stroke:#00a9ad; stroke-linecap:round; stroke-linejoin:round; stroke-width:0.8; stroke-opacity:1; fill:none" points="312.424,1686.38 416.487,1639 520.551,1596.67 624.615,1556.62 728.679,1517.79 832.743,1479.66 936.806,1441.94 1249,1329.94 1769.32,1144.42 2289.64,959.102 "/>
<polyline clip-path="url(#clip122)" style="stroke:#ed5d92; stroke-linecap:round; stroke-linejoin:round; stroke-width:2; stroke-opacity:1; fill:none" points="312.424,1656.12 416.487,1584.45 520.551,1519.68 624.615,1458.1 728.679,1398.18 832.743,1339.16 936.806,1280.63 1249,1106.27 1769.32,816.602 2289.64,527.044 "/>
<polyline clip-path="url(#clip122)" style="stroke:#c68125; stroke-linecap:round; stroke-linejoin:round; stroke-width:2; stroke-opacity:1; fill:none" points="312.424,1650.97 416.487,1578.03 520.551,1512.69 624.615,1450.87 728.679,1390.92 832.743,1332.05 936.806,1273.8 1249,1100.72 1769.32,813.761 2289.64,527.044 "/>
<polyline clip-path="url(#clip122)" style="stroke:#00a98d; stroke-linecap:round; stroke-linejoin:round; stroke-width:2; stroke-opacity:1; fill:none" points="312.424,1648.41 416.487,1575.32 520.551,1510.01 624.615,1448.26 728.679,1388.4 832.743,1329.62 936.806,1271.48 1249,1098.85 1769.32,812.799 2289.64,527.044 "/>
<polyline clip-path="url(#clip122)" style="stroke:#8e971d; stroke-linecap:round; stroke-linejoin:round; stroke-width:2; stroke-opacity:1; fill:none" points="312.424,1647.36 416.487,1574.33 520.551,1509.08 624.615,1447.38 728.679,1387.57 832.743,1328.84 936.806,1270.75 1249,1098.26 1769.32,812.496 2289.64,527.044 "/>
<polyline clip-path="url(#clip122)" style="stroke:#00a8cb; stroke-linecap:round; stroke-linejoin:round; stroke-width:2; stroke-opacity:1; fill:none" points="312.424,1646.73 416.487,1573.75 520.551,1508.57 624.615,1446.91 728.679,1387.13 832.743,1328.42 936.806,1270.36 1249,1097.95 1769.32,812.337 2289.64,527.044 "/>
<polyline clip-path="url(#clip122)" style="stroke:#9b7fe8; stroke-linecap:round; stroke-linejoin:round; stroke-width:2; stroke-opacity:1; fill:none" points="312.424,1646.3 416.487,1573.39 520.551,1508.24 624.615,1446.61 728.679,1386.85 832.743,1328.17 936.806,1270.12 1249,1097.76 1769.32,812.24 2289.64,527.044 "/>
<polyline clip-path="url(#clip122)" style="stroke:#608cf6; stroke-linecap:round; stroke-linejoin:round; stroke-width:2; stroke-opacity:1; fill:none" stroke-dasharray="8, 5" points="298.045,1641.59 387.731,1564.23 477.416,1496.18 567.102,1432.74 656.787,1371.97 746.473,1312.88 836.158,1254.89 1105.21,1084.52 1553.64,805.115 2002.07,527.044 "/>
<polyline clip-path="url(#clip122)" style="stroke:#f05f73; stroke-linecap:round; stroke-linejoin:round; stroke-width:2; stroke-opacity:1; fill:none" stroke-dasharray="8, 5" points="326.542,1659.08 444.724,1590.03 562.906,1526.92 681.088,1466.24 799.27,1406.66 917.452,1347.6 1035.63,1288.8 1390.18,1112.87 1981.09,819.95 2572,527.044 "/>
<polyline clip-path="url(#clip122)" style="stroke:#dd64b5; stroke-linecap:round; stroke-linejoin:round; stroke-width:2; stroke-opacity:1; fill:none" stroke-dasharray="8, 5" points="280.151,1679.92 371.761,1615.28 468.352,1553.56 566.873,1492.78 666.186,1432.32 765.829,1371.95 865.607,1311.61 1165.17,1130.58 1664.52,828.814 2163.88,527.044 "/>
</svg>
