<?xml version="1.0" encoding="utf-8"?>
<svg xmlns="http://www.w3.org/2000/svg" xmlns:xlink="http://www.w3.org/1999/xlink" width="672" height="480" viewBox="0 0 2688 1920">
<defs>
  <clipPath id="clip540">
    <rect x="0" y="0" width="2688" height="1920"/>
  </clipPath>
</defs>
<path clip-path="url(#clip540)" d="M0 1920 L2688 1920 L2688 0 L0 0  Z" fill="#ffffff" fill-rule="evenodd" fill-opacity="1"/>
<defs>
  <clipPath id="clip541">
    <rect x="537" y="0" width="1883" height="1883"/>
  </clipPath>
</defs>
<path clip-path="url(#clip540)" d="M226.141 1734.12 L2640.76 1734.12 L2640.76 47.2441 L226.141 47.2441  Z" fill="#ffffff" fill-rule="evenodd" fill-opacity="1"/>
<defs>
  <clipPath id="clip542">
    <rect x="226" y="47" width="2416" height="1688"/>
  </clipPath>
</defs>
<polyline clip-path="url(#clip542)" style="stroke:#000000; stroke-linecap:round; stroke-linejoin:round; stroke-width:2; stroke-opacity:0.1; fill:none" points="226.141,1734.12 226.141,47.2441 "/>
<polyline clip-path="url(#clip542)" style="stroke:#000000; stroke-linecap:round; stroke-linejoin:round; stroke-width:2; stroke-opacity:0.1; fill:none" points="578.23,1734.12 578.23,47.2441 "/>
<polyline clip-path="url(#clip542)" style="stroke:#000000; stroke-linecap:round; stroke-linejoin:round; stroke-width:2; stroke-opacity:0.1; fill:none" points="930.32,1734.12 930.32,47.2441 "/>
<polyline clip-path="url(#clip542)" style="stroke:#000000; stroke-linecap:round; stroke-linejoin:round; stroke-width:2; stroke-opacity:0.1; fill:none" points="1282.41,1734.12 1282.41,47.2441 "/>
<polyline clip-path="url(#clip542)" style="stroke:#000000; stroke-linecap:round; stroke-linejoin:round; stroke-width:2; stroke-opacity:0.1; fill:none" points="1634.5,1734.12 1634.5,47.2441 "/>
<polyline clip-path="url(#clip542)" style="stroke:#000000; stroke-linecap:round; stroke-linejoin:round; stroke-width:2; stroke-opacity:0.1; fill:none" points="1986.59,1734.12 1986.59,47.2441 "/>
<polyline clip-path="url(#clip542)" style="stroke:#000000; stroke-linecap:round; stroke-linejoin:round; stroke-width:2; stroke-opacity:0.1; fill:none" points="2338.68,1734.12 2338.68,47.2441 "/>
<polyline clip-path="url(#clip540)" style="stroke:#000000; stroke-linecap:round; stroke-linejoin:round; stroke-width:4; stroke-opacity:1; fill:none" points="226.141,1734.12 2640.76,1734.12 "/>
<polyline clip-path="url(#clip540)" style="stroke:#000000; stroke-linecap:round; stroke-linejoin:round; stroke-width:4; stroke-opacity:1; fill:none" points="226.141,1734.12 226.141,1715.22 "/>
<polyline clip-path="url(#clip540)" style="stroke:#000000; stroke-linecap:round; stroke-linejoin:round; stroke-width:4; stroke-opacity:1; fill:none" points="578.23,1734.12 578.23,1715.22 "/>
<polyline clip-path="url(#clip540)" style="stroke:#000000; stroke-linecap:round; stroke-linejoin:round; stroke-width:4; stroke-opacity:1; fill:none" points="930.32,1734.12 930.32,1715.22 "/>
<polyline clip-path="url(#clip540)" style="stroke:#000000; stroke-linecap:round; stroke-linejoin:round; stroke-width:4; stroke-opacity:1; fill:none" points="1282.41,1734.12 1282.41,1715.22 "/>
<polyline clip-path="url(#clip540)" style="stroke:#000000; stroke-linecap:round; stroke-linejoin:round; stroke-width:4; stroke-opacity:1; fill:none" points="1634.5,1734.12 1634.5,1715.22 "/>
<polyline clip-path="url(#clip540)" style="stroke:#000000; stroke-linecap:round; stroke-linejoin:round; stroke-width:4; stroke-opacity:1; fill:none" points="1986.59,1734.12 1986.59,1715.22 "/>
<polyline clip-path="url(#clip540)" style="stroke:#000000; stroke-linecap:round; stroke-linejoin:round; stroke-width:4; stroke-opacity:1; fill:none" points="2338.68,1734.12 2338.68,1715.22 "/>
<path clip-path="url(#clip540)" d="M226.141 1767.34 Q222.529 1767.34 220.701 1770.9 Q218.895 1774.45 218.895 1781.58 Q218.895 1788.68 220.701 1792.25 Q222.529 1795.79 226.141 1795.79 Q229.775 1795.79 231.58 1792.25 Q233.409 1788.68 233.409 1781.58 Q233.409 1774.45 231.58 1770.9 Q229.775 1767.34 226.141 1767.34 M226.141 1763.64 Q231.951 1763.64 235.006 1768.24 Q238.085 1772.83 238.085 1781.58 Q238.085 1790.3 235.006 1794.91 Q231.951 1799.49 226.141 1799.49 Q220.33 1799.49 217.252 1794.91 Q214.196 1790.3 214.196 1781.58 Q214.196 1772.83 217.252 1768.24 Q220.33 1763.64 226.141 1763.64 Z" fill="#000000" fill-rule="evenodd" fill-opacity="1" /><path clip-path="url(#clip540)" d="M572.883 1794.89 L589.202 1794.89 L589.202 1798.82 L567.258 1798.82 L567.258 1794.89 Q569.92 1792.13 574.503 1787.5 Q579.11 1782.85 580.29 1781.51 Q582.536 1778.98 583.415 1777.25 Q584.318 1775.49 584.318 1773.8 Q584.318 1771.04 582.374 1769.31 Q580.452 1767.57 577.351 1767.57 Q575.152 1767.57 572.698 1768.34 Q570.267 1769.1 567.49 1770.65 L567.49 1765.93 Q570.314 1764.79 572.767 1764.21 Q575.221 1763.64 577.258 1763.64 Q582.628 1763.64 585.823 1766.32 Q589.017 1769.01 589.017 1773.5 Q589.017 1775.63 588.207 1777.55 Q587.42 1779.45 585.313 1782.04 Q584.735 1782.71 581.633 1785.93 Q578.531 1789.12 572.883 1794.89 Z" fill="#000000" fill-rule="evenodd" fill-opacity="1" /><path clip-path="url(#clip540)" d="M933.329 1768.34 L921.524 1786.78 L933.329 1786.78 L933.329 1768.34 M932.102 1764.26 L937.982 1764.26 L937.982 1786.78 L942.912 1786.78 L942.912 1790.67 L937.982 1790.67 L937.982 1798.82 L933.329 1798.82 L933.329 1790.67 L917.727 1790.67 L917.727 1786.16 L932.102 1764.26 Z" fill="#000000" fill-rule="evenodd" fill-opacity="1" /><path clip-path="url(#clip540)" d="M1282.81 1779.68 Q1279.67 1779.68 1277.81 1781.83 Q1275.99 1783.98 1275.99 1787.73 Q1275.99 1791.46 1277.81 1793.64 Q1279.67 1795.79 1282.81 1795.79 Q1285.96 1795.79 1287.79 1793.64 Q1289.64 1791.46 1289.64 1787.73 Q1289.64 1783.98 1287.79 1781.83 Q1285.96 1779.68 1282.81 1779.68 M1292.1 1765.02 L1292.1 1769.28 Q1290.34 1768.45 1288.53 1768.01 Q1286.75 1767.57 1284.99 1767.57 Q1280.36 1767.57 1277.91 1770.7 Q1275.48 1773.82 1275.13 1780.14 Q1276.5 1778.13 1278.56 1777.06 Q1280.62 1775.97 1283.09 1775.97 Q1288.3 1775.97 1291.31 1779.15 Q1294.34 1782.29 1294.34 1787.73 Q1294.34 1793.06 1291.19 1796.27 Q1288.05 1799.49 1282.81 1799.49 Q1276.82 1799.49 1273.65 1794.91 Q1270.48 1790.3 1270.48 1781.58 Q1270.48 1773.38 1274.37 1768.52 Q1278.25 1763.64 1284.81 1763.64 Q1286.56 1763.64 1288.35 1763.98 Q1290.15 1764.33 1292.1 1765.02 Z" fill="#000000" fill-rule="evenodd" fill-opacity="1" /><path clip-path="url(#clip540)" d="M1634.5 1782.41 Q1631.17 1782.41 1629.24 1784.19 Q1627.35 1785.97 1627.35 1789.1 Q1627.35 1792.22 1629.24 1794.01 Q1631.17 1795.79 1634.5 1795.79 Q1637.83 1795.79 1639.75 1794.01 Q1641.68 1792.2 1641.68 1789.1 Q1641.68 1785.97 1639.75 1784.19 Q1637.86 1782.41 1634.5 1782.41 M1629.82 1780.42 Q1626.81 1779.68 1625.12 1777.62 Q1623.46 1775.56 1623.46 1772.59 Q1623.46 1768.45 1626.4 1766.04 Q1629.36 1763.64 1634.5 1763.64 Q1639.66 1763.64 1642.6 1766.04 Q1645.54 1768.45 1645.54 1772.59 Q1645.54 1775.56 1643.85 1777.62 Q1642.18 1779.68 1639.2 1780.42 Q1642.58 1781.21 1644.45 1783.5 Q1646.35 1785.79 1646.35 1789.1 Q1646.35 1794.12 1643.27 1796.81 Q1640.22 1799.49 1634.5 1799.49 Q1628.78 1799.49 1625.7 1796.81 Q1622.65 1794.12 1622.65 1789.1 Q1622.65 1785.79 1624.55 1783.5 Q1626.44 1781.21 1629.82 1780.42 M1628.11 1773.03 Q1628.11 1775.72 1629.78 1777.22 Q1631.47 1778.73 1634.5 1778.73 Q1637.51 1778.73 1639.2 1777.22 Q1640.91 1775.72 1640.91 1773.03 Q1640.91 1770.35 1639.2 1768.84 Q1637.51 1767.34 1634.5 1767.34 Q1631.47 1767.34 1629.78 1768.84 Q1628.11 1770.35 1628.11 1773.03 Z" fill="#000000" fill-rule="evenodd" fill-opacity="1" /><path clip-path="url(#clip540)" d="M1961.28 1794.89 L1968.92 1794.89 L1968.92 1768.52 L1960.61 1770.19 L1960.61 1765.93 L1968.87 1764.26 L1973.54 1764.26 L1973.54 1794.89 L1981.18 1794.89 L1981.18 1798.82 L1961.28 1798.82 L1961.28 1794.89 Z" fill="#000000" fill-rule="evenodd" fill-opacity="1" /><path clip-path="url(#clip540)" d="M2000.63 1767.34 Q1997.02 1767.34 1995.19 1770.9 Q1993.38 1774.45 1993.38 1781.58 Q1993.38 1788.68 1995.19 1792.25 Q1997.02 1795.79 2000.63 1795.79 Q2004.26 1795.79 2006.07 1792.25 Q2007.9 1788.68 2007.9 1781.58 Q2007.9 1774.45 2006.07 1770.9 Q2004.26 1767.34 2000.63 1767.34 M2000.63 1763.64 Q2006.44 1763.64 2009.49 1768.24 Q2012.57 1772.83 2012.57 1781.58 Q2012.57 1790.3 2009.49 1794.91 Q2006.44 1799.49 2000.63 1799.49 Q1994.82 1799.49 1991.74 1794.91 Q1988.68 1790.3 1988.68 1781.58 Q1988.68 1772.83 1991.74 1768.24 Q1994.82 1763.64 2000.63 1763.64 Z" fill="#000000" fill-rule="evenodd" fill-opacity="1" /><path clip-path="url(#clip540)" d="M2314.16 1794.89 L2321.8 1794.89 L2321.8 1768.52 L2313.49 1770.19 L2313.49 1765.93 L2321.76 1764.26 L2326.43 1764.26 L2326.43 1794.89 L2334.07 1794.89 L2334.07 1798.82 L2314.16 1798.82 L2314.16 1794.89 Z" fill="#000000" fill-rule="evenodd" fill-opacity="1" /><path clip-path="url(#clip540)" d="M2347.54 1794.89 L2363.86 1794.89 L2363.86 1798.82 L2341.92 1798.82 L2341.92 1794.89 Q2344.58 1792.13 2349.16 1787.5 Q2353.77 1782.85 2354.95 1781.51 Q2357.2 1778.98 2358.08 1777.25 Q2358.98 1775.49 2358.98 1773.8 Q2358.98 1771.04 2357.03 1769.31 Q2355.11 1767.57 2352.01 1767.57 Q2349.81 1767.57 2347.36 1768.34 Q2344.93 1769.1 2342.15 1770.65 L2342.15 1765.93 Q2344.97 1764.79 2347.43 1764.21 Q2349.88 1763.64 2351.92 1763.64 Q2357.29 1763.64 2360.48 1766.32 Q2363.68 1769.01 2363.68 1773.5 Q2363.68 1775.63 2362.87 1777.55 Q2362.08 1779.45 2359.97 1782.04 Q2359.4 1782.71 2356.29 1785.93 Q2353.19 1789.12 2347.54 1794.89 Z" fill="#000000" fill-rule="evenodd" fill-opacity="1" /><path clip-path="url(#clip540)" d="M1302.3 1841.06 L1302.3 1878.02 L1310.06 1878.02 Q1319.9 1878.02 1324.45 1873.56 Q1329.03 1869.11 1329.03 1859.49 Q1329.03 1849.94 1324.45 1845.52 Q1319.9 1841.06 1310.06 1841.06 L1302.3 1841.06 M1295.87 1835.78 L1309.08 1835.78 Q1322.89 1835.78 1329.35 1841.54 Q1335.81 1847.27 1335.81 1859.49 Q1335.81 1871.78 1329.32 1877.54 Q1322.83 1883.3 1309.08 1883.3 L1295.87 1883.3 L1295.87 1835.78 Z" fill="#000000" fill-rule="evenodd" fill-opacity="1" /><path clip-path="url(#clip540)" d="M1345.81 1847.65 L1351.66 1847.65 L1351.66 1883.3 L1345.81 1883.3 L1345.81 1847.65 M1345.81 1833.78 L1351.66 1833.78 L1351.66 1841.19 L1345.81 1841.19 L1345.81 1833.78 Z" fill="#000000" fill-rule="evenodd" fill-opacity="1" /><path clip-path="url(#clip540)" d="M1386.64 1848.7 L1386.64 1854.24 Q1384.16 1852.97 1381.49 1852.33 Q1378.81 1851.7 1375.95 1851.7 Q1371.59 1851.7 1369.39 1853.03 Q1367.23 1854.37 1367.23 1857.04 Q1367.23 1859.08 1368.79 1860.26 Q1370.35 1861.4 1375.06 1862.45 L1377.06 1862.9 Q1383.3 1864.24 1385.91 1866.69 Q1388.55 1869.11 1388.55 1873.47 Q1388.55 1878.43 1384.61 1881.33 Q1380.69 1884.22 1373.82 1884.22 Q1370.95 1884.22 1367.83 1883.65 Q1364.75 1883.11 1361.31 1882 L1361.31 1875.95 Q1364.56 1877.64 1367.71 1878.49 Q1370.86 1879.32 1373.94 1879.32 Q1378.08 1879.32 1380.31 1877.92 Q1382.54 1876.49 1382.54 1873.91 Q1382.54 1871.52 1380.92 1870.25 Q1379.32 1868.98 1373.88 1867.8 L1371.84 1867.32 Q1366.4 1866.18 1363.98 1863.82 Q1361.56 1861.43 1361.56 1857.3 Q1361.56 1852.27 1365.13 1849.53 Q1368.69 1846.79 1375.25 1846.79 Q1378.5 1846.79 1381.36 1847.27 Q1384.23 1847.75 1386.64 1848.7 Z" fill="#000000" fill-rule="evenodd" fill-opacity="1" /><path clip-path="url(#clip540)" d="M1403.67 1837.53 L1403.67 1847.65 L1415.74 1847.65 L1415.74 1852.2 L1403.67 1852.2 L1403.67 1871.56 Q1403.67 1875.92 1404.85 1877.16 Q1406.06 1878.4 1409.72 1878.4 L1415.74 1878.4 L1415.74 1883.3 L1409.72 1883.3 Q1402.94 1883.3 1400.36 1880.79 Q1397.78 1878.24 1397.78 1871.56 L1397.78 1852.2 L1393.49 1852.2 L1393.49 1847.65 L1397.78 1847.65 L1397.78 1837.53 L1403.67 1837.53 Z" fill="#000000" fill-rule="evenodd" fill-opacity="1" /><path clip-path="url(#clip540)" d="M1439.64 1865.38 Q1432.54 1865.38 1429.8 1867 Q1427.07 1868.63 1427.07 1872.54 Q1427.07 1875.66 1429.1 1877.51 Q1431.17 1879.32 1434.71 1879.32 Q1439.58 1879.32 1442.5 1875.88 Q1445.46 1872.42 1445.46 1866.69 L1445.46 1865.38 L1439.64 1865.38 M1451.32 1862.96 L1451.32 1883.3 L1445.46 1883.3 L1445.46 1877.89 Q1443.46 1881.14 1440.47 1882.7 Q1437.47 1884.22 1433.15 1884.22 Q1427.67 1884.22 1424.42 1881.17 Q1421.21 1878.08 1421.21 1872.92 Q1421.21 1866.91 1425.22 1863.85 Q1429.26 1860.8 1437.25 1860.8 L1445.46 1860.8 L1445.46 1860.23 Q1445.46 1856.18 1442.79 1853.99 Q1440.15 1851.76 1435.34 1851.76 Q1432.29 1851.76 1429.39 1852.49 Q1426.49 1853.22 1423.82 1854.69 L1423.82 1849.28 Q1427.03 1848.03 1430.06 1847.43 Q1433.08 1846.79 1435.95 1846.79 Q1443.68 1846.79 1447.5 1850.8 Q1451.32 1854.81 1451.32 1862.96 Z" fill="#000000" fill-rule="evenodd" fill-opacity="1" /><path clip-path="url(#clip540)" d="M1493.02 1861.78 L1493.02 1883.3 L1487.16 1883.3 L1487.16 1861.98 Q1487.16 1856.92 1485.19 1854.4 Q1483.21 1851.89 1479.27 1851.89 Q1474.52 1851.89 1471.79 1854.91 Q1469.05 1857.93 1469.05 1863.15 L1469.05 1883.3 L1463.16 1883.3 L1463.16 1847.65 L1469.05 1847.65 L1469.05 1853.19 Q1471.15 1849.98 1473.98 1848.39 Q1476.85 1846.79 1480.57 1846.79 Q1486.71 1846.79 1489.86 1850.61 Q1493.02 1854.4 1493.02 1861.78 Z" fill="#000000" fill-rule="evenodd" fill-opacity="1" /><path clip-path="url(#clip540)" d="M1530.35 1849.02 L1530.35 1854.5 Q1527.87 1853.13 1525.35 1852.46 Q1522.87 1851.76 1520.32 1851.76 Q1514.63 1851.76 1511.48 1855.39 Q1508.32 1858.98 1508.32 1865.51 Q1508.32 1872.03 1511.48 1875.66 Q1514.63 1879.26 1520.32 1879.26 Q1522.87 1879.26 1525.35 1878.59 Q1527.87 1877.89 1530.35 1876.52 L1530.35 1881.93 Q1527.9 1883.08 1525.26 1883.65 Q1522.65 1884.22 1519.69 1884.22 Q1511.64 1884.22 1506.89 1879.16 Q1502.15 1874.1 1502.15 1865.51 Q1502.15 1856.79 1506.92 1851.79 Q1511.73 1846.79 1520.07 1846.79 Q1522.78 1846.79 1525.35 1847.37 Q1527.93 1847.91 1530.35 1849.02 Z" fill="#000000" fill-rule="evenodd" fill-opacity="1" /><path clip-path="url(#clip540)" d="M1571.03 1864.01 L1571.03 1866.88 L1544.1 1866.88 Q1544.48 1872.92 1547.73 1876.11 Q1551.01 1879.26 1556.83 1879.26 Q1560.21 1879.26 1563.36 1878.43 Q1566.54 1877.6 1569.66 1875.95 L1569.66 1881.49 Q1566.51 1882.82 1563.2 1883.52 Q1559.89 1884.22 1556.48 1884.22 Q1547.95 1884.22 1542.95 1879.26 Q1537.99 1874.29 1537.99 1865.83 Q1537.99 1857.07 1542.7 1851.95 Q1547.44 1846.79 1555.46 1846.79 Q1562.66 1846.79 1566.83 1851.44 Q1571.03 1856.06 1571.03 1864.01 M1565.17 1862.29 Q1565.11 1857.49 1562.47 1854.62 Q1559.86 1851.76 1555.53 1851.76 Q1550.62 1851.76 1547.66 1854.53 Q1544.74 1857.3 1544.29 1862.33 L1565.17 1862.29 Z" fill="#000000" fill-rule="evenodd" fill-opacity="1" /><polyline clip-path="url(#clip542)" style="stroke:#000000; stroke-linecap:round; stroke-linejoin:round; stroke-width:2; stroke-opacity:0.1; fill:none" points="226.141,1734.12 2640.76,1734.12 "/>
<polyline clip-path="url(#clip542)" style="stroke:#000000; stroke-linecap:round; stroke-linejoin:round; stroke-width:2; stroke-opacity:0.1; fill:none" points="226.141,1480.45 2640.76,1480.45 "/>
<polyline clip-path="url(#clip542)" style="stroke:#000000; stroke-linecap:round; stroke-linejoin:round; stroke-width:2; stroke-opacity:0.1; fill:none" points="226.141,1226.77 2640.76,1226.77 "/>
<polyline clip-path="url(#clip542)" style="stroke:#000000; stroke-linecap:round; stroke-linejoin:round; stroke-width:2; stroke-opacity:0.1; fill:none" points="226.141,973.103 2640.76,973.103 "/>
<polyline clip-path="url(#clip542)" style="stroke:#000000; stroke-linecap:round; stroke-linejoin:round; stroke-width:2; stroke-opacity:0.1; fill:none" points="226.141,719.432 2640.76,719.432 "/>
<polyline clip-path="url(#clip542)" style="stroke:#000000; stroke-linecap:round; stroke-linejoin:round; stroke-width:2; stroke-opacity:0.1; fill:none" points="226.141,465.76 2640.76,465.76 "/>
<polyline clip-path="url(#clip542)" style="stroke:#000000; stroke-linecap:round; stroke-linejoin:round; stroke-width:2; stroke-opacity:0.1; fill:none" points="226.141,212.089 2640.76,212.089 "/>
<polyline clip-path="url(#clip540)" style="stroke:#000000; stroke-linecap:round; stroke-linejoin:round; stroke-width:4; stroke-opacity:1; fill:none" points="226.141,1734.12 226.141,47.2441 "/>
<polyline clip-path="url(#clip540)" style="stroke:#000000; stroke-linecap:round; stroke-linejoin:round; stroke-width:4; stroke-opacity:1; fill:none" points="226.141,1734.12 245.038,1734.12 "/>
<polyline clip-path="url(#clip540)" style="stroke:#000000; stroke-linecap:round; stroke-linejoin:round; stroke-width:4; stroke-opacity:1; fill:none" points="226.141,1480.45 245.038,1480.45 "/>
<polyline clip-path="url(#clip540)" style="stroke:#000000; stroke-linecap:round; stroke-linejoin:round; stroke-width:4; stroke-opacity:1; fill:none" points="226.141,1226.77 245.038,1226.77 "/>
<polyline clip-path="url(#clip540)" style="stroke:#000000; stroke-linecap:round; stroke-linejoin:round; stroke-width:4; stroke-opacity:1; fill:none" points="226.141,973.103 245.038,973.103 "/>
<polyline clip-path="url(#clip540)" style="stroke:#000000; stroke-linecap:round; stroke-linejoin:round; stroke-width:4; stroke-opacity:1; fill:none" points="226.141,719.432 245.038,719.432 "/>
<polyline clip-path="url(#clip540)" style="stroke:#000000; stroke-linecap:round; stroke-linejoin:round; stroke-width:4; stroke-opacity:1; fill:none" points="226.141,465.76 245.038,465.76 "/>
<polyline clip-path="url(#clip540)" style="stroke:#000000; stroke-linecap:round; stroke-linejoin:round; stroke-width:4; stroke-opacity:1; fill:none" points="226.141,212.089 245.038,212.089 "/>
<path clip-path="url(#clip540)" d="M128.645 1719.92 Q125.034 1719.92 123.205 1723.48 Q121.4 1727.02 121.4 1734.15 Q121.4 1741.26 123.205 1744.82 Q125.034 1748.36 128.645 1748.36 Q132.279 1748.36 134.085 1744.82 Q135.913 1741.26 135.913 1734.15 Q135.913 1727.02 134.085 1723.48 Q132.279 1719.92 128.645 1719.92 M128.645 1716.21 Q134.455 1716.21 137.511 1720.82 Q140.589 1725.4 140.589 1734.15 Q140.589 1742.88 137.511 1747.48 Q134.455 1752.07 128.645 1752.07 Q122.835 1752.07 119.756 1747.48 Q116.701 1742.88 116.701 1734.15 Q116.701 1725.4 119.756 1720.82 Q122.835 1716.21 128.645 1716.21 Z" fill="#000000" fill-rule="evenodd" fill-opacity="1" /><path clip-path="url(#clip540)" d="M148.807 1745.52 L153.691 1745.52 L153.691 1751.4 L148.807 1751.4 L148.807 1745.52 Z" fill="#000000" fill-rule="evenodd" fill-opacity="1" /><path clip-path="url(#clip540)" d="M173.876 1719.92 Q170.265 1719.92 168.436 1723.48 Q166.631 1727.02 166.631 1734.15 Q166.631 1741.26 168.436 1744.82 Q170.265 1748.36 173.876 1748.36 Q177.51 1748.36 179.316 1744.82 Q181.145 1741.26 181.145 1734.15 Q181.145 1727.02 179.316 1723.48 Q177.51 1719.92 173.876 1719.92 M173.876 1716.21 Q179.686 1716.21 182.742 1720.82 Q185.821 1725.4 185.821 1734.15 Q185.821 1742.88 182.742 1747.48 Q179.686 1752.07 173.876 1752.07 Q168.066 1752.07 164.987 1747.48 Q161.932 1742.88 161.932 1734.15 Q161.932 1725.4 164.987 1720.82 Q168.066 1716.21 173.876 1716.21 Z" fill="#000000" fill-rule="evenodd" fill-opacity="1" /><path clip-path="url(#clip540)" d="M129.872 1466.24 Q126.261 1466.24 124.432 1469.81 Q122.626 1473.35 122.626 1480.48 Q122.626 1487.59 124.432 1491.15 Q126.261 1494.69 129.872 1494.69 Q133.506 1494.69 135.312 1491.15 Q137.14 1487.59 137.14 1480.48 Q137.14 1473.35 135.312 1469.81 Q133.506 1466.24 129.872 1466.24 M129.872 1462.54 Q135.682 1462.54 138.737 1467.15 Q141.816 1471.73 141.816 1480.48 Q141.816 1489.21 138.737 1493.81 Q135.682 1498.4 129.872 1498.4 Q124.062 1498.4 120.983 1493.81 Q117.927 1489.21 117.927 1480.48 Q117.927 1471.73 120.983 1467.15 Q124.062 1462.54 129.872 1462.54 Z" fill="#000000" fill-rule="evenodd" fill-opacity="1" /><path clip-path="url(#clip540)" d="M150.034 1491.85 L154.918 1491.85 L154.918 1497.73 L150.034 1497.73 L150.034 1491.85 Z" fill="#000000" fill-rule="evenodd" fill-opacity="1" /><path clip-path="url(#clip540)" d="M165.913 1493.79 L173.552 1493.79 L173.552 1467.42 L165.242 1469.09 L165.242 1464.83 L173.506 1463.17 L178.182 1463.17 L178.182 1493.79 L185.821 1493.79 L185.821 1497.73 L165.913 1497.73 L165.913 1493.79 Z" fill="#000000" fill-rule="evenodd" fill-opacity="1" /><path clip-path="url(#clip540)" d="M130.242 1212.57 Q126.631 1212.57 124.802 1216.14 Q122.997 1219.68 122.997 1226.81 Q122.997 1233.92 124.802 1237.48 Q126.631 1241.02 130.242 1241.02 Q133.876 1241.02 135.682 1237.48 Q137.511 1233.92 137.511 1226.81 Q137.511 1219.68 135.682 1216.14 Q133.876 1212.57 130.242 1212.57 M130.242 1208.87 Q136.052 1208.87 139.108 1213.48 Q142.187 1218.06 142.187 1226.81 Q142.187 1235.54 139.108 1240.14 Q136.052 1244.73 130.242 1244.73 Q124.432 1244.73 121.353 1240.14 Q118.298 1235.54 118.298 1226.81 Q118.298 1218.06 121.353 1213.48 Q124.432 1208.87 130.242 1208.87 Z" fill="#000000" fill-rule="evenodd" fill-opacity="1" /><path clip-path="url(#clip540)" d="M150.404 1238.17 L155.288 1238.17 L155.288 1244.05 L150.404 1244.05 L150.404 1238.17 Z" fill="#000000" fill-rule="evenodd" fill-opacity="1" /><path clip-path="url(#clip540)" d="M169.501 1240.12 L185.821 1240.12 L185.821 1244.05 L163.876 1244.05 L163.876 1240.12 Q166.538 1237.36 171.122 1232.73 Q175.728 1228.08 176.909 1226.74 Q179.154 1224.22 180.034 1222.48 Q180.936 1220.72 180.936 1219.03 Q180.936 1216.28 178.992 1214.54 Q177.071 1212.8 173.969 1212.8 Q171.77 1212.8 169.316 1213.57 Q166.885 1214.33 164.108 1215.88 L164.108 1211.16 Q166.932 1210.03 169.385 1209.45 Q171.839 1208.87 173.876 1208.87 Q179.247 1208.87 182.441 1211.55 Q185.635 1214.24 185.635 1218.73 Q185.635 1220.86 184.825 1222.78 Q184.038 1224.68 181.932 1227.27 Q181.353 1227.94 178.251 1231.16 Q175.149 1234.36 169.501 1240.12 Z" fill="#000000" fill-rule="evenodd" fill-opacity="1" /><path clip-path="url(#clip540)" d="M129.293 958.902 Q125.682 958.902 123.853 962.466 Q122.048 966.008 122.048 973.138 Q122.048 980.244 123.853 983.809 Q125.682 987.351 129.293 987.351 Q132.927 987.351 134.733 983.809 Q136.562 980.244 136.562 973.138 Q136.562 966.008 134.733 962.466 Q132.927 958.902 129.293 958.902 M129.293 955.198 Q135.103 955.198 138.159 959.804 Q141.237 964.388 141.237 973.138 Q141.237 981.865 138.159 986.471 Q135.103 991.054 129.293 991.054 Q123.483 991.054 120.404 986.471 Q117.349 981.865 117.349 973.138 Q117.349 964.388 120.404 959.804 Q123.483 955.198 129.293 955.198 Z" fill="#000000" fill-rule="evenodd" fill-opacity="1" /><path clip-path="url(#clip540)" d="M149.455 984.503 L154.339 984.503 L154.339 990.383 L149.455 990.383 L149.455 984.503 Z" fill="#000000" fill-rule="evenodd" fill-opacity="1" /><path clip-path="url(#clip540)" d="M178.691 971.749 Q182.047 972.466 183.922 974.735 Q185.821 977.003 185.821 980.337 Q185.821 985.452 182.302 988.253 Q178.784 991.054 172.302 991.054 Q170.126 991.054 167.811 990.614 Q165.52 990.198 163.066 989.341 L163.066 984.827 Q165.01 985.962 167.325 986.54 Q169.64 987.119 172.163 987.119 Q176.561 987.119 178.853 985.383 Q181.168 983.647 181.168 980.337 Q181.168 977.281 179.015 975.568 Q176.885 973.832 173.066 973.832 L169.038 973.832 L169.038 969.99 L173.251 969.99 Q176.7 969.99 178.529 968.624 Q180.358 967.235 180.358 964.642 Q180.358 961.98 178.459 960.568 Q176.584 959.133 173.066 959.133 Q171.145 959.133 168.946 959.55 Q166.747 959.966 164.108 960.846 L164.108 956.679 Q166.77 955.939 169.085 955.568 Q171.422 955.198 173.483 955.198 Q178.807 955.198 181.909 957.629 Q185.01 960.036 185.01 964.156 Q185.01 967.027 183.367 969.017 Q181.723 970.985 178.691 971.749 Z" fill="#000000" fill-rule="evenodd" fill-opacity="1" /><path clip-path="url(#clip540)" d="M128.159 705.23 Q124.548 705.23 122.719 708.795 Q120.913 712.337 120.913 719.466 Q120.913 726.573 122.719 730.138 Q124.548 733.679 128.159 733.679 Q131.793 733.679 133.599 730.138 Q135.427 726.573 135.427 719.466 Q135.427 712.337 133.599 708.795 Q131.793 705.23 128.159 705.23 M128.159 701.527 Q133.969 701.527 137.025 706.133 Q140.103 710.716 140.103 719.466 Q140.103 728.193 137.025 732.8 Q133.969 737.383 128.159 737.383 Q122.349 737.383 119.27 732.8 Q116.214 728.193 116.214 719.466 Q116.214 710.716 119.27 706.133 Q122.349 701.527 128.159 701.527 Z" fill="#000000" fill-rule="evenodd" fill-opacity="1" /><path clip-path="url(#clip540)" d="M148.321 730.832 L153.205 730.832 L153.205 736.712 L148.321 736.712 L148.321 730.832 Z" fill="#000000" fill-rule="evenodd" fill-opacity="1" /><path clip-path="url(#clip540)" d="M176.237 706.226 L164.432 724.675 L176.237 724.675 L176.237 706.226 M175.01 702.152 L180.89 702.152 L180.89 724.675 L185.821 724.675 L185.821 728.564 L180.89 728.564 L180.89 736.712 L176.237 736.712 L176.237 728.564 L160.636 728.564 L160.636 724.05 L175.01 702.152 Z" fill="#000000" fill-rule="evenodd" fill-opacity="1" /><path clip-path="url(#clip540)" d="M129.64 451.559 Q126.029 451.559 124.201 455.124 Q122.395 458.665 122.395 465.795 Q122.395 472.901 124.201 476.466 Q126.029 480.008 129.64 480.008 Q133.275 480.008 135.08 476.466 Q136.909 472.901 136.909 465.795 Q136.909 458.665 135.08 455.124 Q133.275 451.559 129.64 451.559 M129.64 447.855 Q135.45 447.855 138.506 452.462 Q141.585 457.045 141.585 465.795 Q141.585 474.522 138.506 479.128 Q135.45 483.712 129.64 483.712 Q123.83 483.712 120.751 479.128 Q117.696 474.522 117.696 465.795 Q117.696 457.045 120.751 452.462 Q123.83 447.855 129.64 447.855 Z" fill="#000000" fill-rule="evenodd" fill-opacity="1" /><path clip-path="url(#clip540)" d="M149.802 477.161 L154.686 477.161 L154.686 483.04 L149.802 483.04 L149.802 477.161 Z" fill="#000000" fill-rule="evenodd" fill-opacity="1" /><path clip-path="url(#clip540)" d="M164.918 448.48 L183.274 448.48 L183.274 452.415 L169.2 452.415 L169.2 460.888 Q170.219 460.54 171.237 460.378 Q172.256 460.193 173.274 460.193 Q179.061 460.193 182.441 463.365 Q185.821 466.536 185.821 471.952 Q185.821 477.531 182.348 480.633 Q178.876 483.712 172.557 483.712 Q170.381 483.712 168.112 483.341 Q165.867 482.971 163.46 482.23 L163.46 477.531 Q165.543 478.665 167.765 479.221 Q169.987 479.776 172.464 479.776 Q176.469 479.776 178.807 477.67 Q181.145 475.564 181.145 471.952 Q181.145 468.341 178.807 466.235 Q176.469 464.128 172.464 464.128 Q170.589 464.128 168.714 464.545 Q166.862 464.962 164.918 465.841 L164.918 448.48 Z" fill="#000000" fill-rule="evenodd" fill-opacity="1" /><path clip-path="url(#clip540)" d="M128.483 197.888 Q124.872 197.888 123.043 201.452 Q121.238 204.994 121.238 212.124 Q121.238 219.23 123.043 222.795 Q124.872 226.337 128.483 226.337 Q132.117 226.337 133.923 222.795 Q135.751 219.23 135.751 212.124 Q135.751 204.994 133.923 201.452 Q132.117 197.888 128.483 197.888 M128.483 194.184 Q134.293 194.184 137.349 198.79 Q140.427 203.374 140.427 212.124 Q140.427 220.851 137.349 225.457 Q134.293 230.04 128.483 230.04 Q122.673 230.04 119.594 225.457 Q116.539 220.851 116.539 212.124 Q116.539 203.374 119.594 198.79 Q122.673 194.184 128.483 194.184 Z" fill="#000000" fill-rule="evenodd" fill-opacity="1" /><path clip-path="url(#clip540)" d="M148.645 223.489 L153.529 223.489 L153.529 229.369 L148.645 229.369 L148.645 223.489 Z" fill="#000000" fill-rule="evenodd" fill-opacity="1" /><path clip-path="url(#clip540)" d="M174.293 210.226 Q171.145 210.226 169.293 212.378 Q167.464 214.531 167.464 218.281 Q167.464 222.008 169.293 224.184 Q171.145 226.337 174.293 226.337 Q177.441 226.337 179.27 224.184 Q181.122 222.008 181.122 218.281 Q181.122 214.531 179.27 212.378 Q177.441 210.226 174.293 210.226 M183.575 195.573 L183.575 199.832 Q181.816 198.999 180.01 198.559 Q178.228 198.119 176.469 198.119 Q171.839 198.119 169.385 201.244 Q166.955 204.369 166.608 210.689 Q167.973 208.675 170.034 207.61 Q172.094 206.522 174.571 206.522 Q179.779 206.522 182.788 209.693 Q185.821 212.841 185.821 218.281 Q185.821 223.605 182.672 226.823 Q179.524 230.04 174.293 230.04 Q168.297 230.04 165.126 225.457 Q161.955 220.851 161.955 212.124 Q161.955 203.929 165.844 199.068 Q169.733 194.184 176.284 194.184 Q178.043 194.184 179.825 194.531 Q181.631 194.878 183.575 195.573 Z" fill="#000000" fill-rule="evenodd" fill-opacity="1" /><path clip-path="url(#clip540)" d="M19.402 1064.31 L37.2578 1064.31 L37.2578 1056.22 Q37.2578 1051.73 34.9343 1049.28 Q32.6108 1046.83 28.314 1046.83 Q24.0489 1046.83 21.7255 1049.28 Q19.402 1051.73 19.402 1056.22 L19.402 1064.31 M14.1184 1070.73 L14.1184 1056.22 Q14.1184 1048.23 17.7469 1044.16 Q21.3435 1040.05 28.314 1040.05 Q35.3481 1040.05 38.9447 1044.16 Q42.5413 1048.23 42.5413 1056.22 L42.5413 1064.31 L61.6384 1064.31 L61.6384 1070.73 L14.1184 1070.73 Z" fill="#000000" fill-rule="evenodd" fill-opacity="1" /><path clip-path="url(#clip540)" d="M42.3504 1003.51 L45.2149 1003.51 L45.2149 1030.44 Q51.2623 1030.06 54.4452 1026.81 Q57.5962 1023.53 57.5962 1017.71 Q57.5962 1014.33 56.7687 1011.18 Q55.9411 1008 54.2861 1004.88 L59.8242 1004.88 Q61.161 1008.03 61.8612 1011.34 Q62.5615 1014.65 62.5615 1018.06 Q62.5615 1026.59 57.5962 1031.59 Q52.631 1036.55 44.1646 1036.55 Q35.4117 1036.55 30.2873 1031.84 Q25.1311 1027.1 25.1311 1019.08 Q25.1311 1011.88 29.7781 1007.71 Q34.3932 1003.51 42.3504 1003.51 M40.6316 1009.37 Q35.8255 1009.43 32.9609 1012.07 Q30.0964 1014.68 30.0964 1019.01 Q30.0964 1023.91 32.8654 1026.87 Q35.6345 1029.8 40.6634 1030.25 L40.6316 1009.37 Z" fill="#000000" fill-rule="evenodd" fill-opacity="1" /><path clip-path="url(#clip540)" d="M43.719 977.7 Q43.719 984.798 45.3422 987.535 Q46.9655 990.272 50.8804 990.272 Q53.9996 990.272 55.8457 988.235 Q57.6599 986.166 57.6599 982.633 Q57.6599 977.763 54.2224 974.835 Q50.7531 971.875 45.0239 971.875 L43.719 971.875 L43.719 977.7 M41.3 966.019 L61.6384 966.019 L61.6384 971.875 L56.2276 971.875 Q59.4741 973.88 61.0337 976.872 Q62.5615 979.864 62.5615 984.193 Q62.5615 989.667 59.5059 992.914 Q56.4186 996.128 51.2623 996.128 Q45.2467 996.128 42.1912 992.118 Q39.1357 988.076 39.1357 980.087 L39.1357 971.875 L38.5628 971.875 Q34.5205 971.875 32.3244 974.549 Q30.0964 977.19 30.0964 981.997 Q30.0964 985.052 30.8284 987.949 Q31.5605 990.845 33.0246 993.519 L27.6137 993.519 Q26.3724 990.304 25.7677 987.28 Q25.1311 984.256 25.1311 981.392 Q25.1311 973.658 29.1415 969.838 Q33.1519 966.019 41.3 966.019 Z" fill="#000000" fill-rule="evenodd" fill-opacity="1" /><path clip-path="url(#clip540)" d="M12.1132 954.178 L12.1132 948.29 L41.3637 948.29 L25.9905 930.816 L25.9905 923.337 L42.6686 942.243 L61.6384 922.541 L61.6384 930.18 L44.2282 948.29 L61.6384 948.29 L61.6384 954.178 L12.1132 954.178 Z" fill="#000000" fill-rule="evenodd" fill-opacity="1" /><path clip-path="url(#clip540)" d="M27.0408 872.761 L32.579 872.761 Q31.3059 875.244 30.6693 877.917 Q30.0327 880.591 30.0327 883.455 Q30.0327 887.816 31.3695 890.012 Q32.7063 892.176 35.3799 892.176 Q37.4169 892.176 38.5946 890.617 Q39.7404 889.057 40.7908 884.347 L41.2364 882.341 Q42.5732 876.103 45.0239 873.493 Q47.4429 870.851 51.8034 870.851 Q56.7687 870.851 59.6651 874.798 Q62.5615 878.713 62.5615 885.588 Q62.5615 888.453 61.9886 891.572 Q61.4475 894.659 60.3335 898.097 L54.2861 898.097 Q55.973 894.85 56.8323 891.699 Q57.6599 888.548 57.6599 885.461 Q57.6599 881.323 56.2594 879.095 Q54.8271 876.867 52.249 876.867 Q49.8619 876.867 48.5887 878.49 Q47.3156 880.082 46.1379 885.524 L45.6605 887.561 Q44.5147 893.004 42.1594 895.423 Q39.7722 897.842 35.6345 897.842 Q30.6056 897.842 27.8684 894.277 Q25.1311 890.712 25.1311 884.156 Q25.1311 880.909 25.6085 878.045 Q26.086 875.18 27.0408 872.761 Z" fill="#000000" fill-rule="evenodd" fill-opacity="1" /><path clip-path="url(#clip540)" d="M56.2912 855.86 L75.1974 855.86 L75.1974 861.748 L25.9905 861.748 L25.9905 855.86 L31.4013 855.86 Q28.2185 854.014 26.6907 851.213 Q25.1311 848.38 25.1311 844.466 Q25.1311 837.972 30.2873 833.93 Q35.4436 829.856 43.8463 829.856 Q52.249 829.856 57.4052 833.93 Q62.5615 837.972 62.5615 844.466 Q62.5615 848.38 61.0337 851.213 Q59.4741 854.014 56.2912 855.86 M43.8463 835.935 Q37.3851 835.935 33.7248 838.609 Q30.0327 841.251 30.0327 845.898 Q30.0327 850.545 33.7248 853.218 Q37.3851 855.86 43.8463 855.86 Q50.3075 855.86 53.9996 853.218 Q57.6599 850.545 57.6599 845.898 Q57.6599 841.251 53.9996 838.609 Q50.3075 835.935 43.8463 835.935 Z" fill="#000000" fill-rule="evenodd" fill-opacity="1" /><path clip-path="url(#clip540)" d="M42.3504 789.657 L45.2149 789.657 L45.2149 816.584 Q51.2623 816.202 54.4452 812.955 Q57.5962 809.677 57.5962 803.852 Q57.5962 800.478 56.7687 797.327 Q55.9411 794.145 54.2861 791.025 L59.8242 791.025 Q61.161 794.176 61.8612 797.487 Q62.5615 800.797 62.5615 804.202 Q62.5615 812.732 57.5962 817.73 Q52.631 822.695 44.1646 822.695 Q35.4117 822.695 30.2873 817.984 Q25.1311 813.242 25.1311 805.221 Q25.1311 798.028 29.7781 793.858 Q34.3932 789.657 42.3504 789.657 M40.6316 795.513 Q35.8255 795.577 32.9609 798.219 Q30.0964 800.829 30.0964 805.157 Q30.0964 810.059 32.8654 813.019 Q35.6345 815.947 40.6634 816.393 L40.6316 795.513 Z" fill="#000000" fill-rule="evenodd" fill-opacity="1" /><path clip-path="url(#clip540)" d="M42.3504 749.553 L45.2149 749.553 L45.2149 776.48 Q51.2623 776.098 54.4452 772.851 Q57.5962 769.573 57.5962 763.748 Q57.5962 760.375 56.7687 757.224 Q55.9411 754.041 54.2861 750.921 L59.8242 750.921 Q61.161 754.072 61.8612 757.383 Q62.5615 760.693 62.5615 764.098 Q62.5615 772.629 57.5962 777.626 Q52.631 782.591 44.1646 782.591 Q35.4117 782.591 30.2873 777.88 Q25.1311 773.138 25.1311 765.117 Q25.1311 757.924 29.7781 753.754 Q34.3932 749.553 42.3504 749.553 M40.6316 755.409 Q35.8255 755.473 32.9609 758.115 Q30.0964 760.725 30.0964 765.053 Q30.0964 769.955 32.8654 772.915 Q35.6345 775.843 40.6634 776.289 L40.6316 755.409 Z" fill="#000000" fill-rule="evenodd" fill-opacity="1" /><path clip-path="url(#clip540)" d="M31.4013 716.483 L12.1132 716.483 L12.1132 710.627 L61.6384 710.627 L61.6384 716.483 L56.2912 716.483 Q59.4741 718.329 61.0337 721.162 Q62.5615 723.963 62.5615 727.909 Q62.5615 734.371 57.4052 738.445 Q52.249 742.487 43.8463 742.487 Q35.4436 742.487 30.2873 738.445 Q25.1311 734.371 25.1311 727.909 Q25.1311 723.963 26.6907 721.162 Q28.2185 718.329 31.4013 716.483 M43.8463 736.439 Q50.3075 736.439 53.9996 733.798 Q57.6599 731.124 57.6599 726.477 Q57.6599 721.83 53.9996 719.157 Q50.3075 716.483 43.8463 716.483 Q37.3851 716.483 33.7248 719.157 Q30.0327 721.83 30.0327 726.477 Q30.0327 731.124 33.7248 733.798 Q37.3851 736.439 43.8463 736.439 Z" fill="#000000" fill-rule="evenodd" fill-opacity="1" /><polyline clip-path="url(#clip542)" style="stroke:#009af9; stroke-linecap:round; stroke-linejoin:round; stroke-width:0.8; stroke-opacity:1; fill:none" points="346.871,1289.72 467.602,1205.82 588.333,1089.84 709.064,1053.87 829.794,1012.02 950.525,993.171 1071.26,972.918 1433.45,947.598 2037.1,934.266 2640.76,931.943 "/>
<polyline clip-path="url(#clip542)" style="stroke:#e26f46; stroke-linecap:round; stroke-linejoin:round; stroke-width:0.8; stroke-opacity:1; fill:none" points="346.871,1173.02 467.602,1059.55 588.333,920.719 709.064,867.794 829.794,807.125 950.525,776.766 1071.26,743.948 1433.45,697.703 2037.1,668.882 2640.76,662.353 "/>
<polyline clip-path="url(#clip542)" style="stroke:#3da44d; stroke-linecap:round; stroke-linejoin:round; stroke-width:0.8; stroke-opacity:1; fill:none" points="346.871,1067.3 467.602,925.951 588.333,766.528 709.064,699.49 829.794,624.294 950.525,584.848 1071.26,542.409 1433.45,479.674 2037.1,437.952 2640.76,427.494 "/>
<polyline clip-path="url(#clip542)" style="stroke:#c271d2; stroke-linecap:round; stroke-linejoin:round; stroke-width:0.8; stroke-opacity:1; fill:none" points="346.871,998.315 467.602,838.926 588.333,665.866 709.064,590.073 829.794,506.064 950.525,461.122 1071.26,412.944 1433.45,340.376 2037.1,290.903 2640.76,278.01 "/>
<polyline clip-path="url(#clip542)" style="stroke:#ac8d18; stroke-linecap:round; stroke-linejoin:round; stroke-width:0.8; stroke-opacity:1; fill:none" points="346.871,940.384 467.602,766.053 588.333,581.445 709.064,498.508 829.794,407.338 950.525,357.955 1071.26,305.164 1433.45,224.722 2037.1,169.052 2640.76,154.194 "/>
<polyline clip-path="url(#clip542)" style="stroke:#00a9ad; stroke-linecap:round; stroke-linejoin:round; stroke-width:0.8; stroke-opacity:1; fill:none" points="346.871,889.875 467.602,702.678 588.333,507.944 709.064,418.9 829.794,321.611 950.525,268.454 1071.26,211.749 1433.45,124.654 2037.1,63.762 2640.76,47.2441 "/>
<polyline clip-path="url(#clip542)" style="stroke:#ed5d92; stroke-linecap:round; stroke-linejoin:round; stroke-width:0.8; stroke-opacity:1; fill:none" stroke-dasharray="8, 5" points="330.19,1202.23 434.24,1088.99 538.289,967.428 642.339,909.418 746.389,845.145 850.438,807.058 954.488,765.882 1266.64,693.893 1786.88,631.899 2307.13,608.691 "/>
<polyline clip-path="url(#clip542)" style="stroke:#c68125; stroke-linecap:round; stroke-linejoin:round; stroke-width:0.8; stroke-opacity:1; fill:none" stroke-dasharray="1, 2" points="363.251,1146.86 500.361,1033.71 637.471,881.786 774.581,837.736 911.691,787.72 1048.8,767.846 1185.91,746.939 1597.24,725.129 2282.79,716.29 2968.34,715.292 "/>
<polyline clip-path="url(#clip542)" style="stroke:#00a98d; stroke-linecap:round; stroke-linejoin:round; stroke-width:0.8; stroke-opacity:1; fill:none" stroke-dasharray="8, 4, 1, 4" points="309.43,1163.94 415.712,972.159 527.774,886.794 642.073,807.357 757.293,768.414 872.894,734.439 988.654,716.127 1336.19,685.387 1915.52,674.136 2494.85,672.458 "/>
<polyline clip-path="url(#clip542)" style="stroke:#8e971d; stroke-linecap:round; stroke-linejoin:round; stroke-width:2; stroke-opacity:1; fill:none" points="346.871,1044.67 467.602,914.498 588.333,734.553 709.064,678.754 829.794,613.828 950.525,584.585 1071.26,553.164 1433.45,513.881 2037.1,493.198 2640.76,489.594 "/>
<polyline clip-path="url(#clip542)" style="stroke:#00a8cb; stroke-linecap:round; stroke-linejoin:round; stroke-width:2; stroke-opacity:1; fill:none" points="346.871,1082.58 467.602,950.814 588.333,789.606 709.064,728.15 829.794,657.702 950.525,622.449 1071.26,584.342 1433.45,530.642 2037.1,497.176 2640.76,489.594 "/>
<polyline clip-path="url(#clip542)" style="stroke:#9b7fe8; stroke-linecap:round; stroke-linejoin:round; stroke-width:2; stroke-opacity:1; fill:none" points="346.871,1098.99 467.602,964.361 588.333,812.515 709.064,748.663 829.794,677.041 950.525,639.469 1071.26,599.048 1433.45,539.294 2037.1,499.555 2640.76,489.594 "/>
<polyline clip-path="url(#clip542)" style="stroke:#608cf6; stroke-linecap:round; stroke-linejoin:round; stroke-width:2; stroke-opacity:1; fill:none" points="346.871,1105.23 467.602,969.004 588.333,821.091 709.064,756.312 829.794,684.51 950.525,646.098 1071.26,604.921 1433.45,542.897 2037.1,500.614 2640.76,489.594 "/>
<polyline clip-path="url(#clip542)" style="stroke:#f05f73; stroke-linecap:round; stroke-linejoin:round; stroke-width:2; stroke-opacity:1; fill:none" points="346.871,1108.88 467.602,971.562 588.333,826.144 709.064,760.813 829.794,688.998 950.525,650.099 1071.26,608.514 1433.45,545.149 2037.1,501.297 2640.76,489.594 "/>
<polyline clip-path="url(#clip542)" style="stroke:#dd64b5; stroke-linecap:round; stroke-linejoin:round; stroke-width:2; stroke-opacity:1; fill:none" points="346.871,1111.26 467.602,973.153 588.333,829.484 709.064,763.79 829.794,692.014 950.525,652.796 1071.26,610.96 1433.45,546.705 2037.1,501.78 2640.76,489.594 "/>
</svg>
