<?xml version="1.0" encoding="utf-8"?>
<svg xmlns="http://www.w3.org/2000/svg" xmlns:xlink="http://www.w3.org/1999/xlink" width="672" height="480" viewBox="0 0 2688 1920">
<defs>
  <clipPath id="clip240">
    <rect x="0" y="0" width="2688" height="1920"/>
  </clipPath>
</defs>
<path clip-path="url(#clip240)" d="M0 1920 L2688 1920 L2688 0 L0 0  Z" fill="#ffffff" fill-rule="evenodd" fill-opacity="1"/>
<defs>
  <clipPath id="clip241">
    <rect x="537" y="0" width="1883" height="1883"/>
  </clipPath>
</defs>
<path clip-path="url(#clip240)" d="M189.154 1800.78 L2640.76 1800.78 L2640.76 47.2441 L189.154 47.2441  Z" fill="#ffffff" fill-rule="evenodd" fill-opacity="1"/>
<defs>
  <clipPath id="clip242">
    <rect x="189" y="47" width="2453" height="1755"/>
  </clipPath>
</defs>
<polyline clip-path="url(#clip242)" style="stroke:#000000; stroke-linecap:round; stroke-linejoin:round; stroke-width:2; stroke-opacity:0.1; fill:none" points="635.699,1800.78 635.699,47.2441 "/>
<polyline clip-path="url(#clip242)" style="stroke:#000000; stroke-linecap:round; stroke-linejoin:round; stroke-width:2; stroke-opacity:0.1; fill:none" points="1414.95,1800.78 1414.95,47.2441 "/>
<polyline clip-path="url(#clip242)" style="stroke:#000000; stroke-linecap:round; stroke-linejoin:round; stroke-width:2; stroke-opacity:0.1; fill:none" points="2194.21,1800.78 2194.21,47.2441 "/>
<polyline clip-path="url(#clip240)" style="stroke:#000000; stroke-linecap:round; stroke-linejoin:round; stroke-width:4; stroke-opacity:1; fill:none" points="189.154,1800.78 2640.76,1800.78 "/>
<polyline clip-path="url(#clip240)" style="stroke:#000000; stroke-linecap:round; stroke-linejoin:round; stroke-width:4; stroke-opacity:1; fill:none" points="635.699,1800.78 635.699,1781.88 "/>
<polyline clip-path="url(#clip240)" style="stroke:#000000; stroke-linecap:round; stroke-linejoin:round; stroke-width:4; stroke-opacity:1; fill:none" points="1414.95,1800.78 1414.95,1781.88 "/>
<polyline clip-path="url(#clip240)" style="stroke:#000000; stroke-linecap:round; stroke-linejoin:round; stroke-width:4; stroke-opacity:1; fill:none" points="2194.21,1800.78 2194.21,1781.88 "/>
<path clip-path="url(#clip240)" d="M492.332 1830.92 L514.183 1830.92 L514.183 1834.86 L497.008 1834.86 L497.008 1845.09 L513.466 1845.09 L513.466 1849.03 L497.008 1849.03 L497.008 1861.55 L514.6 1861.55 L514.6 1865.48 L492.332 1865.48 L492.332 1830.92 Z" fill="#000000" fill-rule="evenodd" fill-opacity="1" /><path clip-path="url(#clip240)" d="M543.651 1849.84 L543.651 1865.48 L539.392 1865.48 L539.392 1849.97 Q539.392 1846.29 537.956 1844.46 Q536.521 1842.64 533.651 1842.64 Q530.202 1842.64 528.211 1844.84 Q526.22 1847.03 526.22 1850.83 L526.22 1865.48 L521.938 1865.48 L521.938 1839.56 L526.22 1839.56 L526.22 1843.59 Q527.748 1841.25 529.808 1840.09 Q531.892 1838.93 534.6 1838.93 Q539.067 1838.93 541.359 1841.71 Q543.651 1844.46 543.651 1849.84 Z" fill="#000000" fill-rule="evenodd" fill-opacity="1" /><path clip-path="url(#clip240)" d="M574.322 1851.46 L574.322 1853.54 L554.739 1853.54 Q555.016 1857.94 557.378 1860.25 Q559.762 1862.54 563.998 1862.54 Q566.452 1862.54 568.743 1861.94 Q571.058 1861.34 573.327 1860.14 L573.327 1864.16 Q571.035 1865.14 568.627 1865.65 Q566.22 1866.15 563.743 1866.15 Q557.54 1866.15 553.905 1862.54 Q550.294 1858.93 550.294 1852.78 Q550.294 1846.41 553.72 1842.68 Q557.169 1838.93 563.003 1838.93 Q568.234 1838.93 571.266 1842.31 Q574.322 1845.67 574.322 1851.46 M570.063 1850.21 Q570.016 1846.71 568.095 1844.63 Q566.197 1842.54 563.049 1842.54 Q559.484 1842.54 557.331 1844.56 Q555.202 1846.57 554.878 1850.23 L570.063 1850.21 Z" fill="#000000" fill-rule="evenodd" fill-opacity="1" /><path clip-path="url(#clip240)" d="M596.336 1843.54 Q595.618 1843.12 594.762 1842.94 Q593.928 1842.73 592.91 1842.73 Q589.299 1842.73 587.354 1845.09 Q585.433 1847.43 585.433 1851.83 L585.433 1865.48 L581.151 1865.48 L581.151 1839.56 L585.433 1839.56 L585.433 1843.59 Q586.776 1841.22 588.928 1840.09 Q591.081 1838.93 594.16 1838.93 Q594.6 1838.93 595.132 1839 Q595.664 1839.05 596.313 1839.16 L596.336 1843.54 Z" fill="#000000" fill-rule="evenodd" fill-opacity="1" /><path clip-path="url(#clip240)" d="M617.03 1852.22 Q617.03 1847.59 615.109 1845.04 Q613.211 1842.5 609.762 1842.5 Q606.336 1842.5 604.414 1845.04 Q602.516 1847.59 602.516 1852.22 Q602.516 1856.83 604.414 1859.37 Q606.336 1861.92 609.762 1861.92 Q613.211 1861.92 615.109 1859.37 Q617.03 1856.83 617.03 1852.22 M621.289 1862.27 Q621.289 1868.89 618.349 1872.1 Q615.41 1875.34 609.345 1875.34 Q607.1 1875.34 605.109 1875 Q603.118 1874.67 601.243 1873.98 L601.243 1869.84 Q603.118 1870.85 604.947 1871.34 Q606.775 1871.83 608.674 1871.83 Q612.863 1871.83 614.947 1869.63 Q617.03 1867.45 617.03 1863.03 L617.03 1860.92 Q615.711 1863.21 613.65 1864.35 Q611.59 1865.48 608.72 1865.48 Q603.951 1865.48 601.035 1861.85 Q598.118 1858.21 598.118 1852.22 Q598.118 1846.2 601.035 1842.57 Q603.951 1838.93 608.72 1838.93 Q611.59 1838.93 613.65 1840.07 Q615.711 1841.2 617.03 1843.49 L617.03 1839.56 L621.289 1839.56 L621.289 1862.27 Z" fill="#000000" fill-rule="evenodd" fill-opacity="1" /><path clip-path="url(#clip240)" d="M640.849 1867.89 Q639.044 1872.52 637.331 1873.93 Q635.618 1875.34 632.748 1875.34 L629.345 1875.34 L629.345 1871.78 L631.845 1871.78 Q633.604 1871.78 634.576 1870.95 Q635.548 1870.11 636.729 1867.01 L637.493 1865.07 L627.007 1839.56 L631.521 1839.56 L639.622 1859.84 L647.724 1839.56 L652.238 1839.56 L640.849 1867.89 Z" fill="#000000" fill-rule="evenodd" fill-opacity="1" /><path clip-path="url(#clip240)" d="M655.132 1850.6 L667.608 1850.6 L667.608 1854.4 L655.132 1854.4 L655.132 1850.6 Z" fill="#000000" fill-rule="evenodd" fill-opacity="1" /><path clip-path="url(#clip240)" d="M665.433 1830.92 L694.668 1830.92 L694.668 1834.86 L682.4 1834.86 L682.4 1865.48 L677.701 1865.48 L677.701 1834.86 L665.433 1834.86 L665.433 1830.92 Z" fill="#000000" fill-rule="evenodd" fill-opacity="1" /><path clip-path="url(#clip240)" d="M697.539 1839.56 L701.798 1839.56 L701.798 1865.48 L697.539 1865.48 L697.539 1839.56 M697.539 1829.46 L701.798 1829.46 L701.798 1834.86 L697.539 1834.86 L697.539 1829.46 Z" fill="#000000" fill-rule="evenodd" fill-opacity="1" /><path clip-path="url(#clip240)" d="M730.895 1844.53 Q732.492 1841.66 734.715 1840.3 Q736.937 1838.93 739.946 1838.93 Q743.997 1838.93 746.196 1841.78 Q748.395 1844.6 748.395 1849.84 L748.395 1865.48 L744.113 1865.48 L744.113 1849.97 Q744.113 1846.25 742.793 1844.44 Q741.474 1842.64 738.765 1842.64 Q735.455 1842.64 733.534 1844.84 Q731.613 1847.03 731.613 1850.83 L731.613 1865.48 L727.33 1865.48 L727.33 1849.97 Q727.33 1846.22 726.011 1844.44 Q724.691 1842.64 721.937 1842.64 Q718.673 1842.64 716.752 1844.86 Q714.83 1847.06 714.83 1850.83 L714.83 1865.48 L710.548 1865.48 L710.548 1839.56 L714.83 1839.56 L714.83 1843.59 Q716.289 1841.2 718.326 1840.07 Q720.363 1838.93 723.164 1838.93 Q725.988 1838.93 727.955 1840.37 Q729.946 1841.8 730.895 1844.53 Z" fill="#000000" fill-rule="evenodd" fill-opacity="1" /><path clip-path="url(#clip240)" d="M779.066 1851.46 L779.066 1853.54 L759.483 1853.54 Q759.761 1857.94 762.122 1860.25 Q764.506 1862.54 768.742 1862.54 Q771.196 1862.54 773.488 1861.94 Q775.802 1861.34 778.071 1860.14 L778.071 1864.16 Q775.779 1865.14 773.372 1865.65 Q770.964 1866.15 768.488 1866.15 Q762.284 1866.15 758.65 1862.54 Q755.039 1858.93 755.039 1852.78 Q755.039 1846.41 758.464 1842.68 Q761.913 1838.93 767.747 1838.93 Q772.978 1838.93 776.011 1842.31 Q779.066 1845.67 779.066 1851.46 M774.807 1850.21 Q774.761 1846.71 772.839 1844.63 Q770.941 1842.54 767.793 1842.54 Q764.228 1842.54 762.076 1844.56 Q759.946 1846.57 759.622 1850.23 L774.807 1850.21 Z" fill="#000000" fill-rule="evenodd" fill-opacity="1" /><path clip-path="url(#clip240)" d="M1245.7 1832.06 L1245.7 1836.62 Q1243.03 1835.34 1240.67 1834.72 Q1238.31 1834.09 1236.11 1834.09 Q1232.29 1834.09 1230.21 1835.58 Q1228.15 1837.06 1228.15 1839.79 Q1228.15 1842.08 1229.52 1843.26 Q1230.91 1844.42 1234.75 1845.14 L1237.57 1845.71 Q1242.8 1846.71 1245.28 1849.23 Q1247.78 1851.73 1247.78 1855.95 Q1247.78 1860.97 1244.4 1863.56 Q1241.04 1866.15 1234.54 1866.15 Q1232.09 1866.15 1229.31 1865.6 Q1226.55 1865.04 1223.59 1863.96 L1223.59 1859.14 Q1226.44 1860.74 1229.17 1861.55 Q1231.9 1862.36 1234.54 1862.36 Q1238.54 1862.36 1240.72 1860.78 Q1242.9 1859.21 1242.9 1856.29 Q1242.9 1853.75 1241.32 1852.31 Q1239.77 1850.88 1236.21 1850.16 L1233.36 1849.6 Q1228.13 1848.56 1225.79 1846.34 Q1223.45 1844.12 1223.45 1840.16 Q1223.45 1835.58 1226.67 1832.94 Q1229.91 1830.3 1235.58 1830.3 Q1238.01 1830.3 1240.53 1830.74 Q1243.06 1831.18 1245.7 1832.06 Z" fill="#000000" fill-rule="evenodd" fill-opacity="1" /><path clip-path="url(#clip240)" d="M1259.1 1832.2 L1259.1 1839.56 L1267.87 1839.56 L1267.87 1842.87 L1259.1 1842.87 L1259.1 1856.94 Q1259.1 1860.11 1259.96 1861.02 Q1260.84 1861.92 1263.5 1861.92 L1267.87 1861.92 L1267.87 1865.48 L1263.5 1865.48 Q1258.57 1865.48 1256.69 1863.65 Q1254.82 1861.8 1254.82 1856.94 L1254.82 1842.87 L1251.69 1842.87 L1251.69 1839.56 L1254.82 1839.56 L1254.82 1832.2 L1259.1 1832.2 Z" fill="#000000" fill-rule="evenodd" fill-opacity="1" /><path clip-path="url(#clip240)" d="M1295.65 1851.46 L1295.65 1853.54 L1276.07 1853.54 Q1276.34 1857.94 1278.71 1860.25 Q1281.09 1862.54 1285.33 1862.54 Q1287.78 1862.54 1290.07 1861.94 Q1292.39 1861.34 1294.65 1860.14 L1294.65 1864.16 Q1292.36 1865.14 1289.96 1865.65 Q1287.55 1866.15 1285.07 1866.15 Q1278.87 1866.15 1275.23 1862.54 Q1271.62 1858.93 1271.62 1852.78 Q1271.62 1846.41 1275.05 1842.68 Q1278.5 1838.93 1284.33 1838.93 Q1289.56 1838.93 1292.59 1842.31 Q1295.65 1845.67 1295.65 1851.46 M1291.39 1850.21 Q1291.34 1846.71 1289.42 1844.63 Q1287.53 1842.54 1284.38 1842.54 Q1280.81 1842.54 1278.66 1844.56 Q1276.53 1846.57 1276.21 1850.23 L1291.39 1850.21 Z" fill="#000000" fill-rule="evenodd" fill-opacity="1" /><path clip-path="url(#clip240)" d="M1314.42 1852.45 Q1309.26 1852.45 1307.27 1853.63 Q1305.28 1854.81 1305.28 1857.66 Q1305.28 1859.93 1306.76 1861.27 Q1308.27 1862.59 1310.84 1862.59 Q1314.38 1862.59 1316.51 1860.09 Q1318.66 1857.57 1318.66 1853.4 L1318.66 1852.45 L1314.42 1852.45 M1322.92 1850.69 L1322.92 1865.48 L1318.66 1865.48 L1318.66 1861.55 Q1317.2 1863.91 1315.02 1865.04 Q1312.85 1866.15 1309.7 1866.15 Q1305.72 1866.15 1303.36 1863.93 Q1301.02 1861.69 1301.02 1857.94 Q1301.02 1853.56 1303.94 1851.34 Q1306.88 1849.12 1312.69 1849.12 L1318.66 1849.12 L1318.66 1848.7 Q1318.66 1845.76 1316.71 1844.16 Q1314.79 1842.54 1311.3 1842.54 Q1309.08 1842.54 1306.97 1843.08 Q1304.86 1843.61 1302.92 1844.67 L1302.92 1840.74 Q1305.26 1839.84 1307.46 1839.4 Q1309.65 1838.93 1311.74 1838.93 Q1317.36 1838.93 1320.14 1841.85 Q1322.92 1844.77 1322.92 1850.69 Z" fill="#000000" fill-rule="evenodd" fill-opacity="1" /><path clip-path="url(#clip240)" d="M1348.75 1843.49 L1348.75 1829.46 L1353.01 1829.46 L1353.01 1865.48 L1348.75 1865.48 L1348.75 1861.59 Q1347.41 1863.91 1345.35 1865.04 Q1343.31 1866.15 1340.44 1866.15 Q1335.74 1866.15 1332.78 1862.4 Q1329.84 1858.65 1329.84 1852.54 Q1329.84 1846.43 1332.78 1842.68 Q1335.74 1838.93 1340.44 1838.93 Q1343.31 1838.93 1345.35 1840.07 Q1347.41 1841.18 1348.75 1843.49 M1334.24 1852.54 Q1334.24 1857.24 1336.16 1859.93 Q1338.1 1862.59 1341.48 1862.59 Q1344.86 1862.59 1346.81 1859.93 Q1348.75 1857.24 1348.75 1852.54 Q1348.75 1847.84 1346.81 1845.18 Q1344.86 1842.5 1341.48 1842.5 Q1338.1 1842.5 1336.16 1845.18 Q1334.24 1847.84 1334.24 1852.54 Z" fill="#000000" fill-rule="evenodd" fill-opacity="1" /><path clip-path="url(#clip240)" d="M1372.57 1867.89 Q1370.77 1872.52 1369.05 1873.93 Q1367.34 1875.34 1364.47 1875.34 L1361.07 1875.34 L1361.07 1871.78 L1363.57 1871.78 Q1365.33 1871.78 1366.3 1870.95 Q1367.27 1870.11 1368.45 1867.01 L1369.21 1865.07 L1358.73 1839.56 L1363.24 1839.56 L1371.34 1859.84 L1379.45 1839.56 L1383.96 1839.56 L1372.57 1867.89 Z" fill="#000000" fill-rule="evenodd" fill-opacity="1" /><path clip-path="url(#clip240)" d="M1425.09 1844.53 Q1426.69 1841.66 1428.91 1840.3 Q1431.14 1838.93 1434.14 1838.93 Q1438.2 1838.93 1440.39 1841.78 Q1442.59 1844.6 1442.59 1849.84 L1442.59 1865.48 L1438.31 1865.48 L1438.31 1849.97 Q1438.31 1846.25 1436.99 1844.44 Q1435.67 1842.64 1432.96 1842.64 Q1429.65 1842.64 1427.73 1844.84 Q1425.81 1847.03 1425.81 1850.83 L1425.81 1865.48 L1421.53 1865.48 L1421.53 1849.97 Q1421.53 1846.22 1420.21 1844.44 Q1418.89 1842.64 1416.14 1842.64 Q1412.87 1842.64 1410.95 1844.86 Q1409.03 1847.06 1409.03 1850.83 L1409.03 1865.48 L1404.75 1865.48 L1404.75 1839.56 L1409.03 1839.56 L1409.03 1843.59 Q1410.49 1841.2 1412.52 1840.07 Q1414.56 1838.93 1417.36 1838.93 Q1420.19 1838.93 1422.15 1840.37 Q1424.14 1841.8 1425.09 1844.53 Z" fill="#000000" fill-rule="evenodd" fill-opacity="1" /><path clip-path="url(#clip240)" d="M1451.09 1839.56 L1455.35 1839.56 L1455.35 1865.48 L1451.09 1865.48 L1451.09 1839.56 M1451.09 1829.46 L1455.35 1829.46 L1455.35 1834.86 L1451.09 1834.86 L1451.09 1829.46 Z" fill="#000000" fill-rule="evenodd" fill-opacity="1" /><path clip-path="url(#clip240)" d="M1485.81 1849.84 L1485.81 1865.48 L1481.55 1865.48 L1481.55 1849.97 Q1481.55 1846.29 1480.12 1844.46 Q1478.68 1842.64 1475.81 1842.64 Q1472.36 1842.64 1470.37 1844.84 Q1468.38 1847.03 1468.38 1850.83 L1468.38 1865.48 L1464.1 1865.48 L1464.1 1839.56 L1468.38 1839.56 L1468.38 1843.59 Q1469.91 1841.25 1471.97 1840.09 Q1474.05 1838.93 1476.76 1838.93 Q1481.23 1838.93 1483.52 1841.71 Q1485.81 1844.46 1485.81 1849.84 Z" fill="#000000" fill-rule="evenodd" fill-opacity="1" /><path clip-path="url(#clip240)" d="M1492.15 1850.6 L1504.63 1850.6 L1504.63 1854.4 L1492.15 1854.4 L1492.15 1850.6 Z" fill="#000000" fill-rule="evenodd" fill-opacity="1" /><path clip-path="url(#clip240)" d="M1537.48 1833.59 L1537.48 1838.52 Q1535.12 1836.32 1532.43 1835.23 Q1529.77 1834.14 1526.76 1834.14 Q1520.83 1834.14 1517.69 1837.78 Q1514.54 1841.39 1514.54 1848.24 Q1514.54 1855.07 1517.69 1858.7 Q1520.83 1862.31 1526.76 1862.31 Q1529.77 1862.31 1532.43 1861.22 Q1535.12 1860.14 1537.48 1857.94 L1537.48 1862.82 Q1535.02 1864.49 1532.27 1865.32 Q1529.54 1866.15 1526.48 1866.15 Q1518.63 1866.15 1514.12 1861.36 Q1509.61 1856.55 1509.61 1848.24 Q1509.61 1839.9 1514.12 1835.11 Q1518.63 1830.3 1526.48 1830.3 Q1529.58 1830.3 1532.32 1831.13 Q1535.07 1831.94 1537.48 1833.59 Z" fill="#000000" fill-rule="evenodd" fill-opacity="1" /><path clip-path="url(#clip240)" d="M1558.73 1834.09 Q1553.63 1834.09 1550.63 1837.89 Q1547.64 1841.69 1547.64 1848.24 Q1547.64 1854.77 1550.63 1858.56 Q1553.63 1862.36 1558.73 1862.36 Q1563.82 1862.36 1566.78 1858.56 Q1569.77 1854.77 1569.77 1848.24 Q1569.77 1841.69 1566.78 1837.89 Q1563.82 1834.09 1558.73 1834.09 M1558.73 1830.3 Q1566 1830.3 1570.35 1835.18 Q1574.7 1840.04 1574.7 1848.24 Q1574.7 1856.41 1570.35 1861.29 Q1566 1866.15 1558.73 1866.15 Q1551.44 1866.15 1547.06 1861.29 Q1542.71 1856.43 1542.71 1848.24 Q1542.71 1840.04 1547.06 1835.18 Q1551.44 1830.3 1558.73 1830.3 Z" fill="#000000" fill-rule="evenodd" fill-opacity="1" /><path clip-path="url(#clip240)" d="M1577.22 1830.92 L1606.46 1830.92 L1606.46 1834.86 L1594.19 1834.86 L1594.19 1865.48 L1589.49 1865.48 L1589.49 1834.86 L1577.22 1834.86 L1577.22 1830.92 Z" fill="#000000" fill-rule="evenodd" fill-opacity="1" /><path clip-path="url(#clip240)" d="M2068.42 1832.06 L2068.42 1836.62 Q2065.76 1835.34 2063.4 1834.72 Q2061.04 1834.09 2058.84 1834.09 Q2055.02 1834.09 2052.94 1835.58 Q2050.88 1837.06 2050.88 1839.79 Q2050.88 1842.08 2052.24 1843.26 Q2053.63 1844.42 2057.48 1845.14 L2060.3 1845.71 Q2065.53 1846.71 2068.01 1849.23 Q2070.51 1851.73 2070.51 1855.95 Q2070.51 1860.97 2067.13 1863.56 Q2063.77 1866.15 2057.27 1866.15 Q2054.81 1866.15 2052.04 1865.6 Q2049.28 1865.04 2046.32 1863.96 L2046.32 1859.14 Q2049.17 1860.74 2051.9 1861.55 Q2054.63 1862.36 2057.27 1862.36 Q2061.27 1862.36 2063.45 1860.78 Q2065.62 1859.21 2065.62 1856.29 Q2065.62 1853.75 2064.05 1852.31 Q2062.5 1850.88 2058.93 1850.16 L2056.09 1849.6 Q2050.86 1848.56 2048.52 1846.34 Q2046.18 1844.12 2046.18 1840.16 Q2046.18 1835.58 2049.4 1832.94 Q2052.64 1830.3 2058.31 1830.3 Q2060.74 1830.3 2063.26 1830.74 Q2065.79 1831.18 2068.42 1832.06 Z" fill="#000000" fill-rule="evenodd" fill-opacity="1" /><path clip-path="url(#clip240)" d="M2081.83 1832.2 L2081.83 1839.56 L2090.6 1839.56 L2090.6 1842.87 L2081.83 1842.87 L2081.83 1856.94 Q2081.83 1860.11 2082.68 1861.02 Q2083.56 1861.92 2086.23 1861.92 L2090.6 1861.92 L2090.6 1865.48 L2086.23 1865.48 Q2081.29 1865.48 2079.42 1863.65 Q2077.54 1861.8 2077.54 1856.94 L2077.54 1842.87 L2074.42 1842.87 L2074.42 1839.56 L2077.54 1839.56 L2077.54 1832.2 L2081.83 1832.2 Z" fill="#000000" fill-rule="evenodd" fill-opacity="1" /><path clip-path="url(#clip240)" d="M2118.38 1851.46 L2118.38 1853.54 L2098.79 1853.54 Q2099.07 1857.94 2101.43 1860.25 Q2103.82 1862.54 2108.05 1862.54 Q2110.51 1862.54 2112.8 1861.94 Q2115.11 1861.34 2117.38 1860.14 L2117.38 1864.16 Q2115.09 1865.14 2112.68 1865.65 Q2110.28 1866.15 2107.8 1866.15 Q2101.6 1866.15 2097.96 1862.54 Q2094.35 1858.93 2094.35 1852.78 Q2094.35 1846.41 2097.78 1842.68 Q2101.23 1838.93 2107.06 1838.93 Q2112.29 1838.93 2115.32 1842.31 Q2118.38 1845.67 2118.38 1851.46 M2114.12 1850.21 Q2114.07 1846.71 2112.15 1844.63 Q2110.25 1842.54 2107.1 1842.54 Q2103.54 1842.54 2101.39 1844.56 Q2099.26 1846.57 2098.93 1850.23 L2114.12 1850.21 Z" fill="#000000" fill-rule="evenodd" fill-opacity="1" /><path clip-path="url(#clip240)" d="M2137.15 1852.45 Q2131.99 1852.45 2130 1853.63 Q2128.01 1854.81 2128.01 1857.66 Q2128.01 1859.93 2129.49 1861.27 Q2130.99 1862.59 2133.56 1862.59 Q2137.1 1862.59 2139.23 1860.09 Q2141.39 1857.57 2141.39 1853.4 L2141.39 1852.45 L2137.15 1852.45 M2145.65 1850.69 L2145.65 1865.48 L2141.39 1865.48 L2141.39 1861.55 Q2139.93 1863.91 2137.75 1865.04 Q2135.58 1866.15 2132.43 1866.15 Q2128.45 1866.15 2126.09 1863.93 Q2123.75 1861.69 2123.75 1857.94 Q2123.75 1853.56 2126.67 1851.34 Q2129.6 1849.12 2135.42 1849.12 L2141.39 1849.12 L2141.39 1848.7 Q2141.39 1845.76 2139.44 1844.16 Q2137.52 1842.54 2134.03 1842.54 Q2131.8 1842.54 2129.7 1843.08 Q2127.59 1843.61 2125.65 1844.67 L2125.65 1840.74 Q2127.98 1839.84 2130.18 1839.4 Q2132.38 1838.93 2134.47 1838.93 Q2140.09 1838.93 2142.87 1841.85 Q2145.65 1844.77 2145.65 1850.69 Z" fill="#000000" fill-rule="evenodd" fill-opacity="1" /><path clip-path="url(#clip240)" d="M2171.48 1843.49 L2171.48 1829.46 L2175.74 1829.46 L2175.74 1865.48 L2171.48 1865.48 L2171.48 1861.59 Q2170.14 1863.91 2168.08 1865.04 Q2166.04 1866.15 2163.17 1866.15 Q2158.47 1866.15 2155.51 1862.4 Q2152.57 1858.65 2152.57 1852.54 Q2152.57 1846.43 2155.51 1842.68 Q2158.47 1838.93 2163.17 1838.93 Q2166.04 1838.93 2168.08 1840.07 Q2170.14 1841.18 2171.48 1843.49 M2156.97 1852.54 Q2156.97 1857.24 2158.89 1859.93 Q2160.83 1862.59 2164.21 1862.59 Q2167.59 1862.59 2169.54 1859.93 Q2171.48 1857.24 2171.48 1852.54 Q2171.48 1847.84 2169.54 1845.18 Q2167.59 1842.5 2164.21 1842.5 Q2160.83 1842.5 2158.89 1845.18 Q2156.97 1847.84 2156.97 1852.54 Z" fill="#000000" fill-rule="evenodd" fill-opacity="1" /><path clip-path="url(#clip240)" d="M2195.3 1867.89 Q2193.49 1872.52 2191.78 1873.93 Q2190.07 1875.34 2187.2 1875.34 L2183.79 1875.34 L2183.79 1871.78 L2186.29 1871.78 Q2188.05 1871.78 2189.03 1870.95 Q2190 1870.11 2191.18 1867.01 L2191.94 1865.07 L2181.46 1839.56 L2185.97 1839.56 L2194.07 1859.84 L2202.17 1839.56 L2206.69 1839.56 L2195.3 1867.89 Z" fill="#000000" fill-rule="evenodd" fill-opacity="1" /><path clip-path="url(#clip240)" d="M2239.42 1852.45 Q2234.26 1852.45 2232.27 1853.63 Q2230.28 1854.81 2230.28 1857.66 Q2230.28 1859.93 2231.76 1861.27 Q2233.26 1862.59 2235.83 1862.59 Q2239.37 1862.59 2241.5 1860.09 Q2243.66 1857.57 2243.66 1853.4 L2243.66 1852.45 L2239.42 1852.45 M2247.91 1850.69 L2247.91 1865.48 L2243.66 1865.48 L2243.66 1861.55 Q2242.2 1863.91 2240.02 1865.04 Q2237.85 1866.15 2234.7 1866.15 Q2230.72 1866.15 2228.35 1863.93 Q2226.02 1861.69 2226.02 1857.94 Q2226.02 1853.56 2228.93 1851.34 Q2231.87 1849.12 2237.68 1849.12 L2243.66 1849.12 L2243.66 1848.7 Q2243.66 1845.76 2241.71 1844.16 Q2239.79 1842.54 2236.29 1842.54 Q2234.07 1842.54 2231.97 1843.08 Q2229.86 1843.61 2227.91 1844.67 L2227.91 1840.74 Q2230.25 1839.84 2232.45 1839.4 Q2234.65 1838.93 2236.73 1838.93 Q2242.36 1838.93 2245.14 1841.85 Q2247.91 1844.77 2247.91 1850.69 Z" fill="#000000" fill-rule="evenodd" fill-opacity="1" /><path clip-path="url(#clip240)" d="M2275.34 1840.55 L2275.34 1844.53 Q2273.54 1843.54 2271.71 1843.05 Q2269.91 1842.54 2268.05 1842.54 Q2263.91 1842.54 2261.62 1845.18 Q2259.33 1847.8 2259.33 1852.54 Q2259.33 1857.29 2261.62 1859.93 Q2263.91 1862.54 2268.05 1862.54 Q2269.91 1862.54 2271.71 1862.06 Q2273.54 1861.55 2275.34 1860.55 L2275.34 1864.49 Q2273.56 1865.32 2271.64 1865.74 Q2269.74 1866.15 2267.59 1866.15 Q2261.73 1866.15 2258.28 1862.47 Q2254.84 1858.79 2254.84 1852.54 Q2254.84 1846.2 2258.31 1842.57 Q2261.8 1838.93 2267.87 1838.93 Q2269.84 1838.93 2271.71 1839.35 Q2273.59 1839.74 2275.34 1840.55 Z" fill="#000000" fill-rule="evenodd" fill-opacity="1" /><path clip-path="url(#clip240)" d="M2301.41 1840.55 L2301.41 1844.53 Q2299.6 1843.54 2297.78 1843.05 Q2295.97 1842.54 2294.12 1842.54 Q2289.97 1842.54 2287.68 1845.18 Q2285.39 1847.8 2285.39 1852.54 Q2285.39 1857.29 2287.68 1859.93 Q2289.97 1862.54 2294.12 1862.54 Q2295.97 1862.54 2297.78 1862.06 Q2299.6 1861.55 2301.41 1860.55 L2301.41 1864.49 Q2299.63 1865.32 2297.71 1865.74 Q2295.81 1866.15 2293.65 1866.15 Q2287.8 1866.15 2284.35 1862.47 Q2280.9 1858.79 2280.9 1852.54 Q2280.9 1846.2 2284.37 1842.57 Q2287.87 1838.93 2293.93 1838.93 Q2295.9 1838.93 2297.78 1839.35 Q2299.65 1839.74 2301.41 1840.55 Z" fill="#000000" fill-rule="evenodd" fill-opacity="1" /><path clip-path="url(#clip240)" d="M2330.99 1851.46 L2330.99 1853.54 L2311.41 1853.54 Q2311.69 1857.94 2314.05 1860.25 Q2316.43 1862.54 2320.67 1862.54 Q2323.12 1862.54 2325.41 1861.94 Q2327.73 1861.34 2330 1860.14 L2330 1864.16 Q2327.71 1865.14 2325.3 1865.65 Q2322.89 1866.15 2320.41 1866.15 Q2314.21 1866.15 2310.58 1862.54 Q2306.97 1858.93 2306.97 1852.78 Q2306.97 1846.41 2310.39 1842.68 Q2313.84 1838.93 2319.67 1838.93 Q2324.9 1838.93 2327.94 1842.31 Q2330.99 1845.67 2330.99 1851.46 M2326.73 1850.21 Q2326.69 1846.71 2324.77 1844.63 Q2322.87 1842.54 2319.72 1842.54 Q2316.15 1842.54 2314 1844.56 Q2311.87 1846.57 2311.55 1850.23 L2326.73 1850.21 Z" fill="#000000" fill-rule="evenodd" fill-opacity="1" /><path clip-path="url(#clip240)" d="M2337.98 1829.46 L2342.24 1829.46 L2342.24 1865.48 L2337.98 1865.48 L2337.98 1829.46 Z" fill="#000000" fill-rule="evenodd" fill-opacity="1" /><polyline clip-path="url(#clip242)" style="stroke:#000000; stroke-linecap:round; stroke-linejoin:round; stroke-width:2; stroke-opacity:0.1; fill:none" points="189.154,1751.15 2640.76,1751.15 "/>
<polyline clip-path="url(#clip242)" style="stroke:#000000; stroke-linecap:round; stroke-linejoin:round; stroke-width:2; stroke-opacity:0.1; fill:none" points="189.154,1450.72 2640.76,1450.72 "/>
<polyline clip-path="url(#clip242)" style="stroke:#000000; stroke-linecap:round; stroke-linejoin:round; stroke-width:2; stroke-opacity:0.1; fill:none" points="189.154,1150.28 2640.76,1150.28 "/>
<polyline clip-path="url(#clip242)" style="stroke:#000000; stroke-linecap:round; stroke-linejoin:round; stroke-width:2; stroke-opacity:0.1; fill:none" points="189.154,849.847 2640.76,849.847 "/>
<polyline clip-path="url(#clip242)" style="stroke:#000000; stroke-linecap:round; stroke-linejoin:round; stroke-width:2; stroke-opacity:0.1; fill:none" points="189.154,549.413 2640.76,549.413 "/>
<polyline clip-path="url(#clip242)" style="stroke:#000000; stroke-linecap:round; stroke-linejoin:round; stroke-width:2; stroke-opacity:0.1; fill:none" points="189.154,248.978 2640.76,248.978 "/>
<polyline clip-path="url(#clip240)" style="stroke:#000000; stroke-linecap:round; stroke-linejoin:round; stroke-width:4; stroke-opacity:1; fill:none" points="189.154,1800.78 189.154,47.2441 "/>
<polyline clip-path="url(#clip240)" style="stroke:#000000; stroke-linecap:round; stroke-linejoin:round; stroke-width:4; stroke-opacity:1; fill:none" points="189.154,1751.15 208.052,1751.15 "/>
<polyline clip-path="url(#clip240)" style="stroke:#000000; stroke-linecap:round; stroke-linejoin:round; stroke-width:4; stroke-opacity:1; fill:none" points="189.154,1450.72 208.052,1450.72 "/>
<polyline clip-path="url(#clip240)" style="stroke:#000000; stroke-linecap:round; stroke-linejoin:round; stroke-width:4; stroke-opacity:1; fill:none" points="189.154,1150.28 208.052,1150.28 "/>
<polyline clip-path="url(#clip240)" style="stroke:#000000; stroke-linecap:round; stroke-linejoin:round; stroke-width:4; stroke-opacity:1; fill:none" points="189.154,849.847 208.052,849.847 "/>
<polyline clip-path="url(#clip240)" style="stroke:#000000; stroke-linecap:round; stroke-linejoin:round; stroke-width:4; stroke-opacity:1; fill:none" points="189.154,549.413 208.052,549.413 "/>
<polyline clip-path="url(#clip240)" style="stroke:#000000; stroke-linecap:round; stroke-linejoin:round; stroke-width:4; stroke-opacity:1; fill:none" points="189.154,248.978 208.052,248.978 "/>
<path clip-path="url(#clip240)" d="M61.4965 1736.95 Q57.8854 1736.95 56.0567 1740.51 Q54.2512 1744.06 54.2512 1751.19 Q54.2512 1758.29 56.0567 1761.86 Q57.8854 1765.4 61.4965 1765.4 Q65.1307 1765.4 66.9363 1761.86 Q68.765 1758.29 68.765 1751.19 Q68.765 1744.06 66.9363 1740.51 Q65.1307 1736.95 61.4965 1736.95 M61.4965 1733.25 Q67.3067 1733.25 70.3622 1737.85 Q73.4409 1742.44 73.4409 1751.19 Q73.4409 1759.91 70.3622 1764.52 Q67.3067 1769.1 61.4965 1769.1 Q55.6864 1769.1 52.6077 1764.52 Q49.5521 1759.91 49.5521 1751.19 Q49.5521 1742.44 52.6077 1737.85 Q55.6864 1733.25 61.4965 1733.25 Z" fill="#000000" fill-rule="evenodd" fill-opacity="1" /><path clip-path="url(#clip240)" d="M81.6584 1762.55 L86.5427 1762.55 L86.5427 1768.43 L81.6584 1768.43 L81.6584 1762.55 Z" fill="#000000" fill-rule="evenodd" fill-opacity="1" /><path clip-path="url(#clip240)" d="M106.728 1736.95 Q103.117 1736.95 101.288 1740.51 Q99.4824 1744.06 99.4824 1751.19 Q99.4824 1758.29 101.288 1761.86 Q103.117 1765.4 106.728 1765.4 Q110.362 1765.4 112.168 1761.86 Q113.996 1758.29 113.996 1751.19 Q113.996 1744.06 112.168 1740.51 Q110.362 1736.95 106.728 1736.95 M106.728 1733.25 Q112.538 1733.25 115.593 1737.85 Q118.672 1742.44 118.672 1751.19 Q118.672 1759.91 115.593 1764.52 Q112.538 1769.1 106.728 1769.1 Q100.918 1769.1 97.8389 1764.52 Q94.7834 1759.91 94.7834 1751.19 Q94.7834 1742.44 97.8389 1737.85 Q100.918 1733.25 106.728 1733.25 Z" fill="#000000" fill-rule="evenodd" fill-opacity="1" /><path clip-path="url(#clip240)" d="M136.89 1736.95 Q133.279 1736.95 131.45 1740.51 Q129.644 1744.06 129.644 1751.19 Q129.644 1758.29 131.45 1761.86 Q133.279 1765.4 136.89 1765.4 Q140.524 1765.4 142.329 1761.86 Q144.158 1758.29 144.158 1751.19 Q144.158 1744.06 142.329 1740.51 Q140.524 1736.95 136.89 1736.95 M136.89 1733.25 Q142.7 1733.25 145.755 1737.85 Q148.834 1742.44 148.834 1751.19 Q148.834 1759.91 145.755 1764.52 Q142.7 1769.1 136.89 1769.1 Q131.079 1769.1 128.001 1764.52 Q124.945 1759.91 124.945 1751.19 Q124.945 1742.44 128.001 1737.85 Q131.079 1733.25 136.89 1733.25 Z" fill="#000000" fill-rule="evenodd" fill-opacity="1" /><path clip-path="url(#clip240)" d="M62.4919 1436.52 Q58.8808 1436.52 57.0521 1440.08 Q55.2465 1443.62 55.2465 1450.75 Q55.2465 1457.86 57.0521 1461.42 Q58.8808 1464.96 62.4919 1464.96 Q66.1261 1464.96 67.9317 1461.42 Q69.7604 1457.86 69.7604 1450.75 Q69.7604 1443.62 67.9317 1440.08 Q66.1261 1436.52 62.4919 1436.52 M62.4919 1432.81 Q68.302 1432.81 71.3576 1437.42 Q74.4363 1442 74.4363 1450.75 Q74.4363 1459.48 71.3576 1464.08 Q68.302 1468.67 62.4919 1468.67 Q56.6817 1468.67 53.603 1464.08 Q50.5475 1459.48 50.5475 1450.75 Q50.5475 1442 53.603 1437.42 Q56.6817 1432.81 62.4919 1432.81 Z" fill="#000000" fill-rule="evenodd" fill-opacity="1" /><path clip-path="url(#clip240)" d="M82.6538 1462.12 L87.538 1462.12 L87.538 1468 L82.6538 1468 L82.6538 1462.12 Z" fill="#000000" fill-rule="evenodd" fill-opacity="1" /><path clip-path="url(#clip240)" d="M107.723 1436.52 Q104.112 1436.52 102.283 1440.08 Q100.478 1443.62 100.478 1450.75 Q100.478 1457.86 102.283 1461.42 Q104.112 1464.96 107.723 1464.96 Q111.357 1464.96 113.163 1461.42 Q114.992 1457.86 114.992 1450.75 Q114.992 1443.62 113.163 1440.08 Q111.357 1436.52 107.723 1436.52 M107.723 1432.81 Q113.533 1432.81 116.589 1437.42 Q119.667 1442 119.667 1450.75 Q119.667 1459.48 116.589 1464.08 Q113.533 1468.67 107.723 1468.67 Q101.913 1468.67 98.8343 1464.08 Q95.7787 1459.48 95.7787 1450.75 Q95.7787 1442 98.8343 1437.42 Q101.913 1432.81 107.723 1432.81 Z" fill="#000000" fill-rule="evenodd" fill-opacity="1" /><path clip-path="url(#clip240)" d="M127.931 1433.44 L146.288 1433.44 L146.288 1437.37 L132.214 1437.37 L132.214 1445.84 Q133.232 1445.5 134.251 1445.33 Q135.269 1445.15 136.288 1445.15 Q142.075 1445.15 145.454 1448.32 Q148.834 1451.49 148.834 1456.91 Q148.834 1462.49 145.362 1465.59 Q141.89 1468.67 135.57 1468.67 Q133.394 1468.67 131.126 1468.3 Q128.88 1467.93 126.473 1467.19 L126.473 1462.49 Q128.556 1463.62 130.779 1464.18 Q133.001 1464.73 135.478 1464.73 Q139.482 1464.73 141.82 1462.63 Q144.158 1460.52 144.158 1456.91 Q144.158 1453.3 141.82 1451.19 Q139.482 1449.08 135.478 1449.08 Q133.603 1449.08 131.728 1449.5 Q129.876 1449.92 127.931 1450.8 L127.931 1433.44 Z" fill="#000000" fill-rule="evenodd" fill-opacity="1" /><path clip-path="url(#clip240)" d="M61.4965 1136.08 Q57.8854 1136.08 56.0567 1139.65 Q54.2512 1143.19 54.2512 1150.32 Q54.2512 1157.42 56.0567 1160.99 Q57.8854 1164.53 61.4965 1164.53 Q65.1307 1164.53 66.9363 1160.99 Q68.765 1157.42 68.765 1150.32 Q68.765 1143.19 66.9363 1139.65 Q65.1307 1136.08 61.4965 1136.08 M61.4965 1132.38 Q67.3067 1132.38 70.3622 1136.98 Q73.4409 1141.57 73.4409 1150.32 Q73.4409 1159.04 70.3622 1163.65 Q67.3067 1168.23 61.4965 1168.23 Q55.6864 1168.23 52.6077 1163.65 Q49.5521 1159.04 49.5521 1150.32 Q49.5521 1141.57 52.6077 1136.98 Q55.6864 1132.38 61.4965 1132.38 Z" fill="#000000" fill-rule="evenodd" fill-opacity="1" /><path clip-path="url(#clip240)" d="M81.6584 1161.68 L86.5427 1161.68 L86.5427 1167.56 L81.6584 1167.56 L81.6584 1161.68 Z" fill="#000000" fill-rule="evenodd" fill-opacity="1" /><path clip-path="url(#clip240)" d="M97.538 1163.63 L105.177 1163.63 L105.177 1137.26 L96.8667 1138.93 L96.8667 1134.67 L105.131 1133 L109.806 1133 L109.806 1163.63 L117.445 1163.63 L117.445 1167.56 L97.538 1167.56 L97.538 1163.63 Z" fill="#000000" fill-rule="evenodd" fill-opacity="1" /><path clip-path="url(#clip240)" d="M136.89 1136.08 Q133.279 1136.08 131.45 1139.65 Q129.644 1143.19 129.644 1150.32 Q129.644 1157.42 131.45 1160.99 Q133.279 1164.53 136.89 1164.53 Q140.524 1164.53 142.329 1160.99 Q144.158 1157.42 144.158 1150.32 Q144.158 1143.19 142.329 1139.65 Q140.524 1136.08 136.89 1136.08 M136.89 1132.38 Q142.7 1132.38 145.755 1136.98 Q148.834 1141.57 148.834 1150.32 Q148.834 1159.04 145.755 1163.65 Q142.7 1168.23 136.89 1168.23 Q131.079 1168.23 128.001 1163.65 Q124.945 1159.04 124.945 1150.32 Q124.945 1141.57 128.001 1136.98 Q131.079 1132.38 136.89 1132.38 Z" fill="#000000" fill-rule="evenodd" fill-opacity="1" /><path clip-path="url(#clip240)" d="M62.4919 835.646 Q58.8808 835.646 57.0521 839.211 Q55.2465 842.753 55.2465 849.882 Q55.2465 856.989 57.0521 860.553 Q58.8808 864.095 62.4919 864.095 Q66.1261 864.095 67.9317 860.553 Q69.7604 856.989 69.7604 849.882 Q69.7604 842.753 67.9317 839.211 Q66.1261 835.646 62.4919 835.646 M62.4919 831.942 Q68.302 831.942 71.3576 836.549 Q74.4363 841.132 74.4363 849.882 Q74.4363 858.609 71.3576 863.215 Q68.302 867.799 62.4919 867.799 Q56.6817 867.799 53.603 863.215 Q50.5475 858.609 50.5475 849.882 Q50.5475 841.132 53.603 836.549 Q56.6817 831.942 62.4919 831.942 Z" fill="#000000" fill-rule="evenodd" fill-opacity="1" /><path clip-path="url(#clip240)" d="M82.6538 861.248 L87.538 861.248 L87.538 867.127 L82.6538 867.127 L82.6538 861.248 Z" fill="#000000" fill-rule="evenodd" fill-opacity="1" /><path clip-path="url(#clip240)" d="M98.5333 863.192 L106.172 863.192 L106.172 836.827 L97.8621 838.493 L97.8621 834.234 L106.126 832.567 L110.802 832.567 L110.802 863.192 L118.441 863.192 L118.441 867.127 L98.5333 867.127 L98.5333 863.192 Z" fill="#000000" fill-rule="evenodd" fill-opacity="1" /><path clip-path="url(#clip240)" d="M127.931 832.567 L146.288 832.567 L146.288 836.503 L132.214 836.503 L132.214 844.975 Q133.232 844.628 134.251 844.466 Q135.269 844.28 136.288 844.28 Q142.075 844.28 145.454 847.452 Q148.834 850.623 148.834 856.04 Q148.834 861.618 145.362 864.72 Q141.89 867.799 135.57 867.799 Q133.394 867.799 131.126 867.428 Q128.88 867.058 126.473 866.317 L126.473 861.618 Q128.556 862.752 130.779 863.308 Q133.001 863.864 135.478 863.864 Q139.482 863.864 141.82 861.757 Q144.158 859.651 144.158 856.04 Q144.158 852.428 141.82 850.322 Q139.482 848.215 135.478 848.215 Q133.603 848.215 131.728 848.632 Q129.876 849.049 127.931 849.928 L127.931 832.567 Z" fill="#000000" fill-rule="evenodd" fill-opacity="1" /><path clip-path="url(#clip240)" d="M61.4965 535.212 Q57.8854 535.212 56.0567 538.776 Q54.2512 542.318 54.2512 549.448 Q54.2512 556.554 56.0567 560.119 Q57.8854 563.661 61.4965 563.661 Q65.1307 563.661 66.9363 560.119 Q68.765 556.554 68.765 549.448 Q68.765 542.318 66.9363 538.776 Q65.1307 535.212 61.4965 535.212 M61.4965 531.508 Q67.3067 531.508 70.3622 536.114 Q73.4409 540.698 73.4409 549.448 Q73.4409 558.174 70.3622 562.781 Q67.3067 567.364 61.4965 567.364 Q55.6864 567.364 52.6077 562.781 Q49.5521 558.174 49.5521 549.448 Q49.5521 540.698 52.6077 536.114 Q55.6864 531.508 61.4965 531.508 Z" fill="#000000" fill-rule="evenodd" fill-opacity="1" /><path clip-path="url(#clip240)" d="M81.6584 560.813 L86.5427 560.813 L86.5427 566.693 L81.6584 566.693 L81.6584 560.813 Z" fill="#000000" fill-rule="evenodd" fill-opacity="1" /><path clip-path="url(#clip240)" d="M100.756 562.758 L117.075 562.758 L117.075 566.693 L95.1306 566.693 L95.1306 562.758 Q97.7926 560.003 102.376 555.374 Q106.982 550.721 108.163 549.378 Q110.408 546.855 111.288 545.119 Q112.191 543.36 112.191 541.67 Q112.191 538.915 110.246 537.179 Q108.325 535.443 105.223 535.443 Q103.024 535.443 100.57 536.207 Q98.1398 536.971 95.3621 538.522 L95.3621 533.8 Q98.1861 532.665 100.64 532.087 Q103.094 531.508 105.131 531.508 Q110.501 531.508 113.695 534.193 Q116.89 536.878 116.89 541.369 Q116.89 543.499 116.08 545.42 Q115.293 547.318 113.186 549.911 Q112.607 550.582 109.506 553.799 Q106.404 556.994 100.756 562.758 Z" fill="#000000" fill-rule="evenodd" fill-opacity="1" /><path clip-path="url(#clip240)" d="M136.89 535.212 Q133.279 535.212 131.45 538.776 Q129.644 542.318 129.644 549.448 Q129.644 556.554 131.45 560.119 Q133.279 563.661 136.89 563.661 Q140.524 563.661 142.329 560.119 Q144.158 556.554 144.158 549.448 Q144.158 542.318 142.329 538.776 Q140.524 535.212 136.89 535.212 M136.89 531.508 Q142.7 531.508 145.755 536.114 Q148.834 540.698 148.834 549.448 Q148.834 558.174 145.755 562.781 Q142.7 567.364 136.89 567.364 Q131.079 567.364 128.001 562.781 Q124.945 558.174 124.945 549.448 Q124.945 540.698 128.001 536.114 Q131.079 531.508 136.89 531.508 Z" fill="#000000" fill-rule="evenodd" fill-opacity="1" /><path clip-path="url(#clip240)" d="M62.4919 234.777 Q58.8808 234.777 57.0521 238.342 Q55.2465 241.884 55.2465 249.013 Q55.2465 256.12 57.0521 259.684 Q58.8808 263.226 62.4919 263.226 Q66.1261 263.226 67.9317 259.684 Q69.7604 256.12 69.7604 249.013 Q69.7604 241.884 67.9317 238.342 Q66.1261 234.777 62.4919 234.777 M62.4919 231.073 Q68.302 231.073 71.3576 235.68 Q74.4363 240.263 74.4363 249.013 Q74.4363 257.74 71.3576 262.346 Q68.302 266.93 62.4919 266.93 Q56.6817 266.93 53.603 262.346 Q50.5475 257.74 50.5475 249.013 Q50.5475 240.263 53.603 235.68 Q56.6817 231.073 62.4919 231.073 Z" fill="#000000" fill-rule="evenodd" fill-opacity="1" /><path clip-path="url(#clip240)" d="M82.6538 260.379 L87.538 260.379 L87.538 266.258 L82.6538 266.258 L82.6538 260.379 Z" fill="#000000" fill-rule="evenodd" fill-opacity="1" /><path clip-path="url(#clip240)" d="M101.751 262.323 L118.07 262.323 L118.07 266.258 L96.126 266.258 L96.126 262.323 Q98.788 259.569 103.371 254.939 Q107.978 250.286 109.158 248.944 Q111.404 246.421 112.283 244.684 Q113.186 242.925 113.186 241.235 Q113.186 238.481 111.242 236.745 Q109.32 235.009 106.218 235.009 Q104.019 235.009 101.566 235.772 Q99.1352 236.536 96.3574 238.087 L96.3574 233.365 Q99.1815 232.231 101.635 231.652 Q104.089 231.073 106.126 231.073 Q111.496 231.073 114.691 233.759 Q117.885 236.444 117.885 240.934 Q117.885 243.064 117.075 244.985 Q116.288 246.883 114.181 249.476 Q113.603 250.147 110.501 253.365 Q107.399 256.559 101.751 262.323 Z" fill="#000000" fill-rule="evenodd" fill-opacity="1" /><path clip-path="url(#clip240)" d="M127.931 231.698 L146.288 231.698 L146.288 235.634 L132.214 235.634 L132.214 244.106 Q133.232 243.759 134.251 243.596 Q135.269 243.411 136.288 243.411 Q142.075 243.411 145.454 246.583 Q148.834 249.754 148.834 255.17 Q148.834 260.749 145.362 263.851 Q141.89 266.93 135.57 266.93 Q133.394 266.93 131.126 266.559 Q128.88 266.189 126.473 265.448 L126.473 260.749 Q128.556 261.883 130.779 262.439 Q133.001 262.995 135.478 262.995 Q139.482 262.995 141.82 260.888 Q144.158 258.782 144.158 255.17 Q144.158 251.559 141.82 249.453 Q139.482 247.346 135.478 247.346 Q133.603 247.346 131.728 247.763 Q129.876 248.18 127.931 249.059 L127.931 231.698 Z" fill="#000000" fill-rule="evenodd" fill-opacity="1" /><path clip-path="url(#clip242)" d="M323.996 484.676 L323.996 1751.15 L947.401 1751.15 L947.401 484.676 L323.996 484.676 L323.996 484.676  Z" fill="#009af9" fill-rule="evenodd" fill-opacity="1"/>
<polyline clip-path="url(#clip242)" style="stroke:#000000; stroke-linecap:round; stroke-linejoin:round; stroke-width:4; stroke-opacity:1; fill:none" points="323.996,484.676 323.996,1751.15 947.401,1751.15 947.401,484.676 323.996,484.676 "/>
<path clip-path="url(#clip242)" d="M1103.25 341.769 L1103.25 1751.15 L1726.66 1751.15 L1726.66 341.769 L1103.25 341.769 L1103.25 341.769  Z" fill="#009af9" fill-rule="evenodd" fill-opacity="1"/>
<polyline clip-path="url(#clip242)" style="stroke:#000000; stroke-linecap:round; stroke-linejoin:round; stroke-width:4; stroke-opacity:1; fill:none" points="1103.25,341.769 1103.25,1751.15 1726.66,1751.15 1726.66,341.769 1103.25,341.769 "/>
<path clip-path="url(#clip242)" d="M1882.51 96.8724 L1882.51 1751.15 L2505.91 1751.15 L2505.91 96.8724 L1882.51 96.8724 L1882.51 96.8724  Z" fill="#009af9" fill-rule="evenodd" fill-opacity="1"/>
<polyline clip-path="url(#clip242)" style="stroke:#000000; stroke-linecap:round; stroke-linejoin:round; stroke-width:4; stroke-opacity:1; fill:none" points="1882.51,96.8724 1882.51,1751.15 2505.91,1751.15 2505.91,96.8724 1882.51,96.8724 "/>
<circle clip-path="url(#clip242)" style="fill:#009af9; stroke:none; fill-opacity:0" cx="635.699" cy="484.676" r="2"/>
<circle clip-path="url(#clip242)" style="fill:#009af9; stroke:none; fill-opacity:0" cx="1414.95" cy="341.769" r="2"/>
<circle clip-path="url(#clip242)" style="fill:#009af9; stroke:none; fill-opacity:0" cx="2194.21" cy="96.8724" r="2"/>
</svg>
