<?xml version="1.0" encoding="utf-8"?>
<svg xmlns="http://www.w3.org/2000/svg" xmlns:xlink="http://www.w3.org/1999/xlink" width="672" height="480" viewBox="0 0 2688 1920">
<defs>
  <clipPath id="clip340">
    <rect x="0" y="0" width="2688" height="1920"/>
  </clipPath>
</defs>
<path clip-path="url(#clip340)" d="M0 1920 L2688 1920 L2688 0 L0 0  Z" fill="#ffffff" fill-rule="evenodd" fill-opacity="1"/>
<defs>
  <clipPath id="clip341">
    <rect x="537" y="0" width="1883" height="1883"/>
  </clipPath>
</defs>
<path clip-path="url(#clip340)" d="M255.816 1800.78 L2640.76 1800.78 L2640.76 47.2441 L255.816 47.2441  Z" fill="#ffffff" fill-rule="evenodd" fill-opacity="1"/>
<defs>
  <clipPath id="clip342">
    <rect x="255" y="47" width="2386" height="1755"/>
  </clipPath>
</defs>
<polyline clip-path="url(#clip342)" style="stroke:#000000; stroke-linecap:round; stroke-linejoin:round; stroke-width:2; stroke-opacity:0.1; fill:none" points="690.219,1800.78 690.219,47.2441 "/>
<polyline clip-path="url(#clip342)" style="stroke:#000000; stroke-linecap:round; stroke-linejoin:round; stroke-width:2; stroke-opacity:0.1; fill:none" points="1448.29,1800.78 1448.29,47.2441 "/>
<polyline clip-path="url(#clip342)" style="stroke:#000000; stroke-linecap:round; stroke-linejoin:round; stroke-width:2; stroke-opacity:0.1; fill:none" points="2206.35,1800.78 2206.35,47.2441 "/>
<polyline clip-path="url(#clip340)" style="stroke:#000000; stroke-linecap:round; stroke-linejoin:round; stroke-width:4; stroke-opacity:1; fill:none" points="255.816,1800.78 2640.76,1800.78 "/>
<polyline clip-path="url(#clip340)" style="stroke:#000000; stroke-linecap:round; stroke-linejoin:round; stroke-width:4; stroke-opacity:1; fill:none" points="690.219,1800.78 690.219,1781.88 "/>
<polyline clip-path="url(#clip340)" style="stroke:#000000; stroke-linecap:round; stroke-linejoin:round; stroke-width:4; stroke-opacity:1; fill:none" points="1448.29,1800.78 1448.29,1781.88 "/>
<polyline clip-path="url(#clip340)" style="stroke:#000000; stroke-linecap:round; stroke-linejoin:round; stroke-width:4; stroke-opacity:1; fill:none" points="2206.35,1800.78 2206.35,1781.88 "/>
<path clip-path="url(#clip340)" d="M546.852 1830.92 L568.704 1830.92 L568.704 1834.86 L551.528 1834.86 L551.528 1845.09 L567.986 1845.09 L567.986 1849.03 L551.528 1849.03 L551.528 1861.55 L569.12 1861.55 L569.12 1865.48 L546.852 1865.48 L546.852 1830.92 Z" fill="#000000" fill-rule="evenodd" fill-opacity="1" /><path clip-path="url(#clip340)" d="M598.171 1849.84 L598.171 1865.48 L593.912 1865.48 L593.912 1849.97 Q593.912 1846.29 592.477 1844.46 Q591.041 1842.64 588.171 1842.64 Q584.722 1842.64 582.731 1844.84 Q580.74 1847.03 580.74 1850.83 L580.74 1865.48 L576.458 1865.48 L576.458 1839.56 L580.74 1839.56 L580.74 1843.59 Q582.268 1841.25 584.328 1840.09 Q586.412 1838.93 589.12 1838.93 Q593.588 1838.93 595.879 1841.71 Q598.171 1844.46 598.171 1849.84 Z" fill="#000000" fill-rule="evenodd" fill-opacity="1" /><path clip-path="url(#clip340)" d="M628.842 1851.46 L628.842 1853.54 L609.259 1853.54 Q609.537 1857.94 611.898 1860.25 Q614.282 1862.54 618.518 1862.54 Q620.972 1862.54 623.263 1861.94 Q625.578 1861.34 627.847 1860.14 L627.847 1864.16 Q625.555 1865.14 623.148 1865.65 Q620.74 1866.15 618.263 1866.15 Q612.06 1866.15 608.426 1862.54 Q604.814 1858.93 604.814 1852.78 Q604.814 1846.41 608.24 1842.68 Q611.689 1838.93 617.523 1838.93 Q622.754 1838.93 625.787 1842.31 Q628.842 1845.67 628.842 1851.46 M624.583 1850.21 Q624.537 1846.71 622.615 1844.63 Q620.717 1842.54 617.569 1842.54 Q614.004 1842.54 611.851 1844.56 Q609.722 1846.57 609.398 1850.23 L624.583 1850.21 Z" fill="#000000" fill-rule="evenodd" fill-opacity="1" /><path clip-path="url(#clip340)" d="M650.856 1843.54 Q650.138 1843.12 649.282 1842.94 Q648.448 1842.73 647.43 1842.73 Q643.819 1842.73 641.874 1845.09 Q639.953 1847.43 639.953 1851.83 L639.953 1865.48 L635.671 1865.48 L635.671 1839.56 L639.953 1839.56 L639.953 1843.59 Q641.296 1841.22 643.448 1840.09 Q645.601 1838.93 648.68 1838.93 Q649.12 1838.93 649.652 1839 Q650.185 1839.05 650.833 1839.16 L650.856 1843.54 Z" fill="#000000" fill-rule="evenodd" fill-opacity="1" /><path clip-path="url(#clip340)" d="M671.55 1852.22 Q671.55 1847.59 669.629 1845.04 Q667.731 1842.5 664.282 1842.5 Q660.856 1842.5 658.935 1845.04 Q657.036 1847.59 657.036 1852.22 Q657.036 1856.83 658.935 1859.37 Q660.856 1861.92 664.282 1861.92 Q667.731 1861.92 669.629 1859.37 Q671.55 1856.83 671.55 1852.22 M675.809 1862.27 Q675.809 1868.89 672.87 1872.1 Q669.93 1875.34 663.865 1875.34 Q661.62 1875.34 659.629 1875 Q657.638 1874.67 655.763 1873.98 L655.763 1869.84 Q657.638 1870.85 659.467 1871.34 Q661.296 1871.83 663.194 1871.83 Q667.384 1871.83 669.467 1869.63 Q671.55 1867.45 671.55 1863.03 L671.55 1860.92 Q670.231 1863.21 668.171 1864.35 Q666.11 1865.48 663.24 1865.48 Q658.472 1865.48 655.555 1861.85 Q652.638 1858.21 652.638 1852.22 Q652.638 1846.2 655.555 1842.57 Q658.472 1838.93 663.24 1838.93 Q666.11 1838.93 668.171 1840.07 Q670.231 1841.2 671.55 1843.49 L671.55 1839.56 L675.809 1839.56 L675.809 1862.27 Z" fill="#000000" fill-rule="evenodd" fill-opacity="1" /><path clip-path="url(#clip340)" d="M695.369 1867.89 Q693.564 1872.52 691.851 1873.93 Q690.138 1875.34 687.268 1875.34 L683.865 1875.34 L683.865 1871.78 L686.365 1871.78 Q688.124 1871.78 689.096 1870.95 Q690.069 1870.11 691.249 1867.01 L692.013 1865.07 L681.527 1839.56 L686.041 1839.56 L694.143 1859.84 L702.244 1839.56 L706.758 1839.56 L695.369 1867.89 Z" fill="#000000" fill-rule="evenodd" fill-opacity="1" /><path clip-path="url(#clip340)" d="M709.652 1850.6 L722.129 1850.6 L722.129 1854.4 L709.652 1854.4 L709.652 1850.6 Z" fill="#000000" fill-rule="evenodd" fill-opacity="1" /><path clip-path="url(#clip340)" d="M719.953 1830.92 L749.189 1830.92 L749.189 1834.86 L736.92 1834.86 L736.92 1865.48 L732.221 1865.48 L732.221 1834.86 L719.953 1834.86 L719.953 1830.92 Z" fill="#000000" fill-rule="evenodd" fill-opacity="1" /><path clip-path="url(#clip340)" d="M752.059 1839.56 L756.318 1839.56 L756.318 1865.48 L752.059 1865.48 L752.059 1839.56 M752.059 1829.46 L756.318 1829.46 L756.318 1834.86 L752.059 1834.86 L752.059 1829.46 Z" fill="#000000" fill-rule="evenodd" fill-opacity="1" /><path clip-path="url(#clip340)" d="M785.415 1844.53 Q787.013 1841.66 789.235 1840.3 Q791.457 1838.93 794.466 1838.93 Q798.517 1838.93 800.716 1841.78 Q802.915 1844.6 802.915 1849.84 L802.915 1865.48 L798.633 1865.48 L798.633 1849.97 Q798.633 1846.25 797.313 1844.44 Q795.994 1842.64 793.286 1842.64 Q789.975 1842.64 788.054 1844.84 Q786.133 1847.03 786.133 1850.83 L786.133 1865.48 L781.851 1865.48 L781.851 1849.97 Q781.851 1846.22 780.531 1844.44 Q779.212 1842.64 776.457 1842.64 Q773.193 1842.64 771.272 1844.86 Q769.351 1847.06 769.351 1850.83 L769.351 1865.48 L765.068 1865.48 L765.068 1839.56 L769.351 1839.56 L769.351 1843.59 Q770.809 1841.2 772.846 1840.07 Q774.883 1838.93 777.684 1838.93 Q780.508 1838.93 782.476 1840.37 Q784.466 1841.8 785.415 1844.53 Z" fill="#000000" fill-rule="evenodd" fill-opacity="1" /><path clip-path="url(#clip340)" d="M833.586 1851.46 L833.586 1853.54 L814.003 1853.54 Q814.281 1857.94 816.642 1860.25 Q819.026 1862.54 823.262 1862.54 Q825.716 1862.54 828.008 1861.94 Q830.322 1861.34 832.591 1860.14 L832.591 1864.16 Q830.299 1865.14 827.892 1865.65 Q825.485 1866.15 823.008 1866.15 Q816.804 1866.15 813.17 1862.54 Q809.559 1858.93 809.559 1852.78 Q809.559 1846.41 812.985 1842.68 Q816.434 1838.93 822.267 1838.93 Q827.498 1838.93 830.531 1842.31 Q833.586 1845.67 833.586 1851.46 M829.327 1850.21 Q829.281 1846.71 827.36 1844.63 Q825.461 1842.54 822.313 1842.54 Q818.748 1842.54 816.596 1844.56 Q814.466 1846.57 814.142 1850.23 L829.327 1850.21 Z" fill="#000000" fill-rule="evenodd" fill-opacity="1" /><path clip-path="url(#clip340)" d="M1279.03 1832.06 L1279.03 1836.62 Q1276.37 1835.34 1274 1834.72 Q1271.64 1834.09 1269.44 1834.09 Q1265.63 1834.09 1263.54 1835.58 Q1261.48 1837.06 1261.48 1839.79 Q1261.48 1842.08 1262.85 1843.26 Q1264.24 1844.42 1268.08 1845.14 L1270.9 1845.71 Q1276.13 1846.71 1278.61 1849.23 Q1281.11 1851.73 1281.11 1855.95 Q1281.11 1860.97 1277.73 1863.56 Q1274.38 1866.15 1267.87 1866.15 Q1265.42 1866.15 1262.64 1865.6 Q1259.88 1865.04 1256.92 1863.96 L1256.92 1859.14 Q1259.77 1860.74 1262.5 1861.55 Q1265.23 1862.36 1267.87 1862.36 Q1271.88 1862.36 1274.05 1860.78 Q1276.23 1859.21 1276.23 1856.29 Q1276.23 1853.75 1274.65 1852.31 Q1273.1 1850.88 1269.54 1850.16 L1266.69 1849.6 Q1261.46 1848.56 1259.12 1846.34 Q1256.78 1844.12 1256.78 1840.16 Q1256.78 1835.58 1260 1832.94 Q1263.24 1830.3 1268.91 1830.3 Q1271.34 1830.3 1273.87 1830.74 Q1276.39 1831.18 1279.03 1832.06 Z" fill="#000000" fill-rule="evenodd" fill-opacity="1" /><path clip-path="url(#clip340)" d="M1292.43 1832.2 L1292.43 1839.56 L1301.2 1839.56 L1301.2 1842.87 L1292.43 1842.87 L1292.43 1856.94 Q1292.43 1860.11 1293.29 1861.02 Q1294.17 1861.92 1296.83 1861.92 L1301.2 1861.92 L1301.2 1865.48 L1296.83 1865.48 Q1291.9 1865.48 1290.02 1863.65 Q1288.15 1861.8 1288.15 1856.94 L1288.15 1842.87 L1285.02 1842.87 L1285.02 1839.56 L1288.15 1839.56 L1288.15 1832.2 L1292.43 1832.2 Z" fill="#000000" fill-rule="evenodd" fill-opacity="1" /><path clip-path="url(#clip340)" d="M1328.98 1851.46 L1328.98 1853.54 L1309.4 1853.54 Q1309.68 1857.94 1312.04 1860.25 Q1314.42 1862.54 1318.66 1862.54 Q1321.11 1862.54 1323.4 1861.94 Q1325.72 1861.34 1327.99 1860.14 L1327.99 1864.16 Q1325.69 1865.14 1323.29 1865.65 Q1320.88 1866.15 1318.4 1866.15 Q1312.2 1866.15 1308.56 1862.54 Q1304.95 1858.93 1304.95 1852.78 Q1304.95 1846.41 1308.38 1842.68 Q1311.83 1838.93 1317.66 1838.93 Q1322.89 1838.93 1325.93 1842.31 Q1328.98 1845.67 1328.98 1851.46 M1324.72 1850.21 Q1324.68 1846.71 1322.75 1844.63 Q1320.86 1842.54 1317.71 1842.54 Q1314.14 1842.54 1311.99 1844.56 Q1309.86 1846.57 1309.54 1850.23 L1324.72 1850.21 Z" fill="#000000" fill-rule="evenodd" fill-opacity="1" /><path clip-path="url(#clip340)" d="M1347.75 1852.45 Q1342.59 1852.45 1340.6 1853.63 Q1338.61 1854.81 1338.61 1857.66 Q1338.61 1859.93 1340.09 1861.27 Q1341.6 1862.59 1344.17 1862.59 Q1347.71 1862.59 1349.84 1860.09 Q1351.99 1857.57 1351.99 1853.4 L1351.99 1852.45 L1347.75 1852.45 M1356.25 1850.69 L1356.25 1865.48 L1351.99 1865.48 L1351.99 1861.55 Q1350.53 1863.91 1348.36 1865.04 Q1346.18 1866.15 1343.03 1866.15 Q1339.05 1866.15 1336.69 1863.93 Q1334.35 1861.69 1334.35 1857.94 Q1334.35 1853.56 1337.27 1851.34 Q1340.21 1849.12 1346.02 1849.12 L1351.99 1849.12 L1351.99 1848.7 Q1351.99 1845.76 1350.05 1844.16 Q1348.12 1842.54 1344.63 1842.54 Q1342.41 1842.54 1340.3 1843.08 Q1338.19 1843.61 1336.25 1844.67 L1336.25 1840.74 Q1338.59 1839.84 1340.79 1839.4 Q1342.99 1838.93 1345.07 1838.93 Q1350.69 1838.93 1353.47 1841.85 Q1356.25 1844.77 1356.25 1850.69 Z" fill="#000000" fill-rule="evenodd" fill-opacity="1" /><path clip-path="url(#clip340)" d="M1382.08 1843.49 L1382.08 1829.46 L1386.34 1829.46 L1386.34 1865.48 L1382.08 1865.48 L1382.08 1861.59 Q1380.74 1863.91 1378.68 1865.04 Q1376.64 1866.15 1373.77 1866.15 Q1369.07 1866.15 1366.11 1862.4 Q1363.17 1858.65 1363.17 1852.54 Q1363.17 1846.43 1366.11 1842.68 Q1369.07 1838.93 1373.77 1838.93 Q1376.64 1838.93 1378.68 1840.07 Q1380.74 1841.18 1382.08 1843.49 M1367.57 1852.54 Q1367.57 1857.24 1369.49 1859.93 Q1371.43 1862.59 1374.81 1862.59 Q1378.19 1862.59 1380.14 1859.93 Q1382.08 1857.24 1382.08 1852.54 Q1382.08 1847.84 1380.14 1845.18 Q1378.19 1842.5 1374.81 1842.5 Q1371.43 1842.5 1369.49 1845.18 Q1367.57 1847.84 1367.57 1852.54 Z" fill="#000000" fill-rule="evenodd" fill-opacity="1" /><path clip-path="url(#clip340)" d="M1405.9 1867.89 Q1404.1 1872.52 1402.38 1873.93 Q1400.67 1875.34 1397.8 1875.34 L1394.4 1875.34 L1394.4 1871.78 L1396.9 1871.78 Q1398.66 1871.78 1399.63 1870.95 Q1400.6 1870.11 1401.78 1867.01 L1402.55 1865.07 L1392.06 1839.56 L1396.57 1839.56 L1404.68 1859.84 L1412.78 1839.56 L1417.29 1839.56 L1405.9 1867.89 Z" fill="#000000" fill-rule="evenodd" fill-opacity="1" /><path clip-path="url(#clip340)" d="M1458.42 1844.53 Q1460.02 1841.66 1462.24 1840.3 Q1464.47 1838.93 1467.48 1838.93 Q1471.53 1838.93 1473.73 1841.78 Q1475.92 1844.6 1475.92 1849.84 L1475.92 1865.48 L1471.64 1865.48 L1471.64 1849.97 Q1471.64 1846.25 1470.32 1844.44 Q1469 1842.64 1466.3 1842.64 Q1462.99 1842.64 1461.06 1844.84 Q1459.14 1847.03 1459.14 1850.83 L1459.14 1865.48 L1454.86 1865.48 L1454.86 1849.97 Q1454.86 1846.22 1453.54 1844.44 Q1452.22 1842.64 1449.47 1842.64 Q1446.2 1842.64 1444.28 1844.86 Q1442.36 1847.06 1442.36 1850.83 L1442.36 1865.48 L1438.08 1865.48 L1438.08 1839.56 L1442.36 1839.56 L1442.36 1843.59 Q1443.82 1841.2 1445.86 1840.07 Q1447.89 1838.93 1450.69 1838.93 Q1453.52 1838.93 1455.49 1840.37 Q1457.48 1841.8 1458.42 1844.53 Z" fill="#000000" fill-rule="evenodd" fill-opacity="1" /><path clip-path="url(#clip340)" d="M1484.42 1839.56 L1488.68 1839.56 L1488.68 1865.48 L1484.42 1865.48 L1484.42 1839.56 M1484.42 1829.46 L1488.68 1829.46 L1488.68 1834.86 L1484.42 1834.86 L1484.42 1829.46 Z" fill="#000000" fill-rule="evenodd" fill-opacity="1" /><path clip-path="url(#clip340)" d="M1519.14 1849.84 L1519.14 1865.48 L1514.88 1865.48 L1514.88 1849.97 Q1514.88 1846.29 1513.45 1844.46 Q1512.01 1842.64 1509.14 1842.64 Q1505.69 1842.64 1503.7 1844.84 Q1501.71 1847.03 1501.71 1850.83 L1501.71 1865.48 L1497.43 1865.48 L1497.43 1839.56 L1501.71 1839.56 L1501.71 1843.59 Q1503.24 1841.25 1505.3 1840.09 Q1507.38 1838.93 1510.09 1838.93 Q1514.56 1838.93 1516.85 1841.71 Q1519.14 1844.46 1519.14 1849.84 Z" fill="#000000" fill-rule="evenodd" fill-opacity="1" /><path clip-path="url(#clip340)" d="M1525.48 1850.6 L1537.96 1850.6 L1537.96 1854.4 L1525.48 1854.4 L1525.48 1850.6 Z" fill="#000000" fill-rule="evenodd" fill-opacity="1" /><path clip-path="url(#clip340)" d="M1570.81 1833.59 L1570.81 1838.52 Q1568.45 1836.32 1565.76 1835.23 Q1563.1 1834.14 1560.09 1834.14 Q1554.17 1834.14 1551.02 1837.78 Q1547.87 1841.39 1547.87 1848.24 Q1547.87 1855.07 1551.02 1858.7 Q1554.17 1862.31 1560.09 1862.31 Q1563.1 1862.31 1565.76 1861.22 Q1568.45 1860.14 1570.81 1857.94 L1570.81 1862.82 Q1568.35 1864.49 1565.6 1865.32 Q1562.87 1866.15 1559.81 1866.15 Q1551.97 1866.15 1547.45 1861.36 Q1542.94 1856.55 1542.94 1848.24 Q1542.94 1839.9 1547.45 1835.11 Q1551.97 1830.3 1559.81 1830.3 Q1562.92 1830.3 1565.65 1831.13 Q1568.4 1831.94 1570.81 1833.59 Z" fill="#000000" fill-rule="evenodd" fill-opacity="1" /><path clip-path="url(#clip340)" d="M1592.06 1834.09 Q1586.97 1834.09 1583.96 1837.89 Q1580.97 1841.69 1580.97 1848.24 Q1580.97 1854.77 1583.96 1858.56 Q1586.97 1862.36 1592.06 1862.36 Q1597.15 1862.36 1600.11 1858.56 Q1603.1 1854.77 1603.1 1848.24 Q1603.1 1841.69 1600.11 1837.89 Q1597.15 1834.09 1592.06 1834.09 M1592.06 1830.3 Q1599.33 1830.3 1603.68 1835.18 Q1608.03 1840.04 1608.03 1848.24 Q1608.03 1856.41 1603.68 1861.29 Q1599.33 1866.15 1592.06 1866.15 Q1584.77 1866.15 1580.39 1861.29 Q1576.04 1856.43 1576.04 1848.24 Q1576.04 1840.04 1580.39 1835.18 Q1584.77 1830.3 1592.06 1830.3 Z" fill="#000000" fill-rule="evenodd" fill-opacity="1" /><path clip-path="url(#clip340)" d="M1610.55 1830.92 L1639.79 1830.92 L1639.79 1834.86 L1627.52 1834.86 L1627.52 1865.48 L1622.82 1865.48 L1622.82 1834.86 L1610.55 1834.86 L1610.55 1830.92 Z" fill="#000000" fill-rule="evenodd" fill-opacity="1" /><path clip-path="url(#clip340)" d="M2080.57 1832.06 L2080.57 1836.62 Q2077.9 1835.34 2075.54 1834.72 Q2073.18 1834.09 2070.98 1834.09 Q2067.16 1834.09 2065.08 1835.58 Q2063.02 1837.06 2063.02 1839.79 Q2063.02 1842.08 2064.39 1843.26 Q2065.78 1844.42 2069.62 1845.14 L2072.44 1845.71 Q2077.67 1846.71 2080.15 1849.23 Q2082.65 1851.73 2082.65 1855.95 Q2082.65 1860.97 2079.27 1863.56 Q2075.91 1866.15 2069.41 1866.15 Q2066.96 1866.15 2064.18 1865.6 Q2061.42 1865.04 2058.46 1863.96 L2058.46 1859.14 Q2061.31 1860.74 2064.04 1861.55 Q2066.77 1862.36 2069.41 1862.36 Q2073.41 1862.36 2075.59 1860.78 Q2077.77 1859.21 2077.77 1856.29 Q2077.77 1853.75 2076.19 1852.31 Q2074.64 1850.88 2071.08 1850.16 L2068.23 1849.6 Q2063 1848.56 2060.66 1846.34 Q2058.32 1844.12 2058.32 1840.16 Q2058.32 1835.58 2061.54 1832.94 Q2064.78 1830.3 2070.45 1830.3 Q2072.88 1830.3 2075.4 1830.74 Q2077.93 1831.18 2080.57 1832.06 Z" fill="#000000" fill-rule="evenodd" fill-opacity="1" /><path clip-path="url(#clip340)" d="M2093.97 1832.2 L2093.97 1839.56 L2102.74 1839.56 L2102.74 1842.87 L2093.97 1842.87 L2093.97 1856.94 Q2093.97 1860.11 2094.83 1861.02 Q2095.71 1861.92 2098.37 1861.92 L2102.74 1861.92 L2102.74 1865.48 L2098.37 1865.48 Q2093.44 1865.48 2091.56 1863.65 Q2089.69 1861.8 2089.69 1856.94 L2089.69 1842.87 L2086.56 1842.87 L2086.56 1839.56 L2089.69 1839.56 L2089.69 1832.2 L2093.97 1832.2 Z" fill="#000000" fill-rule="evenodd" fill-opacity="1" /><path clip-path="url(#clip340)" d="M2130.52 1851.46 L2130.52 1853.54 L2110.94 1853.54 Q2111.21 1857.94 2113.58 1860.25 Q2115.96 1862.54 2120.2 1862.54 Q2122.65 1862.54 2124.94 1861.94 Q2127.26 1861.34 2129.52 1860.14 L2129.52 1864.16 Q2127.23 1865.14 2124.83 1865.65 Q2122.42 1866.15 2119.94 1866.15 Q2113.74 1866.15 2110.1 1862.54 Q2106.49 1858.93 2106.49 1852.78 Q2106.49 1846.41 2109.92 1842.68 Q2113.37 1838.93 2119.2 1838.93 Q2124.43 1838.93 2127.46 1842.31 Q2130.52 1845.67 2130.52 1851.46 M2126.26 1850.21 Q2126.21 1846.71 2124.29 1844.63 Q2122.4 1842.54 2119.25 1842.54 Q2115.68 1842.54 2113.53 1844.56 Q2111.4 1846.57 2111.08 1850.23 L2126.26 1850.21 Z" fill="#000000" fill-rule="evenodd" fill-opacity="1" /><path clip-path="url(#clip340)" d="M2149.29 1852.45 Q2144.13 1852.45 2142.14 1853.63 Q2140.15 1854.81 2140.15 1857.66 Q2140.15 1859.93 2141.63 1861.27 Q2143.14 1862.59 2145.71 1862.59 Q2149.25 1862.59 2151.38 1860.09 Q2153.53 1857.57 2153.53 1853.4 L2153.53 1852.45 L2149.29 1852.45 M2157.79 1850.69 L2157.79 1865.48 L2153.53 1865.48 L2153.53 1861.55 Q2152.07 1863.91 2149.9 1865.04 Q2147.72 1866.15 2144.57 1866.15 Q2140.59 1866.15 2138.23 1863.93 Q2135.89 1861.69 2135.89 1857.94 Q2135.89 1853.56 2138.81 1851.34 Q2141.75 1849.12 2147.56 1849.12 L2153.53 1849.12 L2153.53 1848.7 Q2153.53 1845.76 2151.58 1844.16 Q2149.66 1842.54 2146.17 1842.54 Q2143.95 1842.54 2141.84 1843.08 Q2139.73 1843.61 2137.79 1844.67 L2137.79 1840.74 Q2140.13 1839.84 2142.33 1839.4 Q2144.52 1838.93 2146.61 1838.93 Q2152.23 1838.93 2155.01 1841.85 Q2157.79 1844.77 2157.79 1850.69 Z" fill="#000000" fill-rule="evenodd" fill-opacity="1" /><path clip-path="url(#clip340)" d="M2183.62 1843.49 L2183.62 1829.46 L2187.88 1829.46 L2187.88 1865.48 L2183.62 1865.48 L2183.62 1861.59 Q2182.28 1863.91 2180.22 1865.04 Q2178.18 1866.15 2175.31 1866.15 Q2170.61 1866.15 2167.65 1862.4 Q2164.71 1858.65 2164.71 1852.54 Q2164.71 1846.43 2167.65 1842.68 Q2170.61 1838.93 2175.31 1838.93 Q2178.18 1838.93 2180.22 1840.07 Q2182.28 1841.18 2183.62 1843.49 M2169.11 1852.54 Q2169.11 1857.24 2171.03 1859.93 Q2172.97 1862.59 2176.35 1862.59 Q2179.73 1862.59 2181.68 1859.93 Q2183.62 1857.24 2183.62 1852.54 Q2183.62 1847.84 2181.68 1845.18 Q2179.73 1842.5 2176.35 1842.5 Q2172.97 1842.5 2171.03 1845.18 Q2169.11 1847.84 2169.11 1852.54 Z" fill="#000000" fill-rule="evenodd" fill-opacity="1" /><path clip-path="url(#clip340)" d="M2207.44 1867.89 Q2205.64 1872.52 2203.92 1873.93 Q2202.21 1875.34 2199.34 1875.34 L2195.94 1875.34 L2195.94 1871.78 L2198.44 1871.78 Q2200.2 1871.78 2201.17 1870.95 Q2202.14 1870.11 2203.32 1867.01 L2204.08 1865.07 L2193.6 1839.56 L2198.11 1839.56 L2206.21 1859.84 L2214.32 1839.56 L2218.83 1839.56 L2207.44 1867.89 Z" fill="#000000" fill-rule="evenodd" fill-opacity="1" /><path clip-path="url(#clip340)" d="M2251.56 1852.45 Q2246.4 1852.45 2244.41 1853.63 Q2242.42 1854.81 2242.42 1857.66 Q2242.42 1859.93 2243.9 1861.27 Q2245.4 1862.59 2247.97 1862.59 Q2251.51 1862.59 2253.64 1860.09 Q2255.8 1857.57 2255.8 1853.4 L2255.8 1852.45 L2251.56 1852.45 M2260.06 1850.69 L2260.06 1865.48 L2255.8 1865.48 L2255.8 1861.55 Q2254.34 1863.91 2252.16 1865.04 Q2249.99 1866.15 2246.84 1866.15 Q2242.86 1866.15 2240.5 1863.93 Q2238.16 1861.69 2238.16 1857.94 Q2238.16 1853.56 2241.08 1851.34 Q2244.01 1849.12 2249.83 1849.12 L2255.8 1849.12 L2255.8 1848.7 Q2255.8 1845.76 2253.85 1844.16 Q2251.93 1842.54 2248.44 1842.54 Q2246.21 1842.54 2244.11 1843.08 Q2242 1843.61 2240.06 1844.67 L2240.06 1840.74 Q2242.39 1839.84 2244.59 1839.4 Q2246.79 1838.93 2248.88 1838.93 Q2254.5 1838.93 2257.28 1841.85 Q2260.06 1844.77 2260.06 1850.69 Z" fill="#000000" fill-rule="evenodd" fill-opacity="1" /><path clip-path="url(#clip340)" d="M2287.49 1840.55 L2287.49 1844.53 Q2285.68 1843.54 2283.85 1843.05 Q2282.05 1842.54 2280.2 1842.54 Q2276.05 1842.54 2273.76 1845.18 Q2271.47 1847.8 2271.47 1852.54 Q2271.47 1857.29 2273.76 1859.93 Q2276.05 1862.54 2280.2 1862.54 Q2282.05 1862.54 2283.85 1862.06 Q2285.68 1861.55 2287.49 1860.55 L2287.49 1864.49 Q2285.7 1865.32 2283.78 1865.74 Q2281.89 1866.15 2279.73 1866.15 Q2273.88 1866.15 2270.43 1862.47 Q2266.98 1858.79 2266.98 1852.54 Q2266.98 1846.2 2270.45 1842.57 Q2273.95 1838.93 2280.01 1838.93 Q2281.98 1838.93 2283.85 1839.35 Q2285.73 1839.74 2287.49 1840.55 Z" fill="#000000" fill-rule="evenodd" fill-opacity="1" /><path clip-path="url(#clip340)" d="M2313.55 1840.55 L2313.55 1844.53 Q2311.75 1843.54 2309.92 1843.05 Q2308.11 1842.54 2306.26 1842.54 Q2302.12 1842.54 2299.82 1845.18 Q2297.53 1847.8 2297.53 1852.54 Q2297.53 1857.29 2299.82 1859.93 Q2302.12 1862.54 2306.26 1862.54 Q2308.11 1862.54 2309.92 1862.06 Q2311.75 1861.55 2313.55 1860.55 L2313.55 1864.49 Q2311.77 1865.32 2309.85 1865.74 Q2307.95 1866.15 2305.8 1866.15 Q2299.94 1866.15 2296.49 1862.47 Q2293.04 1858.79 2293.04 1852.54 Q2293.04 1846.2 2296.51 1842.57 Q2300.01 1838.93 2306.07 1838.93 Q2308.04 1838.93 2309.92 1839.35 Q2311.79 1839.74 2313.55 1840.55 Z" fill="#000000" fill-rule="evenodd" fill-opacity="1" /><path clip-path="url(#clip340)" d="M2343.13 1851.46 L2343.13 1853.54 L2323.55 1853.54 Q2323.83 1857.94 2326.19 1860.25 Q2328.57 1862.54 2332.81 1862.54 Q2335.26 1862.54 2337.56 1861.94 Q2339.87 1861.34 2342.14 1860.14 L2342.14 1864.16 Q2339.85 1865.14 2337.44 1865.65 Q2335.03 1866.15 2332.56 1866.15 Q2326.35 1866.15 2322.72 1862.54 Q2319.11 1858.93 2319.11 1852.78 Q2319.11 1846.41 2322.53 1842.68 Q2325.98 1838.93 2331.82 1838.93 Q2337.05 1838.93 2340.08 1842.31 Q2343.13 1845.67 2343.13 1851.46 M2338.88 1850.21 Q2338.83 1846.71 2336.91 1844.63 Q2335.01 1842.54 2331.86 1842.54 Q2328.3 1842.54 2326.14 1844.56 Q2324.01 1846.57 2323.69 1850.23 L2338.88 1850.21 Z" fill="#000000" fill-rule="evenodd" fill-opacity="1" /><path clip-path="url(#clip340)" d="M2350.13 1829.46 L2354.38 1829.46 L2354.38 1865.48 L2350.13 1865.48 L2350.13 1829.46 Z" fill="#000000" fill-rule="evenodd" fill-opacity="1" /><polyline clip-path="url(#clip342)" style="stroke:#000000; stroke-linecap:round; stroke-linejoin:round; stroke-width:2; stroke-opacity:0.1; fill:none" points="255.816,1751.15 2640.76,1751.15 "/>
<polyline clip-path="url(#clip342)" style="stroke:#000000; stroke-linecap:round; stroke-linejoin:round; stroke-width:2; stroke-opacity:0.1; fill:none" points="255.816,1450.72 2640.76,1450.72 "/>
<polyline clip-path="url(#clip342)" style="stroke:#000000; stroke-linecap:round; stroke-linejoin:round; stroke-width:2; stroke-opacity:0.1; fill:none" points="255.816,1150.28 2640.76,1150.28 "/>
<polyline clip-path="url(#clip342)" style="stroke:#000000; stroke-linecap:round; stroke-linejoin:round; stroke-width:2; stroke-opacity:0.1; fill:none" points="255.816,849.847 2640.76,849.847 "/>
<polyline clip-path="url(#clip342)" style="stroke:#000000; stroke-linecap:round; stroke-linejoin:round; stroke-width:2; stroke-opacity:0.1; fill:none" points="255.816,549.413 2640.76,549.413 "/>
<polyline clip-path="url(#clip342)" style="stroke:#000000; stroke-linecap:round; stroke-linejoin:round; stroke-width:2; stroke-opacity:0.1; fill:none" points="255.816,248.978 2640.76,248.978 "/>
<polyline clip-path="url(#clip340)" style="stroke:#000000; stroke-linecap:round; stroke-linejoin:round; stroke-width:4; stroke-opacity:1; fill:none" points="255.816,1800.78 255.816,47.2441 "/>
<polyline clip-path="url(#clip340)" style="stroke:#000000; stroke-linecap:round; stroke-linejoin:round; stroke-width:4; stroke-opacity:1; fill:none" points="255.816,1751.15 274.714,1751.15 "/>
<polyline clip-path="url(#clip340)" style="stroke:#000000; stroke-linecap:round; stroke-linejoin:round; stroke-width:4; stroke-opacity:1; fill:none" points="255.816,1450.72 274.714,1450.72 "/>
<polyline clip-path="url(#clip340)" style="stroke:#000000; stroke-linecap:round; stroke-linejoin:round; stroke-width:4; stroke-opacity:1; fill:none" points="255.816,1150.28 274.714,1150.28 "/>
<polyline clip-path="url(#clip340)" style="stroke:#000000; stroke-linecap:round; stroke-linejoin:round; stroke-width:4; stroke-opacity:1; fill:none" points="255.816,849.847 274.714,849.847 "/>
<polyline clip-path="url(#clip340)" style="stroke:#000000; stroke-linecap:round; stroke-linejoin:round; stroke-width:4; stroke-opacity:1; fill:none" points="255.816,549.413 274.714,549.413 "/>
<polyline clip-path="url(#clip340)" style="stroke:#000000; stroke-linecap:round; stroke-linejoin:round; stroke-width:4; stroke-opacity:1; fill:none" points="255.816,248.978 274.714,248.978 "/>
<path clip-path="url(#clip340)" d="M128.159 1736.95 Q124.548 1736.95 122.719 1740.51 Q120.913 1744.06 120.913 1751.19 Q120.913 1758.29 122.719 1761.86 Q124.548 1765.4 128.159 1765.4 Q131.793 1765.4 133.599 1761.86 Q135.427 1758.29 135.427 1751.19 Q135.427 1744.06 133.599 1740.51 Q131.793 1736.95 128.159 1736.95 M128.159 1733.25 Q133.969 1733.25 137.025 1737.85 Q140.103 1742.44 140.103 1751.19 Q140.103 1759.91 137.025 1764.52 Q133.969 1769.1 128.159 1769.1 Q122.349 1769.1 119.27 1764.52 Q116.214 1759.91 116.214 1751.19 Q116.214 1742.44 119.27 1737.85 Q122.349 1733.25 128.159 1733.25 Z" fill="#000000" fill-rule="evenodd" fill-opacity="1" /><path clip-path="url(#clip340)" d="M148.321 1762.55 L153.205 1762.55 L153.205 1768.43 L148.321 1768.43 L148.321 1762.55 Z" fill="#000000" fill-rule="evenodd" fill-opacity="1" /><path clip-path="url(#clip340)" d="M173.39 1736.95 Q169.779 1736.95 167.95 1740.51 Q166.145 1744.06 166.145 1751.19 Q166.145 1758.29 167.95 1761.86 Q169.779 1765.4 173.39 1765.4 Q177.024 1765.4 178.83 1761.86 Q180.659 1758.29 180.659 1751.19 Q180.659 1744.06 178.83 1740.51 Q177.024 1736.95 173.39 1736.95 M173.39 1733.25 Q179.2 1733.25 182.256 1737.85 Q185.334 1742.44 185.334 1751.19 Q185.334 1759.91 182.256 1764.52 Q179.2 1769.1 173.39 1769.1 Q167.58 1769.1 164.501 1764.52 Q161.446 1759.91 161.446 1751.19 Q161.446 1742.44 164.501 1737.85 Q167.58 1733.25 173.39 1733.25 Z" fill="#000000" fill-rule="evenodd" fill-opacity="1" /><path clip-path="url(#clip340)" d="M203.552 1736.95 Q199.941 1736.95 198.112 1740.51 Q196.307 1744.06 196.307 1751.19 Q196.307 1758.29 198.112 1761.86 Q199.941 1765.4 203.552 1765.4 Q207.186 1765.4 208.992 1761.86 Q210.82 1758.29 210.82 1751.19 Q210.82 1744.06 208.992 1740.51 Q207.186 1736.95 203.552 1736.95 M203.552 1733.25 Q209.362 1733.25 212.418 1737.85 Q215.496 1742.44 215.496 1751.19 Q215.496 1759.91 212.418 1764.52 Q209.362 1769.1 203.552 1769.1 Q197.742 1769.1 194.663 1764.52 Q191.608 1759.91 191.608 1751.19 Q191.608 1742.44 194.663 1737.85 Q197.742 1733.25 203.552 1733.25 Z" fill="#000000" fill-rule="evenodd" fill-opacity="1" /><path clip-path="url(#clip340)" d="M129.154 1436.52 Q125.543 1436.52 123.714 1440.08 Q121.909 1443.62 121.909 1450.75 Q121.909 1457.86 123.714 1461.42 Q125.543 1464.96 129.154 1464.96 Q132.788 1464.96 134.594 1461.42 Q136.423 1457.86 136.423 1450.75 Q136.423 1443.62 134.594 1440.08 Q132.788 1436.52 129.154 1436.52 M129.154 1432.81 Q134.964 1432.81 138.02 1437.42 Q141.099 1442 141.099 1450.75 Q141.099 1459.48 138.02 1464.08 Q134.964 1468.67 129.154 1468.67 Q123.344 1468.67 120.265 1464.08 Q117.21 1459.48 117.21 1450.75 Q117.21 1442 120.265 1437.42 Q123.344 1432.81 129.154 1432.81 Z" fill="#000000" fill-rule="evenodd" fill-opacity="1" /><path clip-path="url(#clip340)" d="M149.316 1462.12 L154.2 1462.12 L154.2 1468 L149.316 1468 L149.316 1462.12 Z" fill="#000000" fill-rule="evenodd" fill-opacity="1" /><path clip-path="url(#clip340)" d="M174.385 1436.52 Q170.774 1436.52 168.946 1440.08 Q167.14 1443.62 167.14 1450.75 Q167.14 1457.86 168.946 1461.42 Q170.774 1464.96 174.385 1464.96 Q178.02 1464.96 179.825 1461.42 Q181.654 1457.86 181.654 1450.75 Q181.654 1443.62 179.825 1440.08 Q178.02 1436.52 174.385 1436.52 M174.385 1432.81 Q180.196 1432.81 183.251 1437.42 Q186.33 1442 186.33 1450.75 Q186.33 1459.48 183.251 1464.08 Q180.196 1468.67 174.385 1468.67 Q168.575 1468.67 165.497 1464.08 Q162.441 1459.48 162.441 1450.75 Q162.441 1442 165.497 1437.42 Q168.575 1432.81 174.385 1432.81 Z" fill="#000000" fill-rule="evenodd" fill-opacity="1" /><path clip-path="url(#clip340)" d="M194.594 1433.44 L212.95 1433.44 L212.95 1437.37 L198.876 1437.37 L198.876 1445.84 Q199.895 1445.5 200.913 1445.33 Q201.932 1445.15 202.95 1445.15 Q208.737 1445.15 212.117 1448.32 Q215.496 1451.49 215.496 1456.91 Q215.496 1462.49 212.024 1465.59 Q208.552 1468.67 202.233 1468.67 Q200.057 1468.67 197.788 1468.3 Q195.543 1467.93 193.135 1467.19 L193.135 1462.49 Q195.219 1463.62 197.441 1464.18 Q199.663 1464.73 202.14 1464.73 Q206.145 1464.73 208.482 1462.63 Q210.82 1460.52 210.82 1456.91 Q210.82 1453.3 208.482 1451.19 Q206.145 1449.08 202.14 1449.08 Q200.265 1449.08 198.39 1449.5 Q196.538 1449.92 194.594 1450.8 L194.594 1433.44 Z" fill="#000000" fill-rule="evenodd" fill-opacity="1" /><path clip-path="url(#clip340)" d="M128.159 1136.08 Q124.548 1136.08 122.719 1139.65 Q120.913 1143.19 120.913 1150.32 Q120.913 1157.42 122.719 1160.99 Q124.548 1164.53 128.159 1164.53 Q131.793 1164.53 133.599 1160.99 Q135.427 1157.42 135.427 1150.32 Q135.427 1143.19 133.599 1139.65 Q131.793 1136.08 128.159 1136.08 M128.159 1132.38 Q133.969 1132.38 137.025 1136.98 Q140.103 1141.57 140.103 1150.32 Q140.103 1159.04 137.025 1163.65 Q133.969 1168.23 128.159 1168.23 Q122.349 1168.23 119.27 1163.65 Q116.214 1159.04 116.214 1150.32 Q116.214 1141.57 119.27 1136.98 Q122.349 1132.38 128.159 1132.38 Z" fill="#000000" fill-rule="evenodd" fill-opacity="1" /><path clip-path="url(#clip340)" d="M148.321 1161.68 L153.205 1161.68 L153.205 1167.56 L148.321 1167.56 L148.321 1161.68 Z" fill="#000000" fill-rule="evenodd" fill-opacity="1" /><path clip-path="url(#clip340)" d="M164.2 1163.63 L171.839 1163.63 L171.839 1137.26 L163.529 1138.93 L163.529 1134.67 L171.793 1133 L176.469 1133 L176.469 1163.63 L184.108 1163.63 L184.108 1167.56 L164.2 1167.56 L164.2 1163.63 Z" fill="#000000" fill-rule="evenodd" fill-opacity="1" /><path clip-path="url(#clip340)" d="M203.552 1136.08 Q199.941 1136.08 198.112 1139.65 Q196.307 1143.19 196.307 1150.32 Q196.307 1157.42 198.112 1160.99 Q199.941 1164.53 203.552 1164.53 Q207.186 1164.53 208.992 1160.99 Q210.82 1157.42 210.82 1150.32 Q210.82 1143.19 208.992 1139.65 Q207.186 1136.08 203.552 1136.08 M203.552 1132.38 Q209.362 1132.38 212.418 1136.98 Q215.496 1141.57 215.496 1150.32 Q215.496 1159.04 212.418 1163.65 Q209.362 1168.23 203.552 1168.23 Q197.742 1168.23 194.663 1163.65 Q191.608 1159.04 191.608 1150.32 Q191.608 1141.57 194.663 1136.98 Q197.742 1132.38 203.552 1132.38 Z" fill="#000000" fill-rule="evenodd" fill-opacity="1" /><path clip-path="url(#clip340)" d="M129.154 835.646 Q125.543 835.646 123.714 839.211 Q121.909 842.753 121.909 849.882 Q121.909 856.989 123.714 860.553 Q125.543 864.095 129.154 864.095 Q132.788 864.095 134.594 860.553 Q136.423 856.989 136.423 849.882 Q136.423 842.753 134.594 839.211 Q132.788 835.646 129.154 835.646 M129.154 831.942 Q134.964 831.942 138.02 836.549 Q141.099 841.132 141.099 849.882 Q141.099 858.609 138.02 863.215 Q134.964 867.799 129.154 867.799 Q123.344 867.799 120.265 863.215 Q117.21 858.609 117.21 849.882 Q117.21 841.132 120.265 836.549 Q123.344 831.942 129.154 831.942 Z" fill="#000000" fill-rule="evenodd" fill-opacity="1" /><path clip-path="url(#clip340)" d="M149.316 861.248 L154.2 861.248 L154.2 867.127 L149.316 867.127 L149.316 861.248 Z" fill="#000000" fill-rule="evenodd" fill-opacity="1" /><path clip-path="url(#clip340)" d="M165.196 863.192 L172.835 863.192 L172.835 836.827 L164.524 838.493 L164.524 834.234 L172.788 832.567 L177.464 832.567 L177.464 863.192 L185.103 863.192 L185.103 867.127 L165.196 867.127 L165.196 863.192 Z" fill="#000000" fill-rule="evenodd" fill-opacity="1" /><path clip-path="url(#clip340)" d="M194.594 832.567 L212.95 832.567 L212.95 836.503 L198.876 836.503 L198.876 844.975 Q199.895 844.628 200.913 844.466 Q201.932 844.28 202.95 844.28 Q208.737 844.28 212.117 847.452 Q215.496 850.623 215.496 856.04 Q215.496 861.618 212.024 864.72 Q208.552 867.799 202.233 867.799 Q200.057 867.799 197.788 867.428 Q195.543 867.058 193.135 866.317 L193.135 861.618 Q195.219 862.752 197.441 863.308 Q199.663 863.864 202.14 863.864 Q206.145 863.864 208.482 861.757 Q210.82 859.651 210.82 856.04 Q210.82 852.428 208.482 850.322 Q206.145 848.215 202.14 848.215 Q200.265 848.215 198.39 848.632 Q196.538 849.049 194.594 849.928 L194.594 832.567 Z" fill="#000000" fill-rule="evenodd" fill-opacity="1" /><path clip-path="url(#clip340)" d="M128.159 535.212 Q124.548 535.212 122.719 538.776 Q120.913 542.318 120.913 549.448 Q120.913 556.554 122.719 560.119 Q124.548 563.661 128.159 563.661 Q131.793 563.661 133.599 560.119 Q135.427 556.554 135.427 549.448 Q135.427 542.318 133.599 538.776 Q131.793 535.212 128.159 535.212 M128.159 531.508 Q133.969 531.508 137.025 536.114 Q140.103 540.698 140.103 549.448 Q140.103 558.174 137.025 562.781 Q133.969 567.364 128.159 567.364 Q122.349 567.364 119.27 562.781 Q116.214 558.174 116.214 549.448 Q116.214 540.698 119.27 536.114 Q122.349 531.508 128.159 531.508 Z" fill="#000000" fill-rule="evenodd" fill-opacity="1" /><path clip-path="url(#clip340)" d="M148.321 560.813 L153.205 560.813 L153.205 566.693 L148.321 566.693 L148.321 560.813 Z" fill="#000000" fill-rule="evenodd" fill-opacity="1" /><path clip-path="url(#clip340)" d="M167.418 562.758 L183.737 562.758 L183.737 566.693 L161.793 566.693 L161.793 562.758 Q164.455 560.003 169.038 555.374 Q173.645 550.721 174.825 549.378 Q177.071 546.855 177.95 545.119 Q178.853 543.36 178.853 541.67 Q178.853 538.915 176.909 537.179 Q174.987 535.443 171.885 535.443 Q169.686 535.443 167.233 536.207 Q164.802 536.971 162.024 538.522 L162.024 533.8 Q164.848 532.665 167.302 532.087 Q169.756 531.508 171.793 531.508 Q177.163 531.508 180.358 534.193 Q183.552 536.878 183.552 541.369 Q183.552 543.499 182.742 545.42 Q181.955 547.318 179.848 549.911 Q179.27 550.582 176.168 553.799 Q173.066 556.994 167.418 562.758 Z" fill="#000000" fill-rule="evenodd" fill-opacity="1" /><path clip-path="url(#clip340)" d="M203.552 535.212 Q199.941 535.212 198.112 538.776 Q196.307 542.318 196.307 549.448 Q196.307 556.554 198.112 560.119 Q199.941 563.661 203.552 563.661 Q207.186 563.661 208.992 560.119 Q210.82 556.554 210.82 549.448 Q210.82 542.318 208.992 538.776 Q207.186 535.212 203.552 535.212 M203.552 531.508 Q209.362 531.508 212.418 536.114 Q215.496 540.698 215.496 549.448 Q215.496 558.174 212.418 562.781 Q209.362 567.364 203.552 567.364 Q197.742 567.364 194.663 562.781 Q191.608 558.174 191.608 549.448 Q191.608 540.698 194.663 536.114 Q197.742 531.508 203.552 531.508 Z" fill="#000000" fill-rule="evenodd" fill-opacity="1" /><path clip-path="url(#clip340)" d="M129.154 234.777 Q125.543 234.777 123.714 238.342 Q121.909 241.884 121.909 249.013 Q121.909 256.12 123.714 259.684 Q125.543 263.226 129.154 263.226 Q132.788 263.226 134.594 259.684 Q136.423 256.12 136.423 249.013 Q136.423 241.884 134.594 238.342 Q132.788 234.777 129.154 234.777 M129.154 231.073 Q134.964 231.073 138.02 235.68 Q141.099 240.263 141.099 249.013 Q141.099 257.74 138.02 262.346 Q134.964 266.93 129.154 266.93 Q123.344 266.93 120.265 262.346 Q117.21 257.74 117.21 249.013 Q117.21 240.263 120.265 235.68 Q123.344 231.073 129.154 231.073 Z" fill="#000000" fill-rule="evenodd" fill-opacity="1" /><path clip-path="url(#clip340)" d="M149.316 260.379 L154.2 260.379 L154.2 266.258 L149.316 266.258 L149.316 260.379 Z" fill="#000000" fill-rule="evenodd" fill-opacity="1" /><path clip-path="url(#clip340)" d="M168.413 262.323 L184.733 262.323 L184.733 266.258 L162.788 266.258 L162.788 262.323 Q165.45 259.569 170.034 254.939 Q174.64 250.286 175.821 248.944 Q178.066 246.421 178.946 244.684 Q179.848 242.925 179.848 241.235 Q179.848 238.481 177.904 236.745 Q175.983 235.009 172.881 235.009 Q170.682 235.009 168.228 235.772 Q165.798 236.536 163.02 238.087 L163.02 233.365 Q165.844 232.231 168.297 231.652 Q170.751 231.073 172.788 231.073 Q178.159 231.073 181.353 233.759 Q184.547 236.444 184.547 240.934 Q184.547 243.064 183.737 244.985 Q182.95 246.883 180.844 249.476 Q180.265 250.147 177.163 253.365 Q174.061 256.559 168.413 262.323 Z" fill="#000000" fill-rule="evenodd" fill-opacity="1" /><path clip-path="url(#clip340)" d="M194.594 231.698 L212.95 231.698 L212.95 235.634 L198.876 235.634 L198.876 244.106 Q199.895 243.759 200.913 243.596 Q201.932 243.411 202.95 243.411 Q208.737 243.411 212.117 246.583 Q215.496 249.754 215.496 255.17 Q215.496 260.749 212.024 263.851 Q208.552 266.93 202.233 266.93 Q200.057 266.93 197.788 266.559 Q195.543 266.189 193.135 265.448 L193.135 260.749 Q195.219 261.883 197.441 262.439 Q199.663 262.995 202.14 262.995 Q206.145 262.995 208.482 260.888 Q210.82 258.782 210.82 255.17 Q210.82 251.559 208.482 249.453 Q206.145 247.346 202.14 247.346 Q200.265 247.346 198.39 247.763 Q196.538 248.18 194.594 249.059 L194.594 231.698 Z" fill="#000000" fill-rule="evenodd" fill-opacity="1" /><path clip-path="url(#clip340)" d="M14.1184 1089.36 L14.1184 1049.16 L19.5293 1049.16 L19.5293 1066.03 L61.6384 1066.03 L61.6384 1072.49 L19.5293 1072.49 L19.5293 1089.36 L14.1184 1089.36 Z" fill="#000000" fill-rule="evenodd" fill-opacity="1" /><path clip-path="url(#clip340)" d="M30.0964 1040.47 Q30.0964 1045.18 33.7885 1047.92 Q37.4488 1050.66 43.8463 1050.66 Q50.2438 1050.66 53.9359 1047.95 Q57.5962 1045.21 57.5962 1040.47 Q57.5962 1035.79 53.9041 1033.06 Q50.212 1030.32 43.8463 1030.32 Q37.5124 1030.32 33.8203 1033.06 Q30.0964 1035.79 30.0964 1040.47 M25.1311 1040.47 Q25.1311 1032.83 30.0964 1028.47 Q35.0616 1024.11 43.8463 1024.11 Q52.5991 1024.11 57.5962 1028.47 Q62.5615 1032.83 62.5615 1040.47 Q62.5615 1048.14 57.5962 1052.5 Q52.5991 1056.83 43.8463 1056.83 Q35.0616 1056.83 30.0964 1052.5 Q25.1311 1048.14 25.1311 1040.47 Z" fill="#000000" fill-rule="evenodd" fill-opacity="1" /><path clip-path="url(#clip340)" d="M15.869 1008.61 L25.9905 1008.61 L25.9905 996.549 L30.542 996.549 L30.542 1008.61 L49.8937 1008.61 Q54.2542 1008.61 55.4955 1007.43 Q56.7368 1006.22 56.7368 1002.56 L56.7368 996.549 L61.6384 996.549 L61.6384 1002.56 Q61.6384 1009.34 59.124 1011.92 Q56.5777 1014.5 49.8937 1014.5 L30.542 1014.5 L30.542 1018.8 L25.9905 1018.8 L25.9905 1014.5 L15.869 1014.5 L15.869 1008.61 Z" fill="#000000" fill-rule="evenodd" fill-opacity="1" /><path clip-path="url(#clip340)" d="M43.719 972.646 Q43.719 979.743 45.3422 982.481 Q46.9655 985.218 50.8804 985.218 Q53.9996 985.218 55.8457 983.181 Q57.6599 981.112 57.6599 977.579 Q57.6599 972.709 54.2224 969.781 Q50.7531 966.821 45.0239 966.821 L43.719 966.821 L43.719 972.646 M41.3 960.965 L61.6384 960.965 L61.6384 966.821 L56.2276 966.821 Q59.4741 968.826 61.0337 971.818 Q62.5615 974.81 62.5615 979.139 Q62.5615 984.613 59.5059 987.86 Q56.4186 991.074 51.2623 991.074 Q45.2467 991.074 42.1912 987.064 Q39.1357 983.022 39.1357 975.033 L39.1357 966.821 L38.5628 966.821 Q34.5205 966.821 32.3244 969.495 Q30.0964 972.136 30.0964 976.943 Q30.0964 979.998 30.8284 982.894 Q31.5605 985.791 33.0246 988.464 L27.6137 988.464 Q26.3724 985.25 25.7677 982.226 Q25.1311 979.202 25.1311 976.338 Q25.1311 968.603 29.1415 964.784 Q33.1519 960.965 41.3 960.965 Z" fill="#000000" fill-rule="evenodd" fill-opacity="1" /><path clip-path="url(#clip340)" d="M12.1132 948.902 L12.1132 943.045 L61.6384 943.045 L61.6384 948.902 L12.1132 948.902 Z" fill="#000000" fill-rule="evenodd" fill-opacity="1" /><path clip-path="url(#clip340)" d="M25.9905 913.476 L25.9905 907.62 L53.8086 900.299 L25.9905 893.011 L25.9905 886.104 L53.8086 878.783 L25.9905 871.495 L25.9905 865.638 L61.6384 874.964 L61.6384 881.871 L32.4198 889.541 L61.6384 897.244 L61.6384 904.151 L25.9905 913.476 Z" fill="#000000" fill-rule="evenodd" fill-opacity="1" /><path clip-path="url(#clip340)" d="M30.0964 842.944 Q30.0964 847.655 33.7885 850.392 Q37.4488 853.13 43.8463 853.13 Q50.2438 853.13 53.9359 850.424 Q57.5962 847.687 57.5962 842.944 Q57.5962 838.266 53.9041 835.528 Q50.212 832.791 43.8463 832.791 Q37.5124 832.791 33.8203 835.528 Q30.0964 838.266 30.0964 842.944 M25.1311 842.944 Q25.1311 835.306 30.0964 830.945 Q35.0616 826.585 43.8463 826.585 Q52.5991 826.585 57.5962 830.945 Q62.5615 835.306 62.5615 842.944 Q62.5615 850.615 57.5962 854.976 Q52.5991 859.304 43.8463 859.304 Q35.0616 859.304 30.0964 854.976 Q25.1311 850.615 25.1311 842.944 Z" fill="#000000" fill-rule="evenodd" fill-opacity="1" /><path clip-path="url(#clip340)" d="M31.465 796.22 Q30.8921 797.207 30.6375 798.384 Q30.351 799.53 30.351 800.931 Q30.351 805.896 33.5975 808.57 Q36.8122 811.211 42.8596 811.211 L61.6384 811.211 L61.6384 817.1 L25.9905 817.1 L25.9905 811.211 L31.5287 811.211 Q28.2821 809.365 26.7225 806.405 Q25.1311 803.445 25.1311 799.212 Q25.1311 798.607 25.2266 797.875 Q25.2903 797.143 25.4494 796.252 L31.465 796.22 Z" fill="#000000" fill-rule="evenodd" fill-opacity="1" /><path clip-path="url(#clip340)" d="M12.1132 790.3 L12.1132 784.412 L41.3637 784.412 L25.9905 766.938 L25.9905 759.458 L42.6686 778.364 L61.6384 758.662 L61.6384 766.301 L44.2282 784.412 L61.6384 784.412 L61.6384 790.3 L12.1132 790.3 Z" fill="#000000" fill-rule="evenodd" fill-opacity="1" /><path clip-path="url(#clip342)" d="M386.992 484.676 L386.992 1751.15 L993.446 1751.15 L993.446 484.676 L386.992 484.676 L386.992 484.676  Z" fill="#009af9" fill-rule="evenodd" fill-opacity="1"/>
<polyline clip-path="url(#clip342)" style="stroke:#000000; stroke-linecap:round; stroke-linejoin:round; stroke-width:4; stroke-opacity:1; fill:none" points="386.992,484.676 386.992,1751.15 993.446,1751.15 993.446,484.676 386.992,484.676 "/>
<path clip-path="url(#clip342)" d="M1145.06 341.769 L1145.06 1751.15 L1751.51 1751.15 L1751.51 341.769 L1145.06 341.769 L1145.06 341.769  Z" fill="#009af9" fill-rule="evenodd" fill-opacity="1"/>
<polyline clip-path="url(#clip342)" style="stroke:#000000; stroke-linecap:round; stroke-linejoin:round; stroke-width:4; stroke-opacity:1; fill:none" points="1145.06,341.769 1145.06,1751.15 1751.51,1751.15 1751.51,341.769 1145.06,341.769 "/>
<path clip-path="url(#clip342)" d="M1903.13 96.8724 L1903.13 1751.15 L2509.58 1751.15 L2509.58 96.8724 L1903.13 96.8724 L1903.13 96.8724  Z" fill="#009af9" fill-rule="evenodd" fill-opacity="1"/>
<polyline clip-path="url(#clip342)" style="stroke:#000000; stroke-linecap:round; stroke-linejoin:round; stroke-width:4; stroke-opacity:1; fill:none" points="1903.13,96.8724 1903.13,1751.15 2509.58,1751.15 2509.58,96.8724 1903.13,96.8724 "/>
<circle clip-path="url(#clip342)" style="fill:#009af9; stroke:none; fill-opacity:0" cx="690.219" cy="484.676" r="2"/>
<circle clip-path="url(#clip342)" style="fill:#009af9; stroke:none; fill-opacity:0" cx="1448.29" cy="341.769" r="2"/>
<circle clip-path="url(#clip342)" style="fill:#009af9; stroke:none; fill-opacity:0" cx="2206.35" cy="96.8724" r="2"/>
</svg>
