<?xml version="1.0" encoding="utf-8"?>
<!-- Generator: Adobe Illustrator 27.0.0, SVG Export Plug-In . SVG Version: 6.00 Build 0)  -->
<svg version="1.1" id="Layer_1" xmlns="http://www.w3.org/2000/svg" xmlns:xlink="http://www.w3.org/1999/xlink" x="0px" y="0px"
	 viewBox="0 0 240.14 36.99" style="enable-background:new 0 0 240.14 36.99;" xml:space="preserve">
<style type="text/css">
	.st0{fill:#E6E7E8;}
	.st1{fill-rule:evenodd;clip-rule:evenodd;fill:#1F2C5C;}
	.st2{fill:url(#SVGID_1_);}
	.st3{fill-rule:evenodd;clip-rule:evenodd;fill:#DCDDDE;}
	.st4{fill:#BCBEC0;}
	.st5{fill:#DCDDDE;}
	.st6{fill-rule:evenodd;clip-rule:evenodd;fill:#BCBEC0;}
	.st7{fill:none;stroke:#6E7799;stroke-width:0.75;}
	.st8{fill:none;stroke:#BA3537;stroke-width:0.5;stroke-linejoin:round;stroke-miterlimit:10;stroke-dasharray:2.39,1.39;}
	.st9{fill:#FFFFFF;stroke:#231F20;stroke-width:0.25;}
	.st10{fill:none;stroke:#231F20;stroke-width:0.282;}
	.st11{fill:#231F20;}
</style>
<polyline class="st0" points="26.97,2.22 37.41,35.92 182.27,36.27 "/>
<polyline class="st1" points="51.24,36.27 38.43,36.27 38.43,33.96 51.24,33.96 51.24,36.27 "/>
<polyline class="st1" points="89.67,36.27 76.86,36.27 76.86,35.12 89.67,35.12 89.67,36.27 "/>
<polyline class="st1" points="115.3,36.27 102.48,36.27 102.48,35.12 115.29,35.12 115.3,36.27 "/>
<polyline class="st1" points="102.48,36.27 89.67,36.27 89.67,33.96 102.48,33.96 102.48,36.27 "/>
<polyline class="st1" points="128.11,35.12 115.29,35.12 115.29,33.96 128.1,33.96 128.11,35.12 "/>
<polyline class="st1" points="128.11,36.27 115.29,36.27 115.29,35.12 128.1,35.12 128.11,36.27 "/>
<polyline class="st1" points="140.92,36.27 128.1,36.27 128.1,35.12 140.92,35.12 140.92,36.27 "/>
<polyline class="st1" points="153.73,36.27 140.92,36.27 140.92,35.12 153.73,35.12 153.73,36.27 "/>
<polyline class="st1" points="153.73,35.12 140.92,35.12 140.92,33.96 153.73,33.96 153.73,35.12 "/>
<polyline class="st1" points="166.54,36.27 153.73,36.27 153.73,35.12 166.54,35.12 166.54,36.27 "/>
<polyline class="st1" points="204.97,36.27 192.16,36.27 192.16,35.12 204.97,35.12 204.97,36.27 "/>
<polyline class="st1" points="140.92,35.12 128.1,35.12 128.1,32.81 140.92,32.8 140.92,35.12 "/>
<polyline class="st1" points="192.16,36.27 179.35,36.27 179.35,33.96 192.16,33.96 192.16,36.27 "/>
<linearGradient id="SVGID_1_" gradientUnits="userSpaceOnUse" x1="1.08" y1="1.37" x2="240.13" y2="1.37" gradientTransform="matrix(1 0 0 -1 0 38)">
	<stop  offset="0" style="stop-color:#FFFFFF"/>
	<stop  offset="0.05" style="stop-color:#000000"/>
	<stop  offset="0.9501" style="stop-color:#000000"/>
	<stop  offset="1" style="stop-color:#FFFFFF"/>
</linearGradient>
<path class="st2" d="M1.44,36.27h238.69v0.72H1.44c-0.2,0-0.36-0.16-0.36-0.36l0,0C1.09,36.43,1.25,36.27,1.44,36.27z"/>
<polyline class="st1" points="38.43,36.27 25.62,36.27 25.62,35.12 38.43,35.12 38.43,36.27 "/>
<polyline class="st1" points="64.05,36.27 51.24,36.27 51.24,35.12 64.05,35.12 64.05,36.27 "/>
<path class="st3" d="M16.71,31.89c-0.34,0.73-0.52,1.08-0.52,1.08c-0.02-0.01-0.05-0.02-0.06-0.02c-0.07,0.13-0.15,0.28-0.22,0.43
	c-0.26,0.54-0.47,1.15-0.37,1.35c0,0,3.57,1.48,3.69,1.51s0.8,0.02,0.8,0.02l0.61-0.03c0.13-0.02,0.36-0.08,0.37-0.28
	c0.01-0.19-0.18-0.45-0.27-0.49c-0.07-0.03-0.34-0.09-0.64-0.13c-0.18-0.02-0.32-0.08-0.5-0.13c-0.36-0.1-0.39-0.33-0.44-0.46
	c-0.11-0.31-0.57-0.91-0.58-1.04c0.01-0.04,0.1-0.21,0.37-0.79L16.71,31.89"/>
<path class="st3" d="M21.54,18.45c-0.09-0.18-0.17-1.04-0.16-1.14c0.01-0.1,0.49-0.89,2.21-0.68c1.72,0.22,2.51,1.41,2.39,1.96
	s-1.08,3.02-1.26,3.46c-0.21,0.51-0.42,0.86-0.51,1.09c-0.14,0.34-0.59,1.59-1.06,2.81c-0.48,1.26-1.5,2.63-1.61,2.91
	c-0.21,0.55-2.37,4.32-2.46,4.51c-0.07,0.01-0.21-0.01-0.33-0.03l-2.32-0.8c-0.19-0.07-0.32-0.12-0.32-0.13
	c-0.01-0.02,0.59-1.16,0.8-1.56c0.36-0.68,0.36-0.75,0.67-1.3c0.36-0.66,1.81-3.02,2.22-3.76s1.23-5,1.43-5.65
	c0.16-0.52,0.41-1.27,0.36-1.59l0,0c-0.01-0.02-0.03-0.04-0.04-0.06c-0.01-0.01-0.01-0.03-0.02-0.05"/>
<path class="st4" d="M23.33,6.21c-0.31-0.2-0.98-0.13-1.11-0.09c-0.31,0.11-0.7,0.34-1.38,1.89c-0.68,1.55-0.98,2.76-1.09,3.05
	c-0.06,0.16-0.22,0.4-0.23,0.45c-0.05,0.22-0.24,0.69-0.29,1.3c-0.06,0.63-0.03,1.48-0.05,1.76c-0.02,0.28-0.11,1.37-0.13,1.62
	c-0.02,0.25-0.23,0.96-0.24,1.05s-0.16,0.4-0.01,0.47c0.15,0.08,0.36,0.22,0.47,0.32c0.12,0.1,0.42,0.19,0.55,0.2
	c0.12,0.01,0.37,0.03,0.44-0.06s0.27-0.29,0.32-0.54s0.15-0.65,0.12-0.74c-0.02-0.1-0.18-0.42-0.17-0.55
	c0.01-0.12,0.05-0.62,0.1-0.87c0.05-0.25,0.11-1.28,0.2-1.61c0.09-0.34,0.5-1.79,0.5-1.96c0-0.11,1-1.77,1.15-1.95
	s0.73-1.02,0.87-1.28c0.09-0.16,0.52-0.97,0.54-1.33C23.9,7.17,23.69,6.45,23.33,6.21"/>
<path class="st5" d="M24.1,6.59c-0.37,0.03-0.85,0.49-0.93,0.61c-0.18,0.28-0.34,0.7,0.06,2.34c0.41,1.64,0.91,2.78,1,3.08
	c0.05,0.17,0.07,0.45,0.09,0.5c0.1,0.21,0.24,0.69,0.56,1.21c0.34,0.53,0.88,1.19,1.03,1.43c0.15,0.24,0.75,1.15,0.89,1.36
	c0.14,0.21,0.4,0.9,0.45,0.98c0.05,0.08,0.12,0.41,0.28,0.38c0.17-0.03,0.41-0.05,0.57-0.04c0.16,0.01,0.45-0.11,0.55-0.18
	c0.11-0.07,0.31-0.21,0.31-0.32s0.04-0.4-0.07-0.63s-0.28-0.6-0.36-0.66s-0.4-0.22-0.47-0.32c-0.07-0.11-0.34-0.52-0.45-0.75
	s-0.7-1.07-0.83-1.4c-0.13-0.32-0.7-1.72-0.8-1.85c-0.07-0.09-0.3-2.01-0.28-2.25c0.01-0.24-0.05-1.25-0.09-1.54
	c-0.03-0.19-0.18-1.09-0.39-1.39C25.14,7,24.54,6.56,24.1,6.59"/>
<path class="st6" d="M21,18.38c-0.11-0.25,0.65-0.96,2.26-1.35c1.69-0.4,2.23-0.47,2.57-0.03c0.34,0.44,1.63,2.76,1.85,3.18
	c0.26,0.49,0.39,0.87,0.51,1.09c0.17,0.33,1.07,1.53,1.59,2.73c0.54,1.23,0.78,2.93,0.9,3.21c0.24,0.54,1.43,5.16,1.5,5.37
	c-0.04,0.06-2.54,0.86-2.54,0.86c-0.19,0.08-0.31,0.14-0.32,0.14c-0.02-0.01-0.4-1.24-0.53-1.67c-0.22-0.74-0.27-0.79-0.44-1.4
	c-0.21-0.72-0.84-3.42-1.07-4.24s-2.93-4.03-3.31-4.61c-0.3-0.46-1.5-1.52-1.72-1.66C22.05,19.86,21.31,19.12,21,18.38"/>
<path class="st6" d="M26.58,18.61c0.3-0.08,0.47-1.28,0.53-1.65c0.08-0.5,0.21-1.25,0.24-1.71c0.08-1.03-0.03-1.46-0.06-2.14
	c-0.04-1.12,0.16-2.58-0.16-3.36c-0.28-0.69-0.97-2.05-1.5-2.76c-0.38-0.51-0.51-1.12-0.56-1.49c-0.02-0.14-0.03-0.37-0.01-0.45
	c0.03-0.14,0.22-0.24,0.32-0.22c0.28,0.05,0.56,0.04,0.72-0.02c0.1-0.03,0.2-0.24,0.2-0.44c0-0.24,0.13-0.86,0.14-1
	c0-0.13,0.12-0.1,0.26-0.09c0.14,0,0.18-0.09,0.11-0.3c-0.04-0.12-0.19-0.31-0.32-0.5c-0.11-0.16-0.21-0.32-0.21-0.43
	c0-0.19,0.08-0.39,0.04-0.6c-0.04-0.23-0.1-0.47-0.43-0.82C25.61,0.36,25.26,0.01,24.14,0c-0.98-0.01-1.41,0.33-1.81,0.85
	s-0.41,1.75-0.32,2.03c0.23,0.67,0.38,0.91,0.53,1.33c0.17,0.48,0.18,0.75,0.19,0.82c0.01,0.14-0.66,1.07-0.87,1.51
	c-0.32,0.65-0.4,1.08-0.43,2.32c-0.01,0.36,0.07,0.92,0.09,1.1c0.06,0.58,0.2,1.16,0.21,1.59c0.01,0.43,0.02,0.85,0.1,1.2
	c0.05,0.22,0.09,0.78,0,1.22c-0.06,0.28-0.16,0.56-0.23,0.85c-0.16,0.74-0.98,2.48-0.67,3.33c0.07,0.18,0.05,0.33,0.23,0.43
	c0.01,0.01,0.06,0.02,0.14,0.02L26.58,18.61"/>
<line class="st7" x1="23.72" y1="17.6" x2="18.69" y2="35.92"/>
<path class="st8" d="M23.81,17.75c2.3-1.27,4.91-2.08,7.7-2.3c2.03-0.16,4.01,0,5.89,0.43"/>
<path class="st8" d="M0.08,18.11c1.98-0.69,4.11-1.06,6.33-1.06c2.21,0,4.34,0.37,6.33,1.06h0.06c1.98-0.69,4.11-1.06,6.33-1.06
	c1.54,0,3.03,0.18,4.46,0.52"/>
<path class="st6" d="M29.4,33.22c0.12,0.42,0.12,0.46,0.11,0.49c-0.04,0.6,0,1.24,0.17,1.39l3.88,0.01l1.38-0.21
	c0.13-0.03,0.35-0.12,0.34-0.32c-0.01-0.18-0.23-0.42-0.33-0.45c-0.11-0.04-0.69-0.05-1.2-0.1c-0.37-0.04-0.62-0.17-0.72-0.28
	c-0.22-0.25-0.87-0.63-0.92-0.74c0-0.02-0.02-0.07-0.17-0.53L29.4,33.22"/>
<line class="st7" x1="23.72" y1="17.6" x2="32.06" y2="34.79"/>
<circle cx="18.69" cy="35.92" r="0.37"/>
<circle cx="32.06" cy="34.79" r="0.37"/>
<path class="st9" d="M24.63,17.6c0,0.5-0.41,0.91-0.91,0.91s-0.91-0.41-0.91-0.91s0.41-0.91,0.91-0.91S24.63,17.09,24.63,17.6z"/>
<path class="st10" d="M23.58,17.6h0.14v-0.91c-0.5,0-0.91,0.41-0.91,0.91H23.58"/>
<path class="st10" d="M23.72,18.51c0.5,0,0.91-0.41,0.91-0.91h-0.91V18.51z"/>
<path class="st11" d="M23.58,17.6h0.14v-0.91c-0.5,0-0.91,0.41-0.91,0.91H23.58"/>
<path class="st11" d="M23.72,18.51c0.5,0,0.91-0.41,0.91-0.91h-0.91V18.51"/>
</svg>
